<?xml version="1.0" standalone="no"?>
 <!DOCTYPE svg PUBLIC "-//W3C//DTD SVG 1.1//EN" 
 "http://www.w3.org/Graphics/SVG/1.1/DTD/svg11.dtd"> 
<svg xmlns="http://www.w3.org/2000/svg" version="1.1" 
    width="29.7002cm" height="21.0007cm" viewBox="0 0 116930 82680 ">
<title>SVG Picture created as Intercom.svg date 2015/06/04 14:45:13 </title>
  <desc>Picture generated by Eeschema-SVG </desc>
<g style="fill:#000000; fill-opacity:1;stroke:#000000; stroke-opacity:1;
stroke-linecap:round; stroke-linejoin:round; "
 transform="translate(0 0) scale(1 1)">
</g>
<g style="fill:#840000; fill-opacity:0.0; 
stroke:#840000; stroke-width:100; stroke-opacity:1; 
stroke-linecap:round; stroke-linejoin:round;">
</g>
<g style="fill:#840000; fill-opacity:0.0; 
stroke:#840000; stroke-width:60; stroke-opacity:1; 
stroke-linecap:round; stroke-linejoin:round;">
<rect x="69680" y="65350" width="42520" height="12600" rx="0" />
</g>
<g style="fill:#840000; fill-opacity:0.0; 
stroke:#840000; stroke-width:100; stroke-opacity:1; 
stroke-linecap:round; stroke-linejoin:round;">
</g>
<g style="fill:#840000; fill-opacity:0.0; 
stroke:#840000; stroke-width:60; stroke-opacity:1; 
stroke-linecap:round; stroke-linejoin:round;">
<rect x="3930" y="3930" width="109060" height="74810" rx="0" />
</g>
<g style="fill:#840000; fill-opacity:0.0; 
stroke:#840000; stroke-width:100; stroke-opacity:1; 
stroke-linecap:round; stroke-linejoin:round;">
</g>
<g style="fill:#840000; fill-opacity:0.0; 
stroke:#840000; stroke-width:60; stroke-opacity:1; 
stroke-linecap:round; stroke-linejoin:round;">
<rect x="4720" y="4720" width="107480" height="73230" rx="0" />
</g>
<g style="fill:#840000; fill-opacity:0.0; 
stroke:#840000; stroke-width:100; stroke-opacity:1; 
stroke-linecap:round; stroke-linejoin:round;">
</g>
<g style="fill:#840000; fill-opacity:0.0; 
stroke:#840000; stroke-width:60; stroke-opacity:1; 
stroke-linecap:round; stroke-linejoin:round;">
<path d="M23620 4720
L23620 3930
" />
</g>
<g style="fill:#840000; fill-opacity:0.0; 
stroke:#840000; stroke-width:100; stroke-opacity:1; 
stroke-linecap:round; stroke-linejoin:round;">
</g>
<g style="fill:#840000; fill-opacity:0.0; 
stroke:#840000; stroke-width:60; stroke-opacity:1; 
stroke-linecap:round; stroke-linejoin:round;">
<path d="M43300 4720
L43300 3930
" />
</g>
<g style="fill:#840000; fill-opacity:0.0; 
stroke:#840000; stroke-width:100; stroke-opacity:1; 
stroke-linecap:round; stroke-linejoin:round;">
</g>
<g style="fill:#840000; fill-opacity:0.0; 
stroke:#840000; stroke-width:60; stroke-opacity:1; 
stroke-linecap:round; stroke-linejoin:round;">
<path d="M62990 4720
L62990 3930
" />
</g>
<g style="fill:#840000; fill-opacity:0.0; 
stroke:#840000; stroke-width:100; stroke-opacity:1; 
stroke-linecap:round; stroke-linejoin:round;">
</g>
<g style="fill:#840000; fill-opacity:0.0; 
stroke:#840000; stroke-width:60; stroke-opacity:1; 
stroke-linecap:round; stroke-linejoin:round;">
<path d="M82670 4720
L82670 3930
" />
</g>
<g style="fill:#840000; fill-opacity:0.0; 
stroke:#840000; stroke-width:100; stroke-opacity:1; 
stroke-linecap:round; stroke-linejoin:round;">
</g>
<g style="fill:#840000; fill-opacity:0.0; 
stroke:#840000; stroke-width:60; stroke-opacity:1; 
stroke-linecap:round; stroke-linejoin:round;">
<path d="M102360 4720
L102360 3930
" />
</g>
<g style="fill:#840000; fill-opacity:0.0; 
stroke:#840000; stroke-width:100; stroke-opacity:1; 
stroke-linecap:round; stroke-linejoin:round;">
</g>
<g style="fill:#840000; fill-opacity:0.0; 
stroke:#840000; stroke-width:60; stroke-opacity:1; 
stroke-linecap:round; stroke-linejoin:round;">
<path d="M14160 4560
L13870 4560
" />
<path d="M14010 4560
L14010 4050
L13960 4120
L13920 4170
L13870 4190
" />
</g>
<g style="fill:#840000; fill-opacity:0.0; 
stroke:#840000; stroke-width:100; stroke-opacity:1; 
stroke-linecap:round; stroke-linejoin:round;">
</g>
<g style="fill:#840000; fill-opacity:0.0; 
stroke:#840000; stroke-width:60; stroke-opacity:1; 
stroke-linecap:round; stroke-linejoin:round;">
<path d="M33560 4090
L33580 4070
L33630 4050
L33750 4050
L33800 4070
L33820 4090
L33850 4140
L33850 4190
L33820 4260
L33530 4560
L33850 4560
" />
</g>
<g style="fill:#840000; fill-opacity:0.0; 
stroke:#840000; stroke-width:100; stroke-opacity:1; 
stroke-linecap:round; stroke-linejoin:round;">
</g>
<g style="fill:#840000; fill-opacity:0.0; 
stroke:#840000; stroke-width:60; stroke-opacity:1; 
stroke-linecap:round; stroke-linejoin:round;">
<path d="M53210 4050
L53530 4050
L53360 4240
L53430 4240
L53480 4260
L53500 4290
L53530 4340
L53530 4460
L53500 4510
L53480 4530
L53430 4560
L53290 4560
L53240 4530
L53210 4510
" />
</g>
<g style="fill:#840000; fill-opacity:0.0; 
stroke:#840000; stroke-width:100; stroke-opacity:1; 
stroke-linecap:round; stroke-linejoin:round;">
</g>
<g style="fill:#840000; fill-opacity:0.0; 
stroke:#840000; stroke-width:60; stroke-opacity:1; 
stroke-linecap:round; stroke-linejoin:round;">
<path d="M73170 4220
L73170 4560
" />
<path d="M73050 4020
L72930 4390
L73240 4390
" />
</g>
<g style="fill:#840000; fill-opacity:0.0; 
stroke:#840000; stroke-width:100; stroke-opacity:1; 
stroke-linecap:round; stroke-linejoin:round;">
</g>
<g style="fill:#840000; fill-opacity:0.0; 
stroke:#840000; stroke-width:60; stroke-opacity:1; 
stroke-linecap:round; stroke-linejoin:round;">
<path d="M92870 4050
L92630 4050
L92610 4290
L92630 4260
L92680 4240
L92800 4240
L92850 4260
L92870 4290
L92900 4340
L92900 4460
L92870 4510
L92850 4530
L92800 4560
L92680 4560
L92630 4530
L92610 4510
" />
</g>
<g style="fill:#840000; fill-opacity:0.0; 
stroke:#840000; stroke-width:100; stroke-opacity:1; 
stroke-linecap:round; stroke-linejoin:round;">
</g>
<g style="fill:#840000; fill-opacity:0.0; 
stroke:#840000; stroke-width:60; stroke-opacity:1; 
stroke-linecap:round; stroke-linejoin:round;">
<path d="M112540 4050
L112440 4050
L112390 4070
L112370 4090
L112320 4170
L112300 4260
L112300 4460
L112320 4510
L112350 4530
L112390 4560
L112490 4560
L112540 4530
L112560 4510
L112590 4460
L112590 4340
L112560 4290
L112540 4260
L112490 4240
L112390 4240
L112350 4260
L112320 4290
L112300 4340
" />
</g>
<g style="fill:#840000; fill-opacity:0.0; 
stroke:#840000; stroke-width:100; stroke-opacity:1; 
stroke-linecap:round; stroke-linejoin:round;">
</g>
<g style="fill:#840000; fill-opacity:0.0; 
stroke:#840000; stroke-width:60; stroke-opacity:1; 
stroke-linecap:round; stroke-linejoin:round;">
<path d="M23620 77950
L23620 78740
" />
</g>
<g style="fill:#840000; fill-opacity:0.0; 
stroke:#840000; stroke-width:100; stroke-opacity:1; 
stroke-linecap:round; stroke-linejoin:round;">
</g>
<g style="fill:#840000; fill-opacity:0.0; 
stroke:#840000; stroke-width:60; stroke-opacity:1; 
stroke-linecap:round; stroke-linejoin:round;">
<path d="M43300 77950
L43300 78740
" />
</g>
<g style="fill:#840000; fill-opacity:0.0; 
stroke:#840000; stroke-width:100; stroke-opacity:1; 
stroke-linecap:round; stroke-linejoin:round;">
</g>
<g style="fill:#840000; fill-opacity:0.0; 
stroke:#840000; stroke-width:60; stroke-opacity:1; 
stroke-linecap:round; stroke-linejoin:round;">
<path d="M62990 77950
L62990 78740
" />
</g>
<g style="fill:#840000; fill-opacity:0.0; 
stroke:#840000; stroke-width:100; stroke-opacity:1; 
stroke-linecap:round; stroke-linejoin:round;">
</g>
<g style="fill:#840000; fill-opacity:0.0; 
stroke:#840000; stroke-width:60; stroke-opacity:1; 
stroke-linecap:round; stroke-linejoin:round;">
<path d="M82670 77950
L82670 78740
" />
</g>
<g style="fill:#840000; fill-opacity:0.0; 
stroke:#840000; stroke-width:100; stroke-opacity:1; 
stroke-linecap:round; stroke-linejoin:round;">
</g>
<g style="fill:#840000; fill-opacity:0.0; 
stroke:#840000; stroke-width:60; stroke-opacity:1; 
stroke-linecap:round; stroke-linejoin:round;">
<path d="M102360 77950
L102360 78740
" />
</g>
<g style="fill:#840000; fill-opacity:0.0; 
stroke:#840000; stroke-width:100; stroke-opacity:1; 
stroke-linecap:round; stroke-linejoin:round;">
</g>
<g style="fill:#840000; fill-opacity:0.0; 
stroke:#840000; stroke-width:60; stroke-opacity:1; 
stroke-linecap:round; stroke-linejoin:round;">
<path d="M14160 78570
L13870 78570
" />
<path d="M14010 78570
L14010 78060
L13960 78130
L13920 78180
L13870 78200
" />
</g>
<g style="fill:#840000; fill-opacity:0.0; 
stroke:#840000; stroke-width:100; stroke-opacity:1; 
stroke-linecap:round; stroke-linejoin:round;">
</g>
<g style="fill:#840000; fill-opacity:0.0; 
stroke:#840000; stroke-width:60; stroke-opacity:1; 
stroke-linecap:round; stroke-linejoin:round;">
<path d="M33560 78100
L33580 78080
L33630 78060
L33750 78060
L33800 78080
L33820 78100
L33850 78150
L33850 78200
L33820 78270
L33530 78570
L33850 78570
" />
</g>
<g style="fill:#840000; fill-opacity:0.0; 
stroke:#840000; stroke-width:100; stroke-opacity:1; 
stroke-linecap:round; stroke-linejoin:round;">
</g>
<g style="fill:#840000; fill-opacity:0.0; 
stroke:#840000; stroke-width:60; stroke-opacity:1; 
stroke-linecap:round; stroke-linejoin:round;">
<path d="M53210 78060
L53530 78060
L53360 78250
L53430 78250
L53480 78270
L53500 78300
L53530 78350
L53530 78470
L53500 78520
L53480 78540
L53430 78570
L53290 78570
L53240 78540
L53210 78520
" />
</g>
<g style="fill:#840000; fill-opacity:0.0; 
stroke:#840000; stroke-width:100; stroke-opacity:1; 
stroke-linecap:round; stroke-linejoin:round;">
</g>
<g style="fill:#840000; fill-opacity:0.0; 
stroke:#840000; stroke-width:60; stroke-opacity:1; 
stroke-linecap:round; stroke-linejoin:round;">
<path d="M73170 78230
L73170 78570
" />
<path d="M73050 78030
L72930 78400
L73240 78400
" />
</g>
<g style="fill:#840000; fill-opacity:0.0; 
stroke:#840000; stroke-width:100; stroke-opacity:1; 
stroke-linecap:round; stroke-linejoin:round;">
</g>
<g style="fill:#840000; fill-opacity:0.0; 
stroke:#840000; stroke-width:60; stroke-opacity:1; 
stroke-linecap:round; stroke-linejoin:round;">
<path d="M92870 78060
L92630 78060
L92610 78300
L92630 78270
L92680 78250
L92800 78250
L92850 78270
L92870 78300
L92900 78350
L92900 78470
L92870 78520
L92850 78540
L92800 78570
L92680 78570
L92630 78540
L92610 78520
" />
</g>
<g style="fill:#840000; fill-opacity:0.0; 
stroke:#840000; stroke-width:100; stroke-opacity:1; 
stroke-linecap:round; stroke-linejoin:round;">
</g>
<g style="fill:#840000; fill-opacity:0.0; 
stroke:#840000; stroke-width:60; stroke-opacity:1; 
stroke-linecap:round; stroke-linejoin:round;">
<path d="M112540 78060
L112440 78060
L112390 78080
L112370 78100
L112320 78180
L112300 78270
L112300 78470
L112320 78520
L112350 78540
L112390 78570
L112490 78570
L112540 78540
L112560 78520
L112590 78470
L112590 78350
L112560 78300
L112540 78270
L112490 78250
L112390 78250
L112350 78270
L112320 78300
L112300 78350
" />
</g>
<g style="fill:#840000; fill-opacity:0.0; 
stroke:#840000; stroke-width:100; stroke-opacity:1; 
stroke-linecap:round; stroke-linejoin:round;">
</g>
<g style="fill:#840000; fill-opacity:0.0; 
stroke:#840000; stroke-width:60; stroke-opacity:1; 
stroke-linecap:round; stroke-linejoin:round;">
<path d="M3930 23620
L4720 23620
" />
</g>
<g style="fill:#840000; fill-opacity:0.0; 
stroke:#840000; stroke-width:100; stroke-opacity:1; 
stroke-linecap:round; stroke-linejoin:round;">
</g>
<g style="fill:#840000; fill-opacity:0.0; 
stroke:#840000; stroke-width:60; stroke-opacity:1; 
stroke-linecap:round; stroke-linejoin:round;">
<path d="M3930 43300
L4720 43300
" />
</g>
<g style="fill:#840000; fill-opacity:0.0; 
stroke:#840000; stroke-width:100; stroke-opacity:1; 
stroke-linecap:round; stroke-linejoin:round;">
</g>
<g style="fill:#840000; fill-opacity:0.0; 
stroke:#840000; stroke-width:60; stroke-opacity:1; 
stroke-linecap:round; stroke-linejoin:round;">
<path d="M3930 62990
L4720 62990
" />
</g>
<g style="fill:#840000; fill-opacity:0.0; 
stroke:#840000; stroke-width:100; stroke-opacity:1; 
stroke-linecap:round; stroke-linejoin:round;">
</g>
<g style="fill:#840000; fill-opacity:0.0; 
stroke:#840000; stroke-width:60; stroke-opacity:1; 
stroke-linecap:round; stroke-linejoin:round;">
<path d="M4210 13850
L4450 13850
" />
<path d="M4160 14000
L4330 13490
L4500 14000
" />
</g>
<g style="fill:#840000; fill-opacity:0.0; 
stroke:#840000; stroke-width:100; stroke-opacity:1; 
stroke-linecap:round; stroke-linejoin:round;">
</g>
<g style="fill:#840000; fill-opacity:0.0; 
stroke:#840000; stroke-width:60; stroke-opacity:1; 
stroke-linecap:round; stroke-linejoin:round;">
<path d="M4370 33420
L4440 33440
L4470 33470
L4490 33520
L4490 33590
L4470 33640
L4440 33660
L4400 33690
L4200 33690
L4200 33180
L4370 33180
L4420 33200
L4440 33220
L4470 33270
L4470 33320
L4440 33370
L4420 33390
L4370 33420
L4200 33420
" />
</g>
<g style="fill:#840000; fill-opacity:0.0; 
stroke:#840000; stroke-width:100; stroke-opacity:1; 
stroke-linecap:round; stroke-linejoin:round;">
</g>
<g style="fill:#840000; fill-opacity:0.0; 
stroke:#840000; stroke-width:60; stroke-opacity:1; 
stroke-linecap:round; stroke-linejoin:round;">
<path d="M4490 53320
L4470 53340
L4400 53370
L4350 53370
L4270 53340
L4230 53290
L4200 53240
L4180 53150
L4180 53070
L4200 52980
L4230 52930
L4270 52880
L4350 52860
L4400 52860
L4470 52880
L4490 52900
" />
</g>
<g style="fill:#840000; fill-opacity:0.0; 
stroke:#840000; stroke-width:100; stroke-opacity:1; 
stroke-linecap:round; stroke-linejoin:round;">
</g>
<g style="fill:#840000; fill-opacity:0.0; 
stroke:#840000; stroke-width:60; stroke-opacity:1; 
stroke-linecap:round; stroke-linejoin:round;">
<path d="M4200 73060
L4200 72550
L4320 72550
L4400 72570
L4440 72620
L4470 72670
L4490 72760
L4490 72840
L4470 72930
L4440 72980
L4400 73030
L4320 73060
L4200 73060
" />
</g>
<g style="fill:#840000; fill-opacity:0.0; 
stroke:#840000; stroke-width:100; stroke-opacity:1; 
stroke-linecap:round; stroke-linejoin:round;">
</g>
<g style="fill:#840000; fill-opacity:0.0; 
stroke:#840000; stroke-width:60; stroke-opacity:1; 
stroke-linecap:round; stroke-linejoin:round;">
<path d="M112990 23620
L112200 23620
" />
</g>
<g style="fill:#840000; fill-opacity:0.0; 
stroke:#840000; stroke-width:100; stroke-opacity:1; 
stroke-linecap:round; stroke-linejoin:round;">
</g>
<g style="fill:#840000; fill-opacity:0.0; 
stroke:#840000; stroke-width:60; stroke-opacity:1; 
stroke-linecap:round; stroke-linejoin:round;">
<path d="M112990 43300
L112200 43300
" />
</g>
<g style="fill:#840000; fill-opacity:0.0; 
stroke:#840000; stroke-width:100; stroke-opacity:1; 
stroke-linecap:round; stroke-linejoin:round;">
</g>
<g style="fill:#840000; fill-opacity:0.0; 
stroke:#840000; stroke-width:60; stroke-opacity:1; 
stroke-linecap:round; stroke-linejoin:round;">
<path d="M112990 62990
L112200 62990
" />
</g>
<g style="fill:#840000; fill-opacity:0.0; 
stroke:#840000; stroke-width:100; stroke-opacity:1; 
stroke-linecap:round; stroke-linejoin:round;">
</g>
<g style="fill:#840000; fill-opacity:0.0; 
stroke:#840000; stroke-width:60; stroke-opacity:1; 
stroke-linecap:round; stroke-linejoin:round;">
<path d="M112470 13850
L112710 13850
" />
<path d="M112420 14000
L112590 13490
L112760 14000
" />
</g>
<g style="fill:#840000; fill-opacity:0.0; 
stroke:#840000; stroke-width:100; stroke-opacity:1; 
stroke-linecap:round; stroke-linejoin:round;">
</g>
<g style="fill:#840000; fill-opacity:0.0; 
stroke:#840000; stroke-width:60; stroke-opacity:1; 
stroke-linecap:round; stroke-linejoin:round;">
<path d="M112630 33420
L112700 33440
L112730 33470
L112750 33520
L112750 33590
L112730 33640
L112700 33660
L112660 33690
L112460 33690
L112460 33180
L112630 33180
L112680 33200
L112700 33220
L112730 33270
L112730 33320
L112700 33370
L112680 33390
L112630 33420
L112460 33420
" />
</g>
<g style="fill:#840000; fill-opacity:0.0; 
stroke:#840000; stroke-width:100; stroke-opacity:1; 
stroke-linecap:round; stroke-linejoin:round;">
</g>
<g style="fill:#840000; fill-opacity:0.0; 
stroke:#840000; stroke-width:60; stroke-opacity:1; 
stroke-linecap:round; stroke-linejoin:round;">
<path d="M112750 53320
L112730 53340
L112660 53370
L112610 53370
L112530 53340
L112490 53290
L112460 53240
L112440 53150
L112440 53070
L112460 52980
L112490 52930
L112530 52880
L112610 52860
L112660 52860
L112730 52880
L112750 52900
" />
</g>
<g style="fill:#840000; fill-opacity:0.0; 
stroke:#840000; stroke-width:100; stroke-opacity:1; 
stroke-linecap:round; stroke-linejoin:round;">
</g>
<g style="fill:#840000; fill-opacity:0.0; 
stroke:#840000; stroke-width:60; stroke-opacity:1; 
stroke-linecap:round; stroke-linejoin:round;">
<path d="M112460 73060
L112460 72550
L112580 72550
L112660 72570
L112700 72620
L112730 72670
L112750 72760
L112750 72840
L112730 72930
L112700 72980
L112660 73030
L112580 73060
L112460 73060
" />
</g>
<g style="fill:#840000; fill-opacity:0.0; 
stroke:#840000; stroke-width:100; stroke-opacity:1; 
stroke-linecap:round; stroke-linejoin:round;">
</g>
<g style="fill:#840000; fill-opacity:0.0; 
stroke:#840000; stroke-width:60; stroke-opacity:1; 
stroke-linecap:round; stroke-linejoin:round;">
<path d="M78880 76280
L78880 75690
L79020 75690
L79110 75720
L79160 75780
L79190 75830
L79220 75940
L79220 76030
L79190 76140
L79160 76200
L79110 76250
L79020 76280
L78880 76280
" />
<path d="M79720 76280
L79720 75970
L79700 75920
L79640 75890
L79530 75890
L79470 75920
" />
<path d="M79720 76250
L79670 76280
L79530 76280
L79470 76250
L79440 76200
L79440 76140
L79470 76090
L79530 76060
L79670 76060
L79720 76030
" />
<path d="M79920 75890
L80140 75890
" />
<path d="M80000 75690
L80000 76200
L80030 76250
L80080 76280
L80140 76280
" />
<path d="M80570 76250
L80510 76280
L80400 76280
L80340 76250
L80310 76200
L80310 75970
L80340 75920
L80400 75890
L80510 75890
L80570 75920
L80590 75970
L80590 76030
L80310 76090
" />
<path d="M80850 76230
L80880 76250
L80850 76280
L80820 76250
L80850 76230
L80850 76280
" />
<path d="M80850 75920
L80880 75940
L80850 75970
L80820 75940
L80850 75920
L80850 75970
" />
</g>
<g style="fill:#840000; fill-opacity:0.0; 
stroke:#840000; stroke-width:100; stroke-opacity:1; 
stroke-linecap:round; stroke-linejoin:round;">
</g>
<g style="fill:#840000; fill-opacity:0.0; 
stroke:#840000; stroke-width:60; stroke-opacity:1; 
stroke-linecap:round; stroke-linejoin:round;">
<path d="M69680 76570
L112200 76570
" />
</g>
<g style="fill:#840000; fill-opacity:0.0; 
stroke:#840000; stroke-width:100; stroke-opacity:1; 
stroke-linecap:round; stroke-linejoin:round;">
</g>
<g style="fill:#840000; fill-opacity:0.0; 
stroke:#840000; stroke-width:60; stroke-opacity:1; 
stroke-linecap:round; stroke-linejoin:round;">
<path d="M70210 77380
L70210 76790
" />
<path d="M70550 77380
L70290 77040
" />
<path d="M70550 76790
L70210 77130
" />
<path d="M70800 77380
L70800 76990
" />
<path d="M70800 76790
L70770 76820
L70800 76850
L70830 76820
L70800 76790
L70800 76850
" />
<path d="M71420 77330
L71390 77350
L71310 77380
L71250 77380
L71160 77350
L71110 77300
L71080 77240
L71050 77130
L71050 77040
L71080 76930
L71110 76880
L71160 76820
L71250 76790
L71310 76790
L71390 76820
L71420 76850
" />
<path d="M71920 77380
L71920 77070
L71900 77020
L71840 76990
L71730 76990
L71670 77020
" />
<path d="M71920 77350
L71870 77380
L71730 77380
L71670 77350
L71640 77300
L71640 77240
L71670 77190
L71730 77160
L71870 77160
L71920 77130
" />
<path d="M72450 77380
L72450 76790
" />
<path d="M72450 77350
L72400 77380
L72280 77380
L72230 77350
L72200 77330
L72170 77270
L72170 77100
L72200 77040
L72230 77020
L72280 76990
L72400 76990
L72450 77020
" />
<path d="M73180 77070
L73380 77070
" />
<path d="M73460 77380
L73180 77380
L73180 76790
L73460 76790
" />
<path d="M73710 77330
L73740 77350
L73710 77380
L73680 77350
L73710 77330
L73710 77380
" />
<path d="M73990 77380
L73990 76790
L74130 76790
L74220 76820
L74270 76880
L74300 76930
L74330 77040
L74330 77130
L74300 77240
L74270 77300
L74220 77350
L74130 77380
L73990 77380
" />
<path d="M74580 77330
L74610 77350
L74580 77380
L74550 77350
L74580 77330
L74580 77380
" />
<path d="M74830 77210
L75110 77210
" />
<path d="M74780 77380
L74970 76790
L75170 77380
" />
<path d="M75370 77330
L75400 77350
L75370 77380
L75340 77350
L75370 77330
L75370 77380
" />
<path d="M76780 77350
L76720 77380
L76610 77380
L76550 77350
L76520 77300
L76520 77070
L76550 77020
L76610 76990
L76720 76990
L76780 77020
L76800 77070
L76800 77130
L76520 77190
" />
<path d="M77290 77350
L77230 77380
L77120 77380
L77060 77350
L77030 77300
L77030 77070
L77060 77020
L77120 76990
L77230 76990
L77290 77020
L77310 77070
L77310 77130
L77030 77190
" />
<path d="M77540 77350
L77600 77380
L77710 77380
L77770 77350
L77800 77300
L77800 77270
L77770 77210
L77710 77190
L77630 77190
L77570 77160
L77540 77100
L77540 77070
L77570 77020
L77630 76990
L77710 76990
L77770 77020
" />
<path d="M78300 77350
L78250 77380
L78130 77380
L78080 77350
L78050 77330
L78020 77270
L78020 77100
L78050 77040
L78080 77020
L78130 76990
L78250 76990
L78300 77020
" />
<path d="M78560 77380
L78560 76790
" />
<path d="M78810 77380
L78810 77070
L78790 77020
L78730 76990
L78640 76990
L78590 77020
L78560 77040
" />
<path d="M79320 77350
L79260 77380
L79150 77380
L79090 77350
L79060 77300
L79060 77070
L79090 77020
L79150 76990
L79260 76990
L79320 77020
L79340 77070
L79340 77130
L79060 77190
" />
<path d="M79600 77380
L79600 76990
" />
<path d="M79600 77040
L79630 77020
L79680 76990
L79770 76990
L79830 77020
L79850 77070
L79850 77380
" />
<path d="M79850 77070
L79880 77020
L79940 76990
L80020 76990
L80080 77020
L80110 77070
L80110 77380
" />
<path d="M80640 77380
L80640 77070
L80620 77020
L80560 76990
L80450 76990
L80390 77020
" />
<path d="M80640 77350
L80590 77380
L80450 77380
L80390 77350
L80360 77300
L80360 77240
L80390 77190
L80450 77160
L80590 77160
L80640 77130
" />
<path d="M81540 77610
L81510 77580
L81450 77490
L81430 77440
L81400 77350
L81370 77210
L81370 77100
L81400 76960
L81430 76880
L81450 76820
L81510 76740
L81540 76710
" />
<path d="M81730 76850
L81760 76820
L81820 76790
L81960 76790
L82010 76820
L82040 76850
L82070 76900
L82070 76960
L82040 77040
L81700 77380
L82070 77380
" />
<path d="M82430 76790
L82490 76790
L82550 76820
L82570 76850
L82600 76900
L82630 77020
L82630 77160
L82600 77270
L82570 77330
L82550 77350
L82490 77380
L82430 77380
L82380 77350
L82350 77330
L82320 77270
L82290 77160
L82290 77020
L82320 76900
L82350 76850
L82380 76820
L82430 76790
" />
<path d="M83190 77380
L82850 77380
" />
<path d="M83020 77380
L83020 76790
L82960 76880
L82910 76930
L82850 76960
" />
<path d="M83690 76990
L83690 77380
" />
<path d="M83550 76760
L83410 77190
L83780 77190
" />
<path d="M84000 77160
L84450 77160
" />
<path d="M84840 76790
L84900 76790
L84960 76820
L84980 76850
L85010 76900
L85040 77020
L85040 77160
L85010 77270
L84980 77330
L84960 77350
L84900 77380
L84840 77380
L84790 77350
L84760 77330
L84730 77270
L84700 77160
L84700 77020
L84730 76900
L84760 76850
L84790 76820
L84840 76790
" />
<path d="M85230 76790
L85600 76790
L85400 77020
L85490 77020
L85540 77040
L85570 77070
L85600 77130
L85600 77270
L85570 77330
L85540 77350
L85490 77380
L85320 77380
L85260 77350
L85230 77330
" />
<path d="M85850 77160
L86300 77160
" />
<path d="M86890 77380
L86550 77380
" />
<path d="M86720 77380
L86720 76790
L86660 76880
L86610 76930
L86550 76960
" />
<path d="M87170 77380
L87280 77380
L87340 77350
L87370 77330
L87420 77240
L87450 77130
L87450 76900
L87420 76850
L87390 76820
L87340 76790
L87220 76790
L87170 76820
L87140 76850
L87110 76900
L87110 77040
L87140 77100
L87170 77130
L87220 77160
L87340 77160
L87390 77130
L87420 77100
L87450 77040
" />
<path d="M88350 77070
L88430 77100
L88460 77130
L88490 77190
L88490 77270
L88460 77330
L88430 77350
L88380 77380
L88150 77380
L88150 76790
L88350 76790
L88400 76820
L88430 76850
L88460 76900
L88460 76960
L88430 77020
L88400 77040
L88350 77070
L88150 77070
" />
<path d="M88680 76790
L89080 76790
L88680 77380
L89080 77380
" />
<path d="M89640 77380
L89440 77100
" />
<path d="M89300 77380
L89300 76790
L89530 76790
L89580 76820
L89610 76850
L89640 76900
L89640 76990
L89610 77040
L89580 77070
L89530 77100
L89300 77100
" />
<path d="M90590 76990
L90590 77380
" />
<path d="M90450 76760
L90310 77190
L90680 77190
" />
<path d="M90840 76790
L91240 76790
L90980 77380
" />
<path d="M91740 76790
L91460 76790
L91430 77070
L91460 77040
L91520 77020
L91660 77020
L91710 77040
L91740 77070
L91770 77130
L91770 77270
L91740 77330
L91710 77350
L91660 77380
L91520 77380
L91460 77350
L91430 77330
" />
<path d="M92270 76790
L92160 76790
L92100 76820
L92080 76850
L92020 76930
L91990 77040
L91990 77270
L92020 77330
L92050 77350
L92100 77380
L92220 77380
L92270 77350
L92300 77330
L92330 77270
L92330 77130
L92300 77070
L92270 77040
L92220 77020
L92100 77020
L92050 77040
L92020 77070
L91990 77130
" />
<path d="M92520 77610
L92550 77580
L92610 77490
L92640 77440
L92660 77350
L92690 77210
L92690 77100
L92660 76960
L92640 76880
L92610 76820
L92550 76740
L92520 76710
" />
<path d="M92970 77160
L93420 77160
" />
<path d="M93700 76990
L93700 77580
" />
<path d="M93700 77020
L93760 76990
L93870 76990
L93930 77020
L93950 77040
L93980 77100
L93980 77270
L93950 77330
L93930 77350
L93870 77380
L93760 77380
L93700 77350
" />
<path d="M94230 77380
L94230 76990
" />
<path d="M94230 77100
L94260 77040
L94290 77020
L94340 76990
L94400 76990
" />
<path d="M94680 77380
L94630 77350
L94600 77330
L94570 77270
L94570 77100
L94600 77040
L94630 77020
L94680 76990
L94770 76990
L94830 77020
L94850 77040
L94880 77100
L94880 77270
L94850 77330
L94830 77350
L94770 77380
L94680 77380
" />
<path d="M95380 77380
L95380 76790
" />
<path d="M95380 77350
L95330 77380
L95210 77380
L95160 77350
L95130 77330
L95100 77270
L95100 77100
L95130 77040
L95160 77020
L95210 76990
L95330 76990
L95380 77020
" />
<path d="M95910 76990
L95910 77380
" />
<path d="M95660 76990
L95660 77300
L95690 77350
L95740 77380
L95830 77380
L95890 77350
L95910 77330
" />
<path d="M96440 77350
L96390 77380
L96270 77380
L96220 77350
L96190 77330
L96160 77270
L96160 77100
L96190 77040
L96220 77020
L96270 76990
L96390 76990
L96440 77020
" />
<path d="M96620 76990
L96840 76990
" />
<path d="M96700 76790
L96700 77300
L96730 77350
L96780 77380
L96840 77380
" />
</g>
<g style="fill:#840000; fill-opacity:0.0; 
stroke:#840000; stroke-width:100; stroke-opacity:1; 
stroke-linecap:round; stroke-linejoin:round;">
</g>
<g style="fill:#840000; fill-opacity:0.0; 
stroke:#840000; stroke-width:60; stroke-opacity:1; 
stroke-linecap:round; stroke-linejoin:round;">
<path d="M69680 75390
L112200 75390
" />
</g>
<g style="fill:#840000; fill-opacity:0.0; 
stroke:#840000; stroke-width:100; stroke-opacity:1; 
stroke-linecap:round; stroke-linejoin:round;">
</g>
<g style="fill:#840000; fill-opacity:0.0; 
stroke:#840000; stroke-width:120; stroke-opacity:1; 
stroke-linecap:round; stroke-linejoin:round;">
<path d="M104020 76280
L103820 76000
" />
<path d="M103680 76280
L103680 75690
L103910 75690
L103960 75720
L103990 75750
L104020 75800
L104020 75890
L103990 75940
L103960 75970
L103910 76000
L103680 76000
" />
<path d="M104500 76250
L104440 76280
L104330 76280
L104270 76250
L104240 76200
L104240 75970
L104270 75920
L104330 75890
L104440 75890
L104500 75920
L104520 75970
L104520 76030
L104240 76090
" />
<path d="M104720 75890
L104860 76280
L105010 75890
" />
<path d="M105230 76230
L105260 76250
L105230 76280
L105200 76250
L105230 76230
L105230 76280
" />
<path d="M105230 75920
L105260 75940
L105230 75970
L105200 75940
L105230 75920
L105230 75970
" />
</g>
<g style="fill:#840000; fill-opacity:0.0; 
stroke:#840000; stroke-width:100; stroke-opacity:1; 
stroke-linecap:round; stroke-linejoin:round;">
</g>
<g style="fill:#840000; fill-opacity:0.0; 
stroke:#840000; stroke-width:60; stroke-opacity:1; 
stroke-linecap:round; stroke-linejoin:round;">
<path d="M70180 76250
L70270 76280
L70410 76280
L70460 76250
L70490 76230
L70520 76170
L70520 76110
L70490 76060
L70460 76030
L70410 76000
L70290 75970
L70240 75940
L70210 75920
L70180 75860
L70180 75800
L70210 75750
L70240 75720
L70290 75690
L70440 75690
L70520 75720
" />
<path d="M70770 76280
L70770 75890
" />
<path d="M70770 75690
L70740 75720
L70770 75750
L70800 75720
L70770 75690
L70770 75750
" />
<path d="M70990 75890
L71300 75890
L70990 76280
L71300 76280
" />
<path d="M71760 76250
L71700 76280
L71590 76280
L71530 76250
L71500 76200
L71500 75970
L71530 75920
L71590 75890
L71700 75890
L71760 75920
L71780 75970
L71780 76030
L71500 76090
" />
<path d="M72040 76230
L72070 76250
L72040 76280
L72010 76250
L72040 76230
L72040 76280
" />
<path d="M72040 75920
L72070 75940
L72040 75970
L72010 75940
L72040 75920
L72040 75970
" />
<path d="M72740 76110
L73020 76110
" />
<path d="M72690 76280
L72880 75690
L73080 76280
" />
<path d="M73530 75890
L73530 76280
" />
<path d="M73390 75660
L73250 76090
L73620 76090
" />
</g>
<g style="fill:#840000; fill-opacity:0.0; 
stroke:#840000; stroke-width:100; stroke-opacity:1; 
stroke-linecap:round; stroke-linejoin:round;">
</g>
<g style="fill:#840000; fill-opacity:0.0; 
stroke:#840000; stroke-width:60; stroke-opacity:1; 
stroke-linecap:round; stroke-linejoin:round;">
<path d="M103680 77380
L103680 76790
" />
<path d="M104210 77380
L104210 76790
" />
<path d="M104210 77350
L104160 77380
L104040 77380
L103990 77350
L103960 77330
L103930 77270
L103930 77100
L103960 77040
L103990 77020
L104040 76990
L104160 76990
L104210 77020
" />
<path d="M104490 77330
L104520 77350
L104490 77380
L104460 77350
L104490 77330
L104490 77380
" />
<path d="M104490 77020
L104520 77040
L104490 77070
L104460 77040
L104490 77020
L104490 77070
" />
<path d="M105530 77380
L105190 77380
" />
<path d="M105360 77380
L105360 76790
L105300 76880
L105250 76930
L105190 76960
" />
<path d="M106200 76760
L105700 77520
" />
<path d="M106650 76990
L106650 77380
" />
<path d="M106510 76760
L106370 77190
L106740 77190
" />
</g>
<g style="fill:#840000; fill-opacity:0.0; 
stroke:#840000; stroke-width:100; stroke-opacity:1; 
stroke-linecap:round; stroke-linejoin:round;">
</g>
<g style="fill:#840000; fill-opacity:0.0; 
stroke:#840000; stroke-width:60; stroke-opacity:1; 
stroke-linecap:round; stroke-linejoin:round;">
<path d="M69680 73820
L112200 73820
" />
</g>
<g style="fill:#840000; fill-opacity:0.0; 
stroke:#840000; stroke-width:100; stroke-opacity:1; 
stroke-linecap:round; stroke-linejoin:round;">
</g>
<g style="fill:#840000; fill-opacity:0.0; 
stroke:#840000; stroke-width:160; stroke-opacity:1; 
stroke-linecap:round; stroke-linejoin:round;">
<path d="M70250 74090
L70700 74090
" />
<path d="M70380 74880
L70470 74090
" />
<path d="M70870 74880
L70930 74360
" />
<path d="M70960 74090
L70920 74130
L70950 74170
L71000 74130
L70960 74090
L70950 74170
" />
<path d="M71200 74360
L71500 74360
" />
<path d="M71340 74090
L71260 74770
L71290 74840
L71360 74880
L71440 74880
" />
<path d="M71810 74880
L71740 74840
L71710 74770
L71790 74090
" />
<path d="M72410 74840
L72330 74880
L72180 74880
L72110 74840
L72080 74770
L72120 74470
L72170 74390
L72240 74360
L72390 74360
L72470 74390
L72500 74470
L72490 74540
L72100 74620
" />
<path d="M72790 74810
L72830 74840
L72790 74880
L72750 74840
L72790 74810
L72790 74880
" />
<path d="M72850 74390
L72880 74430
L72840 74470
L72800 74430
L72850 74390
L72840 74470
" />
</g>
<g style="fill:#840000; fill-opacity:0.0; 
stroke:#840000; stroke-width:100; stroke-opacity:1; 
stroke-linecap:round; stroke-linejoin:round;">
</g>
<g style="fill:#840000; fill-opacity:0.0; 
stroke:#840000; stroke-width:60; stroke-opacity:1; 
stroke-linecap:round; stroke-linejoin:round;">
<path d="M70410 73060
L70210 73060
" />
<path d="M70210 73370
L70210 72780
L70490 72780
" />
<path d="M70720 73370
L70720 72980
" />
<path d="M70720 72780
L70690 72810
L70720 72840
L70750 72810
L70720 72780
L70720 72840
" />
<path d="M71080 73370
L71030 73340
L71000 73290
L71000 72780
" />
<path d="M71540 73340
L71480 73370
L71370 73370
L71310 73340
L71280 73290
L71280 73060
L71310 73010
L71370 72980
L71480 72980
L71540 73010
L71560 73060
L71560 73120
L71280 73180
" />
<path d="M71820 73320
L71850 73340
L71820 73370
L71790 73340
L71820 73320
L71820 73370
" />
<path d="M71820 73010
L71850 73030
L71820 73060
L71790 73030
L71820 73010
L71820 73060
" />
<path d="M72550 73370
L72550 72780
" />
<path d="M72830 72980
L72830 73370
" />
<path d="M72830 73030
L72860 73010
L72910 72980
L73000 72980
L73060 73010
L73080 73060
L73080 73370
" />
<path d="M73280 72980
L73500 72980
" />
<path d="M73360 72780
L73360 73290
L73390 73340
L73440 73370
L73500 73370
" />
<path d="M73930 73340
L73870 73370
L73760 73370
L73700 73340
L73670 73290
L73670 73060
L73700 73010
L73760 72980
L73870 72980
L73930 73010
L73950 73060
L73950 73120
L73670 73180
" />
<path d="M74210 73370
L74210 72980
" />
<path d="M74210 73090
L74240 73030
L74270 73010
L74320 72980
L74380 72980
" />
<path d="M74830 73340
L74780 73370
L74660 73370
L74610 73340
L74580 73320
L74550 73260
L74550 73090
L74580 73030
L74610 73010
L74660 72980
L74780 72980
L74830 73010
" />
<path d="M75170 73370
L75120 73340
L75090 73320
L75060 73260
L75060 73090
L75090 73030
L75120 73010
L75170 72980
L75260 72980
L75320 73010
L75340 73030
L75370 73090
L75370 73260
L75340 73320
L75320 73340
L75260 73370
L75170 73370
" />
<path d="M75620 73370
L75620 72980
" />
<path d="M75620 73030
L75650 73010
L75700 72980
L75790 72980
L75850 73010
L75870 73060
L75870 73370
" />
<path d="M75870 73060
L75900 73010
L75960 72980
L76040 72980
L76100 73010
L76130 73060
L76130 73370
" />
<path d="M76410 73320
L76440 73340
L76410 73370
L76380 73340
L76410 73320
L76410 73370
" />
<path d="M76660 73340
L76720 73370
L76830 73370
L76890 73340
L76920 73290
L76920 73260
L76890 73200
L76830 73180
L76750 73180
L76690 73150
L76660 73090
L76660 73060
L76690 73010
L76750 72980
L76830 72980
L76890 73010
" />
<path d="M77420 73340
L77370 73370
L77250 73370
L77200 73340
L77170 73320
L77140 73260
L77140 73090
L77170 73030
L77200 73010
L77250 72980
L77370 72980
L77420 73010
" />
<path d="M77680 73370
L77680 72780
" />
<path d="M77930 73370
L77930 73060
L77910 73010
L77850 72980
L77760 72980
L77710 73010
L77680 73030
" />
</g>
<g style="fill:#840000; fill-opacity:0.0; 
stroke:#840000; stroke-width:100; stroke-opacity:1; 
stroke-linecap:round; stroke-linejoin:round;">
</g>
<g style="fill:#840000; fill-opacity:0.0; 
stroke:#840000; stroke-width:60; stroke-opacity:1; 
stroke-linecap:round; stroke-linejoin:round;">
<path d="M69680 71450
L112200 71450
" />
</g>
<g style="fill:#840000; fill-opacity:0.0; 
stroke:#840000; stroke-width:100; stroke-opacity:1; 
stroke-linecap:round; stroke-linejoin:round;">
</g>
<g style="fill:#840000; fill-opacity:0.0; 
stroke:#840000; stroke-width:60; stroke-opacity:1; 
stroke-linecap:round; stroke-linejoin:round;">
<path d="M70180 72280
L70270 72310
L70410 72310
L70460 72280
L70490 72260
L70520 72200
L70520 72140
L70490 72090
L70460 72060
L70410 72030
L70290 72000
L70240 71970
L70210 71950
L70180 71890
L70180 71830
L70210 71780
L70240 71750
L70290 71720
L70440 71720
L70520 71750
" />
<path d="M70770 72310
L70770 71720
" />
<path d="M71020 72310
L71020 72000
L71000 71950
L70940 71920
L70850 71920
L70800 71950
L70770 71970
" />
<path d="M71530 72280
L71470 72310
L71360 72310
L71300 72280
L71270 72230
L71270 72000
L71300 71950
L71360 71920
L71470 71920
L71530 71950
L71550 72000
L71550 72060
L71270 72120
" />
<path d="M72040 72280
L71980 72310
L71870 72310
L71810 72280
L71780 72230
L71780 72000
L71810 71950
L71870 71920
L71980 71920
L72040 71950
L72060 72000
L72060 72060
L71780 72120
" />
<path d="M72240 71920
L72460 71920
" />
<path d="M72320 71720
L72320 72230
L72350 72280
L72400 72310
L72460 72310
" />
<path d="M72660 72260
L72690 72280
L72660 72310
L72630 72280
L72660 72260
L72660 72310
" />
<path d="M72660 71950
L72690 71970
L72660 72000
L72630 71970
L72660 71950
L72660 72000
" />
<path d="M73810 71690
L73310 72450
" />
</g>
<g style="fill:#840000; fill-opacity:0.0; 
stroke:#840000; stroke-width:100; stroke-opacity:1; 
stroke-linecap:round; stroke-linejoin:round;">
</g>
<g style="fill:#840000; fill-opacity:0.0; 
stroke:#840000; stroke-width:60; stroke-opacity:1; 
stroke-linecap:round; stroke-linejoin:round;">
<path d="M77550 75390
L77550 76570
" />
</g>
<g style="fill:#840000; fill-opacity:0.0; 
stroke:#840000; stroke-width:100; stroke-opacity:1; 
stroke-linecap:round; stroke-linejoin:round;">
</g>
<g style="fill:#840000; fill-opacity:0.0; 
stroke:#840000; stroke-width:60; stroke-opacity:1; 
stroke-linecap:round; stroke-linejoin:round;">
<path d="M102750 75390
L102750 77950
" />
</g>
<g style="fill:#840084; fill-opacity:0.0; 
stroke:#840084; stroke-width:60; stroke-opacity:1; 
stroke-linecap:round; stroke-linejoin:round;">
<path d="M45000 34500
L72500 34500
L72500 48500
L45000 48500
L45000 34500
" />
</g>
<g style="fill:#008484; fill-opacity:0.0; 
stroke:#008484; stroke-width:60; stroke-opacity:1; 
stroke-linecap:round; stroke-linejoin:round;">
<path d="M45120 34440
L45120 33940
L45290 34290
L45450 33940
L45450 34440
" />
<path d="M45690 34440
L45690 34100
" />
<path d="M45690 33940
L45670 33960
L45690 33980
L45710 33960
L45690 33940
L45690 33980
" />
<path d="M46140 34410
L46100 34440
L46000 34440
L45950 34410
L45930 34390
L45910 34340
L45910 34200
L45930 34150
L45950 34130
L46000 34100
L46100 34100
L46140 34130
" />
<path d="M46360 34440
L46360 34100
" />
<path d="M46360 34200
L46380 34150
L46410 34130
L46450 34100
L46500 34100
" />
<path d="M46740 34440
L46690 34410
L46670 34390
L46650 34340
L46650 34200
L46670 34150
L46690 34130
L46740 34100
L46810 34100
L46860 34130
L46880 34150
L46910 34200
L46910 34340
L46880 34390
L46860 34410
L46810 34440
L46740 34440
" />
<path d="M47120 34100
L47120 34600
" />
<path d="M47120 34130
L47170 34100
L47260 34100
L47310 34130
L47330 34150
L47360 34200
L47360 34340
L47330 34390
L47310 34410
L47260 34440
L47170 34440
L47120 34410
" />
<path d="M47570 34440
L47570 33940
" />
<path d="M47780 34440
L47780 34170
L47760 34130
L47710 34100
L47640 34100
L47590 34130
L47570 34150
" />
<path d="M48090 34440
L48040 34410
L48020 34390
L48000 34340
L48000 34200
L48020 34150
L48040 34130
L48090 34100
L48160 34100
L48210 34130
L48230 34150
L48260 34200
L48260 34340
L48230 34390
L48210 34410
L48160 34440
L48090 34440
" />
<path d="M48470 34100
L48470 34440
" />
<path d="M48470 34150
L48490 34130
L48540 34100
L48610 34100
L48660 34130
L48680 34170
L48680 34440
" />
<path d="M49110 34410
L49060 34440
L48970 34440
L48920 34410
L48900 34360
L48900 34170
L48920 34130
L48970 34100
L49060 34100
L49110 34130
L49130 34170
L49130 34220
L48900 34270
" />
</g>
<g style="fill:#848400; fill-opacity:0.0; 
stroke:#848400; stroke-width:60; stroke-opacity:1; 
stroke-linecap:round; stroke-linejoin:round;">
<path d="M45120 49020
L45120 48520
L45290 48870
L45450 48520
L45450 49020
" />
<path d="M45690 49020
L45690 48680
" />
<path d="M45690 48520
L45670 48540
L45690 48560
L45710 48540
L45690 48520
L45690 48560
" />
<path d="M46140 48990
L46100 49020
L46000 49020
L45950 48990
L45930 48970
L45910 48920
L45910 48780
L45930 48730
L45950 48710
L46000 48680
L46100 48680
L46140 48710
" />
<path d="M46360 49020
L46360 48680
" />
<path d="M46360 48780
L46380 48730
L46410 48710
L46450 48680
L46500 48680
" />
<path d="M46740 49020
L46690 48990
L46670 48970
L46650 48920
L46650 48780
L46670 48730
L46690 48710
L46740 48680
L46810 48680
L46860 48710
L46880 48730
L46910 48780
L46910 48920
L46880 48970
L46860 48990
L46810 49020
L46740 49020
" />
<path d="M47120 48680
L47120 49180
" />
<path d="M47120 48710
L47170 48680
L47260 48680
L47310 48710
L47330 48730
L47360 48780
L47360 48920
L47330 48970
L47310 48990
L47260 49020
L47170 49020
L47120 48990
" />
<path d="M47570 49020
L47570 48520
" />
<path d="M47780 49020
L47780 48750
L47760 48710
L47710 48680
L47640 48680
L47590 48710
L47570 48730
" />
<path d="M48090 49020
L48040 48990
L48020 48970
L48000 48920
L48000 48780
L48020 48730
L48040 48710
L48090 48680
L48160 48680
L48210 48710
L48230 48730
L48260 48780
L48260 48920
L48230 48970
L48210 48990
L48160 49020
L48090 49020
" />
<path d="M48470 48680
L48470 49020
" />
<path d="M48470 48730
L48490 48710
L48540 48680
L48610 48680
L48660 48710
L48680 48750
L48680 49020
" />
<path d="M49110 48990
L49060 49020
L48970 49020
L48920 48990
L48900 48940
L48900 48750
L48920 48710
L48970 48680
L49060 48680
L49110 48710
L49130 48750
L49130 48800
L48900 48850
" />
<path d="M49350 48970
L49370 48990
L49350 49020
L49330 48990
L49350 48970
L49350 49020
" />
<path d="M49570 48990
L49610 49020
L49710 49020
L49760 48990
L49780 48940
L49780 48920
L49760 48870
L49710 48850
L49640 48850
L49590 48830
L49570 48780
L49570 48750
L49590 48710
L49640 48680
L49710 48680
L49760 48710
" />
<path d="M50200 48990
L50160 49020
L50060 49020
L50010 48990
L49990 48970
L49970 48920
L49970 48780
L49990 48730
L50010 48710
L50060 48680
L50160 48680
L50200 48710
" />
<path d="M50420 49020
L50420 48520
" />
<path d="M50630 49020
L50630 48750
L50610 48710
L50560 48680
L50490 48680
L50440 48710
L50420 48730
" />
</g>
<g style="fill:#840084; fill-opacity:0.0; 
stroke:#840084; stroke-width:60; stroke-opacity:1; 
stroke-linecap:round; stroke-linejoin:round;">
<path d="M45900 41270
L45900 40670
L46100 41100
L46300 40670
L46300 41270
" />
<path d="M46590 41270
L46590 40670
" />
<path d="M47230 41210
L47200 41240
L47110 41270
L47050 41270
L46970 41240
L46910 41190
L46880 41130
L46850 41010
L46850 40930
L46880 40810
L46910 40760
L46970 40700
L47050 40670
L47110 40670
L47200 40700
L47230 40730
" />
</g>
<g style="fill:#848400; fill-opacity:0.0; 
stroke:#848400; stroke-width:60; stroke-opacity:1; 
stroke-linecap:round; stroke-linejoin:round;">
</g>
<g style="fill:#848400; fill-opacity:0.0; 
stroke:#848400; stroke-width:100; stroke-opacity:1; 
stroke-linecap:round; stroke-linejoin:round;">
<polyline fill="none;"
points="45600,41000
45300,40700
45000,40700
45000,41300
45300,41300
45600,41000
" /> 
</g>
<g style="fill:#848400; fill-opacity:0.0; 
stroke:#848400; stroke-width:60; stroke-opacity:1; 
stroke-linecap:round; stroke-linejoin:round;">
<path d="M45870 43240
L45960 43270
L46100 43270
L46160 43240
L46190 43210
L46220 43160
L46220 43100
L46190 43040
L46160 43010
L46100 42990
L45990 42960
L45930 42930
L45900 42900
L45870 42840
L45870 42790
L45900 42730
L45930 42700
L45990 42670
L46130 42670
L46220 42700
" />
<path d="M46470 43270
L46470 42670
L46700 42670
L46760 42700
L46790 42730
L46820 42790
L46820 42870
L46790 42930
L46760 42960
L46700 42990
L46470 42990
" />
<path d="M47070 43270
L47070 42670
" />
<path d="M47420 43270
L47160 42930
" />
<path d="M47420 42670
L47070 43010
" />
<path d="M48020 43270
L47820 42990
" />
<path d="M47670 43270
L47670 42670
L47900 42670
L47960 42700
L47990 42730
L48020 42790
L48020 42870
L47990 42930
L47960 42960
L47900 42990
L47670 42990
" />
</g>
<g style="fill:#848400; fill-opacity:0.0; 
stroke:#848400; stroke-width:100; stroke-opacity:1; 
stroke-linecap:round; stroke-linejoin:round;">
<polyline fill="none;"
points="45600,43000
45300,42700
45000,42700
45000,43300
45300,43300
45600,43000
" /> 
</g>
<g style="fill:#848400; fill-opacity:0.0; 
stroke:#848400; stroke-width:60; stroke-opacity:1; 
stroke-linecap:round; stroke-linejoin:round;">
</g>
<g style="fill:#840084; fill-opacity:0.0; 
stroke:#840084; stroke-width:60; stroke-opacity:1; 
stroke-linecap:round; stroke-linejoin:round;">
<path d="M45000 12500
L74000 12500
L74000 26500
L45000 26500
L45000 12500
" />
</g>
<g style="fill:#008484; fill-opacity:0.0; 
stroke:#008484; stroke-width:60; stroke-opacity:1; 
stroke-linecap:round; stroke-linejoin:round;">
<path d="M45120 12440
L45120 11940
L45310 11940
L45360 11960
L45380 11980
L45400 12030
L45400 12100
L45380 12150
L45360 12170
L45310 12200
L45120 12200
" />
<path d="M45690 12440
L45640 12410
L45620 12390
L45600 12340
L45600 12200
L45620 12150
L45640 12130
L45690 12100
L45760 12100
L45810 12130
L45830 12150
L45860 12200
L45860 12340
L45830 12390
L45810 12410
L45760 12440
L45690 12440
" />
<path d="M46020 12100
L46120 12440
L46210 12200
L46310 12440
L46400 12100
" />
<path d="M46780 12410
L46730 12440
L46640 12440
L46590 12410
L46570 12360
L46570 12170
L46590 12130
L46640 12100
L46730 12100
L46780 12130
L46800 12170
L46800 12220
L46570 12270
" />
<path d="M47020 12440
L47020 12100
" />
<path d="M47020 12200
L47040 12150
L47070 12130
L47110 12100
L47160 12100
" />
</g>
<g style="fill:#848400; fill-opacity:0.0; 
stroke:#848400; stroke-width:60; stroke-opacity:1; 
stroke-linecap:round; stroke-linejoin:round;">
<path d="M45120 27020
L45120 26520
L45310 26520
L45360 26540
L45380 26560
L45400 26610
L45400 26680
L45380 26730
L45360 26750
L45310 26780
L45120 26780
" />
<path d="M45690 27020
L45640 26990
L45620 26970
L45600 26920
L45600 26780
L45620 26730
L45640 26710
L45690 26680
L45760 26680
L45810 26710
L45830 26730
L45860 26780
L45860 26920
L45830 26970
L45810 26990
L45760 27020
L45690 27020
" />
<path d="M46020 26680
L46120 27020
L46210 26780
L46310 27020
L46400 26680
" />
<path d="M46780 26990
L46730 27020
L46640 27020
L46590 26990
L46570 26940
L46570 26750
L46590 26710
L46640 26680
L46730 26680
L46780 26710
L46800 26750
L46800 26800
L46570 26850
" />
<path d="M47020 27020
L47020 26680
" />
<path d="M47020 26780
L47040 26730
L47070 26710
L47110 26680
L47160 26680
" />
<path d="M47330 26970
L47350 26990
L47330 27020
L47310 26990
L47330 26970
L47330 27020
" />
<path d="M47550 26990
L47590 27020
L47690 27020
L47740 26990
L47760 26940
L47760 26920
L47740 26870
L47690 26850
L47620 26850
L47570 26830
L47550 26780
L47550 26750
L47570 26710
L47620 26680
L47690 26680
L47740 26710
" />
<path d="M48180 26990
L48140 27020
L48040 27020
L47990 26990
L47970 26970
L47950 26920
L47950 26780
L47970 26730
L47990 26710
L48040 26680
L48140 26680
L48180 26710
" />
<path d="M48400 27020
L48400 26520
" />
<path d="M48610 27020
L48610 26750
L48590 26710
L48540 26680
L48470 26680
L48420 26710
L48400 26730
" />
</g>
<g style="fill:#840084; fill-opacity:0.0; 
stroke:#840084; stroke-width:60; stroke-opacity:1; 
stroke-linecap:round; stroke-linejoin:round;">
<path d="M68440 23170
L68810 23170
L68610 23400
L68690 23400
L68750 23430
L68780 23460
L68810 23510
L68810 23660
L68780 23710
L68750 23740
L68690 23770
L68520 23770
L68460 23740
L68440 23710
" />
<path d="M68980 23170
L69180 23770
L69380 23170
" />
<path d="M69520 23170
L69890 23170
L69690 23400
L69770 23400
L69830 23430
L69860 23460
L69890 23510
L69890 23660
L69860 23710
L69830 23740
L69770 23770
L69600 23770
L69540 23740
L69520 23710
" />
<path d="M70140 23770
L70140 23170
L70290 23170
L70370 23200
L70430 23260
L70460 23310
L70490 23430
L70490 23510
L70460 23630
L70430 23690
L70370 23740
L70290 23770
L70140 23770
" />
<path d="M70740 23770
L70740 23170
" />
<path d="M71350 23200
L71290 23170
L71200 23170
L71120 23200
L71060 23260
L71030 23310
L71000 23430
L71000 23510
L71030 23630
L71060 23690
L71120 23740
L71200 23770
L71260 23770
L71350 23740
L71380 23710
L71380 23510
L71260 23510
" />
<path d="M71630 23770
L71630 23170
" />
<path d="M71840 23170
L72180 23170
" />
<path d="M72010 23770
L72010 23170
" />
<path d="M72350 23600
L72640 23600
" />
<path d="M72300 23770
L72500 23170
L72700 23770
" />
<path d="M73180 23770
L72890 23770
L72890 23170
" />
</g>
<g style="fill:#848400; fill-opacity:0.0; 
stroke:#848400; stroke-width:60; stroke-opacity:1; 
stroke-linecap:round; stroke-linejoin:round;">
</g>
<g style="fill:#848400; fill-opacity:0.0; 
stroke:#848400; stroke-width:100; stroke-opacity:1; 
stroke-linecap:round; stroke-linejoin:round;">
<polyline fill="none;"
points="73400,23500
73700,23800
74000,23800
74000,23200
73700,23200
73400,23500
" /> 
</g>
<g style="fill:#848400; fill-opacity:0.0; 
stroke:#848400; stroke-width:60; stroke-opacity:1; 
stroke-linecap:round; stroke-linejoin:round;">
<path d="M68310 20170
L68680 20170
L68480 20400
L68560 20400
L68620 20430
L68650 20460
L68680 20510
L68680 20660
L68650 20710
L68620 20740
L68560 20770
L68390 20770
L68330 20740
L68310 20710
" />
<path d="M68850 20170
L69050 20770
L69250 20170
" />
<path d="M69390 20170
L69760 20170
L69560 20400
L69640 20400
L69700 20430
L69730 20460
L69760 20510
L69760 20660
L69730 20710
L69700 20740
L69640 20770
L69470 20770
L69410 20740
L69390 20710
" />
<path d="M69980 20600
L70270 20600
" />
<path d="M69930 20770
L70130 20170
L70330 20770
" />
<path d="M70520 20770
L70520 20170
L70870 20770
L70870 20170
" />
<path d="M71120 20600
L71410 20600
" />
<path d="M71070 20770
L71270 20170
L71470 20770
" />
<path d="M71950 20770
L71660 20770
L71660 20170
" />
<path d="M72270 20170
L72380 20170
L72440 20200
L72500 20260
L72520 20370
L72520 20570
L72500 20690
L72440 20740
L72380 20770
L72270 20770
L72210 20740
L72150 20690
L72120 20570
L72120 20370
L72150 20260
L72210 20200
L72270 20170
" />
<path d="M73100 20200
L73040 20170
L72950 20170
L72870 20200
L72810 20260
L72780 20310
L72750 20430
L72750 20510
L72780 20630
L72810 20690
L72870 20740
L72950 20770
L73010 20770
L73100 20740
L73130 20710
L73130 20510
L73010 20510
" />
</g>
<g style="fill:#848400; fill-opacity:0.0; 
stroke:#848400; stroke-width:100; stroke-opacity:1; 
stroke-linecap:round; stroke-linejoin:round;">
<polyline fill="none;"
points="73400,20500
73700,20800
74000,20800
74000,20200
73700,20200
73400,20500
" /> 
</g>
<g style="fill:#848400; fill-opacity:0.0; 
stroke:#848400; stroke-width:60; stroke-opacity:1; 
stroke-linecap:round; stroke-linejoin:round;">
<path d="M67950 17270
L68070 17270
L68120 17240
L68150 17210
L68210 17130
L68240 17010
L68240 16790
L68210 16730
L68180 16700
L68120 16670
L68010 16670
L67950 16700
L67920 16730
L67890 16790
L67890 16930
L67920 16990
L67950 17010
L68010 17040
L68120 17040
L68180 17010
L68210 16990
L68240 16930
" />
<path d="M68410 16670
L68610 17270
L68810 16670
" />
<path d="M68970 17240
L69060 17270
L69200 17270
L69260 17240
L69290 17210
L69320 17160
L69320 17100
L69290 17040
L69260 17010
L69200 16990
L69090 16960
L69030 16930
L69000 16900
L68970 16840
L68970 16790
L69000 16730
L69030 16700
L69090 16670
L69230 16670
L69320 16700
" />
<path d="M69520 16670
L69660 17270
L69770 16840
L69890 17270
L70030 16670
" />
<path d="M70260 17270
L70260 16670
" />
<path d="M70470 16670
L70810 16670
" />
<path d="M70640 17270
L70640 16670
" />
<path d="M71360 17210
L71330 17240
L71240 17270
L71180 17270
L71100 17240
L71040 17190
L71010 17130
L70980 17010
L70980 16930
L71010 16810
L71040 16760
L71100 16700
L71180 16670
L71240 16670
L71330 16700
L71360 16730
" />
<path d="M71610 17270
L71610 16670
" />
<path d="M71610 16960
L71960 16960
" />
<path d="M71960 17270
L71960 16670
" />
<path d="M72240 16960
L72440 16960
" />
<path d="M72530 17270
L72240 17270
L72240 16670
L72530 16670
" />
<path d="M72780 17270
L72780 16670
L72930 16670
L73010 16700
L73070 16760
L73100 16810
L73130 16930
L73130 17010
L73100 17130
L73070 17190
L73010 17240
L72930 17270
L72780 17270
" />
</g>
<g style="fill:#848400; fill-opacity:0.0; 
stroke:#848400; stroke-width:100; stroke-opacity:1; 
stroke-linecap:round; stroke-linejoin:round;">
<polyline fill="none;"
points="73400,17000
73700,17300
74000,17300
74000,16700
73700,16700
73400,17000
" /> 
</g>
<g style="fill:#848400; fill-opacity:0.0; 
stroke:#848400; stroke-width:60; stroke-opacity:1; 
stroke-linecap:round; stroke-linejoin:round;">
<path d="M45900 17270
L45900 16670
L46130 16670
L46190 16700
L46220 16730
L46250 16790
L46250 16870
L46220 16930
L46190 16960
L46130 16990
L45900 16990
" />
<path d="M46620 16670
L46730 16670
L46790 16700
L46850 16760
L46870 16870
L46870 17070
L46850 17190
L46790 17240
L46730 17270
L46620 17270
L46560 17240
L46500 17190
L46470 17070
L46470 16870
L46500 16760
L46560 16700
L46620 16670
" />
<path d="M47080 16670
L47220 17270
L47330 16840
L47450 17270
L47590 16670
" />
<path d="M47820 16960
L48020 16960
" />
<path d="M48110 17270
L47820 17270
L47820 16670
L48110 16670
" />
<path d="M48710 17270
L48510 16990
" />
<path d="M48360 17270
L48360 16670
L48590 16670
L48650 16700
L48680 16730
L48710 16790
L48710 16870
L48680 16930
L48650 16960
L48590 16990
L48360 16990
" />
<path d="M49080 16670
L49190 16670
L49250 16700
L49310 16760
L49330 16870
L49330 17070
L49310 17190
L49250 17240
L49190 17270
L49080 17270
L49020 17240
L48960 17190
L48930 17070
L48930 16870
L48960 16760
L49020 16700
L49080 16670
" />
<path d="M49590 17270
L49590 16670
L49940 17270
L49940 16670
" />
</g>
<g style="fill:#848400; fill-opacity:0.0; 
stroke:#848400; stroke-width:100; stroke-opacity:1; 
stroke-linecap:round; stroke-linejoin:round;">
<polyline fill="none;"
points="45600,17000
45300,16700
45000,16700
45000,17300
45300,17300
45600,17000
" /> 
</g>
<g style="fill:#848400; fill-opacity:0.0; 
stroke:#848400; stroke-width:60; stroke-opacity:1; 
stroke-linecap:round; stroke-linejoin:round;">
</g>
<g style="fill:#840084; fill-opacity:0.0; 
stroke:#840084; stroke-width:60; stroke-opacity:1; 
stroke-linecap:round; stroke-linejoin:round;">
<path d="M10500 10500
L32500 10500
L32500 26500
L10500 26500
L10500 10500
" />
</g>
<g style="fill:#008484; fill-opacity:0.0; 
stroke:#008484; stroke-width:60; stroke-opacity:1; 
stroke-linecap:round; stroke-linejoin:round;">
<path d="M10900 10390
L10880 10410
L10810 10440
L10760 10440
L10690 10410
L10640 10360
L10620 10320
L10600 10220
L10600 10150
L10620 10060
L10640 10010
L10690 9960
L10760 9940
L10810 9940
L10880 9960
L10900 9980
" />
<path d="M11190 10440
L11140 10410
L11120 10390
L11100 10340
L11100 10200
L11120 10150
L11140 10130
L11190 10100
L11260 10100
L11310 10130
L11330 10150
L11360 10200
L11360 10340
L11330 10390
L11310 10410
L11260 10440
L11190 10440
" />
<path d="M11570 10100
L11570 10440
" />
<path d="M11570 10150
L11590 10130
L11640 10100
L11710 10100
L11760 10130
L11780 10170
L11780 10440
" />
<path d="M11950 10100
L12140 10100
" />
<path d="M12020 9940
L12020 10360
L12040 10410
L12090 10440
L12140 10440
" />
<path d="M12310 10440
L12310 10100
" />
<path d="M12310 10200
L12330 10150
L12360 10130
L12400 10100
L12450 10100
" />
<path d="M12690 10440
L12640 10410
L12620 10390
L12600 10340
L12600 10200
L12620 10150
L12640 10130
L12690 10100
L12760 10100
L12810 10130
L12830 10150
L12860 10200
L12860 10340
L12830 10390
L12810 10410
L12760 10440
L12690 10440
" />
<path d="M13140 10440
L13090 10410
L13070 10360
L13070 9940
" />
</g>
<g style="fill:#848400; fill-opacity:0.0; 
stroke:#848400; stroke-width:60; stroke-opacity:1; 
stroke-linecap:round; stroke-linejoin:round;">
<path d="M10900 26970
L10880 26990
L10810 27020
L10760 27020
L10690 26990
L10640 26940
L10620 26900
L10600 26800
L10600 26730
L10620 26640
L10640 26590
L10690 26540
L10760 26520
L10810 26520
L10880 26540
L10900 26560
" />
<path d="M11190 27020
L11140 26990
L11120 26970
L11100 26920
L11100 26780
L11120 26730
L11140 26710
L11190 26680
L11260 26680
L11310 26710
L11330 26730
L11360 26780
L11360 26920
L11330 26970
L11310 26990
L11260 27020
L11190 27020
" />
<path d="M11570 26680
L11570 27020
" />
<path d="M11570 26730
L11590 26710
L11640 26680
L11710 26680
L11760 26710
L11780 26750
L11780 27020
" />
<path d="M11950 26680
L12140 26680
" />
<path d="M12020 26520
L12020 26940
L12040 26990
L12090 27020
L12140 27020
" />
<path d="M12310 27020
L12310 26680
" />
<path d="M12310 26780
L12330 26730
L12360 26710
L12400 26680
L12450 26680
" />
<path d="M12690 27020
L12640 26990
L12620 26970
L12600 26920
L12600 26780
L12620 26730
L12640 26710
L12690 26680
L12760 26680
L12810 26710
L12830 26730
L12860 26780
L12860 26920
L12830 26970
L12810 26990
L12760 27020
L12690 27020
" />
<path d="M13140 27020
L13090 26990
L13070 26940
L13070 26520
" />
<path d="M13330 26970
L13350 26990
L13330 27020
L13310 26990
L13330 26970
L13330 27020
" />
<path d="M13550 26990
L13590 27020
L13690 27020
L13740 26990
L13760 26940
L13760 26920
L13740 26870
L13690 26850
L13620 26850
L13570 26830
L13550 26780
L13550 26750
L13570 26710
L13620 26680
L13690 26680
L13740 26710
" />
<path d="M14180 26990
L14140 27020
L14040 27020
L13990 26990
L13970 26970
L13950 26920
L13950 26780
L13970 26730
L13990 26710
L14040 26680
L14140 26680
L14180 26710
" />
<path d="M14400 27020
L14400 26520
" />
<path d="M14610 27020
L14610 26750
L14590 26710
L14540 26680
L14470 26680
L14420 26710
L14400 26730
" />
</g>
<g style="fill:#840084; fill-opacity:0.0; 
stroke:#840084; stroke-width:60; stroke-opacity:1; 
stroke-linecap:round; stroke-linejoin:round;">
<path d="M30300 19270
L30300 18670
L30500 19100
L30700 18670
L30700 19270
" />
<path d="M30990 19270
L30990 18670
" />
<path d="M31630 19210
L31600 19240
L31510 19270
L31450 19270
L31370 19240
L31310 19190
L31280 19130
L31250 19010
L31250 18930
L31280 18810
L31310 18760
L31370 18700
L31450 18670
L31510 18670
L31600 18700
L31630 18730
" />
</g>
<g style="fill:#848400; fill-opacity:0.0; 
stroke:#848400; stroke-width:60; stroke-opacity:1; 
stroke-linecap:round; stroke-linejoin:round;">
</g>
<g style="fill:#848400; fill-opacity:0.0; 
stroke:#848400; stroke-width:100; stroke-opacity:1; 
stroke-linecap:round; stroke-linejoin:round;">
<polyline fill="none;"
points="31900,19000
32200,19300
32500,19300
32500,18700
32200,18700
31900,19000
" /> 
</g>
<g style="fill:#848400; fill-opacity:0.0; 
stroke:#848400; stroke-width:60; stroke-opacity:1; 
stroke-linecap:round; stroke-linejoin:round;">
<path d="M29480 21240
L29570 21270
L29710 21270
L29770 21240
L29800 21210
L29830 21160
L29830 21100
L29800 21040
L29770 21010
L29710 20990
L29600 20960
L29540 20930
L29510 20900
L29480 20840
L29480 20790
L29510 20730
L29540 20700
L29600 20670
L29740 20670
L29830 20700
" />
<path d="M30080 21270
L30080 20670
L30310 20670
L30370 20700
L30400 20730
L30430 20790
L30430 20870
L30400 20930
L30370 20960
L30310 20990
L30080 20990
" />
<path d="M30680 21270
L30680 20670
" />
<path d="M31030 21270
L30770 20930
" />
<path d="M31030 20670
L30680 21010
" />
<path d="M31630 21270
L31430 20990
" />
<path d="M31280 21270
L31280 20670
L31510 20670
L31570 20700
L31600 20730
L31630 20790
L31630 20870
L31600 20930
L31570 20960
L31510 20990
L31280 20990
" />
</g>
<g style="fill:#848400; fill-opacity:0.0; 
stroke:#848400; stroke-width:100; stroke-opacity:1; 
stroke-linecap:round; stroke-linejoin:round;">
<polyline fill="none;"
points="31900,21000
32200,21300
32500,21300
32500,20700
32200,20700
31900,21000
" /> 
</g>
<g style="fill:#848400; fill-opacity:0.0; 
stroke:#848400; stroke-width:60; stroke-opacity:1; 
stroke-linecap:round; stroke-linejoin:round;">
<path d="M27560 17270
L27560 16670
L27790 16670
L27850 16700
L27880 16730
L27910 16790
L27910 16870
L27880 16930
L27850 16960
L27790 16990
L27560 16990
" />
<path d="M28280 16670
L28390 16670
L28450 16700
L28510 16760
L28530 16870
L28530 17070
L28510 17190
L28450 17240
L28390 17270
L28280 17270
L28220 17240
L28160 17190
L28130 17070
L28130 16870
L28160 16760
L28220 16700
L28280 16670
" />
<path d="M28740 16670
L28880 17270
L28990 16840
L29110 17270
L29250 16670
" />
<path d="M29480 16960
L29680 16960
" />
<path d="M29770 17270
L29480 17270
L29480 16670
L29770 16670
" />
<path d="M30370 17270
L30170 16990
" />
<path d="M30020 17270
L30020 16670
L30250 16670
L30310 16700
L30340 16730
L30370 16790
L30370 16870
L30340 16930
L30310 16960
L30250 16990
L30020 16990
" />
<path d="M30740 16670
L30850 16670
L30910 16700
L30970 16760
L30990 16870
L30990 17070
L30970 17190
L30910 17240
L30850 17270
L30740 17270
L30680 17240
L30620 17190
L30590 17070
L30590 16870
L30620 16760
L30680 16700
L30740 16670
" />
<path d="M31250 17270
L31250 16670
L31600 17270
L31600 16670
" />
</g>
<g style="fill:#848400; fill-opacity:0.0; 
stroke:#848400; stroke-width:100; stroke-opacity:1; 
stroke-linecap:round; stroke-linejoin:round;">
<polyline fill="none;"
points="31900,17000
32200,17300
32500,17300
32500,16700
32200,16700
31900,17000
" /> 
</g>
<g style="fill:#848400; fill-opacity:0.0; 
stroke:#848400; stroke-width:0; stroke-opacity:1; 
stroke-linecap:round; stroke-linejoin:round;">
</g>
<g style="fill:#840000; fill-opacity:0.0; 
stroke:#840000; stroke-width:60; stroke-opacity:1; 
stroke-linecap:round; stroke-linejoin:round;">
<circle cx="83000" cy="14900" r="200" /> 
<polyline fill="none;"
points="83000,15500
83000,15100
83000,15100
" /> 
</g>
<g style="fill:#840000; fill-opacity:0.0; 
stroke:#840000; stroke-width:50; stroke-opacity:1; 
stroke-linecap:round; stroke-linejoin:round;">
<path d="M82610 14400
L82840 14400
" />
<path d="M82730 14520
L82730 14290
" />
<path d="M83000 14520
L83050 14520
L83080 14500
L83100 14490
L83120 14440
L83140 14390
L83140 14270
L83120 14240
L83110 14230
L83080 14220
L83020 14220
L83000 14230
L82980 14240
L82970 14270
L82970 14340
L82980 14370
L83000 14390
L83020 14400
L83080 14400
L83110 14390
L83120 14370
L83140 14340
" />
<path d="M83230 14220
L83330 14520
L83430 14220
" />
</g>
<g style="fill:#008484; fill-opacity:0.0; 
stroke:#008484; stroke-width:0; stroke-opacity:1; 
stroke-linecap:round; stroke-linejoin:round;">
</g>
<g style="fill:#840000; fill-opacity:0.0; 
stroke:#840000; stroke-width:60; stroke-opacity:1; 
stroke-linecap:round; stroke-linejoin:round;">
<circle cx="86000" cy="14900" r="200" /> 
<polyline fill="none;"
points="86000,15100
86000,15500
86000,15500
86000,15500
" /> 
</g>
<g style="fill:#840000; fill-opacity:0.0; 
stroke:#840000; stroke-width:50; stroke-opacity:1; 
stroke-linecap:round; stroke-linejoin:round;">
<path d="M85640 14220
L85740 14520
L85840 14220
" />
<path d="M85930 14430
L86070 14430
" />
<path d="M85900 14520
L86000 14220
L86100 14520
" />
<path d="M86190 14430
L86330 14430
" />
<path d="M86160 14520
L86260 14220
L86360 14520
" />
</g>
<g style="fill:#008484; fill-opacity:0.0; 
stroke:#008484; stroke-width:0; stroke-opacity:1; 
stroke-linecap:round; stroke-linejoin:round;">
</g>
<g style="fill:#840000; fill-opacity:0.0; 
stroke:#840000; stroke-width:60; stroke-opacity:1; 
stroke-linecap:round; stroke-linejoin:round;">
<circle cx="89000" cy="14900" r="200" /> 
<polyline fill="none;"
points="89000,15500
89000,15100
89000,15100
" /> 
</g>
<g style="fill:#840000; fill-opacity:0.0; 
stroke:#840000; stroke-width:50; stroke-opacity:1; 
stroke-linecap:round; stroke-linejoin:round;">
<path d="M88400 14400
L88630 14400
" />
<path d="M88520 14520
L88520 14290
" />
<path d="M88740 14220
L88930 14220
L88830 14330
L88870 14330
L88900 14340
L88910 14360
L88930 14390
L88930 14460
L88910 14490
L88900 14500
L88870 14520
L88790 14520
L88760 14500
L88740 14490
" />
<path d="M89060 14490
L89080 14500
L89060 14520
L89050 14500
L89060 14490
L89060 14520
" />
<path d="M89170 14220
L89360 14220
L89260 14330
L89300 14330
L89330 14340
L89340 14360
L89360 14390
L89360 14460
L89340 14490
L89330 14500
L89300 14520
L89220 14520
L89190 14500
L89170 14490
" />
<path d="M89450 14220
L89550 14520
L89650 14220
" />
</g>
<g style="fill:#008484; fill-opacity:0.0; 
stroke:#008484; stroke-width:60; stroke-opacity:1; 
stroke-linecap:round; stroke-linejoin:round;">
</g>
<g style="fill:#008400; fill-opacity:0.0; 
stroke:#008400; stroke-width:60; stroke-opacity:1; 
stroke-linecap:round; stroke-linejoin:round;">
<path d="M74000 17000
L83000 17000
" />
<path d="M83000 17000
L83000 15500
" />
<path d="M74000 20500
L86000 20500
" />
<path d="M86000 20500
L86000 15500
" />
<path d="M74000 23500
L89000 23500
" />
<path d="M89000 23500
L89000 15500
" />
<path d="M32500 17000
L45000 17000
" />
<path d="M42000 19000
L42000 41000
" />
<path d="M42000 41000
L45000 41000
" />
<path d="M32500 21000
L38500 21000
" />
<path d="M38500 21000
L38500 43000
" />
<path d="M38500 43000
L45000 43000
" />
<path d="M32500 19000
L42000 19000
" />
</g> 
</svg>
