<?xml version="1.0" standalone="no"?>
 <!DOCTYPE svg PUBLIC "-//W3C//DTD SVG 1.1//EN" 
 "http://www.w3.org/Graphics/SVG/1.1/DTD/svg11.dtd"> 
<svg xmlns="http://www.w3.org/2000/svg" version="1.1" 
    width="29.7002cm" height="21.0007cm" viewBox="0 0 116930 82680 ">
<title>SVG Picture created as Power-Power.svg date 2015/06/04 14:45:13 </title>
  <desc>Picture generated by Eeschema-SVG </desc>
<g style="fill:#000000; fill-opacity:1;stroke:#000000; stroke-opacity:1;
stroke-linecap:round; stroke-linejoin:round; "
 transform="translate(0 0) scale(1 1)">
</g>
<g style="fill:#840000; fill-opacity:0.0; 
stroke:#840000; stroke-width:100; stroke-opacity:1; 
stroke-linecap:round; stroke-linejoin:round;">
</g>
<g style="fill:#840000; fill-opacity:0.0; 
stroke:#840000; stroke-width:60; stroke-opacity:1; 
stroke-linecap:round; stroke-linejoin:round;">
<rect x="69680" y="65350" width="42520" height="12600" rx="0" />
</g>
<g style="fill:#840000; fill-opacity:0.0; 
stroke:#840000; stroke-width:100; stroke-opacity:1; 
stroke-linecap:round; stroke-linejoin:round;">
</g>
<g style="fill:#840000; fill-opacity:0.0; 
stroke:#840000; stroke-width:60; stroke-opacity:1; 
stroke-linecap:round; stroke-linejoin:round;">
<rect x="3930" y="3930" width="109060" height="74810" rx="0" />
</g>
<g style="fill:#840000; fill-opacity:0.0; 
stroke:#840000; stroke-width:100; stroke-opacity:1; 
stroke-linecap:round; stroke-linejoin:round;">
</g>
<g style="fill:#840000; fill-opacity:0.0; 
stroke:#840000; stroke-width:60; stroke-opacity:1; 
stroke-linecap:round; stroke-linejoin:round;">
<rect x="4720" y="4720" width="107480" height="73230" rx="0" />
</g>
<g style="fill:#840000; fill-opacity:0.0; 
stroke:#840000; stroke-width:100; stroke-opacity:1; 
stroke-linecap:round; stroke-linejoin:round;">
</g>
<g style="fill:#840000; fill-opacity:0.0; 
stroke:#840000; stroke-width:60; stroke-opacity:1; 
stroke-linecap:round; stroke-linejoin:round;">
<path d="M23620 4720
L23620 3930
" />
</g>
<g style="fill:#840000; fill-opacity:0.0; 
stroke:#840000; stroke-width:100; stroke-opacity:1; 
stroke-linecap:round; stroke-linejoin:round;">
</g>
<g style="fill:#840000; fill-opacity:0.0; 
stroke:#840000; stroke-width:60; stroke-opacity:1; 
stroke-linecap:round; stroke-linejoin:round;">
<path d="M43300 4720
L43300 3930
" />
</g>
<g style="fill:#840000; fill-opacity:0.0; 
stroke:#840000; stroke-width:100; stroke-opacity:1; 
stroke-linecap:round; stroke-linejoin:round;">
</g>
<g style="fill:#840000; fill-opacity:0.0; 
stroke:#840000; stroke-width:60; stroke-opacity:1; 
stroke-linecap:round; stroke-linejoin:round;">
<path d="M62990 4720
L62990 3930
" />
</g>
<g style="fill:#840000; fill-opacity:0.0; 
stroke:#840000; stroke-width:100; stroke-opacity:1; 
stroke-linecap:round; stroke-linejoin:round;">
</g>
<g style="fill:#840000; fill-opacity:0.0; 
stroke:#840000; stroke-width:60; stroke-opacity:1; 
stroke-linecap:round; stroke-linejoin:round;">
<path d="M82670 4720
L82670 3930
" />
</g>
<g style="fill:#840000; fill-opacity:0.0; 
stroke:#840000; stroke-width:100; stroke-opacity:1; 
stroke-linecap:round; stroke-linejoin:round;">
</g>
<g style="fill:#840000; fill-opacity:0.0; 
stroke:#840000; stroke-width:60; stroke-opacity:1; 
stroke-linecap:round; stroke-linejoin:round;">
<path d="M102360 4720
L102360 3930
" />
</g>
<g style="fill:#840000; fill-opacity:0.0; 
stroke:#840000; stroke-width:100; stroke-opacity:1; 
stroke-linecap:round; stroke-linejoin:round;">
</g>
<g style="fill:#840000; fill-opacity:0.0; 
stroke:#840000; stroke-width:60; stroke-opacity:1; 
stroke-linecap:round; stroke-linejoin:round;">
<path d="M14160 4560
L13870 4560
" />
<path d="M14010 4560
L14010 4050
L13960 4120
L13920 4170
L13870 4190
" />
</g>
<g style="fill:#840000; fill-opacity:0.0; 
stroke:#840000; stroke-width:100; stroke-opacity:1; 
stroke-linecap:round; stroke-linejoin:round;">
</g>
<g style="fill:#840000; fill-opacity:0.0; 
stroke:#840000; stroke-width:60; stroke-opacity:1; 
stroke-linecap:round; stroke-linejoin:round;">
<path d="M33560 4090
L33580 4070
L33630 4050
L33750 4050
L33800 4070
L33820 4090
L33850 4140
L33850 4190
L33820 4260
L33530 4560
L33850 4560
" />
</g>
<g style="fill:#840000; fill-opacity:0.0; 
stroke:#840000; stroke-width:100; stroke-opacity:1; 
stroke-linecap:round; stroke-linejoin:round;">
</g>
<g style="fill:#840000; fill-opacity:0.0; 
stroke:#840000; stroke-width:60; stroke-opacity:1; 
stroke-linecap:round; stroke-linejoin:round;">
<path d="M53210 4050
L53530 4050
L53360 4240
L53430 4240
L53480 4260
L53500 4290
L53530 4340
L53530 4460
L53500 4510
L53480 4530
L53430 4560
L53290 4560
L53240 4530
L53210 4510
" />
</g>
<g style="fill:#840000; fill-opacity:0.0; 
stroke:#840000; stroke-width:100; stroke-opacity:1; 
stroke-linecap:round; stroke-linejoin:round;">
</g>
<g style="fill:#840000; fill-opacity:0.0; 
stroke:#840000; stroke-width:60; stroke-opacity:1; 
stroke-linecap:round; stroke-linejoin:round;">
<path d="M73170 4220
L73170 4560
" />
<path d="M73050 4020
L72930 4390
L73240 4390
" />
</g>
<g style="fill:#840000; fill-opacity:0.0; 
stroke:#840000; stroke-width:100; stroke-opacity:1; 
stroke-linecap:round; stroke-linejoin:round;">
</g>
<g style="fill:#840000; fill-opacity:0.0; 
stroke:#840000; stroke-width:60; stroke-opacity:1; 
stroke-linecap:round; stroke-linejoin:round;">
<path d="M92870 4050
L92630 4050
L92610 4290
L92630 4260
L92680 4240
L92800 4240
L92850 4260
L92870 4290
L92900 4340
L92900 4460
L92870 4510
L92850 4530
L92800 4560
L92680 4560
L92630 4530
L92610 4510
" />
</g>
<g style="fill:#840000; fill-opacity:0.0; 
stroke:#840000; stroke-width:100; stroke-opacity:1; 
stroke-linecap:round; stroke-linejoin:round;">
</g>
<g style="fill:#840000; fill-opacity:0.0; 
stroke:#840000; stroke-width:60; stroke-opacity:1; 
stroke-linecap:round; stroke-linejoin:round;">
<path d="M112540 4050
L112440 4050
L112390 4070
L112370 4090
L112320 4170
L112300 4260
L112300 4460
L112320 4510
L112350 4530
L112390 4560
L112490 4560
L112540 4530
L112560 4510
L112590 4460
L112590 4340
L112560 4290
L112540 4260
L112490 4240
L112390 4240
L112350 4260
L112320 4290
L112300 4340
" />
</g>
<g style="fill:#840000; fill-opacity:0.0; 
stroke:#840000; stroke-width:100; stroke-opacity:1; 
stroke-linecap:round; stroke-linejoin:round;">
</g>
<g style="fill:#840000; fill-opacity:0.0; 
stroke:#840000; stroke-width:60; stroke-opacity:1; 
stroke-linecap:round; stroke-linejoin:round;">
<path d="M23620 77950
L23620 78740
" />
</g>
<g style="fill:#840000; fill-opacity:0.0; 
stroke:#840000; stroke-width:100; stroke-opacity:1; 
stroke-linecap:round; stroke-linejoin:round;">
</g>
<g style="fill:#840000; fill-opacity:0.0; 
stroke:#840000; stroke-width:60; stroke-opacity:1; 
stroke-linecap:round; stroke-linejoin:round;">
<path d="M43300 77950
L43300 78740
" />
</g>
<g style="fill:#840000; fill-opacity:0.0; 
stroke:#840000; stroke-width:100; stroke-opacity:1; 
stroke-linecap:round; stroke-linejoin:round;">
</g>
<g style="fill:#840000; fill-opacity:0.0; 
stroke:#840000; stroke-width:60; stroke-opacity:1; 
stroke-linecap:round; stroke-linejoin:round;">
<path d="M62990 77950
L62990 78740
" />
</g>
<g style="fill:#840000; fill-opacity:0.0; 
stroke:#840000; stroke-width:100; stroke-opacity:1; 
stroke-linecap:round; stroke-linejoin:round;">
</g>
<g style="fill:#840000; fill-opacity:0.0; 
stroke:#840000; stroke-width:60; stroke-opacity:1; 
stroke-linecap:round; stroke-linejoin:round;">
<path d="M82670 77950
L82670 78740
" />
</g>
<g style="fill:#840000; fill-opacity:0.0; 
stroke:#840000; stroke-width:100; stroke-opacity:1; 
stroke-linecap:round; stroke-linejoin:round;">
</g>
<g style="fill:#840000; fill-opacity:0.0; 
stroke:#840000; stroke-width:60; stroke-opacity:1; 
stroke-linecap:round; stroke-linejoin:round;">
<path d="M102360 77950
L102360 78740
" />
</g>
<g style="fill:#840000; fill-opacity:0.0; 
stroke:#840000; stroke-width:100; stroke-opacity:1; 
stroke-linecap:round; stroke-linejoin:round;">
</g>
<g style="fill:#840000; fill-opacity:0.0; 
stroke:#840000; stroke-width:60; stroke-opacity:1; 
stroke-linecap:round; stroke-linejoin:round;">
<path d="M14160 78570
L13870 78570
" />
<path d="M14010 78570
L14010 78060
L13960 78130
L13920 78180
L13870 78200
" />
</g>
<g style="fill:#840000; fill-opacity:0.0; 
stroke:#840000; stroke-width:100; stroke-opacity:1; 
stroke-linecap:round; stroke-linejoin:round;">
</g>
<g style="fill:#840000; fill-opacity:0.0; 
stroke:#840000; stroke-width:60; stroke-opacity:1; 
stroke-linecap:round; stroke-linejoin:round;">
<path d="M33560 78100
L33580 78080
L33630 78060
L33750 78060
L33800 78080
L33820 78100
L33850 78150
L33850 78200
L33820 78270
L33530 78570
L33850 78570
" />
</g>
<g style="fill:#840000; fill-opacity:0.0; 
stroke:#840000; stroke-width:100; stroke-opacity:1; 
stroke-linecap:round; stroke-linejoin:round;">
</g>
<g style="fill:#840000; fill-opacity:0.0; 
stroke:#840000; stroke-width:60; stroke-opacity:1; 
stroke-linecap:round; stroke-linejoin:round;">
<path d="M53210 78060
L53530 78060
L53360 78250
L53430 78250
L53480 78270
L53500 78300
L53530 78350
L53530 78470
L53500 78520
L53480 78540
L53430 78570
L53290 78570
L53240 78540
L53210 78520
" />
</g>
<g style="fill:#840000; fill-opacity:0.0; 
stroke:#840000; stroke-width:100; stroke-opacity:1; 
stroke-linecap:round; stroke-linejoin:round;">
</g>
<g style="fill:#840000; fill-opacity:0.0; 
stroke:#840000; stroke-width:60; stroke-opacity:1; 
stroke-linecap:round; stroke-linejoin:round;">
<path d="M73170 78230
L73170 78570
" />
<path d="M73050 78030
L72930 78400
L73240 78400
" />
</g>
<g style="fill:#840000; fill-opacity:0.0; 
stroke:#840000; stroke-width:100; stroke-opacity:1; 
stroke-linecap:round; stroke-linejoin:round;">
</g>
<g style="fill:#840000; fill-opacity:0.0; 
stroke:#840000; stroke-width:60; stroke-opacity:1; 
stroke-linecap:round; stroke-linejoin:round;">
<path d="M92870 78060
L92630 78060
L92610 78300
L92630 78270
L92680 78250
L92800 78250
L92850 78270
L92870 78300
L92900 78350
L92900 78470
L92870 78520
L92850 78540
L92800 78570
L92680 78570
L92630 78540
L92610 78520
" />
</g>
<g style="fill:#840000; fill-opacity:0.0; 
stroke:#840000; stroke-width:100; stroke-opacity:1; 
stroke-linecap:round; stroke-linejoin:round;">
</g>
<g style="fill:#840000; fill-opacity:0.0; 
stroke:#840000; stroke-width:60; stroke-opacity:1; 
stroke-linecap:round; stroke-linejoin:round;">
<path d="M112540 78060
L112440 78060
L112390 78080
L112370 78100
L112320 78180
L112300 78270
L112300 78470
L112320 78520
L112350 78540
L112390 78570
L112490 78570
L112540 78540
L112560 78520
L112590 78470
L112590 78350
L112560 78300
L112540 78270
L112490 78250
L112390 78250
L112350 78270
L112320 78300
L112300 78350
" />
</g>
<g style="fill:#840000; fill-opacity:0.0; 
stroke:#840000; stroke-width:100; stroke-opacity:1; 
stroke-linecap:round; stroke-linejoin:round;">
</g>
<g style="fill:#840000; fill-opacity:0.0; 
stroke:#840000; stroke-width:60; stroke-opacity:1; 
stroke-linecap:round; stroke-linejoin:round;">
<path d="M3930 23620
L4720 23620
" />
</g>
<g style="fill:#840000; fill-opacity:0.0; 
stroke:#840000; stroke-width:100; stroke-opacity:1; 
stroke-linecap:round; stroke-linejoin:round;">
</g>
<g style="fill:#840000; fill-opacity:0.0; 
stroke:#840000; stroke-width:60; stroke-opacity:1; 
stroke-linecap:round; stroke-linejoin:round;">
<path d="M3930 43300
L4720 43300
" />
</g>
<g style="fill:#840000; fill-opacity:0.0; 
stroke:#840000; stroke-width:100; stroke-opacity:1; 
stroke-linecap:round; stroke-linejoin:round;">
</g>
<g style="fill:#840000; fill-opacity:0.0; 
stroke:#840000; stroke-width:60; stroke-opacity:1; 
stroke-linecap:round; stroke-linejoin:round;">
<path d="M3930 62990
L4720 62990
" />
</g>
<g style="fill:#840000; fill-opacity:0.0; 
stroke:#840000; stroke-width:100; stroke-opacity:1; 
stroke-linecap:round; stroke-linejoin:round;">
</g>
<g style="fill:#840000; fill-opacity:0.0; 
stroke:#840000; stroke-width:60; stroke-opacity:1; 
stroke-linecap:round; stroke-linejoin:round;">
<path d="M4210 13850
L4450 13850
" />
<path d="M4160 14000
L4330 13490
L4500 14000
" />
</g>
<g style="fill:#840000; fill-opacity:0.0; 
stroke:#840000; stroke-width:100; stroke-opacity:1; 
stroke-linecap:round; stroke-linejoin:round;">
</g>
<g style="fill:#840000; fill-opacity:0.0; 
stroke:#840000; stroke-width:60; stroke-opacity:1; 
stroke-linecap:round; stroke-linejoin:round;">
<path d="M4370 33420
L4440 33440
L4470 33470
L4490 33520
L4490 33590
L4470 33640
L4440 33660
L4400 33690
L4200 33690
L4200 33180
L4370 33180
L4420 33200
L4440 33220
L4470 33270
L4470 33320
L4440 33370
L4420 33390
L4370 33420
L4200 33420
" />
</g>
<g style="fill:#840000; fill-opacity:0.0; 
stroke:#840000; stroke-width:100; stroke-opacity:1; 
stroke-linecap:round; stroke-linejoin:round;">
</g>
<g style="fill:#840000; fill-opacity:0.0; 
stroke:#840000; stroke-width:60; stroke-opacity:1; 
stroke-linecap:round; stroke-linejoin:round;">
<path d="M4490 53320
L4470 53340
L4400 53370
L4350 53370
L4270 53340
L4230 53290
L4200 53240
L4180 53150
L4180 53070
L4200 52980
L4230 52930
L4270 52880
L4350 52860
L4400 52860
L4470 52880
L4490 52900
" />
</g>
<g style="fill:#840000; fill-opacity:0.0; 
stroke:#840000; stroke-width:100; stroke-opacity:1; 
stroke-linecap:round; stroke-linejoin:round;">
</g>
<g style="fill:#840000; fill-opacity:0.0; 
stroke:#840000; stroke-width:60; stroke-opacity:1; 
stroke-linecap:round; stroke-linejoin:round;">
<path d="M4200 73060
L4200 72550
L4320 72550
L4400 72570
L4440 72620
L4470 72670
L4490 72760
L4490 72840
L4470 72930
L4440 72980
L4400 73030
L4320 73060
L4200 73060
" />
</g>
<g style="fill:#840000; fill-opacity:0.0; 
stroke:#840000; stroke-width:100; stroke-opacity:1; 
stroke-linecap:round; stroke-linejoin:round;">
</g>
<g style="fill:#840000; fill-opacity:0.0; 
stroke:#840000; stroke-width:60; stroke-opacity:1; 
stroke-linecap:round; stroke-linejoin:round;">
<path d="M112990 23620
L112200 23620
" />
</g>
<g style="fill:#840000; fill-opacity:0.0; 
stroke:#840000; stroke-width:100; stroke-opacity:1; 
stroke-linecap:round; stroke-linejoin:round;">
</g>
<g style="fill:#840000; fill-opacity:0.0; 
stroke:#840000; stroke-width:60; stroke-opacity:1; 
stroke-linecap:round; stroke-linejoin:round;">
<path d="M112990 43300
L112200 43300
" />
</g>
<g style="fill:#840000; fill-opacity:0.0; 
stroke:#840000; stroke-width:100; stroke-opacity:1; 
stroke-linecap:round; stroke-linejoin:round;">
</g>
<g style="fill:#840000; fill-opacity:0.0; 
stroke:#840000; stroke-width:60; stroke-opacity:1; 
stroke-linecap:round; stroke-linejoin:round;">
<path d="M112990 62990
L112200 62990
" />
</g>
<g style="fill:#840000; fill-opacity:0.0; 
stroke:#840000; stroke-width:100; stroke-opacity:1; 
stroke-linecap:round; stroke-linejoin:round;">
</g>
<g style="fill:#840000; fill-opacity:0.0; 
stroke:#840000; stroke-width:60; stroke-opacity:1; 
stroke-linecap:round; stroke-linejoin:round;">
<path d="M112470 13850
L112710 13850
" />
<path d="M112420 14000
L112590 13490
L112760 14000
" />
</g>
<g style="fill:#840000; fill-opacity:0.0; 
stroke:#840000; stroke-width:100; stroke-opacity:1; 
stroke-linecap:round; stroke-linejoin:round;">
</g>
<g style="fill:#840000; fill-opacity:0.0; 
stroke:#840000; stroke-width:60; stroke-opacity:1; 
stroke-linecap:round; stroke-linejoin:round;">
<path d="M112630 33420
L112700 33440
L112730 33470
L112750 33520
L112750 33590
L112730 33640
L112700 33660
L112660 33690
L112460 33690
L112460 33180
L112630 33180
L112680 33200
L112700 33220
L112730 33270
L112730 33320
L112700 33370
L112680 33390
L112630 33420
L112460 33420
" />
</g>
<g style="fill:#840000; fill-opacity:0.0; 
stroke:#840000; stroke-width:100; stroke-opacity:1; 
stroke-linecap:round; stroke-linejoin:round;">
</g>
<g style="fill:#840000; fill-opacity:0.0; 
stroke:#840000; stroke-width:60; stroke-opacity:1; 
stroke-linecap:round; stroke-linejoin:round;">
<path d="M112750 53320
L112730 53340
L112660 53370
L112610 53370
L112530 53340
L112490 53290
L112460 53240
L112440 53150
L112440 53070
L112460 52980
L112490 52930
L112530 52880
L112610 52860
L112660 52860
L112730 52880
L112750 52900
" />
</g>
<g style="fill:#840000; fill-opacity:0.0; 
stroke:#840000; stroke-width:100; stroke-opacity:1; 
stroke-linecap:round; stroke-linejoin:round;">
</g>
<g style="fill:#840000; fill-opacity:0.0; 
stroke:#840000; stroke-width:60; stroke-opacity:1; 
stroke-linecap:round; stroke-linejoin:round;">
<path d="M112460 73060
L112460 72550
L112580 72550
L112660 72570
L112700 72620
L112730 72670
L112750 72760
L112750 72840
L112730 72930
L112700 72980
L112660 73030
L112580 73060
L112460 73060
" />
</g>
<g style="fill:#840000; fill-opacity:0.0; 
stroke:#840000; stroke-width:100; stroke-opacity:1; 
stroke-linecap:round; stroke-linejoin:round;">
</g>
<g style="fill:#840000; fill-opacity:0.0; 
stroke:#840000; stroke-width:60; stroke-opacity:1; 
stroke-linecap:round; stroke-linejoin:round;">
<path d="M78880 76280
L78880 75690
L79020 75690
L79110 75720
L79160 75780
L79190 75830
L79220 75940
L79220 76030
L79190 76140
L79160 76200
L79110 76250
L79020 76280
L78880 76280
" />
<path d="M79720 76280
L79720 75970
L79700 75920
L79640 75890
L79530 75890
L79470 75920
" />
<path d="M79720 76250
L79670 76280
L79530 76280
L79470 76250
L79440 76200
L79440 76140
L79470 76090
L79530 76060
L79670 76060
L79720 76030
" />
<path d="M79920 75890
L80140 75890
" />
<path d="M80000 75690
L80000 76200
L80030 76250
L80080 76280
L80140 76280
" />
<path d="M80570 76250
L80510 76280
L80400 76280
L80340 76250
L80310 76200
L80310 75970
L80340 75920
L80400 75890
L80510 75890
L80570 75920
L80590 75970
L80590 76030
L80310 76090
" />
<path d="M80850 76230
L80880 76250
L80850 76280
L80820 76250
L80850 76230
L80850 76280
" />
<path d="M80850 75920
L80880 75940
L80850 75970
L80820 75940
L80850 75920
L80850 75970
" />
</g>
<g style="fill:#840000; fill-opacity:0.0; 
stroke:#840000; stroke-width:100; stroke-opacity:1; 
stroke-linecap:round; stroke-linejoin:round;">
</g>
<g style="fill:#840000; fill-opacity:0.0; 
stroke:#840000; stroke-width:60; stroke-opacity:1; 
stroke-linecap:round; stroke-linejoin:round;">
<path d="M69680 76570
L112200 76570
" />
</g>
<g style="fill:#840000; fill-opacity:0.0; 
stroke:#840000; stroke-width:100; stroke-opacity:1; 
stroke-linecap:round; stroke-linejoin:round;">
</g>
<g style="fill:#840000; fill-opacity:0.0; 
stroke:#840000; stroke-width:60; stroke-opacity:1; 
stroke-linecap:round; stroke-linejoin:round;">
<path d="M70210 77380
L70210 76790
" />
<path d="M70550 77380
L70290 77040
" />
<path d="M70550 76790
L70210 77130
" />
<path d="M70800 77380
L70800 76990
" />
<path d="M70800 76790
L70770 76820
L70800 76850
L70830 76820
L70800 76790
L70800 76850
" />
<path d="M71420 77330
L71390 77350
L71310 77380
L71250 77380
L71160 77350
L71110 77300
L71080 77240
L71050 77130
L71050 77040
L71080 76930
L71110 76880
L71160 76820
L71250 76790
L71310 76790
L71390 76820
L71420 76850
" />
<path d="M71920 77380
L71920 77070
L71900 77020
L71840 76990
L71730 76990
L71670 77020
" />
<path d="M71920 77350
L71870 77380
L71730 77380
L71670 77350
L71640 77300
L71640 77240
L71670 77190
L71730 77160
L71870 77160
L71920 77130
" />
<path d="M72450 77380
L72450 76790
" />
<path d="M72450 77350
L72400 77380
L72280 77380
L72230 77350
L72200 77330
L72170 77270
L72170 77100
L72200 77040
L72230 77020
L72280 76990
L72400 76990
L72450 77020
" />
<path d="M73180 77070
L73380 77070
" />
<path d="M73460 77380
L73180 77380
L73180 76790
L73460 76790
" />
<path d="M73710 77330
L73740 77350
L73710 77380
L73680 77350
L73710 77330
L73710 77380
" />
<path d="M73990 77380
L73990 76790
L74130 76790
L74220 76820
L74270 76880
L74300 76930
L74330 77040
L74330 77130
L74300 77240
L74270 77300
L74220 77350
L74130 77380
L73990 77380
" />
<path d="M74580 77330
L74610 77350
L74580 77380
L74550 77350
L74580 77330
L74580 77380
" />
<path d="M74830 77210
L75110 77210
" />
<path d="M74780 77380
L74970 76790
L75170 77380
" />
<path d="M75370 77330
L75400 77350
L75370 77380
L75340 77350
L75370 77330
L75370 77380
" />
<path d="M76780 77350
L76720 77380
L76610 77380
L76550 77350
L76520 77300
L76520 77070
L76550 77020
L76610 76990
L76720 76990
L76780 77020
L76800 77070
L76800 77130
L76520 77190
" />
<path d="M77290 77350
L77230 77380
L77120 77380
L77060 77350
L77030 77300
L77030 77070
L77060 77020
L77120 76990
L77230 76990
L77290 77020
L77310 77070
L77310 77130
L77030 77190
" />
<path d="M77540 77350
L77600 77380
L77710 77380
L77770 77350
L77800 77300
L77800 77270
L77770 77210
L77710 77190
L77630 77190
L77570 77160
L77540 77100
L77540 77070
L77570 77020
L77630 76990
L77710 76990
L77770 77020
" />
<path d="M78300 77350
L78250 77380
L78130 77380
L78080 77350
L78050 77330
L78020 77270
L78020 77100
L78050 77040
L78080 77020
L78130 76990
L78250 76990
L78300 77020
" />
<path d="M78560 77380
L78560 76790
" />
<path d="M78810 77380
L78810 77070
L78790 77020
L78730 76990
L78640 76990
L78590 77020
L78560 77040
" />
<path d="M79320 77350
L79260 77380
L79150 77380
L79090 77350
L79060 77300
L79060 77070
L79090 77020
L79150 76990
L79260 76990
L79320 77020
L79340 77070
L79340 77130
L79060 77190
" />
<path d="M79600 77380
L79600 76990
" />
<path d="M79600 77040
L79630 77020
L79680 76990
L79770 76990
L79830 77020
L79850 77070
L79850 77380
" />
<path d="M79850 77070
L79880 77020
L79940 76990
L80020 76990
L80080 77020
L80110 77070
L80110 77380
" />
<path d="M80640 77380
L80640 77070
L80620 77020
L80560 76990
L80450 76990
L80390 77020
" />
<path d="M80640 77350
L80590 77380
L80450 77380
L80390 77350
L80360 77300
L80360 77240
L80390 77190
L80450 77160
L80590 77160
L80640 77130
" />
<path d="M81540 77610
L81510 77580
L81450 77490
L81430 77440
L81400 77350
L81370 77210
L81370 77100
L81400 76960
L81430 76880
L81450 76820
L81510 76740
L81540 76710
" />
<path d="M81730 76850
L81760 76820
L81820 76790
L81960 76790
L82010 76820
L82040 76850
L82070 76900
L82070 76960
L82040 77040
L81700 77380
L82070 77380
" />
<path d="M82430 76790
L82490 76790
L82550 76820
L82570 76850
L82600 76900
L82630 77020
L82630 77160
L82600 77270
L82570 77330
L82550 77350
L82490 77380
L82430 77380
L82380 77350
L82350 77330
L82320 77270
L82290 77160
L82290 77020
L82320 76900
L82350 76850
L82380 76820
L82430 76790
" />
<path d="M83190 77380
L82850 77380
" />
<path d="M83020 77380
L83020 76790
L82960 76880
L82910 76930
L82850 76960
" />
<path d="M83690 76990
L83690 77380
" />
<path d="M83550 76760
L83410 77190
L83780 77190
" />
<path d="M84000 77160
L84450 77160
" />
<path d="M84840 76790
L84900 76790
L84960 76820
L84980 76850
L85010 76900
L85040 77020
L85040 77160
L85010 77270
L84980 77330
L84960 77350
L84900 77380
L84840 77380
L84790 77350
L84760 77330
L84730 77270
L84700 77160
L84700 77020
L84730 76900
L84760 76850
L84790 76820
L84840 76790
" />
<path d="M85230 76790
L85600 76790
L85400 77020
L85490 77020
L85540 77040
L85570 77070
L85600 77130
L85600 77270
L85570 77330
L85540 77350
L85490 77380
L85320 77380
L85260 77350
L85230 77330
" />
<path d="M85850 77160
L86300 77160
" />
<path d="M86890 77380
L86550 77380
" />
<path d="M86720 77380
L86720 76790
L86660 76880
L86610 76930
L86550 76960
" />
<path d="M87170 77380
L87280 77380
L87340 77350
L87370 77330
L87420 77240
L87450 77130
L87450 76900
L87420 76850
L87390 76820
L87340 76790
L87220 76790
L87170 76820
L87140 76850
L87110 76900
L87110 77040
L87140 77100
L87170 77130
L87220 77160
L87340 77160
L87390 77130
L87420 77100
L87450 77040
" />
<path d="M88350 77070
L88430 77100
L88460 77130
L88490 77190
L88490 77270
L88460 77330
L88430 77350
L88380 77380
L88150 77380
L88150 76790
L88350 76790
L88400 76820
L88430 76850
L88460 76900
L88460 76960
L88430 77020
L88400 77040
L88350 77070
L88150 77070
" />
<path d="M88680 76790
L89080 76790
L88680 77380
L89080 77380
" />
<path d="M89640 77380
L89440 77100
" />
<path d="M89300 77380
L89300 76790
L89530 76790
L89580 76820
L89610 76850
L89640 76900
L89640 76990
L89610 77040
L89580 77070
L89530 77100
L89300 77100
" />
<path d="M90590 76990
L90590 77380
" />
<path d="M90450 76760
L90310 77190
L90680 77190
" />
<path d="M90840 76790
L91240 76790
L90980 77380
" />
<path d="M91740 76790
L91460 76790
L91430 77070
L91460 77040
L91520 77020
L91660 77020
L91710 77040
L91740 77070
L91770 77130
L91770 77270
L91740 77330
L91710 77350
L91660 77380
L91520 77380
L91460 77350
L91430 77330
" />
<path d="M92270 76790
L92160 76790
L92100 76820
L92080 76850
L92020 76930
L91990 77040
L91990 77270
L92020 77330
L92050 77350
L92100 77380
L92220 77380
L92270 77350
L92300 77330
L92330 77270
L92330 77130
L92300 77070
L92270 77040
L92220 77020
L92100 77020
L92050 77040
L92020 77070
L91990 77130
" />
<path d="M92520 77610
L92550 77580
L92610 77490
L92640 77440
L92660 77350
L92690 77210
L92690 77100
L92660 76960
L92640 76880
L92610 76820
L92550 76740
L92520 76710
" />
<path d="M92970 77160
L93420 77160
" />
<path d="M93700 76990
L93700 77580
" />
<path d="M93700 77020
L93760 76990
L93870 76990
L93930 77020
L93950 77040
L93980 77100
L93980 77270
L93950 77330
L93930 77350
L93870 77380
L93760 77380
L93700 77350
" />
<path d="M94230 77380
L94230 76990
" />
<path d="M94230 77100
L94260 77040
L94290 77020
L94340 76990
L94400 76990
" />
<path d="M94680 77380
L94630 77350
L94600 77330
L94570 77270
L94570 77100
L94600 77040
L94630 77020
L94680 76990
L94770 76990
L94830 77020
L94850 77040
L94880 77100
L94880 77270
L94850 77330
L94830 77350
L94770 77380
L94680 77380
" />
<path d="M95380 77380
L95380 76790
" />
<path d="M95380 77350
L95330 77380
L95210 77380
L95160 77350
L95130 77330
L95100 77270
L95100 77100
L95130 77040
L95160 77020
L95210 76990
L95330 76990
L95380 77020
" />
<path d="M95910 76990
L95910 77380
" />
<path d="M95660 76990
L95660 77300
L95690 77350
L95740 77380
L95830 77380
L95890 77350
L95910 77330
" />
<path d="M96440 77350
L96390 77380
L96270 77380
L96220 77350
L96190 77330
L96160 77270
L96160 77100
L96190 77040
L96220 77020
L96270 76990
L96390 76990
L96440 77020
" />
<path d="M96620 76990
L96840 76990
" />
<path d="M96700 76790
L96700 77300
L96730 77350
L96780 77380
L96840 77380
" />
</g>
<g style="fill:#840000; fill-opacity:0.0; 
stroke:#840000; stroke-width:100; stroke-opacity:1; 
stroke-linecap:round; stroke-linejoin:round;">
</g>
<g style="fill:#840000; fill-opacity:0.0; 
stroke:#840000; stroke-width:60; stroke-opacity:1; 
stroke-linecap:round; stroke-linejoin:round;">
<path d="M69680 75390
L112200 75390
" />
</g>
<g style="fill:#840000; fill-opacity:0.0; 
stroke:#840000; stroke-width:100; stroke-opacity:1; 
stroke-linecap:round; stroke-linejoin:round;">
</g>
<g style="fill:#840000; fill-opacity:0.0; 
stroke:#840000; stroke-width:120; stroke-opacity:1; 
stroke-linecap:round; stroke-linejoin:round;">
<path d="M104020 76280
L103820 76000
" />
<path d="M103680 76280
L103680 75690
L103910 75690
L103960 75720
L103990 75750
L104020 75800
L104020 75890
L103990 75940
L103960 75970
L103910 76000
L103680 76000
" />
<path d="M104500 76250
L104440 76280
L104330 76280
L104270 76250
L104240 76200
L104240 75970
L104270 75920
L104330 75890
L104440 75890
L104500 75920
L104520 75970
L104520 76030
L104240 76090
" />
<path d="M104720 75890
L104860 76280
L105010 75890
" />
<path d="M105230 76230
L105260 76250
L105230 76280
L105200 76250
L105230 76230
L105230 76280
" />
<path d="M105230 75920
L105260 75940
L105230 75970
L105200 75940
L105230 75920
L105230 75970
" />
</g>
<g style="fill:#840000; fill-opacity:0.0; 
stroke:#840000; stroke-width:100; stroke-opacity:1; 
stroke-linecap:round; stroke-linejoin:round;">
</g>
<g style="fill:#840000; fill-opacity:0.0; 
stroke:#840000; stroke-width:60; stroke-opacity:1; 
stroke-linecap:round; stroke-linejoin:round;">
<path d="M70180 76250
L70270 76280
L70410 76280
L70460 76250
L70490 76230
L70520 76170
L70520 76110
L70490 76060
L70460 76030
L70410 76000
L70290 75970
L70240 75940
L70210 75920
L70180 75860
L70180 75800
L70210 75750
L70240 75720
L70290 75690
L70440 75690
L70520 75720
" />
<path d="M70770 76280
L70770 75890
" />
<path d="M70770 75690
L70740 75720
L70770 75750
L70800 75720
L70770 75690
L70770 75750
" />
<path d="M70990 75890
L71300 75890
L70990 76280
L71300 76280
" />
<path d="M71760 76250
L71700 76280
L71590 76280
L71530 76250
L71500 76200
L71500 75970
L71530 75920
L71590 75890
L71700 75890
L71760 75920
L71780 75970
L71780 76030
L71500 76090
" />
<path d="M72040 76230
L72070 76250
L72040 76280
L72010 76250
L72040 76230
L72040 76280
" />
<path d="M72040 75920
L72070 75940
L72040 75970
L72010 75940
L72040 75920
L72040 75970
" />
<path d="M72740 76110
L73020 76110
" />
<path d="M72690 76280
L72880 75690
L73080 76280
" />
<path d="M73530 75890
L73530 76280
" />
<path d="M73390 75660
L73250 76090
L73620 76090
" />
</g>
<g style="fill:#840000; fill-opacity:0.0; 
stroke:#840000; stroke-width:100; stroke-opacity:1; 
stroke-linecap:round; stroke-linejoin:round;">
</g>
<g style="fill:#840000; fill-opacity:0.0; 
stroke:#840000; stroke-width:60; stroke-opacity:1; 
stroke-linecap:round; stroke-linejoin:round;">
<path d="M103680 77380
L103680 76790
" />
<path d="M104210 77380
L104210 76790
" />
<path d="M104210 77350
L104160 77380
L104040 77380
L103990 77350
L103960 77330
L103930 77270
L103930 77100
L103960 77040
L103990 77020
L104040 76990
L104160 76990
L104210 77020
" />
<path d="M104490 77330
L104520 77350
L104490 77380
L104460 77350
L104490 77330
L104490 77380
" />
<path d="M104490 77020
L104520 77040
L104490 77070
L104460 77040
L104490 77020
L104490 77070
" />
<path d="M105160 76790
L105530 76790
L105330 77020
L105420 77020
L105470 77040
L105500 77070
L105530 77130
L105530 77270
L105500 77330
L105470 77350
L105420 77380
L105250 77380
L105190 77350
L105160 77330
" />
<path d="M106200 76760
L105700 77520
" />
<path d="M106650 76990
L106650 77380
" />
<path d="M106510 76760
L106370 77190
L106740 77190
" />
</g>
<g style="fill:#840000; fill-opacity:0.0; 
stroke:#840000; stroke-width:100; stroke-opacity:1; 
stroke-linecap:round; stroke-linejoin:round;">
</g>
<g style="fill:#840000; fill-opacity:0.0; 
stroke:#840000; stroke-width:60; stroke-opacity:1; 
stroke-linecap:round; stroke-linejoin:round;">
<path d="M69680 73820
L112200 73820
" />
</g>
<g style="fill:#840000; fill-opacity:0.0; 
stroke:#840000; stroke-width:100; stroke-opacity:1; 
stroke-linecap:round; stroke-linejoin:round;">
</g>
<g style="fill:#840000; fill-opacity:0.0; 
stroke:#840000; stroke-width:160; stroke-opacity:1; 
stroke-linecap:round; stroke-linejoin:round;">
<path d="M70250 74090
L70700 74090
" />
<path d="M70380 74880
L70470 74090
" />
<path d="M70870 74880
L70930 74360
" />
<path d="M70960 74090
L70920 74130
L70950 74170
L71000 74130
L70960 74090
L70950 74170
" />
<path d="M71200 74360
L71500 74360
" />
<path d="M71340 74090
L71260 74770
L71290 74840
L71360 74880
L71440 74880
" />
<path d="M71810 74880
L71740 74840
L71710 74770
L71790 74090
" />
<path d="M72410 74840
L72330 74880
L72180 74880
L72110 74840
L72080 74770
L72120 74470
L72170 74390
L72240 74360
L72390 74360
L72470 74390
L72500 74470
L72490 74540
L72100 74620
" />
<path d="M72790 74810
L72830 74840
L72790 74880
L72750 74840
L72790 74810
L72790 74880
" />
<path d="M72850 74390
L72880 74430
L72840 74470
L72800 74430
L72850 74390
L72840 74470
" />
</g>
<g style="fill:#840000; fill-opacity:0.0; 
stroke:#840000; stroke-width:100; stroke-opacity:1; 
stroke-linecap:round; stroke-linejoin:round;">
</g>
<g style="fill:#840000; fill-opacity:0.0; 
stroke:#840000; stroke-width:60; stroke-opacity:1; 
stroke-linecap:round; stroke-linejoin:round;">
<path d="M70410 73060
L70210 73060
" />
<path d="M70210 73370
L70210 72780
L70490 72780
" />
<path d="M70720 73370
L70720 72980
" />
<path d="M70720 72780
L70690 72810
L70720 72840
L70750 72810
L70720 72780
L70720 72840
" />
<path d="M71080 73370
L71030 73340
L71000 73290
L71000 72780
" />
<path d="M71540 73340
L71480 73370
L71370 73370
L71310 73340
L71280 73290
L71280 73060
L71310 73010
L71370 72980
L71480 72980
L71540 73010
L71560 73060
L71560 73120
L71280 73180
" />
<path d="M71820 73320
L71850 73340
L71820 73370
L71790 73340
L71820 73320
L71820 73370
" />
<path d="M71820 73010
L71850 73030
L71820 73060
L71790 73030
L71820 73010
L71820 73060
" />
<path d="M72550 73370
L72550 72780
L72780 72780
L72830 72810
L72860 72840
L72890 72890
L72890 72980
L72860 73030
L72830 73060
L72780 73090
L72550 73090
" />
<path d="M73220 73370
L73170 73340
L73140 73320
L73110 73260
L73110 73090
L73140 73030
L73170 73010
L73220 72980
L73310 72980
L73370 73010
L73390 73030
L73420 73090
L73420 73260
L73390 73320
L73370 73340
L73310 73370
L73220 73370
" />
<path d="M73610 72980
L73730 73370
L73840 73090
L73950 73370
L74060 72980
" />
<path d="M74520 73340
L74460 73370
L74350 73370
L74290 73340
L74260 73290
L74260 73060
L74290 73010
L74350 72980
L74460 72980
L74520 73010
L74540 73060
L74540 73120
L74260 73180
" />
<path d="M74800 73370
L74800 72980
" />
<path d="M74800 73090
L74830 73030
L74860 73010
L74910 72980
L74970 72980
" />
<path d="M75170 73320
L75200 73340
L75170 73370
L75140 73340
L75170 73320
L75170 73370
" />
<path d="M75420 73340
L75480 73370
L75590 73370
L75650 73340
L75680 73290
L75680 73260
L75650 73200
L75590 73180
L75510 73180
L75450 73150
L75420 73090
L75420 73060
L75450 73010
L75510 72980
L75590 72980
L75650 73010
" />
<path d="M76180 73340
L76130 73370
L76010 73370
L75960 73340
L75930 73320
L75900 73260
L75900 73090
L75930 73030
L75960 73010
L76010 72980
L76130 72980
L76180 73010
" />
<path d="M76440 73370
L76440 72780
" />
<path d="M76690 73370
L76690 73060
L76670 73010
L76610 72980
L76520 72980
L76470 73010
L76440 73030
" />
</g>
<g style="fill:#840000; fill-opacity:0.0; 
stroke:#840000; stroke-width:100; stroke-opacity:1; 
stroke-linecap:round; stroke-linejoin:round;">
</g>
<g style="fill:#840000; fill-opacity:0.0; 
stroke:#840000; stroke-width:60; stroke-opacity:1; 
stroke-linecap:round; stroke-linejoin:round;">
<path d="M69680 71450
L112200 71450
" />
</g>
<g style="fill:#840000; fill-opacity:0.0; 
stroke:#840000; stroke-width:100; stroke-opacity:1; 
stroke-linecap:round; stroke-linejoin:round;">
</g>
<g style="fill:#840000; fill-opacity:0.0; 
stroke:#840000; stroke-width:60; stroke-opacity:1; 
stroke-linecap:round; stroke-linejoin:round;">
<path d="M70180 72280
L70270 72310
L70410 72310
L70460 72280
L70490 72260
L70520 72200
L70520 72140
L70490 72090
L70460 72060
L70410 72030
L70290 72000
L70240 71970
L70210 71950
L70180 71890
L70180 71830
L70210 71780
L70240 71750
L70290 71720
L70440 71720
L70520 71750
" />
<path d="M70770 72310
L70770 71720
" />
<path d="M71020 72310
L71020 72000
L71000 71950
L70940 71920
L70850 71920
L70800 71950
L70770 71970
" />
<path d="M71530 72280
L71470 72310
L71360 72310
L71300 72280
L71270 72230
L71270 72000
L71300 71950
L71360 71920
L71470 71920
L71530 71950
L71550 72000
L71550 72060
L71270 72120
" />
<path d="M72040 72280
L71980 72310
L71870 72310
L71810 72280
L71780 72230
L71780 72000
L71810 71950
L71870 71920
L71980 71920
L72040 71950
L72060 72000
L72060 72060
L71780 72120
" />
<path d="M72240 71920
L72460 71920
" />
<path d="M72320 71720
L72320 72230
L72350 72280
L72400 72310
L72460 72310
" />
<path d="M72660 72260
L72690 72280
L72660 72310
L72630 72280
L72660 72260
L72660 72310
" />
<path d="M72660 71950
L72690 71970
L72660 72000
L72630 71970
L72660 71950
L72660 72000
" />
<path d="M73810 71690
L73310 72450
" />
<path d="M74010 72310
L74010 71720
L74240 71720
L74290 71750
L74320 71780
L74350 71830
L74350 71920
L74320 71970
L74290 72000
L74240 72030
L74010 72030
" />
<path d="M74680 72310
L74630 72280
L74600 72260
L74570 72200
L74570 72030
L74600 71970
L74630 71950
L74680 71920
L74770 71920
L74830 71950
L74850 71970
L74880 72030
L74880 72200
L74850 72260
L74830 72280
L74770 72310
L74680 72310
" />
<path d="M75070 71920
L75190 72310
L75300 72030
L75410 72310
L75520 71920
" />
<path d="M75980 72280
L75920 72310
L75810 72310
L75750 72280
L75720 72230
L75720 72000
L75750 71950
L75810 71920
L75920 71920
L75980 71950
L76000 72000
L76000 72060
L75720 72120
" />
<path d="M76260 72310
L76260 71920
" />
<path d="M76260 72030
L76290 71970
L76320 71950
L76370 71920
L76430 71920
" />
<path d="M77050 71690
L76550 72450
" />
</g>
<g style="fill:#840000; fill-opacity:0.0; 
stroke:#840000; stroke-width:100; stroke-opacity:1; 
stroke-linecap:round; stroke-linejoin:round;">
</g>
<g style="fill:#840000; fill-opacity:0.0; 
stroke:#840000; stroke-width:60; stroke-opacity:1; 
stroke-linecap:round; stroke-linejoin:round;">
<path d="M77550 75390
L77550 76570
" />
</g>
<g style="fill:#840000; fill-opacity:0.0; 
stroke:#840000; stroke-width:100; stroke-opacity:1; 
stroke-linecap:round; stroke-linejoin:round;">
</g>
<g style="fill:#840000; fill-opacity:0.0; 
stroke:#840000; stroke-width:60; stroke-opacity:1; 
stroke-linecap:round; stroke-linejoin:round;">
<path d="M102750 75390
L102750 77950
" />
</g>
<g style="fill:#840000; fill-opacity:0.0; 
stroke:#840000; stroke-width:0; stroke-opacity:1; 
stroke-linecap:round; stroke-linejoin:round;">
</g>
<g style="fill:#840000; fill-opacity:0.0; 
stroke:#840000; stroke-width:60; stroke-opacity:1; 
stroke-linecap:round; stroke-linejoin:round;">
<rect x="57500" y="27500" width="4000" height="3000" rx="0" />
<path d="M57500 28500
L55500 28500
" />
<path d="M57840 28280
L57970 28680
L58100 28280
" />
<path d="M58240 28680
L58240 28280
" />
</g>
<g style="fill:#008484; fill-opacity:0.0; 
stroke:#008484; stroke-width:60; stroke-opacity:1; 
stroke-linecap:round; stroke-linejoin:round;">
<path d="M61500 28500
L63500 28500
" />
</g>
<g style="fill:#840000; fill-opacity:0.0; 
stroke:#840000; stroke-width:60; stroke-opacity:1; 
stroke-linecap:round; stroke-linejoin:round;">
<path d="M60480 28280
L60610 28680
L60740 28280
" />
<path d="M60950 28280
L61030 28280
L61070 28300
L61100 28340
L61120 28410
L61120 28550
L61100 28620
L61070 28660
L61030 28680
L60950 28680
L60910 28660
L60880 28620
L60860 28550
L60860 28410
L60880 28340
L60910 28300
L60950 28280
" />
</g>
<g style="fill:#008484; fill-opacity:0.0; 
stroke:#008484; stroke-width:60; stroke-opacity:1; 
stroke-linecap:round; stroke-linejoin:round;">
<path d="M59500 30500
L59500 31500
" />
</g>
<g style="fill:#840000; fill-opacity:0.0; 
stroke:#840000; stroke-width:60; stroke-opacity:1; 
stroke-linecap:round; stroke-linejoin:round;">
<path d="M59300 29900
L59280 29930
L59280 29990
L59300 30050
L59340 30090
L59380 30100
L59450 30120
L59510 30120
L59590 30100
L59620 30090
L59660 30050
L59680 29990
L59680 29950
L59660 29900
L59640 29880
L59510 29880
L59510 29950
" />
<path d="M59680 29700
L59280 29700
L59680 29480
L59280 29480
" />
<path d="M59680 29280
L59280 29280
L59280 29190
L59300 29130
L59340 29090
L59380 29080
L59450 29060
L59510 29060
L59590 29080
L59620 29090
L59660 29130
L59680 29190
L59680 29280
" />
</g>
<g style="fill:#008484; fill-opacity:0.0; 
stroke:#008484; stroke-width:60; stroke-opacity:1; 
stroke-linecap:round; stroke-linejoin:round;">
<path d="M60540 30600
L60540 31090
L60570 31140
L60600 31170
L60660 31200
L60770 31200
L60830 31170
L60860 31140
L60890 31090
L60890 30600
" />
<path d="M61430 30800
L61430 31200
" />
<path d="M61290 30570
L61140 31000
L61520 31000
" />
<path d="M58260 27240
L57970 27240
L57970 26640
" />
<path d="M58460 26930
L58660 26930
" />
<path d="M58750 27240
L58460 27240
L58460 26640
L58750 26640
" />
<path d="M58950 26640
L59320 26640
L59120 26870
L59200 26870
L59260 26900
L59290 26930
L59320 26980
L59320 27130
L59290 27180
L59260 27210
L59200 27240
L59030 27240
L58970 27210
L58950 27180
" />
<path d="M59520 26640
L59890 26640
L59690 26870
L59770 26870
L59830 26900
L59860 26930
L59890 26980
L59890 27130
L59860 27180
L59830 27210
L59770 27240
L59600 27240
L59540 27210
L59520 27180
" />
<path d="M60490 27180
L60460 27210
L60370 27240
L60310 27240
L60230 27210
L60170 27160
L60140 27100
L60110 26980
L60110 26900
L60140 26780
L60170 26730
L60230 26670
L60310 26640
L60370 26640
L60460 26670
L60490 26700
" />
<path d="M60690 26640
L61090 26640
L60690 27240
L61090 27240
" />
</g>
<g style="fill:#008484; fill-opacity:0.0; 
stroke:#008484; stroke-width:0; stroke-opacity:1; 
stroke-linecap:round; stroke-linejoin:round;">
</g>
<g style="fill:#840000; fill-opacity:0.0; 
stroke:#840000; stroke-width:200; stroke-opacity:1; 
stroke-linecap:round; stroke-linejoin:round;">
<polyline fill="none;"
points="51700,32800
53300,32800
" /> 
<polyline fill="none;"
points="51700,32200
53300,32200
" /> 
</g>
<g style="fill:#840000; fill-opacity:0.0; 
stroke:#840000; stroke-width:60; stroke-opacity:1; 
stroke-linecap:round; stroke-linejoin:round;">
<path d="M52500 32200
L52500 30500
" />
</g>
<g style="fill:#008484; fill-opacity:0.0; 
stroke:#008484; stroke-width:60; stroke-opacity:1; 
stroke-linecap:round; stroke-linejoin:round;">
<path d="M52500 32800
L52500 34500
" />
</g>
<g style="fill:#840000; fill-opacity:0.0; 
stroke:#840000; stroke-width:60; stroke-opacity:1; 
stroke-linecap:round; stroke-linejoin:round;">
</g>
<g style="fill:#008484; fill-opacity:0.0; 
stroke:#008484; stroke-width:60; stroke-opacity:1; 
stroke-linecap:round; stroke-linejoin:round;">
<path d="M52820 31610
L52800 31630
L52750 31650
L52710 31650
L52650 31630
L52610 31590
L52600 31560
L52580 31480
L52580 31420
L52600 31350
L52610 31310
L52650 31270
L52710 31250
L52750 31250
L52800 31270
L52820 31290
" />
<path d="M53200 31650
L52980 31650
" />
<path d="M53090 31650
L53090 31250
L53050 31310
L53010 31350
L52980 31370
" />
<path d="M53390 31650
L53470 31650
L53510 31630
L53530 31610
L53570 31560
L53580 31480
L53580 31330
L53570 31290
L53550 31270
L53510 31250
L53430 31250
L53390 31270
L53380 31290
L53360 31330
L53360 31420
L53380 31460
L53390 31480
L53430 31500
L53510 31500
L53550 31480
L53570 31460
L53580 31420
" />
<path d="M52860 33500
L52640 33500
" />
<path d="M52750 33500
L52750 33100
L52710 33160
L52670 33200
L52640 33220
" />
<path d="M53110 33100
L53150 33100
L53190 33120
L53210 33140
L53230 33180
L53240 33250
L53240 33350
L53230 33420
L53210 33460
L53190 33480
L53150 33500
L53110 33500
L53070 33480
L53050 33460
L53040 33420
L53020 33350
L53020 33250
L53040 33180
L53050 33140
L53070 33120
L53110 33100
" />
<path d="M53490 33100
L53530 33100
L53570 33120
L53590 33140
L53610 33180
L53620 33250
L53620 33350
L53610 33420
L53590 33460
L53570 33480
L53530 33500
L53490 33500
L53450 33480
L53430 33460
L53420 33420
L53400 33350
L53400 33250
L53420 33180
L53430 33140
L53450 33120
L53490 33100
" />
<path d="M53800 33230
L53800 33500
" />
<path d="M53800 33270
L53810 33250
L53850 33230
L53910 33230
L53950 33250
L53970 33290
L53970 33500
" />
</g>
<g style="fill:#008484; fill-opacity:0.0; 
stroke:#008484; stroke-width:0; stroke-opacity:1; 
stroke-linecap:round; stroke-linejoin:round;">
</g>
<g style="fill:#840000; fill-opacity:0.0; 
stroke:#840000; stroke-width:60; stroke-opacity:1; 
stroke-linecap:round; stroke-linejoin:round;">
<path d="M65700 31560
L66310 31560
" />
<path d="M66010 31860
L66010 31250
" />
</g>
<g style="fill:#840000; fill-opacity:0.0; 
stroke:#840000; stroke-width:150; stroke-opacity:1; 
stroke-linecap:round; stroke-linejoin:round;">
<path d="M65503.9 35999.3 A1800 1800 0.0 0 0 67498.7 35997.5 " />
<polyline fill="none;"
points="65500,32000
67500,32000
67000,32000
67000,32000
" /> 
</g>
<g style="fill:#840000; fill-opacity:0.0; 
stroke:#840000; stroke-width:60; stroke-opacity:1; 
stroke-linecap:round; stroke-linejoin:round;">
<path d="M66500 32000
L66500 30500
" />
<path d="M66500 32700
L66500 34500
" />
<path d="M67400 31650
L67380 31670
L67310 31700
L67260 31700
L67190 31670
L67140 31620
L67120 31580
L67100 31480
L67100 31410
L67120 31320
L67140 31270
L67190 31220
L67260 31200
L67310 31200
L67380 31220
L67400 31240
" />
<path d="M67600 31240
L67620 31220
L67670 31200
L67790 31200
L67830 31220
L67860 31240
L67880 31290
L67880 31340
L67860 31410
L67570 31700
L67880 31700
" />
<path d="M68190 31200
L68240 31200
L68290 31220
L68310 31240
L68340 31290
L68360 31390
L68360 31510
L68340 31600
L68310 31650
L68290 31670
L68240 31700
L68190 31700
L68150 31670
L68120 31650
L68100 31600
L68080 31510
L68080 31390
L68100 31290
L68120 31240
L68150 31220
L68190 31200
" />
</g>
<g style="fill:#008484; fill-opacity:0.0; 
stroke:#008484; stroke-width:60; stroke-opacity:1; 
stroke-linecap:round; stroke-linejoin:round;">
<path d="M67100 33240
L67120 33220
L67170 33200
L67290 33200
L67330 33220
L67360 33240
L67380 33290
L67380 33340
L67360 33410
L67070 33700
L67380 33700
" />
<path d="M67810 33360
L67810 33700
" />
<path d="M67600 33360
L67600 33620
L67620 33670
L67670 33700
L67740 33700
L67790 33670
L67810 33650
" />
<path d="M68030 33240
L68050 33220
L68100 33200
L68220 33200
L68260 33220
L68290 33240
L68310 33290
L68310 33340
L68290 33410
L68000 33700
L68310 33700
" />
</g>
<g style="fill:#008484; fill-opacity:0.0; 
stroke:#008484; stroke-width:0; stroke-opacity:1; 
stroke-linecap:round; stroke-linejoin:round;">
</g>
<g style="fill:#840000; fill-opacity:0.0; 
stroke:#840000; stroke-width:60; stroke-opacity:1; 
stroke-linecap:round; stroke-linejoin:round;">
<rect x="12500" y="28000" width="2000" height="3000" rx="0" />
<circle cx="14800" cy="30500" r="300" /> 
<path d="M15100 30500
L17000 30500
" />
<path d="M15930 30370
L15580 30370
" />
<path d="M15760 30370
L15760 29770
L15700 29860
L15640 29910
L15580 29940
" />
<circle cx="14800" cy="28500" r="300" /> 
<path d="M15100 28500
L17000 28500
" />
<path d="M15580 27830
L15610 27800
L15670 27770
L15810 27770
L15870 27800
L15900 27830
L15930 27890
L15930 27940
L15900 28030
L15560 28370
L15930 28370
" />
<path d="M14210 29790
L13810 29790
L13810 29640
L13830 29600
L13850 29590
L13890 29570
L13940 29570
L13980 29590
L14000 29600
L14020 29640
L14020 29790
" />
<path d="M13850 29410
L13830 29390
L13810 29360
L13810 29260
L13830 29220
L13850 29200
L13890 29190
L13930 29190
L13980 29200
L14210 29430
L14210 29190
" />
</g>
<g style="fill:#008484; fill-opacity:0.0; 
stroke:#008484; stroke-width:60; stroke-opacity:1; 
stroke-linecap:round; stroke-linejoin:round;">
<path d="M13170 30350
L13190 30370
L13210 30420
L13210 30460
L13190 30520
L13150 30560
L13120 30570
L13040 30590
L12980 30590
L12910 30570
L12870 30560
L12830 30520
L12810 30460
L12810 30420
L12830 30370
L12850 30350
" />
<path d="M12810 30100
L12810 30020
L12830 29980
L12870 29950
L12940 29930
L13080 29930
L13150 29950
L13190 29980
L13210 30020
L13210 30100
L13190 30140
L13150 30170
L13080 30190
L12940 30190
L12870 30170
L12830 30140
L12810 30100
" />
<path d="M13210 29750
L12810 29750
L13210 29530
L12810 29530
" />
<path d="M13210 29330
L12810 29330
L13210 29110
L12810 29110
" />
<path d="M13250 29010
L13250 28710
" />
<path d="M12850 28630
L12830 28610
L12810 28580
L12810 28480
L12830 28440
L12850 28420
L12890 28410
L12930 28410
L12980 28420
L13210 28650
L13210 28410
" />
</g>
<g style="fill:#008400; fill-opacity:0.0; 
stroke:#008400; stroke-width:60; stroke-opacity:1; 
stroke-linecap:round; stroke-linejoin:round;">
<path d="M33500 28500
L55500 28500
" />
<path d="M52500 21000
L52500 30500
" />
</g>
<g style="fill:#008400; fill-opacity:0.0; 
stroke:#008400; stroke-width:0; stroke-opacity:1; 
stroke-linecap:round; stroke-linejoin:round;">
</g>
<g style="fill:#008400; fill-opacity:1.0; 
stroke:#008400; stroke-width:100; stroke-opacity:1; 
stroke-linecap:round; stroke-linejoin:round;">
<circle cx="52500" cy="28500" r="200" /> 
</g>
<g style="fill:#008400; fill-opacity:1.0; 
stroke:#008400; stroke-width:60; stroke-opacity:1; 
stroke-linecap:round; stroke-linejoin:round;">
<path d="M66500 30500
L66500 28500
" />
</g>
<g style="fill:#008400; fill-opacity:1.0; 
stroke:#008400; stroke-width:0; stroke-opacity:1; 
stroke-linecap:round; stroke-linejoin:round;">
</g>
<g style="fill:#008400; fill-opacity:1.0; 
stroke:#008400; stroke-width:100; stroke-opacity:1; 
stroke-linecap:round; stroke-linejoin:round;">
<circle cx="66500" cy="28500" r="200" /> 
</g>
<g style="fill:#008400; fill-opacity:1.0; 
stroke:#008400; stroke-width:60; stroke-opacity:1; 
stroke-linecap:round; stroke-linejoin:round;">
<path d="M17000 30500
L17000 45500
" />
</g>
<g style="fill:#008400; fill-opacity:1.0; 
stroke:#008400; stroke-width:0; stroke-opacity:1; 
stroke-linecap:round; stroke-linejoin:round;">
</g>
<g style="fill:#840000; fill-opacity:0.0; 
stroke:#840000; stroke-width:60; stroke-opacity:1; 
stroke-linecap:round; stroke-linejoin:round;">
<polyline fill="none;"
points="39000,52000
39500,52500
40000,52000
39000,52000
" /> 
</g>
<g style="fill:#840000; fill-opacity:0.0; 
stroke:#840000; stroke-width:0; stroke-opacity:1; 
stroke-linecap:round; stroke-linejoin:round;">
</g>
<g style="fill:#840000; fill-opacity:0.0; 
stroke:#840000; stroke-width:60; stroke-opacity:1; 
stroke-linecap:round; stroke-linejoin:round;">
<rect x="29000" y="13500" width="4000" height="3000" rx="0" />
<path d="M29000 14500
L27000 14500
" />
<path d="M29340 14280
L29470 14680
L29600 14280
" />
<path d="M29740 14680
L29740 14280
" />
</g>
<g style="fill:#008484; fill-opacity:0.0; 
stroke:#008484; stroke-width:60; stroke-opacity:1; 
stroke-linecap:round; stroke-linejoin:round;">
<path d="M33000 14500
L35000 14500
" />
</g>
<g style="fill:#840000; fill-opacity:0.0; 
stroke:#840000; stroke-width:60; stroke-opacity:1; 
stroke-linecap:round; stroke-linejoin:round;">
<path d="M31980 14280
L32110 14680
L32240 14280
" />
<path d="M32450 14280
L32530 14280
L32570 14300
L32600 14340
L32620 14410
L32620 14550
L32600 14620
L32570 14660
L32530 14680
L32450 14680
L32410 14660
L32380 14620
L32360 14550
L32360 14410
L32380 14340
L32410 14300
L32450 14280
" />
</g>
<g style="fill:#008484; fill-opacity:0.0; 
stroke:#008484; stroke-width:60; stroke-opacity:1; 
stroke-linecap:round; stroke-linejoin:round;">
<path d="M31000 16500
L31000 17500
" />
</g>
<g style="fill:#840000; fill-opacity:0.0; 
stroke:#840000; stroke-width:60; stroke-opacity:1; 
stroke-linecap:round; stroke-linejoin:round;">
<path d="M30800 15900
L30780 15930
L30780 15990
L30800 16050
L30840 16090
L30880 16100
L30950 16120
L31010 16120
L31090 16100
L31120 16090
L31160 16050
L31180 15990
L31180 15950
L31160 15900
L31140 15880
L31010 15880
L31010 15950
" />
<path d="M31180 15700
L30780 15700
L31180 15480
L30780 15480
" />
<path d="M31180 15280
L30780 15280
L30780 15190
L30800 15130
L30840 15090
L30880 15080
L30950 15060
L31010 15060
L31090 15080
L31120 15090
L31160 15130
L31180 15190
L31180 15280
" />
</g>
<g style="fill:#008484; fill-opacity:0.0; 
stroke:#008484; stroke-width:60; stroke-opacity:1; 
stroke-linecap:round; stroke-linejoin:round;">
<path d="M32040 16600
L32040 17090
L32070 17140
L32100 17170
L32160 17200
L32270 17200
L32330 17170
L32360 17140
L32390 17090
L32390 16600
" />
<path d="M32620 16600
L32990 16600
L32790 16830
L32870 16830
L32930 16860
L32960 16890
L32990 16940
L32990 17090
L32960 17140
L32930 17170
L32870 17200
L32700 17200
L32640 17170
L32620 17140
" />
<path d="M28830 13240
L28830 12640
L29030 13070
L29230 12640
L29230 13240
" />
<path d="M29870 13180
L29840 13210
L29750 13240
L29690 13240
L29610 13210
L29550 13160
L29520 13100
L29490 12980
L29490 12900
L29520 12780
L29550 12730
L29610 12670
L29690 12640
L29750 12640
L29840 12670
L29870 12700
" />
<path d="M30120 13240
L30120 12640
L30350 12640
L30410 12670
L30440 12700
L30470 12760
L30470 12840
L30440 12900
L30410 12930
L30350 12960
L30120 12960
" />
<path d="M31040 13240
L30690 13240
" />
<path d="M30870 13240
L30870 12640
L30810 12730
L30750 12780
L30690 12810
" />
<path d="M31240 12640
L31640 12640
L31380 13240
" />
<path d="M31980 12640
L32030 12640
L32090 12670
L32120 12700
L32150 12760
L32180 12870
L32180 13010
L32150 13130
L32120 13180
L32090 13210
L32030 13240
L31980 13240
L31920 13210
L31890 13180
L31860 13130
L31830 13010
L31830 12870
L31860 12760
L31890 12700
L31920 12670
L31980 12640
" />
<path d="M32550 12640
L32600 12640
L32660 12670
L32690 12700
L32720 12760
L32750 12870
L32750 13010
L32720 13130
L32690 13180
L32660 13210
L32600 13240
L32550 13240
L32490 13210
L32460 13180
L32430 13130
L32400 13010
L32400 12870
L32430 12760
L32460 12700
L32490 12670
L32550 12640
" />
<path d="M32920 12640
L33260 12640
" />
<path d="M33090 13240
L33090 12640
" />
</g>
<g style="fill:#008484; fill-opacity:0.0; 
stroke:#008484; stroke-width:0; stroke-opacity:1; 
stroke-linecap:round; stroke-linejoin:round;">
</g>
<g style="fill:#840000; fill-opacity:0.0; 
stroke:#840000; stroke-width:200; stroke-opacity:1; 
stroke-linecap:round; stroke-linejoin:round;">
<polyline fill="none;"
points="23200,18800
24800,18800
" /> 
<polyline fill="none;"
points="23200,18200
24800,18200
" /> 
</g>
<g style="fill:#840000; fill-opacity:0.0; 
stroke:#840000; stroke-width:60; stroke-opacity:1; 
stroke-linecap:round; stroke-linejoin:round;">
<path d="M24000 18200
L24000 16500
" />
</g>
<g style="fill:#008484; fill-opacity:0.0; 
stroke:#008484; stroke-width:60; stroke-opacity:1; 
stroke-linecap:round; stroke-linejoin:round;">
<path d="M24000 18800
L24000 20500
" />
</g>
<g style="fill:#840000; fill-opacity:0.0; 
stroke:#840000; stroke-width:60; stroke-opacity:1; 
stroke-linecap:round; stroke-linejoin:round;">
</g>
<g style="fill:#008484; fill-opacity:0.0; 
stroke:#008484; stroke-width:60; stroke-opacity:1; 
stroke-linecap:round; stroke-linejoin:round;">
<path d="M24320 17610
L24300 17630
L24250 17650
L24210 17650
L24150 17630
L24110 17590
L24100 17560
L24080 17480
L24080 17420
L24100 17350
L24110 17310
L24150 17270
L24210 17250
L24250 17250
L24300 17270
L24320 17290
" />
<path d="M24700 17650
L24480 17650
" />
<path d="M24590 17650
L24590 17250
L24550 17310
L24510 17350
L24480 17370
" />
<path d="M24840 17250
L25100 17250
L24930 17650
" />
<path d="M24360 19500
L24140 19500
" />
<path d="M24250 19500
L24250 19100
L24210 19160
L24170 19200
L24140 19220
" />
<path d="M24710 19230
L24710 19500
" />
<path d="M24540 19230
L24540 19440
L24550 19480
L24590 19500
L24650 19500
L24690 19480
L24710 19460
" />
</g>
<g style="fill:#008484; fill-opacity:0.0; 
stroke:#008484; stroke-width:0; stroke-opacity:1; 
stroke-linecap:round; stroke-linejoin:round;">
</g>
<g style="fill:#840000; fill-opacity:0.0; 
stroke:#840000; stroke-width:60; stroke-opacity:1; 
stroke-linecap:round; stroke-linejoin:round;">
<path d="M37200 17560
L37810 17560
" />
<path d="M37510 17860
L37510 17250
" />
</g>
<g style="fill:#840000; fill-opacity:0.0; 
stroke:#840000; stroke-width:150; stroke-opacity:1; 
stroke-linecap:round; stroke-linejoin:round;">
<path d="M37003.9 21999.3 A1800 1800 0.0 0 0 38998.7 21997.5 " />
<polyline fill="none;"
points="37000,18000
39000,18000
38500,18000
38500,18000
" /> 
</g>
<g style="fill:#840000; fill-opacity:0.0; 
stroke:#840000; stroke-width:60; stroke-opacity:1; 
stroke-linecap:round; stroke-linejoin:round;">
<path d="M38000 18000
L38000 16500
" />
<path d="M38000 18700
L38000 20500
" />
<path d="M38900 17650
L38880 17670
L38810 17700
L38760 17700
L38690 17670
L38640 17620
L38620 17580
L38600 17480
L38600 17410
L38620 17320
L38640 17270
L38690 17220
L38760 17200
L38810 17200
L38880 17220
L38900 17240
" />
<path d="M39380 17700
L39100 17700
" />
<path d="M39240 17700
L39240 17200
L39190 17270
L39140 17320
L39100 17340
" />
<path d="M39670 17410
L39620 17390
L39600 17360
L39580 17320
L39580 17290
L39600 17240
L39620 17220
L39670 17200
L39770 17200
L39810 17220
L39840 17240
L39860 17290
L39860 17320
L39840 17360
L39810 17390
L39770 17410
L39670 17410
L39620 17430
L39600 17460
L39580 17510
L39580 17600
L39600 17650
L39620 17670
L39670 17700
L39770 17700
L39810 17670
L39840 17650
L39860 17600
L39860 17510
L39840 17460
L39810 17430
L39770 17410
" />
</g>
<g style="fill:#008484; fill-opacity:0.0; 
stroke:#008484; stroke-width:60; stroke-opacity:1; 
stroke-linecap:round; stroke-linejoin:round;">
<path d="M38600 19240
L38620 19220
L38670 19200
L38790 19200
L38830 19220
L38860 19240
L38880 19290
L38880 19340
L38860 19410
L38570 19700
L38880 19700
" />
<path d="M39310 19360
L39310 19700
" />
<path d="M39100 19360
L39100 19620
L39120 19670
L39170 19700
L39240 19700
L39290 19670
L39310 19650
" />
<path d="M39530 19240
L39550 19220
L39600 19200
L39720 19200
L39760 19220
L39790 19240
L39810 19290
L39810 19340
L39790 19410
L39500 19700
L39810 19700
" />
</g>
<g style="fill:#008400; fill-opacity:0.0; 
stroke:#008400; stroke-width:60; stroke-opacity:1; 
stroke-linecap:round; stroke-linejoin:round;">
<path d="M17000 14500
L27000 14500
" />
<path d="M24000 16500
L24000 14500
" />
</g>
<g style="fill:#008400; fill-opacity:0.0; 
stroke:#008400; stroke-width:0; stroke-opacity:1; 
stroke-linecap:round; stroke-linejoin:round;">
</g>
<g style="fill:#008400; fill-opacity:1.0; 
stroke:#008400; stroke-width:100; stroke-opacity:1; 
stroke-linecap:round; stroke-linejoin:round;">
<circle cx="24000" cy="14500" r="200" /> 
</g>
<g style="fill:#008400; fill-opacity:1.0; 
stroke:#008400; stroke-width:60; stroke-opacity:1; 
stroke-linecap:round; stroke-linejoin:round;">
<path d="M24000 20500
L24000 22000
" />
<path d="M38000 22000
L38000 20500
" />
<path d="M38000 16500
L38000 14500
" />
</g>
<g style="fill:#008400; fill-opacity:1.0; 
stroke:#008400; stroke-width:0; stroke-opacity:1; 
stroke-linecap:round; stroke-linejoin:round;">
</g>
<g style="fill:#008400; fill-opacity:1.0; 
stroke:#008400; stroke-width:100; stroke-opacity:1; 
stroke-linecap:round; stroke-linejoin:round;">
<circle cx="38000" cy="14500" r="200" /> 
</g>
<g style="fill:#008400; fill-opacity:1.0; 
stroke:#008400; stroke-width:60; stroke-opacity:1; 
stroke-linecap:round; stroke-linejoin:round;">
<path d="M31000 17500
L31000 24500
" />
</g>
<g style="fill:#008400; fill-opacity:1.0; 
stroke:#008400; stroke-width:0; stroke-opacity:1; 
stroke-linecap:round; stroke-linejoin:round;">
</g>
<g style="fill:#008400; fill-opacity:1.0; 
stroke:#008400; stroke-width:100; stroke-opacity:1; 
stroke-linecap:round; stroke-linejoin:round;">
<circle cx="31000" cy="22000" r="200" /> 
</g>
<g style="fill:#008400; fill-opacity:1.0; 
stroke:#008400; stroke-width:0; stroke-opacity:1; 
stroke-linecap:round; stroke-linejoin:round;">
</g>
<g style="fill:#840000; fill-opacity:0.0; 
stroke:#840000; stroke-width:60; stroke-opacity:1; 
stroke-linecap:round; stroke-linejoin:round;">
<polyline fill="none;"
points="30500,24500
31000,25000
31500,24500
30500,24500
" /> 
</g>
<g style="fill:#008400; fill-opacity:0.0; 
stroke:#008400; stroke-width:60; stroke-opacity:1; 
stroke-linecap:round; stroke-linejoin:round;">
<path d="M24000 22000
L38000 22000
" />
<path d="M17000 14500
L17000 28500
" />
</g>
<g style="fill:#008400; fill-opacity:0.0; 
stroke:#008400; stroke-width:0; stroke-opacity:1; 
stroke-linecap:round; stroke-linejoin:round;">
</g>
<g style="fill:#840000; fill-opacity:0.0; 
stroke:#840000; stroke-width:80; stroke-opacity:1; 
stroke-linecap:round; stroke-linejoin:round;">
<polyline fill="none;"
points="32500,30000
30500,30000
" /> 
</g>
<g style="fill:#840000; fill-opacity:0.0; 
stroke:#840000; stroke-width:100; stroke-opacity:1; 
stroke-linecap:round; stroke-linejoin:round;">
<polyline fill="none;"
points="33000,29500
30000,29500
" /> 
</g>
<g style="fill:#840000; fill-opacity:0.0; 
stroke:#840000; stroke-width:80; stroke-opacity:1; 
stroke-linecap:round; stroke-linejoin:round;">
<polyline fill="none;"
points="31500,29200
31500,29500
" /> 
</g>
<g style="fill:#840000; fill-opacity:0.0; 
stroke:#840000; stroke-width:60; stroke-opacity:1; 
stroke-linecap:round; stroke-linejoin:round;">
<polyline fill="none;"
points="32500,28500
32500,29500
" /> 
<polyline fill="none;"
points="30500,28500
30500,29500
" /> 
<polyline fill="none;"
points="31500,28700
31500,28500
32500,28500
" /> 
</g>
<g style="fill:#840000; fill-opacity:0.0; 
stroke:#840000; stroke-width:80; stroke-opacity:1; 
stroke-linecap:round; stroke-linejoin:round;">
<polyline fill="none;"
points="31100,29200
31800,29200
31500,28700
31100,29200
31100,29200
" /> 
</g>
<g style="fill:#840000; fill-opacity:0.0; 
stroke:#840000; stroke-width:60; stroke-opacity:1; 
stroke-linecap:round; stroke-linejoin:round;">
<path d="M30500 28500
L29500 28500
" />
<path d="M29900 28380
L29900 27980
L29990 27980
L30050 28000
L30090 28040
L30100 28080
L30120 28150
L30120 28210
L30100 28290
L30090 28320
L30050 28360
L29990 28380
L29900 28380
" />
<path d="M31500 30000
L31500 31500
" />
<path d="M31000 30650
L30980 30680
L30980 30740
L31000 30800
L31040 30840
L31080 30850
L31150 30870
L31210 30870
L31290 30850
L31320 30840
L31360 30800
L31380 30740
L31380 30700
L31360 30650
L31340 30630
L31210 30630
L31210 30700
" />
<path d="M32500 28500
L33500 28500
" />
<path d="M32890 28360
L32940 28380
L33040 28380
L33080 28360
L33100 28340
L33110 28300
L33110 28270
L33100 28230
L33080 28210
L33040 28190
L32960 28170
L32920 28150
L32910 28130
L32890 28100
L32890 28060
L32910 28020
L32920 28000
L32960 27980
L33060 27980
L33110 28000
" />
<path d="M29900 30160
L29870 30210
L29810 30270
L29730 30360
L29700 30410
L29700 30470
" />
<path d="M29840 30440
L29810 30500
L29760 30560
L29640 30590
L29440 30590
L29330 30560
L29270 30500
L29240 30440
L29240 30330
L29270 30270
L29330 30210
L29440 30190
L29640 30190
L29760 30210
L29810 30270
L29840 30330
L29840 30440
" />
<path d="M29300 29960
L29270 29930
L29240 29870
L29240 29730
L29270 29670
L29300 29640
L29360 29610
L29410 29610
L29500 29640
L29840 29980
L29840 29610
" />
</g>
<g style="fill:#008484; fill-opacity:0.0; 
stroke:#008484; stroke-width:60; stroke-opacity:1; 
stroke-linecap:round; stroke-linejoin:round;">
<path d="M33540 33660
L32940 33660
" />
<path d="M33540 33020
L33260 33220
" />
<path d="M33540 33370
L32940 33370
L32940 33140
L32970 33080
L33000 33050
L33060 33020
L33140 33020
L33200 33050
L33230 33080
L33260 33140
L33260 33370
" />
<path d="M33230 32570
L33230 32770
" />
<path d="M33540 32770
L32940 32770
L32940 32480
" />
<path d="M32940 32260
L33430 32260
L33480 32230
L33510 32200
L33540 32140
L33540 32030
L33510 31970
L33480 31940
L33430 31910
L32940 31910
" />
<path d="M32940 31680
L32940 31310
L33170 31510
L33170 31430
L33200 31370
L33230 31340
L33280 31310
L33430 31310
L33480 31340
L33510 31370
L33540 31430
L33540 31600
L33510 31660
L33480 31680
" />
<path d="M32940 30770
L32940 31060
L33230 31090
L33200 31060
L33170 31000
L33170 30860
L33200 30800
L33230 30770
L33280 30740
L33430 30740
L33480 30770
L33510 30800
L33540 30860
L33540 31000
L33510 31060
L33480 31090
" />
<path d="M32940 30370
L32940 30320
L32970 30260
L33000 30230
L33060 30200
L33170 30170
L33310 30170
L33430 30200
L33480 30230
L33510 30260
L33540 30320
L33540 30370
L33510 30430
L33480 30460
L33430 30490
L33310 30520
L33170 30520
L33060 30490
L33000 30460
L32970 30430
L32940 30370
" />
<path d="M32940 29630
L32940 29920
L33230 29950
L33200 29920
L33170 29860
L33170 29720
L33200 29660
L33230 29630
L33280 29600
L33430 29600
L33480 29630
L33510 29660
L33540 29720
L33540 29860
L33510 29920
L33480 29950
" />
</g>
<g style="fill:#008484; fill-opacity:0.0; 
stroke:#008484; stroke-width:0; stroke-opacity:1; 
stroke-linecap:round; stroke-linejoin:round;">
</g>
<g style="fill:#840000; fill-opacity:0.0; 
stroke:#840000; stroke-width:100; stroke-opacity:1; 
stroke-linecap:round; stroke-linejoin:round;">
<circle cx="32000" cy="39000" r="1110" /> 
</g>
<g style="fill:#840000; fill-opacity:0.0; 
stroke:#840000; stroke-width:60; stroke-opacity:1; 
stroke-linecap:round; stroke-linejoin:round;">
<polyline fill="none;"
points="32500,39000
31500,38000
" /> 
</g>
<g style="fill:#840000; fill-opacity:0.0; 
stroke:#840000; stroke-width:100; stroke-opacity:1; 
stroke-linecap:round; stroke-linejoin:round;">
<polyline fill="none;"
points="32500,38250
32500,39750
32500,39750
" /> 
</g>
<g style="fill:#840000; fill-opacity:0.0; 
stroke:#840000; stroke-width:60; stroke-opacity:1; 
stroke-linecap:round; stroke-linejoin:round;">
<polyline fill="none;"
points="32000,39500
32500,39000
32500,39000
" /> 
<polyline fill="none;"
points="31600,39900
31500,40000
31500,40000
" /> 
</g>
<g style="fill:#840000; fill-opacity:1.0; 
stroke:#840000; stroke-width:60; stroke-opacity:1; 
stroke-linecap:round; stroke-linejoin:round;">
<polyline style="fill-rule:evenodd;"
points="31600,39900
31800,39300
32200,39700
31600,39900
31600,39900
" /> 
<path d="M31500 40000
L31500 41000
" />
<path d="M31170 40580
L31170 40450
" />
<path d="M31380 40390
L31380 40580
L30980 40580
L30980 40390
" />
</g>
<g style="fill:#008484; fill-opacity:1.0; 
stroke:#008484; stroke-width:60; stroke-opacity:1; 
stroke-linecap:round; stroke-linejoin:round;">
<path d="M31980 40390
L31980 40610
" />
<path d="M31980 40500
L31580 40500
L31640 40540
L31680 40580
L31700 40610
" />
</g>
<g style="fill:#840000; fill-opacity:1.0; 
stroke:#840000; stroke-width:60; stroke-opacity:1; 
stroke-linecap:round; stroke-linejoin:round;">
<path d="M32500 39000
L34500 39000
" />
<path d="M33530 38670
L33590 38690
L33600 38710
L33620 38750
L33620 38800
L33600 38840
L33590 38860
L33550 38880
L33400 38880
L33400 38480
L33530 38480
L33570 38500
L33590 38520
L33600 38560
L33600 38600
L33590 38630
L33570 38650
L33530 38670
L33400 38670
" />
</g>
<g style="fill:#008484; fill-opacity:1.0; 
stroke:#008484; stroke-width:60; stroke-opacity:1; 
stroke-linecap:round; stroke-linejoin:round;">
<path d="M33390 39120
L33410 39100
L33440 39080
L33540 39080
L33580 39100
L33600 39120
L33610 39160
L33610 39200
L33600 39250
L33370 39480
L33610 39480
" />
</g>
<g style="fill:#840000; fill-opacity:1.0; 
stroke:#840000; stroke-width:60; stroke-opacity:1; 
stroke-linecap:round; stroke-linejoin:round;">
<path d="M31500 38000
L31500 37000
" />
<path d="M31340 37380
L31360 37400
L31380 37450
L31380 37490
L31360 37550
L31320 37590
L31290 37600
L31210 37620
L31150 37620
L31080 37600
L31040 37590
L31000 37550
L30980 37490
L30980 37450
L31000 37400
L31020 37380
" />
</g>
<g style="fill:#008484; fill-opacity:1.0; 
stroke:#008484; stroke-width:60; stroke-opacity:1; 
stroke-linecap:round; stroke-linejoin:round;">
<path d="M31580 37630
L31580 37390
L31730 37520
L31730 37460
L31750 37420
L31770 37400
L31810 37390
L31900 37390
L31940 37400
L31960 37420
L31980 37460
L31980 37580
L31960 37610
L31940 37630
" />
</g>
<g style="fill:#840000; fill-opacity:1.0; 
stroke:#840000; stroke-width:60; stroke-opacity:1; 
stroke-linecap:round; stroke-linejoin:round;">
<path d="M32950 40740
L32900 40720
L32860 40670
L32790 40600
L32740 40580
L32690 40580
" />
<path d="M32710 40700
L32670 40670
L32620 40620
L32600 40530
L32600 40360
L32620 40270
L32670 40220
L32710 40200
L32810 40200
L32860 40220
L32900 40270
L32930 40360
L32930 40530
L32900 40620
L32860 40670
L32810 40700
L32710 40700
" />
<path d="M33090 40200
L33400 40200
L33230 40390
L33310 40390
L33350 40410
L33380 40430
L33400 40480
L33400 40600
L33380 40650
L33350 40670
L33310 40700
L33160 40700
L33120 40670
L33090 40650
" />
</g>
<g style="fill:#008484; fill-opacity:1.0; 
stroke:#008484; stroke-width:60; stroke-opacity:1; 
stroke-linecap:round; stroke-linejoin:round;">
<path d="M32570 37200
L32900 37200
L32570 37700
L32900 37700
" />
<path d="M33030 37200
L33310 37200
" />
<path d="M33170 37700
L33170 37200
" />
<path d="M33430 37200
L33760 37700
" />
<path d="M33760 37200
L33430 37700
" />
<path d="M33910 37200
L34220 37200
L34050 37390
L34130 37390
L34170 37410
L34200 37430
L34220 37480
L34220 37600
L34200 37650
L34170 37670
L34130 37700
L33980 37700
L33940 37670
L33910 37650
" />
<path d="M34700 37700
L34420 37700
" />
<path d="M34560 37700
L34560 37200
L34510 37270
L34460 37320
L34420 37340
" />
<path d="M34870 37200
L35180 37200
L35010 37390
L35090 37390
L35130 37410
L35160 37430
L35180 37480
L35180 37600
L35160 37650
L35130 37670
L35090 37700
L34940 37700
L34900 37670
L34870 37650
" />
</g>
<g style="fill:#008484; fill-opacity:1.0; 
stroke:#008484; stroke-width:0; stroke-opacity:1; 
stroke-linecap:round; stroke-linejoin:round;">
</g>
<g style="fill:#840000; fill-opacity:0.0; 
stroke:#840000; stroke-width:120; stroke-opacity:1; 
stroke-linecap:round; stroke-linejoin:round;">
<rect x="25100" y="31000" width="800" height="3000" rx="0" />
</g>
<g style="fill:#840000; fill-opacity:0.0; 
stroke:#840000; stroke-width:60; stroke-opacity:1; 
stroke-linecap:round; stroke-linejoin:round;">
<path d="M25500 31000
L25500 30000
" />
</g>
<g style="fill:#008484; fill-opacity:0.0; 
stroke:#008484; stroke-width:60; stroke-opacity:1; 
stroke-linecap:round; stroke-linejoin:round;">
<path d="M25500 34000
L25500 35000
" />
</g>
<g style="fill:#840000; fill-opacity:0.0; 
stroke:#840000; stroke-width:60; stroke-opacity:1; 
stroke-linecap:round; stroke-linejoin:round;">
</g>
<g style="fill:#008484; fill-opacity:0.0; 
stroke:#008484; stroke-width:60; stroke-opacity:1; 
stroke-linecap:round; stroke-linejoin:round;">
<path d="M26450 32760
L26260 32890
" />
<path d="M26450 32980
L26050 32980
L26050 32830
L26070 32790
L26090 32780
L26130 32760
L26180 32760
L26220 32780
L26240 32790
L26260 32830
L26260 32980
" />
<path d="M26450 32380
L26450 32600
" />
<path d="M26450 32490
L26050 32490
L26110 32530
L26150 32570
L26170 32600
" />
<path d="M26450 32190
L26450 32110
L26430 32070
L26410 32050
L26360 32010
L26280 32000
L26130 32000
L26090 32010
L26070 32030
L26050 32070
L26050 32150
L26070 32190
L26090 32200
L26130 32220
L26220 32220
L26260 32200
L26280 32190
L26300 32150
L26300 32070
L26280 32030
L26260 32010
L26220 32000
" />
<path d="M25720 32610
L25720 32830
" />
<path d="M25720 32720
L25320 32720
L25380 32760
L25420 32800
L25440 32830
" />
<path d="M25720 32430
L25320 32430
L25610 32300
L25320 32170
L25720 32170
" />
</g>
<g style="fill:#008400; fill-opacity:0.0; 
stroke:#008400; stroke-width:60; stroke-opacity:1; 
stroke-linecap:round; stroke-linejoin:round;">
<path d="M17000 28500
L29500 28500
" />
<path d="M25500 30000
L25500 28500
" />
</g>
<g style="fill:#008400; fill-opacity:0.0; 
stroke:#008400; stroke-width:0; stroke-opacity:1; 
stroke-linecap:round; stroke-linejoin:round;">
</g>
<g style="fill:#008400; fill-opacity:1.0; 
stroke:#008400; stroke-width:100; stroke-opacity:1; 
stroke-linecap:round; stroke-linejoin:round;">
<circle cx="25500" cy="28500" r="200" /> 
</g>
<g style="fill:#008400; fill-opacity:1.0; 
stroke:#008400; stroke-width:60; stroke-opacity:1; 
stroke-linecap:round; stroke-linejoin:round;">
<path d="M31500 37000
L31500 31500
" />
<path d="M25500 35000
L25500 36000
" />
<path d="M25500 36000
L31500 36000
" />
</g>
<g style="fill:#008400; fill-opacity:1.0; 
stroke:#008400; stroke-width:0; stroke-opacity:1; 
stroke-linecap:round; stroke-linejoin:round;">
</g>
<g style="fill:#008400; fill-opacity:1.0; 
stroke:#008400; stroke-width:100; stroke-opacity:1; 
stroke-linecap:round; stroke-linejoin:round;">
<circle cx="31500" cy="36000" r="200" /> 
</g>
<g style="fill:#008400; fill-opacity:1.0; 
stroke:#008400; stroke-width:60; stroke-opacity:1; 
stroke-linecap:round; stroke-linejoin:round;">
<path d="M31500 41000
L31500 45500
" />
<path d="M17000 45500
L59500 45500
" />
<path d="M34500 39000
L74000 39000
" />
<path d="M39500 45500
L39500 52000
" />
</g>
<g style="fill:#008400; fill-opacity:1.0; 
stroke:#008400; stroke-width:0; stroke-opacity:1; 
stroke-linecap:round; stroke-linejoin:round;">
</g>
<g style="fill:#008400; fill-opacity:1.0; 
stroke:#008400; stroke-width:100; stroke-opacity:1; 
stroke-linecap:round; stroke-linejoin:round;">
<circle cx="31500" cy="45500" r="200" /> 
</g>
<g style="fill:#008400; fill-opacity:1.0; 
stroke:#008400; stroke-width:60; stroke-opacity:1; 
stroke-linecap:round; stroke-linejoin:round;">
<path d="M59500 45500
L59500 31500
" />
</g>
<g style="fill:#008400; fill-opacity:1.0; 
stroke:#008400; stroke-width:0; stroke-opacity:1; 
stroke-linecap:round; stroke-linejoin:round;">
</g>
<g style="fill:#008400; fill-opacity:1.0; 
stroke:#008400; stroke-width:100; stroke-opacity:1; 
stroke-linecap:round; stroke-linejoin:round;">
<circle cx="39500" cy="45500" r="200" /> 
</g>
<g style="fill:#008400; fill-opacity:1.0; 
stroke:#008400; stroke-width:60; stroke-opacity:1; 
stroke-linecap:round; stroke-linejoin:round;">
<path d="M52500 34500
L52500 35500
" />
<path d="M52500 35500
L66500 35500
" />
</g>
<g style="fill:#008400; fill-opacity:1.0; 
stroke:#008400; stroke-width:0; stroke-opacity:1; 
stroke-linecap:round; stroke-linejoin:round;">
</g>
<g style="fill:#008400; fill-opacity:1.0; 
stroke:#008400; stroke-width:100; stroke-opacity:1; 
stroke-linecap:round; stroke-linejoin:round;">
<circle cx="59500" cy="35500" r="200" /> 
</g>
<g style="fill:#008400; fill-opacity:1.0; 
stroke:#008400; stroke-width:60; stroke-opacity:1; 
stroke-linecap:round; stroke-linejoin:round;">
<path d="M66500 35500
L66500 34500
" />
<path d="M63500 28500
L74000 28500
" />
<path d="M35000 14500
L74000 14500
" />
<path d="M52500 21000
L74000 21000
" />
<path d="M74850 14170
L75220 14170
L75020 14400
L75100 14400
L75160 14430
L75190 14460
L75220 14510
L75220 14660
L75190 14710
L75160 14740
L75100 14770
L74930 14770
L74870 14740
L74850 14710
" />
<path d="M75390 14170
L75590 14770
L75790 14170
" />
<path d="M75930 14170
L76300 14170
L76100 14400
L76180 14400
L76240 14430
L76270 14460
L76300 14510
L76300 14660
L76270 14710
L76240 14740
L76180 14770
L76010 14770
L75950 14740
L75930 14710
" />
<path d="M76550 14770
L76550 14170
L76700 14170
L76780 14200
L76840 14260
L76870 14310
L76900 14430
L76900 14510
L76870 14630
L76840 14690
L76780 14740
L76700 14770
L76550 14770
" />
<path d="M77150 14770
L77150 14170
" />
<path d="M77760 14200
L77700 14170
L77610 14170
L77530 14200
L77470 14260
L77440 14310
L77410 14430
L77410 14510
L77440 14630
L77470 14690
L77530 14740
L77610 14770
L77670 14770
L77760 14740
L77790 14710
L77790 14510
L77670 14510
" />
<path d="M78040 14770
L78040 14170
" />
<path d="M78250 14170
L78590 14170
" />
<path d="M78420 14770
L78420 14170
" />
<path d="M78760 14600
L79050 14600
" />
<path d="M78710 14770
L78910 14170
L79110 14770
" />
<path d="M79590 14770
L79300 14770
L79300 14170
" />
</g>
<g style="fill:#848400; fill-opacity:1.0; 
stroke:#848400; stroke-width:60; stroke-opacity:1; 
stroke-linecap:round; stroke-linejoin:round;">
</g>
<g style="fill:#848400; fill-opacity:0.0; 
stroke:#848400; stroke-width:100; stroke-opacity:1; 
stroke-linecap:round; stroke-linejoin:round;">
<polyline fill="none;"
points="74000,14500
74300,14800
74600,14800
74600,14200
74300,14200
74000,14500
" /> 
</g>
<g style="fill:#848400; fill-opacity:0.0; 
stroke:#848400; stroke-width:60; stroke-opacity:1; 
stroke-linecap:round; stroke-linejoin:round;">
<path d="M74850 28170
L75220 28170
L75020 28400
L75100 28400
L75160 28430
L75190 28460
L75220 28510
L75220 28660
L75190 28710
L75160 28740
L75100 28770
L74930 28770
L74870 28740
L74850 28710
" />
<path d="M75390 28170
L75590 28770
L75790 28170
" />
<path d="M75930 28170
L76300 28170
L76100 28400
L76180 28400
L76240 28430
L76270 28460
L76300 28510
L76300 28660
L76270 28710
L76240 28740
L76180 28770
L76010 28770
L75950 28740
L75930 28710
" />
<path d="M76520 28600
L76810 28600
" />
<path d="M76470 28770
L76670 28170
L76870 28770
" />
<path d="M77060 28770
L77060 28170
L77410 28770
L77410 28170
" />
<path d="M77660 28600
L77950 28600
" />
<path d="M77610 28770
L77810 28170
L78010 28770
" />
<path d="M78490 28770
L78200 28770
L78200 28170
" />
<path d="M78810 28170
L78920 28170
L78980 28200
L79040 28260
L79060 28370
L79060 28570
L79040 28690
L78980 28740
L78920 28770
L78810 28770
L78750 28740
L78690 28690
L78660 28570
L78660 28370
L78690 28260
L78750 28200
L78810 28170
" />
<path d="M79640 28200
L79580 28170
L79490 28170
L79410 28200
L79350 28260
L79320 28310
L79290 28430
L79290 28510
L79320 28630
L79350 28690
L79410 28740
L79490 28770
L79550 28770
L79640 28740
L79670 28710
L79670 28510
L79550 28510
" />
</g>
<g style="fill:#848400; fill-opacity:0.0; 
stroke:#848400; stroke-width:100; stroke-opacity:1; 
stroke-linecap:round; stroke-linejoin:round;">
<polyline fill="none;"
points="74000,28500
74300,28800
74600,28800
74600,28200
74300,28200
74000,28500
" /> 
</g>
<g style="fill:#848400; fill-opacity:0.0; 
stroke:#848400; stroke-width:60; stroke-opacity:1; 
stroke-linecap:round; stroke-linejoin:round;">
<path d="M74930 21270
L75050 21270
L75100 21240
L75130 21210
L75190 21130
L75220 21010
L75220 20790
L75190 20730
L75160 20700
L75100 20670
L74990 20670
L74930 20700
L74900 20730
L74870 20790
L74870 20930
L74900 20990
L74930 21010
L74990 21040
L75100 21040
L75160 21010
L75190 20990
L75220 20930
" />
<path d="M75390 20670
L75590 21270
L75790 20670
" />
<path d="M75950 21240
L76040 21270
L76180 21270
L76240 21240
L76270 21210
L76300 21160
L76300 21100
L76270 21040
L76240 21010
L76180 20990
L76070 20960
L76010 20930
L75980 20900
L75950 20840
L75950 20790
L75980 20730
L76010 20700
L76070 20670
L76210 20670
L76300 20700
" />
<path d="M76500 20670
L76640 21270
L76750 20840
L76870 21270
L77010 20670
" />
<path d="M77240 21270
L77240 20670
" />
<path d="M77450 20670
L77790 20670
" />
<path d="M77620 21270
L77620 20670
" />
<path d="M78340 21210
L78310 21240
L78220 21270
L78160 21270
L78080 21240
L78020 21190
L77990 21130
L77960 21010
L77960 20930
L77990 20810
L78020 20760
L78080 20700
L78160 20670
L78220 20670
L78310 20700
L78340 20730
" />
<path d="M78590 21270
L78590 20670
" />
<path d="M78590 20960
L78940 20960
" />
<path d="M78940 21270
L78940 20670
" />
<path d="M79220 20960
L79420 20960
" />
<path d="M79510 21270
L79220 21270
L79220 20670
L79510 20670
" />
<path d="M79760 21270
L79760 20670
L79910 20670
L79990 20700
L80050 20760
L80080 20810
L80110 20930
L80110 21010
L80080 21130
L80050 21190
L79990 21240
L79910 21270
L79760 21270
" />
</g>
<g style="fill:#848400; fill-opacity:0.0; 
stroke:#848400; stroke-width:100; stroke-opacity:1; 
stroke-linecap:round; stroke-linejoin:round;">
<polyline fill="none;"
points="74000,21000
74300,21300
74600,21300
74600,20700
74300,20700
74000,21000
" /> 
</g>
<g style="fill:#848400; fill-opacity:0.0; 
stroke:#848400; stroke-width:60; stroke-opacity:1; 
stroke-linecap:round; stroke-linejoin:round;">
<path d="M74900 39270
L74900 38670
L75130 38670
L75190 38700
L75220 38730
L75250 38790
L75250 38870
L75220 38930
L75190 38960
L75130 38990
L74900 38990
" />
<path d="M75620 38670
L75730 38670
L75790 38700
L75850 38760
L75870 38870
L75870 39070
L75850 39190
L75790 39240
L75730 39270
L75620 39270
L75560 39240
L75500 39190
L75470 39070
L75470 38870
L75500 38760
L75560 38700
L75620 38670
" />
<path d="M76080 38670
L76220 39270
L76330 38840
L76450 39270
L76590 38670
" />
<path d="M76820 38960
L77020 38960
" />
<path d="M77110 39270
L76820 39270
L76820 38670
L77110 38670
" />
<path d="M77710 39270
L77510 38990
" />
<path d="M77360 39270
L77360 38670
L77590 38670
L77650 38700
L77680 38730
L77710 38790
L77710 38870
L77680 38930
L77650 38960
L77590 38990
L77360 38990
" />
<path d="M78080 38670
L78190 38670
L78250 38700
L78310 38760
L78330 38870
L78330 39070
L78310 39190
L78250 39240
L78190 39270
L78080 39270
L78020 39240
L77960 39190
L77930 39070
L77930 38870
L77960 38760
L78020 38700
L78080 38670
" />
<path d="M78590 39270
L78590 38670
L78940 39270
L78940 38670
" />
</g>
<g style="fill:#848400; fill-opacity:0.0; 
stroke:#848400; stroke-width:100; stroke-opacity:1; 
stroke-linecap:round; stroke-linejoin:round;">
<polyline fill="none;"
points="74000,39000
74300,39300
74600,39300
74600,38700
74300,38700
74000,39000
" /> 
</g>
<g style="fill:#848400; fill-opacity:0.0; 
stroke:#848400; stroke-width:0; stroke-opacity:1; 
stroke-linecap:round; stroke-linejoin:round;">
</g>
<g style="fill:#840000; fill-opacity:0.0; 
stroke:#840000; stroke-width:60; stroke-opacity:1; 
stroke-linecap:round; stroke-linejoin:round;">
<path d="M17000 28500
L17000 28500
" />
<polyline fill="none;"
points="17000,28500
17000,28000
16250,27500
17000,27000
17750,27500
17000,28000
" /> 
</g>
<g style="fill:#840000; fill-opacity:0.0; 
stroke:#840000; stroke-width:50; stroke-opacity:1; 
stroke-linecap:round; stroke-linejoin:round;">
<path d="M15960 26820
L15960 26520
L16080 26520
L16100 26530
L16120 26540
L16130 26570
L16130 26620
L16120 26640
L16100 26660
L16080 26670
L15960 26670
" />
<path d="M16230 26520
L16300 26820
L16360 26600
L16420 26820
L16490 26520
" />
<path d="M16770 26820
L16670 26670
" />
<path d="M16600 26820
L16600 26520
L16720 26520
L16740 26530
L16760 26540
L16770 26570
L16770 26620
L16760 26640
L16740 26660
L16720 26670
L16600 26670
" />
<path d="M16830 26840
L17060 26840
" />
<path d="M17230 26660
L17130 26660
" />
<path d="M17130 26820
L17130 26520
L17270 26520
" />
<path d="M17530 26820
L17390 26820
L17390 26520
" />
<path d="M17620 26730
L17760 26730
" />
<path d="M17590 26820
L17690 26520
L17790 26820
" />
<path d="M18050 26530
L18020 26520
L17980 26520
L17930 26530
L17910 26560
L17890 26590
L17880 26640
L17880 26690
L17890 26740
L17910 26770
L17930 26800
L17980 26820
L18010 26820
L18050 26800
L18060 26790
L18060 26690
L18010 26690
" />
</g>
<g style="fill:#008484; fill-opacity:0.0; 
stroke:#008484; stroke-width:0; stroke-opacity:1; 
stroke-linecap:round; stroke-linejoin:round;">
</g>
<g style="fill:#840000; fill-opacity:0.0; 
stroke:#840000; stroke-width:60; stroke-opacity:1; 
stroke-linecap:round; stroke-linejoin:round;">
<path d="M39500 52000
L39500 52000
" />
<polyline fill="none;"
points="39500,52000
39500,51500
38750,51000
39500,50500
40250,51000
39500,51500
" /> 
</g>
<g style="fill:#840000; fill-opacity:0.0; 
stroke:#840000; stroke-width:50; stroke-opacity:1; 
stroke-linecap:round; stroke-linejoin:round;">
<path d="M38460 50320
L38460 50020
L38580 50020
L38600 50030
L38620 50040
L38630 50070
L38630 50120
L38620 50140
L38600 50160
L38580 50170
L38460 50170
" />
<path d="M38730 50020
L38800 50320
L38860 50100
L38920 50320
L38990 50020
" />
<path d="M39270 50320
L39170 50170
" />
<path d="M39100 50320
L39100 50020
L39220 50020
L39240 50030
L39260 50040
L39270 50070
L39270 50120
L39260 50140
L39240 50160
L39220 50170
L39100 50170
" />
<path d="M39330 50340
L39560 50340
" />
<path d="M39730 50160
L39630 50160
" />
<path d="M39630 50320
L39630 50020
L39770 50020
" />
<path d="M40030 50320
L39890 50320
L39890 50020
" />
<path d="M40120 50230
L40260 50230
" />
<path d="M40090 50320
L40190 50020
L40290 50320
" />
<path d="M40550 50030
L40520 50020
L40480 50020
L40430 50030
L40410 50060
L40390 50090
L40380 50140
L40380 50190
L40390 50240
L40410 50270
L40430 50300
L40480 50320
L40510 50320
L40550 50300
L40560 50290
L40560 50190
L40510 50190
" />
</g>
<g style="fill:#008484; fill-opacity:0.0; 
stroke:#008484; stroke-width:0; stroke-opacity:1; 
stroke-linecap:round; stroke-linejoin:round;">
</g>
<g style="fill:#840000; fill-opacity:0.0; 
stroke:#840000; stroke-width:60; stroke-opacity:1; 
stroke-linecap:round; stroke-linejoin:round;">
<circle cx="89000" cy="15400" r="200" /> 
<polyline fill="none;"
points="89000,16000
89000,15600
89000,15600
" /> 
</g>
<g style="fill:#840000; fill-opacity:0.0; 
stroke:#840000; stroke-width:50; stroke-opacity:1; 
stroke-linecap:round; stroke-linejoin:round;">
<path d="M88610 14900
L88840 14900
" />
<path d="M88730 15020
L88730 14790
" />
<path d="M89000 15020
L89050 15020
L89080 15000
L89100 14990
L89120 14940
L89140 14890
L89140 14770
L89120 14740
L89110 14730
L89080 14720
L89020 14720
L89000 14730
L88980 14740
L88970 14770
L88970 14840
L88980 14870
L89000 14890
L89020 14900
L89080 14900
L89110 14890
L89120 14870
L89140 14840
" />
<path d="M89230 14720
L89330 15020
L89430 14720
" />
</g>
<g style="fill:#008484; fill-opacity:0.0; 
stroke:#008484; stroke-width:0; stroke-opacity:1; 
stroke-linecap:round; stroke-linejoin:round;">
</g>
<g style="fill:#840000; fill-opacity:0.0; 
stroke:#840000; stroke-width:60; stroke-opacity:1; 
stroke-linecap:round; stroke-linejoin:round;">
<circle cx="92000" cy="15400" r="200" /> 
<polyline fill="none;"
points="92000,15600
92000,16000
92000,16000
92000,16000
" /> 
</g>
<g style="fill:#840000; fill-opacity:0.0; 
stroke:#840000; stroke-width:50; stroke-opacity:1; 
stroke-linecap:round; stroke-linejoin:round;">
<path d="M91640 14720
L91740 15020
L91840 14720
" />
<path d="M91930 14930
L92070 14930
" />
<path d="M91900 15020
L92000 14720
L92100 15020
" />
<path d="M92190 14930
L92330 14930
" />
<path d="M92160 15020
L92260 14720
L92360 15020
" />
</g>
<g style="fill:#008484; fill-opacity:0.0; 
stroke:#008484; stroke-width:0; stroke-opacity:1; 
stroke-linecap:round; stroke-linejoin:round;">
</g>
<g style="fill:#840000; fill-opacity:0.0; 
stroke:#840000; stroke-width:60; stroke-opacity:1; 
stroke-linecap:round; stroke-linejoin:round;">
<circle cx="95000" cy="15400" r="200" /> 
<polyline fill="none;"
points="95000,16000
95000,15600
95000,15600
" /> 
</g>
<g style="fill:#840000; fill-opacity:0.0; 
stroke:#840000; stroke-width:50; stroke-opacity:1; 
stroke-linecap:round; stroke-linejoin:round;">
<path d="M94400 14900
L94630 14900
" />
<path d="M94520 15020
L94520 14790
" />
<path d="M94740 14720
L94930 14720
L94830 14830
L94870 14830
L94900 14840
L94910 14860
L94930 14890
L94930 14960
L94910 14990
L94900 15000
L94870 15020
L94790 15020
L94760 15000
L94740 14990
" />
<path d="M95060 14990
L95080 15000
L95060 15020
L95050 15000
L95060 14990
L95060 15020
" />
<path d="M95170 14720
L95360 14720
L95260 14830
L95300 14830
L95330 14840
L95340 14860
L95360 14890
L95360 14960
L95340 14990
L95330 15000
L95300 15020
L95220 15020
L95190 15000
L95170 14990
" />
<path d="M95450 14720
L95550 15020
L95650 14720
" />
</g>
<g style="fill:#008484; fill-opacity:0.0; 
stroke:#008484; stroke-width:60; stroke-opacity:1; 
stroke-linecap:round; stroke-linejoin:round;">
</g>
<g style="fill:#008400; fill-opacity:0.0; 
stroke:#008400; stroke-width:60; stroke-opacity:1; 
stroke-linecap:round; stroke-linejoin:round;">
<path d="M89000 17500
L89000 16000
" />
<path d="M92000 16000
L92000 23500
" />
<path d="M95000 24000
L95000 16000
" />
<path d="M89000 17500
L69000 17500
" />
<path d="M69000 17500
L69000 21000
" />
</g>
<g style="fill:#008400; fill-opacity:0.0; 
stroke:#008400; stroke-width:0; stroke-opacity:1; 
stroke-linecap:round; stroke-linejoin:round;">
</g>
<g style="fill:#008400; fill-opacity:1.0; 
stroke:#008400; stroke-width:100; stroke-opacity:1; 
stroke-linecap:round; stroke-linejoin:round;">
<circle cx="69000" cy="21000" r="200" /> 
</g>
<g style="fill:#008400; fill-opacity:1.0; 
stroke:#008400; stroke-width:60; stroke-opacity:1; 
stroke-linecap:round; stroke-linejoin:round;">
<path d="M72500 28500
L72500 23500
" />
<path d="M72500 23500
L92000 23500
" />
</g>
<g style="fill:#008400; fill-opacity:1.0; 
stroke:#008400; stroke-width:0; stroke-opacity:1; 
stroke-linecap:round; stroke-linejoin:round;">
</g>
<g style="fill:#008400; fill-opacity:1.0; 
stroke:#008400; stroke-width:100; stroke-opacity:1; 
stroke-linecap:round; stroke-linejoin:round;">
<circle cx="72500" cy="28500" r="200" /> 
</g>
<g style="fill:#008400; fill-opacity:1.0; 
stroke:#008400; stroke-width:60; stroke-opacity:1; 
stroke-linecap:round; stroke-linejoin:round;">
<path d="M95000 24000
L100000 24000
" />
<path d="M100000 24000
L100000 11500
" />
<path d="M100000 11500
L69000 11500
" />
<path d="M69000 11500
L69000 14500
" />
</g>
<g style="fill:#008400; fill-opacity:1.0; 
stroke:#008400; stroke-width:0; stroke-opacity:1; 
stroke-linecap:round; stroke-linejoin:round;">
</g>
<g style="fill:#008400; fill-opacity:1.0; 
stroke:#008400; stroke-width:100; stroke-opacity:1; 
stroke-linecap:round; stroke-linejoin:round;">
<circle cx="69000" cy="14500" r="200" /> 
</g>
<g style="fill:#008400; fill-opacity:1.0; 
stroke:#008400; stroke-width:0; stroke-opacity:1; 
stroke-linecap:round; stroke-linejoin:round;">
</g>
<g style="fill:#840000; fill-opacity:1.0; 
stroke:#840000; stroke-width:60; stroke-opacity:1; 
stroke-linecap:round; stroke-linejoin:round;">
<path d="M89000 16000
L89000 16000
" />
</g>
<g style="fill:#840000; fill-opacity:0.0; 
stroke:#840000; stroke-width:60; stroke-opacity:1; 
stroke-linecap:round; stroke-linejoin:round;">
<polyline fill="none;"
points="89000,16000
89000,15500
88250,15000
89000,14500
89750,15000
89000,15500
" /> 
</g>
<g style="fill:#840000; fill-opacity:0.0; 
stroke:#840000; stroke-width:50; stroke-opacity:1; 
stroke-linecap:round; stroke-linejoin:round;">
<path d="M87960 14320
L87960 14020
L88080 14020
L88100 14030
L88120 14040
L88130 14070
L88130 14120
L88120 14140
L88100 14160
L88080 14170
L87960 14170
" />
<path d="M88230 14020
L88300 14320
L88360 14100
L88420 14320
L88490 14020
" />
<path d="M88770 14320
L88670 14170
" />
<path d="M88600 14320
L88600 14020
L88720 14020
L88740 14030
L88760 14040
L88770 14070
L88770 14120
L88760 14140
L88740 14160
L88720 14170
L88600 14170
" />
<path d="M88830 14340
L89060 14340
" />
<path d="M89230 14160
L89130 14160
" />
<path d="M89130 14320
L89130 14020
L89270 14020
" />
<path d="M89530 14320
L89390 14320
L89390 14020
" />
<path d="M89620 14230
L89760 14230
" />
<path d="M89590 14320
L89690 14020
L89790 14320
" />
<path d="M90050 14030
L90020 14020
L89980 14020
L89930 14030
L89910 14060
L89890 14090
L89880 14140
L89880 14190
L89890 14240
L89910 14270
L89930 14300
L89980 14320
L90010 14320
L90050 14300
L90060 14290
L90060 14190
L90010 14190
" />
</g> 
</svg>
