%FSLAX34Y34*%
G04 Gerber Fmt 3.4, Leading zero omitted, Abs format*
G04 (created by PCBNEW (2014-03-19 BZR 4756)-product) date Fri 26 Dec 2014 10:56:14 GMT*
%MOIN*%
G01*
G70*
G90*
G04 APERTURE LIST*
%ADD10C,0.005906*%
%ADD11C,0.007874*%
%ADD12C,0.012000*%
G04 APERTURE END LIST*
G54D10*
G54D11*
X83390Y-37600D02*
G75*
G03X83390Y-37600I-1990J0D01*
G74*
G01*
X45190Y-27750D02*
G75*
G03X45190Y-27750I-3540J0D01*
G74*
G01*
X52615Y-27750D02*
G75*
G03X52615Y-27750I-10965J0D01*
G74*
G01*
G54D10*
X52250Y-49750D02*
X52250Y-42250D01*
X52250Y-42250D02*
X42750Y-42250D01*
X42750Y-42250D02*
X42750Y-49750D01*
X42750Y-49750D02*
X52250Y-49750D01*
X55600Y-20950D02*
X55450Y-20850D01*
X54340Y-23050D02*
X54525Y-23130D01*
X55545Y-23100D02*
X55475Y-23130D01*
X54360Y-20955D02*
X54525Y-20885D01*
X53750Y-22000D02*
X53750Y-21800D01*
X53750Y-21800D02*
X53800Y-21600D01*
X53800Y-21600D02*
X53900Y-21400D01*
X53900Y-21400D02*
X54000Y-21250D01*
X54000Y-21250D02*
X54150Y-21100D01*
X54150Y-21100D02*
X54350Y-20950D01*
X54350Y-23050D02*
X54100Y-22900D01*
X54100Y-22900D02*
X53950Y-22650D01*
X53950Y-22650D02*
X53850Y-22500D01*
X53850Y-22500D02*
X53800Y-22300D01*
X53800Y-22300D02*
X53750Y-22100D01*
X53750Y-22100D02*
X53750Y-22000D01*
X55600Y-23050D02*
X55500Y-23100D01*
X55600Y-23050D02*
X55600Y-20950D01*
X68100Y-20950D02*
X67950Y-20850D01*
X66840Y-23050D02*
X67025Y-23130D01*
X68045Y-23100D02*
X67975Y-23130D01*
X66860Y-20955D02*
X67025Y-20885D01*
X66250Y-22000D02*
X66250Y-21800D01*
X66250Y-21800D02*
X66300Y-21600D01*
X66300Y-21600D02*
X66400Y-21400D01*
X66400Y-21400D02*
X66500Y-21250D01*
X66500Y-21250D02*
X66650Y-21100D01*
X66650Y-21100D02*
X66850Y-20950D01*
X66850Y-23050D02*
X66600Y-22900D01*
X66600Y-22900D02*
X66450Y-22650D01*
X66450Y-22650D02*
X66350Y-22500D01*
X66350Y-22500D02*
X66300Y-22300D01*
X66300Y-22300D02*
X66250Y-22100D01*
X66250Y-22100D02*
X66250Y-22000D01*
X68100Y-23050D02*
X68000Y-23100D01*
X68100Y-23050D02*
X68100Y-20950D01*
X65100Y-20950D02*
X64950Y-20850D01*
X63840Y-23050D02*
X64025Y-23130D01*
X65045Y-23100D02*
X64975Y-23130D01*
X63860Y-20955D02*
X64025Y-20885D01*
X63250Y-22000D02*
X63250Y-21800D01*
X63250Y-21800D02*
X63300Y-21600D01*
X63300Y-21600D02*
X63400Y-21400D01*
X63400Y-21400D02*
X63500Y-21250D01*
X63500Y-21250D02*
X63650Y-21100D01*
X63650Y-21100D02*
X63850Y-20950D01*
X63850Y-23050D02*
X63600Y-22900D01*
X63600Y-22900D02*
X63450Y-22650D01*
X63450Y-22650D02*
X63350Y-22500D01*
X63350Y-22500D02*
X63300Y-22300D01*
X63300Y-22300D02*
X63250Y-22100D01*
X63250Y-22100D02*
X63250Y-22000D01*
X65100Y-23050D02*
X65000Y-23100D01*
X65100Y-23050D02*
X65100Y-20950D01*
X59450Y-22400D02*
X59400Y-22500D01*
X61550Y-22400D02*
X61600Y-22500D01*
X61655Y-23510D02*
X61575Y-23655D01*
X61575Y-23655D02*
X61455Y-23845D01*
X61455Y-23845D02*
X61265Y-24045D01*
X61265Y-24045D02*
X61015Y-24200D01*
X61015Y-24200D02*
X60720Y-24300D01*
X60720Y-24300D02*
X60490Y-24320D01*
X60490Y-24320D02*
X60170Y-24275D01*
X60170Y-24275D02*
X59965Y-24200D01*
X59965Y-24200D02*
X59745Y-24045D01*
X59745Y-24045D02*
X59560Y-23865D01*
X59560Y-23865D02*
X59445Y-23695D01*
X59445Y-23695D02*
X59360Y-23525D01*
X61550Y-22400D02*
X59450Y-22400D01*
X73550Y-34900D02*
X73505Y-34975D01*
X74000Y-36600D02*
X73910Y-36555D01*
X73910Y-36555D02*
X73830Y-36500D01*
X73830Y-36500D02*
X73700Y-36410D01*
X73700Y-36410D02*
X73575Y-36265D01*
X73575Y-36265D02*
X73495Y-36165D01*
X73495Y-36165D02*
X73435Y-36060D01*
X73435Y-36060D02*
X73405Y-35990D01*
X75590Y-35990D02*
X75540Y-36090D01*
X75540Y-36090D02*
X75480Y-36195D01*
X75480Y-36195D02*
X75385Y-36320D01*
X75385Y-36320D02*
X75290Y-36410D01*
X75290Y-36410D02*
X75150Y-36515D01*
X75150Y-36515D02*
X75035Y-36580D01*
X75035Y-36580D02*
X74980Y-36600D01*
X74980Y-36600D02*
X74980Y-36605D01*
X75450Y-34900D02*
X75525Y-35025D01*
X74500Y-34900D02*
X73550Y-34900D01*
X74500Y-34900D02*
X75450Y-34900D01*
X81250Y-33500D02*
G75*
G03X81250Y-33500I-1250J0D01*
G74*
G01*
X79250Y-43500D02*
G75*
G03X79250Y-43500I-1250J0D01*
G74*
G01*
X73250Y-43500D02*
G75*
G03X73250Y-43500I-1250J0D01*
G74*
G01*
X34750Y-41500D02*
G75*
G03X34750Y-41500I-1250J0D01*
G74*
G01*
X76250Y-43500D02*
G75*
G03X76250Y-43500I-1250J0D01*
G74*
G01*
X39250Y-37000D02*
G75*
G03X39250Y-37000I-1250J0D01*
G74*
G01*
X56250Y-25500D02*
G75*
G03X56250Y-25500I-1250J0D01*
G74*
G01*
X68750Y-25500D02*
G75*
G03X68750Y-25500I-1250J0D01*
G74*
G01*
X76500Y-41000D02*
X76500Y-40700D01*
X76500Y-40700D02*
X76900Y-40700D01*
X76900Y-40700D02*
X76900Y-38300D01*
X76900Y-38300D02*
X76500Y-38300D01*
X76500Y-38300D02*
X76500Y-38000D01*
X76500Y-38300D02*
X76100Y-38300D01*
X76100Y-38300D02*
X76100Y-40700D01*
X76100Y-40700D02*
X76500Y-40700D01*
X76900Y-40500D02*
X76100Y-40500D01*
X76100Y-40400D02*
X76900Y-40400D01*
X77500Y-41000D02*
X77500Y-40700D01*
X77500Y-40700D02*
X77900Y-40700D01*
X77900Y-40700D02*
X77900Y-38300D01*
X77900Y-38300D02*
X77500Y-38300D01*
X77500Y-38300D02*
X77500Y-38000D01*
X77500Y-38300D02*
X77100Y-38300D01*
X77100Y-38300D02*
X77100Y-40700D01*
X77100Y-40700D02*
X77500Y-40700D01*
X77900Y-40500D02*
X77100Y-40500D01*
X77100Y-40400D02*
X77900Y-40400D01*
X72500Y-51500D02*
G75*
G03X72500Y-51500I-1000J0D01*
G74*
G01*
X70500Y-51750D02*
X70750Y-51750D01*
X70750Y-51750D02*
X70750Y-51250D01*
X70750Y-51250D02*
X70500Y-51250D01*
X79500Y-51500D02*
G75*
G03X79500Y-51500I-1000J0D01*
G74*
G01*
X77500Y-51750D02*
X77750Y-51750D01*
X77750Y-51750D02*
X77750Y-51250D01*
X77750Y-51250D02*
X77500Y-51250D01*
X58500Y-51500D02*
G75*
G03X58500Y-51500I-1000J0D01*
G74*
G01*
X56500Y-51750D02*
X56750Y-51750D01*
X56750Y-51750D02*
X56750Y-51250D01*
X56750Y-51250D02*
X56500Y-51250D01*
X60000Y-27500D02*
X60000Y-42500D01*
X60000Y-42500D02*
X58000Y-42500D01*
X58000Y-42500D02*
X58000Y-27500D01*
X58000Y-27500D02*
X60000Y-27500D01*
X59500Y-27500D02*
X59500Y-28000D01*
X59500Y-28000D02*
X58500Y-28000D01*
X58500Y-28000D02*
X58500Y-27500D01*
X71300Y-22250D02*
X71300Y-21850D01*
X71300Y-21850D02*
X70900Y-21850D01*
X70900Y-21850D02*
X70900Y-18650D01*
X70900Y-18650D02*
X71700Y-18650D01*
X71700Y-18650D02*
X71700Y-21850D01*
X71700Y-21850D02*
X71300Y-21850D01*
X71100Y-21850D02*
X70900Y-21650D01*
X71300Y-18250D02*
X71300Y-18650D01*
X77000Y-30500D02*
X77200Y-30500D01*
X80000Y-30500D02*
X79800Y-30500D01*
X79800Y-30500D02*
X79800Y-30100D01*
X79800Y-30100D02*
X77200Y-30100D01*
X77200Y-30100D02*
X77200Y-30900D01*
X77200Y-30900D02*
X79800Y-30900D01*
X79800Y-30900D02*
X79800Y-30500D01*
X77200Y-30300D02*
X77400Y-30100D01*
X49750Y-34500D02*
X49950Y-34500D01*
X52750Y-34500D02*
X52550Y-34500D01*
X52550Y-34500D02*
X52550Y-34100D01*
X52550Y-34100D02*
X49950Y-34100D01*
X49950Y-34100D02*
X49950Y-34900D01*
X49950Y-34900D02*
X52550Y-34900D01*
X52550Y-34900D02*
X52550Y-34500D01*
X49950Y-34300D02*
X50150Y-34100D01*
X77500Y-32000D02*
X77500Y-32200D01*
X77500Y-35000D02*
X77500Y-34800D01*
X77500Y-34800D02*
X77900Y-34800D01*
X77900Y-34800D02*
X77900Y-32200D01*
X77900Y-32200D02*
X77100Y-32200D01*
X77100Y-32200D02*
X77100Y-34800D01*
X77100Y-34800D02*
X77500Y-34800D01*
X77700Y-32200D02*
X77900Y-32400D01*
X78500Y-38000D02*
X78500Y-38200D01*
X78500Y-41000D02*
X78500Y-40800D01*
X78500Y-40800D02*
X78900Y-40800D01*
X78900Y-40800D02*
X78900Y-38200D01*
X78900Y-38200D02*
X78100Y-38200D01*
X78100Y-38200D02*
X78100Y-40800D01*
X78100Y-40800D02*
X78500Y-40800D01*
X78700Y-38200D02*
X78900Y-38400D01*
X35500Y-47000D02*
X35300Y-47000D01*
X32500Y-47000D02*
X32700Y-47000D01*
X32700Y-47000D02*
X32700Y-47400D01*
X32700Y-47400D02*
X35300Y-47400D01*
X35300Y-47400D02*
X35300Y-46600D01*
X35300Y-46600D02*
X32700Y-46600D01*
X32700Y-46600D02*
X32700Y-47000D01*
X35300Y-47200D02*
X35100Y-47400D01*
X73000Y-33000D02*
X73200Y-33000D01*
X76000Y-33000D02*
X75800Y-33000D01*
X75800Y-33000D02*
X75800Y-32600D01*
X75800Y-32600D02*
X73200Y-32600D01*
X73200Y-32600D02*
X73200Y-33400D01*
X73200Y-33400D02*
X75800Y-33400D01*
X75800Y-33400D02*
X75800Y-33000D01*
X73200Y-32800D02*
X73400Y-32600D01*
X74500Y-38000D02*
X74500Y-38200D01*
X74500Y-41000D02*
X74500Y-40800D01*
X74500Y-40800D02*
X74900Y-40800D01*
X74900Y-40800D02*
X74900Y-38200D01*
X74900Y-38200D02*
X74100Y-38200D01*
X74100Y-38200D02*
X74100Y-40800D01*
X74100Y-40800D02*
X74500Y-40800D01*
X74700Y-38200D02*
X74900Y-38400D01*
X66500Y-51500D02*
X66700Y-51500D01*
X69500Y-51500D02*
X69300Y-51500D01*
X69300Y-51500D02*
X69300Y-51100D01*
X69300Y-51100D02*
X66700Y-51100D01*
X66700Y-51100D02*
X66700Y-51900D01*
X66700Y-51900D02*
X69300Y-51900D01*
X69300Y-51900D02*
X69300Y-51500D01*
X66700Y-51300D02*
X66900Y-51100D01*
X75500Y-41000D02*
X75500Y-40800D01*
X75500Y-38000D02*
X75500Y-38200D01*
X75500Y-38200D02*
X75100Y-38200D01*
X75100Y-38200D02*
X75100Y-40800D01*
X75100Y-40800D02*
X75900Y-40800D01*
X75900Y-40800D02*
X75900Y-38200D01*
X75900Y-38200D02*
X75500Y-38200D01*
X75300Y-40800D02*
X75100Y-40600D01*
X39500Y-40000D02*
X39300Y-40000D01*
X36500Y-40000D02*
X36700Y-40000D01*
X36700Y-40000D02*
X36700Y-40400D01*
X36700Y-40400D02*
X39300Y-40400D01*
X39300Y-40400D02*
X39300Y-39600D01*
X39300Y-39600D02*
X36700Y-39600D01*
X36700Y-39600D02*
X36700Y-40000D01*
X39300Y-40200D02*
X39100Y-40400D01*
X71500Y-38000D02*
X71500Y-38200D01*
X71500Y-41000D02*
X71500Y-40800D01*
X71500Y-40800D02*
X71900Y-40800D01*
X71900Y-40800D02*
X71900Y-38200D01*
X71900Y-38200D02*
X71100Y-38200D01*
X71100Y-38200D02*
X71100Y-40800D01*
X71100Y-40800D02*
X71500Y-40800D01*
X71700Y-38200D02*
X71900Y-38400D01*
X39500Y-46000D02*
X39300Y-46000D01*
X36500Y-46000D02*
X36700Y-46000D01*
X36700Y-46000D02*
X36700Y-46400D01*
X36700Y-46400D02*
X39300Y-46400D01*
X39300Y-46400D02*
X39300Y-45600D01*
X39300Y-45600D02*
X36700Y-45600D01*
X36700Y-45600D02*
X36700Y-46000D01*
X39300Y-46200D02*
X39100Y-46400D01*
X69500Y-34000D02*
X69700Y-34000D01*
X72500Y-34000D02*
X72300Y-34000D01*
X72300Y-34000D02*
X72300Y-33600D01*
X72300Y-33600D02*
X69700Y-33600D01*
X69700Y-33600D02*
X69700Y-34400D01*
X69700Y-34400D02*
X72300Y-34400D01*
X72300Y-34400D02*
X72300Y-34000D01*
X69700Y-33800D02*
X69900Y-33600D01*
X69500Y-35000D02*
X69700Y-35000D01*
X72500Y-35000D02*
X72300Y-35000D01*
X72300Y-35000D02*
X72300Y-34600D01*
X72300Y-34600D02*
X69700Y-34600D01*
X69700Y-34600D02*
X69700Y-35400D01*
X69700Y-35400D02*
X72300Y-35400D01*
X72300Y-35400D02*
X72300Y-35000D01*
X69700Y-34800D02*
X69900Y-34600D01*
X77000Y-29500D02*
X77200Y-29500D01*
X80000Y-29500D02*
X79800Y-29500D01*
X79800Y-29500D02*
X79800Y-29100D01*
X79800Y-29100D02*
X77200Y-29100D01*
X77200Y-29100D02*
X77200Y-29900D01*
X77200Y-29900D02*
X79800Y-29900D01*
X79800Y-29900D02*
X79800Y-29500D01*
X77200Y-29300D02*
X77400Y-29100D01*
X77000Y-28500D02*
X77200Y-28500D01*
X80000Y-28500D02*
X79800Y-28500D01*
X79800Y-28500D02*
X79800Y-28100D01*
X79800Y-28100D02*
X77200Y-28100D01*
X77200Y-28100D02*
X77200Y-28900D01*
X77200Y-28900D02*
X79800Y-28900D01*
X79800Y-28900D02*
X79800Y-28500D01*
X77200Y-28300D02*
X77400Y-28100D01*
X77000Y-24000D02*
X77000Y-24200D01*
X77000Y-27000D02*
X77000Y-26800D01*
X77000Y-26800D02*
X77400Y-26800D01*
X77400Y-26800D02*
X77400Y-24200D01*
X77400Y-24200D02*
X76600Y-24200D01*
X76600Y-24200D02*
X76600Y-26800D01*
X76600Y-26800D02*
X77000Y-26800D01*
X77200Y-24200D02*
X77400Y-24400D01*
X74000Y-27000D02*
X74000Y-26800D01*
X74000Y-24000D02*
X74000Y-24200D01*
X74000Y-24200D02*
X73600Y-24200D01*
X73600Y-24200D02*
X73600Y-26800D01*
X73600Y-26800D02*
X74400Y-26800D01*
X74400Y-26800D02*
X74400Y-24200D01*
X74400Y-24200D02*
X74000Y-24200D01*
X73800Y-26800D02*
X73600Y-26600D01*
X59000Y-21500D02*
X59200Y-21500D01*
X62000Y-21500D02*
X61800Y-21500D01*
X61800Y-21500D02*
X61800Y-21100D01*
X61800Y-21100D02*
X59200Y-21100D01*
X59200Y-21100D02*
X59200Y-21900D01*
X59200Y-21900D02*
X61800Y-21900D01*
X61800Y-21900D02*
X61800Y-21500D01*
X59200Y-21300D02*
X59400Y-21100D01*
X55000Y-28500D02*
X55000Y-28700D01*
X55000Y-31500D02*
X55000Y-31300D01*
X55000Y-31300D02*
X55400Y-31300D01*
X55400Y-31300D02*
X55400Y-28700D01*
X55400Y-28700D02*
X54600Y-28700D01*
X54600Y-28700D02*
X54600Y-31300D01*
X54600Y-31300D02*
X55000Y-31300D01*
X55200Y-28700D02*
X55400Y-28900D01*
X73500Y-51500D02*
X73700Y-51500D01*
X76500Y-51500D02*
X76300Y-51500D01*
X76300Y-51500D02*
X76300Y-51100D01*
X76300Y-51100D02*
X73700Y-51100D01*
X73700Y-51100D02*
X73700Y-51900D01*
X73700Y-51900D02*
X76300Y-51900D01*
X76300Y-51900D02*
X76300Y-51500D01*
X73700Y-51300D02*
X73900Y-51100D01*
X80500Y-51500D02*
X80700Y-51500D01*
X83500Y-51500D02*
X83300Y-51500D01*
X83300Y-51500D02*
X83300Y-51100D01*
X83300Y-51100D02*
X80700Y-51100D01*
X80700Y-51100D02*
X80700Y-51900D01*
X80700Y-51900D02*
X83300Y-51900D01*
X83300Y-51900D02*
X83300Y-51500D01*
X80700Y-51300D02*
X80900Y-51100D01*
X59500Y-51500D02*
X59700Y-51500D01*
X62500Y-51500D02*
X62300Y-51500D01*
X62300Y-51500D02*
X62300Y-51100D01*
X62300Y-51100D02*
X59700Y-51100D01*
X59700Y-51100D02*
X59700Y-51900D01*
X59700Y-51900D02*
X62300Y-51900D01*
X62300Y-51900D02*
X62300Y-51500D01*
X59700Y-51300D02*
X59900Y-51100D01*
X73302Y-55500D02*
G75*
G03X73302Y-55500I-1802J0D01*
G74*
G01*
X69000Y-53000D02*
X74000Y-53000D01*
X74000Y-53000D02*
X74000Y-58000D01*
X74000Y-58000D02*
X69000Y-58000D01*
X69000Y-58000D02*
X69000Y-53000D01*
X80302Y-55500D02*
G75*
G03X80302Y-55500I-1802J0D01*
G74*
G01*
X76000Y-53000D02*
X81000Y-53000D01*
X81000Y-53000D02*
X81000Y-58000D01*
X81000Y-58000D02*
X76000Y-58000D01*
X76000Y-58000D02*
X76000Y-53000D01*
X59302Y-55500D02*
G75*
G03X59302Y-55500I-1802J0D01*
G74*
G01*
X55000Y-53000D02*
X60000Y-53000D01*
X60000Y-53000D02*
X60000Y-58000D01*
X60000Y-58000D02*
X55000Y-58000D01*
X55000Y-58000D02*
X55000Y-53000D01*
X38500Y-41000D02*
X38500Y-41500D01*
X38500Y-41500D02*
X37500Y-41500D01*
X37500Y-41500D02*
X37500Y-41000D01*
X39000Y-41000D02*
X39000Y-45000D01*
X39000Y-45000D02*
X37000Y-45000D01*
X37000Y-45000D02*
X37000Y-41000D01*
X37000Y-41000D02*
X39000Y-41000D01*
X70500Y-29500D02*
X71000Y-29500D01*
X71000Y-29500D02*
X71000Y-30500D01*
X71000Y-30500D02*
X70500Y-30500D01*
X70500Y-29000D02*
X74500Y-29000D01*
X74500Y-29000D02*
X74500Y-31000D01*
X74500Y-31000D02*
X70500Y-31000D01*
X70500Y-31000D02*
X70500Y-29000D01*
X54894Y-39850D02*
X54736Y-39929D01*
X54736Y-39929D02*
X54500Y-39969D01*
X54500Y-39969D02*
X54303Y-39929D01*
X54303Y-39929D02*
X54028Y-39772D01*
X54028Y-39772D02*
X53870Y-39535D01*
X53870Y-39535D02*
X53791Y-39299D01*
X53791Y-39299D02*
X53791Y-36701D01*
X53791Y-36701D02*
X53870Y-36425D01*
X53870Y-36425D02*
X53988Y-36268D01*
X53988Y-36268D02*
X54185Y-36110D01*
X54185Y-36110D02*
X54421Y-36031D01*
X54421Y-36031D02*
X54618Y-36031D01*
X54618Y-36031D02*
X54815Y-36110D01*
X54815Y-36110D02*
X55051Y-36307D01*
X55051Y-36307D02*
X55169Y-36504D01*
X55169Y-36504D02*
X55209Y-36701D01*
X55209Y-36740D02*
X55209Y-39339D01*
X55209Y-39339D02*
X55169Y-39496D01*
X55169Y-39496D02*
X55051Y-39693D01*
X55051Y-39693D02*
X54854Y-39890D01*
X55417Y-36744D02*
X55398Y-36563D01*
X55398Y-36563D02*
X55354Y-36406D01*
X55354Y-36406D02*
X55268Y-36236D01*
X55268Y-36236D02*
X55177Y-36122D01*
X55177Y-36122D02*
X55039Y-35992D01*
X55039Y-35992D02*
X54827Y-35878D01*
X54827Y-35878D02*
X54591Y-35827D01*
X54591Y-35827D02*
X54390Y-35827D01*
X54390Y-35827D02*
X54114Y-35894D01*
X54114Y-35894D02*
X53882Y-36051D01*
X53882Y-36051D02*
X53736Y-36232D01*
X53736Y-36232D02*
X53654Y-36398D01*
X53654Y-36398D02*
X53591Y-36575D01*
X53591Y-36575D02*
X53579Y-36748D01*
X53665Y-39638D02*
X53752Y-39787D01*
X53752Y-39787D02*
X53862Y-39913D01*
X53862Y-39913D02*
X53992Y-40012D01*
X53992Y-40012D02*
X54209Y-40130D01*
X54209Y-40130D02*
X54394Y-40173D01*
X54394Y-40173D02*
X54575Y-40181D01*
X54575Y-40181D02*
X54756Y-40146D01*
X54756Y-40146D02*
X54933Y-40071D01*
X54933Y-40071D02*
X55118Y-39929D01*
X55118Y-39929D02*
X55244Y-39791D01*
X55244Y-39791D02*
X55335Y-39638D01*
X55335Y-39638D02*
X55390Y-39469D01*
X55390Y-39469D02*
X55417Y-39295D01*
X53583Y-36740D02*
X53583Y-39280D01*
X53583Y-39280D02*
X53598Y-39445D01*
X53598Y-39445D02*
X53665Y-39638D01*
X55417Y-36740D02*
X55417Y-39280D01*
X65500Y-51500D02*
G75*
G03X65500Y-51500I-1000J0D01*
G74*
G01*
X63500Y-51750D02*
X63750Y-51750D01*
X63750Y-51750D02*
X63750Y-51250D01*
X63750Y-51250D02*
X63500Y-51250D01*
X81400Y-38150D02*
X81400Y-39150D01*
X82400Y-38150D02*
X82400Y-39150D01*
X82400Y-39150D02*
X81400Y-39150D01*
X81400Y-39150D02*
X80400Y-39150D01*
X80400Y-39150D02*
X80400Y-38150D01*
X80400Y-38150D02*
X82400Y-38150D01*
X38000Y-32000D02*
X38000Y-33000D01*
X39000Y-32000D02*
X39000Y-33000D01*
X39000Y-33000D02*
X38000Y-33000D01*
X38000Y-33000D02*
X37000Y-33000D01*
X37000Y-33000D02*
X37000Y-32000D01*
X37000Y-32000D02*
X39000Y-32000D01*
X83000Y-22500D02*
X82000Y-22500D01*
X83000Y-23500D02*
X82000Y-23500D01*
X82000Y-23500D02*
X82000Y-22500D01*
X82000Y-22500D02*
X82000Y-21500D01*
X82000Y-21500D02*
X83000Y-21500D01*
X83000Y-21500D02*
X83000Y-23500D01*
X64500Y-38000D02*
X64500Y-39000D01*
X64500Y-39000D02*
X65500Y-39000D01*
X65500Y-38000D02*
X65500Y-41000D01*
X65500Y-41000D02*
X63500Y-41000D01*
X63500Y-41000D02*
X63500Y-39000D01*
X65500Y-38000D02*
X64500Y-38000D01*
X63500Y-38000D02*
X64500Y-38000D01*
X63500Y-39000D02*
X63500Y-38000D01*
X66302Y-55500D02*
G75*
G03X66302Y-55500I-1802J0D01*
G74*
G01*
X62000Y-53000D02*
X67000Y-53000D01*
X67000Y-53000D02*
X67000Y-58000D01*
X67000Y-58000D02*
X62000Y-58000D01*
X62000Y-58000D02*
X62000Y-53000D01*
X49150Y-34900D02*
X46350Y-34900D01*
X46350Y-34900D02*
X46350Y-34100D01*
X46350Y-34100D02*
X49150Y-34100D01*
X49150Y-34100D02*
X49150Y-34900D01*
X49150Y-34700D02*
X48950Y-34900D01*
X36600Y-47600D02*
X39400Y-47600D01*
X39400Y-47600D02*
X39400Y-48400D01*
X39400Y-48400D02*
X36600Y-48400D01*
X36600Y-48400D02*
X36600Y-47600D01*
X36600Y-47800D02*
X36800Y-47600D01*
X35400Y-48400D02*
X32600Y-48400D01*
X32600Y-48400D02*
X32600Y-47600D01*
X32600Y-47600D02*
X35400Y-47600D01*
X35400Y-47600D02*
X35400Y-48400D01*
X35400Y-48200D02*
X35200Y-48400D01*
X41800Y-40000D02*
X42200Y-40000D01*
X42000Y-40200D02*
X42000Y-39800D01*
X45000Y-39000D02*
G75*
G03X45000Y-39000I-2000J0D01*
G74*
G01*
X36600Y-46600D02*
X39400Y-46600D01*
X39400Y-46600D02*
X39400Y-47400D01*
X39400Y-47400D02*
X36600Y-47400D01*
X36600Y-47400D02*
X36600Y-46600D01*
X36600Y-46800D02*
X36800Y-46600D01*
X69100Y-31400D02*
X69100Y-28600D01*
X69100Y-28600D02*
X69900Y-28600D01*
X69900Y-28600D02*
X69900Y-31400D01*
X69900Y-31400D02*
X69100Y-31400D01*
X69300Y-31400D02*
X69100Y-31200D01*
X69600Y-32600D02*
X72400Y-32600D01*
X72400Y-32600D02*
X72400Y-33400D01*
X72400Y-33400D02*
X69600Y-33400D01*
X69600Y-33400D02*
X69600Y-32600D01*
X69600Y-32800D02*
X69800Y-32600D01*
X75900Y-28600D02*
X75900Y-31400D01*
X75900Y-31400D02*
X75100Y-31400D01*
X75100Y-31400D02*
X75100Y-28600D01*
X75100Y-28600D02*
X75900Y-28600D01*
X75700Y-28600D02*
X75900Y-28800D01*
X72100Y-26900D02*
X72100Y-24100D01*
X72100Y-24100D02*
X72900Y-24100D01*
X72900Y-24100D02*
X72900Y-26900D01*
X72900Y-26900D02*
X72100Y-26900D01*
X72300Y-26900D02*
X72100Y-26700D01*
X75900Y-24100D02*
X75900Y-26900D01*
X75900Y-26900D02*
X75100Y-26900D01*
X75100Y-26900D02*
X75100Y-24100D01*
X75100Y-24100D02*
X75900Y-24100D01*
X75700Y-24100D02*
X75900Y-24300D01*
X57400Y-20600D02*
X57400Y-23400D01*
X57400Y-23400D02*
X56600Y-23400D01*
X56600Y-23400D02*
X56600Y-20600D01*
X56600Y-20600D02*
X57400Y-20600D01*
X57200Y-20600D02*
X57400Y-20800D01*
X69900Y-20600D02*
X69900Y-23400D01*
X69900Y-23400D02*
X69100Y-23400D01*
X69100Y-23400D02*
X69100Y-20600D01*
X69100Y-20600D02*
X69900Y-20600D01*
X69700Y-20600D02*
X69900Y-20800D01*
X56900Y-34900D02*
X54100Y-34900D01*
X54100Y-34900D02*
X54100Y-34100D01*
X54100Y-34100D02*
X56900Y-34100D01*
X56900Y-34100D02*
X56900Y-34900D01*
X56900Y-34700D02*
X56700Y-34900D01*
X61600Y-36100D02*
X64400Y-36100D01*
X64400Y-36100D02*
X64400Y-36900D01*
X64400Y-36900D02*
X61600Y-36900D01*
X61600Y-36900D02*
X61600Y-36100D01*
X61600Y-36300D02*
X61800Y-36100D01*
X61600Y-35100D02*
X64400Y-35100D01*
X64400Y-35100D02*
X64400Y-35900D01*
X64400Y-35900D02*
X61600Y-35900D01*
X61600Y-35900D02*
X61600Y-35100D01*
X61600Y-35300D02*
X61800Y-35100D01*
X52980Y-37500D02*
X51000Y-37500D01*
X51000Y-37500D02*
X51000Y-36500D01*
X51000Y-36500D02*
X53000Y-36500D01*
X53000Y-36500D02*
X53000Y-37500D01*
X53000Y-37250D02*
X52750Y-37500D01*
X52980Y-39500D02*
X51000Y-39500D01*
X51000Y-39500D02*
X51000Y-38500D01*
X51000Y-38500D02*
X53000Y-38500D01*
X53000Y-38500D02*
X53000Y-39500D01*
X53000Y-39250D02*
X52750Y-39500D01*
X51500Y-51500D02*
G75*
G03X51500Y-51500I-1000J0D01*
G74*
G01*
X49500Y-51750D02*
X49750Y-51750D01*
X49750Y-51750D02*
X49750Y-51250D01*
X49750Y-51250D02*
X49500Y-51250D01*
X44500Y-51500D02*
G75*
G03X44500Y-51500I-1000J0D01*
G74*
G01*
X42500Y-51750D02*
X42750Y-51750D01*
X42750Y-51750D02*
X42750Y-51250D01*
X42750Y-51250D02*
X42500Y-51250D01*
X37500Y-51500D02*
G75*
G03X37500Y-51500I-1000J0D01*
G74*
G01*
X35500Y-51750D02*
X35750Y-51750D01*
X35750Y-51750D02*
X35750Y-51250D01*
X35750Y-51250D02*
X35500Y-51250D01*
X52500Y-51500D02*
X52700Y-51500D01*
X55500Y-51500D02*
X55300Y-51500D01*
X55300Y-51500D02*
X55300Y-51100D01*
X55300Y-51100D02*
X52700Y-51100D01*
X52700Y-51100D02*
X52700Y-51900D01*
X52700Y-51900D02*
X55300Y-51900D01*
X55300Y-51900D02*
X55300Y-51500D01*
X52700Y-51300D02*
X52900Y-51100D01*
X45500Y-51500D02*
X45700Y-51500D01*
X48500Y-51500D02*
X48300Y-51500D01*
X48300Y-51500D02*
X48300Y-51100D01*
X48300Y-51100D02*
X45700Y-51100D01*
X45700Y-51100D02*
X45700Y-51900D01*
X45700Y-51900D02*
X48300Y-51900D01*
X48300Y-51900D02*
X48300Y-51500D01*
X45700Y-51300D02*
X45900Y-51100D01*
X38500Y-51500D02*
X38700Y-51500D01*
X41500Y-51500D02*
X41300Y-51500D01*
X41300Y-51500D02*
X41300Y-51100D01*
X41300Y-51100D02*
X38700Y-51100D01*
X38700Y-51100D02*
X38700Y-51900D01*
X38700Y-51900D02*
X41300Y-51900D01*
X41300Y-51900D02*
X41300Y-51500D01*
X38700Y-51300D02*
X38900Y-51100D01*
X52302Y-55500D02*
G75*
G03X52302Y-55500I-1802J0D01*
G74*
G01*
X48000Y-53000D02*
X53000Y-53000D01*
X53000Y-53000D02*
X53000Y-58000D01*
X53000Y-58000D02*
X48000Y-58000D01*
X48000Y-58000D02*
X48000Y-53000D01*
X45302Y-55500D02*
G75*
G03X45302Y-55500I-1802J0D01*
G74*
G01*
X41000Y-53000D02*
X46000Y-53000D01*
X46000Y-53000D02*
X46000Y-58000D01*
X46000Y-58000D02*
X41000Y-58000D01*
X41000Y-58000D02*
X41000Y-53000D01*
X38302Y-55500D02*
G75*
G03X38302Y-55500I-1802J0D01*
G74*
G01*
X34000Y-53000D02*
X39000Y-53000D01*
X39000Y-53000D02*
X39000Y-58000D01*
X39000Y-58000D02*
X34000Y-58000D01*
X34000Y-58000D02*
X34000Y-53000D01*
X48000Y-24500D02*
X48000Y-33500D01*
X48000Y-33500D02*
X52000Y-33500D01*
X52000Y-33500D02*
X52000Y-24500D01*
X52000Y-24500D02*
X48000Y-24500D01*
X50500Y-25000D02*
X50500Y-33000D01*
X50500Y-33000D02*
X49500Y-33000D01*
X49500Y-33000D02*
X49500Y-25000D01*
X49500Y-25000D02*
X50500Y-25000D01*
X53350Y-46000D02*
X53750Y-46000D01*
X58350Y-46000D02*
X57950Y-46000D01*
X57950Y-45500D02*
X57950Y-46500D01*
X57950Y-46500D02*
X53750Y-46500D01*
X53750Y-46500D02*
X53750Y-45500D01*
X53750Y-45500D02*
X57950Y-45500D01*
X53750Y-45700D02*
X53950Y-45500D01*
X53350Y-45000D02*
X53750Y-45000D01*
X58350Y-45000D02*
X57950Y-45000D01*
X57950Y-44500D02*
X57950Y-45500D01*
X57950Y-45500D02*
X53750Y-45500D01*
X53750Y-45500D02*
X53750Y-44500D01*
X53750Y-44500D02*
X57950Y-44500D01*
X53750Y-44700D02*
X53950Y-44500D01*
X53350Y-47000D02*
X53750Y-47000D01*
X58350Y-47000D02*
X57950Y-47000D01*
X57950Y-46500D02*
X57950Y-47500D01*
X57950Y-47500D02*
X53750Y-47500D01*
X53750Y-47500D02*
X53750Y-46500D01*
X53750Y-46500D02*
X57950Y-46500D01*
X53750Y-46700D02*
X53950Y-46500D01*
X50733Y-49299D02*
X51051Y-49299D01*
X51089Y-49281D01*
X51108Y-49262D01*
X51126Y-49224D01*
X51126Y-49149D01*
X51108Y-49112D01*
X51089Y-49093D01*
X51051Y-49074D01*
X50733Y-49074D01*
X50733Y-48700D02*
X50733Y-48887D01*
X50920Y-48906D01*
X50901Y-48887D01*
X50883Y-48850D01*
X50883Y-48756D01*
X50901Y-48718D01*
X50920Y-48700D01*
X50958Y-48681D01*
X51051Y-48681D01*
X51089Y-48700D01*
X51108Y-48718D01*
X51126Y-48756D01*
X51126Y-48850D01*
X51108Y-48887D01*
X51089Y-48906D01*
X51678Y-49843D02*
X51490Y-49974D01*
X51678Y-50068D02*
X51284Y-50068D01*
X51284Y-49918D01*
X51303Y-49881D01*
X51321Y-49862D01*
X51359Y-49843D01*
X51415Y-49843D01*
X51453Y-49862D01*
X51471Y-49881D01*
X51490Y-49918D01*
X51490Y-50068D01*
X51471Y-49543D02*
X51471Y-49674D01*
X51678Y-49674D02*
X51284Y-49674D01*
X51284Y-49487D01*
X51678Y-49337D02*
X51284Y-49337D01*
X51565Y-49206D01*
X51284Y-49074D01*
X51678Y-49074D01*
X51678Y-48681D02*
X51678Y-48906D01*
X51678Y-48793D02*
X51284Y-48793D01*
X51340Y-48831D01*
X51378Y-48868D01*
X51396Y-48906D01*
X51321Y-48531D02*
X51303Y-48512D01*
X51284Y-48475D01*
X51284Y-48381D01*
X51303Y-48343D01*
X51321Y-48325D01*
X51359Y-48306D01*
X51396Y-48306D01*
X51453Y-48325D01*
X51678Y-48550D01*
X51678Y-48306D01*
X51471Y-48006D02*
X51490Y-47950D01*
X51509Y-47931D01*
X51546Y-47912D01*
X51603Y-47912D01*
X51640Y-47931D01*
X51659Y-47950D01*
X51678Y-47987D01*
X51678Y-48137D01*
X51284Y-48137D01*
X51284Y-48006D01*
X51303Y-47968D01*
X51321Y-47950D01*
X51359Y-47931D01*
X51396Y-47931D01*
X51434Y-47950D01*
X51453Y-47968D01*
X51471Y-48006D01*
X51471Y-48137D01*
X53425Y-23909D02*
X53425Y-24228D01*
X53443Y-24265D01*
X53462Y-24284D01*
X53500Y-24303D01*
X53575Y-24303D01*
X53612Y-24284D01*
X53631Y-24265D01*
X53650Y-24228D01*
X53650Y-23909D01*
X53799Y-23909D02*
X54043Y-23909D01*
X53912Y-24059D01*
X53968Y-24059D01*
X54006Y-24078D01*
X54024Y-24096D01*
X54043Y-24134D01*
X54043Y-24228D01*
X54024Y-24265D01*
X54006Y-24284D01*
X53968Y-24303D01*
X53856Y-24303D01*
X53818Y-24284D01*
X53799Y-24265D01*
X53550Y-20053D02*
X53362Y-20053D01*
X53362Y-19659D01*
X53681Y-20053D02*
X53681Y-19659D01*
X53775Y-19659D01*
X53831Y-19678D01*
X53868Y-19715D01*
X53887Y-19753D01*
X53906Y-19828D01*
X53906Y-19884D01*
X53887Y-19959D01*
X53868Y-19996D01*
X53831Y-20034D01*
X53775Y-20053D01*
X53681Y-20053D01*
X54281Y-20053D02*
X54056Y-20053D01*
X54168Y-20053D02*
X54168Y-19659D01*
X54131Y-19715D01*
X54093Y-19753D01*
X54056Y-19771D01*
X54656Y-20053D02*
X54431Y-20053D01*
X54543Y-20053D02*
X54543Y-19659D01*
X54506Y-19715D01*
X54468Y-19753D01*
X54431Y-19771D01*
X55031Y-20053D02*
X54806Y-20053D01*
X54918Y-20053D02*
X54918Y-19659D01*
X54881Y-19715D01*
X54843Y-19753D01*
X54806Y-19771D01*
X55162Y-19659D02*
X55424Y-19659D01*
X55256Y-20053D01*
X55537Y-19659D02*
X55781Y-19659D01*
X55649Y-19809D01*
X55706Y-19809D01*
X55743Y-19828D01*
X55762Y-19846D01*
X55781Y-19884D01*
X55781Y-19978D01*
X55762Y-20015D01*
X55743Y-20034D01*
X55706Y-20053D01*
X55593Y-20053D01*
X55556Y-20034D01*
X55537Y-20015D01*
X55912Y-19659D02*
X56156Y-19659D01*
X56024Y-19809D01*
X56081Y-19809D01*
X56118Y-19828D01*
X56137Y-19846D01*
X56156Y-19884D01*
X56156Y-19978D01*
X56137Y-20015D01*
X56118Y-20034D01*
X56081Y-20053D01*
X55968Y-20053D01*
X55931Y-20034D01*
X55912Y-20015D01*
X65925Y-23909D02*
X65925Y-24228D01*
X65943Y-24265D01*
X65962Y-24284D01*
X66000Y-24303D01*
X66075Y-24303D01*
X66112Y-24284D01*
X66131Y-24265D01*
X66150Y-24228D01*
X66150Y-23909D01*
X66506Y-24040D02*
X66506Y-24303D01*
X66412Y-23890D02*
X66318Y-24171D01*
X66562Y-24171D01*
X66050Y-20053D02*
X65862Y-20053D01*
X65862Y-19659D01*
X66181Y-20053D02*
X66181Y-19659D01*
X66275Y-19659D01*
X66331Y-19678D01*
X66368Y-19715D01*
X66387Y-19753D01*
X66406Y-19828D01*
X66406Y-19884D01*
X66387Y-19959D01*
X66368Y-19996D01*
X66331Y-20034D01*
X66275Y-20053D01*
X66181Y-20053D01*
X66781Y-20053D02*
X66556Y-20053D01*
X66668Y-20053D02*
X66668Y-19659D01*
X66631Y-19715D01*
X66593Y-19753D01*
X66556Y-19771D01*
X67156Y-20053D02*
X66931Y-20053D01*
X67043Y-20053D02*
X67043Y-19659D01*
X67006Y-19715D01*
X66968Y-19753D01*
X66931Y-19771D01*
X67531Y-20053D02*
X67306Y-20053D01*
X67418Y-20053D02*
X67418Y-19659D01*
X67381Y-19715D01*
X67343Y-19753D01*
X67306Y-19771D01*
X67662Y-19659D02*
X67924Y-19659D01*
X67756Y-20053D01*
X68037Y-19659D02*
X68281Y-19659D01*
X68149Y-19809D01*
X68206Y-19809D01*
X68243Y-19828D01*
X68262Y-19846D01*
X68281Y-19884D01*
X68281Y-19978D01*
X68262Y-20015D01*
X68243Y-20034D01*
X68206Y-20053D01*
X68093Y-20053D01*
X68056Y-20034D01*
X68037Y-20015D01*
X68412Y-19659D02*
X68656Y-19659D01*
X68524Y-19809D01*
X68581Y-19809D01*
X68618Y-19828D01*
X68637Y-19846D01*
X68656Y-19884D01*
X68656Y-19978D01*
X68637Y-20015D01*
X68618Y-20034D01*
X68581Y-20053D01*
X68468Y-20053D01*
X68431Y-20034D01*
X68412Y-20015D01*
X63187Y-24340D02*
X63150Y-24321D01*
X63112Y-24284D01*
X63056Y-24228D01*
X63018Y-24209D01*
X62981Y-24209D01*
X63000Y-24303D02*
X62962Y-24284D01*
X62925Y-24246D01*
X62906Y-24171D01*
X62906Y-24040D01*
X62925Y-23965D01*
X62962Y-23928D01*
X63000Y-23909D01*
X63075Y-23909D01*
X63112Y-23928D01*
X63150Y-23965D01*
X63168Y-24040D01*
X63168Y-24171D01*
X63150Y-24246D01*
X63112Y-24284D01*
X63075Y-24303D01*
X63000Y-24303D01*
X63318Y-23946D02*
X63337Y-23928D01*
X63374Y-23909D01*
X63468Y-23909D01*
X63506Y-23928D01*
X63524Y-23946D01*
X63543Y-23984D01*
X63543Y-24021D01*
X63524Y-24078D01*
X63299Y-24303D01*
X63543Y-24303D01*
X63378Y-20053D02*
X63378Y-19659D01*
X63509Y-19940D01*
X63640Y-19659D01*
X63640Y-20053D01*
X63903Y-19659D02*
X63978Y-19659D01*
X64015Y-19678D01*
X64053Y-19715D01*
X64071Y-19790D01*
X64071Y-19921D01*
X64053Y-19996D01*
X64015Y-20034D01*
X63978Y-20053D01*
X63903Y-20053D01*
X63865Y-20034D01*
X63828Y-19996D01*
X63809Y-19921D01*
X63809Y-19790D01*
X63828Y-19715D01*
X63865Y-19678D01*
X63903Y-19659D01*
X64221Y-20034D02*
X64278Y-20053D01*
X64371Y-20053D01*
X64409Y-20034D01*
X64428Y-20015D01*
X64446Y-19978D01*
X64446Y-19940D01*
X64428Y-19903D01*
X64409Y-19884D01*
X64371Y-19865D01*
X64296Y-19846D01*
X64259Y-19828D01*
X64240Y-19809D01*
X64221Y-19771D01*
X64221Y-19734D01*
X64240Y-19696D01*
X64259Y-19678D01*
X64296Y-19659D01*
X64390Y-19659D01*
X64446Y-19678D01*
X64521Y-20090D02*
X64821Y-20090D01*
X64915Y-20053D02*
X64915Y-19659D01*
X65065Y-19659D01*
X65103Y-19678D01*
X65121Y-19696D01*
X65140Y-19734D01*
X65140Y-19790D01*
X65121Y-19828D01*
X65103Y-19846D01*
X65065Y-19865D01*
X64915Y-19865D01*
X63635Y-22472D02*
X63616Y-22509D01*
X63579Y-22547D01*
X63523Y-22603D01*
X63504Y-22641D01*
X63504Y-22678D01*
X63598Y-22659D02*
X63579Y-22697D01*
X63541Y-22734D01*
X63466Y-22753D01*
X63335Y-22753D01*
X63260Y-22734D01*
X63223Y-22697D01*
X63204Y-22659D01*
X63204Y-22584D01*
X63223Y-22547D01*
X63260Y-22509D01*
X63335Y-22491D01*
X63466Y-22491D01*
X63541Y-22509D01*
X63579Y-22547D01*
X63598Y-22584D01*
X63598Y-22659D01*
X63204Y-22360D02*
X63204Y-22116D01*
X63354Y-22247D01*
X63354Y-22191D01*
X63373Y-22153D01*
X63391Y-22135D01*
X63429Y-22116D01*
X63523Y-22116D01*
X63560Y-22135D01*
X63579Y-22153D01*
X63598Y-22191D01*
X63598Y-22303D01*
X63579Y-22341D01*
X63560Y-22360D01*
X57208Y-23295D02*
X56814Y-23295D01*
X57208Y-23070D01*
X56814Y-23070D01*
X57208Y-22883D02*
X56814Y-22883D01*
X56814Y-22733D01*
X56833Y-22695D01*
X56851Y-22676D01*
X56889Y-22658D01*
X56945Y-22658D01*
X56983Y-22676D01*
X57001Y-22695D01*
X57020Y-22733D01*
X57020Y-22883D01*
X57208Y-22489D02*
X56814Y-22489D01*
X57208Y-22264D01*
X56814Y-22264D01*
X58651Y-24034D02*
X58651Y-23903D01*
X58858Y-23846D02*
X58858Y-24034D01*
X58464Y-24034D01*
X58464Y-23846D01*
X60451Y-21596D02*
X60470Y-21540D01*
X60489Y-21521D01*
X60526Y-21503D01*
X60583Y-21503D01*
X60620Y-21521D01*
X60639Y-21540D01*
X60658Y-21578D01*
X60658Y-21728D01*
X60264Y-21728D01*
X60264Y-21596D01*
X60283Y-21559D01*
X60301Y-21540D01*
X60339Y-21521D01*
X60376Y-21521D01*
X60414Y-21540D01*
X60433Y-21559D01*
X60451Y-21596D01*
X60451Y-21728D01*
X62405Y-23723D02*
X62424Y-23741D01*
X62443Y-23798D01*
X62443Y-23835D01*
X62424Y-23891D01*
X62386Y-23929D01*
X62349Y-23948D01*
X62274Y-23966D01*
X62218Y-23966D01*
X62143Y-23948D01*
X62105Y-23929D01*
X62068Y-23891D01*
X62049Y-23835D01*
X62049Y-23798D01*
X62068Y-23741D01*
X62086Y-23723D01*
X77995Y-36022D02*
X77976Y-36059D01*
X77939Y-36097D01*
X77883Y-36153D01*
X77864Y-36191D01*
X77864Y-36228D01*
X77958Y-36209D02*
X77939Y-36247D01*
X77901Y-36284D01*
X77826Y-36303D01*
X77695Y-36303D01*
X77620Y-36284D01*
X77583Y-36247D01*
X77564Y-36209D01*
X77564Y-36134D01*
X77583Y-36097D01*
X77620Y-36059D01*
X77695Y-36041D01*
X77826Y-36041D01*
X77901Y-36059D01*
X77939Y-36097D01*
X77958Y-36134D01*
X77958Y-36209D01*
X77958Y-35666D02*
X77958Y-35891D01*
X77958Y-35778D02*
X77564Y-35778D01*
X77620Y-35816D01*
X77658Y-35853D01*
X77676Y-35891D01*
X71046Y-36286D02*
X71065Y-36230D01*
X71084Y-36211D01*
X71121Y-36193D01*
X71178Y-36193D01*
X71215Y-36211D01*
X71234Y-36230D01*
X71253Y-36268D01*
X71253Y-36417D01*
X70859Y-36417D01*
X70859Y-36286D01*
X70878Y-36249D01*
X70896Y-36230D01*
X70934Y-36211D01*
X70971Y-36211D01*
X71009Y-36230D01*
X71028Y-36249D01*
X71046Y-36286D01*
X71046Y-36417D01*
X71046Y-35893D02*
X71046Y-36024D01*
X71253Y-36024D02*
X70859Y-36024D01*
X70859Y-35836D01*
X70896Y-35705D02*
X70878Y-35686D01*
X70859Y-35649D01*
X70859Y-35555D01*
X70878Y-35518D01*
X70896Y-35499D01*
X70934Y-35480D01*
X70971Y-35480D01*
X71028Y-35499D01*
X71253Y-35724D01*
X71253Y-35480D01*
X70990Y-35143D02*
X71253Y-35143D01*
X70840Y-35236D02*
X71121Y-35330D01*
X71121Y-35086D01*
X70990Y-34768D02*
X71253Y-34768D01*
X70840Y-34861D02*
X71121Y-34955D01*
X71121Y-34711D01*
X71140Y-34580D02*
X71140Y-34393D01*
X71253Y-34618D02*
X70859Y-34486D01*
X71253Y-34355D01*
X76364Y-36382D02*
X76383Y-36326D01*
X76383Y-36232D01*
X76364Y-36195D01*
X76345Y-36176D01*
X76308Y-36157D01*
X76270Y-36157D01*
X76233Y-36176D01*
X76214Y-36195D01*
X76195Y-36232D01*
X76176Y-36307D01*
X76158Y-36344D01*
X76139Y-36363D01*
X76101Y-36382D01*
X76064Y-36382D01*
X76026Y-36363D01*
X76008Y-36344D01*
X75989Y-36307D01*
X75989Y-36213D01*
X76008Y-36157D01*
X74283Y-37471D02*
X74264Y-37509D01*
X74264Y-37565D01*
X74283Y-37621D01*
X74320Y-37659D01*
X74358Y-37678D01*
X74433Y-37696D01*
X74489Y-37696D01*
X74564Y-37678D01*
X74601Y-37659D01*
X74639Y-37621D01*
X74658Y-37565D01*
X74658Y-37528D01*
X74639Y-37471D01*
X74620Y-37453D01*
X74489Y-37453D01*
X74489Y-37528D01*
X72933Y-36418D02*
X72539Y-36418D01*
X72539Y-36324D01*
X72558Y-36268D01*
X72595Y-36230D01*
X72633Y-36211D01*
X72708Y-36193D01*
X72764Y-36193D01*
X72839Y-36211D01*
X72876Y-36230D01*
X72914Y-36268D01*
X72933Y-36324D01*
X72933Y-36418D01*
X79934Y-34240D02*
X79915Y-34259D01*
X79859Y-34278D01*
X79821Y-34278D01*
X79765Y-34259D01*
X79728Y-34221D01*
X79709Y-34184D01*
X79690Y-34109D01*
X79690Y-34053D01*
X79709Y-33978D01*
X79728Y-33940D01*
X79765Y-33903D01*
X79821Y-33884D01*
X79859Y-33884D01*
X79915Y-33903D01*
X79934Y-33921D01*
X80309Y-34278D02*
X80084Y-34278D01*
X80196Y-34278D02*
X80196Y-33884D01*
X80159Y-33940D01*
X80121Y-33978D01*
X80084Y-33996D01*
X79737Y-33040D02*
X79718Y-33059D01*
X79662Y-33078D01*
X79625Y-33078D01*
X79568Y-33059D01*
X79531Y-33021D01*
X79512Y-32984D01*
X79493Y-32909D01*
X79493Y-32853D01*
X79512Y-32778D01*
X79531Y-32740D01*
X79568Y-32703D01*
X79625Y-32684D01*
X79662Y-32684D01*
X79718Y-32703D01*
X79737Y-32721D01*
X79906Y-33078D02*
X79906Y-32684D01*
X80056Y-32684D01*
X80093Y-32703D01*
X80112Y-32721D01*
X80131Y-32759D01*
X80131Y-32815D01*
X80112Y-32853D01*
X80093Y-32871D01*
X80056Y-32890D01*
X79906Y-32890D01*
X80506Y-33078D02*
X80281Y-33078D01*
X80393Y-33078D02*
X80393Y-32684D01*
X80356Y-32740D01*
X80318Y-32778D01*
X80281Y-32796D01*
X78850Y-33528D02*
X79149Y-33528D01*
X79000Y-33678D02*
X79000Y-33378D01*
X77934Y-44240D02*
X77915Y-44259D01*
X77859Y-44278D01*
X77821Y-44278D01*
X77765Y-44259D01*
X77728Y-44221D01*
X77709Y-44184D01*
X77690Y-44109D01*
X77690Y-44053D01*
X77709Y-43978D01*
X77728Y-43940D01*
X77765Y-43903D01*
X77821Y-43884D01*
X77859Y-43884D01*
X77915Y-43903D01*
X77934Y-43921D01*
X78290Y-43884D02*
X78103Y-43884D01*
X78084Y-44071D01*
X78103Y-44053D01*
X78140Y-44034D01*
X78234Y-44034D01*
X78271Y-44053D01*
X78290Y-44071D01*
X78309Y-44109D01*
X78309Y-44203D01*
X78290Y-44240D01*
X78271Y-44259D01*
X78234Y-44278D01*
X78140Y-44278D01*
X78103Y-44259D01*
X78084Y-44240D01*
X77737Y-43040D02*
X77718Y-43059D01*
X77662Y-43078D01*
X77625Y-43078D01*
X77568Y-43059D01*
X77531Y-43021D01*
X77512Y-42984D01*
X77493Y-42909D01*
X77493Y-42853D01*
X77512Y-42778D01*
X77531Y-42740D01*
X77568Y-42703D01*
X77625Y-42684D01*
X77662Y-42684D01*
X77718Y-42703D01*
X77737Y-42721D01*
X77906Y-43078D02*
X77906Y-42684D01*
X78056Y-42684D01*
X78093Y-42703D01*
X78112Y-42721D01*
X78131Y-42759D01*
X78131Y-42815D01*
X78112Y-42853D01*
X78093Y-42871D01*
X78056Y-42890D01*
X77906Y-42890D01*
X78506Y-43078D02*
X78281Y-43078D01*
X78393Y-43078D02*
X78393Y-42684D01*
X78356Y-42740D01*
X78318Y-42778D01*
X78281Y-42796D01*
X76850Y-43528D02*
X77149Y-43528D01*
X77000Y-43678D02*
X77000Y-43378D01*
X71934Y-44240D02*
X71915Y-44259D01*
X71859Y-44278D01*
X71821Y-44278D01*
X71765Y-44259D01*
X71728Y-44221D01*
X71709Y-44184D01*
X71690Y-44109D01*
X71690Y-44053D01*
X71709Y-43978D01*
X71728Y-43940D01*
X71765Y-43903D01*
X71821Y-43884D01*
X71859Y-43884D01*
X71915Y-43903D01*
X71934Y-43921D01*
X72271Y-43884D02*
X72196Y-43884D01*
X72159Y-43903D01*
X72140Y-43921D01*
X72103Y-43978D01*
X72084Y-44053D01*
X72084Y-44203D01*
X72103Y-44240D01*
X72121Y-44259D01*
X72159Y-44278D01*
X72234Y-44278D01*
X72271Y-44259D01*
X72290Y-44240D01*
X72309Y-44203D01*
X72309Y-44109D01*
X72290Y-44071D01*
X72271Y-44053D01*
X72234Y-44034D01*
X72159Y-44034D01*
X72121Y-44053D01*
X72103Y-44071D01*
X72084Y-44109D01*
X71737Y-43040D02*
X71718Y-43059D01*
X71662Y-43078D01*
X71625Y-43078D01*
X71568Y-43059D01*
X71531Y-43021D01*
X71512Y-42984D01*
X71493Y-42909D01*
X71493Y-42853D01*
X71512Y-42778D01*
X71531Y-42740D01*
X71568Y-42703D01*
X71625Y-42684D01*
X71662Y-42684D01*
X71718Y-42703D01*
X71737Y-42721D01*
X71906Y-43078D02*
X71906Y-42684D01*
X72056Y-42684D01*
X72093Y-42703D01*
X72112Y-42721D01*
X72131Y-42759D01*
X72131Y-42815D01*
X72112Y-42853D01*
X72093Y-42871D01*
X72056Y-42890D01*
X71906Y-42890D01*
X72506Y-43078D02*
X72281Y-43078D01*
X72393Y-43078D02*
X72393Y-42684D01*
X72356Y-42740D01*
X72318Y-42778D01*
X72281Y-42796D01*
X70850Y-43528D02*
X71149Y-43528D01*
X71000Y-43678D02*
X71000Y-43378D01*
X33434Y-41040D02*
X33415Y-41059D01*
X33359Y-41078D01*
X33321Y-41078D01*
X33265Y-41059D01*
X33228Y-41021D01*
X33209Y-40984D01*
X33190Y-40909D01*
X33190Y-40853D01*
X33209Y-40778D01*
X33228Y-40740D01*
X33265Y-40703D01*
X33321Y-40684D01*
X33359Y-40684D01*
X33415Y-40703D01*
X33434Y-40721D01*
X33565Y-40684D02*
X33828Y-40684D01*
X33659Y-41078D01*
X33237Y-42240D02*
X33218Y-42259D01*
X33162Y-42278D01*
X33125Y-42278D01*
X33068Y-42259D01*
X33031Y-42221D01*
X33012Y-42184D01*
X32993Y-42109D01*
X32993Y-42053D01*
X33012Y-41978D01*
X33031Y-41940D01*
X33068Y-41903D01*
X33125Y-41884D01*
X33162Y-41884D01*
X33218Y-41903D01*
X33237Y-41921D01*
X33406Y-42278D02*
X33406Y-41884D01*
X33556Y-41884D01*
X33593Y-41903D01*
X33612Y-41921D01*
X33631Y-41959D01*
X33631Y-42015D01*
X33612Y-42053D01*
X33593Y-42071D01*
X33556Y-42090D01*
X33406Y-42090D01*
X34006Y-42278D02*
X33781Y-42278D01*
X33893Y-42278D02*
X33893Y-41884D01*
X33856Y-41940D01*
X33818Y-41978D01*
X33781Y-41996D01*
X34350Y-41528D02*
X34649Y-41528D01*
X34500Y-41678D02*
X34500Y-41378D01*
X74746Y-44140D02*
X74728Y-44159D01*
X74671Y-44178D01*
X74634Y-44178D01*
X74578Y-44159D01*
X74540Y-44121D01*
X74521Y-44084D01*
X74503Y-44009D01*
X74503Y-43953D01*
X74521Y-43878D01*
X74540Y-43840D01*
X74578Y-43803D01*
X74634Y-43784D01*
X74671Y-43784D01*
X74728Y-43803D01*
X74746Y-43821D01*
X75121Y-44178D02*
X74896Y-44178D01*
X75009Y-44178D02*
X75009Y-43784D01*
X74971Y-43840D01*
X74934Y-43878D01*
X74896Y-43896D01*
X75496Y-44178D02*
X75271Y-44178D01*
X75384Y-44178D02*
X75384Y-43784D01*
X75346Y-43840D01*
X75309Y-43878D01*
X75271Y-43896D01*
X74737Y-43040D02*
X74718Y-43059D01*
X74662Y-43078D01*
X74625Y-43078D01*
X74568Y-43059D01*
X74531Y-43021D01*
X74512Y-42984D01*
X74493Y-42909D01*
X74493Y-42853D01*
X74512Y-42778D01*
X74531Y-42740D01*
X74568Y-42703D01*
X74625Y-42684D01*
X74662Y-42684D01*
X74718Y-42703D01*
X74737Y-42721D01*
X74906Y-43078D02*
X74906Y-42684D01*
X75056Y-42684D01*
X75093Y-42703D01*
X75112Y-42721D01*
X75131Y-42759D01*
X75131Y-42815D01*
X75112Y-42853D01*
X75093Y-42871D01*
X75056Y-42890D01*
X74906Y-42890D01*
X75506Y-43078D02*
X75281Y-43078D01*
X75393Y-43078D02*
X75393Y-42684D01*
X75356Y-42740D01*
X75318Y-42778D01*
X75281Y-42796D01*
X73850Y-43528D02*
X74149Y-43528D01*
X74000Y-43678D02*
X74000Y-43378D01*
X37746Y-37640D02*
X37728Y-37659D01*
X37671Y-37678D01*
X37634Y-37678D01*
X37578Y-37659D01*
X37540Y-37621D01*
X37521Y-37584D01*
X37503Y-37509D01*
X37503Y-37453D01*
X37521Y-37378D01*
X37540Y-37340D01*
X37578Y-37303D01*
X37634Y-37284D01*
X37671Y-37284D01*
X37728Y-37303D01*
X37746Y-37321D01*
X38121Y-37678D02*
X37896Y-37678D01*
X38009Y-37678D02*
X38009Y-37284D01*
X37971Y-37340D01*
X37934Y-37378D01*
X37896Y-37396D01*
X38253Y-37284D02*
X38496Y-37284D01*
X38365Y-37434D01*
X38421Y-37434D01*
X38459Y-37453D01*
X38478Y-37471D01*
X38496Y-37509D01*
X38496Y-37603D01*
X38478Y-37640D01*
X38459Y-37659D01*
X38421Y-37678D01*
X38309Y-37678D01*
X38271Y-37659D01*
X38253Y-37640D01*
X37737Y-36540D02*
X37718Y-36559D01*
X37662Y-36578D01*
X37625Y-36578D01*
X37568Y-36559D01*
X37531Y-36521D01*
X37512Y-36484D01*
X37493Y-36409D01*
X37493Y-36353D01*
X37512Y-36278D01*
X37531Y-36240D01*
X37568Y-36203D01*
X37625Y-36184D01*
X37662Y-36184D01*
X37718Y-36203D01*
X37737Y-36221D01*
X37906Y-36578D02*
X37906Y-36184D01*
X38056Y-36184D01*
X38093Y-36203D01*
X38112Y-36221D01*
X38131Y-36259D01*
X38131Y-36315D01*
X38112Y-36353D01*
X38093Y-36371D01*
X38056Y-36390D01*
X37906Y-36390D01*
X38506Y-36578D02*
X38281Y-36578D01*
X38393Y-36578D02*
X38393Y-36184D01*
X38356Y-36240D01*
X38318Y-36278D01*
X38281Y-36296D01*
X36850Y-37028D02*
X37149Y-37028D01*
X37000Y-37178D02*
X37000Y-36878D01*
X54540Y-25753D02*
X54559Y-25771D01*
X54578Y-25828D01*
X54578Y-25865D01*
X54559Y-25921D01*
X54521Y-25959D01*
X54484Y-25978D01*
X54409Y-25996D01*
X54353Y-25996D01*
X54278Y-25978D01*
X54240Y-25959D01*
X54203Y-25921D01*
X54184Y-25865D01*
X54184Y-25828D01*
X54203Y-25771D01*
X54221Y-25753D01*
X54578Y-25378D02*
X54578Y-25603D01*
X54578Y-25490D02*
X54184Y-25490D01*
X54240Y-25528D01*
X54278Y-25565D01*
X54296Y-25603D01*
X54353Y-25153D02*
X54334Y-25190D01*
X54315Y-25209D01*
X54278Y-25228D01*
X54259Y-25228D01*
X54221Y-25209D01*
X54203Y-25190D01*
X54184Y-25153D01*
X54184Y-25078D01*
X54203Y-25040D01*
X54221Y-25021D01*
X54259Y-25003D01*
X54278Y-25003D01*
X54315Y-25021D01*
X54334Y-25040D01*
X54353Y-25078D01*
X54353Y-25153D01*
X54371Y-25190D01*
X54390Y-25209D01*
X54428Y-25228D01*
X54503Y-25228D01*
X54540Y-25209D01*
X54559Y-25190D01*
X54578Y-25153D01*
X54578Y-25078D01*
X54559Y-25040D01*
X54540Y-25021D01*
X54503Y-25003D01*
X54428Y-25003D01*
X54390Y-25021D01*
X54371Y-25040D01*
X54353Y-25078D01*
X55740Y-25762D02*
X55759Y-25781D01*
X55778Y-25837D01*
X55778Y-25874D01*
X55759Y-25931D01*
X55721Y-25968D01*
X55684Y-25987D01*
X55609Y-26006D01*
X55553Y-26006D01*
X55478Y-25987D01*
X55440Y-25968D01*
X55403Y-25931D01*
X55384Y-25874D01*
X55384Y-25837D01*
X55403Y-25781D01*
X55421Y-25762D01*
X55778Y-25593D02*
X55384Y-25593D01*
X55384Y-25443D01*
X55403Y-25406D01*
X55421Y-25387D01*
X55459Y-25368D01*
X55515Y-25368D01*
X55553Y-25387D01*
X55571Y-25406D01*
X55590Y-25443D01*
X55590Y-25593D01*
X55778Y-24993D02*
X55778Y-25218D01*
X55778Y-25106D02*
X55384Y-25106D01*
X55440Y-25143D01*
X55478Y-25181D01*
X55496Y-25218D01*
X55028Y-24649D02*
X55028Y-24350D01*
X55178Y-24499D02*
X54878Y-24499D01*
X67040Y-25753D02*
X67059Y-25771D01*
X67078Y-25828D01*
X67078Y-25865D01*
X67059Y-25921D01*
X67021Y-25959D01*
X66984Y-25978D01*
X66909Y-25996D01*
X66853Y-25996D01*
X66778Y-25978D01*
X66740Y-25959D01*
X66703Y-25921D01*
X66684Y-25865D01*
X66684Y-25828D01*
X66703Y-25771D01*
X66721Y-25753D01*
X66721Y-25603D02*
X66703Y-25584D01*
X66684Y-25546D01*
X66684Y-25453D01*
X66703Y-25415D01*
X66721Y-25396D01*
X66759Y-25378D01*
X66796Y-25378D01*
X66853Y-25396D01*
X67078Y-25621D01*
X67078Y-25378D01*
X66684Y-25134D02*
X66684Y-25096D01*
X66703Y-25059D01*
X66721Y-25040D01*
X66759Y-25021D01*
X66834Y-25003D01*
X66928Y-25003D01*
X67003Y-25021D01*
X67040Y-25040D01*
X67059Y-25059D01*
X67078Y-25096D01*
X67078Y-25134D01*
X67059Y-25171D01*
X67040Y-25190D01*
X67003Y-25209D01*
X66928Y-25228D01*
X66834Y-25228D01*
X66759Y-25209D01*
X66721Y-25190D01*
X66703Y-25171D01*
X66684Y-25134D01*
X68240Y-25762D02*
X68259Y-25781D01*
X68278Y-25837D01*
X68278Y-25874D01*
X68259Y-25931D01*
X68221Y-25968D01*
X68184Y-25987D01*
X68109Y-26006D01*
X68053Y-26006D01*
X67978Y-25987D01*
X67940Y-25968D01*
X67903Y-25931D01*
X67884Y-25874D01*
X67884Y-25837D01*
X67903Y-25781D01*
X67921Y-25762D01*
X68278Y-25593D02*
X67884Y-25593D01*
X67884Y-25443D01*
X67903Y-25406D01*
X67921Y-25387D01*
X67959Y-25368D01*
X68015Y-25368D01*
X68053Y-25387D01*
X68071Y-25406D01*
X68090Y-25443D01*
X68090Y-25593D01*
X68278Y-24993D02*
X68278Y-25218D01*
X68278Y-25106D02*
X67884Y-25106D01*
X67940Y-25143D01*
X67978Y-25181D01*
X67996Y-25218D01*
X67528Y-24649D02*
X67528Y-24350D01*
X67678Y-24499D02*
X67378Y-24499D01*
X76678Y-39790D02*
X76284Y-39790D01*
X76284Y-39696D01*
X76303Y-39640D01*
X76340Y-39603D01*
X76378Y-39584D01*
X76453Y-39565D01*
X76509Y-39565D01*
X76584Y-39584D01*
X76621Y-39603D01*
X76659Y-39640D01*
X76678Y-39696D01*
X76678Y-39790D01*
X76678Y-39190D02*
X76678Y-39415D01*
X76678Y-39303D02*
X76284Y-39303D01*
X76340Y-39340D01*
X76378Y-39378D01*
X76396Y-39415D01*
X77678Y-39790D02*
X77284Y-39790D01*
X77284Y-39696D01*
X77303Y-39640D01*
X77340Y-39603D01*
X77378Y-39584D01*
X77453Y-39565D01*
X77509Y-39565D01*
X77584Y-39584D01*
X77621Y-39603D01*
X77659Y-39640D01*
X77678Y-39696D01*
X77678Y-39790D01*
X77321Y-39415D02*
X77303Y-39396D01*
X77284Y-39359D01*
X77284Y-39265D01*
X77303Y-39228D01*
X77321Y-39209D01*
X77359Y-39190D01*
X77396Y-39190D01*
X77453Y-39209D01*
X77678Y-39434D01*
X77678Y-39190D01*
X71209Y-53178D02*
X71209Y-52784D01*
X71303Y-52784D01*
X71359Y-52803D01*
X71396Y-52840D01*
X71415Y-52878D01*
X71434Y-52953D01*
X71434Y-53009D01*
X71415Y-53084D01*
X71396Y-53121D01*
X71359Y-53159D01*
X71303Y-53178D01*
X71209Y-53178D01*
X71565Y-52784D02*
X71809Y-52784D01*
X71678Y-52934D01*
X71734Y-52934D01*
X71771Y-52953D01*
X71790Y-52971D01*
X71809Y-53009D01*
X71809Y-53103D01*
X71790Y-53140D01*
X71771Y-53159D01*
X71734Y-53178D01*
X71621Y-53178D01*
X71584Y-53159D01*
X71565Y-53140D01*
X78209Y-53178D02*
X78209Y-52784D01*
X78303Y-52784D01*
X78359Y-52803D01*
X78396Y-52840D01*
X78415Y-52878D01*
X78434Y-52953D01*
X78434Y-53009D01*
X78415Y-53084D01*
X78396Y-53121D01*
X78359Y-53159D01*
X78303Y-53178D01*
X78209Y-53178D01*
X78771Y-52915D02*
X78771Y-53178D01*
X78678Y-52765D02*
X78584Y-53046D01*
X78828Y-53046D01*
X57209Y-53178D02*
X57209Y-52784D01*
X57303Y-52784D01*
X57359Y-52803D01*
X57396Y-52840D01*
X57415Y-52878D01*
X57434Y-52953D01*
X57434Y-53009D01*
X57415Y-53084D01*
X57396Y-53121D01*
X57359Y-53159D01*
X57303Y-53178D01*
X57209Y-53178D01*
X57790Y-52784D02*
X57603Y-52784D01*
X57584Y-52971D01*
X57603Y-52953D01*
X57640Y-52934D01*
X57734Y-52934D01*
X57771Y-52953D01*
X57790Y-52971D01*
X57809Y-53009D01*
X57809Y-53103D01*
X57790Y-53140D01*
X57771Y-53159D01*
X57734Y-53178D01*
X57640Y-53178D01*
X57603Y-53159D01*
X57584Y-53140D01*
X59178Y-30884D02*
X58784Y-30884D01*
X59140Y-30471D02*
X59159Y-30490D01*
X59178Y-30546D01*
X59178Y-30584D01*
X59159Y-30640D01*
X59121Y-30678D01*
X59084Y-30696D01*
X59009Y-30715D01*
X58953Y-30715D01*
X58878Y-30696D01*
X58840Y-30678D01*
X58803Y-30640D01*
X58784Y-30584D01*
X58784Y-30546D01*
X58803Y-30490D01*
X58821Y-30471D01*
X59178Y-30096D02*
X59178Y-30321D01*
X59178Y-30209D02*
X58784Y-30209D01*
X58840Y-30246D01*
X58878Y-30284D01*
X58896Y-30321D01*
X59065Y-39765D02*
X59065Y-39577D01*
X59178Y-39802D02*
X58784Y-39671D01*
X59178Y-39540D01*
X58784Y-39465D02*
X58784Y-39240D01*
X59178Y-39352D02*
X58784Y-39352D01*
X59178Y-39109D02*
X58784Y-39109D01*
X59065Y-38977D01*
X58784Y-38846D01*
X59178Y-38846D01*
X58971Y-38659D02*
X58971Y-38528D01*
X59178Y-38471D02*
X59178Y-38659D01*
X58784Y-38659D01*
X58784Y-38471D01*
X58803Y-38096D02*
X58784Y-38134D01*
X58784Y-38190D01*
X58803Y-38246D01*
X58840Y-38284D01*
X58878Y-38303D01*
X58953Y-38321D01*
X59009Y-38321D01*
X59084Y-38303D01*
X59121Y-38284D01*
X59159Y-38246D01*
X59178Y-38190D01*
X59178Y-38153D01*
X59159Y-38096D01*
X59140Y-38078D01*
X59009Y-38078D01*
X59009Y-38153D01*
X59065Y-37928D02*
X59065Y-37740D01*
X59178Y-37965D02*
X58784Y-37834D01*
X59178Y-37703D01*
X58784Y-37609D02*
X58784Y-37365D01*
X58934Y-37496D01*
X58934Y-37440D01*
X58953Y-37403D01*
X58971Y-37384D01*
X59009Y-37365D01*
X59103Y-37365D01*
X59140Y-37384D01*
X59159Y-37403D01*
X59178Y-37440D01*
X59178Y-37553D01*
X59159Y-37590D01*
X59140Y-37609D01*
X58821Y-37215D02*
X58803Y-37196D01*
X58784Y-37159D01*
X58784Y-37065D01*
X58803Y-37028D01*
X58821Y-37009D01*
X58859Y-36990D01*
X58896Y-36990D01*
X58953Y-37009D01*
X59178Y-37234D01*
X59178Y-36990D01*
X58953Y-36765D02*
X58934Y-36803D01*
X58915Y-36821D01*
X58878Y-36840D01*
X58859Y-36840D01*
X58821Y-36821D01*
X58803Y-36803D01*
X58784Y-36765D01*
X58784Y-36690D01*
X58803Y-36653D01*
X58821Y-36634D01*
X58859Y-36615D01*
X58878Y-36615D01*
X58915Y-36634D01*
X58934Y-36653D01*
X58953Y-36690D01*
X58953Y-36765D01*
X58971Y-36803D01*
X58990Y-36821D01*
X59028Y-36840D01*
X59103Y-36840D01*
X59140Y-36821D01*
X59159Y-36803D01*
X59178Y-36765D01*
X59178Y-36690D01*
X59159Y-36653D01*
X59140Y-36634D01*
X59103Y-36615D01*
X59028Y-36615D01*
X58990Y-36634D01*
X58971Y-36653D01*
X58953Y-36690D01*
X59028Y-36447D02*
X59028Y-36147D01*
X59178Y-35959D02*
X58784Y-35959D01*
X58784Y-35809D01*
X58803Y-35772D01*
X58821Y-35753D01*
X58859Y-35734D01*
X58915Y-35734D01*
X58953Y-35753D01*
X58971Y-35772D01*
X58990Y-35809D01*
X58990Y-35959D01*
X71478Y-20315D02*
X71478Y-20503D01*
X71084Y-20503D01*
X71478Y-19978D02*
X71478Y-20203D01*
X71478Y-20090D02*
X71084Y-20090D01*
X71140Y-20128D01*
X71178Y-20165D01*
X71196Y-20203D01*
X78671Y-30348D02*
X78540Y-30160D01*
X78446Y-30348D02*
X78446Y-29954D01*
X78596Y-29954D01*
X78634Y-29973D01*
X78653Y-29991D01*
X78671Y-30029D01*
X78671Y-30085D01*
X78653Y-30123D01*
X78634Y-30141D01*
X78596Y-30160D01*
X78446Y-30160D01*
X51371Y-34728D02*
X51240Y-34540D01*
X51146Y-34728D02*
X51146Y-34334D01*
X51296Y-34334D01*
X51334Y-34353D01*
X51353Y-34371D01*
X51371Y-34409D01*
X51371Y-34465D01*
X51353Y-34503D01*
X51334Y-34521D01*
X51296Y-34540D01*
X51146Y-34540D01*
X77628Y-33378D02*
X77440Y-33509D01*
X77628Y-33603D02*
X77234Y-33603D01*
X77234Y-33453D01*
X77253Y-33415D01*
X77271Y-33396D01*
X77309Y-33378D01*
X77365Y-33378D01*
X77403Y-33396D01*
X77421Y-33415D01*
X77440Y-33453D01*
X77440Y-33603D01*
X78628Y-39378D02*
X78440Y-39509D01*
X78628Y-39603D02*
X78234Y-39603D01*
X78234Y-39453D01*
X78253Y-39415D01*
X78271Y-39396D01*
X78309Y-39378D01*
X78365Y-39378D01*
X78403Y-39396D01*
X78421Y-39415D01*
X78440Y-39453D01*
X78440Y-39603D01*
X34121Y-47128D02*
X33990Y-46940D01*
X33896Y-47128D02*
X33896Y-46734D01*
X34046Y-46734D01*
X34084Y-46753D01*
X34103Y-46771D01*
X34121Y-46809D01*
X34121Y-46865D01*
X34103Y-46903D01*
X34084Y-46921D01*
X34046Y-46940D01*
X33896Y-46940D01*
X74621Y-33228D02*
X74490Y-33040D01*
X74396Y-33228D02*
X74396Y-32834D01*
X74546Y-32834D01*
X74584Y-32853D01*
X74603Y-32871D01*
X74621Y-32909D01*
X74621Y-32965D01*
X74603Y-33003D01*
X74584Y-33021D01*
X74546Y-33040D01*
X74396Y-33040D01*
X74628Y-39378D02*
X74440Y-39509D01*
X74628Y-39603D02*
X74234Y-39603D01*
X74234Y-39453D01*
X74253Y-39415D01*
X74271Y-39396D01*
X74309Y-39378D01*
X74365Y-39378D01*
X74403Y-39396D01*
X74421Y-39415D01*
X74440Y-39453D01*
X74440Y-39603D01*
X68121Y-51728D02*
X67990Y-51540D01*
X67896Y-51728D02*
X67896Y-51334D01*
X68046Y-51334D01*
X68084Y-51353D01*
X68103Y-51371D01*
X68121Y-51409D01*
X68121Y-51465D01*
X68103Y-51503D01*
X68084Y-51521D01*
X68046Y-51540D01*
X67896Y-51540D01*
X75728Y-39378D02*
X75540Y-39509D01*
X75728Y-39603D02*
X75334Y-39603D01*
X75334Y-39453D01*
X75353Y-39415D01*
X75371Y-39396D01*
X75409Y-39378D01*
X75465Y-39378D01*
X75503Y-39396D01*
X75521Y-39415D01*
X75540Y-39453D01*
X75540Y-39603D01*
X38121Y-40128D02*
X37990Y-39940D01*
X37896Y-40128D02*
X37896Y-39734D01*
X38046Y-39734D01*
X38084Y-39753D01*
X38103Y-39771D01*
X38121Y-39809D01*
X38121Y-39865D01*
X38103Y-39903D01*
X38084Y-39921D01*
X38046Y-39940D01*
X37896Y-39940D01*
X71628Y-39378D02*
X71440Y-39509D01*
X71628Y-39603D02*
X71234Y-39603D01*
X71234Y-39453D01*
X71253Y-39415D01*
X71271Y-39396D01*
X71309Y-39378D01*
X71365Y-39378D01*
X71403Y-39396D01*
X71421Y-39415D01*
X71440Y-39453D01*
X71440Y-39603D01*
X38121Y-46128D02*
X37990Y-45940D01*
X37896Y-46128D02*
X37896Y-45734D01*
X38046Y-45734D01*
X38084Y-45753D01*
X38103Y-45771D01*
X38121Y-45809D01*
X38121Y-45865D01*
X38103Y-45903D01*
X38084Y-45921D01*
X38046Y-45940D01*
X37896Y-45940D01*
X71121Y-34228D02*
X70990Y-34040D01*
X70896Y-34228D02*
X70896Y-33834D01*
X71046Y-33834D01*
X71084Y-33853D01*
X71103Y-33871D01*
X71121Y-33909D01*
X71121Y-33965D01*
X71103Y-34003D01*
X71084Y-34021D01*
X71046Y-34040D01*
X70896Y-34040D01*
X71121Y-35228D02*
X70990Y-35040D01*
X70896Y-35228D02*
X70896Y-34834D01*
X71046Y-34834D01*
X71084Y-34853D01*
X71103Y-34871D01*
X71121Y-34909D01*
X71121Y-34965D01*
X71103Y-35003D01*
X71084Y-35021D01*
X71046Y-35040D01*
X70896Y-35040D01*
X78621Y-29728D02*
X78490Y-29540D01*
X78396Y-29728D02*
X78396Y-29334D01*
X78546Y-29334D01*
X78584Y-29353D01*
X78603Y-29371D01*
X78621Y-29409D01*
X78621Y-29465D01*
X78603Y-29503D01*
X78584Y-29521D01*
X78546Y-29540D01*
X78396Y-29540D01*
X78621Y-28728D02*
X78490Y-28540D01*
X78396Y-28728D02*
X78396Y-28334D01*
X78546Y-28334D01*
X78584Y-28353D01*
X78603Y-28371D01*
X78621Y-28409D01*
X78621Y-28465D01*
X78603Y-28503D01*
X78584Y-28521D01*
X78546Y-28540D01*
X78396Y-28540D01*
X77128Y-25378D02*
X76940Y-25509D01*
X77128Y-25603D02*
X76734Y-25603D01*
X76734Y-25453D01*
X76753Y-25415D01*
X76771Y-25396D01*
X76809Y-25378D01*
X76865Y-25378D01*
X76903Y-25396D01*
X76921Y-25415D01*
X76940Y-25453D01*
X76940Y-25603D01*
X74228Y-25378D02*
X74040Y-25509D01*
X74228Y-25603D02*
X73834Y-25603D01*
X73834Y-25453D01*
X73853Y-25415D01*
X73871Y-25396D01*
X73909Y-25378D01*
X73965Y-25378D01*
X74003Y-25396D01*
X74021Y-25415D01*
X74040Y-25453D01*
X74040Y-25603D01*
X60621Y-21678D02*
X60490Y-21490D01*
X60396Y-21678D02*
X60396Y-21284D01*
X60546Y-21284D01*
X60584Y-21303D01*
X60603Y-21321D01*
X60621Y-21359D01*
X60621Y-21415D01*
X60603Y-21453D01*
X60584Y-21471D01*
X60546Y-21490D01*
X60396Y-21490D01*
X55128Y-29878D02*
X54940Y-30009D01*
X55128Y-30103D02*
X54734Y-30103D01*
X54734Y-29953D01*
X54753Y-29915D01*
X54771Y-29896D01*
X54809Y-29878D01*
X54865Y-29878D01*
X54903Y-29896D01*
X54921Y-29915D01*
X54940Y-29953D01*
X54940Y-30103D01*
X75121Y-51728D02*
X74990Y-51540D01*
X74896Y-51728D02*
X74896Y-51334D01*
X75046Y-51334D01*
X75084Y-51353D01*
X75103Y-51371D01*
X75121Y-51409D01*
X75121Y-51465D01*
X75103Y-51503D01*
X75084Y-51521D01*
X75046Y-51540D01*
X74896Y-51540D01*
X82121Y-51728D02*
X81990Y-51540D01*
X81896Y-51728D02*
X81896Y-51334D01*
X82046Y-51334D01*
X82084Y-51353D01*
X82103Y-51371D01*
X82121Y-51409D01*
X82121Y-51465D01*
X82103Y-51503D01*
X82084Y-51521D01*
X82046Y-51540D01*
X81896Y-51540D01*
X61121Y-51728D02*
X60990Y-51540D01*
X60896Y-51728D02*
X60896Y-51334D01*
X61046Y-51334D01*
X61084Y-51353D01*
X61103Y-51371D01*
X61121Y-51409D01*
X61121Y-51465D01*
X61103Y-51503D01*
X61084Y-51521D01*
X61046Y-51540D01*
X60896Y-51540D01*
X70975Y-55359D02*
X71031Y-55378D01*
X71125Y-55378D01*
X71162Y-55359D01*
X71181Y-55340D01*
X71200Y-55303D01*
X71200Y-55265D01*
X71181Y-55228D01*
X71162Y-55209D01*
X71125Y-55190D01*
X71050Y-55171D01*
X71012Y-55153D01*
X70993Y-55134D01*
X70975Y-55096D01*
X70975Y-55059D01*
X70993Y-55021D01*
X71012Y-55003D01*
X71050Y-54984D01*
X71143Y-54984D01*
X71200Y-55003D01*
X71331Y-54984D02*
X71425Y-55378D01*
X71500Y-55096D01*
X71574Y-55378D01*
X71668Y-54984D01*
X72024Y-55378D02*
X71799Y-55378D01*
X71912Y-55378D02*
X71912Y-54984D01*
X71874Y-55040D01*
X71837Y-55078D01*
X71799Y-55096D01*
X70215Y-56059D02*
X70272Y-56078D01*
X70365Y-56078D01*
X70403Y-56059D01*
X70422Y-56040D01*
X70440Y-56003D01*
X70440Y-55965D01*
X70422Y-55928D01*
X70403Y-55909D01*
X70365Y-55890D01*
X70290Y-55871D01*
X70253Y-55853D01*
X70234Y-55834D01*
X70215Y-55796D01*
X70215Y-55759D01*
X70234Y-55721D01*
X70253Y-55703D01*
X70290Y-55684D01*
X70384Y-55684D01*
X70440Y-55703D01*
X70571Y-55684D02*
X70665Y-56078D01*
X70740Y-55796D01*
X70815Y-56078D01*
X70909Y-55684D01*
X70965Y-56115D02*
X71265Y-56115D01*
X71359Y-56078D02*
X71359Y-55684D01*
X71509Y-55684D01*
X71546Y-55703D01*
X71565Y-55721D01*
X71584Y-55759D01*
X71584Y-55815D01*
X71565Y-55853D01*
X71546Y-55871D01*
X71509Y-55890D01*
X71359Y-55890D01*
X71753Y-55684D02*
X71753Y-56003D01*
X71771Y-56040D01*
X71790Y-56059D01*
X71828Y-56078D01*
X71903Y-56078D01*
X71940Y-56059D01*
X71959Y-56040D01*
X71978Y-56003D01*
X71978Y-55684D01*
X72146Y-56059D02*
X72203Y-56078D01*
X72296Y-56078D01*
X72334Y-56059D01*
X72353Y-56040D01*
X72371Y-56003D01*
X72371Y-55965D01*
X72353Y-55928D01*
X72334Y-55909D01*
X72296Y-55890D01*
X72221Y-55871D01*
X72184Y-55853D01*
X72165Y-55834D01*
X72146Y-55796D01*
X72146Y-55759D01*
X72165Y-55721D01*
X72184Y-55703D01*
X72221Y-55684D01*
X72315Y-55684D01*
X72371Y-55703D01*
X72540Y-56078D02*
X72540Y-55684D01*
X72540Y-55871D02*
X72765Y-55871D01*
X72765Y-56078D02*
X72765Y-55684D01*
X77975Y-55359D02*
X78031Y-55378D01*
X78125Y-55378D01*
X78162Y-55359D01*
X78181Y-55340D01*
X78200Y-55303D01*
X78200Y-55265D01*
X78181Y-55228D01*
X78162Y-55209D01*
X78125Y-55190D01*
X78050Y-55171D01*
X78012Y-55153D01*
X77993Y-55134D01*
X77975Y-55096D01*
X77975Y-55059D01*
X77993Y-55021D01*
X78012Y-55003D01*
X78050Y-54984D01*
X78143Y-54984D01*
X78200Y-55003D01*
X78331Y-54984D02*
X78425Y-55378D01*
X78500Y-55096D01*
X78574Y-55378D01*
X78668Y-54984D01*
X78799Y-55021D02*
X78818Y-55003D01*
X78856Y-54984D01*
X78949Y-54984D01*
X78987Y-55003D01*
X79006Y-55021D01*
X79024Y-55059D01*
X79024Y-55096D01*
X79006Y-55153D01*
X78781Y-55378D01*
X79024Y-55378D01*
X77515Y-56009D02*
X77572Y-56028D01*
X77665Y-56028D01*
X77703Y-56009D01*
X77722Y-55990D01*
X77740Y-55953D01*
X77740Y-55915D01*
X77722Y-55878D01*
X77703Y-55859D01*
X77665Y-55840D01*
X77590Y-55821D01*
X77553Y-55803D01*
X77534Y-55784D01*
X77515Y-55746D01*
X77515Y-55709D01*
X77534Y-55671D01*
X77553Y-55653D01*
X77590Y-55634D01*
X77684Y-55634D01*
X77740Y-55653D01*
X77871Y-55634D02*
X77965Y-56028D01*
X78040Y-55746D01*
X78115Y-56028D01*
X78209Y-55634D01*
X78265Y-56065D02*
X78565Y-56065D01*
X78659Y-56028D02*
X78659Y-55634D01*
X78809Y-55634D01*
X78846Y-55653D01*
X78865Y-55671D01*
X78884Y-55709D01*
X78884Y-55765D01*
X78865Y-55803D01*
X78846Y-55821D01*
X78809Y-55840D01*
X78659Y-55840D01*
X79053Y-55634D02*
X79053Y-55953D01*
X79071Y-55990D01*
X79090Y-56009D01*
X79128Y-56028D01*
X79203Y-56028D01*
X79240Y-56009D01*
X79259Y-55990D01*
X79278Y-55953D01*
X79278Y-55634D01*
X79446Y-56009D02*
X79503Y-56028D01*
X79596Y-56028D01*
X79634Y-56009D01*
X79653Y-55990D01*
X79671Y-55953D01*
X79671Y-55915D01*
X79653Y-55878D01*
X79634Y-55859D01*
X79596Y-55840D01*
X79521Y-55821D01*
X79484Y-55803D01*
X79465Y-55784D01*
X79446Y-55746D01*
X79446Y-55709D01*
X79465Y-55671D01*
X79484Y-55653D01*
X79521Y-55634D01*
X79615Y-55634D01*
X79671Y-55653D01*
X79840Y-56028D02*
X79840Y-55634D01*
X79840Y-55821D02*
X80065Y-55821D01*
X80065Y-56028D02*
X80065Y-55634D01*
X56975Y-55359D02*
X57031Y-55378D01*
X57125Y-55378D01*
X57162Y-55359D01*
X57181Y-55340D01*
X57200Y-55303D01*
X57200Y-55265D01*
X57181Y-55228D01*
X57162Y-55209D01*
X57125Y-55190D01*
X57050Y-55171D01*
X57012Y-55153D01*
X56993Y-55134D01*
X56975Y-55096D01*
X56975Y-55059D01*
X56993Y-55021D01*
X57012Y-55003D01*
X57050Y-54984D01*
X57143Y-54984D01*
X57200Y-55003D01*
X57331Y-54984D02*
X57425Y-55378D01*
X57500Y-55096D01*
X57574Y-55378D01*
X57668Y-54984D01*
X57781Y-54984D02*
X58024Y-54984D01*
X57893Y-55134D01*
X57949Y-55134D01*
X57987Y-55153D01*
X58006Y-55171D01*
X58024Y-55209D01*
X58024Y-55303D01*
X58006Y-55340D01*
X57987Y-55359D01*
X57949Y-55378D01*
X57837Y-55378D01*
X57799Y-55359D01*
X57781Y-55340D01*
X56215Y-56059D02*
X56272Y-56078D01*
X56365Y-56078D01*
X56403Y-56059D01*
X56422Y-56040D01*
X56440Y-56003D01*
X56440Y-55965D01*
X56422Y-55928D01*
X56403Y-55909D01*
X56365Y-55890D01*
X56290Y-55871D01*
X56253Y-55853D01*
X56234Y-55834D01*
X56215Y-55796D01*
X56215Y-55759D01*
X56234Y-55721D01*
X56253Y-55703D01*
X56290Y-55684D01*
X56384Y-55684D01*
X56440Y-55703D01*
X56571Y-55684D02*
X56665Y-56078D01*
X56740Y-55796D01*
X56815Y-56078D01*
X56909Y-55684D01*
X56965Y-56115D02*
X57265Y-56115D01*
X57359Y-56078D02*
X57359Y-55684D01*
X57509Y-55684D01*
X57546Y-55703D01*
X57565Y-55721D01*
X57584Y-55759D01*
X57584Y-55815D01*
X57565Y-55853D01*
X57546Y-55871D01*
X57509Y-55890D01*
X57359Y-55890D01*
X57753Y-55684D02*
X57753Y-56003D01*
X57771Y-56040D01*
X57790Y-56059D01*
X57828Y-56078D01*
X57903Y-56078D01*
X57940Y-56059D01*
X57959Y-56040D01*
X57978Y-56003D01*
X57978Y-55684D01*
X58146Y-56059D02*
X58203Y-56078D01*
X58296Y-56078D01*
X58334Y-56059D01*
X58353Y-56040D01*
X58371Y-56003D01*
X58371Y-55965D01*
X58353Y-55928D01*
X58334Y-55909D01*
X58296Y-55890D01*
X58221Y-55871D01*
X58184Y-55853D01*
X58165Y-55834D01*
X58146Y-55796D01*
X58146Y-55759D01*
X58165Y-55721D01*
X58184Y-55703D01*
X58221Y-55684D01*
X58315Y-55684D01*
X58371Y-55703D01*
X58540Y-56078D02*
X58540Y-55684D01*
X58540Y-55871D02*
X58765Y-55871D01*
X58765Y-56078D02*
X58765Y-55684D01*
X37700Y-40284D02*
X37700Y-40603D01*
X37718Y-40640D01*
X37737Y-40659D01*
X37775Y-40678D01*
X37850Y-40678D01*
X37887Y-40659D01*
X37906Y-40640D01*
X37925Y-40603D01*
X37925Y-40284D01*
X38318Y-40678D02*
X38093Y-40678D01*
X38206Y-40678D02*
X38206Y-40284D01*
X38168Y-40340D01*
X38131Y-40378D01*
X38093Y-40396D01*
X38178Y-43665D02*
X38178Y-43853D01*
X37784Y-43853D01*
X38178Y-43534D02*
X37784Y-43534D01*
X38065Y-43403D01*
X37784Y-43271D01*
X38178Y-43271D01*
X37784Y-43121D02*
X37784Y-42878D01*
X37934Y-43009D01*
X37934Y-42953D01*
X37953Y-42915D01*
X37971Y-42896D01*
X38009Y-42878D01*
X38103Y-42878D01*
X38140Y-42896D01*
X38159Y-42915D01*
X38178Y-42953D01*
X38178Y-43065D01*
X38159Y-43103D01*
X38140Y-43121D01*
X37953Y-42653D02*
X37934Y-42690D01*
X37915Y-42709D01*
X37878Y-42728D01*
X37859Y-42728D01*
X37821Y-42709D01*
X37803Y-42690D01*
X37784Y-42653D01*
X37784Y-42578D01*
X37803Y-42540D01*
X37821Y-42521D01*
X37859Y-42503D01*
X37878Y-42503D01*
X37915Y-42521D01*
X37934Y-42540D01*
X37953Y-42578D01*
X37953Y-42653D01*
X37971Y-42690D01*
X37990Y-42709D01*
X38028Y-42728D01*
X38103Y-42728D01*
X38140Y-42709D01*
X38159Y-42690D01*
X38178Y-42653D01*
X38178Y-42578D01*
X38159Y-42540D01*
X38140Y-42521D01*
X38103Y-42503D01*
X38028Y-42503D01*
X37990Y-42521D01*
X37971Y-42540D01*
X37953Y-42578D01*
X37784Y-42165D02*
X37784Y-42240D01*
X37803Y-42278D01*
X37821Y-42296D01*
X37878Y-42334D01*
X37953Y-42353D01*
X38103Y-42353D01*
X38140Y-42334D01*
X38159Y-42315D01*
X38178Y-42278D01*
X38178Y-42203D01*
X38159Y-42165D01*
X38140Y-42146D01*
X38103Y-42128D01*
X38009Y-42128D01*
X37971Y-42146D01*
X37953Y-42165D01*
X37934Y-42203D01*
X37934Y-42278D01*
X37953Y-42315D01*
X37971Y-42334D01*
X38009Y-42353D01*
X69784Y-30299D02*
X70103Y-30299D01*
X70140Y-30281D01*
X70159Y-30262D01*
X70178Y-30224D01*
X70178Y-30149D01*
X70159Y-30112D01*
X70140Y-30093D01*
X70103Y-30074D01*
X69784Y-30074D01*
X69821Y-29906D02*
X69803Y-29887D01*
X69784Y-29850D01*
X69784Y-29756D01*
X69803Y-29718D01*
X69821Y-29700D01*
X69859Y-29681D01*
X69896Y-29681D01*
X69953Y-29700D01*
X70178Y-29925D01*
X70178Y-29681D01*
X71628Y-30178D02*
X71440Y-30178D01*
X71440Y-29784D01*
X71759Y-30178D02*
X71759Y-29784D01*
X71890Y-30065D01*
X72021Y-29784D01*
X72021Y-30178D01*
X72171Y-29784D02*
X72415Y-29784D01*
X72284Y-29934D01*
X72340Y-29934D01*
X72378Y-29953D01*
X72396Y-29971D01*
X72415Y-30009D01*
X72415Y-30103D01*
X72396Y-30140D01*
X72378Y-30159D01*
X72340Y-30178D01*
X72228Y-30178D01*
X72190Y-30159D01*
X72171Y-30140D01*
X72771Y-29784D02*
X72584Y-29784D01*
X72565Y-29971D01*
X72584Y-29953D01*
X72621Y-29934D01*
X72715Y-29934D01*
X72753Y-29953D01*
X72771Y-29971D01*
X72790Y-30009D01*
X72790Y-30103D01*
X72771Y-30140D01*
X72753Y-30159D01*
X72715Y-30178D01*
X72621Y-30178D01*
X72584Y-30159D01*
X72565Y-30140D01*
X73015Y-29953D02*
X72978Y-29934D01*
X72959Y-29915D01*
X72940Y-29878D01*
X72940Y-29859D01*
X72959Y-29821D01*
X72978Y-29803D01*
X73015Y-29784D01*
X73090Y-29784D01*
X73128Y-29803D01*
X73146Y-29821D01*
X73165Y-29859D01*
X73165Y-29878D01*
X73146Y-29915D01*
X73128Y-29934D01*
X73090Y-29953D01*
X73015Y-29953D01*
X72978Y-29971D01*
X72959Y-29990D01*
X72940Y-30028D01*
X72940Y-30103D01*
X72959Y-30140D01*
X72978Y-30159D01*
X73015Y-30178D01*
X73090Y-30178D01*
X73128Y-30159D01*
X73146Y-30140D01*
X73165Y-30103D01*
X73165Y-30028D01*
X73146Y-29990D01*
X73128Y-29971D01*
X73090Y-29953D01*
X73334Y-30178D02*
X73334Y-29784D01*
X73559Y-30178D01*
X73559Y-29784D01*
G54D12*
X55671Y-38485D02*
X56271Y-38085D01*
X55671Y-38085D02*
X56271Y-38485D01*
X56271Y-37542D02*
X56271Y-37885D01*
X56271Y-37714D02*
X55671Y-37714D01*
X55757Y-37771D01*
X55814Y-37828D01*
X55842Y-37885D01*
G54D10*
X64209Y-53178D02*
X64209Y-52784D01*
X64303Y-52784D01*
X64359Y-52803D01*
X64396Y-52840D01*
X64415Y-52878D01*
X64434Y-52953D01*
X64434Y-53009D01*
X64415Y-53084D01*
X64396Y-53121D01*
X64359Y-53159D01*
X64303Y-53178D01*
X64209Y-53178D01*
X64771Y-52784D02*
X64696Y-52784D01*
X64659Y-52803D01*
X64640Y-52821D01*
X64603Y-52878D01*
X64584Y-52953D01*
X64584Y-53103D01*
X64603Y-53140D01*
X64621Y-53159D01*
X64659Y-53178D01*
X64734Y-53178D01*
X64771Y-53159D01*
X64790Y-53140D01*
X64809Y-53103D01*
X64809Y-53009D01*
X64790Y-52971D01*
X64771Y-52953D01*
X64734Y-52934D01*
X64659Y-52934D01*
X64621Y-52953D01*
X64603Y-52971D01*
X64584Y-53009D01*
X80884Y-37928D02*
X80884Y-37534D01*
X81015Y-37815D01*
X81146Y-37534D01*
X81146Y-37928D01*
X81334Y-37928D02*
X81334Y-37534D01*
X81559Y-37928D02*
X81390Y-37703D01*
X81559Y-37534D02*
X81334Y-37759D01*
X81934Y-37928D02*
X81709Y-37928D01*
X81821Y-37928D02*
X81821Y-37534D01*
X81784Y-37590D01*
X81746Y-37628D01*
X81709Y-37646D01*
X37709Y-31778D02*
X37709Y-31384D01*
X37859Y-31384D01*
X37896Y-31403D01*
X37915Y-31421D01*
X37934Y-31459D01*
X37934Y-31515D01*
X37915Y-31553D01*
X37896Y-31571D01*
X37859Y-31590D01*
X37709Y-31590D01*
X38309Y-31778D02*
X38084Y-31778D01*
X38196Y-31778D02*
X38196Y-31384D01*
X38159Y-31440D01*
X38121Y-31478D01*
X38084Y-31496D01*
X83578Y-22790D02*
X83184Y-22790D01*
X83184Y-22640D01*
X83203Y-22603D01*
X83221Y-22584D01*
X83259Y-22565D01*
X83315Y-22565D01*
X83353Y-22584D01*
X83371Y-22603D01*
X83390Y-22640D01*
X83390Y-22790D01*
X83221Y-22415D02*
X83203Y-22396D01*
X83184Y-22359D01*
X83184Y-22265D01*
X83203Y-22228D01*
X83221Y-22209D01*
X83259Y-22190D01*
X83296Y-22190D01*
X83353Y-22209D01*
X83578Y-22434D01*
X83578Y-22190D01*
X63178Y-39790D02*
X62784Y-39790D01*
X62784Y-39640D01*
X62803Y-39603D01*
X62821Y-39584D01*
X62859Y-39565D01*
X62915Y-39565D01*
X62953Y-39584D01*
X62971Y-39603D01*
X62990Y-39640D01*
X62990Y-39790D01*
X62784Y-39434D02*
X62784Y-39190D01*
X62934Y-39321D01*
X62934Y-39265D01*
X62953Y-39228D01*
X62971Y-39209D01*
X63009Y-39190D01*
X63103Y-39190D01*
X63140Y-39209D01*
X63159Y-39228D01*
X63178Y-39265D01*
X63178Y-39378D01*
X63159Y-39415D01*
X63140Y-39434D01*
X63975Y-55359D02*
X64031Y-55378D01*
X64125Y-55378D01*
X64162Y-55359D01*
X64181Y-55340D01*
X64200Y-55303D01*
X64200Y-55265D01*
X64181Y-55228D01*
X64162Y-55209D01*
X64125Y-55190D01*
X64050Y-55171D01*
X64012Y-55153D01*
X63993Y-55134D01*
X63975Y-55096D01*
X63975Y-55059D01*
X63993Y-55021D01*
X64012Y-55003D01*
X64050Y-54984D01*
X64143Y-54984D01*
X64200Y-55003D01*
X64331Y-54984D02*
X64425Y-55378D01*
X64500Y-55096D01*
X64574Y-55378D01*
X64668Y-54984D01*
X64987Y-55115D02*
X64987Y-55378D01*
X64893Y-54965D02*
X64799Y-55246D01*
X65043Y-55246D01*
X63215Y-56059D02*
X63272Y-56078D01*
X63365Y-56078D01*
X63403Y-56059D01*
X63422Y-56040D01*
X63440Y-56003D01*
X63440Y-55965D01*
X63422Y-55928D01*
X63403Y-55909D01*
X63365Y-55890D01*
X63290Y-55871D01*
X63253Y-55853D01*
X63234Y-55834D01*
X63215Y-55796D01*
X63215Y-55759D01*
X63234Y-55721D01*
X63253Y-55703D01*
X63290Y-55684D01*
X63384Y-55684D01*
X63440Y-55703D01*
X63571Y-55684D02*
X63665Y-56078D01*
X63740Y-55796D01*
X63815Y-56078D01*
X63909Y-55684D01*
X63965Y-56115D02*
X64265Y-56115D01*
X64359Y-56078D02*
X64359Y-55684D01*
X64509Y-55684D01*
X64546Y-55703D01*
X64565Y-55721D01*
X64584Y-55759D01*
X64584Y-55815D01*
X64565Y-55853D01*
X64546Y-55871D01*
X64509Y-55890D01*
X64359Y-55890D01*
X64753Y-55684D02*
X64753Y-56003D01*
X64771Y-56040D01*
X64790Y-56059D01*
X64828Y-56078D01*
X64903Y-56078D01*
X64940Y-56059D01*
X64959Y-56040D01*
X64978Y-56003D01*
X64978Y-55684D01*
X65146Y-56059D02*
X65203Y-56078D01*
X65296Y-56078D01*
X65334Y-56059D01*
X65353Y-56040D01*
X65371Y-56003D01*
X65371Y-55965D01*
X65353Y-55928D01*
X65334Y-55909D01*
X65296Y-55890D01*
X65221Y-55871D01*
X65184Y-55853D01*
X65165Y-55834D01*
X65146Y-55796D01*
X65146Y-55759D01*
X65165Y-55721D01*
X65184Y-55703D01*
X65221Y-55684D01*
X65315Y-55684D01*
X65371Y-55703D01*
X65540Y-56078D02*
X65540Y-55684D01*
X65540Y-55871D02*
X65765Y-55871D01*
X65765Y-56078D02*
X65765Y-55684D01*
X47684Y-34640D02*
X47665Y-34659D01*
X47609Y-34678D01*
X47571Y-34678D01*
X47515Y-34659D01*
X47478Y-34621D01*
X47459Y-34584D01*
X47440Y-34509D01*
X47440Y-34453D01*
X47459Y-34378D01*
X47478Y-34340D01*
X47515Y-34303D01*
X47571Y-34284D01*
X47609Y-34284D01*
X47665Y-34303D01*
X47684Y-34321D01*
X47834Y-34321D02*
X47853Y-34303D01*
X47890Y-34284D01*
X47984Y-34284D01*
X48021Y-34303D01*
X48040Y-34321D01*
X48059Y-34359D01*
X48059Y-34396D01*
X48040Y-34453D01*
X47815Y-34678D01*
X48059Y-34678D01*
X37934Y-48140D02*
X37915Y-48159D01*
X37859Y-48178D01*
X37821Y-48178D01*
X37765Y-48159D01*
X37728Y-48121D01*
X37709Y-48084D01*
X37690Y-48009D01*
X37690Y-47953D01*
X37709Y-47878D01*
X37728Y-47840D01*
X37765Y-47803D01*
X37821Y-47784D01*
X37859Y-47784D01*
X37915Y-47803D01*
X37934Y-47821D01*
X38065Y-47784D02*
X38309Y-47784D01*
X38178Y-47934D01*
X38234Y-47934D01*
X38271Y-47953D01*
X38290Y-47971D01*
X38309Y-48009D01*
X38309Y-48103D01*
X38290Y-48140D01*
X38271Y-48159D01*
X38234Y-48178D01*
X38121Y-48178D01*
X38084Y-48159D01*
X38065Y-48140D01*
X33934Y-48140D02*
X33915Y-48159D01*
X33859Y-48178D01*
X33821Y-48178D01*
X33765Y-48159D01*
X33728Y-48121D01*
X33709Y-48084D01*
X33690Y-48009D01*
X33690Y-47953D01*
X33709Y-47878D01*
X33728Y-47840D01*
X33765Y-47803D01*
X33821Y-47784D01*
X33859Y-47784D01*
X33915Y-47803D01*
X33934Y-47821D01*
X34271Y-47915D02*
X34271Y-48178D01*
X34178Y-47765D02*
X34084Y-48046D01*
X34328Y-48046D01*
X40640Y-39065D02*
X40659Y-39084D01*
X40678Y-39140D01*
X40678Y-39178D01*
X40659Y-39234D01*
X40621Y-39271D01*
X40584Y-39290D01*
X40509Y-39309D01*
X40453Y-39309D01*
X40378Y-39290D01*
X40340Y-39271D01*
X40303Y-39234D01*
X40284Y-39178D01*
X40284Y-39140D01*
X40303Y-39084D01*
X40321Y-39065D01*
X40453Y-38840D02*
X40434Y-38878D01*
X40415Y-38896D01*
X40378Y-38915D01*
X40359Y-38915D01*
X40321Y-38896D01*
X40303Y-38878D01*
X40284Y-38840D01*
X40284Y-38765D01*
X40303Y-38728D01*
X40321Y-38709D01*
X40359Y-38690D01*
X40378Y-38690D01*
X40415Y-38709D01*
X40434Y-38728D01*
X40453Y-38765D01*
X40453Y-38840D01*
X40471Y-38878D01*
X40490Y-38896D01*
X40528Y-38915D01*
X40603Y-38915D01*
X40640Y-38896D01*
X40659Y-38878D01*
X40678Y-38840D01*
X40678Y-38765D01*
X40659Y-38728D01*
X40640Y-38709D01*
X40603Y-38690D01*
X40528Y-38690D01*
X40490Y-38709D01*
X40471Y-38728D01*
X40453Y-38765D01*
X45640Y-39262D02*
X45659Y-39281D01*
X45678Y-39337D01*
X45678Y-39374D01*
X45659Y-39431D01*
X45621Y-39468D01*
X45584Y-39487D01*
X45509Y-39506D01*
X45453Y-39506D01*
X45378Y-39487D01*
X45340Y-39468D01*
X45303Y-39431D01*
X45284Y-39374D01*
X45284Y-39337D01*
X45303Y-39281D01*
X45321Y-39262D01*
X45678Y-39093D02*
X45284Y-39093D01*
X45284Y-38943D01*
X45303Y-38906D01*
X45321Y-38887D01*
X45359Y-38868D01*
X45415Y-38868D01*
X45453Y-38887D01*
X45471Y-38906D01*
X45490Y-38943D01*
X45490Y-39093D01*
X45678Y-38493D02*
X45678Y-38718D01*
X45678Y-38606D02*
X45284Y-38606D01*
X45340Y-38643D01*
X45378Y-38681D01*
X45396Y-38718D01*
X37934Y-47140D02*
X37915Y-47159D01*
X37859Y-47178D01*
X37821Y-47178D01*
X37765Y-47159D01*
X37728Y-47121D01*
X37709Y-47084D01*
X37690Y-47009D01*
X37690Y-46953D01*
X37709Y-46878D01*
X37728Y-46840D01*
X37765Y-46803D01*
X37821Y-46784D01*
X37859Y-46784D01*
X37915Y-46803D01*
X37934Y-46821D01*
X38121Y-47178D02*
X38196Y-47178D01*
X38234Y-47159D01*
X38253Y-47140D01*
X38290Y-47084D01*
X38309Y-47009D01*
X38309Y-46859D01*
X38290Y-46821D01*
X38271Y-46803D01*
X38234Y-46784D01*
X38159Y-46784D01*
X38121Y-46803D01*
X38103Y-46821D01*
X38084Y-46859D01*
X38084Y-46953D01*
X38103Y-46990D01*
X38121Y-47009D01*
X38159Y-47028D01*
X38234Y-47028D01*
X38271Y-47009D01*
X38290Y-46990D01*
X38309Y-46953D01*
X69640Y-30253D02*
X69659Y-30271D01*
X69678Y-30328D01*
X69678Y-30365D01*
X69659Y-30421D01*
X69621Y-30459D01*
X69584Y-30478D01*
X69509Y-30496D01*
X69453Y-30496D01*
X69378Y-30478D01*
X69340Y-30459D01*
X69303Y-30421D01*
X69284Y-30365D01*
X69284Y-30328D01*
X69303Y-30271D01*
X69321Y-30253D01*
X69678Y-29878D02*
X69678Y-30103D01*
X69678Y-29990D02*
X69284Y-29990D01*
X69340Y-30028D01*
X69378Y-30065D01*
X69396Y-30103D01*
X69284Y-29634D02*
X69284Y-29596D01*
X69303Y-29559D01*
X69321Y-29540D01*
X69359Y-29521D01*
X69434Y-29503D01*
X69528Y-29503D01*
X69603Y-29521D01*
X69640Y-29540D01*
X69659Y-29559D01*
X69678Y-29596D01*
X69678Y-29634D01*
X69659Y-29671D01*
X69640Y-29690D01*
X69603Y-29709D01*
X69528Y-29728D01*
X69434Y-29728D01*
X69359Y-29709D01*
X69321Y-29690D01*
X69303Y-29671D01*
X69284Y-29634D01*
X70746Y-33140D02*
X70728Y-33159D01*
X70671Y-33178D01*
X70634Y-33178D01*
X70578Y-33159D01*
X70540Y-33121D01*
X70521Y-33084D01*
X70503Y-33009D01*
X70503Y-32953D01*
X70521Y-32878D01*
X70540Y-32840D01*
X70578Y-32803D01*
X70634Y-32784D01*
X70671Y-32784D01*
X70728Y-32803D01*
X70746Y-32821D01*
X71121Y-33178D02*
X70896Y-33178D01*
X71009Y-33178D02*
X71009Y-32784D01*
X70971Y-32840D01*
X70934Y-32878D01*
X70896Y-32896D01*
X71271Y-32821D02*
X71290Y-32803D01*
X71328Y-32784D01*
X71421Y-32784D01*
X71459Y-32803D01*
X71478Y-32821D01*
X71496Y-32859D01*
X71496Y-32896D01*
X71478Y-32953D01*
X71253Y-33178D01*
X71496Y-33178D01*
X75640Y-30253D02*
X75659Y-30271D01*
X75678Y-30328D01*
X75678Y-30365D01*
X75659Y-30421D01*
X75621Y-30459D01*
X75584Y-30478D01*
X75509Y-30496D01*
X75453Y-30496D01*
X75378Y-30478D01*
X75340Y-30459D01*
X75303Y-30421D01*
X75284Y-30365D01*
X75284Y-30328D01*
X75303Y-30271D01*
X75321Y-30253D01*
X75678Y-29878D02*
X75678Y-30103D01*
X75678Y-29990D02*
X75284Y-29990D01*
X75340Y-30028D01*
X75378Y-30065D01*
X75396Y-30103D01*
X75415Y-29540D02*
X75678Y-29540D01*
X75265Y-29634D02*
X75546Y-29728D01*
X75546Y-29484D01*
X72640Y-25753D02*
X72659Y-25771D01*
X72678Y-25828D01*
X72678Y-25865D01*
X72659Y-25921D01*
X72621Y-25959D01*
X72584Y-25978D01*
X72509Y-25996D01*
X72453Y-25996D01*
X72378Y-25978D01*
X72340Y-25959D01*
X72303Y-25921D01*
X72284Y-25865D01*
X72284Y-25828D01*
X72303Y-25771D01*
X72321Y-25753D01*
X72678Y-25378D02*
X72678Y-25603D01*
X72678Y-25490D02*
X72284Y-25490D01*
X72340Y-25528D01*
X72378Y-25565D01*
X72396Y-25603D01*
X72284Y-25021D02*
X72284Y-25209D01*
X72471Y-25228D01*
X72453Y-25209D01*
X72434Y-25171D01*
X72434Y-25078D01*
X72453Y-25040D01*
X72471Y-25021D01*
X72509Y-25003D01*
X72603Y-25003D01*
X72640Y-25021D01*
X72659Y-25040D01*
X72678Y-25078D01*
X72678Y-25171D01*
X72659Y-25209D01*
X72640Y-25228D01*
X75640Y-25753D02*
X75659Y-25771D01*
X75678Y-25828D01*
X75678Y-25865D01*
X75659Y-25921D01*
X75621Y-25959D01*
X75584Y-25978D01*
X75509Y-25996D01*
X75453Y-25996D01*
X75378Y-25978D01*
X75340Y-25959D01*
X75303Y-25921D01*
X75284Y-25865D01*
X75284Y-25828D01*
X75303Y-25771D01*
X75321Y-25753D01*
X75678Y-25378D02*
X75678Y-25603D01*
X75678Y-25490D02*
X75284Y-25490D01*
X75340Y-25528D01*
X75378Y-25565D01*
X75396Y-25603D01*
X75284Y-25040D02*
X75284Y-25115D01*
X75303Y-25153D01*
X75321Y-25171D01*
X75378Y-25209D01*
X75453Y-25228D01*
X75603Y-25228D01*
X75640Y-25209D01*
X75659Y-25190D01*
X75678Y-25153D01*
X75678Y-25078D01*
X75659Y-25040D01*
X75640Y-25021D01*
X75603Y-25003D01*
X75509Y-25003D01*
X75471Y-25021D01*
X75453Y-25040D01*
X75434Y-25078D01*
X75434Y-25153D01*
X75453Y-25190D01*
X75471Y-25209D01*
X75509Y-25228D01*
X57140Y-22253D02*
X57159Y-22271D01*
X57178Y-22328D01*
X57178Y-22365D01*
X57159Y-22421D01*
X57121Y-22459D01*
X57084Y-22478D01*
X57009Y-22496D01*
X56953Y-22496D01*
X56878Y-22478D01*
X56840Y-22459D01*
X56803Y-22421D01*
X56784Y-22365D01*
X56784Y-22328D01*
X56803Y-22271D01*
X56821Y-22253D01*
X57178Y-21878D02*
X57178Y-22103D01*
X57178Y-21990D02*
X56784Y-21990D01*
X56840Y-22028D01*
X56878Y-22065D01*
X56896Y-22103D01*
X56784Y-21746D02*
X56784Y-21484D01*
X57178Y-21653D01*
X69640Y-22253D02*
X69659Y-22271D01*
X69678Y-22328D01*
X69678Y-22365D01*
X69659Y-22421D01*
X69621Y-22459D01*
X69584Y-22478D01*
X69509Y-22496D01*
X69453Y-22496D01*
X69378Y-22478D01*
X69340Y-22459D01*
X69303Y-22421D01*
X69284Y-22365D01*
X69284Y-22328D01*
X69303Y-22271D01*
X69321Y-22253D01*
X69678Y-21878D02*
X69678Y-22103D01*
X69678Y-21990D02*
X69284Y-21990D01*
X69340Y-22028D01*
X69378Y-22065D01*
X69396Y-22103D01*
X69678Y-21690D02*
X69678Y-21615D01*
X69659Y-21578D01*
X69640Y-21559D01*
X69584Y-21521D01*
X69509Y-21503D01*
X69359Y-21503D01*
X69321Y-21521D01*
X69303Y-21540D01*
X69284Y-21578D01*
X69284Y-21653D01*
X69303Y-21690D01*
X69321Y-21709D01*
X69359Y-21728D01*
X69453Y-21728D01*
X69490Y-21709D01*
X69509Y-21690D01*
X69528Y-21653D01*
X69528Y-21578D01*
X69509Y-21540D01*
X69490Y-21521D01*
X69453Y-21503D01*
X55246Y-34640D02*
X55228Y-34659D01*
X55171Y-34678D01*
X55134Y-34678D01*
X55078Y-34659D01*
X55040Y-34621D01*
X55021Y-34584D01*
X55003Y-34509D01*
X55003Y-34453D01*
X55021Y-34378D01*
X55040Y-34340D01*
X55078Y-34303D01*
X55134Y-34284D01*
X55171Y-34284D01*
X55228Y-34303D01*
X55246Y-34321D01*
X55396Y-34321D02*
X55415Y-34303D01*
X55453Y-34284D01*
X55546Y-34284D01*
X55584Y-34303D01*
X55603Y-34321D01*
X55621Y-34359D01*
X55621Y-34396D01*
X55603Y-34453D01*
X55378Y-34678D01*
X55621Y-34678D01*
X55996Y-34678D02*
X55771Y-34678D01*
X55884Y-34678D02*
X55884Y-34284D01*
X55846Y-34340D01*
X55809Y-34378D01*
X55771Y-34396D01*
X62746Y-36640D02*
X62728Y-36659D01*
X62671Y-36678D01*
X62634Y-36678D01*
X62578Y-36659D01*
X62540Y-36621D01*
X62521Y-36584D01*
X62503Y-36509D01*
X62503Y-36453D01*
X62521Y-36378D01*
X62540Y-36340D01*
X62578Y-36303D01*
X62634Y-36284D01*
X62671Y-36284D01*
X62728Y-36303D01*
X62746Y-36321D01*
X62896Y-36321D02*
X62915Y-36303D01*
X62953Y-36284D01*
X63046Y-36284D01*
X63084Y-36303D01*
X63103Y-36321D01*
X63121Y-36359D01*
X63121Y-36396D01*
X63103Y-36453D01*
X62878Y-36678D01*
X63121Y-36678D01*
X63271Y-36321D02*
X63290Y-36303D01*
X63328Y-36284D01*
X63421Y-36284D01*
X63459Y-36303D01*
X63478Y-36321D01*
X63496Y-36359D01*
X63496Y-36396D01*
X63478Y-36453D01*
X63253Y-36678D01*
X63496Y-36678D01*
X62746Y-35640D02*
X62728Y-35659D01*
X62671Y-35678D01*
X62634Y-35678D01*
X62578Y-35659D01*
X62540Y-35621D01*
X62521Y-35584D01*
X62503Y-35509D01*
X62503Y-35453D01*
X62521Y-35378D01*
X62540Y-35340D01*
X62578Y-35303D01*
X62634Y-35284D01*
X62671Y-35284D01*
X62728Y-35303D01*
X62746Y-35321D01*
X62896Y-35321D02*
X62915Y-35303D01*
X62953Y-35284D01*
X63046Y-35284D01*
X63084Y-35303D01*
X63103Y-35321D01*
X63121Y-35359D01*
X63121Y-35396D01*
X63103Y-35453D01*
X62878Y-35678D01*
X63121Y-35678D01*
X63253Y-35284D02*
X63496Y-35284D01*
X63365Y-35434D01*
X63421Y-35434D01*
X63459Y-35453D01*
X63478Y-35471D01*
X63496Y-35509D01*
X63496Y-35603D01*
X63478Y-35640D01*
X63459Y-35659D01*
X63421Y-35678D01*
X63309Y-35678D01*
X63271Y-35659D01*
X63253Y-35640D01*
X29253Y-59103D02*
X29253Y-58709D01*
X29384Y-58990D01*
X29515Y-58709D01*
X29515Y-59103D01*
X29759Y-59103D02*
X29722Y-59084D01*
X29703Y-59065D01*
X29684Y-59028D01*
X29684Y-58915D01*
X29703Y-58878D01*
X29722Y-58859D01*
X29759Y-58840D01*
X29815Y-58840D01*
X29853Y-58859D01*
X29872Y-58878D01*
X29890Y-58915D01*
X29890Y-59028D01*
X29872Y-59065D01*
X29853Y-59084D01*
X29815Y-59103D01*
X29759Y-59103D01*
X30228Y-58840D02*
X30228Y-59103D01*
X30059Y-58840D02*
X30059Y-59046D01*
X30078Y-59084D01*
X30115Y-59103D01*
X30172Y-59103D01*
X30209Y-59084D01*
X30228Y-59065D01*
X30415Y-58840D02*
X30415Y-59103D01*
X30415Y-58878D02*
X30434Y-58859D01*
X30472Y-58840D01*
X30528Y-58840D01*
X30565Y-58859D01*
X30584Y-58896D01*
X30584Y-59103D01*
X30715Y-58840D02*
X30865Y-58840D01*
X30772Y-58709D02*
X30772Y-59046D01*
X30790Y-59084D01*
X30828Y-59103D01*
X30865Y-59103D01*
X30997Y-59103D02*
X30997Y-58840D01*
X30997Y-58709D02*
X30978Y-58728D01*
X30997Y-58746D01*
X31015Y-58728D01*
X30997Y-58709D01*
X30997Y-58746D01*
X31184Y-58840D02*
X31184Y-59103D01*
X31184Y-58878D02*
X31203Y-58859D01*
X31240Y-58840D01*
X31296Y-58840D01*
X31334Y-58859D01*
X31353Y-58896D01*
X31353Y-59103D01*
X31709Y-58840D02*
X31709Y-59159D01*
X31690Y-59196D01*
X31671Y-59215D01*
X31634Y-59234D01*
X31578Y-59234D01*
X31540Y-59215D01*
X31709Y-59084D02*
X31671Y-59103D01*
X31596Y-59103D01*
X31559Y-59084D01*
X31540Y-59065D01*
X31521Y-59028D01*
X31521Y-58915D01*
X31540Y-58878D01*
X31559Y-58859D01*
X31596Y-58840D01*
X31671Y-58840D01*
X31709Y-58859D01*
X31896Y-59103D02*
X31896Y-58709D01*
X31896Y-58896D02*
X32121Y-58896D01*
X32121Y-59103D02*
X32121Y-58709D01*
X32365Y-59103D02*
X32328Y-59084D01*
X32309Y-59065D01*
X32290Y-59028D01*
X32290Y-58915D01*
X32309Y-58878D01*
X32328Y-58859D01*
X32365Y-58840D01*
X32421Y-58840D01*
X32459Y-58859D01*
X32478Y-58878D01*
X32496Y-58915D01*
X32496Y-59028D01*
X32478Y-59065D01*
X32459Y-59084D01*
X32421Y-59103D01*
X32365Y-59103D01*
X32721Y-59103D02*
X32684Y-59084D01*
X32665Y-59046D01*
X32665Y-58709D01*
X33021Y-59084D02*
X32984Y-59103D01*
X32909Y-59103D01*
X32871Y-59084D01*
X32853Y-59046D01*
X32853Y-58896D01*
X32871Y-58859D01*
X32909Y-58840D01*
X32984Y-58840D01*
X33021Y-58859D01*
X33040Y-58896D01*
X33040Y-58934D01*
X32853Y-58971D01*
X33115Y-59140D02*
X33415Y-59140D01*
X33471Y-58709D02*
X33715Y-58709D01*
X33584Y-58859D01*
X33640Y-58859D01*
X33677Y-58878D01*
X33696Y-58896D01*
X33715Y-58934D01*
X33715Y-59028D01*
X33696Y-59065D01*
X33677Y-59084D01*
X33640Y-59103D01*
X33527Y-59103D01*
X33490Y-59084D01*
X33471Y-59065D01*
X33884Y-59103D02*
X33884Y-58840D01*
X33884Y-58878D02*
X33902Y-58859D01*
X33940Y-58840D01*
X33996Y-58840D01*
X34034Y-58859D01*
X34052Y-58896D01*
X34052Y-59103D01*
X34052Y-58896D02*
X34071Y-58859D01*
X34109Y-58840D01*
X34165Y-58840D01*
X34202Y-58859D01*
X34221Y-58896D01*
X34221Y-59103D01*
X34409Y-59103D02*
X34409Y-58840D01*
X34409Y-58878D02*
X34427Y-58859D01*
X34465Y-58840D01*
X34521Y-58840D01*
X34559Y-58859D01*
X34577Y-58896D01*
X34577Y-59103D01*
X34577Y-58896D02*
X34596Y-58859D01*
X34634Y-58840D01*
X34690Y-58840D01*
X34727Y-58859D01*
X34746Y-58896D01*
X34746Y-59103D01*
X29253Y-16603D02*
X29253Y-16209D01*
X29384Y-16490D01*
X29515Y-16209D01*
X29515Y-16603D01*
X29759Y-16603D02*
X29722Y-16584D01*
X29703Y-16565D01*
X29684Y-16528D01*
X29684Y-16415D01*
X29703Y-16378D01*
X29722Y-16359D01*
X29759Y-16340D01*
X29815Y-16340D01*
X29853Y-16359D01*
X29872Y-16378D01*
X29890Y-16415D01*
X29890Y-16528D01*
X29872Y-16565D01*
X29853Y-16584D01*
X29815Y-16603D01*
X29759Y-16603D01*
X30228Y-16340D02*
X30228Y-16603D01*
X30059Y-16340D02*
X30059Y-16546D01*
X30078Y-16584D01*
X30115Y-16603D01*
X30172Y-16603D01*
X30209Y-16584D01*
X30228Y-16565D01*
X30415Y-16340D02*
X30415Y-16603D01*
X30415Y-16378D02*
X30434Y-16359D01*
X30472Y-16340D01*
X30528Y-16340D01*
X30565Y-16359D01*
X30584Y-16396D01*
X30584Y-16603D01*
X30715Y-16340D02*
X30865Y-16340D01*
X30772Y-16209D02*
X30772Y-16546D01*
X30790Y-16584D01*
X30828Y-16603D01*
X30865Y-16603D01*
X30997Y-16603D02*
X30997Y-16340D01*
X30997Y-16209D02*
X30978Y-16228D01*
X30997Y-16246D01*
X31015Y-16228D01*
X30997Y-16209D01*
X30997Y-16246D01*
X31184Y-16340D02*
X31184Y-16603D01*
X31184Y-16378D02*
X31203Y-16359D01*
X31240Y-16340D01*
X31296Y-16340D01*
X31334Y-16359D01*
X31353Y-16396D01*
X31353Y-16603D01*
X31709Y-16340D02*
X31709Y-16659D01*
X31690Y-16696D01*
X31671Y-16715D01*
X31634Y-16734D01*
X31578Y-16734D01*
X31540Y-16715D01*
X31709Y-16584D02*
X31671Y-16603D01*
X31596Y-16603D01*
X31559Y-16584D01*
X31540Y-16565D01*
X31521Y-16528D01*
X31521Y-16415D01*
X31540Y-16378D01*
X31559Y-16359D01*
X31596Y-16340D01*
X31671Y-16340D01*
X31709Y-16359D01*
X31896Y-16603D02*
X31896Y-16209D01*
X31896Y-16396D02*
X32121Y-16396D01*
X32121Y-16603D02*
X32121Y-16209D01*
X32365Y-16603D02*
X32328Y-16584D01*
X32309Y-16565D01*
X32290Y-16528D01*
X32290Y-16415D01*
X32309Y-16378D01*
X32328Y-16359D01*
X32365Y-16340D01*
X32421Y-16340D01*
X32459Y-16359D01*
X32478Y-16378D01*
X32496Y-16415D01*
X32496Y-16528D01*
X32478Y-16565D01*
X32459Y-16584D01*
X32421Y-16603D01*
X32365Y-16603D01*
X32721Y-16603D02*
X32684Y-16584D01*
X32665Y-16546D01*
X32665Y-16209D01*
X33021Y-16584D02*
X32984Y-16603D01*
X32909Y-16603D01*
X32871Y-16584D01*
X32853Y-16546D01*
X32853Y-16396D01*
X32871Y-16359D01*
X32909Y-16340D01*
X32984Y-16340D01*
X33021Y-16359D01*
X33040Y-16396D01*
X33040Y-16434D01*
X32853Y-16471D01*
X33115Y-16640D02*
X33415Y-16640D01*
X33471Y-16209D02*
X33715Y-16209D01*
X33584Y-16359D01*
X33640Y-16359D01*
X33677Y-16378D01*
X33696Y-16396D01*
X33715Y-16434D01*
X33715Y-16528D01*
X33696Y-16565D01*
X33677Y-16584D01*
X33640Y-16603D01*
X33527Y-16603D01*
X33490Y-16584D01*
X33471Y-16565D01*
X33884Y-16603D02*
X33884Y-16340D01*
X33884Y-16378D02*
X33902Y-16359D01*
X33940Y-16340D01*
X33996Y-16340D01*
X34034Y-16359D01*
X34052Y-16396D01*
X34052Y-16603D01*
X34052Y-16396D02*
X34071Y-16359D01*
X34109Y-16340D01*
X34165Y-16340D01*
X34202Y-16359D01*
X34221Y-16396D01*
X34221Y-16603D01*
X34409Y-16603D02*
X34409Y-16340D01*
X34409Y-16378D02*
X34427Y-16359D01*
X34465Y-16340D01*
X34521Y-16340D01*
X34559Y-16359D01*
X34577Y-16396D01*
X34577Y-16603D01*
X34577Y-16396D02*
X34596Y-16359D01*
X34634Y-16340D01*
X34690Y-16340D01*
X34727Y-16359D01*
X34746Y-16396D01*
X34746Y-16603D01*
X80253Y-16603D02*
X80253Y-16209D01*
X80384Y-16490D01*
X80515Y-16209D01*
X80515Y-16603D01*
X80759Y-16603D02*
X80722Y-16584D01*
X80703Y-16565D01*
X80684Y-16528D01*
X80684Y-16415D01*
X80703Y-16378D01*
X80722Y-16359D01*
X80759Y-16340D01*
X80815Y-16340D01*
X80853Y-16359D01*
X80872Y-16378D01*
X80890Y-16415D01*
X80890Y-16528D01*
X80872Y-16565D01*
X80853Y-16584D01*
X80815Y-16603D01*
X80759Y-16603D01*
X81228Y-16340D02*
X81228Y-16603D01*
X81059Y-16340D02*
X81059Y-16546D01*
X81078Y-16584D01*
X81115Y-16603D01*
X81172Y-16603D01*
X81209Y-16584D01*
X81228Y-16565D01*
X81415Y-16340D02*
X81415Y-16603D01*
X81415Y-16378D02*
X81434Y-16359D01*
X81472Y-16340D01*
X81528Y-16340D01*
X81565Y-16359D01*
X81584Y-16396D01*
X81584Y-16603D01*
X81715Y-16340D02*
X81865Y-16340D01*
X81772Y-16209D02*
X81772Y-16546D01*
X81790Y-16584D01*
X81828Y-16603D01*
X81865Y-16603D01*
X81997Y-16603D02*
X81997Y-16340D01*
X81997Y-16209D02*
X81978Y-16228D01*
X81997Y-16246D01*
X82015Y-16228D01*
X81997Y-16209D01*
X81997Y-16246D01*
X82184Y-16340D02*
X82184Y-16603D01*
X82184Y-16378D02*
X82203Y-16359D01*
X82240Y-16340D01*
X82296Y-16340D01*
X82334Y-16359D01*
X82353Y-16396D01*
X82353Y-16603D01*
X82709Y-16340D02*
X82709Y-16659D01*
X82690Y-16696D01*
X82671Y-16715D01*
X82634Y-16734D01*
X82578Y-16734D01*
X82540Y-16715D01*
X82709Y-16584D02*
X82671Y-16603D01*
X82596Y-16603D01*
X82559Y-16584D01*
X82540Y-16565D01*
X82521Y-16528D01*
X82521Y-16415D01*
X82540Y-16378D01*
X82559Y-16359D01*
X82596Y-16340D01*
X82671Y-16340D01*
X82709Y-16359D01*
X82896Y-16603D02*
X82896Y-16209D01*
X82896Y-16396D02*
X83121Y-16396D01*
X83121Y-16603D02*
X83121Y-16209D01*
X83365Y-16603D02*
X83328Y-16584D01*
X83309Y-16565D01*
X83290Y-16528D01*
X83290Y-16415D01*
X83309Y-16378D01*
X83328Y-16359D01*
X83365Y-16340D01*
X83421Y-16340D01*
X83459Y-16359D01*
X83478Y-16378D01*
X83496Y-16415D01*
X83496Y-16528D01*
X83478Y-16565D01*
X83459Y-16584D01*
X83421Y-16603D01*
X83365Y-16603D01*
X83721Y-16603D02*
X83684Y-16584D01*
X83665Y-16546D01*
X83665Y-16209D01*
X84021Y-16584D02*
X83984Y-16603D01*
X83909Y-16603D01*
X83871Y-16584D01*
X83853Y-16546D01*
X83853Y-16396D01*
X83871Y-16359D01*
X83909Y-16340D01*
X83984Y-16340D01*
X84021Y-16359D01*
X84040Y-16396D01*
X84040Y-16434D01*
X83853Y-16471D01*
X84115Y-16640D02*
X84415Y-16640D01*
X84471Y-16209D02*
X84715Y-16209D01*
X84584Y-16359D01*
X84640Y-16359D01*
X84677Y-16378D01*
X84696Y-16396D01*
X84715Y-16434D01*
X84715Y-16528D01*
X84696Y-16565D01*
X84677Y-16584D01*
X84640Y-16603D01*
X84527Y-16603D01*
X84490Y-16584D01*
X84471Y-16565D01*
X84884Y-16603D02*
X84884Y-16340D01*
X84884Y-16378D02*
X84902Y-16359D01*
X84940Y-16340D01*
X84996Y-16340D01*
X85034Y-16359D01*
X85052Y-16396D01*
X85052Y-16603D01*
X85052Y-16396D02*
X85071Y-16359D01*
X85109Y-16340D01*
X85165Y-16340D01*
X85202Y-16359D01*
X85221Y-16396D01*
X85221Y-16603D01*
X85409Y-16603D02*
X85409Y-16340D01*
X85409Y-16378D02*
X85427Y-16359D01*
X85465Y-16340D01*
X85521Y-16340D01*
X85559Y-16359D01*
X85577Y-16396D01*
X85577Y-16603D01*
X85577Y-16396D02*
X85596Y-16359D01*
X85634Y-16340D01*
X85690Y-16340D01*
X85727Y-16359D01*
X85746Y-16396D01*
X85746Y-16603D01*
X80253Y-59103D02*
X80253Y-58709D01*
X80384Y-58990D01*
X80515Y-58709D01*
X80515Y-59103D01*
X80759Y-59103D02*
X80722Y-59084D01*
X80703Y-59065D01*
X80684Y-59028D01*
X80684Y-58915D01*
X80703Y-58878D01*
X80722Y-58859D01*
X80759Y-58840D01*
X80815Y-58840D01*
X80853Y-58859D01*
X80872Y-58878D01*
X80890Y-58915D01*
X80890Y-59028D01*
X80872Y-59065D01*
X80853Y-59084D01*
X80815Y-59103D01*
X80759Y-59103D01*
X81228Y-58840D02*
X81228Y-59103D01*
X81059Y-58840D02*
X81059Y-59046D01*
X81078Y-59084D01*
X81115Y-59103D01*
X81172Y-59103D01*
X81209Y-59084D01*
X81228Y-59065D01*
X81415Y-58840D02*
X81415Y-59103D01*
X81415Y-58878D02*
X81434Y-58859D01*
X81472Y-58840D01*
X81528Y-58840D01*
X81565Y-58859D01*
X81584Y-58896D01*
X81584Y-59103D01*
X81715Y-58840D02*
X81865Y-58840D01*
X81772Y-58709D02*
X81772Y-59046D01*
X81790Y-59084D01*
X81828Y-59103D01*
X81865Y-59103D01*
X81997Y-59103D02*
X81997Y-58840D01*
X81997Y-58709D02*
X81978Y-58728D01*
X81997Y-58746D01*
X82015Y-58728D01*
X81997Y-58709D01*
X81997Y-58746D01*
X82184Y-58840D02*
X82184Y-59103D01*
X82184Y-58878D02*
X82203Y-58859D01*
X82240Y-58840D01*
X82296Y-58840D01*
X82334Y-58859D01*
X82353Y-58896D01*
X82353Y-59103D01*
X82709Y-58840D02*
X82709Y-59159D01*
X82690Y-59196D01*
X82671Y-59215D01*
X82634Y-59234D01*
X82578Y-59234D01*
X82540Y-59215D01*
X82709Y-59084D02*
X82671Y-59103D01*
X82596Y-59103D01*
X82559Y-59084D01*
X82540Y-59065D01*
X82521Y-59028D01*
X82521Y-58915D01*
X82540Y-58878D01*
X82559Y-58859D01*
X82596Y-58840D01*
X82671Y-58840D01*
X82709Y-58859D01*
X82896Y-59103D02*
X82896Y-58709D01*
X82896Y-58896D02*
X83121Y-58896D01*
X83121Y-59103D02*
X83121Y-58709D01*
X83365Y-59103D02*
X83328Y-59084D01*
X83309Y-59065D01*
X83290Y-59028D01*
X83290Y-58915D01*
X83309Y-58878D01*
X83328Y-58859D01*
X83365Y-58840D01*
X83421Y-58840D01*
X83459Y-58859D01*
X83478Y-58878D01*
X83496Y-58915D01*
X83496Y-59028D01*
X83478Y-59065D01*
X83459Y-59084D01*
X83421Y-59103D01*
X83365Y-59103D01*
X83721Y-59103D02*
X83684Y-59084D01*
X83665Y-59046D01*
X83665Y-58709D01*
X84021Y-59084D02*
X83984Y-59103D01*
X83909Y-59103D01*
X83871Y-59084D01*
X83853Y-59046D01*
X83853Y-58896D01*
X83871Y-58859D01*
X83909Y-58840D01*
X83984Y-58840D01*
X84021Y-58859D01*
X84040Y-58896D01*
X84040Y-58934D01*
X83853Y-58971D01*
X84115Y-59140D02*
X84415Y-59140D01*
X84471Y-58709D02*
X84715Y-58709D01*
X84584Y-58859D01*
X84640Y-58859D01*
X84677Y-58878D01*
X84696Y-58896D01*
X84715Y-58934D01*
X84715Y-59028D01*
X84696Y-59065D01*
X84677Y-59084D01*
X84640Y-59103D01*
X84527Y-59103D01*
X84490Y-59084D01*
X84471Y-59065D01*
X84884Y-59103D02*
X84884Y-58840D01*
X84884Y-58878D02*
X84902Y-58859D01*
X84940Y-58840D01*
X84996Y-58840D01*
X85034Y-58859D01*
X85052Y-58896D01*
X85052Y-59103D01*
X85052Y-58896D02*
X85071Y-58859D01*
X85109Y-58840D01*
X85165Y-58840D01*
X85202Y-58859D01*
X85221Y-58896D01*
X85221Y-59103D01*
X85409Y-59103D02*
X85409Y-58840D01*
X85409Y-58878D02*
X85427Y-58859D01*
X85465Y-58840D01*
X85521Y-58840D01*
X85559Y-58859D01*
X85577Y-58896D01*
X85577Y-59103D01*
X85577Y-58896D02*
X85596Y-58859D01*
X85634Y-58840D01*
X85690Y-58840D01*
X85727Y-58859D01*
X85746Y-58896D01*
X85746Y-59103D01*
X51646Y-38040D02*
X51628Y-38059D01*
X51571Y-38078D01*
X51534Y-38078D01*
X51478Y-38059D01*
X51440Y-38021D01*
X51421Y-37984D01*
X51403Y-37909D01*
X51403Y-37853D01*
X51421Y-37778D01*
X51440Y-37740D01*
X51478Y-37703D01*
X51534Y-37684D01*
X51571Y-37684D01*
X51628Y-37703D01*
X51646Y-37721D01*
X51796Y-37721D02*
X51815Y-37703D01*
X51853Y-37684D01*
X51946Y-37684D01*
X51984Y-37703D01*
X52003Y-37721D01*
X52021Y-37759D01*
X52021Y-37796D01*
X52003Y-37853D01*
X51778Y-38078D01*
X52021Y-38078D01*
X52359Y-37815D02*
X52359Y-38078D01*
X52265Y-37665D02*
X52171Y-37946D01*
X52415Y-37946D01*
X51646Y-40040D02*
X51628Y-40059D01*
X51571Y-40078D01*
X51534Y-40078D01*
X51478Y-40059D01*
X51440Y-40021D01*
X51421Y-39984D01*
X51403Y-39909D01*
X51403Y-39853D01*
X51421Y-39778D01*
X51440Y-39740D01*
X51478Y-39703D01*
X51534Y-39684D01*
X51571Y-39684D01*
X51628Y-39703D01*
X51646Y-39721D01*
X51796Y-39721D02*
X51815Y-39703D01*
X51853Y-39684D01*
X51946Y-39684D01*
X51984Y-39703D01*
X52003Y-39721D01*
X52021Y-39759D01*
X52021Y-39796D01*
X52003Y-39853D01*
X51778Y-40078D01*
X52021Y-40078D01*
X52378Y-39684D02*
X52190Y-39684D01*
X52171Y-39871D01*
X52190Y-39853D01*
X52228Y-39834D01*
X52321Y-39834D01*
X52359Y-39853D01*
X52378Y-39871D01*
X52396Y-39909D01*
X52396Y-40003D01*
X52378Y-40040D01*
X52359Y-40059D01*
X52321Y-40078D01*
X52228Y-40078D01*
X52190Y-40059D01*
X52171Y-40040D01*
X50209Y-53178D02*
X50209Y-52784D01*
X50303Y-52784D01*
X50359Y-52803D01*
X50396Y-52840D01*
X50415Y-52878D01*
X50434Y-52953D01*
X50434Y-53009D01*
X50415Y-53084D01*
X50396Y-53121D01*
X50359Y-53159D01*
X50303Y-53178D01*
X50209Y-53178D01*
X50565Y-52784D02*
X50828Y-52784D01*
X50659Y-53178D01*
X43209Y-53178D02*
X43209Y-52784D01*
X43303Y-52784D01*
X43359Y-52803D01*
X43396Y-52840D01*
X43415Y-52878D01*
X43434Y-52953D01*
X43434Y-53009D01*
X43415Y-53084D01*
X43396Y-53121D01*
X43359Y-53159D01*
X43303Y-53178D01*
X43209Y-53178D01*
X43659Y-52953D02*
X43621Y-52934D01*
X43603Y-52915D01*
X43584Y-52878D01*
X43584Y-52859D01*
X43603Y-52821D01*
X43621Y-52803D01*
X43659Y-52784D01*
X43734Y-52784D01*
X43771Y-52803D01*
X43790Y-52821D01*
X43809Y-52859D01*
X43809Y-52878D01*
X43790Y-52915D01*
X43771Y-52934D01*
X43734Y-52953D01*
X43659Y-52953D01*
X43621Y-52971D01*
X43603Y-52990D01*
X43584Y-53028D01*
X43584Y-53103D01*
X43603Y-53140D01*
X43621Y-53159D01*
X43659Y-53178D01*
X43734Y-53178D01*
X43771Y-53159D01*
X43790Y-53140D01*
X43809Y-53103D01*
X43809Y-53028D01*
X43790Y-52990D01*
X43771Y-52971D01*
X43734Y-52953D01*
X36209Y-53178D02*
X36209Y-52784D01*
X36303Y-52784D01*
X36359Y-52803D01*
X36396Y-52840D01*
X36415Y-52878D01*
X36434Y-52953D01*
X36434Y-53009D01*
X36415Y-53084D01*
X36396Y-53121D01*
X36359Y-53159D01*
X36303Y-53178D01*
X36209Y-53178D01*
X36621Y-53178D02*
X36696Y-53178D01*
X36734Y-53159D01*
X36753Y-53140D01*
X36790Y-53084D01*
X36809Y-53009D01*
X36809Y-52859D01*
X36790Y-52821D01*
X36771Y-52803D01*
X36734Y-52784D01*
X36659Y-52784D01*
X36621Y-52803D01*
X36603Y-52821D01*
X36584Y-52859D01*
X36584Y-52953D01*
X36603Y-52990D01*
X36621Y-53009D01*
X36659Y-53028D01*
X36734Y-53028D01*
X36771Y-53009D01*
X36790Y-52990D01*
X36809Y-52953D01*
X54121Y-51728D02*
X53990Y-51540D01*
X53896Y-51728D02*
X53896Y-51334D01*
X54046Y-51334D01*
X54084Y-51353D01*
X54103Y-51371D01*
X54121Y-51409D01*
X54121Y-51465D01*
X54103Y-51503D01*
X54084Y-51521D01*
X54046Y-51540D01*
X53896Y-51540D01*
X47121Y-51728D02*
X46990Y-51540D01*
X46896Y-51728D02*
X46896Y-51334D01*
X47046Y-51334D01*
X47084Y-51353D01*
X47103Y-51371D01*
X47121Y-51409D01*
X47121Y-51465D01*
X47103Y-51503D01*
X47084Y-51521D01*
X47046Y-51540D01*
X46896Y-51540D01*
X40121Y-51728D02*
X39990Y-51540D01*
X39896Y-51728D02*
X39896Y-51334D01*
X40046Y-51334D01*
X40084Y-51353D01*
X40103Y-51371D01*
X40121Y-51409D01*
X40121Y-51465D01*
X40103Y-51503D01*
X40084Y-51521D01*
X40046Y-51540D01*
X39896Y-51540D01*
X49975Y-55359D02*
X50031Y-55378D01*
X50125Y-55378D01*
X50162Y-55359D01*
X50181Y-55340D01*
X50200Y-55303D01*
X50200Y-55265D01*
X50181Y-55228D01*
X50162Y-55209D01*
X50125Y-55190D01*
X50050Y-55171D01*
X50012Y-55153D01*
X49993Y-55134D01*
X49975Y-55096D01*
X49975Y-55059D01*
X49993Y-55021D01*
X50012Y-55003D01*
X50050Y-54984D01*
X50143Y-54984D01*
X50200Y-55003D01*
X50331Y-54984D02*
X50425Y-55378D01*
X50500Y-55096D01*
X50574Y-55378D01*
X50668Y-54984D01*
X51006Y-54984D02*
X50818Y-54984D01*
X50799Y-55171D01*
X50818Y-55153D01*
X50856Y-55134D01*
X50949Y-55134D01*
X50987Y-55153D01*
X51006Y-55171D01*
X51024Y-55209D01*
X51024Y-55303D01*
X51006Y-55340D01*
X50987Y-55359D01*
X50949Y-55378D01*
X50856Y-55378D01*
X50818Y-55359D01*
X50799Y-55340D01*
X49065Y-55959D02*
X49122Y-55978D01*
X49215Y-55978D01*
X49253Y-55959D01*
X49272Y-55940D01*
X49290Y-55903D01*
X49290Y-55865D01*
X49272Y-55828D01*
X49253Y-55809D01*
X49215Y-55790D01*
X49140Y-55771D01*
X49103Y-55753D01*
X49084Y-55734D01*
X49065Y-55696D01*
X49065Y-55659D01*
X49084Y-55621D01*
X49103Y-55603D01*
X49140Y-55584D01*
X49234Y-55584D01*
X49290Y-55603D01*
X49421Y-55584D02*
X49515Y-55978D01*
X49590Y-55696D01*
X49665Y-55978D01*
X49759Y-55584D01*
X49815Y-56015D02*
X50115Y-56015D01*
X50209Y-55978D02*
X50209Y-55584D01*
X50359Y-55584D01*
X50396Y-55603D01*
X50415Y-55621D01*
X50434Y-55659D01*
X50434Y-55715D01*
X50415Y-55753D01*
X50396Y-55771D01*
X50359Y-55790D01*
X50209Y-55790D01*
X50603Y-55584D02*
X50603Y-55903D01*
X50621Y-55940D01*
X50640Y-55959D01*
X50678Y-55978D01*
X50753Y-55978D01*
X50790Y-55959D01*
X50809Y-55940D01*
X50828Y-55903D01*
X50828Y-55584D01*
X50996Y-55959D02*
X51053Y-55978D01*
X51146Y-55978D01*
X51184Y-55959D01*
X51203Y-55940D01*
X51221Y-55903D01*
X51221Y-55865D01*
X51203Y-55828D01*
X51184Y-55809D01*
X51146Y-55790D01*
X51071Y-55771D01*
X51034Y-55753D01*
X51015Y-55734D01*
X50996Y-55696D01*
X50996Y-55659D01*
X51015Y-55621D01*
X51034Y-55603D01*
X51071Y-55584D01*
X51165Y-55584D01*
X51221Y-55603D01*
X51390Y-55978D02*
X51390Y-55584D01*
X51390Y-55771D02*
X51615Y-55771D01*
X51615Y-55978D02*
X51615Y-55584D01*
X42975Y-55359D02*
X43031Y-55378D01*
X43125Y-55378D01*
X43162Y-55359D01*
X43181Y-55340D01*
X43200Y-55303D01*
X43200Y-55265D01*
X43181Y-55228D01*
X43162Y-55209D01*
X43125Y-55190D01*
X43050Y-55171D01*
X43012Y-55153D01*
X42993Y-55134D01*
X42975Y-55096D01*
X42975Y-55059D01*
X42993Y-55021D01*
X43012Y-55003D01*
X43050Y-54984D01*
X43143Y-54984D01*
X43200Y-55003D01*
X43331Y-54984D02*
X43425Y-55378D01*
X43500Y-55096D01*
X43574Y-55378D01*
X43668Y-54984D01*
X43987Y-54984D02*
X43912Y-54984D01*
X43874Y-55003D01*
X43856Y-55021D01*
X43818Y-55078D01*
X43799Y-55153D01*
X43799Y-55303D01*
X43818Y-55340D01*
X43837Y-55359D01*
X43874Y-55378D01*
X43949Y-55378D01*
X43987Y-55359D01*
X44006Y-55340D01*
X44024Y-55303D01*
X44024Y-55209D01*
X44006Y-55171D01*
X43987Y-55153D01*
X43949Y-55134D01*
X43874Y-55134D01*
X43837Y-55153D01*
X43818Y-55171D01*
X43799Y-55209D01*
X42215Y-56059D02*
X42272Y-56078D01*
X42365Y-56078D01*
X42403Y-56059D01*
X42422Y-56040D01*
X42440Y-56003D01*
X42440Y-55965D01*
X42422Y-55928D01*
X42403Y-55909D01*
X42365Y-55890D01*
X42290Y-55871D01*
X42253Y-55853D01*
X42234Y-55834D01*
X42215Y-55796D01*
X42215Y-55759D01*
X42234Y-55721D01*
X42253Y-55703D01*
X42290Y-55684D01*
X42384Y-55684D01*
X42440Y-55703D01*
X42571Y-55684D02*
X42665Y-56078D01*
X42740Y-55796D01*
X42815Y-56078D01*
X42909Y-55684D01*
X42965Y-56115D02*
X43265Y-56115D01*
X43359Y-56078D02*
X43359Y-55684D01*
X43509Y-55684D01*
X43546Y-55703D01*
X43565Y-55721D01*
X43584Y-55759D01*
X43584Y-55815D01*
X43565Y-55853D01*
X43546Y-55871D01*
X43509Y-55890D01*
X43359Y-55890D01*
X43753Y-55684D02*
X43753Y-56003D01*
X43771Y-56040D01*
X43790Y-56059D01*
X43828Y-56078D01*
X43903Y-56078D01*
X43940Y-56059D01*
X43959Y-56040D01*
X43978Y-56003D01*
X43978Y-55684D01*
X44146Y-56059D02*
X44203Y-56078D01*
X44296Y-56078D01*
X44334Y-56059D01*
X44353Y-56040D01*
X44371Y-56003D01*
X44371Y-55965D01*
X44353Y-55928D01*
X44334Y-55909D01*
X44296Y-55890D01*
X44221Y-55871D01*
X44184Y-55853D01*
X44165Y-55834D01*
X44146Y-55796D01*
X44146Y-55759D01*
X44165Y-55721D01*
X44184Y-55703D01*
X44221Y-55684D01*
X44315Y-55684D01*
X44371Y-55703D01*
X44540Y-56078D02*
X44540Y-55684D01*
X44540Y-55871D02*
X44765Y-55871D01*
X44765Y-56078D02*
X44765Y-55684D01*
X35975Y-55359D02*
X36031Y-55378D01*
X36125Y-55378D01*
X36162Y-55359D01*
X36181Y-55340D01*
X36200Y-55303D01*
X36200Y-55265D01*
X36181Y-55228D01*
X36162Y-55209D01*
X36125Y-55190D01*
X36050Y-55171D01*
X36012Y-55153D01*
X35993Y-55134D01*
X35975Y-55096D01*
X35975Y-55059D01*
X35993Y-55021D01*
X36012Y-55003D01*
X36050Y-54984D01*
X36143Y-54984D01*
X36200Y-55003D01*
X36331Y-54984D02*
X36425Y-55378D01*
X36500Y-55096D01*
X36574Y-55378D01*
X36668Y-54984D01*
X36781Y-54984D02*
X37043Y-54984D01*
X36874Y-55378D01*
X35215Y-56059D02*
X35272Y-56078D01*
X35365Y-56078D01*
X35403Y-56059D01*
X35422Y-56040D01*
X35440Y-56003D01*
X35440Y-55965D01*
X35422Y-55928D01*
X35403Y-55909D01*
X35365Y-55890D01*
X35290Y-55871D01*
X35253Y-55853D01*
X35234Y-55834D01*
X35215Y-55796D01*
X35215Y-55759D01*
X35234Y-55721D01*
X35253Y-55703D01*
X35290Y-55684D01*
X35384Y-55684D01*
X35440Y-55703D01*
X35571Y-55684D02*
X35665Y-56078D01*
X35740Y-55796D01*
X35815Y-56078D01*
X35909Y-55684D01*
X35965Y-56115D02*
X36265Y-56115D01*
X36359Y-56078D02*
X36359Y-55684D01*
X36509Y-55684D01*
X36546Y-55703D01*
X36565Y-55721D01*
X36584Y-55759D01*
X36584Y-55815D01*
X36565Y-55853D01*
X36546Y-55871D01*
X36509Y-55890D01*
X36359Y-55890D01*
X36753Y-55684D02*
X36753Y-56003D01*
X36771Y-56040D01*
X36790Y-56059D01*
X36828Y-56078D01*
X36903Y-56078D01*
X36940Y-56059D01*
X36959Y-56040D01*
X36978Y-56003D01*
X36978Y-55684D01*
X37146Y-56059D02*
X37203Y-56078D01*
X37296Y-56078D01*
X37334Y-56059D01*
X37353Y-56040D01*
X37371Y-56003D01*
X37371Y-55965D01*
X37353Y-55928D01*
X37334Y-55909D01*
X37296Y-55890D01*
X37221Y-55871D01*
X37184Y-55853D01*
X37165Y-55834D01*
X37146Y-55796D01*
X37146Y-55759D01*
X37165Y-55721D01*
X37184Y-55703D01*
X37221Y-55684D01*
X37315Y-55684D01*
X37371Y-55703D01*
X37540Y-56078D02*
X37540Y-55684D01*
X37540Y-55871D02*
X37765Y-55871D01*
X37765Y-56078D02*
X37765Y-55684D01*
X50159Y-29299D02*
X50178Y-29243D01*
X50178Y-29149D01*
X50159Y-29112D01*
X50140Y-29093D01*
X50103Y-29074D01*
X50065Y-29074D01*
X50028Y-29093D01*
X50009Y-29112D01*
X49990Y-29149D01*
X49971Y-29224D01*
X49953Y-29262D01*
X49934Y-29281D01*
X49896Y-29299D01*
X49859Y-29299D01*
X49821Y-29281D01*
X49803Y-29262D01*
X49784Y-29224D01*
X49784Y-29131D01*
X49803Y-29074D01*
X50178Y-28700D02*
X50178Y-28925D01*
X50178Y-28812D02*
X49784Y-28812D01*
X49840Y-28850D01*
X49878Y-28887D01*
X49896Y-28925D01*
X52659Y-30406D02*
X52678Y-30349D01*
X52678Y-30256D01*
X52659Y-30218D01*
X52640Y-30199D01*
X52603Y-30181D01*
X52565Y-30181D01*
X52528Y-30199D01*
X52509Y-30218D01*
X52490Y-30256D01*
X52471Y-30331D01*
X52453Y-30368D01*
X52434Y-30387D01*
X52396Y-30406D01*
X52359Y-30406D01*
X52321Y-30387D01*
X52303Y-30368D01*
X52284Y-30331D01*
X52284Y-30237D01*
X52303Y-30181D01*
X52284Y-30049D02*
X52678Y-29956D01*
X52396Y-29881D01*
X52678Y-29806D01*
X52284Y-29712D01*
X52715Y-29656D02*
X52715Y-29356D01*
X52678Y-29262D02*
X52284Y-29262D01*
X52284Y-29168D01*
X52303Y-29112D01*
X52340Y-29074D01*
X52378Y-29056D01*
X52453Y-29037D01*
X52509Y-29037D01*
X52584Y-29056D01*
X52621Y-29074D01*
X52659Y-29112D01*
X52678Y-29168D01*
X52678Y-29262D01*
X52678Y-28868D02*
X52284Y-28868D01*
X52678Y-28681D02*
X52284Y-28681D01*
X52284Y-28531D01*
X52303Y-28493D01*
X52321Y-28475D01*
X52359Y-28456D01*
X52415Y-28456D01*
X52453Y-28475D01*
X52471Y-28493D01*
X52490Y-28531D01*
X52490Y-28681D01*
X52528Y-28287D02*
X52528Y-27987D01*
X52453Y-27743D02*
X52434Y-27781D01*
X52415Y-27800D01*
X52378Y-27818D01*
X52359Y-27818D01*
X52321Y-27800D01*
X52303Y-27781D01*
X52284Y-27743D01*
X52284Y-27668D01*
X52303Y-27631D01*
X52321Y-27612D01*
X52359Y-27593D01*
X52378Y-27593D01*
X52415Y-27612D01*
X52434Y-27631D01*
X52453Y-27668D01*
X52453Y-27743D01*
X52471Y-27781D01*
X52490Y-27800D01*
X52528Y-27818D01*
X52603Y-27818D01*
X52640Y-27800D01*
X52659Y-27781D01*
X52678Y-27743D01*
X52678Y-27668D01*
X52659Y-27631D01*
X52640Y-27612D01*
X52603Y-27593D01*
X52528Y-27593D01*
X52490Y-27612D01*
X52471Y-27631D01*
X52453Y-27668D01*
X55596Y-46178D02*
X55465Y-45990D01*
X55371Y-46178D02*
X55371Y-45784D01*
X55521Y-45784D01*
X55559Y-45803D01*
X55578Y-45821D01*
X55596Y-45859D01*
X55596Y-45915D01*
X55578Y-45953D01*
X55559Y-45971D01*
X55521Y-45990D01*
X55371Y-45990D01*
X55746Y-45821D02*
X55765Y-45803D01*
X55803Y-45784D01*
X55896Y-45784D01*
X55934Y-45803D01*
X55953Y-45821D01*
X55971Y-45859D01*
X55971Y-45896D01*
X55953Y-45953D01*
X55728Y-46178D01*
X55971Y-46178D01*
X56346Y-46178D02*
X56121Y-46178D01*
X56234Y-46178D02*
X56234Y-45784D01*
X56196Y-45840D01*
X56159Y-45878D01*
X56121Y-45896D01*
X55596Y-45178D02*
X55465Y-44990D01*
X55371Y-45178D02*
X55371Y-44784D01*
X55521Y-44784D01*
X55559Y-44803D01*
X55578Y-44821D01*
X55596Y-44859D01*
X55596Y-44915D01*
X55578Y-44953D01*
X55559Y-44971D01*
X55521Y-44990D01*
X55371Y-44990D01*
X55746Y-44821D02*
X55765Y-44803D01*
X55803Y-44784D01*
X55896Y-44784D01*
X55934Y-44803D01*
X55953Y-44821D01*
X55971Y-44859D01*
X55971Y-44896D01*
X55953Y-44953D01*
X55728Y-45178D01*
X55971Y-45178D01*
X56121Y-44821D02*
X56140Y-44803D01*
X56178Y-44784D01*
X56271Y-44784D01*
X56309Y-44803D01*
X56328Y-44821D01*
X56346Y-44859D01*
X56346Y-44896D01*
X56328Y-44953D01*
X56103Y-45178D01*
X56346Y-45178D01*
X55596Y-47178D02*
X55465Y-46990D01*
X55371Y-47178D02*
X55371Y-46784D01*
X55521Y-46784D01*
X55559Y-46803D01*
X55578Y-46821D01*
X55596Y-46859D01*
X55596Y-46915D01*
X55578Y-46953D01*
X55559Y-46971D01*
X55521Y-46990D01*
X55371Y-46990D01*
X55746Y-46821D02*
X55765Y-46803D01*
X55803Y-46784D01*
X55896Y-46784D01*
X55934Y-46803D01*
X55953Y-46821D01*
X55971Y-46859D01*
X55971Y-46896D01*
X55953Y-46953D01*
X55728Y-47178D01*
X55971Y-47178D01*
X56103Y-46784D02*
X56346Y-46784D01*
X56215Y-46934D01*
X56271Y-46934D01*
X56309Y-46953D01*
X56328Y-46971D01*
X56346Y-47009D01*
X56346Y-47103D01*
X56328Y-47140D01*
X56309Y-47159D01*
X56271Y-47178D01*
X56159Y-47178D01*
X56121Y-47159D01*
X56103Y-47140D01*
X54753Y-59103D02*
X54753Y-58709D01*
X54884Y-58990D01*
X55015Y-58709D01*
X55015Y-59103D01*
X55259Y-59103D02*
X55222Y-59084D01*
X55203Y-59065D01*
X55184Y-59028D01*
X55184Y-58915D01*
X55203Y-58878D01*
X55222Y-58859D01*
X55259Y-58840D01*
X55315Y-58840D01*
X55353Y-58859D01*
X55372Y-58878D01*
X55390Y-58915D01*
X55390Y-59028D01*
X55372Y-59065D01*
X55353Y-59084D01*
X55315Y-59103D01*
X55259Y-59103D01*
X55728Y-58840D02*
X55728Y-59103D01*
X55559Y-58840D02*
X55559Y-59046D01*
X55578Y-59084D01*
X55615Y-59103D01*
X55672Y-59103D01*
X55709Y-59084D01*
X55728Y-59065D01*
X55915Y-58840D02*
X55915Y-59103D01*
X55915Y-58878D02*
X55934Y-58859D01*
X55972Y-58840D01*
X56028Y-58840D01*
X56065Y-58859D01*
X56084Y-58896D01*
X56084Y-59103D01*
X56215Y-58840D02*
X56365Y-58840D01*
X56272Y-58709D02*
X56272Y-59046D01*
X56290Y-59084D01*
X56328Y-59103D01*
X56365Y-59103D01*
X56497Y-59103D02*
X56497Y-58840D01*
X56497Y-58709D02*
X56478Y-58728D01*
X56497Y-58746D01*
X56515Y-58728D01*
X56497Y-58709D01*
X56497Y-58746D01*
X56684Y-58840D02*
X56684Y-59103D01*
X56684Y-58878D02*
X56703Y-58859D01*
X56740Y-58840D01*
X56796Y-58840D01*
X56834Y-58859D01*
X56853Y-58896D01*
X56853Y-59103D01*
X57209Y-58840D02*
X57209Y-59159D01*
X57190Y-59196D01*
X57171Y-59215D01*
X57134Y-59234D01*
X57078Y-59234D01*
X57040Y-59215D01*
X57209Y-59084D02*
X57171Y-59103D01*
X57096Y-59103D01*
X57059Y-59084D01*
X57040Y-59065D01*
X57021Y-59028D01*
X57021Y-58915D01*
X57040Y-58878D01*
X57059Y-58859D01*
X57096Y-58840D01*
X57171Y-58840D01*
X57209Y-58859D01*
X57396Y-59103D02*
X57396Y-58709D01*
X57396Y-58896D02*
X57621Y-58896D01*
X57621Y-59103D02*
X57621Y-58709D01*
X57865Y-59103D02*
X57828Y-59084D01*
X57809Y-59065D01*
X57790Y-59028D01*
X57790Y-58915D01*
X57809Y-58878D01*
X57828Y-58859D01*
X57865Y-58840D01*
X57921Y-58840D01*
X57959Y-58859D01*
X57978Y-58878D01*
X57996Y-58915D01*
X57996Y-59028D01*
X57978Y-59065D01*
X57959Y-59084D01*
X57921Y-59103D01*
X57865Y-59103D01*
X58221Y-59103D02*
X58184Y-59084D01*
X58165Y-59046D01*
X58165Y-58709D01*
X58521Y-59084D02*
X58484Y-59103D01*
X58409Y-59103D01*
X58371Y-59084D01*
X58353Y-59046D01*
X58353Y-58896D01*
X58371Y-58859D01*
X58409Y-58840D01*
X58484Y-58840D01*
X58521Y-58859D01*
X58540Y-58896D01*
X58540Y-58934D01*
X58353Y-58971D01*
X58615Y-59140D02*
X58915Y-59140D01*
X58971Y-58709D02*
X59215Y-58709D01*
X59084Y-58859D01*
X59140Y-58859D01*
X59177Y-58878D01*
X59196Y-58896D01*
X59215Y-58934D01*
X59215Y-59028D01*
X59196Y-59065D01*
X59177Y-59084D01*
X59140Y-59103D01*
X59027Y-59103D01*
X58990Y-59084D01*
X58971Y-59065D01*
X59384Y-59103D02*
X59384Y-58840D01*
X59384Y-58878D02*
X59402Y-58859D01*
X59440Y-58840D01*
X59496Y-58840D01*
X59534Y-58859D01*
X59552Y-58896D01*
X59552Y-59103D01*
X59552Y-58896D02*
X59571Y-58859D01*
X59609Y-58840D01*
X59665Y-58840D01*
X59702Y-58859D01*
X59721Y-58896D01*
X59721Y-59103D01*
X59909Y-59103D02*
X59909Y-58840D01*
X59909Y-58878D02*
X59927Y-58859D01*
X59965Y-58840D01*
X60021Y-58840D01*
X60059Y-58859D01*
X60077Y-58896D01*
X60077Y-59103D01*
X60077Y-58896D02*
X60096Y-58859D01*
X60134Y-58840D01*
X60190Y-58840D01*
X60227Y-58859D01*
X60246Y-58896D01*
X60246Y-59103D01*
M02*
