%FSLAX34Y34*%
G04 Gerber Fmt 3.4, Leading zero omitted, Abs format*
G04 (created by PCBNEW (2014-03-19 BZR 4756)-product) date Fri 26 Dec 2014 10:56:14 GMT*
%MOIN*%
G01*
G70*
G90*
G04 APERTURE LIST*
%ADD10C,0.005906*%
%ADD11C,0.011811*%
%ADD12C,0.060000*%
%ADD13O,0.059100X0.078700*%
%ADD14O,0.078700X0.059100*%
%ADD15R,0.060000X0.060000*%
%ADD16R,0.055000X0.055000*%
%ADD17C,0.055000*%
%ADD18O,0.090000X0.062000*%
%ADD19R,0.090000X0.062000*%
%ADD20C,0.070000*%
%ADD21O,0.120000X0.068000*%
%ADD22R,0.062000X0.090000*%
%ADD23O,0.062000X0.090000*%
%ADD24C,0.059100*%
%ADD25R,0.080000X0.080000*%
%ADD26O,0.080000X0.080000*%
%ADD27R,0.068000X0.068000*%
%ADD28O,0.068000X0.068000*%
%ADD29C,0.035000*%
%ADD30C,0.020000*%
%ADD31C,0.040000*%
%ADD32C,0.015000*%
%ADD33C,0.010000*%
G04 APERTURE END LIST*
G54D10*
G54D11*
X40427Y-26167D02*
X40427Y-25576D01*
X40146Y-25773D02*
X40146Y-26167D01*
X40146Y-25829D02*
X40118Y-25801D01*
X40062Y-25773D01*
X39977Y-25773D01*
X39921Y-25801D01*
X39893Y-25857D01*
X39893Y-26167D01*
X39696Y-25773D02*
X39471Y-25773D01*
X39612Y-25576D02*
X39612Y-26082D01*
X39584Y-26139D01*
X39527Y-26167D01*
X39471Y-26167D01*
X39049Y-26139D02*
X39106Y-26167D01*
X39218Y-26167D01*
X39274Y-26139D01*
X39302Y-26082D01*
X39302Y-25857D01*
X39274Y-25801D01*
X39218Y-25773D01*
X39106Y-25773D01*
X39049Y-25801D01*
X39021Y-25857D01*
X39021Y-25914D01*
X39302Y-25970D01*
X38768Y-26167D02*
X38768Y-25773D01*
X38768Y-25885D02*
X38740Y-25829D01*
X38712Y-25801D01*
X38656Y-25773D01*
X38599Y-25773D01*
X38149Y-26139D02*
X38206Y-26167D01*
X38318Y-26167D01*
X38374Y-26139D01*
X38402Y-26110D01*
X38431Y-26054D01*
X38431Y-25885D01*
X38402Y-25829D01*
X38374Y-25801D01*
X38318Y-25773D01*
X38206Y-25773D01*
X38149Y-25801D01*
X37812Y-26167D02*
X37868Y-26139D01*
X37896Y-26110D01*
X37924Y-26054D01*
X37924Y-25885D01*
X37896Y-25829D01*
X37868Y-25801D01*
X37812Y-25773D01*
X37728Y-25773D01*
X37671Y-25801D01*
X37643Y-25829D01*
X37615Y-25885D01*
X37615Y-26054D01*
X37643Y-26110D01*
X37671Y-26139D01*
X37728Y-26167D01*
X37812Y-26167D01*
X37362Y-26167D02*
X37362Y-25773D01*
X37362Y-25829D02*
X37334Y-25801D01*
X37278Y-25773D01*
X37193Y-25773D01*
X37137Y-25801D01*
X37109Y-25857D01*
X37109Y-26167D01*
X37109Y-25857D02*
X37081Y-25801D01*
X37025Y-25773D01*
X36940Y-25773D01*
X36884Y-25801D01*
X36856Y-25857D01*
X36856Y-26167D01*
X35787Y-26167D02*
X35984Y-25885D01*
X36125Y-26167D02*
X36125Y-25576D01*
X35900Y-25576D01*
X35843Y-25604D01*
X35815Y-25632D01*
X35787Y-25689D01*
X35787Y-25773D01*
X35815Y-25829D01*
X35843Y-25857D01*
X35900Y-25885D01*
X36125Y-25885D01*
X35309Y-26139D02*
X35365Y-26167D01*
X35478Y-26167D01*
X35534Y-26139D01*
X35562Y-26082D01*
X35562Y-25857D01*
X35534Y-25801D01*
X35478Y-25773D01*
X35365Y-25773D01*
X35309Y-25801D01*
X35281Y-25857D01*
X35281Y-25914D01*
X35562Y-25970D01*
X35084Y-25773D02*
X34944Y-26167D01*
X34803Y-25773D01*
X34578Y-26110D02*
X34550Y-26139D01*
X34578Y-26167D01*
X34606Y-26139D01*
X34578Y-26110D01*
X34578Y-26167D01*
X34325Y-25998D02*
X34044Y-25998D01*
X34381Y-26167D02*
X34184Y-25576D01*
X33987Y-26167D01*
G54D12*
X51500Y-49000D03*
X51500Y-48000D03*
X51500Y-47000D03*
X51500Y-46000D03*
X51500Y-45000D03*
X51500Y-44000D03*
X51500Y-43000D03*
X55000Y-22000D03*
X55000Y-21000D03*
X55000Y-23000D03*
X67500Y-22000D03*
X67500Y-21000D03*
X67500Y-23000D03*
X64500Y-22000D03*
X64500Y-21000D03*
X64500Y-23000D03*
X60500Y-23000D03*
X59500Y-23000D03*
X61500Y-23000D03*
G54D13*
X74500Y-36500D03*
G54D14*
X75500Y-35500D03*
X73500Y-35500D03*
G54D15*
X79500Y-33500D03*
G54D12*
X80500Y-33500D03*
G54D15*
X77500Y-43500D03*
G54D12*
X78500Y-43500D03*
G54D15*
X71500Y-43500D03*
G54D12*
X72500Y-43500D03*
G54D15*
X34000Y-41500D03*
G54D12*
X33000Y-41500D03*
G54D15*
X74500Y-43500D03*
G54D12*
X75500Y-43500D03*
G54D15*
X37500Y-37000D03*
G54D12*
X38500Y-37000D03*
G54D15*
X55000Y-25000D03*
G54D12*
X55000Y-26000D03*
G54D15*
X67500Y-25000D03*
G54D12*
X67500Y-26000D03*
G54D16*
X76500Y-41000D03*
G54D17*
X76500Y-38000D03*
G54D16*
X77500Y-41000D03*
G54D17*
X77500Y-38000D03*
G54D16*
X72000Y-51500D03*
G54D17*
X71000Y-51500D03*
G54D16*
X79000Y-51500D03*
G54D17*
X78000Y-51500D03*
G54D16*
X58000Y-51500D03*
G54D17*
X57000Y-51500D03*
G54D18*
X57500Y-29500D03*
X57500Y-30500D03*
X57500Y-31500D03*
X57500Y-32500D03*
X57500Y-33500D03*
X57500Y-34500D03*
X57500Y-35500D03*
X57500Y-36500D03*
X57500Y-37500D03*
X57500Y-38500D03*
X57500Y-39500D03*
X57500Y-40500D03*
X57500Y-41500D03*
G54D19*
X57500Y-28500D03*
G54D18*
X60500Y-41500D03*
X60500Y-40500D03*
X60500Y-39500D03*
X60500Y-38500D03*
X60500Y-37500D03*
X60500Y-36500D03*
X60500Y-35500D03*
X60500Y-34500D03*
X60500Y-33500D03*
X60500Y-32500D03*
X60500Y-31500D03*
X60500Y-30500D03*
X60500Y-29500D03*
X60500Y-28500D03*
G54D20*
X71300Y-22250D03*
X71300Y-18250D03*
G54D17*
X77000Y-30500D03*
X80000Y-30500D03*
X49750Y-34500D03*
X52750Y-34500D03*
X77500Y-32000D03*
X77500Y-35000D03*
X78500Y-38000D03*
X78500Y-41000D03*
X35500Y-47000D03*
X32500Y-47000D03*
X73000Y-33000D03*
X76000Y-33000D03*
X74500Y-38000D03*
X74500Y-41000D03*
X66500Y-51500D03*
X69500Y-51500D03*
X75500Y-41000D03*
X75500Y-38000D03*
X39500Y-40000D03*
X36500Y-40000D03*
X71500Y-38000D03*
X71500Y-41000D03*
X39500Y-46000D03*
X36500Y-46000D03*
X69500Y-34000D03*
X72500Y-34000D03*
X69500Y-35000D03*
X72500Y-35000D03*
X77000Y-29500D03*
X80000Y-29500D03*
X77000Y-28500D03*
X80000Y-28500D03*
X77000Y-24000D03*
X77000Y-27000D03*
X74000Y-27000D03*
X74000Y-24000D03*
X59000Y-21500D03*
X62000Y-21500D03*
X55000Y-28500D03*
X55000Y-31500D03*
X73500Y-51500D03*
X76500Y-51500D03*
X80500Y-51500D03*
X83500Y-51500D03*
X59500Y-51500D03*
X62500Y-51500D03*
G54D21*
X74000Y-54500D03*
X74000Y-56500D03*
X69000Y-54500D03*
X69000Y-56500D03*
X81000Y-54500D03*
X81000Y-56500D03*
X76000Y-54500D03*
X76000Y-56500D03*
X60000Y-54500D03*
X60000Y-56500D03*
X55000Y-54500D03*
X55000Y-56500D03*
G54D19*
X36500Y-41500D03*
G54D18*
X36500Y-42500D03*
X36500Y-43500D03*
X36500Y-44500D03*
X39500Y-44500D03*
X39500Y-43500D03*
X39500Y-42500D03*
X39500Y-41500D03*
G54D22*
X71000Y-31500D03*
G54D23*
X72000Y-31500D03*
X73000Y-31500D03*
X74000Y-31500D03*
X74000Y-28500D03*
X73000Y-28500D03*
X72000Y-28500D03*
X71000Y-28500D03*
G54D24*
X54500Y-37039D03*
X54500Y-38961D03*
G54D16*
X65000Y-51500D03*
G54D17*
X64000Y-51500D03*
G54D25*
X81900Y-38650D03*
G54D26*
X80900Y-38650D03*
G54D25*
X38500Y-32500D03*
G54D26*
X37500Y-32500D03*
G54D25*
X82500Y-23000D03*
G54D26*
X82500Y-22000D03*
G54D27*
X65000Y-38500D03*
G54D28*
X64000Y-38500D03*
X65000Y-39500D03*
X64000Y-39500D03*
X65000Y-40500D03*
X64000Y-40500D03*
G54D21*
X67000Y-54500D03*
X67000Y-56500D03*
X62000Y-54500D03*
X62000Y-56500D03*
G54D17*
X48750Y-34500D03*
X46750Y-34500D03*
X37000Y-48000D03*
X39000Y-48000D03*
X35000Y-48000D03*
X33000Y-48000D03*
G54D24*
X43000Y-38000D03*
X43000Y-40000D03*
G54D17*
X37000Y-47000D03*
X39000Y-47000D03*
X69500Y-31000D03*
X69500Y-29000D03*
X70000Y-33000D03*
X72000Y-33000D03*
X75500Y-29000D03*
X75500Y-31000D03*
X72500Y-26500D03*
X72500Y-24500D03*
X75500Y-24500D03*
X75500Y-26500D03*
X57000Y-21000D03*
X57000Y-23000D03*
X69500Y-21000D03*
X69500Y-23000D03*
X56500Y-34500D03*
X54500Y-34500D03*
X62000Y-36500D03*
X64000Y-36500D03*
X62000Y-35500D03*
X64000Y-35500D03*
X52500Y-37000D03*
X51500Y-37000D03*
X52500Y-39000D03*
X51500Y-39000D03*
G54D16*
X51000Y-51500D03*
G54D17*
X50000Y-51500D03*
G54D16*
X44000Y-51500D03*
G54D17*
X43000Y-51500D03*
G54D16*
X37000Y-51500D03*
G54D17*
X36000Y-51500D03*
X52500Y-51500D03*
X55500Y-51500D03*
X45500Y-51500D03*
X48500Y-51500D03*
X38500Y-51500D03*
X41500Y-51500D03*
G54D21*
X53000Y-54500D03*
X53000Y-56500D03*
X48000Y-54500D03*
X48000Y-56500D03*
X46000Y-54500D03*
X46000Y-56500D03*
X41000Y-54500D03*
X41000Y-56500D03*
X39000Y-54500D03*
X39000Y-56500D03*
X34000Y-54500D03*
X34000Y-56500D03*
G54D15*
X48500Y-25500D03*
G54D12*
X48500Y-26500D03*
X48500Y-27500D03*
X48500Y-28500D03*
X48500Y-29500D03*
X48500Y-30500D03*
X48500Y-31500D03*
X48500Y-32500D03*
X51500Y-32500D03*
X51500Y-31500D03*
X51500Y-30500D03*
X51500Y-29500D03*
X51500Y-28500D03*
X51500Y-27500D03*
X51500Y-26500D03*
X51500Y-25500D03*
X53350Y-46000D03*
X58350Y-46000D03*
X53350Y-45000D03*
X58350Y-45000D03*
X53350Y-47000D03*
X58350Y-47000D03*
G54D20*
X64100Y-45750D03*
X68550Y-45700D03*
G54D29*
X52950Y-48000D03*
X56000Y-48000D03*
X65850Y-41700D03*
X64450Y-28950D03*
X58600Y-44000D03*
X52850Y-44000D03*
G54D30*
X79500Y-33500D02*
X76500Y-33500D01*
X76500Y-33500D02*
X76000Y-33000D01*
X80500Y-33500D02*
X80500Y-37150D01*
X80900Y-37550D02*
X80900Y-38650D01*
X80500Y-37150D02*
X80900Y-37550D01*
X80000Y-30500D02*
X80000Y-32250D01*
X80500Y-32750D02*
X80500Y-33500D01*
X80000Y-32250D02*
X80500Y-32750D01*
X39000Y-48000D02*
X40500Y-48000D01*
X48750Y-39750D02*
X48750Y-34500D01*
X40500Y-48000D02*
X48750Y-39750D01*
X48750Y-36000D02*
X48750Y-34500D01*
X48750Y-34500D02*
X49750Y-34500D01*
G54D31*
X74000Y-31500D02*
X74000Y-32800D01*
X80550Y-40050D02*
X83500Y-40050D01*
X79650Y-39150D02*
X80550Y-40050D01*
X79650Y-35800D02*
X79650Y-39150D01*
X78000Y-34150D02*
X79650Y-35800D01*
X75350Y-34150D02*
X78000Y-34150D01*
X74000Y-32800D02*
X75350Y-34150D01*
X81900Y-38650D02*
X83200Y-38650D01*
X83200Y-38650D02*
X83500Y-38950D01*
X32500Y-47000D02*
X32500Y-45150D01*
X35150Y-42500D02*
X36500Y-42500D01*
X32500Y-45150D02*
X35150Y-42500D01*
X33000Y-48000D02*
X33000Y-47500D01*
X33000Y-47500D02*
X32500Y-47000D01*
X34000Y-56500D02*
X33350Y-56500D01*
X31650Y-49350D02*
X33000Y-48000D01*
X31650Y-54800D02*
X31650Y-49350D01*
X33350Y-56500D02*
X31650Y-54800D01*
X74000Y-56500D02*
X34000Y-56500D01*
X76000Y-56500D02*
X74000Y-56500D01*
X81000Y-56500D02*
X76000Y-56500D01*
X83500Y-45000D02*
X83500Y-48500D01*
X82750Y-56500D02*
X81000Y-56500D01*
X84500Y-54750D02*
X82750Y-56500D01*
X84500Y-49500D02*
X84500Y-54750D01*
X83500Y-48500D02*
X84500Y-49500D01*
X43000Y-38000D02*
X44000Y-38000D01*
X46750Y-35250D02*
X46750Y-34500D01*
X44000Y-38000D02*
X46750Y-35250D01*
X46750Y-34500D02*
X47000Y-34500D01*
X47000Y-34500D02*
X48500Y-33000D01*
X48500Y-33000D02*
X48500Y-32500D01*
X39000Y-47000D02*
X38000Y-46000D01*
G54D32*
X34000Y-56500D02*
X39000Y-56500D01*
G54D31*
X57500Y-35500D02*
X56700Y-35500D01*
X60500Y-34500D02*
X61650Y-34500D01*
X69500Y-23000D02*
X70450Y-23000D01*
X72900Y-23000D02*
X82500Y-23000D01*
X72400Y-23500D02*
X72900Y-23000D01*
X70950Y-23500D02*
X72400Y-23500D01*
X70450Y-23000D02*
X70950Y-23500D01*
X68550Y-45700D02*
X68550Y-36450D01*
X68550Y-36450D02*
X66300Y-34200D01*
X64000Y-35500D02*
X65000Y-35500D01*
X65000Y-35500D02*
X66300Y-34200D01*
X66300Y-34200D02*
X69500Y-31000D01*
X77000Y-28500D02*
X77200Y-28500D01*
X77200Y-28500D02*
X79650Y-26050D01*
X75500Y-24500D02*
X75500Y-24650D01*
X75500Y-24650D02*
X76900Y-26050D01*
X76900Y-26050D02*
X79650Y-26050D01*
X79650Y-26050D02*
X82500Y-26050D01*
X82500Y-23000D02*
X82500Y-26050D01*
X82500Y-26050D02*
X82500Y-32500D01*
X73500Y-45750D02*
X68600Y-45750D01*
X64000Y-45650D02*
X64000Y-40500D01*
X64100Y-45750D02*
X64000Y-45650D01*
X68600Y-45750D02*
X68550Y-45700D01*
X61650Y-34500D02*
X63800Y-34500D01*
X64000Y-34700D02*
X64000Y-35500D01*
X63800Y-34500D02*
X64000Y-34700D01*
X55000Y-22000D02*
X54450Y-22000D01*
X55000Y-26000D02*
X54500Y-26000D01*
X48500Y-25500D02*
X48500Y-24850D01*
X48500Y-24850D02*
X51350Y-22000D01*
X51350Y-22000D02*
X54450Y-22000D01*
X51500Y-39000D02*
X51500Y-43000D01*
G54D32*
X39000Y-56500D02*
X41000Y-56500D01*
X41000Y-56500D02*
X46000Y-56500D01*
X46000Y-56500D02*
X48000Y-56500D01*
X48000Y-56500D02*
X53000Y-56500D01*
X53000Y-56500D02*
X55000Y-56500D01*
X55000Y-56500D02*
X60000Y-56500D01*
X60000Y-56500D02*
X62000Y-56500D01*
X62000Y-56500D02*
X67000Y-56500D01*
X67000Y-56500D02*
X69000Y-56500D01*
X69000Y-56500D02*
X74000Y-56500D01*
G54D31*
X38000Y-45000D02*
X38000Y-46000D01*
X38000Y-46000D02*
X38000Y-47250D01*
X48500Y-32750D02*
X48500Y-31500D01*
X48500Y-31500D02*
X48500Y-30500D01*
X48500Y-30500D02*
X48500Y-29500D01*
X48500Y-29500D02*
X48500Y-28500D01*
X48500Y-28500D02*
X48500Y-27500D01*
X48500Y-27500D02*
X48500Y-26500D01*
X48500Y-26500D02*
X48500Y-25500D01*
X51500Y-39000D02*
X51500Y-37000D01*
X51500Y-37000D02*
X52750Y-35750D01*
X54500Y-35250D02*
X54500Y-34500D01*
X54000Y-35750D02*
X54500Y-35250D01*
X52750Y-35750D02*
X54000Y-35750D01*
X54500Y-34500D02*
X55250Y-34500D01*
X56250Y-35500D02*
X56700Y-35500D01*
X55250Y-34500D02*
X56250Y-35500D01*
X67500Y-22000D02*
X68000Y-22000D01*
X67500Y-26000D02*
X68000Y-26000D01*
X68000Y-26000D02*
X68500Y-26000D01*
X69500Y-25000D02*
X69500Y-23000D01*
X68500Y-26000D02*
X69500Y-25000D01*
X69500Y-23000D02*
X68500Y-22000D01*
X59500Y-22500D02*
X59500Y-23000D01*
X60250Y-21750D02*
X59500Y-22500D01*
X60250Y-20500D02*
X60250Y-21750D01*
X61250Y-19500D02*
X60250Y-20500D01*
X65000Y-19500D02*
X61250Y-19500D01*
X65750Y-20250D02*
X65000Y-19500D01*
X65750Y-21000D02*
X65750Y-20250D01*
X66750Y-22000D02*
X65750Y-21000D01*
X68500Y-22000D02*
X68000Y-22000D01*
X68000Y-22000D02*
X66750Y-22000D01*
X78500Y-41000D02*
X78500Y-43500D01*
X75500Y-38000D02*
X75500Y-37250D01*
X77500Y-37250D02*
X77500Y-38000D01*
X77250Y-37000D02*
X77500Y-37250D01*
X75750Y-37000D02*
X77250Y-37000D01*
X75500Y-37250D02*
X75750Y-37000D01*
X77500Y-38000D02*
X77500Y-38750D01*
X77500Y-38750D02*
X78500Y-39750D01*
X78500Y-39750D02*
X78500Y-41000D01*
X55000Y-22000D02*
X55500Y-22000D01*
X36500Y-44500D02*
X36500Y-44750D01*
X38000Y-43000D02*
X38000Y-40000D01*
X36250Y-33750D02*
X37500Y-32500D01*
X36250Y-38250D02*
X36250Y-33750D01*
X38000Y-40000D02*
X36250Y-38250D01*
X38000Y-45000D02*
X38000Y-43000D01*
X37500Y-42500D02*
X36500Y-42500D01*
X38000Y-43000D02*
X37500Y-42500D01*
X38000Y-45000D02*
X38000Y-44750D01*
X38000Y-44750D02*
X37750Y-44500D01*
X37750Y-44500D02*
X36500Y-44500D01*
X59500Y-23000D02*
X57000Y-23000D01*
X57000Y-23000D02*
X56000Y-22000D01*
X56000Y-22000D02*
X55500Y-22000D01*
X55500Y-22000D02*
X53500Y-22000D01*
X53500Y-26000D02*
X54500Y-26000D01*
X52750Y-25250D02*
X53500Y-26000D01*
X52750Y-22750D02*
X52750Y-25250D01*
X53500Y-22000D02*
X52750Y-22750D01*
X64000Y-35500D02*
X64000Y-36500D01*
X78500Y-43500D02*
X78500Y-45750D01*
X72500Y-43500D02*
X72500Y-44750D01*
X72500Y-44750D02*
X73500Y-45750D01*
X73500Y-45750D02*
X74000Y-45750D01*
X74000Y-45750D02*
X78500Y-45750D01*
X78500Y-45750D02*
X82750Y-45750D01*
X82750Y-45750D02*
X83500Y-45000D01*
X83500Y-45000D02*
X83500Y-44700D01*
X83500Y-44700D02*
X83500Y-41000D01*
X83500Y-41000D02*
X83500Y-40050D01*
X83500Y-40050D02*
X83500Y-38950D01*
X83500Y-38950D02*
X83500Y-35250D01*
X83500Y-35250D02*
X83500Y-32500D01*
X83500Y-32500D02*
X82500Y-32500D01*
G54D30*
X35000Y-48000D02*
X35500Y-47500D01*
X35500Y-47500D02*
X35500Y-47000D01*
X36500Y-43500D02*
X36000Y-43500D01*
X35500Y-44000D02*
X35500Y-47500D01*
X36000Y-43500D02*
X35500Y-44000D01*
X35000Y-48000D02*
X37000Y-48000D01*
X76500Y-41000D02*
X76500Y-42500D01*
X76500Y-42500D02*
X77500Y-43500D01*
X76500Y-41000D02*
X75500Y-41000D01*
X75500Y-41000D02*
X74500Y-41000D01*
X71500Y-41000D02*
X71500Y-43500D01*
X36500Y-41500D02*
X34000Y-41500D01*
X33000Y-41500D02*
X33000Y-41000D01*
X34000Y-40000D02*
X36500Y-40000D01*
X33000Y-41000D02*
X34000Y-40000D01*
X36500Y-46000D02*
X36500Y-46500D01*
X36500Y-46500D02*
X37000Y-47000D01*
X36500Y-46000D02*
X36250Y-46000D01*
X72500Y-35000D02*
X72500Y-41500D01*
X72500Y-41500D02*
X74500Y-43500D01*
X76500Y-38000D02*
X76500Y-39000D01*
X76500Y-39000D02*
X75500Y-40000D01*
X75500Y-42750D02*
X75500Y-43500D01*
X75000Y-42250D02*
X75500Y-42750D01*
X74500Y-42250D02*
X75000Y-42250D01*
X73500Y-41250D02*
X74500Y-42250D01*
X73500Y-40500D02*
X73500Y-41250D01*
X74000Y-40000D02*
X73500Y-40500D01*
X75500Y-40000D02*
X74000Y-40000D01*
X77500Y-40000D02*
X77500Y-41000D01*
X76500Y-39000D02*
X77500Y-40000D01*
X75500Y-31000D02*
X75000Y-30500D01*
X71000Y-30750D02*
X71000Y-31500D01*
X71250Y-30500D02*
X71000Y-30750D01*
X75000Y-30500D02*
X71250Y-30500D01*
X71000Y-31500D02*
X70750Y-31500D01*
X70750Y-31500D02*
X70000Y-32250D01*
X70000Y-32250D02*
X70000Y-33000D01*
X70000Y-33000D02*
X69750Y-33250D01*
X69750Y-33250D02*
X69750Y-33750D01*
X69750Y-33750D02*
X69500Y-34000D01*
X69500Y-34000D02*
X69500Y-35000D01*
X72000Y-33000D02*
X72000Y-33500D01*
X71500Y-34000D02*
X71500Y-38000D01*
X72000Y-33500D02*
X71500Y-34000D01*
X72000Y-31500D02*
X72000Y-33000D01*
X72000Y-33000D02*
X72500Y-33500D01*
X72500Y-33500D02*
X72500Y-34000D01*
X39500Y-44500D02*
X39500Y-46000D01*
X37500Y-37000D02*
X37500Y-38250D01*
X39000Y-44500D02*
X39500Y-44500D01*
X38750Y-44250D02*
X39000Y-44500D01*
X38750Y-39500D02*
X38750Y-44250D01*
X37500Y-38250D02*
X38750Y-39500D01*
X38500Y-32500D02*
X38500Y-37000D01*
X77000Y-27000D02*
X76500Y-27000D01*
X75500Y-28000D02*
X75500Y-29000D01*
X76500Y-27000D02*
X75500Y-28000D01*
X75500Y-29000D02*
X76000Y-29000D01*
X76500Y-29500D02*
X77000Y-29500D01*
X76000Y-29000D02*
X76500Y-29500D01*
X77000Y-29500D02*
X77750Y-29500D01*
X78750Y-28500D02*
X80000Y-28500D01*
X77750Y-29500D02*
X78750Y-28500D01*
X72000Y-28500D02*
X72000Y-27750D01*
X64350Y-33500D02*
X60500Y-33500D01*
X65200Y-32650D02*
X64350Y-33500D01*
X65200Y-28150D02*
X65200Y-32650D01*
X66050Y-27300D02*
X65200Y-28150D01*
X71550Y-27300D02*
X66050Y-27300D01*
X72000Y-27750D02*
X71550Y-27300D01*
X73000Y-28500D02*
X72000Y-28500D01*
X72500Y-26500D02*
X72500Y-27250D01*
X73000Y-27750D02*
X73000Y-28500D01*
X72500Y-27250D02*
X73000Y-27750D01*
X72500Y-24500D02*
X73000Y-24000D01*
X73000Y-24000D02*
X74000Y-24000D01*
X74000Y-24000D02*
X74250Y-23750D01*
X74250Y-23750D02*
X76750Y-23750D01*
X76750Y-23750D02*
X77000Y-24000D01*
X74000Y-28500D02*
X74000Y-27000D01*
X74000Y-27000D02*
X74500Y-26500D01*
X74500Y-26500D02*
X75500Y-26500D01*
X60500Y-35500D02*
X62000Y-35500D01*
X52500Y-37000D02*
X54461Y-37000D01*
X54461Y-37000D02*
X54961Y-36500D01*
X54961Y-36500D02*
X57500Y-36500D01*
X52500Y-39000D02*
X54461Y-39000D01*
X54461Y-39000D02*
X55961Y-37500D01*
X55961Y-37500D02*
X57500Y-37500D01*
X72000Y-51500D02*
X73500Y-51500D01*
X48000Y-54500D02*
X48000Y-53500D01*
X48000Y-53500D02*
X50000Y-51500D01*
G54D32*
X57500Y-40500D02*
X56000Y-40500D01*
X50500Y-51000D02*
X50000Y-51500D01*
X54000Y-51000D02*
X50500Y-51000D01*
X55000Y-50000D02*
X54000Y-51000D01*
X55000Y-41500D02*
X55000Y-50000D01*
X56000Y-40500D02*
X55000Y-41500D01*
X48000Y-54500D02*
X53000Y-54500D01*
G54D30*
X79000Y-51500D02*
X80500Y-51500D01*
X41000Y-54500D02*
X41000Y-53500D01*
X41000Y-53500D02*
X43000Y-51500D01*
G54D32*
X57500Y-39500D02*
X56500Y-39500D01*
X43000Y-51000D02*
X43000Y-51500D01*
X43500Y-50500D02*
X43000Y-51000D01*
X54000Y-50500D02*
X43500Y-50500D01*
X54500Y-50000D02*
X54000Y-50500D01*
X54500Y-41500D02*
X54500Y-50000D01*
X56500Y-39500D02*
X54500Y-41500D01*
X41000Y-54500D02*
X46000Y-54500D01*
G54D30*
X58000Y-51500D02*
X59500Y-51500D01*
X34000Y-54500D02*
X34000Y-53500D01*
X34000Y-53500D02*
X36000Y-51500D01*
X57500Y-38500D02*
X57000Y-38500D01*
G54D32*
X57000Y-38500D02*
X54000Y-41500D01*
X54000Y-41500D02*
X54000Y-49500D01*
X54000Y-49500D02*
X53500Y-50000D01*
X53500Y-50000D02*
X36500Y-50000D01*
X36500Y-50000D02*
X36000Y-50500D01*
X36000Y-50500D02*
X36000Y-51500D01*
X34000Y-54500D02*
X39000Y-54500D01*
X57500Y-33500D02*
X53850Y-33500D01*
X51500Y-34900D02*
X51500Y-32500D01*
X51800Y-35200D02*
X51500Y-34900D01*
X53400Y-35200D02*
X51800Y-35200D01*
X53600Y-35000D02*
X53400Y-35200D01*
X53600Y-33750D02*
X53600Y-35000D01*
X53850Y-33500D02*
X53600Y-33750D01*
X51500Y-31500D02*
X54000Y-31500D01*
X55000Y-30500D02*
X57500Y-30500D01*
X54000Y-31500D02*
X55000Y-30500D01*
X57500Y-31500D02*
X57950Y-31500D01*
X52950Y-48000D02*
X51500Y-48000D01*
X56000Y-43450D02*
X56000Y-48000D01*
X56550Y-42900D02*
X56000Y-43450D01*
X57400Y-42900D02*
X56550Y-42900D01*
X58250Y-42050D02*
X57400Y-42900D01*
X58250Y-31800D02*
X58250Y-42050D01*
X57950Y-31500D02*
X58250Y-31800D01*
X57500Y-32500D02*
X53200Y-32500D01*
X52750Y-32950D02*
X52750Y-34500D01*
X53200Y-32500D02*
X52750Y-32950D01*
G54D30*
X60500Y-28500D02*
X60500Y-23000D01*
G54D32*
X51500Y-29500D02*
X57500Y-29500D01*
G54D30*
X57500Y-28500D02*
X59000Y-28500D01*
G54D32*
X65000Y-41350D02*
X65000Y-40500D01*
X65400Y-41750D02*
X65000Y-41350D01*
X65800Y-41750D02*
X65400Y-41750D01*
X65850Y-41700D02*
X65800Y-41750D01*
X64400Y-29000D02*
X64450Y-28950D01*
X59500Y-29000D02*
X64400Y-29000D01*
X59000Y-28500D02*
X59500Y-29000D01*
G54D30*
X55000Y-28500D02*
X57500Y-28500D01*
G54D32*
X60500Y-29500D02*
X59000Y-29500D01*
X52500Y-28500D02*
X51500Y-28500D01*
X53000Y-29000D02*
X52500Y-28500D01*
X58500Y-29000D02*
X53000Y-29000D01*
X59000Y-29500D02*
X58500Y-29000D01*
X51500Y-44000D02*
X52850Y-44000D01*
X61200Y-40500D02*
X60500Y-40500D01*
X61450Y-40750D02*
X61200Y-40500D01*
X61450Y-43550D02*
X61450Y-40750D01*
X61000Y-44000D02*
X61450Y-43550D01*
X58600Y-44000D02*
X61000Y-44000D01*
X58350Y-46000D02*
X62300Y-46000D01*
X62800Y-40100D02*
X63400Y-39500D01*
X62800Y-45500D02*
X62800Y-40100D01*
X62300Y-46000D02*
X62800Y-45500D01*
G54D30*
X60500Y-39500D02*
X63400Y-39500D01*
X63400Y-39500D02*
X64000Y-39500D01*
G54D32*
X60500Y-38500D02*
X59800Y-38500D01*
X61600Y-45000D02*
X58350Y-45000D01*
X62050Y-44550D02*
X61600Y-45000D01*
X62050Y-40350D02*
X62050Y-44550D01*
X61700Y-40000D02*
X62050Y-40350D01*
X59850Y-40000D02*
X61700Y-40000D01*
X59500Y-39650D02*
X59850Y-40000D01*
X59500Y-38800D02*
X59500Y-39650D01*
X59800Y-38500D02*
X59500Y-38800D01*
G54D30*
X60500Y-38500D02*
X61250Y-38500D01*
X64400Y-37900D02*
X65000Y-38500D01*
X61850Y-37900D02*
X64400Y-37900D01*
X61250Y-38500D02*
X61850Y-37900D01*
X65000Y-39500D02*
X66300Y-39500D01*
X66150Y-37500D02*
X60500Y-37500D01*
X66600Y-37950D02*
X66150Y-37500D01*
X66600Y-39200D02*
X66600Y-37950D01*
X66300Y-39500D02*
X66600Y-39200D01*
X58350Y-47000D02*
X65600Y-47000D01*
X66900Y-41400D02*
X65000Y-39500D01*
X66900Y-45700D02*
X66900Y-41400D01*
X65600Y-47000D02*
X66900Y-45700D01*
X77500Y-35000D02*
X77500Y-35250D01*
X77500Y-35250D02*
X78500Y-36250D01*
X78500Y-36250D02*
X78500Y-38000D01*
X75500Y-35500D02*
X77000Y-35500D01*
X77000Y-35500D02*
X77500Y-35000D01*
X73000Y-31500D02*
X73000Y-33000D01*
X73000Y-33000D02*
X73500Y-33500D01*
X73500Y-33500D02*
X73500Y-35500D01*
X74500Y-36500D02*
X74500Y-38000D01*
X39500Y-40000D02*
X39500Y-41500D01*
X62000Y-21500D02*
X62000Y-22500D01*
X62000Y-22500D02*
X61500Y-23000D01*
X61500Y-23000D02*
X64500Y-23000D01*
X51500Y-46000D02*
X53350Y-46000D01*
X51500Y-45000D02*
X53350Y-45000D01*
X51500Y-47000D02*
X53350Y-47000D01*
X65000Y-51500D02*
X66500Y-51500D01*
X55000Y-54500D02*
X55000Y-53500D01*
X55000Y-53500D02*
X57000Y-51500D01*
G54D32*
X57500Y-41500D02*
X56000Y-41500D01*
X55500Y-50000D02*
X57000Y-51500D01*
X55500Y-42000D02*
X55500Y-50000D01*
X56000Y-41500D02*
X55500Y-42000D01*
X55000Y-54500D02*
X60000Y-54500D01*
G54D30*
X69000Y-54500D02*
X69000Y-53500D01*
X69000Y-53500D02*
X71000Y-51500D01*
G54D32*
X60500Y-32500D02*
X59300Y-32500D01*
X59300Y-32500D02*
X59000Y-32800D01*
X59000Y-32800D02*
X59000Y-42400D01*
X59000Y-42400D02*
X57100Y-44300D01*
X57100Y-44300D02*
X57100Y-48100D01*
X57100Y-48100D02*
X57500Y-48500D01*
X57500Y-48500D02*
X70100Y-48500D01*
X70100Y-48500D02*
X71000Y-49400D01*
X71000Y-49400D02*
X71000Y-51500D01*
X69000Y-54500D02*
X74000Y-54500D01*
G54D30*
X76000Y-54500D02*
X76000Y-53500D01*
X76000Y-53500D02*
X78000Y-51500D01*
G54D32*
X60500Y-41500D02*
X60500Y-43000D01*
X60500Y-43000D02*
X60100Y-43400D01*
X60100Y-43400D02*
X58600Y-43400D01*
X58600Y-43400D02*
X57700Y-44300D01*
X57700Y-44300D02*
X57700Y-47400D01*
X57700Y-47400D02*
X58200Y-47900D01*
X58200Y-47900D02*
X77100Y-47900D01*
X77100Y-47900D02*
X78000Y-48800D01*
X78000Y-48800D02*
X78000Y-51500D01*
X60500Y-41500D02*
X60450Y-41500D01*
X81000Y-54500D02*
X76000Y-54500D01*
G54D30*
X62000Y-54500D02*
X62000Y-53500D01*
X62000Y-53500D02*
X64000Y-51500D01*
G54D32*
X60500Y-31500D02*
X59400Y-31500D01*
X59400Y-31500D02*
X58700Y-32200D01*
X58700Y-32200D02*
X58700Y-42200D01*
X58700Y-42200D02*
X57400Y-43500D01*
X57400Y-43500D02*
X56500Y-44400D01*
X56500Y-44400D02*
X56500Y-47600D01*
X56500Y-47600D02*
X56500Y-49400D01*
X56500Y-49400D02*
X56900Y-49800D01*
X56900Y-49800D02*
X63000Y-49800D01*
X63000Y-49800D02*
X64000Y-50800D01*
X64000Y-50800D02*
X64000Y-51500D01*
X62000Y-54500D02*
X67000Y-54500D01*
X51500Y-30500D02*
X54500Y-30500D01*
X59500Y-30500D02*
X60500Y-30500D01*
X59000Y-30000D02*
X59500Y-30500D01*
X55000Y-30000D02*
X59000Y-30000D01*
X54500Y-30500D02*
X55000Y-30000D01*
G54D30*
X51000Y-51500D02*
X52500Y-51500D01*
X44000Y-51500D02*
X45500Y-51500D01*
X37000Y-51500D02*
X38500Y-51500D01*
G54D10*
G36*
X36950Y-42368D02*
X36726Y-42655D01*
X36725Y-42655D01*
X36725Y-42656D01*
X36725Y-42954D01*
X36653Y-42940D01*
X36346Y-42940D01*
X36275Y-42954D01*
X36275Y-42656D01*
X36275Y-42655D01*
X36273Y-42655D01*
X36031Y-42345D01*
X36275Y-42345D01*
X36275Y-42190D01*
X36725Y-42190D01*
X36725Y-42345D01*
X36950Y-42345D01*
X36950Y-42368D01*
X36950Y-42368D01*
G37*
G54D33*
X36950Y-42368D02*
X36726Y-42655D01*
X36725Y-42655D01*
X36725Y-42656D01*
X36725Y-42954D01*
X36653Y-42940D01*
X36346Y-42940D01*
X36275Y-42954D01*
X36275Y-42656D01*
X36275Y-42655D01*
X36273Y-42655D01*
X36031Y-42345D01*
X36275Y-42345D01*
X36275Y-42190D01*
X36725Y-42190D01*
X36725Y-42345D01*
X36950Y-42345D01*
X36950Y-42368D01*
G54D10*
G36*
X36950Y-44655D02*
X36725Y-44655D01*
X36725Y-44810D01*
X36275Y-44810D01*
X36275Y-44655D01*
X36031Y-44655D01*
X36273Y-44345D01*
X36275Y-44345D01*
X36275Y-44343D01*
X36275Y-44045D01*
X36346Y-44060D01*
X36653Y-44060D01*
X36725Y-44045D01*
X36725Y-44343D01*
X36725Y-44345D01*
X36726Y-44345D01*
X36950Y-44631D01*
X36950Y-44655D01*
X36950Y-44655D01*
G37*
G54D33*
X36950Y-44655D02*
X36725Y-44655D01*
X36725Y-44810D01*
X36275Y-44810D01*
X36275Y-44655D01*
X36031Y-44655D01*
X36273Y-44345D01*
X36275Y-44345D01*
X36275Y-44343D01*
X36275Y-44045D01*
X36346Y-44060D01*
X36653Y-44060D01*
X36725Y-44045D01*
X36725Y-44343D01*
X36725Y-44345D01*
X36726Y-44345D01*
X36950Y-44631D01*
X36950Y-44655D01*
G54D10*
G36*
X54791Y-34597D02*
X54597Y-34791D01*
X54500Y-34694D01*
X54402Y-34791D01*
X54208Y-34597D01*
X54305Y-34500D01*
X54208Y-34402D01*
X54402Y-34208D01*
X54500Y-34305D01*
X54597Y-34208D01*
X54791Y-34402D01*
X54694Y-34500D01*
X54791Y-34597D01*
X54791Y-34597D01*
G37*
G54D33*
X54791Y-34597D02*
X54597Y-34791D01*
X54500Y-34694D01*
X54402Y-34791D01*
X54208Y-34597D01*
X54305Y-34500D01*
X54208Y-34402D01*
X54402Y-34208D01*
X54500Y-34305D01*
X54597Y-34208D01*
X54791Y-34402D01*
X54694Y-34500D01*
X54791Y-34597D01*
G54D10*
G36*
X57925Y-35655D02*
X57725Y-35655D01*
X57725Y-35810D01*
X57275Y-35810D01*
X57275Y-35655D01*
X57050Y-35655D01*
X57050Y-35345D01*
X57275Y-35345D01*
X57275Y-35190D01*
X57725Y-35190D01*
X57725Y-35345D01*
X57925Y-35345D01*
X57925Y-35655D01*
X57925Y-35655D01*
G37*
G54D33*
X57925Y-35655D02*
X57725Y-35655D01*
X57725Y-35810D01*
X57275Y-35810D01*
X57275Y-35655D01*
X57050Y-35655D01*
X57050Y-35345D01*
X57275Y-35345D01*
X57275Y-35190D01*
X57725Y-35190D01*
X57725Y-35345D01*
X57925Y-35345D01*
X57925Y-35655D01*
G54D10*
G36*
X60950Y-34655D02*
X60725Y-34655D01*
X60725Y-34810D01*
X60275Y-34810D01*
X60275Y-34655D01*
X60050Y-34655D01*
X60050Y-34345D01*
X60275Y-34345D01*
X60275Y-34190D01*
X60725Y-34190D01*
X60725Y-34345D01*
X60950Y-34345D01*
X60950Y-34655D01*
X60950Y-34655D01*
G37*
G54D33*
X60950Y-34655D02*
X60725Y-34655D01*
X60725Y-34810D01*
X60275Y-34810D01*
X60275Y-34655D01*
X60050Y-34655D01*
X60050Y-34345D01*
X60275Y-34345D01*
X60275Y-34190D01*
X60725Y-34190D01*
X60725Y-34345D01*
X60950Y-34345D01*
X60950Y-34655D01*
G54D10*
G36*
X66550Y-45555D02*
X65455Y-46650D01*
X58777Y-46650D01*
X58661Y-46534D01*
X58580Y-46500D01*
X58661Y-46466D01*
X58802Y-46325D01*
X62300Y-46325D01*
X62424Y-46300D01*
X62424Y-46300D01*
X62529Y-46229D01*
X63029Y-45729D01*
X63029Y-45729D01*
X63029Y-45729D01*
X63072Y-45666D01*
X63100Y-45624D01*
X63100Y-45624D01*
X63125Y-45500D01*
X63125Y-42689D01*
X63459Y-42828D01*
X63830Y-42369D01*
X63830Y-40670D01*
X63660Y-40670D01*
X63660Y-40330D01*
X63830Y-40330D01*
X63830Y-40160D01*
X64170Y-40160D01*
X64170Y-40330D01*
X64340Y-40330D01*
X64340Y-40670D01*
X64170Y-40670D01*
X64170Y-42369D01*
X64540Y-42828D01*
X65263Y-42528D01*
X65715Y-42104D01*
X65765Y-42124D01*
X65934Y-42125D01*
X66090Y-42060D01*
X66210Y-41941D01*
X66274Y-41784D01*
X66275Y-41615D01*
X66210Y-41459D01*
X66200Y-41450D01*
X66390Y-41450D01*
X66390Y-41384D01*
X66550Y-41544D01*
X66550Y-45555D01*
X66550Y-45555D01*
G37*
G54D33*
X66550Y-45555D02*
X65455Y-46650D01*
X58777Y-46650D01*
X58661Y-46534D01*
X58580Y-46500D01*
X58661Y-46466D01*
X58802Y-46325D01*
X62300Y-46325D01*
X62424Y-46300D01*
X62424Y-46300D01*
X62529Y-46229D01*
X63029Y-45729D01*
X63029Y-45729D01*
X63029Y-45729D01*
X63072Y-45666D01*
X63100Y-45624D01*
X63100Y-45624D01*
X63125Y-45500D01*
X63125Y-42689D01*
X63459Y-42828D01*
X63830Y-42369D01*
X63830Y-40670D01*
X63660Y-40670D01*
X63660Y-40330D01*
X63830Y-40330D01*
X63830Y-40160D01*
X64170Y-40160D01*
X64170Y-40330D01*
X64340Y-40330D01*
X64340Y-40670D01*
X64170Y-40670D01*
X64170Y-42369D01*
X64540Y-42828D01*
X65263Y-42528D01*
X65715Y-42104D01*
X65765Y-42124D01*
X65934Y-42125D01*
X66090Y-42060D01*
X66210Y-41941D01*
X66274Y-41784D01*
X66275Y-41615D01*
X66210Y-41459D01*
X66200Y-41450D01*
X66390Y-41450D01*
X66390Y-41384D01*
X66550Y-41544D01*
X66550Y-45555D01*
G54D10*
G36*
X78791Y-41097D02*
X78745Y-41143D01*
X78265Y-41154D01*
X78208Y-41097D01*
X78305Y-41000D01*
X78208Y-40902D01*
X78402Y-40708D01*
X78500Y-40805D01*
X78597Y-40708D01*
X78791Y-40902D01*
X78694Y-41000D01*
X78791Y-41097D01*
X78791Y-41097D01*
G37*
G54D33*
X78791Y-41097D02*
X78745Y-41143D01*
X78265Y-41154D01*
X78208Y-41097D01*
X78305Y-41000D01*
X78208Y-40902D01*
X78402Y-40708D01*
X78500Y-40805D01*
X78597Y-40708D01*
X78791Y-40902D01*
X78694Y-41000D01*
X78791Y-41097D01*
G54D10*
G36*
X80150Y-36700D02*
X79762Y-37088D01*
X79705Y-37226D01*
X79495Y-36720D01*
X78907Y-36786D01*
X78850Y-36844D01*
X78850Y-36250D01*
X78823Y-36116D01*
X78775Y-36044D01*
X78779Y-36004D01*
X78730Y-35985D01*
X77973Y-35228D01*
X78024Y-35104D01*
X78025Y-34896D01*
X77945Y-34703D01*
X77797Y-34555D01*
X77604Y-34475D01*
X77396Y-34474D01*
X77203Y-34554D01*
X77055Y-34702D01*
X76975Y-34895D01*
X76974Y-35030D01*
X76855Y-35150D01*
X76020Y-35150D01*
X75996Y-35114D01*
X75819Y-34996D01*
X75610Y-34954D01*
X75389Y-34954D01*
X75180Y-34996D01*
X75003Y-35114D01*
X74885Y-35291D01*
X74843Y-35500D01*
X74885Y-35708D01*
X74896Y-35724D01*
X74573Y-35858D01*
X74500Y-35843D01*
X74291Y-35885D01*
X74114Y-36003D01*
X73996Y-36180D01*
X73954Y-36389D01*
X73954Y-36610D01*
X73987Y-36775D01*
X73504Y-36720D01*
X73166Y-37581D01*
X73184Y-38506D01*
X73504Y-39279D01*
X74092Y-39213D01*
X75177Y-38128D01*
X75184Y-38506D01*
X75185Y-38509D01*
X74286Y-39407D01*
X74259Y-39650D01*
X74000Y-39650D01*
X73866Y-39676D01*
X73752Y-39752D01*
X73252Y-40252D01*
X73176Y-40366D01*
X73150Y-40500D01*
X73150Y-41231D01*
X72912Y-41139D01*
X72850Y-41141D01*
X72850Y-35530D01*
X72885Y-35708D01*
X73003Y-35885D01*
X73180Y-36003D01*
X73389Y-36045D01*
X73610Y-36045D01*
X73819Y-36003D01*
X73996Y-35885D01*
X74114Y-35708D01*
X74156Y-35500D01*
X74114Y-35291D01*
X73996Y-35114D01*
X73850Y-35016D01*
X73850Y-33500D01*
X73845Y-33474D01*
X73845Y-31725D01*
X73690Y-31725D01*
X73690Y-31275D01*
X73845Y-31275D01*
X73845Y-31050D01*
X74155Y-31050D01*
X74155Y-31275D01*
X75045Y-31275D01*
X75054Y-31297D01*
X75202Y-31444D01*
X75395Y-31524D01*
X75603Y-31525D01*
X75797Y-31445D01*
X75944Y-31297D01*
X76007Y-31146D01*
X76313Y-30907D01*
X76225Y-30693D01*
X76581Y-30833D01*
X76590Y-30833D01*
X76702Y-30944D01*
X76895Y-31024D01*
X77103Y-31025D01*
X77297Y-30945D01*
X77425Y-30817D01*
X77506Y-30815D01*
X78279Y-30495D01*
X78213Y-29907D01*
X78025Y-29719D01*
X78219Y-29525D01*
X78407Y-29713D01*
X78995Y-29779D01*
X79333Y-28918D01*
X79331Y-28850D01*
X79607Y-28850D01*
X79702Y-28944D01*
X79835Y-29000D01*
X79703Y-29054D01*
X79555Y-29202D01*
X79475Y-29395D01*
X79474Y-29603D01*
X79554Y-29797D01*
X79702Y-29944D01*
X79835Y-30000D01*
X79703Y-30054D01*
X79555Y-30202D01*
X79475Y-30395D01*
X79474Y-30603D01*
X79554Y-30797D01*
X79650Y-30892D01*
X79650Y-32250D01*
X79676Y-32383D01*
X79752Y-32497D01*
X80150Y-32894D01*
X80150Y-33072D01*
X80050Y-33172D01*
X80050Y-33150D01*
X80011Y-33058D01*
X79941Y-32988D01*
X79849Y-32950D01*
X79750Y-32950D01*
X79150Y-32950D01*
X79058Y-32988D01*
X78988Y-33058D01*
X78950Y-33150D01*
X78025Y-33150D01*
X78025Y-31896D01*
X77945Y-31703D01*
X77797Y-31555D01*
X77604Y-31475D01*
X77396Y-31474D01*
X77203Y-31554D01*
X77055Y-31702D01*
X76975Y-31895D01*
X76974Y-32103D01*
X77054Y-32297D01*
X77202Y-32444D01*
X77395Y-32524D01*
X77603Y-32525D01*
X77797Y-32445D01*
X77944Y-32297D01*
X78024Y-32104D01*
X78025Y-31896D01*
X78025Y-33150D01*
X76644Y-33150D01*
X76524Y-33029D01*
X76525Y-32896D01*
X76445Y-32703D01*
X76297Y-32555D01*
X76149Y-32493D01*
X76313Y-32092D01*
X75843Y-31725D01*
X74155Y-31725D01*
X74155Y-33480D01*
X74521Y-33941D01*
X75316Y-33595D01*
X75583Y-33326D01*
X75702Y-33444D01*
X75895Y-33524D01*
X76030Y-33525D01*
X76252Y-33747D01*
X76366Y-33823D01*
X76366Y-33823D01*
X76500Y-33850D01*
X78950Y-33850D01*
X78988Y-33941D01*
X79058Y-34011D01*
X79150Y-34050D01*
X79249Y-34050D01*
X79849Y-34050D01*
X79941Y-34011D01*
X80011Y-33941D01*
X80050Y-33849D01*
X80050Y-33827D01*
X80150Y-33927D01*
X80150Y-36700D01*
X80150Y-36700D01*
G37*
G54D33*
X80150Y-36700D02*
X79762Y-37088D01*
X79705Y-37226D01*
X79495Y-36720D01*
X78907Y-36786D01*
X78850Y-36844D01*
X78850Y-36250D01*
X78823Y-36116D01*
X78775Y-36044D01*
X78779Y-36004D01*
X78730Y-35985D01*
X77973Y-35228D01*
X78024Y-35104D01*
X78025Y-34896D01*
X77945Y-34703D01*
X77797Y-34555D01*
X77604Y-34475D01*
X77396Y-34474D01*
X77203Y-34554D01*
X77055Y-34702D01*
X76975Y-34895D01*
X76974Y-35030D01*
X76855Y-35150D01*
X76020Y-35150D01*
X75996Y-35114D01*
X75819Y-34996D01*
X75610Y-34954D01*
X75389Y-34954D01*
X75180Y-34996D01*
X75003Y-35114D01*
X74885Y-35291D01*
X74843Y-35500D01*
X74885Y-35708D01*
X74896Y-35724D01*
X74573Y-35858D01*
X74500Y-35843D01*
X74291Y-35885D01*
X74114Y-36003D01*
X73996Y-36180D01*
X73954Y-36389D01*
X73954Y-36610D01*
X73987Y-36775D01*
X73504Y-36720D01*
X73166Y-37581D01*
X73184Y-38506D01*
X73504Y-39279D01*
X74092Y-39213D01*
X75177Y-38128D01*
X75184Y-38506D01*
X75185Y-38509D01*
X74286Y-39407D01*
X74259Y-39650D01*
X74000Y-39650D01*
X73866Y-39676D01*
X73752Y-39752D01*
X73252Y-40252D01*
X73176Y-40366D01*
X73150Y-40500D01*
X73150Y-41231D01*
X72912Y-41139D01*
X72850Y-41141D01*
X72850Y-35530D01*
X72885Y-35708D01*
X73003Y-35885D01*
X73180Y-36003D01*
X73389Y-36045D01*
X73610Y-36045D01*
X73819Y-36003D01*
X73996Y-35885D01*
X74114Y-35708D01*
X74156Y-35500D01*
X74114Y-35291D01*
X73996Y-35114D01*
X73850Y-35016D01*
X73850Y-33500D01*
X73845Y-33474D01*
X73845Y-31725D01*
X73690Y-31725D01*
X73690Y-31275D01*
X73845Y-31275D01*
X73845Y-31050D01*
X74155Y-31050D01*
X74155Y-31275D01*
X75045Y-31275D01*
X75054Y-31297D01*
X75202Y-31444D01*
X75395Y-31524D01*
X75603Y-31525D01*
X75797Y-31445D01*
X75944Y-31297D01*
X76007Y-31146D01*
X76313Y-30907D01*
X76225Y-30693D01*
X76581Y-30833D01*
X76590Y-30833D01*
X76702Y-30944D01*
X76895Y-31024D01*
X77103Y-31025D01*
X77297Y-30945D01*
X77425Y-30817D01*
X77506Y-30815D01*
X78279Y-30495D01*
X78213Y-29907D01*
X78025Y-29719D01*
X78219Y-29525D01*
X78407Y-29713D01*
X78995Y-29779D01*
X79333Y-28918D01*
X79331Y-28850D01*
X79607Y-28850D01*
X79702Y-28944D01*
X79835Y-29000D01*
X79703Y-29054D01*
X79555Y-29202D01*
X79475Y-29395D01*
X79474Y-29603D01*
X79554Y-29797D01*
X79702Y-29944D01*
X79835Y-30000D01*
X79703Y-30054D01*
X79555Y-30202D01*
X79475Y-30395D01*
X79474Y-30603D01*
X79554Y-30797D01*
X79650Y-30892D01*
X79650Y-32250D01*
X79676Y-32383D01*
X79752Y-32497D01*
X80150Y-32894D01*
X80150Y-33072D01*
X80050Y-33172D01*
X80050Y-33150D01*
X80011Y-33058D01*
X79941Y-32988D01*
X79849Y-32950D01*
X79750Y-32950D01*
X79150Y-32950D01*
X79058Y-32988D01*
X78988Y-33058D01*
X78950Y-33150D01*
X78025Y-33150D01*
X78025Y-31896D01*
X77945Y-31703D01*
X77797Y-31555D01*
X77604Y-31475D01*
X77396Y-31474D01*
X77203Y-31554D01*
X77055Y-31702D01*
X76975Y-31895D01*
X76974Y-32103D01*
X77054Y-32297D01*
X77202Y-32444D01*
X77395Y-32524D01*
X77603Y-32525D01*
X77797Y-32445D01*
X77944Y-32297D01*
X78024Y-32104D01*
X78025Y-31896D01*
X78025Y-33150D01*
X76644Y-33150D01*
X76524Y-33029D01*
X76525Y-32896D01*
X76445Y-32703D01*
X76297Y-32555D01*
X76149Y-32493D01*
X76313Y-32092D01*
X75843Y-31725D01*
X74155Y-31725D01*
X74155Y-33480D01*
X74521Y-33941D01*
X75316Y-33595D01*
X75583Y-33326D01*
X75702Y-33444D01*
X75895Y-33524D01*
X76030Y-33525D01*
X76252Y-33747D01*
X76366Y-33823D01*
X76366Y-33823D01*
X76500Y-33850D01*
X78950Y-33850D01*
X78988Y-33941D01*
X79058Y-34011D01*
X79150Y-34050D01*
X79249Y-34050D01*
X79849Y-34050D01*
X79941Y-34011D01*
X80011Y-33941D01*
X80050Y-33849D01*
X80050Y-33827D01*
X80150Y-33927D01*
X80150Y-36700D01*
G54D10*
G36*
X84730Y-62230D02*
X84350Y-62230D01*
X84350Y-39457D01*
X84350Y-39362D01*
X84350Y-37937D01*
X84350Y-37842D01*
X84037Y-37088D01*
X83461Y-36512D01*
X82707Y-36200D01*
X82612Y-36200D01*
X82300Y-36512D01*
X82300Y-24937D01*
X82300Y-23200D01*
X80562Y-23200D01*
X80050Y-23712D01*
X80050Y-23807D01*
X80362Y-24561D01*
X80938Y-25137D01*
X81692Y-25450D01*
X81787Y-25450D01*
X82300Y-24937D01*
X82300Y-36512D01*
X82100Y-36712D01*
X82100Y-38450D01*
X83837Y-38450D01*
X84350Y-37937D01*
X84350Y-39362D01*
X83837Y-38850D01*
X82100Y-38850D01*
X82100Y-40587D01*
X82612Y-41100D01*
X82707Y-41100D01*
X83461Y-40787D01*
X84037Y-40211D01*
X84350Y-39457D01*
X84350Y-62230D01*
X84025Y-62230D01*
X84025Y-51396D01*
X83945Y-51203D01*
X83797Y-51055D01*
X83604Y-50975D01*
X83396Y-50974D01*
X83203Y-51054D01*
X83055Y-51202D01*
X82975Y-51395D01*
X82974Y-51603D01*
X83054Y-51797D01*
X83202Y-51944D01*
X83395Y-52024D01*
X83603Y-52025D01*
X83797Y-51945D01*
X83944Y-51797D01*
X84024Y-51604D01*
X84025Y-51396D01*
X84025Y-62230D01*
X83840Y-62230D01*
X83840Y-60333D01*
X83712Y-60024D01*
X83588Y-59899D01*
X83588Y-57040D01*
X83588Y-55959D01*
X83215Y-55129D01*
X82541Y-54485D01*
X81950Y-54255D01*
X81950Y-54110D01*
X81712Y-54110D01*
X81693Y-54082D01*
X81502Y-53954D01*
X81276Y-53910D01*
X80723Y-53910D01*
X80497Y-53954D01*
X80306Y-54082D01*
X80287Y-54110D01*
X80049Y-54110D01*
X80049Y-54175D01*
X76950Y-54175D01*
X76950Y-54110D01*
X76712Y-54110D01*
X76693Y-54082D01*
X76502Y-53954D01*
X76350Y-53924D01*
X76350Y-53644D01*
X77970Y-52024D01*
X78103Y-52025D01*
X78297Y-51945D01*
X78444Y-51797D01*
X78475Y-51725D01*
X78475Y-51824D01*
X78513Y-51916D01*
X78583Y-51986D01*
X78675Y-52025D01*
X78774Y-52025D01*
X79324Y-52025D01*
X79416Y-51986D01*
X79486Y-51916D01*
X79514Y-51850D01*
X80107Y-51850D01*
X80202Y-51944D01*
X80395Y-52024D01*
X80603Y-52025D01*
X80797Y-51945D01*
X80944Y-51797D01*
X81024Y-51604D01*
X81025Y-51396D01*
X80945Y-51203D01*
X80797Y-51055D01*
X80604Y-50975D01*
X80396Y-50974D01*
X80203Y-51054D01*
X80107Y-51150D01*
X79784Y-51150D01*
X79784Y-45522D01*
X79721Y-44933D01*
X78500Y-43712D01*
X77278Y-44933D01*
X77215Y-45522D01*
X78087Y-45860D01*
X79022Y-45838D01*
X79784Y-45522D01*
X79784Y-51150D01*
X79514Y-51150D01*
X79486Y-51083D01*
X79416Y-51013D01*
X79324Y-50975D01*
X79225Y-50975D01*
X78675Y-50975D01*
X78583Y-51013D01*
X78513Y-51083D01*
X78475Y-51175D01*
X78475Y-51274D01*
X78475Y-51274D01*
X78445Y-51203D01*
X78325Y-51082D01*
X78325Y-48800D01*
X78300Y-48675D01*
X78300Y-48675D01*
X78229Y-48570D01*
X77329Y-47670D01*
X77224Y-47599D01*
X77100Y-47575D01*
X73784Y-47575D01*
X73784Y-45522D01*
X73721Y-44933D01*
X72500Y-43712D01*
X71278Y-44933D01*
X71215Y-45522D01*
X72087Y-45860D01*
X73022Y-45838D01*
X73784Y-45522D01*
X73784Y-47575D01*
X58334Y-47575D01*
X58309Y-47549D01*
X58458Y-47550D01*
X58661Y-47466D01*
X58777Y-47350D01*
X65600Y-47350D01*
X65733Y-47323D01*
X65733Y-47323D01*
X65847Y-47247D01*
X67147Y-45947D01*
X67223Y-45833D01*
X67223Y-45833D01*
X67250Y-45700D01*
X67250Y-41400D01*
X67223Y-41266D01*
X67223Y-41266D01*
X67147Y-41152D01*
X66390Y-40395D01*
X66390Y-39832D01*
X66433Y-39823D01*
X66433Y-39823D01*
X66547Y-39747D01*
X66847Y-39447D01*
X66923Y-39333D01*
X66923Y-39333D01*
X66950Y-39200D01*
X66950Y-37950D01*
X66923Y-37816D01*
X66923Y-37816D01*
X66847Y-37702D01*
X66397Y-37252D01*
X66283Y-37176D01*
X66235Y-37167D01*
X66333Y-36918D01*
X66325Y-36525D01*
X66347Y-36503D01*
X66325Y-36481D01*
X66315Y-35993D01*
X66309Y-35978D01*
X66333Y-35918D01*
X66325Y-35517D01*
X66347Y-35496D01*
X66324Y-35473D01*
X66315Y-34993D01*
X65995Y-34220D01*
X65407Y-34286D01*
X65272Y-34421D01*
X65078Y-34227D01*
X65213Y-34092D01*
X65279Y-33504D01*
X64964Y-33380D01*
X65447Y-32897D01*
X65523Y-32783D01*
X65523Y-32783D01*
X65550Y-32650D01*
X65550Y-28294D01*
X65978Y-27866D01*
X66478Y-28365D01*
X66651Y-28191D01*
X67087Y-28360D01*
X68022Y-28338D01*
X68784Y-28022D01*
X68744Y-27650D01*
X71405Y-27650D01*
X71650Y-27894D01*
X71650Y-27919D01*
X71604Y-27950D01*
X71500Y-28105D01*
X71395Y-27950D01*
X71214Y-27828D01*
X71000Y-27786D01*
X70785Y-27828D01*
X70604Y-27950D01*
X70482Y-28131D01*
X70440Y-28346D01*
X70440Y-28653D01*
X70482Y-28868D01*
X70500Y-28895D01*
X69918Y-28666D01*
X69909Y-28666D01*
X69797Y-28555D01*
X69604Y-28475D01*
X69396Y-28474D01*
X69203Y-28554D01*
X69074Y-28682D01*
X68993Y-28684D01*
X68220Y-29004D01*
X68286Y-29592D01*
X69500Y-30805D01*
X70713Y-29592D01*
X70762Y-29155D01*
X70785Y-29171D01*
X71000Y-29213D01*
X71214Y-29171D01*
X71395Y-29049D01*
X71500Y-28894D01*
X71604Y-29049D01*
X71785Y-29171D01*
X72000Y-29213D01*
X72214Y-29171D01*
X72395Y-29049D01*
X72500Y-28894D01*
X72604Y-29049D01*
X72785Y-29171D01*
X73000Y-29213D01*
X73049Y-29203D01*
X73049Y-29244D01*
X72683Y-29404D01*
X72035Y-30056D01*
X71997Y-30150D01*
X71673Y-30150D01*
X71495Y-29720D01*
X70907Y-29786D01*
X69694Y-31000D01*
X70224Y-31530D01*
X70030Y-31724D01*
X69500Y-31194D01*
X69305Y-31388D01*
X69305Y-31000D01*
X68092Y-29786D01*
X67504Y-29720D01*
X67166Y-30581D01*
X67184Y-31506D01*
X67504Y-32279D01*
X68092Y-32213D01*
X69305Y-31000D01*
X69305Y-31388D01*
X68286Y-32407D01*
X68220Y-32995D01*
X69081Y-33333D01*
X69400Y-33327D01*
X69400Y-33474D01*
X69396Y-33474D01*
X69203Y-33554D01*
X69055Y-33702D01*
X68975Y-33895D01*
X68974Y-34103D01*
X69054Y-34297D01*
X69150Y-34392D01*
X69150Y-34607D01*
X69055Y-34702D01*
X68975Y-34895D01*
X68974Y-35103D01*
X69054Y-35297D01*
X69202Y-35444D01*
X69395Y-35524D01*
X69603Y-35525D01*
X69797Y-35445D01*
X69944Y-35297D01*
X70024Y-35104D01*
X70025Y-34896D01*
X69945Y-34703D01*
X69850Y-34607D01*
X69850Y-34392D01*
X69944Y-34297D01*
X70024Y-34104D01*
X70025Y-33956D01*
X70073Y-33883D01*
X70073Y-33883D01*
X70100Y-33750D01*
X70100Y-33525D01*
X70103Y-33525D01*
X70297Y-33445D01*
X70444Y-33297D01*
X70524Y-33104D01*
X70524Y-33100D01*
X70779Y-32995D01*
X70713Y-32407D01*
X70525Y-32219D01*
X70572Y-32172D01*
X70640Y-32200D01*
X70739Y-32200D01*
X70894Y-32200D01*
X70907Y-32213D01*
X71495Y-32279D01*
X71592Y-32032D01*
X71604Y-32049D01*
X71640Y-32073D01*
X71640Y-32450D01*
X71650Y-32450D01*
X71650Y-32607D01*
X71555Y-32702D01*
X71475Y-32895D01*
X71474Y-33103D01*
X71554Y-33297D01*
X71631Y-33373D01*
X71252Y-33752D01*
X71176Y-33866D01*
X71150Y-34000D01*
X71150Y-37607D01*
X71055Y-37702D01*
X70975Y-37895D01*
X70974Y-38103D01*
X71054Y-38297D01*
X71202Y-38444D01*
X71395Y-38524D01*
X71603Y-38525D01*
X71797Y-38445D01*
X71944Y-38297D01*
X72024Y-38104D01*
X72025Y-37896D01*
X71945Y-37703D01*
X71850Y-37607D01*
X71850Y-34144D01*
X71974Y-34019D01*
X71974Y-34103D01*
X72054Y-34297D01*
X72202Y-34444D01*
X72335Y-34500D01*
X72203Y-34554D01*
X72055Y-34702D01*
X71975Y-34895D01*
X71974Y-35103D01*
X72054Y-35297D01*
X72150Y-35392D01*
X72150Y-41157D01*
X72001Y-41161D01*
X72024Y-41104D01*
X72025Y-40896D01*
X71945Y-40703D01*
X71797Y-40555D01*
X71604Y-40475D01*
X71396Y-40474D01*
X71203Y-40554D01*
X71055Y-40702D01*
X70975Y-40895D01*
X70974Y-41103D01*
X71054Y-41297D01*
X71150Y-41392D01*
X71150Y-42362D01*
X71066Y-42278D01*
X70477Y-42215D01*
X70139Y-43087D01*
X70161Y-44022D01*
X70477Y-44784D01*
X71066Y-44721D01*
X71737Y-44050D01*
X71849Y-44050D01*
X71941Y-44011D01*
X72011Y-43941D01*
X72050Y-43849D01*
X72050Y-43750D01*
X72050Y-43737D01*
X72287Y-43500D01*
X72050Y-43262D01*
X72050Y-43150D01*
X72011Y-43058D01*
X71941Y-42988D01*
X71850Y-42950D01*
X71850Y-42637D01*
X72500Y-43287D01*
X72606Y-43181D01*
X72818Y-43393D01*
X72712Y-43500D01*
X73933Y-44721D01*
X74522Y-44784D01*
X74807Y-44050D01*
X74849Y-44050D01*
X74941Y-44011D01*
X75011Y-43941D01*
X75050Y-43849D01*
X75050Y-43827D01*
X75188Y-43965D01*
X75390Y-44049D01*
X75608Y-44050D01*
X75811Y-43966D01*
X75965Y-43811D01*
X76049Y-43609D01*
X76050Y-43391D01*
X75966Y-43188D01*
X75850Y-43072D01*
X75850Y-42750D01*
X75823Y-42616D01*
X75823Y-42616D01*
X75747Y-42502D01*
X75247Y-42002D01*
X75133Y-41926D01*
X75000Y-41900D01*
X74644Y-41900D01*
X73850Y-41105D01*
X73850Y-40644D01*
X74144Y-40350D01*
X75500Y-40350D01*
X75633Y-40323D01*
X75633Y-40323D01*
X75634Y-40322D01*
X76006Y-40315D01*
X76322Y-40184D01*
X76208Y-40475D01*
X76175Y-40475D01*
X76083Y-40513D01*
X76013Y-40583D01*
X75985Y-40650D01*
X75892Y-40650D01*
X75797Y-40555D01*
X75604Y-40475D01*
X75396Y-40474D01*
X75203Y-40554D01*
X75107Y-40650D01*
X74892Y-40650D01*
X74797Y-40555D01*
X74604Y-40475D01*
X74396Y-40474D01*
X74203Y-40554D01*
X74055Y-40702D01*
X73975Y-40895D01*
X73974Y-41103D01*
X74054Y-41297D01*
X74202Y-41444D01*
X74395Y-41524D01*
X74603Y-41525D01*
X74797Y-41445D01*
X74892Y-41350D01*
X75107Y-41350D01*
X75202Y-41444D01*
X75395Y-41524D01*
X75603Y-41525D01*
X75797Y-41445D01*
X75892Y-41350D01*
X75985Y-41350D01*
X76013Y-41416D01*
X76083Y-41486D01*
X76150Y-41514D01*
X76150Y-42462D01*
X76134Y-42478D01*
X76150Y-42493D01*
X76150Y-42500D01*
X76176Y-42633D01*
X76252Y-42747D01*
X76266Y-42761D01*
X76139Y-43087D01*
X76161Y-44022D01*
X76477Y-44784D01*
X77066Y-44721D01*
X77737Y-44050D01*
X77849Y-44050D01*
X77941Y-44011D01*
X78011Y-43941D01*
X78050Y-43849D01*
X78050Y-43750D01*
X78050Y-43737D01*
X78287Y-43500D01*
X78181Y-43393D01*
X78245Y-43330D01*
X78745Y-43320D01*
X78818Y-43393D01*
X78712Y-43500D01*
X79933Y-44721D01*
X80522Y-44784D01*
X80860Y-43912D01*
X80838Y-42977D01*
X80699Y-42643D01*
X80865Y-42478D01*
X80619Y-42231D01*
X80847Y-42003D01*
X80672Y-41828D01*
X80833Y-41418D01*
X80825Y-40989D01*
X81092Y-41100D01*
X81187Y-41100D01*
X81700Y-40587D01*
X81700Y-38850D01*
X81522Y-38850D01*
X81562Y-38650D01*
X81522Y-38450D01*
X81700Y-38450D01*
X81700Y-36712D01*
X81187Y-36200D01*
X81092Y-36200D01*
X80850Y-36300D01*
X80850Y-33927D01*
X80965Y-33811D01*
X81049Y-33609D01*
X81050Y-33391D01*
X80966Y-33188D01*
X80850Y-33072D01*
X80850Y-32750D01*
X80823Y-32616D01*
X80823Y-32616D01*
X80747Y-32502D01*
X80350Y-32105D01*
X80350Y-30892D01*
X80444Y-30797D01*
X80524Y-30604D01*
X80525Y-30396D01*
X80445Y-30203D01*
X80297Y-30055D01*
X80164Y-29999D01*
X80297Y-29945D01*
X80444Y-29797D01*
X80524Y-29604D01*
X80525Y-29396D01*
X80445Y-29203D01*
X80297Y-29055D01*
X80164Y-28999D01*
X80297Y-28945D01*
X80444Y-28797D01*
X80524Y-28604D01*
X80525Y-28396D01*
X80445Y-28203D01*
X80297Y-28055D01*
X80104Y-27975D01*
X79896Y-27974D01*
X79703Y-28054D01*
X79607Y-28150D01*
X79318Y-28150D01*
X79315Y-27993D01*
X78995Y-27220D01*
X78407Y-27286D01*
X77194Y-28500D01*
X77724Y-29030D01*
X77605Y-29150D01*
X77455Y-29150D01*
X77000Y-28694D01*
X76902Y-28791D01*
X76708Y-28597D01*
X76805Y-28500D01*
X76708Y-28402D01*
X76902Y-28208D01*
X77000Y-28305D01*
X78213Y-27092D01*
X78279Y-26504D01*
X77833Y-26329D01*
X77418Y-26166D01*
X77179Y-26171D01*
X77833Y-25517D01*
X77847Y-25503D01*
X77833Y-25489D01*
X77672Y-25328D01*
X77833Y-24918D01*
X77815Y-23993D01*
X77495Y-23220D01*
X76907Y-23286D01*
X76787Y-23407D01*
X76750Y-23400D01*
X76405Y-23400D01*
X76713Y-23092D01*
X76779Y-22504D01*
X75918Y-22166D01*
X74993Y-22184D01*
X74220Y-22504D01*
X74286Y-23092D01*
X74594Y-23400D01*
X74250Y-23400D01*
X74212Y-23407D01*
X74092Y-23286D01*
X73504Y-23220D01*
X73335Y-23650D01*
X73000Y-23650D01*
X72866Y-23676D01*
X72752Y-23752D01*
X72529Y-23975D01*
X72396Y-23974D01*
X72203Y-24054D01*
X72055Y-24202D01*
X71975Y-24395D01*
X71974Y-24603D01*
X72054Y-24797D01*
X72202Y-24944D01*
X72395Y-25024D01*
X72603Y-25025D01*
X72797Y-24945D01*
X72944Y-24797D01*
X73024Y-24604D01*
X73025Y-24469D01*
X73144Y-24350D01*
X73171Y-24350D01*
X73184Y-25006D01*
X73504Y-25779D01*
X74092Y-25713D01*
X75305Y-24500D01*
X74905Y-24100D01*
X75294Y-24100D01*
X75500Y-24305D01*
X75705Y-24100D01*
X76094Y-24100D01*
X75694Y-24500D01*
X75791Y-24597D01*
X75597Y-24791D01*
X75500Y-24694D01*
X74286Y-25907D01*
X74247Y-26257D01*
X74029Y-26475D01*
X73896Y-26474D01*
X73703Y-26554D01*
X73555Y-26702D01*
X73475Y-26895D01*
X73474Y-27103D01*
X73554Y-27297D01*
X73650Y-27392D01*
X73650Y-27919D01*
X73604Y-27950D01*
X73500Y-28105D01*
X73395Y-27950D01*
X73350Y-27919D01*
X73350Y-27750D01*
X73323Y-27616D01*
X73323Y-27616D01*
X73247Y-27502D01*
X72850Y-27105D01*
X72850Y-26892D01*
X72944Y-26797D01*
X73024Y-26604D01*
X73025Y-26396D01*
X72945Y-26203D01*
X72797Y-26055D01*
X72604Y-25975D01*
X72396Y-25974D01*
X72203Y-26054D01*
X72055Y-26202D01*
X71975Y-26395D01*
X71974Y-26603D01*
X72054Y-26797D01*
X72150Y-26892D01*
X72150Y-27250D01*
X72176Y-27383D01*
X72252Y-27497D01*
X72650Y-27894D01*
X72650Y-27919D01*
X72604Y-27950D01*
X72500Y-28105D01*
X72395Y-27950D01*
X72350Y-27919D01*
X72350Y-27750D01*
X72323Y-27616D01*
X72323Y-27616D01*
X72247Y-27502D01*
X71900Y-27155D01*
X71797Y-27052D01*
X71683Y-26976D01*
X71550Y-26950D01*
X69652Y-26950D01*
X69860Y-26412D01*
X69838Y-25477D01*
X69773Y-25320D01*
X70006Y-25315D01*
X70779Y-24995D01*
X70713Y-24407D01*
X69596Y-23290D01*
X69790Y-23096D01*
X70907Y-24213D01*
X71495Y-24279D01*
X71833Y-23418D01*
X71817Y-22568D01*
X71899Y-22369D01*
X71900Y-22131D01*
X71900Y-18131D01*
X71808Y-17910D01*
X71640Y-17741D01*
X71419Y-17650D01*
X71181Y-17649D01*
X70960Y-17741D01*
X70791Y-17909D01*
X70700Y-18130D01*
X70699Y-18368D01*
X70791Y-18589D01*
X70959Y-18758D01*
X71180Y-18849D01*
X71418Y-18850D01*
X71639Y-18758D01*
X71808Y-18590D01*
X71899Y-18369D01*
X71900Y-18131D01*
X71900Y-22131D01*
X71808Y-21910D01*
X71640Y-21741D01*
X71419Y-21650D01*
X71181Y-21649D01*
X70960Y-21741D01*
X70915Y-21786D01*
X70907Y-21786D01*
X69768Y-22925D01*
X69691Y-22848D01*
X69839Y-22466D01*
X70713Y-21592D01*
X70779Y-21004D01*
X69918Y-20666D01*
X69909Y-20666D01*
X69797Y-20555D01*
X69604Y-20475D01*
X69396Y-20474D01*
X69203Y-20554D01*
X69074Y-20682D01*
X68993Y-20684D01*
X68664Y-20820D01*
X68565Y-20722D01*
X68721Y-20566D01*
X68784Y-19977D01*
X67912Y-19639D01*
X66977Y-19661D01*
X66215Y-19977D01*
X66278Y-20566D01*
X67430Y-21718D01*
X67218Y-21930D01*
X66066Y-20778D01*
X65477Y-20715D01*
X65139Y-21587D01*
X65161Y-22522D01*
X65477Y-23284D01*
X66066Y-23221D01*
X67222Y-22065D01*
X67287Y-22131D01*
X67327Y-22171D01*
X67287Y-22272D01*
X67189Y-22522D01*
X66278Y-23433D01*
X66220Y-23975D01*
X66215Y-23977D01*
X66218Y-24000D01*
X66215Y-24022D01*
X66220Y-24024D01*
X66278Y-24566D01*
X66950Y-25237D01*
X66950Y-25349D01*
X66988Y-25441D01*
X67058Y-25511D01*
X67150Y-25550D01*
X67249Y-25550D01*
X67262Y-25550D01*
X67500Y-25787D01*
X67606Y-25681D01*
X67818Y-25893D01*
X67712Y-26000D01*
X68662Y-26950D01*
X68237Y-26950D01*
X67500Y-26212D01*
X67393Y-26318D01*
X67181Y-26106D01*
X67287Y-26000D01*
X66066Y-24778D01*
X65477Y-24715D01*
X65139Y-25587D01*
X65161Y-26522D01*
X65300Y-26856D01*
X65134Y-27021D01*
X65483Y-27371D01*
X64952Y-27902D01*
X64876Y-28016D01*
X64850Y-28150D01*
X64850Y-28805D01*
X64810Y-28709D01*
X64691Y-28589D01*
X64534Y-28525D01*
X64365Y-28524D01*
X64209Y-28589D01*
X64123Y-28675D01*
X61178Y-28675D01*
X61213Y-28500D01*
X61171Y-28285D01*
X61049Y-28104D01*
X60868Y-27982D01*
X60850Y-27979D01*
X60850Y-24137D01*
X60933Y-24221D01*
X61522Y-24284D01*
X61857Y-23420D01*
X61927Y-23350D01*
X64072Y-23350D01*
X64188Y-23465D01*
X64390Y-23549D01*
X64608Y-23550D01*
X64811Y-23466D01*
X64965Y-23311D01*
X65049Y-23109D01*
X65050Y-22891D01*
X64966Y-22688D01*
X64811Y-22534D01*
X64730Y-22500D01*
X64811Y-22466D01*
X64965Y-22311D01*
X65049Y-22109D01*
X65050Y-21891D01*
X64966Y-21688D01*
X64811Y-21534D01*
X64730Y-21500D01*
X64811Y-21466D01*
X64965Y-21311D01*
X65049Y-21109D01*
X65050Y-20891D01*
X64966Y-20688D01*
X64811Y-20534D01*
X64609Y-20450D01*
X64391Y-20449D01*
X64188Y-20533D01*
X64034Y-20688D01*
X63950Y-20890D01*
X63949Y-21108D01*
X64033Y-21311D01*
X64188Y-21465D01*
X64269Y-21499D01*
X64188Y-21533D01*
X64034Y-21688D01*
X63950Y-21890D01*
X63949Y-22108D01*
X64033Y-22311D01*
X64188Y-22465D01*
X64269Y-22499D01*
X64188Y-22533D01*
X64072Y-22650D01*
X62312Y-22650D01*
X62323Y-22633D01*
X62323Y-22633D01*
X62350Y-22500D01*
X62350Y-21892D01*
X62444Y-21797D01*
X62524Y-21604D01*
X62525Y-21396D01*
X62445Y-21203D01*
X62297Y-21055D01*
X62104Y-20975D01*
X61896Y-20974D01*
X61703Y-21054D01*
X61555Y-21202D01*
X61475Y-21395D01*
X61474Y-21603D01*
X61521Y-21715D01*
X60933Y-21778D01*
X59712Y-23000D01*
X60150Y-23437D01*
X60150Y-23862D01*
X59500Y-23212D01*
X59393Y-23318D01*
X59330Y-23254D01*
X59320Y-22754D01*
X59393Y-22681D01*
X59500Y-22787D01*
X60721Y-21566D01*
X60784Y-20977D01*
X59912Y-20639D01*
X58977Y-20661D01*
X58643Y-20800D01*
X58478Y-20634D01*
X58231Y-20880D01*
X58003Y-20652D01*
X57828Y-20827D01*
X57418Y-20666D01*
X57409Y-20666D01*
X57297Y-20555D01*
X57104Y-20475D01*
X56896Y-20474D01*
X56703Y-20554D01*
X56574Y-20682D01*
X56493Y-20684D01*
X56164Y-20820D01*
X56065Y-20722D01*
X56221Y-20566D01*
X56284Y-19977D01*
X55412Y-19639D01*
X54477Y-19661D01*
X53715Y-19977D01*
X53778Y-20566D01*
X54930Y-21718D01*
X54718Y-21930D01*
X53566Y-20778D01*
X52977Y-20715D01*
X52639Y-21587D01*
X52661Y-22522D01*
X52977Y-23284D01*
X53566Y-23221D01*
X54722Y-22065D01*
X54787Y-22131D01*
X54827Y-22171D01*
X54787Y-22272D01*
X54689Y-22522D01*
X53778Y-23433D01*
X53720Y-23975D01*
X53715Y-23977D01*
X53718Y-24000D01*
X53715Y-24022D01*
X53720Y-24024D01*
X53778Y-24566D01*
X54450Y-25237D01*
X54450Y-25349D01*
X54488Y-25441D01*
X54558Y-25511D01*
X54650Y-25550D01*
X54749Y-25550D01*
X54762Y-25550D01*
X55000Y-25787D01*
X55106Y-25681D01*
X55318Y-25893D01*
X55212Y-26000D01*
X56433Y-27221D01*
X57022Y-27284D01*
X57360Y-26412D01*
X57338Y-25477D01*
X57273Y-25320D01*
X57506Y-25315D01*
X57835Y-25179D01*
X58003Y-25347D01*
X58231Y-25119D01*
X58478Y-25365D01*
X58651Y-25191D01*
X59087Y-25360D01*
X60022Y-25338D01*
X60150Y-25285D01*
X60150Y-27979D01*
X60131Y-27982D01*
X59950Y-28104D01*
X59828Y-28285D01*
X59786Y-28500D01*
X59821Y-28675D01*
X59634Y-28675D01*
X59318Y-28359D01*
X59247Y-28252D01*
X59133Y-28176D01*
X59000Y-28150D01*
X58200Y-28150D01*
X58200Y-28140D01*
X58161Y-28048D01*
X58091Y-27978D01*
X57999Y-27940D01*
X57900Y-27940D01*
X57000Y-27940D01*
X56908Y-27978D01*
X56838Y-28048D01*
X56800Y-28140D01*
X56800Y-28150D01*
X55977Y-28150D01*
X56284Y-28022D01*
X56221Y-27433D01*
X55000Y-26212D01*
X54787Y-26424D01*
X54787Y-26000D01*
X53566Y-24778D01*
X52977Y-24715D01*
X52639Y-25587D01*
X52661Y-26522D01*
X52977Y-27284D01*
X53566Y-27221D01*
X54787Y-26000D01*
X54787Y-26424D01*
X53778Y-27433D01*
X53715Y-28022D01*
X54503Y-28327D01*
X54475Y-28395D01*
X54474Y-28603D01*
X54504Y-28675D01*
X53134Y-28675D01*
X52729Y-28270D01*
X52624Y-28199D01*
X52500Y-28175D01*
X51952Y-28175D01*
X51811Y-28034D01*
X51730Y-28000D01*
X51811Y-27966D01*
X51965Y-27811D01*
X52049Y-27609D01*
X52050Y-27391D01*
X51966Y-27188D01*
X51811Y-27034D01*
X51730Y-27000D01*
X51811Y-26966D01*
X51965Y-26811D01*
X52049Y-26609D01*
X52050Y-26391D01*
X51966Y-26188D01*
X51811Y-26034D01*
X51730Y-26000D01*
X51811Y-25966D01*
X51965Y-25811D01*
X52049Y-25609D01*
X52050Y-25391D01*
X51966Y-25188D01*
X51811Y-25034D01*
X51609Y-24950D01*
X51391Y-24949D01*
X51188Y-25033D01*
X51034Y-25188D01*
X50950Y-25390D01*
X50949Y-25608D01*
X51033Y-25811D01*
X51188Y-25965D01*
X51269Y-25999D01*
X51188Y-26033D01*
X51034Y-26188D01*
X50950Y-26390D01*
X50949Y-26608D01*
X51033Y-26811D01*
X51188Y-26965D01*
X51269Y-26999D01*
X51188Y-27033D01*
X51034Y-27188D01*
X50950Y-27390D01*
X50949Y-27608D01*
X51033Y-27811D01*
X51188Y-27965D01*
X51269Y-27999D01*
X51188Y-28033D01*
X51034Y-28188D01*
X50950Y-28390D01*
X50949Y-28608D01*
X51033Y-28811D01*
X51188Y-28965D01*
X51269Y-28999D01*
X51188Y-29033D01*
X51034Y-29188D01*
X50950Y-29390D01*
X50949Y-29608D01*
X51033Y-29811D01*
X51188Y-29965D01*
X51269Y-29999D01*
X51188Y-30033D01*
X51034Y-30188D01*
X50950Y-30390D01*
X50949Y-30608D01*
X51033Y-30811D01*
X51188Y-30965D01*
X51269Y-30999D01*
X51188Y-31033D01*
X51034Y-31188D01*
X50950Y-31390D01*
X50949Y-31608D01*
X51033Y-31811D01*
X51188Y-31965D01*
X51269Y-31999D01*
X51188Y-32033D01*
X51034Y-32188D01*
X50950Y-32390D01*
X50949Y-32608D01*
X51033Y-32811D01*
X51175Y-32952D01*
X51175Y-34680D01*
X50993Y-34684D01*
X50220Y-35004D01*
X50286Y-35592D01*
X51371Y-36677D01*
X50993Y-36684D01*
X50990Y-36685D01*
X50092Y-35786D01*
X49504Y-35720D01*
X49166Y-36581D01*
X49184Y-37506D01*
X49318Y-37830D01*
X49152Y-37996D01*
X49156Y-37999D01*
X49152Y-38003D01*
X49325Y-38176D01*
X49166Y-38581D01*
X49184Y-39506D01*
X49504Y-40279D01*
X50092Y-40213D01*
X51002Y-39302D01*
X51081Y-39333D01*
X51366Y-39327D01*
X50286Y-40407D01*
X50222Y-40974D01*
X50215Y-40977D01*
X50278Y-41566D01*
X51500Y-42787D01*
X52721Y-41566D01*
X52784Y-40977D01*
X52777Y-40974D01*
X52713Y-40407D01*
X51628Y-39322D01*
X52006Y-39315D01*
X52009Y-39314D01*
X52907Y-40213D01*
X53495Y-40279D01*
X53833Y-39418D01*
X53831Y-39350D01*
X54117Y-39350D01*
X54190Y-39423D01*
X54391Y-39506D01*
X54608Y-39506D01*
X54808Y-39423D01*
X54962Y-39270D01*
X55045Y-39069D01*
X55045Y-38910D01*
X56105Y-37850D01*
X56549Y-37850D01*
X56549Y-37860D01*
X56926Y-37860D01*
X56950Y-37895D01*
X57105Y-37999D01*
X56950Y-38104D01*
X56907Y-38168D01*
X56866Y-38176D01*
X56752Y-38252D01*
X56681Y-38359D01*
X53770Y-41270D01*
X53699Y-41375D01*
X53675Y-41500D01*
X53675Y-42083D01*
X53522Y-41715D01*
X52933Y-41778D01*
X51712Y-43000D01*
X51818Y-43106D01*
X51606Y-43318D01*
X51500Y-43212D01*
X51287Y-43424D01*
X51287Y-43000D01*
X50066Y-41778D01*
X49477Y-41715D01*
X49139Y-42587D01*
X49161Y-43522D01*
X49477Y-44284D01*
X50066Y-44221D01*
X51287Y-43000D01*
X51287Y-43424D01*
X50278Y-44433D01*
X50215Y-45022D01*
X51079Y-45357D01*
X51188Y-45465D01*
X51269Y-45499D01*
X51188Y-45533D01*
X51034Y-45688D01*
X50950Y-45890D01*
X50949Y-46108D01*
X51033Y-46311D01*
X51188Y-46465D01*
X51269Y-46499D01*
X51188Y-46533D01*
X51034Y-46688D01*
X50950Y-46890D01*
X50949Y-47108D01*
X51033Y-47311D01*
X51188Y-47465D01*
X51269Y-47499D01*
X51188Y-47533D01*
X51034Y-47688D01*
X50950Y-47890D01*
X50949Y-48108D01*
X51033Y-48311D01*
X51188Y-48465D01*
X51269Y-48499D01*
X51188Y-48533D01*
X51034Y-48688D01*
X50950Y-48890D01*
X50949Y-49108D01*
X51033Y-49311D01*
X51188Y-49465D01*
X51390Y-49549D01*
X51608Y-49550D01*
X51811Y-49466D01*
X51965Y-49311D01*
X52049Y-49109D01*
X52050Y-48891D01*
X51966Y-48688D01*
X51811Y-48534D01*
X51730Y-48500D01*
X51811Y-48466D01*
X51952Y-48325D01*
X52673Y-48325D01*
X52708Y-48360D01*
X52865Y-48424D01*
X53034Y-48425D01*
X53190Y-48360D01*
X53310Y-48241D01*
X53374Y-48084D01*
X53375Y-47915D01*
X53310Y-47759D01*
X53191Y-47639D01*
X53034Y-47575D01*
X52865Y-47574D01*
X52709Y-47639D01*
X52674Y-47675D01*
X51952Y-47675D01*
X51811Y-47534D01*
X51730Y-47500D01*
X51811Y-47466D01*
X51927Y-47350D01*
X52922Y-47350D01*
X53038Y-47465D01*
X53240Y-47549D01*
X53458Y-47550D01*
X53661Y-47466D01*
X53675Y-47452D01*
X53675Y-49365D01*
X53365Y-49675D01*
X36500Y-49675D01*
X36375Y-49699D01*
X36333Y-49727D01*
X36270Y-49770D01*
X36270Y-49770D01*
X35770Y-50270D01*
X35699Y-50375D01*
X35675Y-50500D01*
X35675Y-51082D01*
X35555Y-51202D01*
X35475Y-51395D01*
X35474Y-51530D01*
X33752Y-53252D01*
X33676Y-53366D01*
X33650Y-53500D01*
X33650Y-53924D01*
X33497Y-53954D01*
X33306Y-54082D01*
X33287Y-54110D01*
X33049Y-54110D01*
X33049Y-54255D01*
X32458Y-54485D01*
X31784Y-55129D01*
X31411Y-55959D01*
X31870Y-56330D01*
X33700Y-56330D01*
X33700Y-56160D01*
X34300Y-56160D01*
X34300Y-56330D01*
X36129Y-56330D01*
X36500Y-56030D01*
X36870Y-56330D01*
X38700Y-56330D01*
X38700Y-56192D01*
X38870Y-56330D01*
X39300Y-56330D01*
X40700Y-56330D01*
X41129Y-56330D01*
X41300Y-56192D01*
X41300Y-56330D01*
X43129Y-56330D01*
X43500Y-56030D01*
X43870Y-56330D01*
X45700Y-56330D01*
X45700Y-56192D01*
X45870Y-56330D01*
X46300Y-56330D01*
X47700Y-56330D01*
X48129Y-56330D01*
X48300Y-56192D01*
X48300Y-56330D01*
X50129Y-56330D01*
X50500Y-56030D01*
X50870Y-56330D01*
X52700Y-56330D01*
X52700Y-56192D01*
X52870Y-56330D01*
X53300Y-56330D01*
X54700Y-56330D01*
X55129Y-56330D01*
X55300Y-56192D01*
X55300Y-56330D01*
X57129Y-56330D01*
X57500Y-56030D01*
X57870Y-56330D01*
X59700Y-56330D01*
X59700Y-56192D01*
X59870Y-56330D01*
X60300Y-56330D01*
X61700Y-56330D01*
X62129Y-56330D01*
X62300Y-56192D01*
X62300Y-56330D01*
X64129Y-56330D01*
X64500Y-56030D01*
X64870Y-56330D01*
X66700Y-56330D01*
X66700Y-56192D01*
X66870Y-56330D01*
X67300Y-56330D01*
X68700Y-56330D01*
X69129Y-56330D01*
X69300Y-56192D01*
X69300Y-56330D01*
X71129Y-56330D01*
X71500Y-56030D01*
X71870Y-56330D01*
X73700Y-56330D01*
X73700Y-56192D01*
X73870Y-56330D01*
X74300Y-56330D01*
X75700Y-56330D01*
X76129Y-56330D01*
X76300Y-56192D01*
X76300Y-56330D01*
X78129Y-56330D01*
X78500Y-56030D01*
X78870Y-56330D01*
X80700Y-56330D01*
X80700Y-56160D01*
X81300Y-56160D01*
X81300Y-56330D01*
X83129Y-56330D01*
X83588Y-55959D01*
X83588Y-57040D01*
X83129Y-56670D01*
X81300Y-56670D01*
X81300Y-58374D01*
X81672Y-58851D01*
X82541Y-58514D01*
X83215Y-57870D01*
X83588Y-57040D01*
X83588Y-59899D01*
X83476Y-59787D01*
X83167Y-59659D01*
X82833Y-59659D01*
X82524Y-59787D01*
X82287Y-60023D01*
X82159Y-60332D01*
X82159Y-60666D01*
X82287Y-60975D01*
X82523Y-61212D01*
X82832Y-61340D01*
X83166Y-61340D01*
X83475Y-61212D01*
X83712Y-60976D01*
X83840Y-60667D01*
X83840Y-60333D01*
X83840Y-62230D01*
X80700Y-62230D01*
X80700Y-58374D01*
X80700Y-56670D01*
X78870Y-56670D01*
X78500Y-56969D01*
X78129Y-56670D01*
X76300Y-56670D01*
X76300Y-56807D01*
X76129Y-56670D01*
X75700Y-56670D01*
X74300Y-56670D01*
X73870Y-56670D01*
X73700Y-56807D01*
X73700Y-56670D01*
X71870Y-56670D01*
X71500Y-56969D01*
X71129Y-56670D01*
X69300Y-56670D01*
X69300Y-56807D01*
X69129Y-56670D01*
X68700Y-56670D01*
X67300Y-56670D01*
X66870Y-56670D01*
X66700Y-56807D01*
X66700Y-56670D01*
X64870Y-56670D01*
X64500Y-56969D01*
X64129Y-56670D01*
X62300Y-56670D01*
X62300Y-56807D01*
X62129Y-56670D01*
X61700Y-56670D01*
X60300Y-56670D01*
X59870Y-56670D01*
X59700Y-56807D01*
X59700Y-56670D01*
X57870Y-56670D01*
X57500Y-56969D01*
X57129Y-56670D01*
X55300Y-56670D01*
X55300Y-56807D01*
X55129Y-56670D01*
X54700Y-56670D01*
X53300Y-56670D01*
X52870Y-56670D01*
X52700Y-56807D01*
X52700Y-56670D01*
X50870Y-56670D01*
X50500Y-56969D01*
X50129Y-56670D01*
X48300Y-56670D01*
X48300Y-56807D01*
X48129Y-56670D01*
X47700Y-56670D01*
X46300Y-56670D01*
X45870Y-56670D01*
X45700Y-56807D01*
X45700Y-56670D01*
X43870Y-56670D01*
X43500Y-56969D01*
X43129Y-56670D01*
X41300Y-56670D01*
X41300Y-56807D01*
X41129Y-56670D01*
X40700Y-56670D01*
X39300Y-56670D01*
X38870Y-56670D01*
X38700Y-56807D01*
X38700Y-56670D01*
X36870Y-56670D01*
X36500Y-56969D01*
X36129Y-56670D01*
X34300Y-56670D01*
X34300Y-58374D01*
X34672Y-58851D01*
X35541Y-58514D01*
X36215Y-57870D01*
X36500Y-57236D01*
X36784Y-57870D01*
X37458Y-58514D01*
X38327Y-58851D01*
X38700Y-58374D01*
X38700Y-57681D01*
X38784Y-57870D01*
X39300Y-58363D01*
X39300Y-58374D01*
X39672Y-58851D01*
X40000Y-58724D01*
X40327Y-58851D01*
X40700Y-58374D01*
X40700Y-58363D01*
X41215Y-57870D01*
X41300Y-57681D01*
X41300Y-58374D01*
X41672Y-58851D01*
X42541Y-58514D01*
X43215Y-57870D01*
X43500Y-57236D01*
X43784Y-57870D01*
X44458Y-58514D01*
X45327Y-58851D01*
X45700Y-58374D01*
X45700Y-57681D01*
X45784Y-57870D01*
X46300Y-58363D01*
X46300Y-58374D01*
X46672Y-58851D01*
X47000Y-58724D01*
X47327Y-58851D01*
X47700Y-58374D01*
X47700Y-58363D01*
X48215Y-57870D01*
X48300Y-57681D01*
X48300Y-58374D01*
X48672Y-58851D01*
X49541Y-58514D01*
X50215Y-57870D01*
X50500Y-57236D01*
X50784Y-57870D01*
X51458Y-58514D01*
X52327Y-58851D01*
X52700Y-58374D01*
X52700Y-57681D01*
X52784Y-57870D01*
X53300Y-58363D01*
X53300Y-58374D01*
X53672Y-58851D01*
X54000Y-58724D01*
X54327Y-58851D01*
X54700Y-58374D01*
X54700Y-58363D01*
X55215Y-57870D01*
X55300Y-57681D01*
X55300Y-58374D01*
X55672Y-58851D01*
X56541Y-58514D01*
X57215Y-57870D01*
X57500Y-57236D01*
X57784Y-57870D01*
X58458Y-58514D01*
X59327Y-58851D01*
X59700Y-58374D01*
X59700Y-57681D01*
X59784Y-57870D01*
X60300Y-58363D01*
X60300Y-58374D01*
X60672Y-58851D01*
X61000Y-58724D01*
X61327Y-58851D01*
X61700Y-58374D01*
X61700Y-58363D01*
X62215Y-57870D01*
X62300Y-57681D01*
X62300Y-58374D01*
X62672Y-58851D01*
X63541Y-58514D01*
X64215Y-57870D01*
X64499Y-57236D01*
X64784Y-57870D01*
X65458Y-58514D01*
X66327Y-58851D01*
X66700Y-58374D01*
X66700Y-57681D01*
X66784Y-57870D01*
X67300Y-58363D01*
X67300Y-58374D01*
X67672Y-58851D01*
X68000Y-58724D01*
X68327Y-58851D01*
X68700Y-58374D01*
X68700Y-58363D01*
X69215Y-57870D01*
X69300Y-57681D01*
X69300Y-58374D01*
X69672Y-58851D01*
X70541Y-58514D01*
X71215Y-57870D01*
X71500Y-57236D01*
X71784Y-57870D01*
X72458Y-58514D01*
X73327Y-58851D01*
X73700Y-58374D01*
X73700Y-57681D01*
X73784Y-57870D01*
X74300Y-58363D01*
X74300Y-58374D01*
X74672Y-58851D01*
X75000Y-58724D01*
X75327Y-58851D01*
X75700Y-58374D01*
X75700Y-58363D01*
X76215Y-57870D01*
X76300Y-57681D01*
X76300Y-58374D01*
X76672Y-58851D01*
X77541Y-58514D01*
X78215Y-57870D01*
X78499Y-57236D01*
X78784Y-57870D01*
X79458Y-58514D01*
X80327Y-58851D01*
X80700Y-58374D01*
X80700Y-62230D01*
X58340Y-62230D01*
X58340Y-60333D01*
X58212Y-60024D01*
X57976Y-59787D01*
X57667Y-59659D01*
X57333Y-59659D01*
X57024Y-59787D01*
X56787Y-60023D01*
X56659Y-60332D01*
X56659Y-60666D01*
X56787Y-60975D01*
X57023Y-61212D01*
X57332Y-61340D01*
X57666Y-61340D01*
X57975Y-61212D01*
X58212Y-60976D01*
X58340Y-60667D01*
X58340Y-60333D01*
X58340Y-62230D01*
X33700Y-62230D01*
X33700Y-58374D01*
X33700Y-56670D01*
X31870Y-56670D01*
X31411Y-57040D01*
X31784Y-57870D01*
X32458Y-58514D01*
X33327Y-58851D01*
X33700Y-58374D01*
X33700Y-62230D01*
X32840Y-62230D01*
X32840Y-60333D01*
X32712Y-60024D01*
X32476Y-59787D01*
X32167Y-59659D01*
X31833Y-59659D01*
X31524Y-59787D01*
X31287Y-60023D01*
X31159Y-60332D01*
X31159Y-60666D01*
X31287Y-60975D01*
X31523Y-61212D01*
X31832Y-61340D01*
X32166Y-61340D01*
X32475Y-61212D01*
X32712Y-60976D01*
X32840Y-60667D01*
X32840Y-60333D01*
X32840Y-62230D01*
X30269Y-62230D01*
X30269Y-48120D01*
X30704Y-48555D01*
X31004Y-49279D01*
X31385Y-49236D01*
X31496Y-49347D01*
X31671Y-49172D01*
X31923Y-49271D01*
X31786Y-49407D01*
X31720Y-49995D01*
X32581Y-50333D01*
X33506Y-50315D01*
X34279Y-49995D01*
X34213Y-49407D01*
X33828Y-49022D01*
X34022Y-48828D01*
X34407Y-49213D01*
X34995Y-49279D01*
X35333Y-48418D01*
X35333Y-48409D01*
X35392Y-48350D01*
X36607Y-48350D01*
X36702Y-48444D01*
X36895Y-48524D01*
X37103Y-48525D01*
X37297Y-48445D01*
X37444Y-48297D01*
X37474Y-48226D01*
X37592Y-48213D01*
X38805Y-47000D01*
X38708Y-46902D01*
X38902Y-46708D01*
X39000Y-46805D01*
X39314Y-46491D01*
X39395Y-46524D01*
X39603Y-46525D01*
X39715Y-46479D01*
X39194Y-47000D01*
X39844Y-47650D01*
X39455Y-47650D01*
X39000Y-47194D01*
X37786Y-48407D01*
X37720Y-48995D01*
X38581Y-49333D01*
X39506Y-49315D01*
X40279Y-48995D01*
X40213Y-48407D01*
X40155Y-48350D01*
X40500Y-48350D01*
X40633Y-48323D01*
X40633Y-48323D01*
X40742Y-48251D01*
X40995Y-48279D01*
X41176Y-47818D01*
X48997Y-39997D01*
X49073Y-39883D01*
X49073Y-39883D01*
X49100Y-39750D01*
X49100Y-36000D01*
X49100Y-34892D01*
X49142Y-34850D01*
X49357Y-34850D01*
X49452Y-34944D01*
X49645Y-35024D01*
X49853Y-35025D01*
X50047Y-34945D01*
X50194Y-34797D01*
X50274Y-34604D01*
X50275Y-34396D01*
X50195Y-34203D01*
X50047Y-34055D01*
X49854Y-33975D01*
X49725Y-33974D01*
X49721Y-33933D01*
X49587Y-33799D01*
X49799Y-33587D01*
X49933Y-33721D01*
X50522Y-33784D01*
X50860Y-32912D01*
X50851Y-32535D01*
X50865Y-32521D01*
X50850Y-32507D01*
X50838Y-31977D01*
X50836Y-31973D01*
X50860Y-31912D01*
X50851Y-31535D01*
X50865Y-31521D01*
X50850Y-31507D01*
X50850Y-31493D01*
X50865Y-31478D01*
X50849Y-31462D01*
X50838Y-30977D01*
X50836Y-30973D01*
X50860Y-30912D01*
X50851Y-30535D01*
X50865Y-30521D01*
X50850Y-30507D01*
X50850Y-30493D01*
X50865Y-30478D01*
X50849Y-30462D01*
X50838Y-29977D01*
X50836Y-29973D01*
X50860Y-29912D01*
X50851Y-29535D01*
X50865Y-29521D01*
X50850Y-29507D01*
X50850Y-29493D01*
X50865Y-29478D01*
X50849Y-29462D01*
X50838Y-28977D01*
X50836Y-28973D01*
X50860Y-28912D01*
X50851Y-28535D01*
X50865Y-28521D01*
X50850Y-28507D01*
X50850Y-28493D01*
X50865Y-28478D01*
X50849Y-28462D01*
X50838Y-27977D01*
X50836Y-27973D01*
X50860Y-27912D01*
X50851Y-27535D01*
X50865Y-27521D01*
X50850Y-27507D01*
X50850Y-27493D01*
X50865Y-27478D01*
X50849Y-27462D01*
X50838Y-26977D01*
X50836Y-26973D01*
X50860Y-26912D01*
X50850Y-26493D01*
X50865Y-26478D01*
X50849Y-26462D01*
X50844Y-26221D01*
X50850Y-26207D01*
X50850Y-26162D01*
X50842Y-26155D01*
X50838Y-25977D01*
X50699Y-25643D01*
X50865Y-25478D01*
X50537Y-25150D01*
X50850Y-24837D01*
X50850Y-24792D01*
X50537Y-24038D01*
X49961Y-23462D01*
X49207Y-23150D01*
X49162Y-23150D01*
X48650Y-23662D01*
X48650Y-24145D01*
X48350Y-24152D01*
X48350Y-23662D01*
X47837Y-23150D01*
X47792Y-23150D01*
X47038Y-23462D01*
X46462Y-24038D01*
X46150Y-24792D01*
X46150Y-24837D01*
X46462Y-25150D01*
X46134Y-25478D01*
X46308Y-25651D01*
X46139Y-26087D01*
X46148Y-26464D01*
X46134Y-26478D01*
X46149Y-26492D01*
X46161Y-27022D01*
X46163Y-27026D01*
X46139Y-27087D01*
X46148Y-27464D01*
X46134Y-27478D01*
X46149Y-27492D01*
X46149Y-27506D01*
X46134Y-27521D01*
X46150Y-27537D01*
X46161Y-28022D01*
X46163Y-28026D01*
X46139Y-28087D01*
X46148Y-28464D01*
X46134Y-28478D01*
X46149Y-28492D01*
X46149Y-28506D01*
X46134Y-28521D01*
X46150Y-28537D01*
X46161Y-29022D01*
X46163Y-29026D01*
X46139Y-29087D01*
X46148Y-29464D01*
X46134Y-29478D01*
X46149Y-29492D01*
X46149Y-29506D01*
X46134Y-29521D01*
X46150Y-29537D01*
X46161Y-30022D01*
X46163Y-30026D01*
X46139Y-30087D01*
X46148Y-30464D01*
X46134Y-30478D01*
X46149Y-30492D01*
X46149Y-30506D01*
X46134Y-30521D01*
X46150Y-30537D01*
X46161Y-31022D01*
X46163Y-31026D01*
X46139Y-31087D01*
X46148Y-31464D01*
X46134Y-31478D01*
X46149Y-31492D01*
X46149Y-31506D01*
X46134Y-31521D01*
X46150Y-31537D01*
X46161Y-32022D01*
X46163Y-32026D01*
X46139Y-32087D01*
X46142Y-32225D01*
X45470Y-32504D01*
X45536Y-33092D01*
X46750Y-34305D01*
X46834Y-34221D01*
X47028Y-34415D01*
X46944Y-34500D01*
X47041Y-34597D01*
X46847Y-34791D01*
X46750Y-34694D01*
X46555Y-34888D01*
X46555Y-34500D01*
X45342Y-33286D01*
X44754Y-33220D01*
X44416Y-34081D01*
X44434Y-35006D01*
X44754Y-35779D01*
X45342Y-35713D01*
X46555Y-34500D01*
X46555Y-34888D01*
X45536Y-35907D01*
X45470Y-36495D01*
X46331Y-36833D01*
X47256Y-36815D01*
X47585Y-36679D01*
X47753Y-36847D01*
X48029Y-36571D01*
X48400Y-36201D01*
X48400Y-39605D01*
X48029Y-39975D01*
X45355Y-42649D01*
X45355Y-38413D01*
X45334Y-37480D01*
X45017Y-36716D01*
X44428Y-36779D01*
X44283Y-36925D01*
X44283Y-35982D01*
X43413Y-35644D01*
X42480Y-35665D01*
X41716Y-35982D01*
X41779Y-36571D01*
X43000Y-37791D01*
X44220Y-36571D01*
X44283Y-35982D01*
X44283Y-36925D01*
X43208Y-38000D01*
X44428Y-39220D01*
X45017Y-39283D01*
X45355Y-38413D01*
X45355Y-42649D01*
X44283Y-43721D01*
X44283Y-40017D01*
X44220Y-39428D01*
X43000Y-38208D01*
X42791Y-38417D01*
X42791Y-38000D01*
X41571Y-36779D01*
X40982Y-36716D01*
X40877Y-36986D01*
X40877Y-26622D01*
X40877Y-25059D01*
X33622Y-25059D01*
X33622Y-26622D01*
X40877Y-26622D01*
X40877Y-36986D01*
X40644Y-37586D01*
X40665Y-38519D01*
X40982Y-39283D01*
X41571Y-39220D01*
X42791Y-38000D01*
X42791Y-38417D01*
X41779Y-39428D01*
X41716Y-40017D01*
X42582Y-40353D01*
X42690Y-40462D01*
X42891Y-40545D01*
X43108Y-40545D01*
X43308Y-40462D01*
X43435Y-40336D01*
X43519Y-40334D01*
X44283Y-40017D01*
X44283Y-43721D01*
X41319Y-46685D01*
X41315Y-46493D01*
X40995Y-45720D01*
X40407Y-45786D01*
X39978Y-46215D01*
X40024Y-46104D01*
X40025Y-45896D01*
X39991Y-45814D01*
X40213Y-45592D01*
X40279Y-45004D01*
X40032Y-44907D01*
X40049Y-44895D01*
X40171Y-44714D01*
X40213Y-44500D01*
X40171Y-44285D01*
X40049Y-44104D01*
X39894Y-43999D01*
X40049Y-43895D01*
X40171Y-43714D01*
X40213Y-43500D01*
X40171Y-43285D01*
X40049Y-43104D01*
X39894Y-42999D01*
X40049Y-42895D01*
X40171Y-42714D01*
X40213Y-42500D01*
X40171Y-42285D01*
X40049Y-42104D01*
X39894Y-41999D01*
X40049Y-41895D01*
X40171Y-41714D01*
X40213Y-41500D01*
X40171Y-41285D01*
X40049Y-41104D01*
X39868Y-40982D01*
X39850Y-40979D01*
X39850Y-40392D01*
X39944Y-40297D01*
X40024Y-40104D01*
X40025Y-39896D01*
X39945Y-39703D01*
X39797Y-39555D01*
X39604Y-39475D01*
X39396Y-39474D01*
X39203Y-39554D01*
X39100Y-39657D01*
X39100Y-39500D01*
X39073Y-39366D01*
X39073Y-39366D01*
X38997Y-39252D01*
X37850Y-38105D01*
X37850Y-37549D01*
X37941Y-37511D01*
X38011Y-37441D01*
X38050Y-37349D01*
X38050Y-37327D01*
X38188Y-37465D01*
X38390Y-37549D01*
X38608Y-37550D01*
X38811Y-37466D01*
X38965Y-37311D01*
X39049Y-37109D01*
X39050Y-36891D01*
X38966Y-36688D01*
X38850Y-36572D01*
X38850Y-34522D01*
X38946Y-34477D01*
X39593Y-33773D01*
X39880Y-33079D01*
X39427Y-32700D01*
X39150Y-32700D01*
X39150Y-32300D01*
X39427Y-32300D01*
X39880Y-31920D01*
X39593Y-31226D01*
X38946Y-30522D01*
X38079Y-30119D01*
X37700Y-30570D01*
X37700Y-32300D01*
X37850Y-32300D01*
X37850Y-32700D01*
X37700Y-32700D01*
X37700Y-34429D01*
X38079Y-34880D01*
X38150Y-34847D01*
X38150Y-36572D01*
X38050Y-36672D01*
X38050Y-36650D01*
X38011Y-36558D01*
X37941Y-36488D01*
X37849Y-36450D01*
X37750Y-36450D01*
X37300Y-36450D01*
X37300Y-34429D01*
X37300Y-32700D01*
X37300Y-32300D01*
X37300Y-30570D01*
X36920Y-30119D01*
X36053Y-30522D01*
X35406Y-31226D01*
X35119Y-31920D01*
X35572Y-32300D01*
X37300Y-32300D01*
X37300Y-32700D01*
X35572Y-32700D01*
X35119Y-33079D01*
X35406Y-33773D01*
X36053Y-34477D01*
X36920Y-34880D01*
X37300Y-34429D01*
X37300Y-36450D01*
X37150Y-36450D01*
X37058Y-36488D01*
X36988Y-36558D01*
X36950Y-36650D01*
X36950Y-36749D01*
X36950Y-37349D01*
X36988Y-37441D01*
X37058Y-37511D01*
X37150Y-37549D01*
X37150Y-38250D01*
X37176Y-38383D01*
X37252Y-38497D01*
X38400Y-39644D01*
X38400Y-40989D01*
X37943Y-40535D01*
X37450Y-40333D01*
X37450Y-40140D01*
X37010Y-40140D01*
X37024Y-40104D01*
X37025Y-39896D01*
X36945Y-39703D01*
X36797Y-39555D01*
X36604Y-39475D01*
X36396Y-39474D01*
X36203Y-39554D01*
X36107Y-39650D01*
X34000Y-39650D01*
X33866Y-39676D01*
X33752Y-39752D01*
X32840Y-40664D01*
X32840Y-17833D01*
X32712Y-17524D01*
X32476Y-17287D01*
X32167Y-17159D01*
X31833Y-17159D01*
X31524Y-17287D01*
X31287Y-17523D01*
X31159Y-17832D01*
X31159Y-18166D01*
X31287Y-18475D01*
X31523Y-18712D01*
X31832Y-18840D01*
X32166Y-18840D01*
X32475Y-18712D01*
X32712Y-18476D01*
X32840Y-18167D01*
X32840Y-17833D01*
X32840Y-40664D01*
X32752Y-40752D01*
X32676Y-40866D01*
X32650Y-41000D01*
X32650Y-41072D01*
X32534Y-41188D01*
X32450Y-41390D01*
X32449Y-41608D01*
X32533Y-41811D01*
X32688Y-41965D01*
X32890Y-42049D01*
X33108Y-42050D01*
X33311Y-41966D01*
X33450Y-41827D01*
X33450Y-41849D01*
X33488Y-41941D01*
X33558Y-42011D01*
X33650Y-42050D01*
X33749Y-42050D01*
X34148Y-42050D01*
X34519Y-42345D01*
X35520Y-42345D01*
X35056Y-42535D01*
X34936Y-42655D01*
X34519Y-42655D01*
X34058Y-43021D01*
X34266Y-43500D01*
X34058Y-43978D01*
X34519Y-44345D01*
X34936Y-44345D01*
X35056Y-44464D01*
X35150Y-44502D01*
X35150Y-44655D01*
X34519Y-44655D01*
X34058Y-45021D01*
X34368Y-45734D01*
X34114Y-45763D01*
X34003Y-45652D01*
X33828Y-45827D01*
X33576Y-45728D01*
X33713Y-45592D01*
X33779Y-45004D01*
X32918Y-44666D01*
X31993Y-44684D01*
X31220Y-45004D01*
X31286Y-45592D01*
X31671Y-45977D01*
X31477Y-46171D01*
X31092Y-45786D01*
X30504Y-45720D01*
X30269Y-46318D01*
X30269Y-16269D01*
X84730Y-16269D01*
X84730Y-21661D01*
X84637Y-21438D01*
X84061Y-20862D01*
X83840Y-20770D01*
X83840Y-17833D01*
X83712Y-17524D01*
X83476Y-17287D01*
X83167Y-17159D01*
X82833Y-17159D01*
X82524Y-17287D01*
X82287Y-17523D01*
X82159Y-17832D01*
X82159Y-18166D01*
X82287Y-18475D01*
X82523Y-18712D01*
X82832Y-18840D01*
X83166Y-18840D01*
X83475Y-18712D01*
X83712Y-18476D01*
X83840Y-18167D01*
X83840Y-17833D01*
X83840Y-20770D01*
X83307Y-20550D01*
X83212Y-20550D01*
X82700Y-21062D01*
X82700Y-21377D01*
X82500Y-21337D01*
X82300Y-21377D01*
X82300Y-21062D01*
X81787Y-20550D01*
X81692Y-20550D01*
X80938Y-20862D01*
X80362Y-21438D01*
X80050Y-22192D01*
X80050Y-22287D01*
X80562Y-22800D01*
X82300Y-22800D01*
X82300Y-22622D01*
X82500Y-22662D01*
X82700Y-22622D01*
X82700Y-22800D01*
X82900Y-22800D01*
X82900Y-23200D01*
X82700Y-23200D01*
X82700Y-24937D01*
X83212Y-25450D01*
X83307Y-25450D01*
X84061Y-25137D01*
X84637Y-24561D01*
X84730Y-24338D01*
X84730Y-62230D01*
X84730Y-62230D01*
G37*
G54D33*
X84730Y-62230D02*
X84350Y-62230D01*
X84350Y-39457D01*
X84350Y-39362D01*
X84350Y-37937D01*
X84350Y-37842D01*
X84037Y-37088D01*
X83461Y-36512D01*
X82707Y-36200D01*
X82612Y-36200D01*
X82300Y-36512D01*
X82300Y-24937D01*
X82300Y-23200D01*
X80562Y-23200D01*
X80050Y-23712D01*
X80050Y-23807D01*
X80362Y-24561D01*
X80938Y-25137D01*
X81692Y-25450D01*
X81787Y-25450D01*
X82300Y-24937D01*
X82300Y-36512D01*
X82100Y-36712D01*
X82100Y-38450D01*
X83837Y-38450D01*
X84350Y-37937D01*
X84350Y-39362D01*
X83837Y-38850D01*
X82100Y-38850D01*
X82100Y-40587D01*
X82612Y-41100D01*
X82707Y-41100D01*
X83461Y-40787D01*
X84037Y-40211D01*
X84350Y-39457D01*
X84350Y-62230D01*
X84025Y-62230D01*
X84025Y-51396D01*
X83945Y-51203D01*
X83797Y-51055D01*
X83604Y-50975D01*
X83396Y-50974D01*
X83203Y-51054D01*
X83055Y-51202D01*
X82975Y-51395D01*
X82974Y-51603D01*
X83054Y-51797D01*
X83202Y-51944D01*
X83395Y-52024D01*
X83603Y-52025D01*
X83797Y-51945D01*
X83944Y-51797D01*
X84024Y-51604D01*
X84025Y-51396D01*
X84025Y-62230D01*
X83840Y-62230D01*
X83840Y-60333D01*
X83712Y-60024D01*
X83588Y-59899D01*
X83588Y-57040D01*
X83588Y-55959D01*
X83215Y-55129D01*
X82541Y-54485D01*
X81950Y-54255D01*
X81950Y-54110D01*
X81712Y-54110D01*
X81693Y-54082D01*
X81502Y-53954D01*
X81276Y-53910D01*
X80723Y-53910D01*
X80497Y-53954D01*
X80306Y-54082D01*
X80287Y-54110D01*
X80049Y-54110D01*
X80049Y-54175D01*
X76950Y-54175D01*
X76950Y-54110D01*
X76712Y-54110D01*
X76693Y-54082D01*
X76502Y-53954D01*
X76350Y-53924D01*
X76350Y-53644D01*
X77970Y-52024D01*
X78103Y-52025D01*
X78297Y-51945D01*
X78444Y-51797D01*
X78475Y-51725D01*
X78475Y-51824D01*
X78513Y-51916D01*
X78583Y-51986D01*
X78675Y-52025D01*
X78774Y-52025D01*
X79324Y-52025D01*
X79416Y-51986D01*
X79486Y-51916D01*
X79514Y-51850D01*
X80107Y-51850D01*
X80202Y-51944D01*
X80395Y-52024D01*
X80603Y-52025D01*
X80797Y-51945D01*
X80944Y-51797D01*
X81024Y-51604D01*
X81025Y-51396D01*
X80945Y-51203D01*
X80797Y-51055D01*
X80604Y-50975D01*
X80396Y-50974D01*
X80203Y-51054D01*
X80107Y-51150D01*
X79784Y-51150D01*
X79784Y-45522D01*
X79721Y-44933D01*
X78500Y-43712D01*
X77278Y-44933D01*
X77215Y-45522D01*
X78087Y-45860D01*
X79022Y-45838D01*
X79784Y-45522D01*
X79784Y-51150D01*
X79514Y-51150D01*
X79486Y-51083D01*
X79416Y-51013D01*
X79324Y-50975D01*
X79225Y-50975D01*
X78675Y-50975D01*
X78583Y-51013D01*
X78513Y-51083D01*
X78475Y-51175D01*
X78475Y-51274D01*
X78475Y-51274D01*
X78445Y-51203D01*
X78325Y-51082D01*
X78325Y-48800D01*
X78300Y-48675D01*
X78300Y-48675D01*
X78229Y-48570D01*
X77329Y-47670D01*
X77224Y-47599D01*
X77100Y-47575D01*
X73784Y-47575D01*
X73784Y-45522D01*
X73721Y-44933D01*
X72500Y-43712D01*
X71278Y-44933D01*
X71215Y-45522D01*
X72087Y-45860D01*
X73022Y-45838D01*
X73784Y-45522D01*
X73784Y-47575D01*
X58334Y-47575D01*
X58309Y-47549D01*
X58458Y-47550D01*
X58661Y-47466D01*
X58777Y-47350D01*
X65600Y-47350D01*
X65733Y-47323D01*
X65733Y-47323D01*
X65847Y-47247D01*
X67147Y-45947D01*
X67223Y-45833D01*
X67223Y-45833D01*
X67250Y-45700D01*
X67250Y-41400D01*
X67223Y-41266D01*
X67223Y-41266D01*
X67147Y-41152D01*
X66390Y-40395D01*
X66390Y-39832D01*
X66433Y-39823D01*
X66433Y-39823D01*
X66547Y-39747D01*
X66847Y-39447D01*
X66923Y-39333D01*
X66923Y-39333D01*
X66950Y-39200D01*
X66950Y-37950D01*
X66923Y-37816D01*
X66923Y-37816D01*
X66847Y-37702D01*
X66397Y-37252D01*
X66283Y-37176D01*
X66235Y-37167D01*
X66333Y-36918D01*
X66325Y-36525D01*
X66347Y-36503D01*
X66325Y-36481D01*
X66315Y-35993D01*
X66309Y-35978D01*
X66333Y-35918D01*
X66325Y-35517D01*
X66347Y-35496D01*
X66324Y-35473D01*
X66315Y-34993D01*
X65995Y-34220D01*
X65407Y-34286D01*
X65272Y-34421D01*
X65078Y-34227D01*
X65213Y-34092D01*
X65279Y-33504D01*
X64964Y-33380D01*
X65447Y-32897D01*
X65523Y-32783D01*
X65523Y-32783D01*
X65550Y-32650D01*
X65550Y-28294D01*
X65978Y-27866D01*
X66478Y-28365D01*
X66651Y-28191D01*
X67087Y-28360D01*
X68022Y-28338D01*
X68784Y-28022D01*
X68744Y-27650D01*
X71405Y-27650D01*
X71650Y-27894D01*
X71650Y-27919D01*
X71604Y-27950D01*
X71500Y-28105D01*
X71395Y-27950D01*
X71214Y-27828D01*
X71000Y-27786D01*
X70785Y-27828D01*
X70604Y-27950D01*
X70482Y-28131D01*
X70440Y-28346D01*
X70440Y-28653D01*
X70482Y-28868D01*
X70500Y-28895D01*
X69918Y-28666D01*
X69909Y-28666D01*
X69797Y-28555D01*
X69604Y-28475D01*
X69396Y-28474D01*
X69203Y-28554D01*
X69074Y-28682D01*
X68993Y-28684D01*
X68220Y-29004D01*
X68286Y-29592D01*
X69500Y-30805D01*
X70713Y-29592D01*
X70762Y-29155D01*
X70785Y-29171D01*
X71000Y-29213D01*
X71214Y-29171D01*
X71395Y-29049D01*
X71500Y-28894D01*
X71604Y-29049D01*
X71785Y-29171D01*
X72000Y-29213D01*
X72214Y-29171D01*
X72395Y-29049D01*
X72500Y-28894D01*
X72604Y-29049D01*
X72785Y-29171D01*
X73000Y-29213D01*
X73049Y-29203D01*
X73049Y-29244D01*
X72683Y-29404D01*
X72035Y-30056D01*
X71997Y-30150D01*
X71673Y-30150D01*
X71495Y-29720D01*
X70907Y-29786D01*
X69694Y-31000D01*
X70224Y-31530D01*
X70030Y-31724D01*
X69500Y-31194D01*
X69305Y-31388D01*
X69305Y-31000D01*
X68092Y-29786D01*
X67504Y-29720D01*
X67166Y-30581D01*
X67184Y-31506D01*
X67504Y-32279D01*
X68092Y-32213D01*
X69305Y-31000D01*
X69305Y-31388D01*
X68286Y-32407D01*
X68220Y-32995D01*
X69081Y-33333D01*
X69400Y-33327D01*
X69400Y-33474D01*
X69396Y-33474D01*
X69203Y-33554D01*
X69055Y-33702D01*
X68975Y-33895D01*
X68974Y-34103D01*
X69054Y-34297D01*
X69150Y-34392D01*
X69150Y-34607D01*
X69055Y-34702D01*
X68975Y-34895D01*
X68974Y-35103D01*
X69054Y-35297D01*
X69202Y-35444D01*
X69395Y-35524D01*
X69603Y-35525D01*
X69797Y-35445D01*
X69944Y-35297D01*
X70024Y-35104D01*
X70025Y-34896D01*
X69945Y-34703D01*
X69850Y-34607D01*
X69850Y-34392D01*
X69944Y-34297D01*
X70024Y-34104D01*
X70025Y-33956D01*
X70073Y-33883D01*
X70073Y-33883D01*
X70100Y-33750D01*
X70100Y-33525D01*
X70103Y-33525D01*
X70297Y-33445D01*
X70444Y-33297D01*
X70524Y-33104D01*
X70524Y-33100D01*
X70779Y-32995D01*
X70713Y-32407D01*
X70525Y-32219D01*
X70572Y-32172D01*
X70640Y-32200D01*
X70739Y-32200D01*
X70894Y-32200D01*
X70907Y-32213D01*
X71495Y-32279D01*
X71592Y-32032D01*
X71604Y-32049D01*
X71640Y-32073D01*
X71640Y-32450D01*
X71650Y-32450D01*
X71650Y-32607D01*
X71555Y-32702D01*
X71475Y-32895D01*
X71474Y-33103D01*
X71554Y-33297D01*
X71631Y-33373D01*
X71252Y-33752D01*
X71176Y-33866D01*
X71150Y-34000D01*
X71150Y-37607D01*
X71055Y-37702D01*
X70975Y-37895D01*
X70974Y-38103D01*
X71054Y-38297D01*
X71202Y-38444D01*
X71395Y-38524D01*
X71603Y-38525D01*
X71797Y-38445D01*
X71944Y-38297D01*
X72024Y-38104D01*
X72025Y-37896D01*
X71945Y-37703D01*
X71850Y-37607D01*
X71850Y-34144D01*
X71974Y-34019D01*
X71974Y-34103D01*
X72054Y-34297D01*
X72202Y-34444D01*
X72335Y-34500D01*
X72203Y-34554D01*
X72055Y-34702D01*
X71975Y-34895D01*
X71974Y-35103D01*
X72054Y-35297D01*
X72150Y-35392D01*
X72150Y-41157D01*
X72001Y-41161D01*
X72024Y-41104D01*
X72025Y-40896D01*
X71945Y-40703D01*
X71797Y-40555D01*
X71604Y-40475D01*
X71396Y-40474D01*
X71203Y-40554D01*
X71055Y-40702D01*
X70975Y-40895D01*
X70974Y-41103D01*
X71054Y-41297D01*
X71150Y-41392D01*
X71150Y-42362D01*
X71066Y-42278D01*
X70477Y-42215D01*
X70139Y-43087D01*
X70161Y-44022D01*
X70477Y-44784D01*
X71066Y-44721D01*
X71737Y-44050D01*
X71849Y-44050D01*
X71941Y-44011D01*
X72011Y-43941D01*
X72050Y-43849D01*
X72050Y-43750D01*
X72050Y-43737D01*
X72287Y-43500D01*
X72050Y-43262D01*
X72050Y-43150D01*
X72011Y-43058D01*
X71941Y-42988D01*
X71850Y-42950D01*
X71850Y-42637D01*
X72500Y-43287D01*
X72606Y-43181D01*
X72818Y-43393D01*
X72712Y-43500D01*
X73933Y-44721D01*
X74522Y-44784D01*
X74807Y-44050D01*
X74849Y-44050D01*
X74941Y-44011D01*
X75011Y-43941D01*
X75050Y-43849D01*
X75050Y-43827D01*
X75188Y-43965D01*
X75390Y-44049D01*
X75608Y-44050D01*
X75811Y-43966D01*
X75965Y-43811D01*
X76049Y-43609D01*
X76050Y-43391D01*
X75966Y-43188D01*
X75850Y-43072D01*
X75850Y-42750D01*
X75823Y-42616D01*
X75823Y-42616D01*
X75747Y-42502D01*
X75247Y-42002D01*
X75133Y-41926D01*
X75000Y-41900D01*
X74644Y-41900D01*
X73850Y-41105D01*
X73850Y-40644D01*
X74144Y-40350D01*
X75500Y-40350D01*
X75633Y-40323D01*
X75633Y-40323D01*
X75634Y-40322D01*
X76006Y-40315D01*
X76322Y-40184D01*
X76208Y-40475D01*
X76175Y-40475D01*
X76083Y-40513D01*
X76013Y-40583D01*
X75985Y-40650D01*
X75892Y-40650D01*
X75797Y-40555D01*
X75604Y-40475D01*
X75396Y-40474D01*
X75203Y-40554D01*
X75107Y-40650D01*
X74892Y-40650D01*
X74797Y-40555D01*
X74604Y-40475D01*
X74396Y-40474D01*
X74203Y-40554D01*
X74055Y-40702D01*
X73975Y-40895D01*
X73974Y-41103D01*
X74054Y-41297D01*
X74202Y-41444D01*
X74395Y-41524D01*
X74603Y-41525D01*
X74797Y-41445D01*
X74892Y-41350D01*
X75107Y-41350D01*
X75202Y-41444D01*
X75395Y-41524D01*
X75603Y-41525D01*
X75797Y-41445D01*
X75892Y-41350D01*
X75985Y-41350D01*
X76013Y-41416D01*
X76083Y-41486D01*
X76150Y-41514D01*
X76150Y-42462D01*
X76134Y-42478D01*
X76150Y-42493D01*
X76150Y-42500D01*
X76176Y-42633D01*
X76252Y-42747D01*
X76266Y-42761D01*
X76139Y-43087D01*
X76161Y-44022D01*
X76477Y-44784D01*
X77066Y-44721D01*
X77737Y-44050D01*
X77849Y-44050D01*
X77941Y-44011D01*
X78011Y-43941D01*
X78050Y-43849D01*
X78050Y-43750D01*
X78050Y-43737D01*
X78287Y-43500D01*
X78181Y-43393D01*
X78245Y-43330D01*
X78745Y-43320D01*
X78818Y-43393D01*
X78712Y-43500D01*
X79933Y-44721D01*
X80522Y-44784D01*
X80860Y-43912D01*
X80838Y-42977D01*
X80699Y-42643D01*
X80865Y-42478D01*
X80619Y-42231D01*
X80847Y-42003D01*
X80672Y-41828D01*
X80833Y-41418D01*
X80825Y-40989D01*
X81092Y-41100D01*
X81187Y-41100D01*
X81700Y-40587D01*
X81700Y-38850D01*
X81522Y-38850D01*
X81562Y-38650D01*
X81522Y-38450D01*
X81700Y-38450D01*
X81700Y-36712D01*
X81187Y-36200D01*
X81092Y-36200D01*
X80850Y-36300D01*
X80850Y-33927D01*
X80965Y-33811D01*
X81049Y-33609D01*
X81050Y-33391D01*
X80966Y-33188D01*
X80850Y-33072D01*
X80850Y-32750D01*
X80823Y-32616D01*
X80823Y-32616D01*
X80747Y-32502D01*
X80350Y-32105D01*
X80350Y-30892D01*
X80444Y-30797D01*
X80524Y-30604D01*
X80525Y-30396D01*
X80445Y-30203D01*
X80297Y-30055D01*
X80164Y-29999D01*
X80297Y-29945D01*
X80444Y-29797D01*
X80524Y-29604D01*
X80525Y-29396D01*
X80445Y-29203D01*
X80297Y-29055D01*
X80164Y-28999D01*
X80297Y-28945D01*
X80444Y-28797D01*
X80524Y-28604D01*
X80525Y-28396D01*
X80445Y-28203D01*
X80297Y-28055D01*
X80104Y-27975D01*
X79896Y-27974D01*
X79703Y-28054D01*
X79607Y-28150D01*
X79318Y-28150D01*
X79315Y-27993D01*
X78995Y-27220D01*
X78407Y-27286D01*
X77194Y-28500D01*
X77724Y-29030D01*
X77605Y-29150D01*
X77455Y-29150D01*
X77000Y-28694D01*
X76902Y-28791D01*
X76708Y-28597D01*
X76805Y-28500D01*
X76708Y-28402D01*
X76902Y-28208D01*
X77000Y-28305D01*
X78213Y-27092D01*
X78279Y-26504D01*
X77833Y-26329D01*
X77418Y-26166D01*
X77179Y-26171D01*
X77833Y-25517D01*
X77847Y-25503D01*
X77833Y-25489D01*
X77672Y-25328D01*
X77833Y-24918D01*
X77815Y-23993D01*
X77495Y-23220D01*
X76907Y-23286D01*
X76787Y-23407D01*
X76750Y-23400D01*
X76405Y-23400D01*
X76713Y-23092D01*
X76779Y-22504D01*
X75918Y-22166D01*
X74993Y-22184D01*
X74220Y-22504D01*
X74286Y-23092D01*
X74594Y-23400D01*
X74250Y-23400D01*
X74212Y-23407D01*
X74092Y-23286D01*
X73504Y-23220D01*
X73335Y-23650D01*
X73000Y-23650D01*
X72866Y-23676D01*
X72752Y-23752D01*
X72529Y-23975D01*
X72396Y-23974D01*
X72203Y-24054D01*
X72055Y-24202D01*
X71975Y-24395D01*
X71974Y-24603D01*
X72054Y-24797D01*
X72202Y-24944D01*
X72395Y-25024D01*
X72603Y-25025D01*
X72797Y-24945D01*
X72944Y-24797D01*
X73024Y-24604D01*
X73025Y-24469D01*
X73144Y-24350D01*
X73171Y-24350D01*
X73184Y-25006D01*
X73504Y-25779D01*
X74092Y-25713D01*
X75305Y-24500D01*
X74905Y-24100D01*
X75294Y-24100D01*
X75500Y-24305D01*
X75705Y-24100D01*
X76094Y-24100D01*
X75694Y-24500D01*
X75791Y-24597D01*
X75597Y-24791D01*
X75500Y-24694D01*
X74286Y-25907D01*
X74247Y-26257D01*
X74029Y-26475D01*
X73896Y-26474D01*
X73703Y-26554D01*
X73555Y-26702D01*
X73475Y-26895D01*
X73474Y-27103D01*
X73554Y-27297D01*
X73650Y-27392D01*
X73650Y-27919D01*
X73604Y-27950D01*
X73500Y-28105D01*
X73395Y-27950D01*
X73350Y-27919D01*
X73350Y-27750D01*
X73323Y-27616D01*
X73323Y-27616D01*
X73247Y-27502D01*
X72850Y-27105D01*
X72850Y-26892D01*
X72944Y-26797D01*
X73024Y-26604D01*
X73025Y-26396D01*
X72945Y-26203D01*
X72797Y-26055D01*
X72604Y-25975D01*
X72396Y-25974D01*
X72203Y-26054D01*
X72055Y-26202D01*
X71975Y-26395D01*
X71974Y-26603D01*
X72054Y-26797D01*
X72150Y-26892D01*
X72150Y-27250D01*
X72176Y-27383D01*
X72252Y-27497D01*
X72650Y-27894D01*
X72650Y-27919D01*
X72604Y-27950D01*
X72500Y-28105D01*
X72395Y-27950D01*
X72350Y-27919D01*
X72350Y-27750D01*
X72323Y-27616D01*
X72323Y-27616D01*
X72247Y-27502D01*
X71900Y-27155D01*
X71797Y-27052D01*
X71683Y-26976D01*
X71550Y-26950D01*
X69652Y-26950D01*
X69860Y-26412D01*
X69838Y-25477D01*
X69773Y-25320D01*
X70006Y-25315D01*
X70779Y-24995D01*
X70713Y-24407D01*
X69596Y-23290D01*
X69790Y-23096D01*
X70907Y-24213D01*
X71495Y-24279D01*
X71833Y-23418D01*
X71817Y-22568D01*
X71899Y-22369D01*
X71900Y-22131D01*
X71900Y-18131D01*
X71808Y-17910D01*
X71640Y-17741D01*
X71419Y-17650D01*
X71181Y-17649D01*
X70960Y-17741D01*
X70791Y-17909D01*
X70700Y-18130D01*
X70699Y-18368D01*
X70791Y-18589D01*
X70959Y-18758D01*
X71180Y-18849D01*
X71418Y-18850D01*
X71639Y-18758D01*
X71808Y-18590D01*
X71899Y-18369D01*
X71900Y-18131D01*
X71900Y-22131D01*
X71808Y-21910D01*
X71640Y-21741D01*
X71419Y-21650D01*
X71181Y-21649D01*
X70960Y-21741D01*
X70915Y-21786D01*
X70907Y-21786D01*
X69768Y-22925D01*
X69691Y-22848D01*
X69839Y-22466D01*
X70713Y-21592D01*
X70779Y-21004D01*
X69918Y-20666D01*
X69909Y-20666D01*
X69797Y-20555D01*
X69604Y-20475D01*
X69396Y-20474D01*
X69203Y-20554D01*
X69074Y-20682D01*
X68993Y-20684D01*
X68664Y-20820D01*
X68565Y-20722D01*
X68721Y-20566D01*
X68784Y-19977D01*
X67912Y-19639D01*
X66977Y-19661D01*
X66215Y-19977D01*
X66278Y-20566D01*
X67430Y-21718D01*
X67218Y-21930D01*
X66066Y-20778D01*
X65477Y-20715D01*
X65139Y-21587D01*
X65161Y-22522D01*
X65477Y-23284D01*
X66066Y-23221D01*
X67222Y-22065D01*
X67287Y-22131D01*
X67327Y-22171D01*
X67287Y-22272D01*
X67189Y-22522D01*
X66278Y-23433D01*
X66220Y-23975D01*
X66215Y-23977D01*
X66218Y-24000D01*
X66215Y-24022D01*
X66220Y-24024D01*
X66278Y-24566D01*
X66950Y-25237D01*
X66950Y-25349D01*
X66988Y-25441D01*
X67058Y-25511D01*
X67150Y-25550D01*
X67249Y-25550D01*
X67262Y-25550D01*
X67500Y-25787D01*
X67606Y-25681D01*
X67818Y-25893D01*
X67712Y-26000D01*
X68662Y-26950D01*
X68237Y-26950D01*
X67500Y-26212D01*
X67393Y-26318D01*
X67181Y-26106D01*
X67287Y-26000D01*
X66066Y-24778D01*
X65477Y-24715D01*
X65139Y-25587D01*
X65161Y-26522D01*
X65300Y-26856D01*
X65134Y-27021D01*
X65483Y-27371D01*
X64952Y-27902D01*
X64876Y-28016D01*
X64850Y-28150D01*
X64850Y-28805D01*
X64810Y-28709D01*
X64691Y-28589D01*
X64534Y-28525D01*
X64365Y-28524D01*
X64209Y-28589D01*
X64123Y-28675D01*
X61178Y-28675D01*
X61213Y-28500D01*
X61171Y-28285D01*
X61049Y-28104D01*
X60868Y-27982D01*
X60850Y-27979D01*
X60850Y-24137D01*
X60933Y-24221D01*
X61522Y-24284D01*
X61857Y-23420D01*
X61927Y-23350D01*
X64072Y-23350D01*
X64188Y-23465D01*
X64390Y-23549D01*
X64608Y-23550D01*
X64811Y-23466D01*
X64965Y-23311D01*
X65049Y-23109D01*
X65050Y-22891D01*
X64966Y-22688D01*
X64811Y-22534D01*
X64730Y-22500D01*
X64811Y-22466D01*
X64965Y-22311D01*
X65049Y-22109D01*
X65050Y-21891D01*
X64966Y-21688D01*
X64811Y-21534D01*
X64730Y-21500D01*
X64811Y-21466D01*
X64965Y-21311D01*
X65049Y-21109D01*
X65050Y-20891D01*
X64966Y-20688D01*
X64811Y-20534D01*
X64609Y-20450D01*
X64391Y-20449D01*
X64188Y-20533D01*
X64034Y-20688D01*
X63950Y-20890D01*
X63949Y-21108D01*
X64033Y-21311D01*
X64188Y-21465D01*
X64269Y-21499D01*
X64188Y-21533D01*
X64034Y-21688D01*
X63950Y-21890D01*
X63949Y-22108D01*
X64033Y-22311D01*
X64188Y-22465D01*
X64269Y-22499D01*
X64188Y-22533D01*
X64072Y-22650D01*
X62312Y-22650D01*
X62323Y-22633D01*
X62323Y-22633D01*
X62350Y-22500D01*
X62350Y-21892D01*
X62444Y-21797D01*
X62524Y-21604D01*
X62525Y-21396D01*
X62445Y-21203D01*
X62297Y-21055D01*
X62104Y-20975D01*
X61896Y-20974D01*
X61703Y-21054D01*
X61555Y-21202D01*
X61475Y-21395D01*
X61474Y-21603D01*
X61521Y-21715D01*
X60933Y-21778D01*
X59712Y-23000D01*
X60150Y-23437D01*
X60150Y-23862D01*
X59500Y-23212D01*
X59393Y-23318D01*
X59330Y-23254D01*
X59320Y-22754D01*
X59393Y-22681D01*
X59500Y-22787D01*
X60721Y-21566D01*
X60784Y-20977D01*
X59912Y-20639D01*
X58977Y-20661D01*
X58643Y-20800D01*
X58478Y-20634D01*
X58231Y-20880D01*
X58003Y-20652D01*
X57828Y-20827D01*
X57418Y-20666D01*
X57409Y-20666D01*
X57297Y-20555D01*
X57104Y-20475D01*
X56896Y-20474D01*
X56703Y-20554D01*
X56574Y-20682D01*
X56493Y-20684D01*
X56164Y-20820D01*
X56065Y-20722D01*
X56221Y-20566D01*
X56284Y-19977D01*
X55412Y-19639D01*
X54477Y-19661D01*
X53715Y-19977D01*
X53778Y-20566D01*
X54930Y-21718D01*
X54718Y-21930D01*
X53566Y-20778D01*
X52977Y-20715D01*
X52639Y-21587D01*
X52661Y-22522D01*
X52977Y-23284D01*
X53566Y-23221D01*
X54722Y-22065D01*
X54787Y-22131D01*
X54827Y-22171D01*
X54787Y-22272D01*
X54689Y-22522D01*
X53778Y-23433D01*
X53720Y-23975D01*
X53715Y-23977D01*
X53718Y-24000D01*
X53715Y-24022D01*
X53720Y-24024D01*
X53778Y-24566D01*
X54450Y-25237D01*
X54450Y-25349D01*
X54488Y-25441D01*
X54558Y-25511D01*
X54650Y-25550D01*
X54749Y-25550D01*
X54762Y-25550D01*
X55000Y-25787D01*
X55106Y-25681D01*
X55318Y-25893D01*
X55212Y-26000D01*
X56433Y-27221D01*
X57022Y-27284D01*
X57360Y-26412D01*
X57338Y-25477D01*
X57273Y-25320D01*
X57506Y-25315D01*
X57835Y-25179D01*
X58003Y-25347D01*
X58231Y-25119D01*
X58478Y-25365D01*
X58651Y-25191D01*
X59087Y-25360D01*
X60022Y-25338D01*
X60150Y-25285D01*
X60150Y-27979D01*
X60131Y-27982D01*
X59950Y-28104D01*
X59828Y-28285D01*
X59786Y-28500D01*
X59821Y-28675D01*
X59634Y-28675D01*
X59318Y-28359D01*
X59247Y-28252D01*
X59133Y-28176D01*
X59000Y-28150D01*
X58200Y-28150D01*
X58200Y-28140D01*
X58161Y-28048D01*
X58091Y-27978D01*
X57999Y-27940D01*
X57900Y-27940D01*
X57000Y-27940D01*
X56908Y-27978D01*
X56838Y-28048D01*
X56800Y-28140D01*
X56800Y-28150D01*
X55977Y-28150D01*
X56284Y-28022D01*
X56221Y-27433D01*
X55000Y-26212D01*
X54787Y-26424D01*
X54787Y-26000D01*
X53566Y-24778D01*
X52977Y-24715D01*
X52639Y-25587D01*
X52661Y-26522D01*
X52977Y-27284D01*
X53566Y-27221D01*
X54787Y-26000D01*
X54787Y-26424D01*
X53778Y-27433D01*
X53715Y-28022D01*
X54503Y-28327D01*
X54475Y-28395D01*
X54474Y-28603D01*
X54504Y-28675D01*
X53134Y-28675D01*
X52729Y-28270D01*
X52624Y-28199D01*
X52500Y-28175D01*
X51952Y-28175D01*
X51811Y-28034D01*
X51730Y-28000D01*
X51811Y-27966D01*
X51965Y-27811D01*
X52049Y-27609D01*
X52050Y-27391D01*
X51966Y-27188D01*
X51811Y-27034D01*
X51730Y-27000D01*
X51811Y-26966D01*
X51965Y-26811D01*
X52049Y-26609D01*
X52050Y-26391D01*
X51966Y-26188D01*
X51811Y-26034D01*
X51730Y-26000D01*
X51811Y-25966D01*
X51965Y-25811D01*
X52049Y-25609D01*
X52050Y-25391D01*
X51966Y-25188D01*
X51811Y-25034D01*
X51609Y-24950D01*
X51391Y-24949D01*
X51188Y-25033D01*
X51034Y-25188D01*
X50950Y-25390D01*
X50949Y-25608D01*
X51033Y-25811D01*
X51188Y-25965D01*
X51269Y-25999D01*
X51188Y-26033D01*
X51034Y-26188D01*
X50950Y-26390D01*
X50949Y-26608D01*
X51033Y-26811D01*
X51188Y-26965D01*
X51269Y-26999D01*
X51188Y-27033D01*
X51034Y-27188D01*
X50950Y-27390D01*
X50949Y-27608D01*
X51033Y-27811D01*
X51188Y-27965D01*
X51269Y-27999D01*
X51188Y-28033D01*
X51034Y-28188D01*
X50950Y-28390D01*
X50949Y-28608D01*
X51033Y-28811D01*
X51188Y-28965D01*
X51269Y-28999D01*
X51188Y-29033D01*
X51034Y-29188D01*
X50950Y-29390D01*
X50949Y-29608D01*
X51033Y-29811D01*
X51188Y-29965D01*
X51269Y-29999D01*
X51188Y-30033D01*
X51034Y-30188D01*
X50950Y-30390D01*
X50949Y-30608D01*
X51033Y-30811D01*
X51188Y-30965D01*
X51269Y-30999D01*
X51188Y-31033D01*
X51034Y-31188D01*
X50950Y-31390D01*
X50949Y-31608D01*
X51033Y-31811D01*
X51188Y-31965D01*
X51269Y-31999D01*
X51188Y-32033D01*
X51034Y-32188D01*
X50950Y-32390D01*
X50949Y-32608D01*
X51033Y-32811D01*
X51175Y-32952D01*
X51175Y-34680D01*
X50993Y-34684D01*
X50220Y-35004D01*
X50286Y-35592D01*
X51371Y-36677D01*
X50993Y-36684D01*
X50990Y-36685D01*
X50092Y-35786D01*
X49504Y-35720D01*
X49166Y-36581D01*
X49184Y-37506D01*
X49318Y-37830D01*
X49152Y-37996D01*
X49156Y-37999D01*
X49152Y-38003D01*
X49325Y-38176D01*
X49166Y-38581D01*
X49184Y-39506D01*
X49504Y-40279D01*
X50092Y-40213D01*
X51002Y-39302D01*
X51081Y-39333D01*
X51366Y-39327D01*
X50286Y-40407D01*
X50222Y-40974D01*
X50215Y-40977D01*
X50278Y-41566D01*
X51500Y-42787D01*
X52721Y-41566D01*
X52784Y-40977D01*
X52777Y-40974D01*
X52713Y-40407D01*
X51628Y-39322D01*
X52006Y-39315D01*
X52009Y-39314D01*
X52907Y-40213D01*
X53495Y-40279D01*
X53833Y-39418D01*
X53831Y-39350D01*
X54117Y-39350D01*
X54190Y-39423D01*
X54391Y-39506D01*
X54608Y-39506D01*
X54808Y-39423D01*
X54962Y-39270D01*
X55045Y-39069D01*
X55045Y-38910D01*
X56105Y-37850D01*
X56549Y-37850D01*
X56549Y-37860D01*
X56926Y-37860D01*
X56950Y-37895D01*
X57105Y-37999D01*
X56950Y-38104D01*
X56907Y-38168D01*
X56866Y-38176D01*
X56752Y-38252D01*
X56681Y-38359D01*
X53770Y-41270D01*
X53699Y-41375D01*
X53675Y-41500D01*
X53675Y-42083D01*
X53522Y-41715D01*
X52933Y-41778D01*
X51712Y-43000D01*
X51818Y-43106D01*
X51606Y-43318D01*
X51500Y-43212D01*
X51287Y-43424D01*
X51287Y-43000D01*
X50066Y-41778D01*
X49477Y-41715D01*
X49139Y-42587D01*
X49161Y-43522D01*
X49477Y-44284D01*
X50066Y-44221D01*
X51287Y-43000D01*
X51287Y-43424D01*
X50278Y-44433D01*
X50215Y-45022D01*
X51079Y-45357D01*
X51188Y-45465D01*
X51269Y-45499D01*
X51188Y-45533D01*
X51034Y-45688D01*
X50950Y-45890D01*
X50949Y-46108D01*
X51033Y-46311D01*
X51188Y-46465D01*
X51269Y-46499D01*
X51188Y-46533D01*
X51034Y-46688D01*
X50950Y-46890D01*
X50949Y-47108D01*
X51033Y-47311D01*
X51188Y-47465D01*
X51269Y-47499D01*
X51188Y-47533D01*
X51034Y-47688D01*
X50950Y-47890D01*
X50949Y-48108D01*
X51033Y-48311D01*
X51188Y-48465D01*
X51269Y-48499D01*
X51188Y-48533D01*
X51034Y-48688D01*
X50950Y-48890D01*
X50949Y-49108D01*
X51033Y-49311D01*
X51188Y-49465D01*
X51390Y-49549D01*
X51608Y-49550D01*
X51811Y-49466D01*
X51965Y-49311D01*
X52049Y-49109D01*
X52050Y-48891D01*
X51966Y-48688D01*
X51811Y-48534D01*
X51730Y-48500D01*
X51811Y-48466D01*
X51952Y-48325D01*
X52673Y-48325D01*
X52708Y-48360D01*
X52865Y-48424D01*
X53034Y-48425D01*
X53190Y-48360D01*
X53310Y-48241D01*
X53374Y-48084D01*
X53375Y-47915D01*
X53310Y-47759D01*
X53191Y-47639D01*
X53034Y-47575D01*
X52865Y-47574D01*
X52709Y-47639D01*
X52674Y-47675D01*
X51952Y-47675D01*
X51811Y-47534D01*
X51730Y-47500D01*
X51811Y-47466D01*
X51927Y-47350D01*
X52922Y-47350D01*
X53038Y-47465D01*
X53240Y-47549D01*
X53458Y-47550D01*
X53661Y-47466D01*
X53675Y-47452D01*
X53675Y-49365D01*
X53365Y-49675D01*
X36500Y-49675D01*
X36375Y-49699D01*
X36333Y-49727D01*
X36270Y-49770D01*
X36270Y-49770D01*
X35770Y-50270D01*
X35699Y-50375D01*
X35675Y-50500D01*
X35675Y-51082D01*
X35555Y-51202D01*
X35475Y-51395D01*
X35474Y-51530D01*
X33752Y-53252D01*
X33676Y-53366D01*
X33650Y-53500D01*
X33650Y-53924D01*
X33497Y-53954D01*
X33306Y-54082D01*
X33287Y-54110D01*
X33049Y-54110D01*
X33049Y-54255D01*
X32458Y-54485D01*
X31784Y-55129D01*
X31411Y-55959D01*
X31870Y-56330D01*
X33700Y-56330D01*
X33700Y-56160D01*
X34300Y-56160D01*
X34300Y-56330D01*
X36129Y-56330D01*
X36500Y-56030D01*
X36870Y-56330D01*
X38700Y-56330D01*
X38700Y-56192D01*
X38870Y-56330D01*
X39300Y-56330D01*
X40700Y-56330D01*
X41129Y-56330D01*
X41300Y-56192D01*
X41300Y-56330D01*
X43129Y-56330D01*
X43500Y-56030D01*
X43870Y-56330D01*
X45700Y-56330D01*
X45700Y-56192D01*
X45870Y-56330D01*
X46300Y-56330D01*
X47700Y-56330D01*
X48129Y-56330D01*
X48300Y-56192D01*
X48300Y-56330D01*
X50129Y-56330D01*
X50500Y-56030D01*
X50870Y-56330D01*
X52700Y-56330D01*
X52700Y-56192D01*
X52870Y-56330D01*
X53300Y-56330D01*
X54700Y-56330D01*
X55129Y-56330D01*
X55300Y-56192D01*
X55300Y-56330D01*
X57129Y-56330D01*
X57500Y-56030D01*
X57870Y-56330D01*
X59700Y-56330D01*
X59700Y-56192D01*
X59870Y-56330D01*
X60300Y-56330D01*
X61700Y-56330D01*
X62129Y-56330D01*
X62300Y-56192D01*
X62300Y-56330D01*
X64129Y-56330D01*
X64500Y-56030D01*
X64870Y-56330D01*
X66700Y-56330D01*
X66700Y-56192D01*
X66870Y-56330D01*
X67300Y-56330D01*
X68700Y-56330D01*
X69129Y-56330D01*
X69300Y-56192D01*
X69300Y-56330D01*
X71129Y-56330D01*
X71500Y-56030D01*
X71870Y-56330D01*
X73700Y-56330D01*
X73700Y-56192D01*
X73870Y-56330D01*
X74300Y-56330D01*
X75700Y-56330D01*
X76129Y-56330D01*
X76300Y-56192D01*
X76300Y-56330D01*
X78129Y-56330D01*
X78500Y-56030D01*
X78870Y-56330D01*
X80700Y-56330D01*
X80700Y-56160D01*
X81300Y-56160D01*
X81300Y-56330D01*
X83129Y-56330D01*
X83588Y-55959D01*
X83588Y-57040D01*
X83129Y-56670D01*
X81300Y-56670D01*
X81300Y-58374D01*
X81672Y-58851D01*
X82541Y-58514D01*
X83215Y-57870D01*
X83588Y-57040D01*
X83588Y-59899D01*
X83476Y-59787D01*
X83167Y-59659D01*
X82833Y-59659D01*
X82524Y-59787D01*
X82287Y-60023D01*
X82159Y-60332D01*
X82159Y-60666D01*
X82287Y-60975D01*
X82523Y-61212D01*
X82832Y-61340D01*
X83166Y-61340D01*
X83475Y-61212D01*
X83712Y-60976D01*
X83840Y-60667D01*
X83840Y-60333D01*
X83840Y-62230D01*
X80700Y-62230D01*
X80700Y-58374D01*
X80700Y-56670D01*
X78870Y-56670D01*
X78500Y-56969D01*
X78129Y-56670D01*
X76300Y-56670D01*
X76300Y-56807D01*
X76129Y-56670D01*
X75700Y-56670D01*
X74300Y-56670D01*
X73870Y-56670D01*
X73700Y-56807D01*
X73700Y-56670D01*
X71870Y-56670D01*
X71500Y-56969D01*
X71129Y-56670D01*
X69300Y-56670D01*
X69300Y-56807D01*
X69129Y-56670D01*
X68700Y-56670D01*
X67300Y-56670D01*
X66870Y-56670D01*
X66700Y-56807D01*
X66700Y-56670D01*
X64870Y-56670D01*
X64500Y-56969D01*
X64129Y-56670D01*
X62300Y-56670D01*
X62300Y-56807D01*
X62129Y-56670D01*
X61700Y-56670D01*
X60300Y-56670D01*
X59870Y-56670D01*
X59700Y-56807D01*
X59700Y-56670D01*
X57870Y-56670D01*
X57500Y-56969D01*
X57129Y-56670D01*
X55300Y-56670D01*
X55300Y-56807D01*
X55129Y-56670D01*
X54700Y-56670D01*
X53300Y-56670D01*
X52870Y-56670D01*
X52700Y-56807D01*
X52700Y-56670D01*
X50870Y-56670D01*
X50500Y-56969D01*
X50129Y-56670D01*
X48300Y-56670D01*
X48300Y-56807D01*
X48129Y-56670D01*
X47700Y-56670D01*
X46300Y-56670D01*
X45870Y-56670D01*
X45700Y-56807D01*
X45700Y-56670D01*
X43870Y-56670D01*
X43500Y-56969D01*
X43129Y-56670D01*
X41300Y-56670D01*
X41300Y-56807D01*
X41129Y-56670D01*
X40700Y-56670D01*
X39300Y-56670D01*
X38870Y-56670D01*
X38700Y-56807D01*
X38700Y-56670D01*
X36870Y-56670D01*
X36500Y-56969D01*
X36129Y-56670D01*
X34300Y-56670D01*
X34300Y-58374D01*
X34672Y-58851D01*
X35541Y-58514D01*
X36215Y-57870D01*
X36500Y-57236D01*
X36784Y-57870D01*
X37458Y-58514D01*
X38327Y-58851D01*
X38700Y-58374D01*
X38700Y-57681D01*
X38784Y-57870D01*
X39300Y-58363D01*
X39300Y-58374D01*
X39672Y-58851D01*
X40000Y-58724D01*
X40327Y-58851D01*
X40700Y-58374D01*
X40700Y-58363D01*
X41215Y-57870D01*
X41300Y-57681D01*
X41300Y-58374D01*
X41672Y-58851D01*
X42541Y-58514D01*
X43215Y-57870D01*
X43500Y-57236D01*
X43784Y-57870D01*
X44458Y-58514D01*
X45327Y-58851D01*
X45700Y-58374D01*
X45700Y-57681D01*
X45784Y-57870D01*
X46300Y-58363D01*
X46300Y-58374D01*
X46672Y-58851D01*
X47000Y-58724D01*
X47327Y-58851D01*
X47700Y-58374D01*
X47700Y-58363D01*
X48215Y-57870D01*
X48300Y-57681D01*
X48300Y-58374D01*
X48672Y-58851D01*
X49541Y-58514D01*
X50215Y-57870D01*
X50500Y-57236D01*
X50784Y-57870D01*
X51458Y-58514D01*
X52327Y-58851D01*
X52700Y-58374D01*
X52700Y-57681D01*
X52784Y-57870D01*
X53300Y-58363D01*
X53300Y-58374D01*
X53672Y-58851D01*
X54000Y-58724D01*
X54327Y-58851D01*
X54700Y-58374D01*
X54700Y-58363D01*
X55215Y-57870D01*
X55300Y-57681D01*
X55300Y-58374D01*
X55672Y-58851D01*
X56541Y-58514D01*
X57215Y-57870D01*
X57500Y-57236D01*
X57784Y-57870D01*
X58458Y-58514D01*
X59327Y-58851D01*
X59700Y-58374D01*
X59700Y-57681D01*
X59784Y-57870D01*
X60300Y-58363D01*
X60300Y-58374D01*
X60672Y-58851D01*
X61000Y-58724D01*
X61327Y-58851D01*
X61700Y-58374D01*
X61700Y-58363D01*
X62215Y-57870D01*
X62300Y-57681D01*
X62300Y-58374D01*
X62672Y-58851D01*
X63541Y-58514D01*
X64215Y-57870D01*
X64499Y-57236D01*
X64784Y-57870D01*
X65458Y-58514D01*
X66327Y-58851D01*
X66700Y-58374D01*
X66700Y-57681D01*
X66784Y-57870D01*
X67300Y-58363D01*
X67300Y-58374D01*
X67672Y-58851D01*
X68000Y-58724D01*
X68327Y-58851D01*
X68700Y-58374D01*
X68700Y-58363D01*
X69215Y-57870D01*
X69300Y-57681D01*
X69300Y-58374D01*
X69672Y-58851D01*
X70541Y-58514D01*
X71215Y-57870D01*
X71500Y-57236D01*
X71784Y-57870D01*
X72458Y-58514D01*
X73327Y-58851D01*
X73700Y-58374D01*
X73700Y-57681D01*
X73784Y-57870D01*
X74300Y-58363D01*
X74300Y-58374D01*
X74672Y-58851D01*
X75000Y-58724D01*
X75327Y-58851D01*
X75700Y-58374D01*
X75700Y-58363D01*
X76215Y-57870D01*
X76300Y-57681D01*
X76300Y-58374D01*
X76672Y-58851D01*
X77541Y-58514D01*
X78215Y-57870D01*
X78499Y-57236D01*
X78784Y-57870D01*
X79458Y-58514D01*
X80327Y-58851D01*
X80700Y-58374D01*
X80700Y-62230D01*
X58340Y-62230D01*
X58340Y-60333D01*
X58212Y-60024D01*
X57976Y-59787D01*
X57667Y-59659D01*
X57333Y-59659D01*
X57024Y-59787D01*
X56787Y-60023D01*
X56659Y-60332D01*
X56659Y-60666D01*
X56787Y-60975D01*
X57023Y-61212D01*
X57332Y-61340D01*
X57666Y-61340D01*
X57975Y-61212D01*
X58212Y-60976D01*
X58340Y-60667D01*
X58340Y-60333D01*
X58340Y-62230D01*
X33700Y-62230D01*
X33700Y-58374D01*
X33700Y-56670D01*
X31870Y-56670D01*
X31411Y-57040D01*
X31784Y-57870D01*
X32458Y-58514D01*
X33327Y-58851D01*
X33700Y-58374D01*
X33700Y-62230D01*
X32840Y-62230D01*
X32840Y-60333D01*
X32712Y-60024D01*
X32476Y-59787D01*
X32167Y-59659D01*
X31833Y-59659D01*
X31524Y-59787D01*
X31287Y-60023D01*
X31159Y-60332D01*
X31159Y-60666D01*
X31287Y-60975D01*
X31523Y-61212D01*
X31832Y-61340D01*
X32166Y-61340D01*
X32475Y-61212D01*
X32712Y-60976D01*
X32840Y-60667D01*
X32840Y-60333D01*
X32840Y-62230D01*
X30269Y-62230D01*
X30269Y-48120D01*
X30704Y-48555D01*
X31004Y-49279D01*
X31385Y-49236D01*
X31496Y-49347D01*
X31671Y-49172D01*
X31923Y-49271D01*
X31786Y-49407D01*
X31720Y-49995D01*
X32581Y-50333D01*
X33506Y-50315D01*
X34279Y-49995D01*
X34213Y-49407D01*
X33828Y-49022D01*
X34022Y-48828D01*
X34407Y-49213D01*
X34995Y-49279D01*
X35333Y-48418D01*
X35333Y-48409D01*
X35392Y-48350D01*
X36607Y-48350D01*
X36702Y-48444D01*
X36895Y-48524D01*
X37103Y-48525D01*
X37297Y-48445D01*
X37444Y-48297D01*
X37474Y-48226D01*
X37592Y-48213D01*
X38805Y-47000D01*
X38708Y-46902D01*
X38902Y-46708D01*
X39000Y-46805D01*
X39314Y-46491D01*
X39395Y-46524D01*
X39603Y-46525D01*
X39715Y-46479D01*
X39194Y-47000D01*
X39844Y-47650D01*
X39455Y-47650D01*
X39000Y-47194D01*
X37786Y-48407D01*
X37720Y-48995D01*
X38581Y-49333D01*
X39506Y-49315D01*
X40279Y-48995D01*
X40213Y-48407D01*
X40155Y-48350D01*
X40500Y-48350D01*
X40633Y-48323D01*
X40633Y-48323D01*
X40742Y-48251D01*
X40995Y-48279D01*
X41176Y-47818D01*
X48997Y-39997D01*
X49073Y-39883D01*
X49073Y-39883D01*
X49100Y-39750D01*
X49100Y-36000D01*
X49100Y-34892D01*
X49142Y-34850D01*
X49357Y-34850D01*
X49452Y-34944D01*
X49645Y-35024D01*
X49853Y-35025D01*
X50047Y-34945D01*
X50194Y-34797D01*
X50274Y-34604D01*
X50275Y-34396D01*
X50195Y-34203D01*
X50047Y-34055D01*
X49854Y-33975D01*
X49725Y-33974D01*
X49721Y-33933D01*
X49587Y-33799D01*
X49799Y-33587D01*
X49933Y-33721D01*
X50522Y-33784D01*
X50860Y-32912D01*
X50851Y-32535D01*
X50865Y-32521D01*
X50850Y-32507D01*
X50838Y-31977D01*
X50836Y-31973D01*
X50860Y-31912D01*
X50851Y-31535D01*
X50865Y-31521D01*
X50850Y-31507D01*
X50850Y-31493D01*
X50865Y-31478D01*
X50849Y-31462D01*
X50838Y-30977D01*
X50836Y-30973D01*
X50860Y-30912D01*
X50851Y-30535D01*
X50865Y-30521D01*
X50850Y-30507D01*
X50850Y-30493D01*
X50865Y-30478D01*
X50849Y-30462D01*
X50838Y-29977D01*
X50836Y-29973D01*
X50860Y-29912D01*
X50851Y-29535D01*
X50865Y-29521D01*
X50850Y-29507D01*
X50850Y-29493D01*
X50865Y-29478D01*
X50849Y-29462D01*
X50838Y-28977D01*
X50836Y-28973D01*
X50860Y-28912D01*
X50851Y-28535D01*
X50865Y-28521D01*
X50850Y-28507D01*
X50850Y-28493D01*
X50865Y-28478D01*
X50849Y-28462D01*
X50838Y-27977D01*
X50836Y-27973D01*
X50860Y-27912D01*
X50851Y-27535D01*
X50865Y-27521D01*
X50850Y-27507D01*
X50850Y-27493D01*
X50865Y-27478D01*
X50849Y-27462D01*
X50838Y-26977D01*
X50836Y-26973D01*
X50860Y-26912D01*
X50850Y-26493D01*
X50865Y-26478D01*
X50849Y-26462D01*
X50844Y-26221D01*
X50850Y-26207D01*
X50850Y-26162D01*
X50842Y-26155D01*
X50838Y-25977D01*
X50699Y-25643D01*
X50865Y-25478D01*
X50537Y-25150D01*
X50850Y-24837D01*
X50850Y-24792D01*
X50537Y-24038D01*
X49961Y-23462D01*
X49207Y-23150D01*
X49162Y-23150D01*
X48650Y-23662D01*
X48650Y-24145D01*
X48350Y-24152D01*
X48350Y-23662D01*
X47837Y-23150D01*
X47792Y-23150D01*
X47038Y-23462D01*
X46462Y-24038D01*
X46150Y-24792D01*
X46150Y-24837D01*
X46462Y-25150D01*
X46134Y-25478D01*
X46308Y-25651D01*
X46139Y-26087D01*
X46148Y-26464D01*
X46134Y-26478D01*
X46149Y-26492D01*
X46161Y-27022D01*
X46163Y-27026D01*
X46139Y-27087D01*
X46148Y-27464D01*
X46134Y-27478D01*
X46149Y-27492D01*
X46149Y-27506D01*
X46134Y-27521D01*
X46150Y-27537D01*
X46161Y-28022D01*
X46163Y-28026D01*
X46139Y-28087D01*
X46148Y-28464D01*
X46134Y-28478D01*
X46149Y-28492D01*
X46149Y-28506D01*
X46134Y-28521D01*
X46150Y-28537D01*
X46161Y-29022D01*
X46163Y-29026D01*
X46139Y-29087D01*
X46148Y-29464D01*
X46134Y-29478D01*
X46149Y-29492D01*
X46149Y-29506D01*
X46134Y-29521D01*
X46150Y-29537D01*
X46161Y-30022D01*
X46163Y-30026D01*
X46139Y-30087D01*
X46148Y-30464D01*
X46134Y-30478D01*
X46149Y-30492D01*
X46149Y-30506D01*
X46134Y-30521D01*
X46150Y-30537D01*
X46161Y-31022D01*
X46163Y-31026D01*
X46139Y-31087D01*
X46148Y-31464D01*
X46134Y-31478D01*
X46149Y-31492D01*
X46149Y-31506D01*
X46134Y-31521D01*
X46150Y-31537D01*
X46161Y-32022D01*
X46163Y-32026D01*
X46139Y-32087D01*
X46142Y-32225D01*
X45470Y-32504D01*
X45536Y-33092D01*
X46750Y-34305D01*
X46834Y-34221D01*
X47028Y-34415D01*
X46944Y-34500D01*
X47041Y-34597D01*
X46847Y-34791D01*
X46750Y-34694D01*
X46555Y-34888D01*
X46555Y-34500D01*
X45342Y-33286D01*
X44754Y-33220D01*
X44416Y-34081D01*
X44434Y-35006D01*
X44754Y-35779D01*
X45342Y-35713D01*
X46555Y-34500D01*
X46555Y-34888D01*
X45536Y-35907D01*
X45470Y-36495D01*
X46331Y-36833D01*
X47256Y-36815D01*
X47585Y-36679D01*
X47753Y-36847D01*
X48029Y-36571D01*
X48400Y-36201D01*
X48400Y-39605D01*
X48029Y-39975D01*
X45355Y-42649D01*
X45355Y-38413D01*
X45334Y-37480D01*
X45017Y-36716D01*
X44428Y-36779D01*
X44283Y-36925D01*
X44283Y-35982D01*
X43413Y-35644D01*
X42480Y-35665D01*
X41716Y-35982D01*
X41779Y-36571D01*
X43000Y-37791D01*
X44220Y-36571D01*
X44283Y-35982D01*
X44283Y-36925D01*
X43208Y-38000D01*
X44428Y-39220D01*
X45017Y-39283D01*
X45355Y-38413D01*
X45355Y-42649D01*
X44283Y-43721D01*
X44283Y-40017D01*
X44220Y-39428D01*
X43000Y-38208D01*
X42791Y-38417D01*
X42791Y-38000D01*
X41571Y-36779D01*
X40982Y-36716D01*
X40877Y-36986D01*
X40877Y-26622D01*
X40877Y-25059D01*
X33622Y-25059D01*
X33622Y-26622D01*
X40877Y-26622D01*
X40877Y-36986D01*
X40644Y-37586D01*
X40665Y-38519D01*
X40982Y-39283D01*
X41571Y-39220D01*
X42791Y-38000D01*
X42791Y-38417D01*
X41779Y-39428D01*
X41716Y-40017D01*
X42582Y-40353D01*
X42690Y-40462D01*
X42891Y-40545D01*
X43108Y-40545D01*
X43308Y-40462D01*
X43435Y-40336D01*
X43519Y-40334D01*
X44283Y-40017D01*
X44283Y-43721D01*
X41319Y-46685D01*
X41315Y-46493D01*
X40995Y-45720D01*
X40407Y-45786D01*
X39978Y-46215D01*
X40024Y-46104D01*
X40025Y-45896D01*
X39991Y-45814D01*
X40213Y-45592D01*
X40279Y-45004D01*
X40032Y-44907D01*
X40049Y-44895D01*
X40171Y-44714D01*
X40213Y-44500D01*
X40171Y-44285D01*
X40049Y-44104D01*
X39894Y-43999D01*
X40049Y-43895D01*
X40171Y-43714D01*
X40213Y-43500D01*
X40171Y-43285D01*
X40049Y-43104D01*
X39894Y-42999D01*
X40049Y-42895D01*
X40171Y-42714D01*
X40213Y-42500D01*
X40171Y-42285D01*
X40049Y-42104D01*
X39894Y-41999D01*
X40049Y-41895D01*
X40171Y-41714D01*
X40213Y-41500D01*
X40171Y-41285D01*
X40049Y-41104D01*
X39868Y-40982D01*
X39850Y-40979D01*
X39850Y-40392D01*
X39944Y-40297D01*
X40024Y-40104D01*
X40025Y-39896D01*
X39945Y-39703D01*
X39797Y-39555D01*
X39604Y-39475D01*
X39396Y-39474D01*
X39203Y-39554D01*
X39100Y-39657D01*
X39100Y-39500D01*
X39073Y-39366D01*
X39073Y-39366D01*
X38997Y-39252D01*
X37850Y-38105D01*
X37850Y-37549D01*
X37941Y-37511D01*
X38011Y-37441D01*
X38050Y-37349D01*
X38050Y-37327D01*
X38188Y-37465D01*
X38390Y-37549D01*
X38608Y-37550D01*
X38811Y-37466D01*
X38965Y-37311D01*
X39049Y-37109D01*
X39050Y-36891D01*
X38966Y-36688D01*
X38850Y-36572D01*
X38850Y-34522D01*
X38946Y-34477D01*
X39593Y-33773D01*
X39880Y-33079D01*
X39427Y-32700D01*
X39150Y-32700D01*
X39150Y-32300D01*
X39427Y-32300D01*
X39880Y-31920D01*
X39593Y-31226D01*
X38946Y-30522D01*
X38079Y-30119D01*
X37700Y-30570D01*
X37700Y-32300D01*
X37850Y-32300D01*
X37850Y-32700D01*
X37700Y-32700D01*
X37700Y-34429D01*
X38079Y-34880D01*
X38150Y-34847D01*
X38150Y-36572D01*
X38050Y-36672D01*
X38050Y-36650D01*
X38011Y-36558D01*
X37941Y-36488D01*
X37849Y-36450D01*
X37750Y-36450D01*
X37300Y-36450D01*
X37300Y-34429D01*
X37300Y-32700D01*
X37300Y-32300D01*
X37300Y-30570D01*
X36920Y-30119D01*
X36053Y-30522D01*
X35406Y-31226D01*
X35119Y-31920D01*
X35572Y-32300D01*
X37300Y-32300D01*
X37300Y-32700D01*
X35572Y-32700D01*
X35119Y-33079D01*
X35406Y-33773D01*
X36053Y-34477D01*
X36920Y-34880D01*
X37300Y-34429D01*
X37300Y-36450D01*
X37150Y-36450D01*
X37058Y-36488D01*
X36988Y-36558D01*
X36950Y-36650D01*
X36950Y-36749D01*
X36950Y-37349D01*
X36988Y-37441D01*
X37058Y-37511D01*
X37150Y-37549D01*
X37150Y-38250D01*
X37176Y-38383D01*
X37252Y-38497D01*
X38400Y-39644D01*
X38400Y-40989D01*
X37943Y-40535D01*
X37450Y-40333D01*
X37450Y-40140D01*
X37010Y-40140D01*
X37024Y-40104D01*
X37025Y-39896D01*
X36945Y-39703D01*
X36797Y-39555D01*
X36604Y-39475D01*
X36396Y-39474D01*
X36203Y-39554D01*
X36107Y-39650D01*
X34000Y-39650D01*
X33866Y-39676D01*
X33752Y-39752D01*
X32840Y-40664D01*
X32840Y-17833D01*
X32712Y-17524D01*
X32476Y-17287D01*
X32167Y-17159D01*
X31833Y-17159D01*
X31524Y-17287D01*
X31287Y-17523D01*
X31159Y-17832D01*
X31159Y-18166D01*
X31287Y-18475D01*
X31523Y-18712D01*
X31832Y-18840D01*
X32166Y-18840D01*
X32475Y-18712D01*
X32712Y-18476D01*
X32840Y-18167D01*
X32840Y-17833D01*
X32840Y-40664D01*
X32752Y-40752D01*
X32676Y-40866D01*
X32650Y-41000D01*
X32650Y-41072D01*
X32534Y-41188D01*
X32450Y-41390D01*
X32449Y-41608D01*
X32533Y-41811D01*
X32688Y-41965D01*
X32890Y-42049D01*
X33108Y-42050D01*
X33311Y-41966D01*
X33450Y-41827D01*
X33450Y-41849D01*
X33488Y-41941D01*
X33558Y-42011D01*
X33650Y-42050D01*
X33749Y-42050D01*
X34148Y-42050D01*
X34519Y-42345D01*
X35520Y-42345D01*
X35056Y-42535D01*
X34936Y-42655D01*
X34519Y-42655D01*
X34058Y-43021D01*
X34266Y-43500D01*
X34058Y-43978D01*
X34519Y-44345D01*
X34936Y-44345D01*
X35056Y-44464D01*
X35150Y-44502D01*
X35150Y-44655D01*
X34519Y-44655D01*
X34058Y-45021D01*
X34368Y-45734D01*
X34114Y-45763D01*
X34003Y-45652D01*
X33828Y-45827D01*
X33576Y-45728D01*
X33713Y-45592D01*
X33779Y-45004D01*
X32918Y-44666D01*
X31993Y-44684D01*
X31220Y-45004D01*
X31286Y-45592D01*
X31671Y-45977D01*
X31477Y-46171D01*
X31092Y-45786D01*
X30504Y-45720D01*
X30269Y-46318D01*
X30269Y-16269D01*
X84730Y-16269D01*
X84730Y-21661D01*
X84637Y-21438D01*
X84061Y-20862D01*
X83840Y-20770D01*
X83840Y-17833D01*
X83712Y-17524D01*
X83476Y-17287D01*
X83167Y-17159D01*
X82833Y-17159D01*
X82524Y-17287D01*
X82287Y-17523D01*
X82159Y-17832D01*
X82159Y-18166D01*
X82287Y-18475D01*
X82523Y-18712D01*
X82832Y-18840D01*
X83166Y-18840D01*
X83475Y-18712D01*
X83712Y-18476D01*
X83840Y-18167D01*
X83840Y-17833D01*
X83840Y-20770D01*
X83307Y-20550D01*
X83212Y-20550D01*
X82700Y-21062D01*
X82700Y-21377D01*
X82500Y-21337D01*
X82300Y-21377D01*
X82300Y-21062D01*
X81787Y-20550D01*
X81692Y-20550D01*
X80938Y-20862D01*
X80362Y-21438D01*
X80050Y-22192D01*
X80050Y-22287D01*
X80562Y-22800D01*
X82300Y-22800D01*
X82300Y-22622D01*
X82500Y-22662D01*
X82700Y-22622D01*
X82700Y-22800D01*
X82900Y-22800D01*
X82900Y-23200D01*
X82700Y-23200D01*
X82700Y-24937D01*
X83212Y-25450D01*
X83307Y-25450D01*
X84061Y-25137D01*
X84637Y-24561D01*
X84730Y-24338D01*
X84730Y-62230D01*
M02*
