M48
;DRILL file {Pcbnew (2014-03-19 BZR 4756)-product} date Fri 26 Dec 2014 10:56:35 GMT
;FORMAT={-:-/ absolute / inch / decimal}
FMAT,2
INCH,TZ
T1C0.025
T2C0.032
T3C0.032
T4C0.040
T5C0.050
T6C0.118
%
G90
G05
M72
T1
X5.285Y-4.4
X5.295Y-4.8
X5.6Y-4.8
X5.86Y-4.4
X6.445Y-2.895
X6.585Y-4.17
T2
X4.3Y-3.8
X4.3Y-4.
X5.45Y-3.7039
X5.45Y-3.8961
X7.35Y-3.55
X7.45Y-3.65
X7.55Y-3.55
T3
X3.25Y-4.7
X3.3Y-4.15
X3.3Y-4.8
X3.4Y-4.15
X3.4Y-5.45
X3.4Y-5.65
X3.5Y-4.8
X3.55Y-4.7
X3.6Y-5.15
X3.65Y-4.
X3.65Y-4.15
X3.65Y-4.25
X3.65Y-4.35
X3.65Y-4.45
X3.65Y-4.6
X3.7Y-4.7
X3.7Y-4.8
X3.7Y-5.15
X3.75Y-3.7
X3.85Y-3.7
X3.85Y-5.15
X3.9Y-4.7
X3.9Y-4.8
X3.9Y-5.45
X3.9Y-5.65
X3.95Y-4.
X3.95Y-4.15
X3.95Y-4.25
X3.95Y-4.35
X3.95Y-4.45
X3.95Y-4.6
X4.1Y-5.45
X4.1Y-5.65
X4.15Y-5.15
X4.3Y-5.15
X4.4Y-5.15
X4.55Y-5.15
X4.6Y-5.45
X4.6Y-5.65
X4.675Y-3.45
X4.8Y-5.45
X4.8Y-5.65
X4.85Y-2.55
X4.85Y-2.65
X4.85Y-2.75
X4.85Y-2.85
X4.85Y-2.95
X4.85Y-3.05
X4.85Y-3.15
X4.85Y-3.25
X4.85Y-5.15
X4.875Y-3.45
X4.975Y-3.45
X5.Y-5.15
X5.1Y-5.15
X5.15Y-2.55
X5.15Y-2.65
X5.15Y-2.75
X5.15Y-2.85
X5.15Y-2.95
X5.15Y-3.05
X5.15Y-3.15
X5.15Y-3.25
X5.15Y-3.7
X5.15Y-3.9
X5.15Y-4.3
X5.15Y-4.4
X5.15Y-4.5
X5.15Y-4.6
X5.15Y-4.7
X5.15Y-4.8
X5.15Y-4.9
X5.25Y-3.7
X5.25Y-3.9
X5.25Y-5.15
X5.275Y-3.45
X5.3Y-5.45
X5.3Y-5.65
X5.335Y-4.5
X5.335Y-4.6
X5.335Y-4.7
X5.45Y-3.45
X5.5Y-2.1
X5.5Y-2.2
X5.5Y-2.3
X5.5Y-2.5
X5.5Y-2.6
X5.5Y-2.85
X5.5Y-3.15
X5.5Y-5.45
X5.5Y-5.65
X5.55Y-5.15
X5.65Y-3.45
X5.7Y-2.1
X5.7Y-2.3
X5.7Y-5.15
X5.75Y-2.85
X5.75Y-2.95
X5.75Y-3.05
X5.75Y-3.15
X5.75Y-3.25
X5.75Y-3.35
X5.75Y-3.45
X5.75Y-3.55
X5.75Y-3.65
X5.75Y-3.75
X5.75Y-3.85
X5.75Y-3.95
X5.75Y-4.05
X5.75Y-4.15
X5.8Y-5.15
X5.835Y-4.5
X5.835Y-4.6
X5.835Y-4.7
X5.9Y-2.15
X5.95Y-2.3
X5.95Y-5.15
X6.Y-5.45
X6.Y-5.65
X6.05Y-2.3
X6.05Y-2.85
X6.05Y-2.95
X6.05Y-3.05
X6.05Y-3.15
X6.05Y-3.25
X6.05Y-3.35
X6.05Y-3.45
X6.05Y-3.55
X6.05Y-3.65
X6.05Y-3.75
X6.05Y-3.85
X6.05Y-3.95
X6.05Y-4.05
X6.05Y-4.15
X6.15Y-2.3
X6.2Y-2.15
X6.2Y-3.55
X6.2Y-3.65
X6.2Y-5.45
X6.2Y-5.65
X6.25Y-5.15
X6.4Y-3.55
X6.4Y-3.65
X6.4Y-5.15
X6.45Y-2.1
X6.45Y-2.2
X6.45Y-2.3
X6.5Y-5.15
X6.65Y-5.15
X6.7Y-5.45
X6.7Y-5.65
X6.75Y-2.1
X6.75Y-2.2
X6.75Y-2.3
X6.75Y-2.5
X6.75Y-2.6
X6.9Y-5.45
X6.9Y-5.65
X6.95Y-2.1
X6.95Y-2.3
X6.95Y-2.9
X6.95Y-3.1
X6.95Y-3.4
X6.95Y-3.5
X6.95Y-5.15
X7.Y-3.3
X7.1Y-2.85
X7.1Y-3.15
X7.1Y-5.15
X7.13Y-1.825
X7.13Y-2.225
X7.15Y-3.8
X7.15Y-4.1
X7.15Y-4.35
X7.2Y-2.85
X7.2Y-3.15
X7.2Y-3.3
X7.2Y-5.15
X7.25Y-2.45
X7.25Y-2.65
X7.25Y-3.4
X7.25Y-3.5
X7.25Y-4.35
X7.3Y-2.85
X7.3Y-3.15
X7.3Y-3.3
X7.35Y-5.15
X7.4Y-2.4
X7.4Y-2.7
X7.4Y-2.85
X7.4Y-3.15
X7.4Y-5.45
X7.4Y-5.65
X7.45Y-3.8
X7.45Y-4.1
X7.45Y-4.35
X7.55Y-2.45
X7.55Y-2.65
X7.55Y-2.9
X7.55Y-3.1
X7.55Y-3.8
X7.55Y-4.1
X7.55Y-4.35
X7.6Y-3.3
X7.6Y-5.45
X7.6Y-5.65
X7.65Y-3.8
X7.65Y-4.1
X7.65Y-5.15
X7.7Y-2.4
X7.7Y-2.7
X7.7Y-2.85
X7.7Y-2.95
X7.7Y-3.05
X7.75Y-3.2
X7.75Y-3.5
X7.75Y-3.8
X7.75Y-4.1
X7.75Y-4.35
X7.8Y-5.15
X7.85Y-3.8
X7.85Y-4.1
X7.85Y-4.35
X7.9Y-5.15
X7.95Y-3.35
X8.Y-2.85
X8.Y-2.95
X8.Y-3.05
X8.05Y-3.35
X8.05Y-5.15
X8.1Y-5.45
X8.1Y-5.65
X8.35Y-5.15
T4
X3.75Y-3.25
X3.85Y-3.25
X6.4Y-3.85
X6.4Y-3.95
X6.4Y-4.05
X6.5Y-3.85
X6.5Y-3.95
X6.5Y-4.05
X8.09Y-3.865
X8.19Y-3.865
X8.25Y-2.2
X8.25Y-2.3
T5
X6.41Y-4.575
X6.855Y-4.57
T6
X3.2Y-1.8
X3.2Y-6.05
X5.75Y-6.05
X8.3Y-1.8
X8.3Y-6.05
T0
M30
