M48
;DRILL file {Pcbnew (2014-03-19 BZR 4756)-product} date Sat 27 Dec 2014 10:23:08 GMT
;FORMAT={-:-/ absolute / inch / decimal}
FMAT,2
INCH,TZ
T1C0.025
T2C0.032
T3C0.032
T4C0.040
T5C0.118
%
G90
G05
M72
T1
X4.1Y-5.31
X5.Y-4.125
X5.25Y-4.125
X5.27Y-4.02
X5.285Y-4.4
X5.295Y-4.8
X5.39Y-2.2
X5.6Y-4.8
X5.86Y-4.4
X5.91Y-2.995
X6.2675Y-2.1925
X6.45Y-4.15
X6.47Y-4.47
X6.84Y-4.475
X7.56Y-2.155
X7.7Y-4.37
X7.72Y-3.66
T2
X5.45Y-3.7039
X5.45Y-3.8961
X5.49Y-2.09
X5.49Y-2.29
X7.025Y-2.75
X7.025Y-2.95
X7.125Y-2.85
T3
X4.075Y-2.59
X4.175Y-2.59
X4.295Y-2.05
X4.295Y-2.35
X4.325Y-5.325
X4.325Y-5.525
X4.345Y-2.585
X4.445Y-2.05
X4.445Y-2.35
X4.445Y-2.585
X4.525Y-5.05
X4.545Y-2.05
X4.545Y-2.35
X4.55Y-2.48
X4.6Y-2.58
X4.625Y-5.05
X4.645Y-2.05
X4.645Y-2.35
X4.745Y-2.05
X4.745Y-2.35
X4.75Y-5.1
X4.8Y-2.58
X4.825Y-5.325
X4.825Y-5.525
X4.85Y-2.48
X4.895Y-2.05
X4.895Y-2.35
X4.995Y-2.1
X4.995Y-2.3
X5.Y-5.325
X5.Y-5.525
X5.05Y-4.72
X5.05Y-4.92
X5.05Y-5.1
X5.085Y-1.87
X5.095Y-2.1
X5.095Y-2.3
X5.15Y-3.7
X5.15Y-3.9
X5.15Y-4.3
X5.15Y-4.4
X5.15Y-4.5
X5.15Y-4.6
X5.15Y-4.7
X5.15Y-4.8
X5.15Y-4.9
X5.2Y-5.05
X5.25Y-3.7
X5.25Y-3.9
X5.3Y-5.05
X5.335Y-4.5
X5.335Y-4.6
X5.335Y-4.7
X5.45Y-3.45
X5.45Y-5.1
X5.485Y-1.87
X5.5Y-5.325
X5.5Y-5.525
X5.6Y-2.65
X5.6Y-2.85
X5.6Y-2.95
X5.6Y-3.25
X5.65Y-3.45
X5.655Y-1.87
X5.675Y-5.325
X5.675Y-5.525
X5.75Y-2.67
X5.75Y-2.85
X5.75Y-2.95
X5.75Y-3.05
X5.75Y-3.15
X5.75Y-3.25
X5.75Y-3.35
X5.75Y-3.45
X5.75Y-3.55
X5.75Y-3.65
X5.75Y-3.75
X5.75Y-3.85
X5.75Y-3.95
X5.75Y-4.05
X5.75Y-4.15
X5.75Y-5.1
X5.755Y-1.87
X5.835Y-4.5
X5.835Y-4.6
X5.835Y-4.7
X5.855Y-1.87
X5.875Y-5.05
X5.975Y-5.05
X6.05Y-1.975
X6.05Y-2.075
X6.05Y-2.67
X6.05Y-2.85
X6.05Y-2.95
X6.05Y-3.05
X6.05Y-3.15
X6.05Y-3.25
X6.05Y-3.35
X6.05Y-3.45
X6.05Y-3.55
X6.05Y-3.65
X6.05Y-3.75
X6.05Y-3.85
X6.05Y-3.95
X6.05Y-4.05
X6.05Y-4.15
X6.1Y-5.1
X6.175Y-5.325
X6.175Y-5.525
X6.195Y-2.65
X6.195Y-2.95
X6.195Y-3.05
X6.195Y-3.35
X6.195Y-3.55
X6.195Y-3.65
X6.295Y-2.7
X6.295Y-2.9
X6.305Y-3.1
X6.305Y-3.3
X6.325Y-1.87
X6.35Y-5.325
X6.35Y-5.525
X6.395Y-3.55
X6.395Y-3.65
X6.4Y-5.1
X6.425Y-2.3
X6.425Y-2.6
X6.425Y-2.9
X6.425Y-3.
X6.425Y-3.1
X6.425Y-3.2
X6.475Y-2.75
X6.475Y-3.35
X6.525Y-1.87
X6.525Y-2.3
X6.525Y-2.6
X6.55Y-5.05
X6.625Y-2.3
X6.625Y-2.6
X6.65Y-5.05
X6.675Y-2.75
X6.675Y-3.35
X6.695Y-1.87
X6.725Y-2.6
X6.725Y-2.9
X6.725Y-3.
X6.725Y-3.1
X6.725Y-3.2
X6.8Y-5.1
X6.85Y-5.325
X6.85Y-5.525
X6.87Y-2.07
X6.87Y-2.17
X6.875Y-2.36
X6.875Y-2.46
X6.875Y-2.7
X6.875Y-3.
X6.875Y-3.1
X6.875Y-3.3
X6.975Y-3.05
X6.975Y-3.35
X6.995Y-1.87
X7.025Y-2.6
X7.025Y-5.325
X7.025Y-5.525
X7.075Y-3.05
X7.075Y-3.35
X7.1Y-5.1
X7.13Y-1.87
X7.175Y-3.05
X7.175Y-3.35
X7.225Y-5.05
X7.23Y-1.87
X7.235Y-2.055
X7.235Y-2.155
X7.235Y-2.255
X7.235Y-2.45
X7.235Y-2.55
X7.235Y-2.65
X7.235Y-2.75
X7.235Y-2.85
X7.275Y-3.1
X7.275Y-3.3
X7.325Y-5.05
X7.33Y-1.87
X7.41Y-2.055
X7.41Y-2.255
X7.475Y-4.8
X7.475Y-5.1
X7.525Y-5.325
X7.525Y-5.525
X7.535Y-2.45
X7.535Y-2.55
X7.535Y-2.65
X7.535Y-2.75
X7.535Y-2.85
X7.715Y-2.45
X7.715Y-2.55
X7.715Y-2.75
X7.715Y-2.85
T4
X4.075Y-2.815
X4.075Y-2.915
X4.725Y-3.55
X4.725Y-3.65
X4.725Y-3.75
X4.825Y-3.55
X4.825Y-3.65
X4.825Y-3.75
X6.185Y-2.405
X6.185Y-2.505
X6.285Y-2.405
X6.285Y-2.505
X6.4Y-3.85
X6.4Y-3.95
X6.4Y-4.05
X6.5Y-3.85
X6.5Y-3.95
X6.5Y-4.05
X7.465Y-3.14
X7.465Y-3.24
X7.715Y-2.16
X7.715Y-2.26
T5
X4.1Y-1.87
X4.11Y-5.52
X7.75Y-1.87
X7.75Y-5.52
T0
M30
