%FSLAX34Y34*%
G04 Gerber Fmt 3.4, Leading zero omitted, Abs format*
G04 (created by PCBNEW (2014-03-19 BZR 4756)-product) date Sat 27 Dec 2014 10:23:05 GMT*
%MOIN*%
G01*
G70*
G90*
G04 APERTURE LIST*
%ADD10C,0.005906*%
%ADD11C,0.011811*%
%ADD12C,0.060000*%
%ADD13O,0.078700X0.059100*%
%ADD14O,0.059100X0.078700*%
%ADD15R,0.060000X0.060000*%
%ADD16R,0.055000X0.055000*%
%ADD17C,0.055000*%
%ADD18O,0.090000X0.062000*%
%ADD19R,0.090000X0.062000*%
%ADD20C,0.070000*%
%ADD21R,0.062000X0.090000*%
%ADD22O,0.062000X0.090000*%
%ADD23C,0.059100*%
%ADD24R,0.080000X0.080000*%
%ADD25O,0.080000X0.080000*%
%ADD26R,0.068000X0.068000*%
%ADD27O,0.068000X0.068000*%
%ADD28O,0.120000X0.068000*%
%ADD29C,0.035000*%
%ADD30C,0.020000*%
%ADD31C,0.030000*%
%ADD32C,0.015000*%
%ADD33C,0.010000*%
G04 APERTURE END LIST*
G54D10*
G54D11*
X47027Y-31317D02*
X47027Y-30726D01*
X46746Y-30923D02*
X46746Y-31317D01*
X46746Y-30979D02*
X46718Y-30951D01*
X46662Y-30923D01*
X46577Y-30923D01*
X46521Y-30951D01*
X46493Y-31007D01*
X46493Y-31317D01*
X46296Y-30923D02*
X46071Y-30923D01*
X46212Y-30726D02*
X46212Y-31232D01*
X46184Y-31289D01*
X46127Y-31317D01*
X46071Y-31317D01*
X45649Y-31289D02*
X45706Y-31317D01*
X45818Y-31317D01*
X45874Y-31289D01*
X45902Y-31232D01*
X45902Y-31007D01*
X45874Y-30951D01*
X45818Y-30923D01*
X45706Y-30923D01*
X45649Y-30951D01*
X45621Y-31007D01*
X45621Y-31064D01*
X45902Y-31120D01*
X45368Y-31317D02*
X45368Y-30923D01*
X45368Y-31035D02*
X45340Y-30979D01*
X45312Y-30951D01*
X45256Y-30923D01*
X45199Y-30923D01*
X44749Y-31289D02*
X44806Y-31317D01*
X44918Y-31317D01*
X44974Y-31289D01*
X45002Y-31260D01*
X45031Y-31204D01*
X45031Y-31035D01*
X45002Y-30979D01*
X44974Y-30951D01*
X44918Y-30923D01*
X44806Y-30923D01*
X44749Y-30951D01*
X44412Y-31317D02*
X44468Y-31289D01*
X44496Y-31260D01*
X44524Y-31204D01*
X44524Y-31035D01*
X44496Y-30979D01*
X44468Y-30951D01*
X44412Y-30923D01*
X44328Y-30923D01*
X44271Y-30951D01*
X44243Y-30979D01*
X44215Y-31035D01*
X44215Y-31204D01*
X44243Y-31260D01*
X44271Y-31289D01*
X44328Y-31317D01*
X44412Y-31317D01*
X43962Y-31317D02*
X43962Y-30923D01*
X43962Y-30979D02*
X43934Y-30951D01*
X43878Y-30923D01*
X43793Y-30923D01*
X43737Y-30951D01*
X43709Y-31007D01*
X43709Y-31317D01*
X43709Y-31007D02*
X43681Y-30951D01*
X43625Y-30923D01*
X43540Y-30923D01*
X43484Y-30951D01*
X43456Y-31007D01*
X43456Y-31317D01*
X42387Y-31317D02*
X42584Y-31035D01*
X42725Y-31317D02*
X42725Y-30726D01*
X42500Y-30726D01*
X42443Y-30754D01*
X42415Y-30782D01*
X42387Y-30839D01*
X42387Y-30923D01*
X42415Y-30979D01*
X42443Y-31007D01*
X42500Y-31035D01*
X42725Y-31035D01*
X41909Y-31289D02*
X41965Y-31317D01*
X42078Y-31317D01*
X42134Y-31289D01*
X42162Y-31232D01*
X42162Y-31007D01*
X42134Y-30951D01*
X42078Y-30923D01*
X41965Y-30923D01*
X41909Y-30951D01*
X41881Y-31007D01*
X41881Y-31064D01*
X42162Y-31120D01*
X41684Y-30923D02*
X41544Y-31317D01*
X41403Y-30923D01*
X41178Y-31260D02*
X41150Y-31289D01*
X41178Y-31317D01*
X41206Y-31289D01*
X41178Y-31260D01*
X41178Y-31317D01*
X40925Y-31148D02*
X40644Y-31148D01*
X40981Y-31317D02*
X40784Y-30726D01*
X40587Y-31317D01*
G54D12*
X51500Y-49000D03*
X51500Y-48000D03*
X51500Y-47000D03*
X51500Y-46000D03*
X51500Y-45000D03*
X51500Y-44000D03*
X51500Y-43000D03*
X72350Y-21550D03*
X72350Y-20550D03*
X72350Y-22550D03*
X72300Y-18700D03*
X73300Y-18700D03*
X71300Y-18700D03*
X57550Y-18700D03*
X56550Y-18700D03*
X58550Y-18700D03*
G54D13*
X71250Y-28500D03*
G54D14*
X70250Y-27500D03*
X70250Y-29500D03*
G54D15*
X68750Y-24600D03*
G54D12*
X68750Y-23600D03*
G54D15*
X77150Y-25500D03*
G54D12*
X77150Y-24500D03*
G54D15*
X44450Y-25850D03*
G54D12*
X43450Y-25850D03*
G54D15*
X77150Y-28500D03*
G54D12*
X77150Y-27500D03*
G54D15*
X41750Y-25900D03*
G54D12*
X40750Y-25900D03*
G54D15*
X60500Y-20750D03*
G54D12*
X60500Y-19750D03*
G54D15*
X68700Y-21700D03*
G54D12*
X68700Y-20700D03*
G54D16*
X75350Y-26500D03*
G54D17*
X72350Y-26500D03*
G54D16*
X75350Y-25500D03*
G54D17*
X72350Y-25500D03*
G54D16*
X46250Y-50500D03*
G54D17*
X45250Y-50500D03*
G54D16*
X73250Y-50500D03*
G54D17*
X72250Y-50500D03*
G54D16*
X66500Y-50500D03*
G54D17*
X65500Y-50500D03*
G54D18*
X57500Y-29500D03*
X57500Y-30500D03*
X57500Y-31500D03*
X57500Y-32500D03*
X57500Y-33500D03*
X57500Y-34500D03*
X57500Y-35500D03*
X57500Y-36500D03*
X57500Y-37500D03*
X57500Y-38500D03*
X57500Y-39500D03*
X57500Y-40500D03*
X57500Y-41500D03*
G54D19*
X57500Y-28500D03*
G54D18*
X60500Y-41500D03*
X60500Y-40500D03*
X60500Y-39500D03*
X60500Y-38500D03*
X60500Y-37500D03*
X60500Y-36500D03*
X60500Y-35500D03*
X60500Y-34500D03*
X60500Y-33500D03*
X60500Y-32500D03*
X60500Y-31500D03*
X60500Y-30500D03*
X60500Y-29500D03*
X60500Y-28500D03*
G54D20*
X54850Y-18700D03*
X50850Y-18700D03*
G54D21*
X44450Y-23500D03*
G54D22*
X45450Y-23500D03*
X46450Y-23500D03*
X47450Y-23500D03*
X47450Y-20500D03*
X46450Y-20500D03*
X45450Y-20500D03*
X44450Y-20500D03*
G54D19*
X67250Y-32000D03*
G54D18*
X67250Y-31000D03*
X67250Y-30000D03*
X67250Y-29000D03*
X64250Y-29000D03*
X64250Y-30000D03*
X64250Y-31000D03*
X64250Y-32000D03*
G54D23*
X54500Y-37039D03*
X54500Y-38961D03*
G54D16*
X53000Y-50500D03*
G54D17*
X52000Y-50500D03*
G54D24*
X74650Y-32400D03*
G54D25*
X74650Y-31400D03*
G54D24*
X40750Y-28150D03*
G54D25*
X40750Y-29150D03*
G54D24*
X77150Y-22600D03*
G54D25*
X77150Y-21600D03*
G54D26*
X65000Y-38500D03*
G54D27*
X64000Y-38500D03*
X65000Y-39500D03*
X64000Y-39500D03*
X65000Y-40500D03*
X64000Y-40500D03*
G54D17*
X56000Y-28500D03*
X56000Y-26500D03*
X50950Y-23000D03*
X50950Y-21000D03*
X46000Y-25800D03*
X48000Y-25800D03*
G54D23*
X54900Y-22900D03*
X54900Y-20900D03*
G54D17*
X49950Y-23000D03*
X49950Y-21000D03*
X66750Y-33500D03*
X64750Y-33500D03*
X68750Y-33000D03*
X68750Y-31000D03*
X64750Y-27500D03*
X66750Y-27500D03*
X63050Y-31000D03*
X63050Y-33000D03*
X62950Y-27000D03*
X62950Y-29000D03*
X65250Y-18700D03*
X63250Y-18700D03*
X74100Y-20550D03*
X74100Y-22550D03*
X56500Y-34500D03*
X54500Y-34500D03*
X61950Y-36500D03*
X63950Y-36500D03*
X61950Y-35500D03*
X63950Y-35500D03*
X52500Y-37000D03*
X51500Y-37000D03*
X52500Y-39000D03*
X51500Y-39000D03*
G54D16*
X59750Y-50500D03*
G54D17*
X58750Y-50500D03*
G54D12*
X53350Y-46000D03*
X58350Y-46000D03*
X53350Y-45000D03*
X58350Y-45000D03*
X53350Y-47000D03*
X58350Y-47000D03*
G54D17*
X72750Y-33000D03*
X72750Y-31000D03*
X61000Y-51000D03*
X64000Y-51000D03*
X68000Y-51000D03*
X71000Y-51000D03*
X74750Y-51000D03*
X74750Y-48000D03*
X54500Y-51000D03*
X57500Y-51000D03*
X57500Y-26700D03*
X60500Y-26700D03*
X69950Y-18700D03*
X66950Y-18700D03*
X61950Y-30500D03*
X61950Y-33500D03*
X61950Y-29500D03*
X61950Y-26500D03*
X64250Y-26000D03*
X64250Y-23000D03*
X65250Y-26000D03*
X65250Y-23000D03*
X70750Y-33500D03*
X70750Y-30500D03*
X69750Y-33500D03*
X69750Y-30500D03*
X48950Y-20500D03*
X48950Y-23500D03*
X71750Y-30500D03*
X71750Y-33500D03*
X42950Y-20500D03*
X42950Y-23500D03*
X75350Y-27500D03*
X72350Y-27500D03*
X47500Y-51000D03*
X50500Y-51000D03*
X72350Y-28500D03*
X75350Y-28500D03*
X68750Y-30000D03*
X68750Y-27000D03*
X45500Y-24800D03*
X48500Y-24800D03*
X72350Y-24500D03*
X75350Y-24500D03*
X67250Y-26000D03*
X70250Y-26000D03*
X56000Y-29500D03*
X56000Y-32500D03*
X66250Y-26000D03*
X66250Y-23000D03*
G54D28*
X55000Y-53250D03*
X55000Y-55250D03*
X50000Y-53250D03*
X50000Y-55250D03*
X75250Y-53250D03*
X75250Y-55250D03*
X70250Y-53250D03*
X70250Y-55250D03*
X68500Y-53250D03*
X68500Y-55250D03*
X63500Y-53250D03*
X63500Y-55250D03*
X48250Y-53250D03*
X48250Y-55250D03*
X43250Y-53250D03*
X43250Y-55250D03*
X61750Y-53250D03*
X61750Y-55250D03*
X56750Y-53250D03*
X56750Y-55250D03*
G54D26*
X48250Y-35500D03*
G54D27*
X47250Y-35500D03*
X48250Y-36500D03*
X47250Y-36500D03*
X48250Y-37500D03*
X47250Y-37500D03*
G54D26*
X61850Y-24050D03*
G54D27*
X61850Y-25050D03*
X62850Y-24050D03*
X62850Y-25050D03*
G54D17*
X50500Y-49200D03*
X50500Y-47200D03*
G54D29*
X64500Y-41500D03*
X77200Y-36600D03*
X41000Y-53100D03*
X52700Y-40200D03*
X77000Y-43700D03*
X62675Y-21925D03*
X75600Y-21550D03*
X64700Y-44700D03*
X68400Y-44750D03*
X53900Y-22000D03*
X50000Y-41250D03*
X52500Y-41250D03*
X56000Y-48000D03*
X52950Y-48000D03*
X59100Y-29950D03*
X52850Y-44000D03*
X58600Y-44000D03*
G54D30*
X66250Y-23000D02*
X68150Y-23000D01*
X68150Y-23000D02*
X68750Y-23600D01*
X56000Y-28500D02*
X52900Y-25400D01*
X52900Y-22950D02*
X50950Y-21000D01*
X52900Y-25400D02*
X52900Y-22950D01*
X56000Y-29500D02*
X56000Y-28500D01*
G54D31*
X51500Y-40200D02*
X52700Y-40200D01*
X78550Y-43700D02*
X77000Y-43700D01*
X74100Y-22550D02*
X73100Y-21550D01*
X73100Y-21550D02*
X72350Y-21550D01*
X74100Y-22550D02*
X74050Y-22550D01*
X74050Y-22550D02*
X73800Y-22300D01*
X73800Y-22300D02*
X73800Y-22250D01*
X67525Y-26925D02*
X67525Y-26875D01*
X73150Y-23500D02*
X74100Y-22550D01*
X71500Y-23500D02*
X73150Y-23500D01*
X69400Y-25600D02*
X71500Y-23500D01*
X68800Y-25600D02*
X69400Y-25600D01*
X67525Y-26875D02*
X68800Y-25600D01*
X64250Y-26000D02*
X65000Y-26750D01*
X67650Y-28600D02*
X67250Y-29000D01*
X67650Y-27050D02*
X67650Y-28600D01*
X67350Y-26750D02*
X67525Y-26925D01*
X67525Y-26925D02*
X67650Y-27050D01*
X65000Y-26750D02*
X67350Y-26750D01*
X72350Y-25500D02*
X71750Y-25500D01*
X71750Y-27500D02*
X72350Y-27500D01*
X71250Y-27000D02*
X71750Y-27500D01*
X71250Y-26000D02*
X71250Y-27000D01*
X71750Y-25500D02*
X71250Y-26000D01*
X77150Y-22600D02*
X76650Y-22600D01*
X76650Y-22600D02*
X75600Y-21550D01*
X43250Y-55250D02*
X48250Y-55250D01*
X48250Y-55250D02*
X50000Y-55250D01*
X50000Y-55250D02*
X55000Y-55250D01*
X55000Y-55250D02*
X56750Y-55250D01*
X56750Y-55250D02*
X61750Y-55250D01*
X61750Y-55250D02*
X63500Y-55250D01*
X63500Y-55250D02*
X68500Y-55250D01*
X68500Y-55250D02*
X70250Y-55250D01*
X70250Y-55250D02*
X75250Y-55250D01*
X75250Y-55250D02*
X78550Y-51950D01*
X78550Y-51950D02*
X78550Y-43700D01*
X78550Y-43700D02*
X78550Y-37400D01*
X74650Y-32400D02*
X77550Y-32400D01*
X77550Y-32400D02*
X78550Y-31400D01*
X64000Y-40500D02*
X64000Y-44000D01*
X64000Y-44000D02*
X64700Y-44700D01*
X68400Y-44750D02*
X74050Y-39100D01*
X74050Y-39100D02*
X77250Y-39100D01*
X77250Y-39100D02*
X78550Y-37800D01*
X78550Y-37800D02*
X78550Y-37400D01*
X78550Y-37400D02*
X78550Y-31400D01*
X77950Y-22600D02*
X77150Y-22600D01*
X78550Y-31400D02*
X78550Y-23200D01*
X78550Y-23200D02*
X77950Y-22600D01*
X56000Y-26500D02*
X56000Y-24000D01*
X56000Y-24000D02*
X54900Y-22900D01*
X48500Y-24800D02*
X48500Y-25300D01*
X48500Y-25300D02*
X48000Y-25800D01*
X48000Y-25800D02*
X48000Y-25300D01*
X47450Y-24750D02*
X47450Y-23500D01*
X48000Y-25300D02*
X47450Y-24750D01*
X49950Y-20400D02*
X49950Y-21000D01*
X50550Y-19800D02*
X49950Y-20400D01*
X51700Y-19800D02*
X50550Y-19800D01*
X53900Y-22000D02*
X51700Y-19800D01*
X68700Y-20700D02*
X67150Y-20700D01*
X63750Y-18700D02*
X63250Y-18700D01*
X64600Y-19550D02*
X63750Y-18700D01*
X66000Y-19550D02*
X64600Y-19550D01*
X67150Y-20700D02*
X66000Y-19550D01*
X75350Y-24500D02*
X77150Y-24500D01*
X77150Y-24500D02*
X77150Y-22600D01*
X77150Y-22600D02*
X77100Y-22550D01*
X77100Y-22550D02*
X74100Y-22550D01*
X74100Y-22550D02*
X73800Y-22250D01*
X73800Y-22250D02*
X73100Y-21550D01*
X69400Y-20700D02*
X68700Y-20700D01*
X73100Y-21550D02*
X70250Y-21550D01*
X70250Y-21550D02*
X69400Y-20700D01*
X72750Y-31000D02*
X72750Y-31150D01*
X72750Y-31150D02*
X74000Y-32400D01*
X74000Y-32400D02*
X74650Y-32400D01*
X66750Y-33500D02*
X66800Y-33500D01*
X66800Y-33500D02*
X68600Y-35300D01*
X74650Y-33750D02*
X74650Y-32400D01*
X73100Y-35300D02*
X74650Y-33750D01*
X68600Y-35300D02*
X73100Y-35300D01*
X63950Y-36500D02*
X63950Y-36300D01*
X63950Y-36300D02*
X66750Y-33500D01*
X64250Y-26000D02*
X63850Y-26000D01*
X63650Y-22900D02*
X62675Y-21925D01*
X62675Y-21925D02*
X60500Y-19750D01*
X63650Y-25800D02*
X63650Y-22900D01*
X63850Y-26000D02*
X63650Y-25800D01*
X61850Y-25050D02*
X62850Y-25050D01*
X62850Y-25050D02*
X63800Y-26000D01*
X63800Y-26000D02*
X63800Y-26150D01*
X63800Y-26150D02*
X62950Y-27000D01*
X63950Y-35500D02*
X63950Y-36500D01*
X47450Y-22250D02*
X47450Y-23500D01*
X47700Y-22000D02*
X47450Y-22250D01*
X47950Y-22000D02*
X47700Y-22000D01*
X45950Y-22000D02*
X45450Y-22500D01*
X45450Y-22500D02*
X45450Y-23500D01*
X47950Y-22000D02*
X45950Y-22000D01*
X47450Y-23500D02*
X47700Y-23500D01*
X74100Y-24500D02*
X75350Y-24500D01*
X73100Y-25500D02*
X74100Y-24500D01*
X72350Y-25500D02*
X73100Y-25500D01*
X55250Y-34500D02*
X56250Y-35500D01*
X56250Y-35500D02*
X56700Y-35500D01*
X54500Y-34500D02*
X55250Y-34500D01*
X52750Y-35750D02*
X54000Y-35750D01*
X54000Y-35750D02*
X54500Y-35250D01*
X54500Y-35250D02*
X54500Y-34500D01*
X51500Y-37000D02*
X52750Y-35750D01*
X51500Y-39000D02*
X51500Y-37000D01*
X48950Y-22000D02*
X50200Y-22000D01*
X47950Y-22000D02*
X48950Y-22000D01*
X51500Y-39000D02*
X51500Y-40200D01*
X51500Y-40200D02*
X51500Y-43000D01*
X63750Y-34500D02*
X63950Y-34700D01*
X63950Y-34700D02*
X63950Y-35500D01*
X61600Y-34500D02*
X63750Y-34500D01*
X64250Y-26000D02*
X64250Y-25800D01*
X60450Y-34500D02*
X61600Y-34500D01*
X57500Y-35500D02*
X56700Y-35500D01*
X49950Y-21000D02*
X48950Y-22000D01*
X47250Y-35500D02*
X47250Y-35250D01*
G54D30*
X50950Y-23000D02*
X50950Y-24150D01*
X46000Y-26500D02*
X46000Y-25800D01*
X46400Y-26900D02*
X46000Y-26500D01*
X48200Y-26900D02*
X46400Y-26900D01*
X50950Y-24150D02*
X48200Y-26900D01*
X45500Y-24800D02*
X45500Y-25300D01*
X45500Y-25300D02*
X46000Y-25800D01*
X46450Y-23500D02*
X46450Y-23850D01*
X46450Y-23850D02*
X45500Y-24800D01*
X75350Y-26500D02*
X76250Y-26500D01*
X76250Y-26500D02*
X77150Y-25600D01*
X75350Y-27500D02*
X75350Y-28500D01*
X75350Y-26500D02*
X75350Y-27500D01*
X71750Y-33500D02*
X72250Y-33500D01*
X72250Y-33500D02*
X72750Y-33000D01*
X44450Y-23500D02*
X44450Y-25850D01*
X42950Y-23500D02*
X42950Y-25350D01*
X42950Y-25350D02*
X43450Y-25850D01*
X48950Y-23500D02*
X48950Y-23750D01*
X49450Y-23500D02*
X49950Y-23000D01*
X48950Y-23500D02*
X49450Y-23500D01*
X70750Y-30500D02*
X71600Y-29650D01*
X77150Y-29200D02*
X77150Y-28500D01*
X76700Y-29650D02*
X77150Y-29200D01*
X71600Y-29650D02*
X76700Y-29650D01*
X75350Y-25500D02*
X75300Y-25500D01*
X75300Y-25500D02*
X74550Y-26250D01*
X76450Y-27500D02*
X77150Y-27500D01*
X76200Y-27750D02*
X76450Y-27500D01*
X76200Y-29000D02*
X76200Y-27750D01*
X75950Y-29250D02*
X76200Y-29000D01*
X74750Y-29250D02*
X75950Y-29250D01*
X74550Y-29050D02*
X74750Y-29250D01*
X74550Y-26250D02*
X74550Y-29050D01*
X73350Y-26500D02*
X74350Y-25500D01*
X74350Y-25500D02*
X75350Y-25500D01*
X72350Y-26500D02*
X73350Y-26500D01*
X69750Y-33500D02*
X70750Y-33500D01*
X69500Y-33250D02*
X69750Y-33500D01*
X69000Y-33250D02*
X69500Y-33250D01*
X68750Y-33000D02*
X69000Y-33250D01*
X68000Y-33000D02*
X68750Y-33000D01*
X67250Y-32250D02*
X68000Y-33000D01*
X67250Y-32000D02*
X67250Y-32250D01*
X66250Y-28000D02*
X66250Y-31750D01*
X66250Y-31750D02*
X66500Y-32000D01*
X66500Y-32000D02*
X67250Y-32000D01*
X66750Y-27500D02*
X66250Y-28000D01*
X69750Y-30500D02*
X70600Y-31350D01*
X70900Y-31350D02*
X71750Y-30500D01*
X70600Y-31350D02*
X70900Y-31350D01*
X69250Y-30500D02*
X69750Y-30500D01*
X68750Y-31000D02*
X69250Y-30500D01*
X67250Y-31000D02*
X68750Y-31000D01*
X69250Y-31000D02*
X69750Y-31500D01*
X68750Y-31000D02*
X69250Y-31000D01*
X41750Y-25900D02*
X41750Y-22050D01*
X47450Y-20950D02*
X47450Y-20500D01*
X47000Y-21400D02*
X47450Y-20950D01*
X42400Y-21400D02*
X47000Y-21400D01*
X41750Y-22050D02*
X42400Y-21400D01*
X47450Y-20500D02*
X48950Y-20500D01*
X40750Y-28150D02*
X40750Y-25900D01*
X64750Y-27500D02*
X63650Y-27500D01*
X61950Y-27550D02*
X61950Y-26500D01*
X62250Y-27850D02*
X61950Y-27550D01*
X63300Y-27850D02*
X62250Y-27850D01*
X63650Y-27500D02*
X63300Y-27850D01*
X64950Y-25800D02*
X65200Y-26050D01*
X65250Y-25250D02*
X64250Y-24250D01*
X65250Y-26000D02*
X65250Y-25250D01*
X64250Y-24250D02*
X64250Y-23000D01*
X64250Y-30000D02*
X64250Y-31000D01*
X63050Y-33000D02*
X62450Y-33000D01*
X62450Y-33000D02*
X61950Y-33500D01*
X61950Y-33500D02*
X61950Y-31700D01*
X61950Y-31700D02*
X61300Y-31050D01*
X61300Y-31050D02*
X61300Y-30150D01*
X61300Y-30150D02*
X61950Y-29500D01*
X61950Y-30500D02*
X62400Y-30500D01*
X62950Y-29950D02*
X62950Y-29000D01*
X62400Y-30500D02*
X62950Y-29950D01*
X62950Y-29000D02*
X64250Y-29000D01*
G54D31*
X60500Y-26700D02*
X60500Y-20750D01*
X72350Y-20550D02*
X70450Y-20550D01*
X55700Y-17850D02*
X54850Y-18700D01*
X67750Y-17850D02*
X55700Y-17850D01*
X70450Y-20550D02*
X67750Y-17850D01*
G54D30*
X60450Y-35500D02*
X61950Y-35500D01*
X54961Y-36500D02*
X57500Y-36500D01*
X54461Y-37000D02*
X54961Y-36500D01*
X52500Y-37000D02*
X54461Y-37000D01*
X55961Y-37500D02*
X57500Y-37500D01*
X54461Y-39000D02*
X55961Y-37500D01*
X52500Y-39000D02*
X54461Y-39000D01*
X46250Y-50500D02*
X47000Y-50500D01*
X47000Y-50500D02*
X47500Y-51000D01*
X56750Y-53250D02*
X61750Y-53250D01*
X56750Y-53250D02*
X57500Y-53250D01*
X57500Y-53250D02*
X58750Y-52000D01*
X58750Y-52000D02*
X58750Y-50500D01*
X58750Y-52000D02*
X58750Y-50500D01*
X57500Y-53250D02*
X58750Y-52000D01*
X55000Y-41500D02*
X55000Y-49500D01*
X57500Y-40500D02*
X56000Y-40500D01*
X56000Y-40500D02*
X55000Y-41500D01*
X56750Y-51250D02*
X56750Y-53250D01*
X55000Y-49500D02*
X56750Y-51250D01*
X73250Y-50500D02*
X74250Y-50500D01*
X74250Y-50500D02*
X74750Y-51000D01*
X50000Y-53250D02*
X55000Y-53250D01*
X50000Y-53250D02*
X50950Y-52300D01*
X50950Y-52300D02*
X52000Y-51250D01*
X52000Y-51250D02*
X52000Y-50500D01*
X52000Y-51250D02*
X52000Y-50000D01*
X52000Y-50000D02*
X53000Y-49000D01*
X53000Y-49000D02*
X54000Y-49000D01*
X54000Y-49000D02*
X54500Y-48500D01*
X54500Y-48500D02*
X54500Y-41500D01*
X56500Y-39500D02*
X54500Y-41500D01*
X57500Y-39500D02*
X56500Y-39500D01*
X66500Y-50500D02*
X67500Y-50500D01*
X67500Y-50500D02*
X68000Y-51000D01*
X57500Y-38500D02*
X56750Y-38500D01*
X45250Y-46000D02*
X45250Y-50500D01*
X50000Y-41250D02*
X45250Y-46000D01*
X54000Y-41250D02*
X52500Y-41250D01*
X56750Y-38500D02*
X54000Y-41250D01*
X45250Y-50500D02*
X43250Y-52500D01*
X43250Y-52500D02*
X43250Y-53250D01*
X43250Y-53250D02*
X48250Y-53250D01*
X48250Y-35500D02*
X51000Y-35500D01*
X57050Y-29500D02*
X57500Y-29500D01*
X56150Y-30400D02*
X57050Y-29500D01*
X56150Y-31100D02*
X56150Y-30400D01*
X53450Y-33800D02*
X56150Y-31100D01*
X52700Y-33800D02*
X53450Y-33800D01*
X51000Y-35500D02*
X52700Y-33800D01*
X48250Y-36500D02*
X50400Y-36500D01*
G54D32*
X53526Y-34123D02*
X57150Y-30500D01*
X52776Y-34123D02*
X53526Y-34123D01*
X50400Y-36500D02*
X52776Y-34123D01*
G54D30*
X57150Y-30500D02*
X57500Y-30500D01*
X57500Y-30500D02*
X57150Y-30500D01*
X57950Y-31500D02*
X58250Y-31800D01*
X58250Y-31800D02*
X58250Y-42050D01*
X58250Y-42050D02*
X57400Y-42900D01*
X57400Y-42900D02*
X56550Y-42900D01*
X56550Y-42900D02*
X56000Y-43450D01*
X56000Y-43450D02*
X56000Y-48000D01*
X52950Y-48000D02*
X51500Y-48000D01*
X57500Y-31500D02*
X57950Y-31500D01*
X57500Y-32500D02*
X56000Y-32500D01*
X57550Y-18700D02*
X57550Y-23900D01*
X59750Y-27750D02*
X60500Y-28500D01*
X59750Y-26100D02*
X59750Y-27750D01*
X57550Y-23900D02*
X59750Y-26100D01*
X57500Y-28500D02*
X58600Y-28500D01*
X59150Y-29900D02*
X59100Y-29950D01*
X59150Y-29050D02*
X59150Y-29900D01*
X58600Y-28500D02*
X59150Y-29050D01*
X57500Y-26700D02*
X57500Y-28500D01*
G54D32*
X62850Y-24050D02*
X62850Y-23550D01*
X60950Y-29500D02*
X60500Y-29500D01*
X61250Y-29200D02*
X60950Y-29500D01*
X61250Y-26300D02*
X61250Y-29200D01*
X61050Y-26100D02*
X61250Y-26300D01*
X61050Y-23650D02*
X61050Y-26100D01*
X61450Y-23250D02*
X61050Y-23650D01*
X62550Y-23250D02*
X61450Y-23250D01*
X62850Y-23550D02*
X62550Y-23250D01*
X60500Y-29500D02*
X60750Y-29500D01*
G54D30*
X58600Y-44000D02*
X61000Y-44000D01*
X61000Y-44000D02*
X61450Y-43550D01*
X61450Y-43550D02*
X61450Y-40750D01*
X61450Y-40750D02*
X61200Y-40500D01*
X61200Y-40500D02*
X60500Y-40500D01*
X51500Y-44000D02*
X52850Y-44000D01*
X63400Y-39500D02*
X64000Y-39500D01*
X60500Y-39500D02*
X63400Y-39500D01*
X62300Y-46000D02*
X62800Y-45500D01*
X62800Y-45500D02*
X62800Y-40100D01*
X62800Y-40100D02*
X63400Y-39500D01*
X58350Y-46000D02*
X62300Y-46000D01*
X61250Y-38500D02*
X61850Y-37900D01*
X61850Y-37900D02*
X64400Y-37900D01*
X64400Y-37900D02*
X65000Y-38500D01*
X60500Y-38500D02*
X61250Y-38500D01*
X59800Y-38500D02*
X59500Y-38800D01*
X59500Y-38800D02*
X59500Y-39650D01*
X59500Y-39650D02*
X59850Y-40000D01*
G54D32*
X59850Y-40000D02*
X61700Y-40000D01*
G54D30*
X61700Y-40000D02*
X62050Y-40350D01*
X62050Y-40350D02*
X62050Y-44550D01*
X62050Y-44550D02*
X61600Y-45000D01*
X61600Y-45000D02*
X58350Y-45000D01*
X60500Y-38500D02*
X59800Y-38500D01*
X58350Y-47000D02*
X66050Y-47000D01*
X66600Y-46450D02*
X66600Y-38950D01*
X66050Y-47000D02*
X66600Y-46450D01*
X66300Y-39500D02*
X66600Y-39200D01*
X66600Y-39200D02*
X66600Y-38950D01*
X66600Y-38950D02*
X66600Y-37950D01*
X66600Y-38000D02*
X66150Y-37550D01*
X66150Y-37550D02*
X60500Y-37550D01*
X65000Y-39500D02*
X66300Y-39500D01*
X70250Y-27500D02*
X70250Y-26000D01*
X70250Y-26000D02*
X71750Y-24500D01*
X71750Y-24500D02*
X72350Y-24500D01*
X68750Y-30000D02*
X68750Y-29950D01*
X68750Y-29950D02*
X69200Y-29500D01*
X69200Y-29500D02*
X70250Y-29500D01*
X67250Y-30000D02*
X68750Y-30000D01*
X71250Y-28500D02*
X72350Y-28500D01*
X42950Y-20500D02*
X44450Y-20500D01*
X58550Y-18700D02*
X60600Y-18700D01*
X66950Y-18400D02*
X66950Y-18700D01*
X66750Y-18200D02*
X66950Y-18400D01*
X61099Y-18200D02*
X66750Y-18200D01*
X60600Y-18700D02*
X61099Y-18200D01*
X51500Y-46000D02*
X53350Y-46000D01*
X51500Y-45000D02*
X53350Y-45000D01*
X51500Y-47000D02*
X53350Y-47000D01*
X53000Y-50500D02*
X54000Y-50500D01*
X54000Y-50500D02*
X54500Y-51000D01*
X63500Y-53250D02*
X68500Y-53250D01*
X63500Y-53250D02*
X64000Y-53250D01*
X64000Y-53250D02*
X65500Y-51750D01*
X65500Y-51750D02*
X65500Y-50500D01*
X55500Y-42000D02*
X55500Y-49250D01*
X57500Y-41500D02*
X56000Y-41500D01*
X56000Y-41500D02*
X55500Y-42000D01*
X64750Y-49750D02*
X65500Y-50500D01*
X56000Y-49750D02*
X64750Y-49750D01*
X55500Y-49250D02*
X56000Y-49750D01*
X60500Y-41500D02*
X59750Y-41500D01*
X72250Y-48650D02*
X72250Y-50500D01*
X71550Y-47950D02*
X72250Y-48650D01*
X57150Y-47950D02*
X71550Y-47950D01*
X56650Y-47450D02*
X57150Y-47950D01*
X56650Y-44600D02*
X56650Y-47450D01*
X59750Y-41500D02*
X56650Y-44600D01*
X70250Y-53250D02*
X71250Y-53250D01*
X72250Y-52250D02*
X72250Y-50500D01*
X71250Y-53250D02*
X72250Y-52250D01*
X70250Y-53250D02*
X75250Y-53250D01*
X60500Y-41500D02*
X60450Y-41500D01*
X48250Y-37500D02*
X50350Y-37500D01*
X54600Y-33500D02*
X57500Y-33500D01*
X53700Y-34400D02*
X54600Y-33500D01*
X52900Y-34400D02*
X53700Y-34400D01*
X50800Y-36500D02*
X52900Y-34400D01*
X50800Y-37050D02*
X50800Y-36500D01*
X50350Y-37500D02*
X50800Y-37050D01*
X59750Y-50500D02*
X60500Y-50500D01*
X60500Y-50500D02*
X61000Y-51000D01*
G54D10*
G36*
X60105Y-31999D02*
X59950Y-32104D01*
X59828Y-32285D01*
X59786Y-32500D01*
X59828Y-32714D01*
X59950Y-32895D01*
X59997Y-32927D01*
X59943Y-32927D01*
X59943Y-33003D01*
X59469Y-33208D01*
X59042Y-33647D01*
X58909Y-33943D01*
X58787Y-33943D01*
X58787Y-34472D01*
X58600Y-34279D01*
X58600Y-31800D01*
X58573Y-31666D01*
X58573Y-31666D01*
X58497Y-31552D01*
X58197Y-31252D01*
X58109Y-31193D01*
X58049Y-31104D01*
X57894Y-31000D01*
X58049Y-30895D01*
X58171Y-30714D01*
X58213Y-30500D01*
X58171Y-30285D01*
X58049Y-30104D01*
X57894Y-30000D01*
X58049Y-29895D01*
X58171Y-29714D01*
X58213Y-29500D01*
X58171Y-29285D01*
X58049Y-29104D01*
X57983Y-29060D01*
X57999Y-29060D01*
X58091Y-29021D01*
X58161Y-28951D01*
X58200Y-28859D01*
X58200Y-28850D01*
X58455Y-28850D01*
X58800Y-29194D01*
X58800Y-29648D01*
X58739Y-29708D01*
X58675Y-29865D01*
X58674Y-30034D01*
X58739Y-30190D01*
X58858Y-30310D01*
X59015Y-30374D01*
X59184Y-30375D01*
X59340Y-30310D01*
X59460Y-30191D01*
X59524Y-30034D01*
X59525Y-29865D01*
X59500Y-29805D01*
X59500Y-29050D01*
X59473Y-28916D01*
X59397Y-28802D01*
X58847Y-28252D01*
X58733Y-28176D01*
X58600Y-28150D01*
X58200Y-28150D01*
X58200Y-28140D01*
X58161Y-28048D01*
X58091Y-27978D01*
X57999Y-27940D01*
X57900Y-27940D01*
X57850Y-27940D01*
X57850Y-27092D01*
X57944Y-26997D01*
X58024Y-26804D01*
X58025Y-26596D01*
X57945Y-26403D01*
X57797Y-26255D01*
X57604Y-26175D01*
X57523Y-26175D01*
X57520Y-26119D01*
X57344Y-25693D01*
X56977Y-25717D01*
X56806Y-25887D01*
X56806Y-25155D01*
X56472Y-25035D01*
X56472Y-23125D01*
X56439Y-22506D01*
X56266Y-22089D01*
X55898Y-22110D01*
X55710Y-22298D01*
X55710Y-21533D01*
X55213Y-21358D01*
X55362Y-21209D01*
X55445Y-21008D01*
X55445Y-20791D01*
X55362Y-20591D01*
X55209Y-20437D01*
X55008Y-20354D01*
X54791Y-20354D01*
X54591Y-20437D01*
X54437Y-20590D01*
X54354Y-20791D01*
X54354Y-21008D01*
X54437Y-21208D01*
X54585Y-21356D01*
X54506Y-21360D01*
X54089Y-21533D01*
X54110Y-21901D01*
X54900Y-22691D01*
X55689Y-21901D01*
X55710Y-21533D01*
X55710Y-22298D01*
X55108Y-22900D01*
X55898Y-23689D01*
X56266Y-23710D01*
X56472Y-23125D01*
X56472Y-25035D01*
X56230Y-24949D01*
X55710Y-24974D01*
X55710Y-24266D01*
X55689Y-23898D01*
X54900Y-23108D01*
X54691Y-23317D01*
X54691Y-22900D01*
X53901Y-22110D01*
X53533Y-22089D01*
X53327Y-22674D01*
X53360Y-23293D01*
X53533Y-23710D01*
X53901Y-23689D01*
X54691Y-22900D01*
X54691Y-23317D01*
X54110Y-23898D01*
X54089Y-24266D01*
X54674Y-24472D01*
X55293Y-24439D01*
X55710Y-24266D01*
X55710Y-24974D01*
X55619Y-24979D01*
X55193Y-25155D01*
X55217Y-25522D01*
X56000Y-26305D01*
X56782Y-25522D01*
X56806Y-25155D01*
X56806Y-25887D01*
X56194Y-26500D01*
X56977Y-27282D01*
X57150Y-27294D01*
X57150Y-27940D01*
X57000Y-27940D01*
X56908Y-27978D01*
X56838Y-28048D01*
X56800Y-28140D01*
X56800Y-28239D01*
X56800Y-28859D01*
X56838Y-28951D01*
X56908Y-29021D01*
X57000Y-29060D01*
X57016Y-29060D01*
X56950Y-29104D01*
X56890Y-29193D01*
X56802Y-29252D01*
X56524Y-29530D01*
X56525Y-29396D01*
X56445Y-29203D01*
X56350Y-29107D01*
X56350Y-28892D01*
X56444Y-28797D01*
X56524Y-28604D01*
X56525Y-28396D01*
X56445Y-28203D01*
X56297Y-28055D01*
X56232Y-28028D01*
X56380Y-28020D01*
X56806Y-27844D01*
X56782Y-27477D01*
X56000Y-26694D01*
X55902Y-26791D01*
X55708Y-26597D01*
X55805Y-26500D01*
X55022Y-25717D01*
X54655Y-25693D01*
X54449Y-26269D01*
X54458Y-26463D01*
X53250Y-25255D01*
X53250Y-22950D01*
X53223Y-22816D01*
X53223Y-22816D01*
X53147Y-22702D01*
X51491Y-21046D01*
X51470Y-20619D01*
X51450Y-20569D01*
X51450Y-18581D01*
X51358Y-18360D01*
X51190Y-18191D01*
X50969Y-18100D01*
X50731Y-18099D01*
X50510Y-18191D01*
X50341Y-18359D01*
X50250Y-18580D01*
X50249Y-18818D01*
X50341Y-19039D01*
X50509Y-19208D01*
X50730Y-19299D01*
X50968Y-19300D01*
X51189Y-19208D01*
X51358Y-19040D01*
X51449Y-18819D01*
X51450Y-18581D01*
X51450Y-20569D01*
X51294Y-20193D01*
X50927Y-20217D01*
X50144Y-21000D01*
X50927Y-21782D01*
X51259Y-21804D01*
X52550Y-23094D01*
X52550Y-25400D01*
X52576Y-25533D01*
X52652Y-25647D01*
X53858Y-26853D01*
X52833Y-26168D01*
X51350Y-25873D01*
X49866Y-26168D01*
X49440Y-26453D01*
X49409Y-26423D01*
X49543Y-26051D01*
X51197Y-24397D01*
X51273Y-24283D01*
X51273Y-24283D01*
X51300Y-24150D01*
X51300Y-23392D01*
X51394Y-23297D01*
X51474Y-23104D01*
X51475Y-22896D01*
X51395Y-22703D01*
X51247Y-22555D01*
X51054Y-22475D01*
X50846Y-22474D01*
X50653Y-22554D01*
X50505Y-22702D01*
X50449Y-22835D01*
X50395Y-22703D01*
X50247Y-22555D01*
X50182Y-22528D01*
X50330Y-22520D01*
X50756Y-22344D01*
X50732Y-21977D01*
X49950Y-21194D01*
X49167Y-21977D01*
X49143Y-22344D01*
X49688Y-22539D01*
X49653Y-22554D01*
X49505Y-22702D01*
X49425Y-22895D01*
X49424Y-23030D01*
X49323Y-23131D01*
X49247Y-23055D01*
X49054Y-22975D01*
X49022Y-22975D01*
X49022Y-22943D01*
X48946Y-22943D01*
X48741Y-22469D01*
X48302Y-22042D01*
X47847Y-21838D01*
X47605Y-22112D01*
X47605Y-23275D01*
X47760Y-23275D01*
X47760Y-23428D01*
X47693Y-23455D01*
X47710Y-23725D01*
X47605Y-23725D01*
X47605Y-23950D01*
X47295Y-23950D01*
X47295Y-23725D01*
X46995Y-23725D01*
X47010Y-23653D01*
X47010Y-23346D01*
X46995Y-23275D01*
X47295Y-23275D01*
X47295Y-22112D01*
X47052Y-21838D01*
X46597Y-22042D01*
X46449Y-22186D01*
X46302Y-22042D01*
X45847Y-21838D01*
X45605Y-22112D01*
X45605Y-23275D01*
X45904Y-23275D01*
X45890Y-23346D01*
X45890Y-23653D01*
X45904Y-23725D01*
X45605Y-23725D01*
X45605Y-23950D01*
X45295Y-23950D01*
X45295Y-23725D01*
X45010Y-23725D01*
X45010Y-23275D01*
X45295Y-23275D01*
X45295Y-22112D01*
X45052Y-21838D01*
X44597Y-22042D01*
X44158Y-22469D01*
X43999Y-22837D01*
X43998Y-22838D01*
X43928Y-22908D01*
X43890Y-23000D01*
X43890Y-23099D01*
X43890Y-23999D01*
X43928Y-24091D01*
X43998Y-24161D01*
X43999Y-24162D01*
X44100Y-24394D01*
X44100Y-25300D01*
X44008Y-25338D01*
X43938Y-25408D01*
X43900Y-25500D01*
X43900Y-25522D01*
X43761Y-25384D01*
X43559Y-25300D01*
X43394Y-25299D01*
X43300Y-25205D01*
X43300Y-23892D01*
X43394Y-23797D01*
X43474Y-23604D01*
X43475Y-23396D01*
X43395Y-23203D01*
X43247Y-23055D01*
X43054Y-22975D01*
X42846Y-22974D01*
X42653Y-23054D01*
X42505Y-23202D01*
X42425Y-23395D01*
X42424Y-23603D01*
X42504Y-23797D01*
X42600Y-23892D01*
X42600Y-25350D01*
X42626Y-25483D01*
X42702Y-25597D01*
X42900Y-25795D01*
X42899Y-25958D01*
X42983Y-26161D01*
X43138Y-26315D01*
X43340Y-26399D01*
X43558Y-26400D01*
X43761Y-26316D01*
X43900Y-26177D01*
X43900Y-26199D01*
X43938Y-26291D01*
X44008Y-26361D01*
X44100Y-26400D01*
X44199Y-26400D01*
X44799Y-26400D01*
X44891Y-26361D01*
X44961Y-26291D01*
X45000Y-26199D01*
X45000Y-26100D01*
X45000Y-25500D01*
X44961Y-25408D01*
X44891Y-25338D01*
X44800Y-25300D01*
X44800Y-25048D01*
X44893Y-25090D01*
X44893Y-25212D01*
X45150Y-25212D01*
X45150Y-25300D01*
X45176Y-25433D01*
X45252Y-25547D01*
X45475Y-25770D01*
X45474Y-25903D01*
X45554Y-26097D01*
X45650Y-26192D01*
X45650Y-26500D01*
X45676Y-26633D01*
X45752Y-26747D01*
X46152Y-27147D01*
X46266Y-27223D01*
X46266Y-27223D01*
X46400Y-27250D01*
X47234Y-27250D01*
X47285Y-27301D01*
X47336Y-27250D01*
X47488Y-27250D01*
X47769Y-27350D01*
X48380Y-27320D01*
X48407Y-27309D01*
X47768Y-28266D01*
X47473Y-29750D01*
X47768Y-31233D01*
X48608Y-32491D01*
X49866Y-33331D01*
X51350Y-33626D01*
X52833Y-33331D01*
X54091Y-32491D01*
X54931Y-31233D01*
X55226Y-29750D01*
X54931Y-28266D01*
X54246Y-27241D01*
X55475Y-28470D01*
X55474Y-28603D01*
X55554Y-28797D01*
X55650Y-28892D01*
X55650Y-29107D01*
X55555Y-29202D01*
X55475Y-29395D01*
X55474Y-29603D01*
X55554Y-29797D01*
X55702Y-29944D01*
X55895Y-30024D01*
X56029Y-30025D01*
X55902Y-30152D01*
X55826Y-30266D01*
X55800Y-30400D01*
X55800Y-30955D01*
X53305Y-33450D01*
X52700Y-33450D01*
X52566Y-33476D01*
X52452Y-33552D01*
X50855Y-35150D01*
X48852Y-35150D01*
X48852Y-34943D01*
X48728Y-34943D01*
X48519Y-34522D01*
X48049Y-34110D01*
X47667Y-33952D01*
X47420Y-34224D01*
X47420Y-35224D01*
X47420Y-35330D01*
X47420Y-35670D01*
X47420Y-36224D01*
X47420Y-36330D01*
X47420Y-36670D01*
X47420Y-36775D01*
X47420Y-37330D01*
X47420Y-37670D01*
X47420Y-37775D01*
X47420Y-38775D01*
X47667Y-39047D01*
X48049Y-38889D01*
X48519Y-38477D01*
X48728Y-38056D01*
X48852Y-38056D01*
X48852Y-37850D01*
X50350Y-37850D01*
X50483Y-37823D01*
X50483Y-37823D01*
X50597Y-37747D01*
X51047Y-37297D01*
X51123Y-37183D01*
X51123Y-37183D01*
X51123Y-37181D01*
X51305Y-37000D01*
X51208Y-36902D01*
X51402Y-36708D01*
X51500Y-36805D01*
X52282Y-36022D01*
X52306Y-35655D01*
X52183Y-35611D01*
X52976Y-34818D01*
X52979Y-34880D01*
X53155Y-35306D01*
X53522Y-35282D01*
X54305Y-34500D01*
X54208Y-34402D01*
X54402Y-34208D01*
X54500Y-34305D01*
X54597Y-34208D01*
X54791Y-34402D01*
X54694Y-34500D01*
X55477Y-35282D01*
X55844Y-35306D01*
X55898Y-35155D01*
X56112Y-35345D01*
X57275Y-35345D01*
X57275Y-35190D01*
X57725Y-35190D01*
X57725Y-35345D01*
X57900Y-35345D01*
X57900Y-35655D01*
X57725Y-35655D01*
X57725Y-35810D01*
X57275Y-35810D01*
X57275Y-35655D01*
X56112Y-35655D01*
X55838Y-35897D01*
X55951Y-36150D01*
X55306Y-36150D01*
X55306Y-35844D01*
X55282Y-35477D01*
X54500Y-34694D01*
X53717Y-35477D01*
X53693Y-35844D01*
X54269Y-36050D01*
X54880Y-36020D01*
X55306Y-35844D01*
X55306Y-36150D01*
X54961Y-36150D01*
X54827Y-36176D01*
X54713Y-36252D01*
X54472Y-36493D01*
X54391Y-36493D01*
X54191Y-36576D01*
X54117Y-36650D01*
X53022Y-36650D01*
X53020Y-36619D01*
X52844Y-36193D01*
X52477Y-36217D01*
X51694Y-37000D01*
X52477Y-37782D01*
X52844Y-37806D01*
X53007Y-37350D01*
X54039Y-37350D01*
X54190Y-37501D01*
X54391Y-37584D01*
X54608Y-37584D01*
X54808Y-37501D01*
X54962Y-37348D01*
X55045Y-37147D01*
X55045Y-36930D01*
X55039Y-36916D01*
X55105Y-36850D01*
X56605Y-36850D01*
X56943Y-36996D01*
X56943Y-37072D01*
X56997Y-37072D01*
X56950Y-37104D01*
X56919Y-37150D01*
X55961Y-37150D01*
X55827Y-37176D01*
X55713Y-37252D01*
X54550Y-38415D01*
X54391Y-38415D01*
X54191Y-38498D01*
X54039Y-38650D01*
X53022Y-38650D01*
X53020Y-38619D01*
X52844Y-38193D01*
X52477Y-38217D01*
X52306Y-38387D01*
X52306Y-38344D01*
X52284Y-38000D01*
X52306Y-37655D01*
X51768Y-37462D01*
X51500Y-37194D01*
X51220Y-37474D01*
X51119Y-37479D01*
X50693Y-37655D01*
X50715Y-38000D01*
X50693Y-38344D01*
X51231Y-38537D01*
X51500Y-38805D01*
X51779Y-38525D01*
X51880Y-38520D01*
X52306Y-38344D01*
X52306Y-38387D01*
X51694Y-39000D01*
X52477Y-39782D01*
X52844Y-39806D01*
X53007Y-39350D01*
X54117Y-39350D01*
X54190Y-39423D01*
X54391Y-39506D01*
X54608Y-39506D01*
X54808Y-39423D01*
X54962Y-39270D01*
X55045Y-39069D01*
X55045Y-38910D01*
X56105Y-37850D01*
X56919Y-37850D01*
X56950Y-37895D01*
X57105Y-37999D01*
X56950Y-38104D01*
X56919Y-38150D01*
X56750Y-38150D01*
X56616Y-38176D01*
X56502Y-38252D01*
X53855Y-40900D01*
X52751Y-40900D01*
X52741Y-40889D01*
X52584Y-40825D01*
X52415Y-40824D01*
X52306Y-40870D01*
X52306Y-40344D01*
X52282Y-39977D01*
X51500Y-39194D01*
X51305Y-39388D01*
X51305Y-39000D01*
X50522Y-38217D01*
X50155Y-38193D01*
X49949Y-38769D01*
X49979Y-39380D01*
X50155Y-39806D01*
X50522Y-39782D01*
X51305Y-39000D01*
X51305Y-39388D01*
X50717Y-39977D01*
X50693Y-40344D01*
X51269Y-40550D01*
X51880Y-40520D01*
X52306Y-40344D01*
X52306Y-40870D01*
X52259Y-40889D01*
X52139Y-41008D01*
X52075Y-41165D01*
X52074Y-41334D01*
X52139Y-41490D01*
X52258Y-41610D01*
X52263Y-41611D01*
X51724Y-41422D01*
X51103Y-41456D01*
X50689Y-41628D01*
X50708Y-41996D01*
X51500Y-42787D01*
X52291Y-41996D01*
X52310Y-41631D01*
X52415Y-41674D01*
X52584Y-41675D01*
X52740Y-41610D01*
X52750Y-41600D01*
X54000Y-41600D01*
X54133Y-41573D01*
X54133Y-41573D01*
X54150Y-41562D01*
X54150Y-48355D01*
X53900Y-48604D01*
X53900Y-46891D01*
X53816Y-46688D01*
X53661Y-46534D01*
X53580Y-46500D01*
X53661Y-46466D01*
X53815Y-46311D01*
X53899Y-46109D01*
X53900Y-45891D01*
X53816Y-45688D01*
X53661Y-45534D01*
X53580Y-45500D01*
X53661Y-45466D01*
X53815Y-45311D01*
X53899Y-45109D01*
X53900Y-44891D01*
X53816Y-44688D01*
X53661Y-44534D01*
X53459Y-44450D01*
X53241Y-44449D01*
X53038Y-44533D01*
X52922Y-44650D01*
X51927Y-44650D01*
X51824Y-44547D01*
X51896Y-44543D01*
X52150Y-44437D01*
X52232Y-44519D01*
X52401Y-44350D01*
X52598Y-44350D01*
X52608Y-44360D01*
X52765Y-44424D01*
X52934Y-44425D01*
X53090Y-44360D01*
X53210Y-44241D01*
X53274Y-44084D01*
X53275Y-43915D01*
X53210Y-43759D01*
X53091Y-43639D01*
X52951Y-43582D01*
X53077Y-43224D01*
X53043Y-42603D01*
X52871Y-42189D01*
X52503Y-42208D01*
X51712Y-43000D01*
X51818Y-43106D01*
X51606Y-43318D01*
X51500Y-43212D01*
X51287Y-43424D01*
X51287Y-43000D01*
X50496Y-42208D01*
X50128Y-42189D01*
X49922Y-42775D01*
X49956Y-43396D01*
X50128Y-43810D01*
X50496Y-43791D01*
X51287Y-43000D01*
X51287Y-43424D01*
X50708Y-44003D01*
X50689Y-44371D01*
X51178Y-44543D01*
X51034Y-44688D01*
X50950Y-44890D01*
X50949Y-45108D01*
X51033Y-45311D01*
X51188Y-45465D01*
X51269Y-45499D01*
X51188Y-45533D01*
X51034Y-45688D01*
X51008Y-45748D01*
X50730Y-45649D01*
X50119Y-45679D01*
X49693Y-45855D01*
X49717Y-46222D01*
X50500Y-47005D01*
X50597Y-46908D01*
X50791Y-47102D01*
X50694Y-47200D01*
X50791Y-47297D01*
X50597Y-47491D01*
X50500Y-47394D01*
X50305Y-47588D01*
X50305Y-47200D01*
X49522Y-46417D01*
X49155Y-46393D01*
X48949Y-46969D01*
X48979Y-47580D01*
X49155Y-48006D01*
X49522Y-47982D01*
X50305Y-47200D01*
X50305Y-47588D01*
X49717Y-48177D01*
X49693Y-48544D01*
X50238Y-48739D01*
X50203Y-48754D01*
X50055Y-48902D01*
X49975Y-49095D01*
X49974Y-49303D01*
X50054Y-49497D01*
X50202Y-49644D01*
X50395Y-49724D01*
X50603Y-49725D01*
X50797Y-49645D01*
X50944Y-49497D01*
X51024Y-49304D01*
X51024Y-49290D01*
X51033Y-49311D01*
X51188Y-49465D01*
X51390Y-49549D01*
X51608Y-49550D01*
X51811Y-49466D01*
X51965Y-49311D01*
X52049Y-49109D01*
X52050Y-48891D01*
X51966Y-48688D01*
X51811Y-48534D01*
X51730Y-48500D01*
X51811Y-48466D01*
X51927Y-48350D01*
X52698Y-48350D01*
X52708Y-48360D01*
X52865Y-48424D01*
X53034Y-48425D01*
X53190Y-48360D01*
X53310Y-48241D01*
X53374Y-48084D01*
X53375Y-47915D01*
X53310Y-47759D01*
X53191Y-47639D01*
X53034Y-47575D01*
X52865Y-47574D01*
X52709Y-47639D01*
X52699Y-47650D01*
X51972Y-47650D01*
X52050Y-47430D01*
X52046Y-47350D01*
X52922Y-47350D01*
X53038Y-47465D01*
X53240Y-47549D01*
X53458Y-47550D01*
X53661Y-47466D01*
X53815Y-47311D01*
X53899Y-47109D01*
X53900Y-46891D01*
X53900Y-48604D01*
X53855Y-48650D01*
X53000Y-48650D01*
X52866Y-48676D01*
X52752Y-48752D01*
X51752Y-49752D01*
X51676Y-49866D01*
X51650Y-50000D01*
X51650Y-50107D01*
X51555Y-50202D01*
X51475Y-50395D01*
X51474Y-50603D01*
X51554Y-50797D01*
X51650Y-50892D01*
X51650Y-51105D01*
X51025Y-51729D01*
X51025Y-50896D01*
X50945Y-50703D01*
X50797Y-50555D01*
X50604Y-50475D01*
X50396Y-50474D01*
X50203Y-50554D01*
X50055Y-50702D01*
X49975Y-50895D01*
X49974Y-51103D01*
X50054Y-51297D01*
X50202Y-51444D01*
X50395Y-51524D01*
X50603Y-51525D01*
X50797Y-51445D01*
X50944Y-51297D01*
X51024Y-51104D01*
X51025Y-50896D01*
X51025Y-51729D01*
X50702Y-52052D01*
X50095Y-52660D01*
X49723Y-52660D01*
X49497Y-52704D01*
X49306Y-52832D01*
X49178Y-53024D01*
X49133Y-53250D01*
X49178Y-53475D01*
X49306Y-53667D01*
X49369Y-53709D01*
X49125Y-53806D01*
X48880Y-53709D01*
X48943Y-53667D01*
X49071Y-53475D01*
X49116Y-53250D01*
X49071Y-53024D01*
X48943Y-52832D01*
X48752Y-52704D01*
X48526Y-52660D01*
X47973Y-52660D01*
X47747Y-52704D01*
X47556Y-52832D01*
X47511Y-52900D01*
X43988Y-52900D01*
X43943Y-52832D01*
X43752Y-52704D01*
X43600Y-52674D01*
X43600Y-52644D01*
X45220Y-51024D01*
X45353Y-51025D01*
X45547Y-50945D01*
X45694Y-50797D01*
X45725Y-50725D01*
X45725Y-50824D01*
X45763Y-50916D01*
X45833Y-50986D01*
X45925Y-51025D01*
X46024Y-51025D01*
X46574Y-51025D01*
X46666Y-50986D01*
X46736Y-50916D01*
X46764Y-50850D01*
X46855Y-50850D01*
X46975Y-50970D01*
X46974Y-51103D01*
X47054Y-51297D01*
X47202Y-51444D01*
X47395Y-51524D01*
X47603Y-51525D01*
X47797Y-51445D01*
X47944Y-51297D01*
X48024Y-51104D01*
X48025Y-50896D01*
X47945Y-50703D01*
X47797Y-50555D01*
X47604Y-50475D01*
X47469Y-50474D01*
X47247Y-50252D01*
X47133Y-50176D01*
X47000Y-50150D01*
X46764Y-50150D01*
X46736Y-50083D01*
X46666Y-50013D01*
X46574Y-49975D01*
X46475Y-49975D01*
X45925Y-49975D01*
X45833Y-50013D01*
X45763Y-50083D01*
X45725Y-50175D01*
X45725Y-50274D01*
X45725Y-50274D01*
X45695Y-50203D01*
X45600Y-50107D01*
X45600Y-46144D01*
X50069Y-41675D01*
X50084Y-41675D01*
X50240Y-41610D01*
X50360Y-41491D01*
X50424Y-41334D01*
X50425Y-41165D01*
X50360Y-41009D01*
X50241Y-40889D01*
X50084Y-40825D01*
X49915Y-40824D01*
X49759Y-40889D01*
X49639Y-41008D01*
X49575Y-41165D01*
X49575Y-41179D01*
X47080Y-43675D01*
X47080Y-38775D01*
X47080Y-37775D01*
X47080Y-37670D01*
X47080Y-37330D01*
X47080Y-36775D01*
X47080Y-36670D01*
X47080Y-36330D01*
X47080Y-36224D01*
X47080Y-35670D01*
X47080Y-35330D01*
X47080Y-35224D01*
X47080Y-34224D01*
X46832Y-33952D01*
X46450Y-34110D01*
X45980Y-34522D01*
X45702Y-35082D01*
X45972Y-35330D01*
X46200Y-35330D01*
X45980Y-35522D01*
X45852Y-35779D01*
X45702Y-35917D01*
X45743Y-36000D01*
X45702Y-36082D01*
X45852Y-36220D01*
X45980Y-36477D01*
X46005Y-36500D01*
X45980Y-36522D01*
X45852Y-36779D01*
X45702Y-36917D01*
X45743Y-37000D01*
X45702Y-37082D01*
X45852Y-37220D01*
X45980Y-37477D01*
X46200Y-37670D01*
X45972Y-37670D01*
X45702Y-37917D01*
X45980Y-38477D01*
X46450Y-38889D01*
X46832Y-39047D01*
X47080Y-38775D01*
X47080Y-43675D01*
X45002Y-45752D01*
X44926Y-45866D01*
X44900Y-46000D01*
X44900Y-50107D01*
X44805Y-50202D01*
X44725Y-50395D01*
X44724Y-50530D01*
X43002Y-52252D01*
X42926Y-52366D01*
X42900Y-52500D01*
X42900Y-52674D01*
X42747Y-52704D01*
X42556Y-52832D01*
X42428Y-53024D01*
X42383Y-53250D01*
X42428Y-53475D01*
X42556Y-53667D01*
X42619Y-53709D01*
X42120Y-53907D01*
X41672Y-54342D01*
X41595Y-54506D01*
X41576Y-54487D01*
X41267Y-54359D01*
X40933Y-54359D01*
X40624Y-54487D01*
X40387Y-54723D01*
X40259Y-55032D01*
X40259Y-55366D01*
X40387Y-55675D01*
X40623Y-55912D01*
X40932Y-56040D01*
X41266Y-56040D01*
X41560Y-55918D01*
X41672Y-56157D01*
X41875Y-56353D01*
X39907Y-56353D01*
X39907Y-30573D01*
X39941Y-30602D01*
X40193Y-30707D01*
X40193Y-30812D01*
X40222Y-30812D01*
X40222Y-31772D01*
X47477Y-31772D01*
X47477Y-30209D01*
X42021Y-30209D01*
X42052Y-30182D01*
X42348Y-29605D01*
X42084Y-29350D01*
X40950Y-29350D01*
X40950Y-29550D01*
X40550Y-29550D01*
X40550Y-29350D01*
X40350Y-29350D01*
X40350Y-28950D01*
X40550Y-28950D01*
X40550Y-28800D01*
X40950Y-28800D01*
X40950Y-28950D01*
X42084Y-28950D01*
X42348Y-28694D01*
X42052Y-28117D01*
X41558Y-27697D01*
X41365Y-27617D01*
X41361Y-27608D01*
X41306Y-27552D01*
X41306Y-27487D01*
X41100Y-27487D01*
X41100Y-26327D01*
X41200Y-26227D01*
X41200Y-26249D01*
X41238Y-26341D01*
X41308Y-26411D01*
X41400Y-26450D01*
X41499Y-26450D01*
X42099Y-26450D01*
X42191Y-26411D01*
X42261Y-26341D01*
X42300Y-26249D01*
X42300Y-26150D01*
X42300Y-25550D01*
X42261Y-25458D01*
X42191Y-25388D01*
X42100Y-25350D01*
X42100Y-22194D01*
X42544Y-21750D01*
X47000Y-21750D01*
X47133Y-21723D01*
X47133Y-21723D01*
X47247Y-21647D01*
X47697Y-21197D01*
X47756Y-21109D01*
X47845Y-21049D01*
X47967Y-20868D01*
X47970Y-20850D01*
X48403Y-20850D01*
X48429Y-21380D01*
X48605Y-21806D01*
X48972Y-21782D01*
X49755Y-21000D01*
X49441Y-20685D01*
X49474Y-20604D01*
X49475Y-20396D01*
X49429Y-20284D01*
X49950Y-20805D01*
X50732Y-20022D01*
X50756Y-19655D01*
X50180Y-19449D01*
X49569Y-19479D01*
X49143Y-19655D01*
X49167Y-20021D01*
X49054Y-19975D01*
X48846Y-19974D01*
X48653Y-20054D01*
X48557Y-20150D01*
X47970Y-20150D01*
X47967Y-20131D01*
X47845Y-19950D01*
X47664Y-19828D01*
X47450Y-19786D01*
X47235Y-19828D01*
X47054Y-19950D01*
X46949Y-20105D01*
X46845Y-19950D01*
X46664Y-19828D01*
X46450Y-19786D01*
X46235Y-19828D01*
X46054Y-19950D01*
X45949Y-20105D01*
X45845Y-19950D01*
X45664Y-19828D01*
X45450Y-19786D01*
X45235Y-19828D01*
X45054Y-19950D01*
X44949Y-20105D01*
X44845Y-19950D01*
X44664Y-19828D01*
X44450Y-19786D01*
X44235Y-19828D01*
X44054Y-19950D01*
X43932Y-20131D01*
X43929Y-20150D01*
X43342Y-20150D01*
X43247Y-20055D01*
X43054Y-19975D01*
X42846Y-19974D01*
X42653Y-20054D01*
X42505Y-20202D01*
X42425Y-20395D01*
X42424Y-20603D01*
X42504Y-20797D01*
X42652Y-20944D01*
X42845Y-21024D01*
X43053Y-21025D01*
X43247Y-20945D01*
X43342Y-20850D01*
X43929Y-20850D01*
X43932Y-20868D01*
X44054Y-21049D01*
X44054Y-21050D01*
X42400Y-21050D01*
X42266Y-21076D01*
X42152Y-21152D01*
X41840Y-21464D01*
X41840Y-18533D01*
X41712Y-18224D01*
X41476Y-17987D01*
X41167Y-17859D01*
X40833Y-17859D01*
X40524Y-17987D01*
X40287Y-18223D01*
X40159Y-18532D01*
X40159Y-18866D01*
X40287Y-19175D01*
X40523Y-19412D01*
X40832Y-19540D01*
X41166Y-19540D01*
X41475Y-19412D01*
X41712Y-19176D01*
X41840Y-18867D01*
X41840Y-18533D01*
X41840Y-21464D01*
X41502Y-21802D01*
X41426Y-21916D01*
X41400Y-22050D01*
X41400Y-25350D01*
X41308Y-25388D01*
X41238Y-25458D01*
X41200Y-25550D01*
X41200Y-25572D01*
X41061Y-25434D01*
X40859Y-25350D01*
X40641Y-25349D01*
X40438Y-25433D01*
X40284Y-25588D01*
X40200Y-25790D01*
X40199Y-26008D01*
X40283Y-26211D01*
X40400Y-26327D01*
X40400Y-27487D01*
X40193Y-27487D01*
X40193Y-27552D01*
X40138Y-27608D01*
X40134Y-27617D01*
X39941Y-27697D01*
X39907Y-27726D01*
X39907Y-17523D01*
X55475Y-17523D01*
X55459Y-17539D01*
X55417Y-17567D01*
X54884Y-18100D01*
X54731Y-18099D01*
X54510Y-18191D01*
X54341Y-18359D01*
X54250Y-18580D01*
X54249Y-18818D01*
X54341Y-19039D01*
X54509Y-19208D01*
X54730Y-19299D01*
X54968Y-19300D01*
X55073Y-19256D01*
X55178Y-19510D01*
X55546Y-19491D01*
X56337Y-18700D01*
X56231Y-18593D01*
X56443Y-18381D01*
X56550Y-18487D01*
X56656Y-18381D01*
X56868Y-18593D01*
X56762Y-18700D01*
X56868Y-18806D01*
X56656Y-19018D01*
X56550Y-18912D01*
X55758Y-19703D01*
X55739Y-20071D01*
X56325Y-20277D01*
X56946Y-20243D01*
X57200Y-20138D01*
X57200Y-23900D01*
X57226Y-24033D01*
X57302Y-24147D01*
X59400Y-26244D01*
X59400Y-27750D01*
X59426Y-27883D01*
X59502Y-27997D01*
X59822Y-28317D01*
X59786Y-28500D01*
X59828Y-28714D01*
X59950Y-28895D01*
X60105Y-29000D01*
X59950Y-29104D01*
X59828Y-29285D01*
X59786Y-29500D01*
X59828Y-29714D01*
X59950Y-29895D01*
X60105Y-30000D01*
X59950Y-30104D01*
X59828Y-30285D01*
X59786Y-30500D01*
X59828Y-30714D01*
X59950Y-30895D01*
X60105Y-31000D01*
X59950Y-31104D01*
X59828Y-31285D01*
X59786Y-31500D01*
X59828Y-31714D01*
X59950Y-31895D01*
X60105Y-31999D01*
X60105Y-31999D01*
G37*
G54D33*
X60105Y-31999D02*
X59950Y-32104D01*
X59828Y-32285D01*
X59786Y-32500D01*
X59828Y-32714D01*
X59950Y-32895D01*
X59997Y-32927D01*
X59943Y-32927D01*
X59943Y-33003D01*
X59469Y-33208D01*
X59042Y-33647D01*
X58909Y-33943D01*
X58787Y-33943D01*
X58787Y-34472D01*
X58600Y-34279D01*
X58600Y-31800D01*
X58573Y-31666D01*
X58573Y-31666D01*
X58497Y-31552D01*
X58197Y-31252D01*
X58109Y-31193D01*
X58049Y-31104D01*
X57894Y-31000D01*
X58049Y-30895D01*
X58171Y-30714D01*
X58213Y-30500D01*
X58171Y-30285D01*
X58049Y-30104D01*
X57894Y-30000D01*
X58049Y-29895D01*
X58171Y-29714D01*
X58213Y-29500D01*
X58171Y-29285D01*
X58049Y-29104D01*
X57983Y-29060D01*
X57999Y-29060D01*
X58091Y-29021D01*
X58161Y-28951D01*
X58200Y-28859D01*
X58200Y-28850D01*
X58455Y-28850D01*
X58800Y-29194D01*
X58800Y-29648D01*
X58739Y-29708D01*
X58675Y-29865D01*
X58674Y-30034D01*
X58739Y-30190D01*
X58858Y-30310D01*
X59015Y-30374D01*
X59184Y-30375D01*
X59340Y-30310D01*
X59460Y-30191D01*
X59524Y-30034D01*
X59525Y-29865D01*
X59500Y-29805D01*
X59500Y-29050D01*
X59473Y-28916D01*
X59397Y-28802D01*
X58847Y-28252D01*
X58733Y-28176D01*
X58600Y-28150D01*
X58200Y-28150D01*
X58200Y-28140D01*
X58161Y-28048D01*
X58091Y-27978D01*
X57999Y-27940D01*
X57900Y-27940D01*
X57850Y-27940D01*
X57850Y-27092D01*
X57944Y-26997D01*
X58024Y-26804D01*
X58025Y-26596D01*
X57945Y-26403D01*
X57797Y-26255D01*
X57604Y-26175D01*
X57523Y-26175D01*
X57520Y-26119D01*
X57344Y-25693D01*
X56977Y-25717D01*
X56806Y-25887D01*
X56806Y-25155D01*
X56472Y-25035D01*
X56472Y-23125D01*
X56439Y-22506D01*
X56266Y-22089D01*
X55898Y-22110D01*
X55710Y-22298D01*
X55710Y-21533D01*
X55213Y-21358D01*
X55362Y-21209D01*
X55445Y-21008D01*
X55445Y-20791D01*
X55362Y-20591D01*
X55209Y-20437D01*
X55008Y-20354D01*
X54791Y-20354D01*
X54591Y-20437D01*
X54437Y-20590D01*
X54354Y-20791D01*
X54354Y-21008D01*
X54437Y-21208D01*
X54585Y-21356D01*
X54506Y-21360D01*
X54089Y-21533D01*
X54110Y-21901D01*
X54900Y-22691D01*
X55689Y-21901D01*
X55710Y-21533D01*
X55710Y-22298D01*
X55108Y-22900D01*
X55898Y-23689D01*
X56266Y-23710D01*
X56472Y-23125D01*
X56472Y-25035D01*
X56230Y-24949D01*
X55710Y-24974D01*
X55710Y-24266D01*
X55689Y-23898D01*
X54900Y-23108D01*
X54691Y-23317D01*
X54691Y-22900D01*
X53901Y-22110D01*
X53533Y-22089D01*
X53327Y-22674D01*
X53360Y-23293D01*
X53533Y-23710D01*
X53901Y-23689D01*
X54691Y-22900D01*
X54691Y-23317D01*
X54110Y-23898D01*
X54089Y-24266D01*
X54674Y-24472D01*
X55293Y-24439D01*
X55710Y-24266D01*
X55710Y-24974D01*
X55619Y-24979D01*
X55193Y-25155D01*
X55217Y-25522D01*
X56000Y-26305D01*
X56782Y-25522D01*
X56806Y-25155D01*
X56806Y-25887D01*
X56194Y-26500D01*
X56977Y-27282D01*
X57150Y-27294D01*
X57150Y-27940D01*
X57000Y-27940D01*
X56908Y-27978D01*
X56838Y-28048D01*
X56800Y-28140D01*
X56800Y-28239D01*
X56800Y-28859D01*
X56838Y-28951D01*
X56908Y-29021D01*
X57000Y-29060D01*
X57016Y-29060D01*
X56950Y-29104D01*
X56890Y-29193D01*
X56802Y-29252D01*
X56524Y-29530D01*
X56525Y-29396D01*
X56445Y-29203D01*
X56350Y-29107D01*
X56350Y-28892D01*
X56444Y-28797D01*
X56524Y-28604D01*
X56525Y-28396D01*
X56445Y-28203D01*
X56297Y-28055D01*
X56232Y-28028D01*
X56380Y-28020D01*
X56806Y-27844D01*
X56782Y-27477D01*
X56000Y-26694D01*
X55902Y-26791D01*
X55708Y-26597D01*
X55805Y-26500D01*
X55022Y-25717D01*
X54655Y-25693D01*
X54449Y-26269D01*
X54458Y-26463D01*
X53250Y-25255D01*
X53250Y-22950D01*
X53223Y-22816D01*
X53223Y-22816D01*
X53147Y-22702D01*
X51491Y-21046D01*
X51470Y-20619D01*
X51450Y-20569D01*
X51450Y-18581D01*
X51358Y-18360D01*
X51190Y-18191D01*
X50969Y-18100D01*
X50731Y-18099D01*
X50510Y-18191D01*
X50341Y-18359D01*
X50250Y-18580D01*
X50249Y-18818D01*
X50341Y-19039D01*
X50509Y-19208D01*
X50730Y-19299D01*
X50968Y-19300D01*
X51189Y-19208D01*
X51358Y-19040D01*
X51449Y-18819D01*
X51450Y-18581D01*
X51450Y-20569D01*
X51294Y-20193D01*
X50927Y-20217D01*
X50144Y-21000D01*
X50927Y-21782D01*
X51259Y-21804D01*
X52550Y-23094D01*
X52550Y-25400D01*
X52576Y-25533D01*
X52652Y-25647D01*
X53858Y-26853D01*
X52833Y-26168D01*
X51350Y-25873D01*
X49866Y-26168D01*
X49440Y-26453D01*
X49409Y-26423D01*
X49543Y-26051D01*
X51197Y-24397D01*
X51273Y-24283D01*
X51273Y-24283D01*
X51300Y-24150D01*
X51300Y-23392D01*
X51394Y-23297D01*
X51474Y-23104D01*
X51475Y-22896D01*
X51395Y-22703D01*
X51247Y-22555D01*
X51054Y-22475D01*
X50846Y-22474D01*
X50653Y-22554D01*
X50505Y-22702D01*
X50449Y-22835D01*
X50395Y-22703D01*
X50247Y-22555D01*
X50182Y-22528D01*
X50330Y-22520D01*
X50756Y-22344D01*
X50732Y-21977D01*
X49950Y-21194D01*
X49167Y-21977D01*
X49143Y-22344D01*
X49688Y-22539D01*
X49653Y-22554D01*
X49505Y-22702D01*
X49425Y-22895D01*
X49424Y-23030D01*
X49323Y-23131D01*
X49247Y-23055D01*
X49054Y-22975D01*
X49022Y-22975D01*
X49022Y-22943D01*
X48946Y-22943D01*
X48741Y-22469D01*
X48302Y-22042D01*
X47847Y-21838D01*
X47605Y-22112D01*
X47605Y-23275D01*
X47760Y-23275D01*
X47760Y-23428D01*
X47693Y-23455D01*
X47710Y-23725D01*
X47605Y-23725D01*
X47605Y-23950D01*
X47295Y-23950D01*
X47295Y-23725D01*
X46995Y-23725D01*
X47010Y-23653D01*
X47010Y-23346D01*
X46995Y-23275D01*
X47295Y-23275D01*
X47295Y-22112D01*
X47052Y-21838D01*
X46597Y-22042D01*
X46449Y-22186D01*
X46302Y-22042D01*
X45847Y-21838D01*
X45605Y-22112D01*
X45605Y-23275D01*
X45904Y-23275D01*
X45890Y-23346D01*
X45890Y-23653D01*
X45904Y-23725D01*
X45605Y-23725D01*
X45605Y-23950D01*
X45295Y-23950D01*
X45295Y-23725D01*
X45010Y-23725D01*
X45010Y-23275D01*
X45295Y-23275D01*
X45295Y-22112D01*
X45052Y-21838D01*
X44597Y-22042D01*
X44158Y-22469D01*
X43999Y-22837D01*
X43998Y-22838D01*
X43928Y-22908D01*
X43890Y-23000D01*
X43890Y-23099D01*
X43890Y-23999D01*
X43928Y-24091D01*
X43998Y-24161D01*
X43999Y-24162D01*
X44100Y-24394D01*
X44100Y-25300D01*
X44008Y-25338D01*
X43938Y-25408D01*
X43900Y-25500D01*
X43900Y-25522D01*
X43761Y-25384D01*
X43559Y-25300D01*
X43394Y-25299D01*
X43300Y-25205D01*
X43300Y-23892D01*
X43394Y-23797D01*
X43474Y-23604D01*
X43475Y-23396D01*
X43395Y-23203D01*
X43247Y-23055D01*
X43054Y-22975D01*
X42846Y-22974D01*
X42653Y-23054D01*
X42505Y-23202D01*
X42425Y-23395D01*
X42424Y-23603D01*
X42504Y-23797D01*
X42600Y-23892D01*
X42600Y-25350D01*
X42626Y-25483D01*
X42702Y-25597D01*
X42900Y-25795D01*
X42899Y-25958D01*
X42983Y-26161D01*
X43138Y-26315D01*
X43340Y-26399D01*
X43558Y-26400D01*
X43761Y-26316D01*
X43900Y-26177D01*
X43900Y-26199D01*
X43938Y-26291D01*
X44008Y-26361D01*
X44100Y-26400D01*
X44199Y-26400D01*
X44799Y-26400D01*
X44891Y-26361D01*
X44961Y-26291D01*
X45000Y-26199D01*
X45000Y-26100D01*
X45000Y-25500D01*
X44961Y-25408D01*
X44891Y-25338D01*
X44800Y-25300D01*
X44800Y-25048D01*
X44893Y-25090D01*
X44893Y-25212D01*
X45150Y-25212D01*
X45150Y-25300D01*
X45176Y-25433D01*
X45252Y-25547D01*
X45475Y-25770D01*
X45474Y-25903D01*
X45554Y-26097D01*
X45650Y-26192D01*
X45650Y-26500D01*
X45676Y-26633D01*
X45752Y-26747D01*
X46152Y-27147D01*
X46266Y-27223D01*
X46266Y-27223D01*
X46400Y-27250D01*
X47234Y-27250D01*
X47285Y-27301D01*
X47336Y-27250D01*
X47488Y-27250D01*
X47769Y-27350D01*
X48380Y-27320D01*
X48407Y-27309D01*
X47768Y-28266D01*
X47473Y-29750D01*
X47768Y-31233D01*
X48608Y-32491D01*
X49866Y-33331D01*
X51350Y-33626D01*
X52833Y-33331D01*
X54091Y-32491D01*
X54931Y-31233D01*
X55226Y-29750D01*
X54931Y-28266D01*
X54246Y-27241D01*
X55475Y-28470D01*
X55474Y-28603D01*
X55554Y-28797D01*
X55650Y-28892D01*
X55650Y-29107D01*
X55555Y-29202D01*
X55475Y-29395D01*
X55474Y-29603D01*
X55554Y-29797D01*
X55702Y-29944D01*
X55895Y-30024D01*
X56029Y-30025D01*
X55902Y-30152D01*
X55826Y-30266D01*
X55800Y-30400D01*
X55800Y-30955D01*
X53305Y-33450D01*
X52700Y-33450D01*
X52566Y-33476D01*
X52452Y-33552D01*
X50855Y-35150D01*
X48852Y-35150D01*
X48852Y-34943D01*
X48728Y-34943D01*
X48519Y-34522D01*
X48049Y-34110D01*
X47667Y-33952D01*
X47420Y-34224D01*
X47420Y-35224D01*
X47420Y-35330D01*
X47420Y-35670D01*
X47420Y-36224D01*
X47420Y-36330D01*
X47420Y-36670D01*
X47420Y-36775D01*
X47420Y-37330D01*
X47420Y-37670D01*
X47420Y-37775D01*
X47420Y-38775D01*
X47667Y-39047D01*
X48049Y-38889D01*
X48519Y-38477D01*
X48728Y-38056D01*
X48852Y-38056D01*
X48852Y-37850D01*
X50350Y-37850D01*
X50483Y-37823D01*
X50483Y-37823D01*
X50597Y-37747D01*
X51047Y-37297D01*
X51123Y-37183D01*
X51123Y-37183D01*
X51123Y-37181D01*
X51305Y-37000D01*
X51208Y-36902D01*
X51402Y-36708D01*
X51500Y-36805D01*
X52282Y-36022D01*
X52306Y-35655D01*
X52183Y-35611D01*
X52976Y-34818D01*
X52979Y-34880D01*
X53155Y-35306D01*
X53522Y-35282D01*
X54305Y-34500D01*
X54208Y-34402D01*
X54402Y-34208D01*
X54500Y-34305D01*
X54597Y-34208D01*
X54791Y-34402D01*
X54694Y-34500D01*
X55477Y-35282D01*
X55844Y-35306D01*
X55898Y-35155D01*
X56112Y-35345D01*
X57275Y-35345D01*
X57275Y-35190D01*
X57725Y-35190D01*
X57725Y-35345D01*
X57900Y-35345D01*
X57900Y-35655D01*
X57725Y-35655D01*
X57725Y-35810D01*
X57275Y-35810D01*
X57275Y-35655D01*
X56112Y-35655D01*
X55838Y-35897D01*
X55951Y-36150D01*
X55306Y-36150D01*
X55306Y-35844D01*
X55282Y-35477D01*
X54500Y-34694D01*
X53717Y-35477D01*
X53693Y-35844D01*
X54269Y-36050D01*
X54880Y-36020D01*
X55306Y-35844D01*
X55306Y-36150D01*
X54961Y-36150D01*
X54827Y-36176D01*
X54713Y-36252D01*
X54472Y-36493D01*
X54391Y-36493D01*
X54191Y-36576D01*
X54117Y-36650D01*
X53022Y-36650D01*
X53020Y-36619D01*
X52844Y-36193D01*
X52477Y-36217D01*
X51694Y-37000D01*
X52477Y-37782D01*
X52844Y-37806D01*
X53007Y-37350D01*
X54039Y-37350D01*
X54190Y-37501D01*
X54391Y-37584D01*
X54608Y-37584D01*
X54808Y-37501D01*
X54962Y-37348D01*
X55045Y-37147D01*
X55045Y-36930D01*
X55039Y-36916D01*
X55105Y-36850D01*
X56605Y-36850D01*
X56943Y-36996D01*
X56943Y-37072D01*
X56997Y-37072D01*
X56950Y-37104D01*
X56919Y-37150D01*
X55961Y-37150D01*
X55827Y-37176D01*
X55713Y-37252D01*
X54550Y-38415D01*
X54391Y-38415D01*
X54191Y-38498D01*
X54039Y-38650D01*
X53022Y-38650D01*
X53020Y-38619D01*
X52844Y-38193D01*
X52477Y-38217D01*
X52306Y-38387D01*
X52306Y-38344D01*
X52284Y-38000D01*
X52306Y-37655D01*
X51768Y-37462D01*
X51500Y-37194D01*
X51220Y-37474D01*
X51119Y-37479D01*
X50693Y-37655D01*
X50715Y-38000D01*
X50693Y-38344D01*
X51231Y-38537D01*
X51500Y-38805D01*
X51779Y-38525D01*
X51880Y-38520D01*
X52306Y-38344D01*
X52306Y-38387D01*
X51694Y-39000D01*
X52477Y-39782D01*
X52844Y-39806D01*
X53007Y-39350D01*
X54117Y-39350D01*
X54190Y-39423D01*
X54391Y-39506D01*
X54608Y-39506D01*
X54808Y-39423D01*
X54962Y-39270D01*
X55045Y-39069D01*
X55045Y-38910D01*
X56105Y-37850D01*
X56919Y-37850D01*
X56950Y-37895D01*
X57105Y-37999D01*
X56950Y-38104D01*
X56919Y-38150D01*
X56750Y-38150D01*
X56616Y-38176D01*
X56502Y-38252D01*
X53855Y-40900D01*
X52751Y-40900D01*
X52741Y-40889D01*
X52584Y-40825D01*
X52415Y-40824D01*
X52306Y-40870D01*
X52306Y-40344D01*
X52282Y-39977D01*
X51500Y-39194D01*
X51305Y-39388D01*
X51305Y-39000D01*
X50522Y-38217D01*
X50155Y-38193D01*
X49949Y-38769D01*
X49979Y-39380D01*
X50155Y-39806D01*
X50522Y-39782D01*
X51305Y-39000D01*
X51305Y-39388D01*
X50717Y-39977D01*
X50693Y-40344D01*
X51269Y-40550D01*
X51880Y-40520D01*
X52306Y-40344D01*
X52306Y-40870D01*
X52259Y-40889D01*
X52139Y-41008D01*
X52075Y-41165D01*
X52074Y-41334D01*
X52139Y-41490D01*
X52258Y-41610D01*
X52263Y-41611D01*
X51724Y-41422D01*
X51103Y-41456D01*
X50689Y-41628D01*
X50708Y-41996D01*
X51500Y-42787D01*
X52291Y-41996D01*
X52310Y-41631D01*
X52415Y-41674D01*
X52584Y-41675D01*
X52740Y-41610D01*
X52750Y-41600D01*
X54000Y-41600D01*
X54133Y-41573D01*
X54133Y-41573D01*
X54150Y-41562D01*
X54150Y-48355D01*
X53900Y-48604D01*
X53900Y-46891D01*
X53816Y-46688D01*
X53661Y-46534D01*
X53580Y-46500D01*
X53661Y-46466D01*
X53815Y-46311D01*
X53899Y-46109D01*
X53900Y-45891D01*
X53816Y-45688D01*
X53661Y-45534D01*
X53580Y-45500D01*
X53661Y-45466D01*
X53815Y-45311D01*
X53899Y-45109D01*
X53900Y-44891D01*
X53816Y-44688D01*
X53661Y-44534D01*
X53459Y-44450D01*
X53241Y-44449D01*
X53038Y-44533D01*
X52922Y-44650D01*
X51927Y-44650D01*
X51824Y-44547D01*
X51896Y-44543D01*
X52150Y-44437D01*
X52232Y-44519D01*
X52401Y-44350D01*
X52598Y-44350D01*
X52608Y-44360D01*
X52765Y-44424D01*
X52934Y-44425D01*
X53090Y-44360D01*
X53210Y-44241D01*
X53274Y-44084D01*
X53275Y-43915D01*
X53210Y-43759D01*
X53091Y-43639D01*
X52951Y-43582D01*
X53077Y-43224D01*
X53043Y-42603D01*
X52871Y-42189D01*
X52503Y-42208D01*
X51712Y-43000D01*
X51818Y-43106D01*
X51606Y-43318D01*
X51500Y-43212D01*
X51287Y-43424D01*
X51287Y-43000D01*
X50496Y-42208D01*
X50128Y-42189D01*
X49922Y-42775D01*
X49956Y-43396D01*
X50128Y-43810D01*
X50496Y-43791D01*
X51287Y-43000D01*
X51287Y-43424D01*
X50708Y-44003D01*
X50689Y-44371D01*
X51178Y-44543D01*
X51034Y-44688D01*
X50950Y-44890D01*
X50949Y-45108D01*
X51033Y-45311D01*
X51188Y-45465D01*
X51269Y-45499D01*
X51188Y-45533D01*
X51034Y-45688D01*
X51008Y-45748D01*
X50730Y-45649D01*
X50119Y-45679D01*
X49693Y-45855D01*
X49717Y-46222D01*
X50500Y-47005D01*
X50597Y-46908D01*
X50791Y-47102D01*
X50694Y-47200D01*
X50791Y-47297D01*
X50597Y-47491D01*
X50500Y-47394D01*
X50305Y-47588D01*
X50305Y-47200D01*
X49522Y-46417D01*
X49155Y-46393D01*
X48949Y-46969D01*
X48979Y-47580D01*
X49155Y-48006D01*
X49522Y-47982D01*
X50305Y-47200D01*
X50305Y-47588D01*
X49717Y-48177D01*
X49693Y-48544D01*
X50238Y-48739D01*
X50203Y-48754D01*
X50055Y-48902D01*
X49975Y-49095D01*
X49974Y-49303D01*
X50054Y-49497D01*
X50202Y-49644D01*
X50395Y-49724D01*
X50603Y-49725D01*
X50797Y-49645D01*
X50944Y-49497D01*
X51024Y-49304D01*
X51024Y-49290D01*
X51033Y-49311D01*
X51188Y-49465D01*
X51390Y-49549D01*
X51608Y-49550D01*
X51811Y-49466D01*
X51965Y-49311D01*
X52049Y-49109D01*
X52050Y-48891D01*
X51966Y-48688D01*
X51811Y-48534D01*
X51730Y-48500D01*
X51811Y-48466D01*
X51927Y-48350D01*
X52698Y-48350D01*
X52708Y-48360D01*
X52865Y-48424D01*
X53034Y-48425D01*
X53190Y-48360D01*
X53310Y-48241D01*
X53374Y-48084D01*
X53375Y-47915D01*
X53310Y-47759D01*
X53191Y-47639D01*
X53034Y-47575D01*
X52865Y-47574D01*
X52709Y-47639D01*
X52699Y-47650D01*
X51972Y-47650D01*
X52050Y-47430D01*
X52046Y-47350D01*
X52922Y-47350D01*
X53038Y-47465D01*
X53240Y-47549D01*
X53458Y-47550D01*
X53661Y-47466D01*
X53815Y-47311D01*
X53899Y-47109D01*
X53900Y-46891D01*
X53900Y-48604D01*
X53855Y-48650D01*
X53000Y-48650D01*
X52866Y-48676D01*
X52752Y-48752D01*
X51752Y-49752D01*
X51676Y-49866D01*
X51650Y-50000D01*
X51650Y-50107D01*
X51555Y-50202D01*
X51475Y-50395D01*
X51474Y-50603D01*
X51554Y-50797D01*
X51650Y-50892D01*
X51650Y-51105D01*
X51025Y-51729D01*
X51025Y-50896D01*
X50945Y-50703D01*
X50797Y-50555D01*
X50604Y-50475D01*
X50396Y-50474D01*
X50203Y-50554D01*
X50055Y-50702D01*
X49975Y-50895D01*
X49974Y-51103D01*
X50054Y-51297D01*
X50202Y-51444D01*
X50395Y-51524D01*
X50603Y-51525D01*
X50797Y-51445D01*
X50944Y-51297D01*
X51024Y-51104D01*
X51025Y-50896D01*
X51025Y-51729D01*
X50702Y-52052D01*
X50095Y-52660D01*
X49723Y-52660D01*
X49497Y-52704D01*
X49306Y-52832D01*
X49178Y-53024D01*
X49133Y-53250D01*
X49178Y-53475D01*
X49306Y-53667D01*
X49369Y-53709D01*
X49125Y-53806D01*
X48880Y-53709D01*
X48943Y-53667D01*
X49071Y-53475D01*
X49116Y-53250D01*
X49071Y-53024D01*
X48943Y-52832D01*
X48752Y-52704D01*
X48526Y-52660D01*
X47973Y-52660D01*
X47747Y-52704D01*
X47556Y-52832D01*
X47511Y-52900D01*
X43988Y-52900D01*
X43943Y-52832D01*
X43752Y-52704D01*
X43600Y-52674D01*
X43600Y-52644D01*
X45220Y-51024D01*
X45353Y-51025D01*
X45547Y-50945D01*
X45694Y-50797D01*
X45725Y-50725D01*
X45725Y-50824D01*
X45763Y-50916D01*
X45833Y-50986D01*
X45925Y-51025D01*
X46024Y-51025D01*
X46574Y-51025D01*
X46666Y-50986D01*
X46736Y-50916D01*
X46764Y-50850D01*
X46855Y-50850D01*
X46975Y-50970D01*
X46974Y-51103D01*
X47054Y-51297D01*
X47202Y-51444D01*
X47395Y-51524D01*
X47603Y-51525D01*
X47797Y-51445D01*
X47944Y-51297D01*
X48024Y-51104D01*
X48025Y-50896D01*
X47945Y-50703D01*
X47797Y-50555D01*
X47604Y-50475D01*
X47469Y-50474D01*
X47247Y-50252D01*
X47133Y-50176D01*
X47000Y-50150D01*
X46764Y-50150D01*
X46736Y-50083D01*
X46666Y-50013D01*
X46574Y-49975D01*
X46475Y-49975D01*
X45925Y-49975D01*
X45833Y-50013D01*
X45763Y-50083D01*
X45725Y-50175D01*
X45725Y-50274D01*
X45725Y-50274D01*
X45695Y-50203D01*
X45600Y-50107D01*
X45600Y-46144D01*
X50069Y-41675D01*
X50084Y-41675D01*
X50240Y-41610D01*
X50360Y-41491D01*
X50424Y-41334D01*
X50425Y-41165D01*
X50360Y-41009D01*
X50241Y-40889D01*
X50084Y-40825D01*
X49915Y-40824D01*
X49759Y-40889D01*
X49639Y-41008D01*
X49575Y-41165D01*
X49575Y-41179D01*
X47080Y-43675D01*
X47080Y-38775D01*
X47080Y-37775D01*
X47080Y-37670D01*
X47080Y-37330D01*
X47080Y-36775D01*
X47080Y-36670D01*
X47080Y-36330D01*
X47080Y-36224D01*
X47080Y-35670D01*
X47080Y-35330D01*
X47080Y-35224D01*
X47080Y-34224D01*
X46832Y-33952D01*
X46450Y-34110D01*
X45980Y-34522D01*
X45702Y-35082D01*
X45972Y-35330D01*
X46200Y-35330D01*
X45980Y-35522D01*
X45852Y-35779D01*
X45702Y-35917D01*
X45743Y-36000D01*
X45702Y-36082D01*
X45852Y-36220D01*
X45980Y-36477D01*
X46005Y-36500D01*
X45980Y-36522D01*
X45852Y-36779D01*
X45702Y-36917D01*
X45743Y-37000D01*
X45702Y-37082D01*
X45852Y-37220D01*
X45980Y-37477D01*
X46200Y-37670D01*
X45972Y-37670D01*
X45702Y-37917D01*
X45980Y-38477D01*
X46450Y-38889D01*
X46832Y-39047D01*
X47080Y-38775D01*
X47080Y-43675D01*
X45002Y-45752D01*
X44926Y-45866D01*
X44900Y-46000D01*
X44900Y-50107D01*
X44805Y-50202D01*
X44725Y-50395D01*
X44724Y-50530D01*
X43002Y-52252D01*
X42926Y-52366D01*
X42900Y-52500D01*
X42900Y-52674D01*
X42747Y-52704D01*
X42556Y-52832D01*
X42428Y-53024D01*
X42383Y-53250D01*
X42428Y-53475D01*
X42556Y-53667D01*
X42619Y-53709D01*
X42120Y-53907D01*
X41672Y-54342D01*
X41595Y-54506D01*
X41576Y-54487D01*
X41267Y-54359D01*
X40933Y-54359D01*
X40624Y-54487D01*
X40387Y-54723D01*
X40259Y-55032D01*
X40259Y-55366D01*
X40387Y-55675D01*
X40623Y-55912D01*
X40932Y-56040D01*
X41266Y-56040D01*
X41560Y-55918D01*
X41672Y-56157D01*
X41875Y-56353D01*
X39907Y-56353D01*
X39907Y-30573D01*
X39941Y-30602D01*
X40193Y-30707D01*
X40193Y-30812D01*
X40222Y-30812D01*
X40222Y-31772D01*
X47477Y-31772D01*
X47477Y-30209D01*
X42021Y-30209D01*
X42052Y-30182D01*
X42348Y-29605D01*
X42084Y-29350D01*
X40950Y-29350D01*
X40950Y-29550D01*
X40550Y-29550D01*
X40550Y-29350D01*
X40350Y-29350D01*
X40350Y-28950D01*
X40550Y-28950D01*
X40550Y-28800D01*
X40950Y-28800D01*
X40950Y-28950D01*
X42084Y-28950D01*
X42348Y-28694D01*
X42052Y-28117D01*
X41558Y-27697D01*
X41365Y-27617D01*
X41361Y-27608D01*
X41306Y-27552D01*
X41306Y-27487D01*
X41100Y-27487D01*
X41100Y-26327D01*
X41200Y-26227D01*
X41200Y-26249D01*
X41238Y-26341D01*
X41308Y-26411D01*
X41400Y-26450D01*
X41499Y-26450D01*
X42099Y-26450D01*
X42191Y-26411D01*
X42261Y-26341D01*
X42300Y-26249D01*
X42300Y-26150D01*
X42300Y-25550D01*
X42261Y-25458D01*
X42191Y-25388D01*
X42100Y-25350D01*
X42100Y-22194D01*
X42544Y-21750D01*
X47000Y-21750D01*
X47133Y-21723D01*
X47133Y-21723D01*
X47247Y-21647D01*
X47697Y-21197D01*
X47756Y-21109D01*
X47845Y-21049D01*
X47967Y-20868D01*
X47970Y-20850D01*
X48403Y-20850D01*
X48429Y-21380D01*
X48605Y-21806D01*
X48972Y-21782D01*
X49755Y-21000D01*
X49441Y-20685D01*
X49474Y-20604D01*
X49475Y-20396D01*
X49429Y-20284D01*
X49950Y-20805D01*
X50732Y-20022D01*
X50756Y-19655D01*
X50180Y-19449D01*
X49569Y-19479D01*
X49143Y-19655D01*
X49167Y-20021D01*
X49054Y-19975D01*
X48846Y-19974D01*
X48653Y-20054D01*
X48557Y-20150D01*
X47970Y-20150D01*
X47967Y-20131D01*
X47845Y-19950D01*
X47664Y-19828D01*
X47450Y-19786D01*
X47235Y-19828D01*
X47054Y-19950D01*
X46949Y-20105D01*
X46845Y-19950D01*
X46664Y-19828D01*
X46450Y-19786D01*
X46235Y-19828D01*
X46054Y-19950D01*
X45949Y-20105D01*
X45845Y-19950D01*
X45664Y-19828D01*
X45450Y-19786D01*
X45235Y-19828D01*
X45054Y-19950D01*
X44949Y-20105D01*
X44845Y-19950D01*
X44664Y-19828D01*
X44450Y-19786D01*
X44235Y-19828D01*
X44054Y-19950D01*
X43932Y-20131D01*
X43929Y-20150D01*
X43342Y-20150D01*
X43247Y-20055D01*
X43054Y-19975D01*
X42846Y-19974D01*
X42653Y-20054D01*
X42505Y-20202D01*
X42425Y-20395D01*
X42424Y-20603D01*
X42504Y-20797D01*
X42652Y-20944D01*
X42845Y-21024D01*
X43053Y-21025D01*
X43247Y-20945D01*
X43342Y-20850D01*
X43929Y-20850D01*
X43932Y-20868D01*
X44054Y-21049D01*
X44054Y-21050D01*
X42400Y-21050D01*
X42266Y-21076D01*
X42152Y-21152D01*
X41840Y-21464D01*
X41840Y-18533D01*
X41712Y-18224D01*
X41476Y-17987D01*
X41167Y-17859D01*
X40833Y-17859D01*
X40524Y-17987D01*
X40287Y-18223D01*
X40159Y-18532D01*
X40159Y-18866D01*
X40287Y-19175D01*
X40523Y-19412D01*
X40832Y-19540D01*
X41166Y-19540D01*
X41475Y-19412D01*
X41712Y-19176D01*
X41840Y-18867D01*
X41840Y-18533D01*
X41840Y-21464D01*
X41502Y-21802D01*
X41426Y-21916D01*
X41400Y-22050D01*
X41400Y-25350D01*
X41308Y-25388D01*
X41238Y-25458D01*
X41200Y-25550D01*
X41200Y-25572D01*
X41061Y-25434D01*
X40859Y-25350D01*
X40641Y-25349D01*
X40438Y-25433D01*
X40284Y-25588D01*
X40200Y-25790D01*
X40199Y-26008D01*
X40283Y-26211D01*
X40400Y-26327D01*
X40400Y-27487D01*
X40193Y-27487D01*
X40193Y-27552D01*
X40138Y-27608D01*
X40134Y-27617D01*
X39941Y-27697D01*
X39907Y-27726D01*
X39907Y-17523D01*
X55475Y-17523D01*
X55459Y-17539D01*
X55417Y-17567D01*
X54884Y-18100D01*
X54731Y-18099D01*
X54510Y-18191D01*
X54341Y-18359D01*
X54250Y-18580D01*
X54249Y-18818D01*
X54341Y-19039D01*
X54509Y-19208D01*
X54730Y-19299D01*
X54968Y-19300D01*
X55073Y-19256D01*
X55178Y-19510D01*
X55546Y-19491D01*
X56337Y-18700D01*
X56231Y-18593D01*
X56443Y-18381D01*
X56550Y-18487D01*
X56656Y-18381D01*
X56868Y-18593D01*
X56762Y-18700D01*
X56868Y-18806D01*
X56656Y-19018D01*
X56550Y-18912D01*
X55758Y-19703D01*
X55739Y-20071D01*
X56325Y-20277D01*
X56946Y-20243D01*
X57200Y-20138D01*
X57200Y-23900D01*
X57226Y-24033D01*
X57302Y-24147D01*
X59400Y-26244D01*
X59400Y-27750D01*
X59426Y-27883D01*
X59502Y-27997D01*
X59822Y-28317D01*
X59786Y-28500D01*
X59828Y-28714D01*
X59950Y-28895D01*
X60105Y-29000D01*
X59950Y-29104D01*
X59828Y-29285D01*
X59786Y-29500D01*
X59828Y-29714D01*
X59950Y-29895D01*
X60105Y-30000D01*
X59950Y-30104D01*
X59828Y-30285D01*
X59786Y-30500D01*
X59828Y-30714D01*
X59950Y-30895D01*
X60105Y-31000D01*
X59950Y-31104D01*
X59828Y-31285D01*
X59786Y-31500D01*
X59828Y-31714D01*
X59950Y-31895D01*
X60105Y-31999D01*
G54D10*
G36*
X63190Y-25211D02*
X62905Y-25193D01*
X62896Y-25220D01*
X62680Y-25220D01*
X62510Y-25220D01*
X62510Y-24880D01*
X62680Y-24880D01*
X63020Y-24880D01*
X63125Y-24880D01*
X63190Y-24880D01*
X63190Y-25211D01*
X63190Y-25211D01*
G37*
G54D33*
X63190Y-25211D02*
X62905Y-25193D01*
X62896Y-25220D01*
X62680Y-25220D01*
X62510Y-25220D01*
X62510Y-24880D01*
X62680Y-24880D01*
X63020Y-24880D01*
X63125Y-24880D01*
X63190Y-24880D01*
X63190Y-25211D01*
G54D10*
G36*
X63399Y-27255D02*
X63205Y-27449D01*
X62950Y-27194D01*
X62852Y-27291D01*
X62658Y-27097D01*
X62755Y-27000D01*
X62658Y-26902D01*
X62852Y-26708D01*
X62873Y-26729D01*
X62905Y-26806D01*
X62948Y-26803D01*
X62950Y-26805D01*
X62951Y-26803D01*
X63130Y-26792D01*
X63241Y-26902D01*
X63144Y-27000D01*
X63399Y-27255D01*
X63399Y-27255D01*
G37*
G54D33*
X63399Y-27255D02*
X63205Y-27449D01*
X62950Y-27194D01*
X62852Y-27291D01*
X62658Y-27097D01*
X62755Y-27000D01*
X62658Y-26902D01*
X62852Y-26708D01*
X62873Y-26729D01*
X62905Y-26806D01*
X62948Y-26803D01*
X62950Y-26805D01*
X62951Y-26803D01*
X63130Y-26792D01*
X63241Y-26902D01*
X63144Y-27000D01*
X63399Y-27255D01*
G54D10*
G36*
X66250Y-46305D02*
X65905Y-46650D01*
X58777Y-46650D01*
X58661Y-46534D01*
X58580Y-46500D01*
X58661Y-46466D01*
X58777Y-46350D01*
X62300Y-46350D01*
X62433Y-46323D01*
X62433Y-46323D01*
X62547Y-46247D01*
X63047Y-45747D01*
X63123Y-45633D01*
X63123Y-45633D01*
X63150Y-45500D01*
X63150Y-41844D01*
X63200Y-41889D01*
X63582Y-42047D01*
X63830Y-41775D01*
X63830Y-40670D01*
X63660Y-40670D01*
X63660Y-40330D01*
X63830Y-40330D01*
X63830Y-40160D01*
X64170Y-40160D01*
X64170Y-40330D01*
X64441Y-40330D01*
X64410Y-40488D01*
X64410Y-40511D01*
X64441Y-40670D01*
X64170Y-40670D01*
X64170Y-41228D01*
X64139Y-41258D01*
X64075Y-41415D01*
X64074Y-41584D01*
X64139Y-41740D01*
X64170Y-41770D01*
X64170Y-41775D01*
X64417Y-42047D01*
X64799Y-41889D01*
X65269Y-41477D01*
X65547Y-40917D01*
X65471Y-40847D01*
X65545Y-40737D01*
X65590Y-40511D01*
X65590Y-40488D01*
X65545Y-40262D01*
X65471Y-40152D01*
X65547Y-40082D01*
X65448Y-39882D01*
X65469Y-39850D01*
X66250Y-39850D01*
X66250Y-46305D01*
X66250Y-46305D01*
G37*
G54D33*
X66250Y-46305D02*
X65905Y-46650D01*
X58777Y-46650D01*
X58661Y-46534D01*
X58580Y-46500D01*
X58661Y-46466D01*
X58777Y-46350D01*
X62300Y-46350D01*
X62433Y-46323D01*
X62433Y-46323D01*
X62547Y-46247D01*
X63047Y-45747D01*
X63123Y-45633D01*
X63123Y-45633D01*
X63150Y-45500D01*
X63150Y-41844D01*
X63200Y-41889D01*
X63582Y-42047D01*
X63830Y-41775D01*
X63830Y-40670D01*
X63660Y-40670D01*
X63660Y-40330D01*
X63830Y-40330D01*
X63830Y-40160D01*
X64170Y-40160D01*
X64170Y-40330D01*
X64441Y-40330D01*
X64410Y-40488D01*
X64410Y-40511D01*
X64441Y-40670D01*
X64170Y-40670D01*
X64170Y-41228D01*
X64139Y-41258D01*
X64075Y-41415D01*
X64074Y-41584D01*
X64139Y-41740D01*
X64170Y-41770D01*
X64170Y-41775D01*
X64417Y-42047D01*
X64799Y-41889D01*
X65269Y-41477D01*
X65547Y-40917D01*
X65471Y-40847D01*
X65545Y-40737D01*
X65590Y-40511D01*
X65590Y-40488D01*
X65545Y-40262D01*
X65471Y-40152D01*
X65547Y-40082D01*
X65448Y-39882D01*
X65469Y-39850D01*
X66250Y-39850D01*
X66250Y-46305D01*
G54D10*
G36*
X73041Y-31097D02*
X72847Y-31291D01*
X72750Y-31194D01*
X71967Y-31977D01*
X71943Y-32344D01*
X72488Y-32539D01*
X72453Y-32554D01*
X72305Y-32702D01*
X72225Y-32895D01*
X72224Y-33030D01*
X72123Y-33131D01*
X72047Y-33055D01*
X71854Y-32975D01*
X71646Y-32974D01*
X71453Y-33054D01*
X71305Y-33202D01*
X71249Y-33335D01*
X71195Y-33203D01*
X71047Y-33055D01*
X70854Y-32975D01*
X70646Y-32974D01*
X70453Y-33054D01*
X70357Y-33150D01*
X70142Y-33150D01*
X70047Y-33055D01*
X69854Y-32975D01*
X69706Y-32974D01*
X69633Y-32926D01*
X69500Y-32900D01*
X69275Y-32900D01*
X69275Y-32896D01*
X69195Y-32703D01*
X69047Y-32555D01*
X68854Y-32475D01*
X68646Y-32474D01*
X68453Y-32554D01*
X68357Y-32650D01*
X68144Y-32650D01*
X67922Y-32427D01*
X67950Y-32359D01*
X67950Y-32260D01*
X67950Y-31640D01*
X67911Y-31548D01*
X67841Y-31478D01*
X67749Y-31440D01*
X67733Y-31440D01*
X67799Y-31395D01*
X67830Y-31350D01*
X68357Y-31350D01*
X68452Y-31444D01*
X68645Y-31524D01*
X68853Y-31525D01*
X69047Y-31445D01*
X69123Y-31368D01*
X69502Y-31747D01*
X69616Y-31823D01*
X69750Y-31850D01*
X69883Y-31823D01*
X69997Y-31747D01*
X70073Y-31633D01*
X70100Y-31500D01*
X70073Y-31366D01*
X69997Y-31252D01*
X69769Y-31025D01*
X69780Y-31025D01*
X70352Y-31597D01*
X70466Y-31673D01*
X70466Y-31673D01*
X70600Y-31700D01*
X70900Y-31700D01*
X71033Y-31673D01*
X71033Y-31673D01*
X71147Y-31597D01*
X71268Y-31476D01*
X71405Y-31806D01*
X71772Y-31782D01*
X72555Y-31000D01*
X72458Y-30902D01*
X72652Y-30708D01*
X72750Y-30805D01*
X72847Y-30708D01*
X73041Y-30902D01*
X72944Y-31000D01*
X73041Y-31097D01*
X73041Y-31097D01*
G37*
G54D33*
X73041Y-31097D02*
X72847Y-31291D01*
X72750Y-31194D01*
X71967Y-31977D01*
X71943Y-32344D01*
X72488Y-32539D01*
X72453Y-32554D01*
X72305Y-32702D01*
X72225Y-32895D01*
X72224Y-33030D01*
X72123Y-33131D01*
X72047Y-33055D01*
X71854Y-32975D01*
X71646Y-32974D01*
X71453Y-33054D01*
X71305Y-33202D01*
X71249Y-33335D01*
X71195Y-33203D01*
X71047Y-33055D01*
X70854Y-32975D01*
X70646Y-32974D01*
X70453Y-33054D01*
X70357Y-33150D01*
X70142Y-33150D01*
X70047Y-33055D01*
X69854Y-32975D01*
X69706Y-32974D01*
X69633Y-32926D01*
X69500Y-32900D01*
X69275Y-32900D01*
X69275Y-32896D01*
X69195Y-32703D01*
X69047Y-32555D01*
X68854Y-32475D01*
X68646Y-32474D01*
X68453Y-32554D01*
X68357Y-32650D01*
X68144Y-32650D01*
X67922Y-32427D01*
X67950Y-32359D01*
X67950Y-32260D01*
X67950Y-31640D01*
X67911Y-31548D01*
X67841Y-31478D01*
X67749Y-31440D01*
X67733Y-31440D01*
X67799Y-31395D01*
X67830Y-31350D01*
X68357Y-31350D01*
X68452Y-31444D01*
X68645Y-31524D01*
X68853Y-31525D01*
X69047Y-31445D01*
X69123Y-31368D01*
X69502Y-31747D01*
X69616Y-31823D01*
X69750Y-31850D01*
X69883Y-31823D01*
X69997Y-31747D01*
X70073Y-31633D01*
X70100Y-31500D01*
X70073Y-31366D01*
X69997Y-31252D01*
X69769Y-31025D01*
X69780Y-31025D01*
X70352Y-31597D01*
X70466Y-31673D01*
X70466Y-31673D01*
X70600Y-31700D01*
X70900Y-31700D01*
X71033Y-31673D01*
X71033Y-31673D01*
X71147Y-31597D01*
X71268Y-31476D01*
X71405Y-31806D01*
X71772Y-31782D01*
X72555Y-31000D01*
X72458Y-30902D01*
X72652Y-30708D01*
X72750Y-30805D01*
X72847Y-30708D01*
X73041Y-30902D01*
X72944Y-31000D01*
X73041Y-31097D01*
G54D10*
G36*
X75593Y-24645D02*
X75447Y-24791D01*
X75350Y-24694D01*
X75252Y-24791D01*
X75058Y-24597D01*
X75155Y-24500D01*
X75058Y-24402D01*
X75252Y-24208D01*
X75350Y-24305D01*
X75447Y-24208D01*
X75576Y-24337D01*
X75582Y-24461D01*
X75544Y-24500D01*
X75587Y-24542D01*
X75593Y-24645D01*
X75593Y-24645D01*
G37*
G54D33*
X75593Y-24645D02*
X75447Y-24791D01*
X75350Y-24694D01*
X75252Y-24791D01*
X75058Y-24597D01*
X75155Y-24500D01*
X75058Y-24402D01*
X75252Y-24208D01*
X75350Y-24305D01*
X75447Y-24208D01*
X75576Y-24337D01*
X75582Y-24461D01*
X75544Y-24500D01*
X75587Y-24542D01*
X75593Y-24645D01*
G54D10*
G36*
X75814Y-55420D02*
X75550Y-55420D01*
X75550Y-55590D01*
X74950Y-55590D01*
X74950Y-55420D01*
X73714Y-55420D01*
X73442Y-55667D01*
X73672Y-56157D01*
X73875Y-56353D01*
X71624Y-56353D01*
X71827Y-56157D01*
X72057Y-55667D01*
X71785Y-55420D01*
X70550Y-55420D01*
X70550Y-55590D01*
X70222Y-55590D01*
X70035Y-55420D01*
X69950Y-55420D01*
X68800Y-55420D01*
X68714Y-55420D01*
X68527Y-55590D01*
X68200Y-55590D01*
X68200Y-55420D01*
X66964Y-55420D01*
X66692Y-55667D01*
X66922Y-56157D01*
X67125Y-56353D01*
X64874Y-56353D01*
X65077Y-56157D01*
X65307Y-55667D01*
X65035Y-55420D01*
X63800Y-55420D01*
X63800Y-55590D01*
X63472Y-55590D01*
X63285Y-55420D01*
X63200Y-55420D01*
X62050Y-55420D01*
X61964Y-55420D01*
X61777Y-55590D01*
X61450Y-55590D01*
X61450Y-55420D01*
X60214Y-55420D01*
X59942Y-55667D01*
X60172Y-56157D01*
X60375Y-56353D01*
X58124Y-56353D01*
X58327Y-56157D01*
X58557Y-55667D01*
X58285Y-55420D01*
X57050Y-55420D01*
X57050Y-55590D01*
X56722Y-55590D01*
X56535Y-55420D01*
X56450Y-55420D01*
X55300Y-55420D01*
X55214Y-55420D01*
X55027Y-55590D01*
X54700Y-55590D01*
X54700Y-55420D01*
X53464Y-55420D01*
X53192Y-55667D01*
X53422Y-56157D01*
X53625Y-56353D01*
X51374Y-56353D01*
X51577Y-56157D01*
X51807Y-55667D01*
X51535Y-55420D01*
X50300Y-55420D01*
X50300Y-55590D01*
X49972Y-55590D01*
X49785Y-55420D01*
X49700Y-55420D01*
X48550Y-55420D01*
X48464Y-55420D01*
X48277Y-55590D01*
X47950Y-55590D01*
X47950Y-55420D01*
X46714Y-55420D01*
X46442Y-55667D01*
X46672Y-56157D01*
X46875Y-56353D01*
X44624Y-56353D01*
X44827Y-56157D01*
X45057Y-55667D01*
X44785Y-55420D01*
X43550Y-55420D01*
X43550Y-55590D01*
X42950Y-55590D01*
X42950Y-55420D01*
X42685Y-55420D01*
X42685Y-55080D01*
X42950Y-55080D01*
X42950Y-54910D01*
X43550Y-54910D01*
X43550Y-55080D01*
X44785Y-55080D01*
X45057Y-54832D01*
X44827Y-54342D01*
X44379Y-53907D01*
X43880Y-53709D01*
X43943Y-53667D01*
X43988Y-53600D01*
X47511Y-53600D01*
X47556Y-53667D01*
X47619Y-53709D01*
X47120Y-53907D01*
X46672Y-54342D01*
X46442Y-54832D01*
X46714Y-55080D01*
X47950Y-55080D01*
X47950Y-54910D01*
X48277Y-54910D01*
X48464Y-55080D01*
X48550Y-55080D01*
X49700Y-55080D01*
X49785Y-55080D01*
X49972Y-54910D01*
X50300Y-54910D01*
X50300Y-55080D01*
X51535Y-55080D01*
X51807Y-54832D01*
X51577Y-54342D01*
X51129Y-53907D01*
X50630Y-53709D01*
X50693Y-53667D01*
X50738Y-53600D01*
X54261Y-53600D01*
X54306Y-53667D01*
X54369Y-53709D01*
X53870Y-53907D01*
X53422Y-54342D01*
X53192Y-54832D01*
X53464Y-55080D01*
X54700Y-55080D01*
X54700Y-54910D01*
X55027Y-54910D01*
X55214Y-55080D01*
X55300Y-55080D01*
X56450Y-55080D01*
X56535Y-55080D01*
X56722Y-54910D01*
X57050Y-54910D01*
X57050Y-55080D01*
X58285Y-55080D01*
X58557Y-54832D01*
X58327Y-54342D01*
X57879Y-53907D01*
X57380Y-53709D01*
X57443Y-53667D01*
X57488Y-53600D01*
X57500Y-53600D01*
X61011Y-53600D01*
X61056Y-53667D01*
X61119Y-53709D01*
X60620Y-53907D01*
X60172Y-54342D01*
X59942Y-54832D01*
X60214Y-55080D01*
X61450Y-55080D01*
X61450Y-54910D01*
X61777Y-54910D01*
X61964Y-55080D01*
X62050Y-55080D01*
X63200Y-55080D01*
X63285Y-55080D01*
X63472Y-54910D01*
X63800Y-54910D01*
X63800Y-55080D01*
X65035Y-55080D01*
X65307Y-54832D01*
X65077Y-54342D01*
X64629Y-53907D01*
X64130Y-53709D01*
X64193Y-53667D01*
X64238Y-53600D01*
X67761Y-53600D01*
X67806Y-53667D01*
X67869Y-53709D01*
X67370Y-53907D01*
X66922Y-54342D01*
X66692Y-54832D01*
X66964Y-55080D01*
X68200Y-55080D01*
X68200Y-54910D01*
X68527Y-54910D01*
X68714Y-55080D01*
X68800Y-55080D01*
X69950Y-55080D01*
X70035Y-55080D01*
X70222Y-54910D01*
X70550Y-54910D01*
X70550Y-55080D01*
X71785Y-55080D01*
X72057Y-54832D01*
X71827Y-54342D01*
X71379Y-53907D01*
X70880Y-53709D01*
X70943Y-53667D01*
X70988Y-53600D01*
X71250Y-53600D01*
X74511Y-53600D01*
X74556Y-53667D01*
X74619Y-53709D01*
X74120Y-53907D01*
X73672Y-54342D01*
X73442Y-54832D01*
X73714Y-55080D01*
X74950Y-55080D01*
X74950Y-54910D01*
X75550Y-54910D01*
X75550Y-55080D01*
X75814Y-55080D01*
X75814Y-55420D01*
X75814Y-55420D01*
G37*
G54D33*
X75814Y-55420D02*
X75550Y-55420D01*
X75550Y-55590D01*
X74950Y-55590D01*
X74950Y-55420D01*
X73714Y-55420D01*
X73442Y-55667D01*
X73672Y-56157D01*
X73875Y-56353D01*
X71624Y-56353D01*
X71827Y-56157D01*
X72057Y-55667D01*
X71785Y-55420D01*
X70550Y-55420D01*
X70550Y-55590D01*
X70222Y-55590D01*
X70035Y-55420D01*
X69950Y-55420D01*
X68800Y-55420D01*
X68714Y-55420D01*
X68527Y-55590D01*
X68200Y-55590D01*
X68200Y-55420D01*
X66964Y-55420D01*
X66692Y-55667D01*
X66922Y-56157D01*
X67125Y-56353D01*
X64874Y-56353D01*
X65077Y-56157D01*
X65307Y-55667D01*
X65035Y-55420D01*
X63800Y-55420D01*
X63800Y-55590D01*
X63472Y-55590D01*
X63285Y-55420D01*
X63200Y-55420D01*
X62050Y-55420D01*
X61964Y-55420D01*
X61777Y-55590D01*
X61450Y-55590D01*
X61450Y-55420D01*
X60214Y-55420D01*
X59942Y-55667D01*
X60172Y-56157D01*
X60375Y-56353D01*
X58124Y-56353D01*
X58327Y-56157D01*
X58557Y-55667D01*
X58285Y-55420D01*
X57050Y-55420D01*
X57050Y-55590D01*
X56722Y-55590D01*
X56535Y-55420D01*
X56450Y-55420D01*
X55300Y-55420D01*
X55214Y-55420D01*
X55027Y-55590D01*
X54700Y-55590D01*
X54700Y-55420D01*
X53464Y-55420D01*
X53192Y-55667D01*
X53422Y-56157D01*
X53625Y-56353D01*
X51374Y-56353D01*
X51577Y-56157D01*
X51807Y-55667D01*
X51535Y-55420D01*
X50300Y-55420D01*
X50300Y-55590D01*
X49972Y-55590D01*
X49785Y-55420D01*
X49700Y-55420D01*
X48550Y-55420D01*
X48464Y-55420D01*
X48277Y-55590D01*
X47950Y-55590D01*
X47950Y-55420D01*
X46714Y-55420D01*
X46442Y-55667D01*
X46672Y-56157D01*
X46875Y-56353D01*
X44624Y-56353D01*
X44827Y-56157D01*
X45057Y-55667D01*
X44785Y-55420D01*
X43550Y-55420D01*
X43550Y-55590D01*
X42950Y-55590D01*
X42950Y-55420D01*
X42685Y-55420D01*
X42685Y-55080D01*
X42950Y-55080D01*
X42950Y-54910D01*
X43550Y-54910D01*
X43550Y-55080D01*
X44785Y-55080D01*
X45057Y-54832D01*
X44827Y-54342D01*
X44379Y-53907D01*
X43880Y-53709D01*
X43943Y-53667D01*
X43988Y-53600D01*
X47511Y-53600D01*
X47556Y-53667D01*
X47619Y-53709D01*
X47120Y-53907D01*
X46672Y-54342D01*
X46442Y-54832D01*
X46714Y-55080D01*
X47950Y-55080D01*
X47950Y-54910D01*
X48277Y-54910D01*
X48464Y-55080D01*
X48550Y-55080D01*
X49700Y-55080D01*
X49785Y-55080D01*
X49972Y-54910D01*
X50300Y-54910D01*
X50300Y-55080D01*
X51535Y-55080D01*
X51807Y-54832D01*
X51577Y-54342D01*
X51129Y-53907D01*
X50630Y-53709D01*
X50693Y-53667D01*
X50738Y-53600D01*
X54261Y-53600D01*
X54306Y-53667D01*
X54369Y-53709D01*
X53870Y-53907D01*
X53422Y-54342D01*
X53192Y-54832D01*
X53464Y-55080D01*
X54700Y-55080D01*
X54700Y-54910D01*
X55027Y-54910D01*
X55214Y-55080D01*
X55300Y-55080D01*
X56450Y-55080D01*
X56535Y-55080D01*
X56722Y-54910D01*
X57050Y-54910D01*
X57050Y-55080D01*
X58285Y-55080D01*
X58557Y-54832D01*
X58327Y-54342D01*
X57879Y-53907D01*
X57380Y-53709D01*
X57443Y-53667D01*
X57488Y-53600D01*
X57500Y-53600D01*
X61011Y-53600D01*
X61056Y-53667D01*
X61119Y-53709D01*
X60620Y-53907D01*
X60172Y-54342D01*
X59942Y-54832D01*
X60214Y-55080D01*
X61450Y-55080D01*
X61450Y-54910D01*
X61777Y-54910D01*
X61964Y-55080D01*
X62050Y-55080D01*
X63200Y-55080D01*
X63285Y-55080D01*
X63472Y-54910D01*
X63800Y-54910D01*
X63800Y-55080D01*
X65035Y-55080D01*
X65307Y-54832D01*
X65077Y-54342D01*
X64629Y-53907D01*
X64130Y-53709D01*
X64193Y-53667D01*
X64238Y-53600D01*
X67761Y-53600D01*
X67806Y-53667D01*
X67869Y-53709D01*
X67370Y-53907D01*
X66922Y-54342D01*
X66692Y-54832D01*
X66964Y-55080D01*
X68200Y-55080D01*
X68200Y-54910D01*
X68527Y-54910D01*
X68714Y-55080D01*
X68800Y-55080D01*
X69950Y-55080D01*
X70035Y-55080D01*
X70222Y-54910D01*
X70550Y-54910D01*
X70550Y-55080D01*
X71785Y-55080D01*
X72057Y-54832D01*
X71827Y-54342D01*
X71379Y-53907D01*
X70880Y-53709D01*
X70943Y-53667D01*
X70988Y-53600D01*
X71250Y-53600D01*
X74511Y-53600D01*
X74556Y-53667D01*
X74619Y-53709D01*
X74120Y-53907D01*
X73672Y-54342D01*
X73442Y-54832D01*
X73714Y-55080D01*
X74950Y-55080D01*
X74950Y-54910D01*
X75550Y-54910D01*
X75550Y-55080D01*
X75814Y-55080D01*
X75814Y-55420D01*
G54D10*
G36*
X77550Y-22800D02*
X77350Y-22800D01*
X77350Y-22924D01*
X76950Y-22946D01*
X76950Y-22800D01*
X76750Y-22800D01*
X76750Y-22400D01*
X76950Y-22400D01*
X76950Y-22222D01*
X77150Y-22262D01*
X77350Y-22222D01*
X77350Y-22400D01*
X77550Y-22400D01*
X77550Y-22800D01*
X77550Y-22800D01*
G37*
G54D33*
X77550Y-22800D02*
X77350Y-22800D01*
X77350Y-22924D01*
X76950Y-22946D01*
X76950Y-22800D01*
X76750Y-22800D01*
X76750Y-22400D01*
X76950Y-22400D01*
X76950Y-22222D01*
X77150Y-22262D01*
X77350Y-22222D01*
X77350Y-22400D01*
X77550Y-22400D01*
X77550Y-22800D01*
G54D10*
G36*
X78738Y-56353D02*
X76624Y-56353D01*
X76827Y-56157D01*
X76968Y-55856D01*
X77023Y-55912D01*
X77332Y-56040D01*
X77666Y-56040D01*
X77975Y-55912D01*
X78212Y-55676D01*
X78340Y-55367D01*
X78340Y-55033D01*
X78212Y-54724D01*
X77976Y-54487D01*
X77667Y-54359D01*
X77625Y-54359D01*
X77625Y-36515D01*
X77560Y-36359D01*
X77441Y-36239D01*
X77284Y-36175D01*
X77115Y-36174D01*
X76959Y-36239D01*
X76839Y-36358D01*
X76775Y-36515D01*
X76774Y-36684D01*
X76839Y-36840D01*
X76958Y-36960D01*
X77115Y-37024D01*
X77284Y-37025D01*
X77440Y-36960D01*
X77560Y-36841D01*
X77624Y-36684D01*
X77625Y-36515D01*
X77625Y-54359D01*
X77333Y-54359D01*
X77024Y-54487D01*
X76936Y-54575D01*
X76827Y-54342D01*
X76379Y-53907D01*
X76312Y-53881D01*
X76312Y-33051D01*
X76312Y-32915D01*
X75996Y-32600D01*
X74850Y-32600D01*
X74850Y-33746D01*
X75165Y-34062D01*
X75301Y-34062D01*
X75765Y-33870D01*
X76120Y-33515D01*
X76312Y-33051D01*
X76312Y-53881D01*
X75880Y-53709D01*
X75943Y-53667D01*
X76071Y-53475D01*
X76116Y-53250D01*
X76071Y-53024D01*
X75943Y-52832D01*
X75752Y-52704D01*
X75526Y-52660D01*
X74973Y-52660D01*
X74747Y-52704D01*
X74556Y-52832D01*
X74511Y-52900D01*
X72094Y-52900D01*
X72497Y-52497D01*
X72573Y-52383D01*
X72600Y-52250D01*
X72600Y-50892D01*
X72694Y-50797D01*
X72725Y-50725D01*
X72725Y-50824D01*
X72763Y-50916D01*
X72833Y-50986D01*
X72925Y-51025D01*
X73024Y-51025D01*
X73574Y-51025D01*
X73666Y-50986D01*
X73736Y-50916D01*
X73764Y-50850D01*
X74105Y-50850D01*
X74225Y-50970D01*
X74224Y-51103D01*
X74304Y-51297D01*
X74452Y-51444D01*
X74645Y-51524D01*
X74853Y-51525D01*
X75047Y-51445D01*
X75194Y-51297D01*
X75274Y-51104D01*
X75275Y-50896D01*
X75275Y-47896D01*
X75195Y-47703D01*
X75047Y-47555D01*
X74854Y-47475D01*
X74646Y-47474D01*
X74453Y-47554D01*
X74305Y-47702D01*
X74225Y-47895D01*
X74224Y-48103D01*
X74304Y-48297D01*
X74452Y-48444D01*
X74645Y-48524D01*
X74853Y-48525D01*
X75047Y-48445D01*
X75194Y-48297D01*
X75274Y-48104D01*
X75275Y-47896D01*
X75275Y-50896D01*
X75195Y-50703D01*
X75047Y-50555D01*
X74854Y-50475D01*
X74719Y-50474D01*
X74497Y-50252D01*
X74383Y-50176D01*
X74250Y-50150D01*
X73764Y-50150D01*
X73736Y-50083D01*
X73666Y-50013D01*
X73574Y-49975D01*
X73475Y-49975D01*
X72925Y-49975D01*
X72833Y-50013D01*
X72763Y-50083D01*
X72725Y-50175D01*
X72725Y-50274D01*
X72725Y-50274D01*
X72695Y-50203D01*
X72600Y-50107D01*
X72600Y-48650D01*
X72573Y-48516D01*
X72573Y-48516D01*
X72497Y-48402D01*
X71797Y-47702D01*
X71683Y-47626D01*
X71550Y-47600D01*
X67556Y-47600D01*
X67556Y-34844D01*
X67532Y-34477D01*
X66750Y-33694D01*
X66555Y-33888D01*
X66555Y-33500D01*
X65772Y-32717D01*
X65405Y-32693D01*
X65210Y-33238D01*
X65195Y-33203D01*
X65047Y-33055D01*
X64854Y-32975D01*
X64646Y-32974D01*
X64453Y-33054D01*
X64305Y-33202D01*
X64225Y-33395D01*
X64224Y-33603D01*
X64304Y-33797D01*
X64452Y-33944D01*
X64645Y-34024D01*
X64853Y-34025D01*
X65047Y-33945D01*
X65194Y-33797D01*
X65221Y-33732D01*
X65229Y-33880D01*
X65405Y-34306D01*
X65772Y-34282D01*
X66555Y-33500D01*
X66555Y-33888D01*
X65967Y-34477D01*
X65943Y-34844D01*
X66519Y-35050D01*
X67130Y-35020D01*
X67556Y-34844D01*
X67556Y-47600D01*
X57294Y-47600D01*
X57000Y-47305D01*
X57000Y-44744D01*
X59894Y-41850D01*
X59919Y-41850D01*
X59950Y-41895D01*
X60131Y-42017D01*
X60346Y-42060D01*
X60653Y-42060D01*
X60868Y-42017D01*
X61049Y-41895D01*
X61100Y-41820D01*
X61100Y-43405D01*
X60855Y-43650D01*
X58851Y-43650D01*
X58841Y-43639D01*
X58684Y-43575D01*
X58515Y-43574D01*
X58359Y-43639D01*
X58239Y-43758D01*
X58175Y-43915D01*
X58174Y-44084D01*
X58239Y-44240D01*
X58358Y-44360D01*
X58515Y-44424D01*
X58684Y-44425D01*
X58840Y-44360D01*
X58850Y-44350D01*
X61000Y-44350D01*
X61133Y-44323D01*
X61133Y-44323D01*
X61247Y-44247D01*
X61697Y-43797D01*
X61700Y-43793D01*
X61700Y-44405D01*
X61455Y-44650D01*
X58777Y-44650D01*
X58661Y-44534D01*
X58459Y-44450D01*
X58241Y-44449D01*
X58038Y-44533D01*
X57884Y-44688D01*
X57800Y-44890D01*
X57799Y-45108D01*
X57883Y-45311D01*
X58038Y-45465D01*
X58119Y-45499D01*
X58038Y-45533D01*
X57884Y-45688D01*
X57800Y-45890D01*
X57799Y-46108D01*
X57883Y-46311D01*
X58038Y-46465D01*
X58119Y-46499D01*
X58038Y-46533D01*
X57884Y-46688D01*
X57800Y-46890D01*
X57799Y-47108D01*
X57883Y-47311D01*
X58038Y-47465D01*
X58240Y-47549D01*
X58458Y-47550D01*
X58661Y-47466D01*
X58777Y-47350D01*
X66050Y-47350D01*
X66183Y-47323D01*
X66183Y-47323D01*
X66297Y-47247D01*
X66847Y-46697D01*
X66923Y-46583D01*
X66950Y-46450D01*
X66950Y-39200D01*
X66950Y-38950D01*
X66950Y-38000D01*
X66950Y-37950D01*
X66923Y-37816D01*
X66847Y-37702D01*
X66733Y-37626D01*
X66718Y-37623D01*
X66397Y-37302D01*
X66283Y-37226D01*
X66150Y-37200D01*
X65436Y-37200D01*
X65359Y-37123D01*
X65500Y-36730D01*
X65470Y-36119D01*
X65412Y-35977D01*
X65500Y-35730D01*
X65470Y-35119D01*
X65294Y-34693D01*
X64927Y-34717D01*
X64559Y-35085D01*
X64273Y-34982D01*
X64732Y-34522D01*
X64756Y-34155D01*
X64180Y-33949D01*
X63569Y-33979D01*
X63143Y-34155D01*
X63167Y-34522D01*
X63621Y-34976D01*
X63569Y-34979D01*
X63332Y-35077D01*
X62972Y-34717D01*
X62605Y-34693D01*
X62410Y-35238D01*
X62395Y-35203D01*
X62247Y-35055D01*
X62115Y-35000D01*
X62161Y-34897D01*
X61887Y-34655D01*
X60725Y-34655D01*
X60725Y-34810D01*
X60275Y-34810D01*
X60275Y-34655D01*
X60050Y-34655D01*
X60050Y-34345D01*
X60275Y-34345D01*
X60275Y-34190D01*
X60725Y-34190D01*
X60725Y-34345D01*
X61887Y-34345D01*
X62161Y-34102D01*
X62115Y-33999D01*
X62247Y-33945D01*
X62394Y-33797D01*
X62474Y-33604D01*
X62475Y-33469D01*
X62594Y-33350D01*
X62657Y-33350D01*
X62752Y-33444D01*
X62945Y-33524D01*
X63153Y-33525D01*
X63347Y-33445D01*
X63494Y-33297D01*
X63574Y-33104D01*
X63575Y-32896D01*
X63495Y-32703D01*
X63347Y-32555D01*
X63154Y-32475D01*
X62946Y-32474D01*
X62753Y-32554D01*
X62657Y-32650D01*
X62450Y-32650D01*
X62316Y-32676D01*
X62300Y-32687D01*
X62300Y-31700D01*
X62273Y-31566D01*
X62273Y-31566D01*
X62197Y-31452D01*
X61716Y-30971D01*
X61845Y-31024D01*
X62053Y-31025D01*
X62247Y-30945D01*
X62342Y-30850D01*
X62400Y-30850D01*
X62533Y-30823D01*
X62533Y-30823D01*
X62562Y-30803D01*
X62525Y-30895D01*
X62524Y-31103D01*
X62604Y-31297D01*
X62752Y-31444D01*
X62945Y-31524D01*
X63153Y-31525D01*
X63347Y-31445D01*
X63494Y-31297D01*
X63562Y-31133D01*
X63578Y-31214D01*
X63700Y-31395D01*
X63855Y-31499D01*
X63700Y-31604D01*
X63578Y-31785D01*
X63536Y-32000D01*
X63578Y-32214D01*
X63700Y-32395D01*
X63881Y-32517D01*
X64096Y-32560D01*
X64403Y-32560D01*
X64618Y-32517D01*
X64799Y-32395D01*
X64921Y-32214D01*
X64963Y-32000D01*
X64921Y-31785D01*
X64799Y-31604D01*
X64644Y-31499D01*
X64799Y-31395D01*
X64921Y-31214D01*
X64963Y-31000D01*
X64921Y-30785D01*
X64799Y-30604D01*
X64644Y-30499D01*
X64799Y-30395D01*
X64921Y-30214D01*
X64963Y-30000D01*
X64921Y-29785D01*
X64799Y-29604D01*
X64644Y-29499D01*
X64799Y-29395D01*
X64921Y-29214D01*
X64963Y-29000D01*
X64921Y-28785D01*
X64799Y-28604D01*
X64618Y-28482D01*
X64403Y-28440D01*
X64096Y-28440D01*
X63881Y-28482D01*
X63700Y-28604D01*
X63669Y-28650D01*
X63342Y-28650D01*
X63247Y-28555D01*
X63182Y-28528D01*
X63330Y-28520D01*
X63756Y-28344D01*
X63732Y-27977D01*
X63700Y-27944D01*
X63794Y-27850D01*
X64357Y-27850D01*
X64452Y-27944D01*
X64645Y-28024D01*
X64853Y-28025D01*
X65047Y-27945D01*
X65194Y-27797D01*
X65274Y-27604D01*
X65275Y-27396D01*
X65195Y-27203D01*
X65047Y-27055D01*
X65037Y-27050D01*
X65032Y-26977D01*
X64396Y-26340D01*
X64451Y-26285D01*
X64134Y-25968D01*
X64239Y-25849D01*
X64262Y-25793D01*
X64347Y-25708D01*
X64541Y-25902D01*
X64444Y-26000D01*
X65227Y-26782D01*
X65594Y-26806D01*
X65789Y-26261D01*
X65804Y-26297D01*
X65952Y-26444D01*
X66145Y-26524D01*
X66353Y-26525D01*
X66547Y-26445D01*
X66694Y-26297D01*
X66750Y-26164D01*
X66804Y-26297D01*
X66952Y-26444D01*
X67145Y-26524D01*
X67353Y-26525D01*
X67547Y-26445D01*
X67694Y-26297D01*
X67774Y-26104D01*
X67775Y-25896D01*
X67695Y-25703D01*
X67547Y-25555D01*
X67354Y-25475D01*
X67146Y-25474D01*
X66953Y-25554D01*
X66805Y-25702D01*
X66749Y-25835D01*
X66695Y-25703D01*
X66547Y-25555D01*
X66354Y-25475D01*
X66146Y-25474D01*
X65953Y-25554D01*
X65805Y-25702D01*
X65778Y-25767D01*
X65770Y-25619D01*
X65667Y-25369D01*
X65751Y-25285D01*
X65556Y-25090D01*
X65497Y-25002D01*
X64600Y-24105D01*
X64600Y-23392D01*
X64694Y-23297D01*
X64750Y-23164D01*
X64804Y-23297D01*
X64952Y-23444D01*
X65145Y-23524D01*
X65353Y-23525D01*
X65547Y-23445D01*
X65694Y-23297D01*
X65750Y-23164D01*
X65804Y-23297D01*
X65952Y-23444D01*
X66145Y-23524D01*
X66353Y-23525D01*
X66547Y-23445D01*
X66642Y-23350D01*
X68005Y-23350D01*
X68200Y-23545D01*
X68199Y-23708D01*
X68283Y-23911D01*
X68422Y-24050D01*
X68400Y-24050D01*
X68308Y-24088D01*
X68238Y-24158D01*
X68200Y-24250D01*
X68200Y-24349D01*
X68200Y-24949D01*
X68238Y-25041D01*
X68308Y-25111D01*
X68400Y-25150D01*
X68499Y-25150D01*
X69099Y-25150D01*
X69191Y-25111D01*
X69261Y-25041D01*
X69300Y-24949D01*
X69300Y-24850D01*
X69300Y-24250D01*
X69261Y-24158D01*
X69191Y-24088D01*
X69099Y-24050D01*
X69077Y-24050D01*
X69215Y-23911D01*
X69299Y-23709D01*
X69300Y-23491D01*
X69216Y-23288D01*
X69061Y-23134D01*
X68859Y-23050D01*
X68694Y-23049D01*
X68397Y-22752D01*
X68283Y-22676D01*
X68150Y-22650D01*
X66642Y-22650D01*
X66547Y-22555D01*
X66354Y-22475D01*
X66146Y-22474D01*
X65953Y-22554D01*
X65805Y-22702D01*
X65749Y-22835D01*
X65695Y-22703D01*
X65547Y-22555D01*
X65354Y-22475D01*
X65146Y-22474D01*
X64953Y-22554D01*
X64805Y-22702D01*
X64749Y-22835D01*
X64695Y-22703D01*
X64547Y-22555D01*
X64354Y-22475D01*
X64146Y-22474D01*
X64056Y-22511D01*
X64056Y-20044D01*
X64032Y-19677D01*
X63250Y-18894D01*
X62467Y-19677D01*
X62443Y-20044D01*
X63019Y-20250D01*
X63630Y-20220D01*
X64056Y-20044D01*
X64056Y-22511D01*
X63953Y-22554D01*
X63805Y-22702D01*
X63725Y-22895D01*
X63724Y-23103D01*
X63804Y-23297D01*
X63900Y-23392D01*
X63900Y-23862D01*
X63827Y-23780D01*
X63406Y-23571D01*
X63406Y-23447D01*
X63154Y-23447D01*
X63150Y-23425D01*
X63079Y-23320D01*
X63079Y-23320D01*
X63079Y-23320D01*
X62779Y-23020D01*
X62674Y-22949D01*
X62550Y-22925D01*
X61450Y-22925D01*
X61450Y-22924D01*
X61325Y-22949D01*
X61220Y-23020D01*
X60900Y-23340D01*
X60900Y-21291D01*
X61310Y-21121D01*
X61291Y-20753D01*
X61050Y-20512D01*
X61050Y-20400D01*
X61011Y-20308D01*
X60941Y-20238D01*
X60849Y-20200D01*
X60750Y-20200D01*
X60737Y-20200D01*
X60500Y-19962D01*
X60262Y-20200D01*
X60150Y-20200D01*
X60058Y-20238D01*
X59988Y-20308D01*
X59950Y-20400D01*
X59950Y-20499D01*
X59950Y-20512D01*
X59708Y-20753D01*
X59689Y-21121D01*
X60041Y-21245D01*
X60058Y-21261D01*
X60100Y-21279D01*
X60100Y-26100D01*
X60073Y-25966D01*
X59997Y-25852D01*
X57900Y-23755D01*
X57900Y-19601D01*
X58069Y-19432D01*
X57980Y-19343D01*
X58093Y-19021D01*
X58238Y-19165D01*
X58440Y-19249D01*
X58658Y-19250D01*
X58861Y-19166D01*
X58977Y-19050D01*
X59013Y-19050D01*
X59069Y-19106D01*
X58922Y-19525D01*
X58956Y-20146D01*
X59128Y-20560D01*
X59496Y-20541D01*
X60287Y-19750D01*
X60181Y-19643D01*
X60393Y-19431D01*
X60500Y-19537D01*
X61291Y-18746D01*
X61301Y-18550D01*
X61703Y-18550D01*
X61722Y-18947D01*
X61503Y-18958D01*
X60712Y-19750D01*
X61503Y-20541D01*
X61871Y-20560D01*
X62077Y-19974D01*
X62051Y-19497D01*
X62272Y-19482D01*
X63055Y-18700D01*
X62958Y-18602D01*
X63011Y-18550D01*
X63488Y-18550D01*
X63541Y-18602D01*
X63444Y-18700D01*
X64227Y-19482D01*
X64594Y-19506D01*
X64789Y-18961D01*
X64804Y-18997D01*
X64952Y-19144D01*
X65145Y-19224D01*
X65353Y-19225D01*
X65547Y-19145D01*
X65694Y-18997D01*
X65774Y-18804D01*
X65775Y-18596D01*
X65756Y-18550D01*
X66443Y-18550D01*
X66425Y-18595D01*
X66424Y-18803D01*
X66504Y-18997D01*
X66652Y-19144D01*
X66845Y-19224D01*
X67053Y-19225D01*
X67247Y-19145D01*
X67394Y-18997D01*
X67474Y-18804D01*
X67475Y-18596D01*
X67395Y-18403D01*
X67277Y-18284D01*
X67273Y-18266D01*
X67262Y-18250D01*
X67584Y-18250D01*
X68481Y-19147D01*
X68303Y-19156D01*
X67889Y-19328D01*
X67908Y-19696D01*
X68700Y-20487D01*
X68806Y-20381D01*
X69018Y-20593D01*
X68912Y-20700D01*
X69703Y-21491D01*
X70071Y-21510D01*
X70277Y-20924D01*
X70276Y-20905D01*
X70296Y-20919D01*
X70296Y-20919D01*
X70450Y-20950D01*
X70904Y-20950D01*
X70772Y-21325D01*
X70806Y-21946D01*
X70978Y-22360D01*
X71346Y-22341D01*
X72137Y-21550D01*
X72031Y-21443D01*
X72243Y-21231D01*
X72350Y-21337D01*
X73141Y-20546D01*
X73160Y-20178D01*
X72574Y-19972D01*
X71953Y-20006D01*
X71699Y-20112D01*
X71617Y-20030D01*
X71498Y-20150D01*
X70615Y-20150D01*
X70475Y-20009D01*
X70475Y-18596D01*
X70395Y-18403D01*
X70247Y-18255D01*
X70054Y-18175D01*
X69846Y-18174D01*
X69653Y-18254D01*
X69505Y-18402D01*
X69425Y-18595D01*
X69424Y-18803D01*
X69504Y-18997D01*
X69652Y-19144D01*
X69845Y-19224D01*
X70053Y-19225D01*
X70247Y-19145D01*
X70394Y-18997D01*
X70474Y-18804D01*
X70475Y-18596D01*
X70475Y-20009D01*
X68032Y-17567D01*
X67967Y-17523D01*
X78738Y-17523D01*
X78738Y-21769D01*
X78620Y-21484D01*
X78340Y-21205D01*
X78340Y-18533D01*
X78212Y-18224D01*
X77976Y-17987D01*
X77667Y-17859D01*
X77333Y-17859D01*
X77024Y-17987D01*
X76787Y-18223D01*
X76659Y-18532D01*
X76659Y-18866D01*
X76787Y-19175D01*
X77023Y-19412D01*
X77332Y-19540D01*
X77666Y-19540D01*
X77975Y-19412D01*
X78212Y-19176D01*
X78340Y-18867D01*
X78340Y-18533D01*
X78340Y-21205D01*
X78265Y-21129D01*
X77801Y-20937D01*
X77706Y-20937D01*
X77665Y-20937D01*
X77150Y-20937D01*
X77150Y-20937D01*
X77149Y-20937D01*
X76634Y-20937D01*
X76593Y-20937D01*
X76498Y-20937D01*
X76034Y-21129D01*
X75679Y-21484D01*
X75508Y-21898D01*
X75444Y-21743D01*
X75077Y-21767D01*
X74906Y-21937D01*
X74906Y-21205D01*
X74361Y-21010D01*
X74397Y-20995D01*
X74544Y-20847D01*
X74624Y-20654D01*
X74625Y-20446D01*
X74545Y-20253D01*
X74397Y-20105D01*
X74204Y-20025D01*
X73996Y-20024D01*
X73850Y-20085D01*
X73850Y-18591D01*
X73766Y-18388D01*
X73611Y-18234D01*
X73409Y-18150D01*
X73191Y-18149D01*
X72988Y-18233D01*
X72834Y-18388D01*
X72800Y-18469D01*
X72766Y-18388D01*
X72611Y-18234D01*
X72409Y-18150D01*
X72191Y-18149D01*
X71988Y-18233D01*
X71834Y-18388D01*
X71800Y-18469D01*
X71766Y-18388D01*
X71611Y-18234D01*
X71409Y-18150D01*
X71191Y-18149D01*
X70988Y-18233D01*
X70834Y-18388D01*
X70750Y-18590D01*
X70749Y-18808D01*
X70833Y-19011D01*
X70988Y-19165D01*
X71190Y-19249D01*
X71408Y-19250D01*
X71611Y-19166D01*
X71765Y-19011D01*
X71799Y-18930D01*
X71833Y-19011D01*
X71988Y-19165D01*
X72190Y-19249D01*
X72408Y-19250D01*
X72611Y-19166D01*
X72765Y-19011D01*
X72799Y-18930D01*
X72833Y-19011D01*
X72988Y-19165D01*
X73190Y-19249D01*
X73408Y-19250D01*
X73611Y-19166D01*
X73765Y-19011D01*
X73849Y-18809D01*
X73850Y-18591D01*
X73850Y-20085D01*
X73803Y-20104D01*
X73655Y-20252D01*
X73575Y-20445D01*
X73574Y-20653D01*
X73612Y-20744D01*
X73353Y-20758D01*
X72562Y-21550D01*
X72668Y-21656D01*
X72456Y-21868D01*
X72350Y-21762D01*
X71558Y-22553D01*
X71539Y-22921D01*
X72125Y-23127D01*
X72648Y-23098D01*
X72755Y-23356D01*
X73122Y-23332D01*
X73905Y-22550D01*
X73808Y-22452D01*
X74002Y-22258D01*
X74100Y-22355D01*
X74882Y-21572D01*
X74906Y-21205D01*
X74906Y-21937D01*
X74294Y-22550D01*
X74391Y-22647D01*
X74197Y-22841D01*
X74100Y-22744D01*
X73317Y-23527D01*
X73293Y-23894D01*
X73860Y-24097D01*
X73799Y-24269D01*
X73829Y-24880D01*
X73932Y-25130D01*
X73874Y-25188D01*
X73870Y-25119D01*
X73694Y-24693D01*
X73327Y-24717D01*
X73156Y-24887D01*
X73156Y-24155D01*
X72580Y-23949D01*
X71969Y-23979D01*
X71543Y-24155D01*
X71547Y-24222D01*
X71547Y-24222D01*
X71502Y-24252D01*
X71058Y-24696D01*
X71005Y-24693D01*
X70974Y-24780D01*
X70279Y-25475D01*
X70146Y-25474D01*
X69953Y-25554D01*
X69805Y-25702D01*
X69725Y-25895D01*
X69724Y-26103D01*
X69804Y-26297D01*
X69900Y-26392D01*
X69900Y-26979D01*
X69864Y-27003D01*
X69746Y-27180D01*
X69704Y-27389D01*
X69704Y-27610D01*
X69746Y-27819D01*
X69864Y-27996D01*
X70041Y-28114D01*
X70250Y-28156D01*
X70458Y-28114D01*
X70635Y-27996D01*
X70753Y-27819D01*
X70795Y-27610D01*
X70795Y-27389D01*
X70753Y-27180D01*
X70635Y-27003D01*
X70600Y-26979D01*
X70600Y-26392D01*
X70694Y-26297D01*
X70774Y-26104D01*
X70775Y-25969D01*
X70839Y-25905D01*
X71005Y-26306D01*
X71372Y-26282D01*
X72155Y-25500D01*
X71700Y-25044D01*
X71894Y-24850D01*
X72350Y-25305D01*
X73132Y-24522D01*
X73156Y-24155D01*
X73156Y-24887D01*
X72544Y-25500D01*
X72641Y-25597D01*
X72447Y-25791D01*
X72350Y-25694D01*
X72070Y-25974D01*
X71969Y-25979D01*
X71543Y-26155D01*
X71565Y-26500D01*
X71543Y-26844D01*
X72081Y-27037D01*
X72350Y-27305D01*
X72447Y-27208D01*
X72641Y-27402D01*
X72544Y-27500D01*
X73327Y-28282D01*
X73694Y-28306D01*
X73900Y-27730D01*
X73870Y-27119D01*
X73767Y-26869D01*
X73851Y-26785D01*
X73705Y-26639D01*
X74226Y-26118D01*
X74200Y-26250D01*
X74200Y-29050D01*
X74226Y-29183D01*
X74302Y-29297D01*
X74305Y-29300D01*
X73156Y-29300D01*
X73156Y-28844D01*
X73132Y-28477D01*
X72350Y-27694D01*
X72252Y-27791D01*
X72058Y-27597D01*
X72155Y-27500D01*
X71372Y-26717D01*
X71005Y-26693D01*
X70799Y-27269D01*
X70829Y-27880D01*
X70888Y-28024D01*
X70753Y-28114D01*
X70635Y-28291D01*
X70593Y-28500D01*
X70635Y-28708D01*
X70753Y-28885D01*
X70930Y-29003D01*
X71139Y-29045D01*
X71360Y-29045D01*
X71569Y-29003D01*
X71610Y-28976D01*
X71635Y-29001D01*
X71726Y-28909D01*
X72119Y-29050D01*
X72730Y-29020D01*
X73156Y-28844D01*
X73156Y-29300D01*
X71600Y-29300D01*
X71466Y-29326D01*
X71352Y-29402D01*
X70779Y-29975D01*
X70650Y-29974D01*
X70753Y-29819D01*
X70795Y-29610D01*
X70795Y-29389D01*
X70753Y-29180D01*
X70635Y-29003D01*
X70458Y-28885D01*
X70250Y-28843D01*
X70041Y-28885D01*
X69864Y-29003D01*
X69766Y-29150D01*
X69510Y-29150D01*
X69510Y-22071D01*
X69491Y-21703D01*
X69250Y-21462D01*
X69250Y-21350D01*
X69211Y-21258D01*
X69141Y-21188D01*
X69049Y-21150D01*
X68950Y-21150D01*
X68937Y-21150D01*
X68700Y-20912D01*
X68487Y-21124D01*
X68487Y-20700D01*
X67696Y-19908D01*
X67328Y-19889D01*
X67122Y-20475D01*
X67156Y-21096D01*
X67328Y-21510D01*
X67696Y-21491D01*
X68487Y-20700D01*
X68487Y-21124D01*
X68462Y-21150D01*
X68350Y-21150D01*
X68258Y-21188D01*
X68188Y-21258D01*
X68150Y-21350D01*
X68150Y-21449D01*
X68150Y-21462D01*
X67908Y-21703D01*
X67889Y-22071D01*
X68241Y-22195D01*
X68258Y-22211D01*
X68350Y-22250D01*
X68397Y-22250D01*
X68475Y-22277D01*
X68971Y-22250D01*
X69049Y-22250D01*
X69061Y-22245D01*
X69096Y-22243D01*
X69510Y-22071D01*
X69510Y-29150D01*
X69275Y-29150D01*
X69275Y-26896D01*
X69195Y-26703D01*
X69047Y-26555D01*
X68854Y-26475D01*
X68646Y-26474D01*
X68453Y-26554D01*
X68305Y-26702D01*
X68225Y-26895D01*
X68224Y-27103D01*
X68304Y-27297D01*
X68452Y-27444D01*
X68645Y-27524D01*
X68853Y-27525D01*
X69047Y-27445D01*
X69194Y-27297D01*
X69274Y-27104D01*
X69275Y-26896D01*
X69275Y-29150D01*
X69200Y-29150D01*
X69066Y-29176D01*
X68952Y-29252D01*
X68911Y-29293D01*
X68856Y-29348D01*
X68637Y-29155D01*
X67475Y-29155D01*
X67475Y-29310D01*
X67025Y-29310D01*
X67025Y-29155D01*
X66600Y-29155D01*
X66600Y-28845D01*
X67025Y-28845D01*
X67025Y-28690D01*
X67475Y-28690D01*
X67475Y-28845D01*
X68637Y-28845D01*
X68911Y-28602D01*
X68707Y-28147D01*
X68280Y-27708D01*
X67806Y-27503D01*
X67806Y-27427D01*
X67275Y-27427D01*
X67275Y-27396D01*
X67195Y-27203D01*
X67047Y-27055D01*
X66854Y-26975D01*
X66646Y-26974D01*
X66453Y-27054D01*
X66305Y-27202D01*
X66225Y-27395D01*
X66224Y-27530D01*
X66002Y-27752D01*
X65926Y-27866D01*
X65900Y-28000D01*
X65900Y-28037D01*
X65792Y-28147D01*
X65588Y-28602D01*
X65862Y-28845D01*
X65900Y-28845D01*
X65900Y-29155D01*
X65862Y-29155D01*
X65588Y-29397D01*
X65792Y-29852D01*
X65900Y-29962D01*
X65900Y-31750D01*
X65926Y-31883D01*
X66002Y-31997D01*
X66097Y-32092D01*
X65943Y-32155D01*
X65967Y-32522D01*
X66750Y-33305D01*
X66847Y-33208D01*
X67041Y-33402D01*
X66944Y-33500D01*
X67727Y-34282D01*
X68094Y-34306D01*
X68300Y-33730D01*
X68282Y-33350D01*
X68357Y-33350D01*
X68452Y-33444D01*
X68645Y-33524D01*
X68793Y-33525D01*
X68866Y-33573D01*
X68866Y-33573D01*
X69000Y-33600D01*
X69224Y-33600D01*
X69224Y-33603D01*
X69304Y-33797D01*
X69452Y-33944D01*
X69645Y-34024D01*
X69853Y-34025D01*
X70047Y-33945D01*
X70142Y-33850D01*
X70357Y-33850D01*
X70452Y-33944D01*
X70645Y-34024D01*
X70853Y-34025D01*
X71047Y-33945D01*
X71194Y-33797D01*
X71250Y-33664D01*
X71304Y-33797D01*
X71452Y-33944D01*
X71645Y-34024D01*
X71853Y-34025D01*
X72047Y-33945D01*
X72142Y-33850D01*
X72250Y-33850D01*
X72383Y-33823D01*
X72383Y-33823D01*
X72497Y-33747D01*
X72720Y-33524D01*
X72853Y-33525D01*
X73047Y-33445D01*
X73120Y-33372D01*
X73179Y-33515D01*
X73534Y-33870D01*
X73998Y-34062D01*
X74134Y-34062D01*
X74450Y-33746D01*
X74450Y-32600D01*
X74250Y-32600D01*
X74250Y-32200D01*
X74450Y-32200D01*
X74450Y-32022D01*
X74650Y-32062D01*
X74850Y-32022D01*
X74850Y-32200D01*
X75996Y-32200D01*
X76312Y-31884D01*
X76312Y-31748D01*
X76120Y-31284D01*
X75765Y-30929D01*
X75301Y-30737D01*
X75206Y-30737D01*
X75165Y-30737D01*
X74650Y-30737D01*
X74650Y-30737D01*
X74649Y-30737D01*
X74276Y-30737D01*
X74270Y-30619D01*
X74167Y-30369D01*
X74251Y-30285D01*
X73965Y-30000D01*
X76700Y-30000D01*
X76833Y-29973D01*
X76833Y-29973D01*
X76947Y-29897D01*
X77397Y-29447D01*
X77473Y-29333D01*
X77473Y-29333D01*
X77500Y-29200D01*
X77500Y-29049D01*
X77591Y-29011D01*
X77661Y-28941D01*
X77700Y-28849D01*
X77700Y-28750D01*
X77700Y-28150D01*
X77661Y-28058D01*
X77591Y-27988D01*
X77499Y-27950D01*
X77477Y-27950D01*
X77615Y-27811D01*
X77699Y-27609D01*
X77700Y-27391D01*
X77616Y-27188D01*
X77461Y-27034D01*
X77259Y-26950D01*
X77041Y-26949D01*
X76838Y-27033D01*
X76722Y-27150D01*
X76450Y-27150D01*
X76316Y-27176D01*
X76202Y-27252D01*
X75952Y-27502D01*
X75876Y-27616D01*
X75850Y-27750D01*
X75850Y-28335D01*
X75795Y-28203D01*
X75700Y-28107D01*
X75700Y-27892D01*
X75794Y-27797D01*
X75874Y-27604D01*
X75875Y-27396D01*
X75795Y-27203D01*
X75700Y-27107D01*
X75700Y-27014D01*
X75766Y-26986D01*
X75836Y-26916D01*
X75864Y-26850D01*
X76250Y-26850D01*
X76383Y-26823D01*
X76383Y-26823D01*
X76497Y-26747D01*
X77181Y-26063D01*
X77421Y-26050D01*
X77499Y-26050D01*
X77511Y-26045D01*
X77546Y-26043D01*
X77960Y-25871D01*
X77941Y-25503D01*
X77700Y-25262D01*
X77700Y-25150D01*
X77661Y-25058D01*
X77591Y-24988D01*
X77499Y-24950D01*
X77400Y-24950D01*
X77387Y-24950D01*
X77150Y-24712D01*
X77043Y-24818D01*
X76897Y-24672D01*
X76891Y-24546D01*
X76937Y-24500D01*
X76886Y-24449D01*
X76881Y-24343D01*
X76963Y-24262D01*
X77124Y-24262D01*
X77150Y-24287D01*
X77175Y-24262D01*
X77336Y-24262D01*
X77468Y-24393D01*
X77362Y-24500D01*
X78153Y-25291D01*
X78521Y-25310D01*
X78727Y-24724D01*
X78693Y-24103D01*
X78587Y-23849D01*
X78669Y-23767D01*
X78618Y-23716D01*
X78620Y-23715D01*
X78738Y-23430D01*
X78738Y-56353D01*
X78738Y-56353D01*
G37*
G54D33*
X78738Y-56353D02*
X76624Y-56353D01*
X76827Y-56157D01*
X76968Y-55856D01*
X77023Y-55912D01*
X77332Y-56040D01*
X77666Y-56040D01*
X77975Y-55912D01*
X78212Y-55676D01*
X78340Y-55367D01*
X78340Y-55033D01*
X78212Y-54724D01*
X77976Y-54487D01*
X77667Y-54359D01*
X77625Y-54359D01*
X77625Y-36515D01*
X77560Y-36359D01*
X77441Y-36239D01*
X77284Y-36175D01*
X77115Y-36174D01*
X76959Y-36239D01*
X76839Y-36358D01*
X76775Y-36515D01*
X76774Y-36684D01*
X76839Y-36840D01*
X76958Y-36960D01*
X77115Y-37024D01*
X77284Y-37025D01*
X77440Y-36960D01*
X77560Y-36841D01*
X77624Y-36684D01*
X77625Y-36515D01*
X77625Y-54359D01*
X77333Y-54359D01*
X77024Y-54487D01*
X76936Y-54575D01*
X76827Y-54342D01*
X76379Y-53907D01*
X76312Y-53881D01*
X76312Y-33051D01*
X76312Y-32915D01*
X75996Y-32600D01*
X74850Y-32600D01*
X74850Y-33746D01*
X75165Y-34062D01*
X75301Y-34062D01*
X75765Y-33870D01*
X76120Y-33515D01*
X76312Y-33051D01*
X76312Y-53881D01*
X75880Y-53709D01*
X75943Y-53667D01*
X76071Y-53475D01*
X76116Y-53250D01*
X76071Y-53024D01*
X75943Y-52832D01*
X75752Y-52704D01*
X75526Y-52660D01*
X74973Y-52660D01*
X74747Y-52704D01*
X74556Y-52832D01*
X74511Y-52900D01*
X72094Y-52900D01*
X72497Y-52497D01*
X72573Y-52383D01*
X72600Y-52250D01*
X72600Y-50892D01*
X72694Y-50797D01*
X72725Y-50725D01*
X72725Y-50824D01*
X72763Y-50916D01*
X72833Y-50986D01*
X72925Y-51025D01*
X73024Y-51025D01*
X73574Y-51025D01*
X73666Y-50986D01*
X73736Y-50916D01*
X73764Y-50850D01*
X74105Y-50850D01*
X74225Y-50970D01*
X74224Y-51103D01*
X74304Y-51297D01*
X74452Y-51444D01*
X74645Y-51524D01*
X74853Y-51525D01*
X75047Y-51445D01*
X75194Y-51297D01*
X75274Y-51104D01*
X75275Y-50896D01*
X75275Y-47896D01*
X75195Y-47703D01*
X75047Y-47555D01*
X74854Y-47475D01*
X74646Y-47474D01*
X74453Y-47554D01*
X74305Y-47702D01*
X74225Y-47895D01*
X74224Y-48103D01*
X74304Y-48297D01*
X74452Y-48444D01*
X74645Y-48524D01*
X74853Y-48525D01*
X75047Y-48445D01*
X75194Y-48297D01*
X75274Y-48104D01*
X75275Y-47896D01*
X75275Y-50896D01*
X75195Y-50703D01*
X75047Y-50555D01*
X74854Y-50475D01*
X74719Y-50474D01*
X74497Y-50252D01*
X74383Y-50176D01*
X74250Y-50150D01*
X73764Y-50150D01*
X73736Y-50083D01*
X73666Y-50013D01*
X73574Y-49975D01*
X73475Y-49975D01*
X72925Y-49975D01*
X72833Y-50013D01*
X72763Y-50083D01*
X72725Y-50175D01*
X72725Y-50274D01*
X72725Y-50274D01*
X72695Y-50203D01*
X72600Y-50107D01*
X72600Y-48650D01*
X72573Y-48516D01*
X72573Y-48516D01*
X72497Y-48402D01*
X71797Y-47702D01*
X71683Y-47626D01*
X71550Y-47600D01*
X67556Y-47600D01*
X67556Y-34844D01*
X67532Y-34477D01*
X66750Y-33694D01*
X66555Y-33888D01*
X66555Y-33500D01*
X65772Y-32717D01*
X65405Y-32693D01*
X65210Y-33238D01*
X65195Y-33203D01*
X65047Y-33055D01*
X64854Y-32975D01*
X64646Y-32974D01*
X64453Y-33054D01*
X64305Y-33202D01*
X64225Y-33395D01*
X64224Y-33603D01*
X64304Y-33797D01*
X64452Y-33944D01*
X64645Y-34024D01*
X64853Y-34025D01*
X65047Y-33945D01*
X65194Y-33797D01*
X65221Y-33732D01*
X65229Y-33880D01*
X65405Y-34306D01*
X65772Y-34282D01*
X66555Y-33500D01*
X66555Y-33888D01*
X65967Y-34477D01*
X65943Y-34844D01*
X66519Y-35050D01*
X67130Y-35020D01*
X67556Y-34844D01*
X67556Y-47600D01*
X57294Y-47600D01*
X57000Y-47305D01*
X57000Y-44744D01*
X59894Y-41850D01*
X59919Y-41850D01*
X59950Y-41895D01*
X60131Y-42017D01*
X60346Y-42060D01*
X60653Y-42060D01*
X60868Y-42017D01*
X61049Y-41895D01*
X61100Y-41820D01*
X61100Y-43405D01*
X60855Y-43650D01*
X58851Y-43650D01*
X58841Y-43639D01*
X58684Y-43575D01*
X58515Y-43574D01*
X58359Y-43639D01*
X58239Y-43758D01*
X58175Y-43915D01*
X58174Y-44084D01*
X58239Y-44240D01*
X58358Y-44360D01*
X58515Y-44424D01*
X58684Y-44425D01*
X58840Y-44360D01*
X58850Y-44350D01*
X61000Y-44350D01*
X61133Y-44323D01*
X61133Y-44323D01*
X61247Y-44247D01*
X61697Y-43797D01*
X61700Y-43793D01*
X61700Y-44405D01*
X61455Y-44650D01*
X58777Y-44650D01*
X58661Y-44534D01*
X58459Y-44450D01*
X58241Y-44449D01*
X58038Y-44533D01*
X57884Y-44688D01*
X57800Y-44890D01*
X57799Y-45108D01*
X57883Y-45311D01*
X58038Y-45465D01*
X58119Y-45499D01*
X58038Y-45533D01*
X57884Y-45688D01*
X57800Y-45890D01*
X57799Y-46108D01*
X57883Y-46311D01*
X58038Y-46465D01*
X58119Y-46499D01*
X58038Y-46533D01*
X57884Y-46688D01*
X57800Y-46890D01*
X57799Y-47108D01*
X57883Y-47311D01*
X58038Y-47465D01*
X58240Y-47549D01*
X58458Y-47550D01*
X58661Y-47466D01*
X58777Y-47350D01*
X66050Y-47350D01*
X66183Y-47323D01*
X66183Y-47323D01*
X66297Y-47247D01*
X66847Y-46697D01*
X66923Y-46583D01*
X66950Y-46450D01*
X66950Y-39200D01*
X66950Y-38950D01*
X66950Y-38000D01*
X66950Y-37950D01*
X66923Y-37816D01*
X66847Y-37702D01*
X66733Y-37626D01*
X66718Y-37623D01*
X66397Y-37302D01*
X66283Y-37226D01*
X66150Y-37200D01*
X65436Y-37200D01*
X65359Y-37123D01*
X65500Y-36730D01*
X65470Y-36119D01*
X65412Y-35977D01*
X65500Y-35730D01*
X65470Y-35119D01*
X65294Y-34693D01*
X64927Y-34717D01*
X64559Y-35085D01*
X64273Y-34982D01*
X64732Y-34522D01*
X64756Y-34155D01*
X64180Y-33949D01*
X63569Y-33979D01*
X63143Y-34155D01*
X63167Y-34522D01*
X63621Y-34976D01*
X63569Y-34979D01*
X63332Y-35077D01*
X62972Y-34717D01*
X62605Y-34693D01*
X62410Y-35238D01*
X62395Y-35203D01*
X62247Y-35055D01*
X62115Y-35000D01*
X62161Y-34897D01*
X61887Y-34655D01*
X60725Y-34655D01*
X60725Y-34810D01*
X60275Y-34810D01*
X60275Y-34655D01*
X60050Y-34655D01*
X60050Y-34345D01*
X60275Y-34345D01*
X60275Y-34190D01*
X60725Y-34190D01*
X60725Y-34345D01*
X61887Y-34345D01*
X62161Y-34102D01*
X62115Y-33999D01*
X62247Y-33945D01*
X62394Y-33797D01*
X62474Y-33604D01*
X62475Y-33469D01*
X62594Y-33350D01*
X62657Y-33350D01*
X62752Y-33444D01*
X62945Y-33524D01*
X63153Y-33525D01*
X63347Y-33445D01*
X63494Y-33297D01*
X63574Y-33104D01*
X63575Y-32896D01*
X63495Y-32703D01*
X63347Y-32555D01*
X63154Y-32475D01*
X62946Y-32474D01*
X62753Y-32554D01*
X62657Y-32650D01*
X62450Y-32650D01*
X62316Y-32676D01*
X62300Y-32687D01*
X62300Y-31700D01*
X62273Y-31566D01*
X62273Y-31566D01*
X62197Y-31452D01*
X61716Y-30971D01*
X61845Y-31024D01*
X62053Y-31025D01*
X62247Y-30945D01*
X62342Y-30850D01*
X62400Y-30850D01*
X62533Y-30823D01*
X62533Y-30823D01*
X62562Y-30803D01*
X62525Y-30895D01*
X62524Y-31103D01*
X62604Y-31297D01*
X62752Y-31444D01*
X62945Y-31524D01*
X63153Y-31525D01*
X63347Y-31445D01*
X63494Y-31297D01*
X63562Y-31133D01*
X63578Y-31214D01*
X63700Y-31395D01*
X63855Y-31499D01*
X63700Y-31604D01*
X63578Y-31785D01*
X63536Y-32000D01*
X63578Y-32214D01*
X63700Y-32395D01*
X63881Y-32517D01*
X64096Y-32560D01*
X64403Y-32560D01*
X64618Y-32517D01*
X64799Y-32395D01*
X64921Y-32214D01*
X64963Y-32000D01*
X64921Y-31785D01*
X64799Y-31604D01*
X64644Y-31499D01*
X64799Y-31395D01*
X64921Y-31214D01*
X64963Y-31000D01*
X64921Y-30785D01*
X64799Y-30604D01*
X64644Y-30499D01*
X64799Y-30395D01*
X64921Y-30214D01*
X64963Y-30000D01*
X64921Y-29785D01*
X64799Y-29604D01*
X64644Y-29499D01*
X64799Y-29395D01*
X64921Y-29214D01*
X64963Y-29000D01*
X64921Y-28785D01*
X64799Y-28604D01*
X64618Y-28482D01*
X64403Y-28440D01*
X64096Y-28440D01*
X63881Y-28482D01*
X63700Y-28604D01*
X63669Y-28650D01*
X63342Y-28650D01*
X63247Y-28555D01*
X63182Y-28528D01*
X63330Y-28520D01*
X63756Y-28344D01*
X63732Y-27977D01*
X63700Y-27944D01*
X63794Y-27850D01*
X64357Y-27850D01*
X64452Y-27944D01*
X64645Y-28024D01*
X64853Y-28025D01*
X65047Y-27945D01*
X65194Y-27797D01*
X65274Y-27604D01*
X65275Y-27396D01*
X65195Y-27203D01*
X65047Y-27055D01*
X65037Y-27050D01*
X65032Y-26977D01*
X64396Y-26340D01*
X64451Y-26285D01*
X64134Y-25968D01*
X64239Y-25849D01*
X64262Y-25793D01*
X64347Y-25708D01*
X64541Y-25902D01*
X64444Y-26000D01*
X65227Y-26782D01*
X65594Y-26806D01*
X65789Y-26261D01*
X65804Y-26297D01*
X65952Y-26444D01*
X66145Y-26524D01*
X66353Y-26525D01*
X66547Y-26445D01*
X66694Y-26297D01*
X66750Y-26164D01*
X66804Y-26297D01*
X66952Y-26444D01*
X67145Y-26524D01*
X67353Y-26525D01*
X67547Y-26445D01*
X67694Y-26297D01*
X67774Y-26104D01*
X67775Y-25896D01*
X67695Y-25703D01*
X67547Y-25555D01*
X67354Y-25475D01*
X67146Y-25474D01*
X66953Y-25554D01*
X66805Y-25702D01*
X66749Y-25835D01*
X66695Y-25703D01*
X66547Y-25555D01*
X66354Y-25475D01*
X66146Y-25474D01*
X65953Y-25554D01*
X65805Y-25702D01*
X65778Y-25767D01*
X65770Y-25619D01*
X65667Y-25369D01*
X65751Y-25285D01*
X65556Y-25090D01*
X65497Y-25002D01*
X64600Y-24105D01*
X64600Y-23392D01*
X64694Y-23297D01*
X64750Y-23164D01*
X64804Y-23297D01*
X64952Y-23444D01*
X65145Y-23524D01*
X65353Y-23525D01*
X65547Y-23445D01*
X65694Y-23297D01*
X65750Y-23164D01*
X65804Y-23297D01*
X65952Y-23444D01*
X66145Y-23524D01*
X66353Y-23525D01*
X66547Y-23445D01*
X66642Y-23350D01*
X68005Y-23350D01*
X68200Y-23545D01*
X68199Y-23708D01*
X68283Y-23911D01*
X68422Y-24050D01*
X68400Y-24050D01*
X68308Y-24088D01*
X68238Y-24158D01*
X68200Y-24250D01*
X68200Y-24349D01*
X68200Y-24949D01*
X68238Y-25041D01*
X68308Y-25111D01*
X68400Y-25150D01*
X68499Y-25150D01*
X69099Y-25150D01*
X69191Y-25111D01*
X69261Y-25041D01*
X69300Y-24949D01*
X69300Y-24850D01*
X69300Y-24250D01*
X69261Y-24158D01*
X69191Y-24088D01*
X69099Y-24050D01*
X69077Y-24050D01*
X69215Y-23911D01*
X69299Y-23709D01*
X69300Y-23491D01*
X69216Y-23288D01*
X69061Y-23134D01*
X68859Y-23050D01*
X68694Y-23049D01*
X68397Y-22752D01*
X68283Y-22676D01*
X68150Y-22650D01*
X66642Y-22650D01*
X66547Y-22555D01*
X66354Y-22475D01*
X66146Y-22474D01*
X65953Y-22554D01*
X65805Y-22702D01*
X65749Y-22835D01*
X65695Y-22703D01*
X65547Y-22555D01*
X65354Y-22475D01*
X65146Y-22474D01*
X64953Y-22554D01*
X64805Y-22702D01*
X64749Y-22835D01*
X64695Y-22703D01*
X64547Y-22555D01*
X64354Y-22475D01*
X64146Y-22474D01*
X64056Y-22511D01*
X64056Y-20044D01*
X64032Y-19677D01*
X63250Y-18894D01*
X62467Y-19677D01*
X62443Y-20044D01*
X63019Y-20250D01*
X63630Y-20220D01*
X64056Y-20044D01*
X64056Y-22511D01*
X63953Y-22554D01*
X63805Y-22702D01*
X63725Y-22895D01*
X63724Y-23103D01*
X63804Y-23297D01*
X63900Y-23392D01*
X63900Y-23862D01*
X63827Y-23780D01*
X63406Y-23571D01*
X63406Y-23447D01*
X63154Y-23447D01*
X63150Y-23425D01*
X63079Y-23320D01*
X63079Y-23320D01*
X63079Y-23320D01*
X62779Y-23020D01*
X62674Y-22949D01*
X62550Y-22925D01*
X61450Y-22925D01*
X61450Y-22924D01*
X61325Y-22949D01*
X61220Y-23020D01*
X60900Y-23340D01*
X60900Y-21291D01*
X61310Y-21121D01*
X61291Y-20753D01*
X61050Y-20512D01*
X61050Y-20400D01*
X61011Y-20308D01*
X60941Y-20238D01*
X60849Y-20200D01*
X60750Y-20200D01*
X60737Y-20200D01*
X60500Y-19962D01*
X60262Y-20200D01*
X60150Y-20200D01*
X60058Y-20238D01*
X59988Y-20308D01*
X59950Y-20400D01*
X59950Y-20499D01*
X59950Y-20512D01*
X59708Y-20753D01*
X59689Y-21121D01*
X60041Y-21245D01*
X60058Y-21261D01*
X60100Y-21279D01*
X60100Y-26100D01*
X60073Y-25966D01*
X59997Y-25852D01*
X57900Y-23755D01*
X57900Y-19601D01*
X58069Y-19432D01*
X57980Y-19343D01*
X58093Y-19021D01*
X58238Y-19165D01*
X58440Y-19249D01*
X58658Y-19250D01*
X58861Y-19166D01*
X58977Y-19050D01*
X59013Y-19050D01*
X59069Y-19106D01*
X58922Y-19525D01*
X58956Y-20146D01*
X59128Y-20560D01*
X59496Y-20541D01*
X60287Y-19750D01*
X60181Y-19643D01*
X60393Y-19431D01*
X60500Y-19537D01*
X61291Y-18746D01*
X61301Y-18550D01*
X61703Y-18550D01*
X61722Y-18947D01*
X61503Y-18958D01*
X60712Y-19750D01*
X61503Y-20541D01*
X61871Y-20560D01*
X62077Y-19974D01*
X62051Y-19497D01*
X62272Y-19482D01*
X63055Y-18700D01*
X62958Y-18602D01*
X63011Y-18550D01*
X63488Y-18550D01*
X63541Y-18602D01*
X63444Y-18700D01*
X64227Y-19482D01*
X64594Y-19506D01*
X64789Y-18961D01*
X64804Y-18997D01*
X64952Y-19144D01*
X65145Y-19224D01*
X65353Y-19225D01*
X65547Y-19145D01*
X65694Y-18997D01*
X65774Y-18804D01*
X65775Y-18596D01*
X65756Y-18550D01*
X66443Y-18550D01*
X66425Y-18595D01*
X66424Y-18803D01*
X66504Y-18997D01*
X66652Y-19144D01*
X66845Y-19224D01*
X67053Y-19225D01*
X67247Y-19145D01*
X67394Y-18997D01*
X67474Y-18804D01*
X67475Y-18596D01*
X67395Y-18403D01*
X67277Y-18284D01*
X67273Y-18266D01*
X67262Y-18250D01*
X67584Y-18250D01*
X68481Y-19147D01*
X68303Y-19156D01*
X67889Y-19328D01*
X67908Y-19696D01*
X68700Y-20487D01*
X68806Y-20381D01*
X69018Y-20593D01*
X68912Y-20700D01*
X69703Y-21491D01*
X70071Y-21510D01*
X70277Y-20924D01*
X70276Y-20905D01*
X70296Y-20919D01*
X70296Y-20919D01*
X70450Y-20950D01*
X70904Y-20950D01*
X70772Y-21325D01*
X70806Y-21946D01*
X70978Y-22360D01*
X71346Y-22341D01*
X72137Y-21550D01*
X72031Y-21443D01*
X72243Y-21231D01*
X72350Y-21337D01*
X73141Y-20546D01*
X73160Y-20178D01*
X72574Y-19972D01*
X71953Y-20006D01*
X71699Y-20112D01*
X71617Y-20030D01*
X71498Y-20150D01*
X70615Y-20150D01*
X70475Y-20009D01*
X70475Y-18596D01*
X70395Y-18403D01*
X70247Y-18255D01*
X70054Y-18175D01*
X69846Y-18174D01*
X69653Y-18254D01*
X69505Y-18402D01*
X69425Y-18595D01*
X69424Y-18803D01*
X69504Y-18997D01*
X69652Y-19144D01*
X69845Y-19224D01*
X70053Y-19225D01*
X70247Y-19145D01*
X70394Y-18997D01*
X70474Y-18804D01*
X70475Y-18596D01*
X70475Y-20009D01*
X68032Y-17567D01*
X67967Y-17523D01*
X78738Y-17523D01*
X78738Y-21769D01*
X78620Y-21484D01*
X78340Y-21205D01*
X78340Y-18533D01*
X78212Y-18224D01*
X77976Y-17987D01*
X77667Y-17859D01*
X77333Y-17859D01*
X77024Y-17987D01*
X76787Y-18223D01*
X76659Y-18532D01*
X76659Y-18866D01*
X76787Y-19175D01*
X77023Y-19412D01*
X77332Y-19540D01*
X77666Y-19540D01*
X77975Y-19412D01*
X78212Y-19176D01*
X78340Y-18867D01*
X78340Y-18533D01*
X78340Y-21205D01*
X78265Y-21129D01*
X77801Y-20937D01*
X77706Y-20937D01*
X77665Y-20937D01*
X77150Y-20937D01*
X77150Y-20937D01*
X77149Y-20937D01*
X76634Y-20937D01*
X76593Y-20937D01*
X76498Y-20937D01*
X76034Y-21129D01*
X75679Y-21484D01*
X75508Y-21898D01*
X75444Y-21743D01*
X75077Y-21767D01*
X74906Y-21937D01*
X74906Y-21205D01*
X74361Y-21010D01*
X74397Y-20995D01*
X74544Y-20847D01*
X74624Y-20654D01*
X74625Y-20446D01*
X74545Y-20253D01*
X74397Y-20105D01*
X74204Y-20025D01*
X73996Y-20024D01*
X73850Y-20085D01*
X73850Y-18591D01*
X73766Y-18388D01*
X73611Y-18234D01*
X73409Y-18150D01*
X73191Y-18149D01*
X72988Y-18233D01*
X72834Y-18388D01*
X72800Y-18469D01*
X72766Y-18388D01*
X72611Y-18234D01*
X72409Y-18150D01*
X72191Y-18149D01*
X71988Y-18233D01*
X71834Y-18388D01*
X71800Y-18469D01*
X71766Y-18388D01*
X71611Y-18234D01*
X71409Y-18150D01*
X71191Y-18149D01*
X70988Y-18233D01*
X70834Y-18388D01*
X70750Y-18590D01*
X70749Y-18808D01*
X70833Y-19011D01*
X70988Y-19165D01*
X71190Y-19249D01*
X71408Y-19250D01*
X71611Y-19166D01*
X71765Y-19011D01*
X71799Y-18930D01*
X71833Y-19011D01*
X71988Y-19165D01*
X72190Y-19249D01*
X72408Y-19250D01*
X72611Y-19166D01*
X72765Y-19011D01*
X72799Y-18930D01*
X72833Y-19011D01*
X72988Y-19165D01*
X73190Y-19249D01*
X73408Y-19250D01*
X73611Y-19166D01*
X73765Y-19011D01*
X73849Y-18809D01*
X73850Y-18591D01*
X73850Y-20085D01*
X73803Y-20104D01*
X73655Y-20252D01*
X73575Y-20445D01*
X73574Y-20653D01*
X73612Y-20744D01*
X73353Y-20758D01*
X72562Y-21550D01*
X72668Y-21656D01*
X72456Y-21868D01*
X72350Y-21762D01*
X71558Y-22553D01*
X71539Y-22921D01*
X72125Y-23127D01*
X72648Y-23098D01*
X72755Y-23356D01*
X73122Y-23332D01*
X73905Y-22550D01*
X73808Y-22452D01*
X74002Y-22258D01*
X74100Y-22355D01*
X74882Y-21572D01*
X74906Y-21205D01*
X74906Y-21937D01*
X74294Y-22550D01*
X74391Y-22647D01*
X74197Y-22841D01*
X74100Y-22744D01*
X73317Y-23527D01*
X73293Y-23894D01*
X73860Y-24097D01*
X73799Y-24269D01*
X73829Y-24880D01*
X73932Y-25130D01*
X73874Y-25188D01*
X73870Y-25119D01*
X73694Y-24693D01*
X73327Y-24717D01*
X73156Y-24887D01*
X73156Y-24155D01*
X72580Y-23949D01*
X71969Y-23979D01*
X71543Y-24155D01*
X71547Y-24222D01*
X71547Y-24222D01*
X71502Y-24252D01*
X71058Y-24696D01*
X71005Y-24693D01*
X70974Y-24780D01*
X70279Y-25475D01*
X70146Y-25474D01*
X69953Y-25554D01*
X69805Y-25702D01*
X69725Y-25895D01*
X69724Y-26103D01*
X69804Y-26297D01*
X69900Y-26392D01*
X69900Y-26979D01*
X69864Y-27003D01*
X69746Y-27180D01*
X69704Y-27389D01*
X69704Y-27610D01*
X69746Y-27819D01*
X69864Y-27996D01*
X70041Y-28114D01*
X70250Y-28156D01*
X70458Y-28114D01*
X70635Y-27996D01*
X70753Y-27819D01*
X70795Y-27610D01*
X70795Y-27389D01*
X70753Y-27180D01*
X70635Y-27003D01*
X70600Y-26979D01*
X70600Y-26392D01*
X70694Y-26297D01*
X70774Y-26104D01*
X70775Y-25969D01*
X70839Y-25905D01*
X71005Y-26306D01*
X71372Y-26282D01*
X72155Y-25500D01*
X71700Y-25044D01*
X71894Y-24850D01*
X72350Y-25305D01*
X73132Y-24522D01*
X73156Y-24155D01*
X73156Y-24887D01*
X72544Y-25500D01*
X72641Y-25597D01*
X72447Y-25791D01*
X72350Y-25694D01*
X72070Y-25974D01*
X71969Y-25979D01*
X71543Y-26155D01*
X71565Y-26500D01*
X71543Y-26844D01*
X72081Y-27037D01*
X72350Y-27305D01*
X72447Y-27208D01*
X72641Y-27402D01*
X72544Y-27500D01*
X73327Y-28282D01*
X73694Y-28306D01*
X73900Y-27730D01*
X73870Y-27119D01*
X73767Y-26869D01*
X73851Y-26785D01*
X73705Y-26639D01*
X74226Y-26118D01*
X74200Y-26250D01*
X74200Y-29050D01*
X74226Y-29183D01*
X74302Y-29297D01*
X74305Y-29300D01*
X73156Y-29300D01*
X73156Y-28844D01*
X73132Y-28477D01*
X72350Y-27694D01*
X72252Y-27791D01*
X72058Y-27597D01*
X72155Y-27500D01*
X71372Y-26717D01*
X71005Y-26693D01*
X70799Y-27269D01*
X70829Y-27880D01*
X70888Y-28024D01*
X70753Y-28114D01*
X70635Y-28291D01*
X70593Y-28500D01*
X70635Y-28708D01*
X70753Y-28885D01*
X70930Y-29003D01*
X71139Y-29045D01*
X71360Y-29045D01*
X71569Y-29003D01*
X71610Y-28976D01*
X71635Y-29001D01*
X71726Y-28909D01*
X72119Y-29050D01*
X72730Y-29020D01*
X73156Y-28844D01*
X73156Y-29300D01*
X71600Y-29300D01*
X71466Y-29326D01*
X71352Y-29402D01*
X70779Y-29975D01*
X70650Y-29974D01*
X70753Y-29819D01*
X70795Y-29610D01*
X70795Y-29389D01*
X70753Y-29180D01*
X70635Y-29003D01*
X70458Y-28885D01*
X70250Y-28843D01*
X70041Y-28885D01*
X69864Y-29003D01*
X69766Y-29150D01*
X69510Y-29150D01*
X69510Y-22071D01*
X69491Y-21703D01*
X69250Y-21462D01*
X69250Y-21350D01*
X69211Y-21258D01*
X69141Y-21188D01*
X69049Y-21150D01*
X68950Y-21150D01*
X68937Y-21150D01*
X68700Y-20912D01*
X68487Y-21124D01*
X68487Y-20700D01*
X67696Y-19908D01*
X67328Y-19889D01*
X67122Y-20475D01*
X67156Y-21096D01*
X67328Y-21510D01*
X67696Y-21491D01*
X68487Y-20700D01*
X68487Y-21124D01*
X68462Y-21150D01*
X68350Y-21150D01*
X68258Y-21188D01*
X68188Y-21258D01*
X68150Y-21350D01*
X68150Y-21449D01*
X68150Y-21462D01*
X67908Y-21703D01*
X67889Y-22071D01*
X68241Y-22195D01*
X68258Y-22211D01*
X68350Y-22250D01*
X68397Y-22250D01*
X68475Y-22277D01*
X68971Y-22250D01*
X69049Y-22250D01*
X69061Y-22245D01*
X69096Y-22243D01*
X69510Y-22071D01*
X69510Y-29150D01*
X69275Y-29150D01*
X69275Y-26896D01*
X69195Y-26703D01*
X69047Y-26555D01*
X68854Y-26475D01*
X68646Y-26474D01*
X68453Y-26554D01*
X68305Y-26702D01*
X68225Y-26895D01*
X68224Y-27103D01*
X68304Y-27297D01*
X68452Y-27444D01*
X68645Y-27524D01*
X68853Y-27525D01*
X69047Y-27445D01*
X69194Y-27297D01*
X69274Y-27104D01*
X69275Y-26896D01*
X69275Y-29150D01*
X69200Y-29150D01*
X69066Y-29176D01*
X68952Y-29252D01*
X68911Y-29293D01*
X68856Y-29348D01*
X68637Y-29155D01*
X67475Y-29155D01*
X67475Y-29310D01*
X67025Y-29310D01*
X67025Y-29155D01*
X66600Y-29155D01*
X66600Y-28845D01*
X67025Y-28845D01*
X67025Y-28690D01*
X67475Y-28690D01*
X67475Y-28845D01*
X68637Y-28845D01*
X68911Y-28602D01*
X68707Y-28147D01*
X68280Y-27708D01*
X67806Y-27503D01*
X67806Y-27427D01*
X67275Y-27427D01*
X67275Y-27396D01*
X67195Y-27203D01*
X67047Y-27055D01*
X66854Y-26975D01*
X66646Y-26974D01*
X66453Y-27054D01*
X66305Y-27202D01*
X66225Y-27395D01*
X66224Y-27530D01*
X66002Y-27752D01*
X65926Y-27866D01*
X65900Y-28000D01*
X65900Y-28037D01*
X65792Y-28147D01*
X65588Y-28602D01*
X65862Y-28845D01*
X65900Y-28845D01*
X65900Y-29155D01*
X65862Y-29155D01*
X65588Y-29397D01*
X65792Y-29852D01*
X65900Y-29962D01*
X65900Y-31750D01*
X65926Y-31883D01*
X66002Y-31997D01*
X66097Y-32092D01*
X65943Y-32155D01*
X65967Y-32522D01*
X66750Y-33305D01*
X66847Y-33208D01*
X67041Y-33402D01*
X66944Y-33500D01*
X67727Y-34282D01*
X68094Y-34306D01*
X68300Y-33730D01*
X68282Y-33350D01*
X68357Y-33350D01*
X68452Y-33444D01*
X68645Y-33524D01*
X68793Y-33525D01*
X68866Y-33573D01*
X68866Y-33573D01*
X69000Y-33600D01*
X69224Y-33600D01*
X69224Y-33603D01*
X69304Y-33797D01*
X69452Y-33944D01*
X69645Y-34024D01*
X69853Y-34025D01*
X70047Y-33945D01*
X70142Y-33850D01*
X70357Y-33850D01*
X70452Y-33944D01*
X70645Y-34024D01*
X70853Y-34025D01*
X71047Y-33945D01*
X71194Y-33797D01*
X71250Y-33664D01*
X71304Y-33797D01*
X71452Y-33944D01*
X71645Y-34024D01*
X71853Y-34025D01*
X72047Y-33945D01*
X72142Y-33850D01*
X72250Y-33850D01*
X72383Y-33823D01*
X72383Y-33823D01*
X72497Y-33747D01*
X72720Y-33524D01*
X72853Y-33525D01*
X73047Y-33445D01*
X73120Y-33372D01*
X73179Y-33515D01*
X73534Y-33870D01*
X73998Y-34062D01*
X74134Y-34062D01*
X74450Y-33746D01*
X74450Y-32600D01*
X74250Y-32600D01*
X74250Y-32200D01*
X74450Y-32200D01*
X74450Y-32022D01*
X74650Y-32062D01*
X74850Y-32022D01*
X74850Y-32200D01*
X75996Y-32200D01*
X76312Y-31884D01*
X76312Y-31748D01*
X76120Y-31284D01*
X75765Y-30929D01*
X75301Y-30737D01*
X75206Y-30737D01*
X75165Y-30737D01*
X74650Y-30737D01*
X74650Y-30737D01*
X74649Y-30737D01*
X74276Y-30737D01*
X74270Y-30619D01*
X74167Y-30369D01*
X74251Y-30285D01*
X73965Y-30000D01*
X76700Y-30000D01*
X76833Y-29973D01*
X76833Y-29973D01*
X76947Y-29897D01*
X77397Y-29447D01*
X77473Y-29333D01*
X77473Y-29333D01*
X77500Y-29200D01*
X77500Y-29049D01*
X77591Y-29011D01*
X77661Y-28941D01*
X77700Y-28849D01*
X77700Y-28750D01*
X77700Y-28150D01*
X77661Y-28058D01*
X77591Y-27988D01*
X77499Y-27950D01*
X77477Y-27950D01*
X77615Y-27811D01*
X77699Y-27609D01*
X77700Y-27391D01*
X77616Y-27188D01*
X77461Y-27034D01*
X77259Y-26950D01*
X77041Y-26949D01*
X76838Y-27033D01*
X76722Y-27150D01*
X76450Y-27150D01*
X76316Y-27176D01*
X76202Y-27252D01*
X75952Y-27502D01*
X75876Y-27616D01*
X75850Y-27750D01*
X75850Y-28335D01*
X75795Y-28203D01*
X75700Y-28107D01*
X75700Y-27892D01*
X75794Y-27797D01*
X75874Y-27604D01*
X75875Y-27396D01*
X75795Y-27203D01*
X75700Y-27107D01*
X75700Y-27014D01*
X75766Y-26986D01*
X75836Y-26916D01*
X75864Y-26850D01*
X76250Y-26850D01*
X76383Y-26823D01*
X76383Y-26823D01*
X76497Y-26747D01*
X77181Y-26063D01*
X77421Y-26050D01*
X77499Y-26050D01*
X77511Y-26045D01*
X77546Y-26043D01*
X77960Y-25871D01*
X77941Y-25503D01*
X77700Y-25262D01*
X77700Y-25150D01*
X77661Y-25058D01*
X77591Y-24988D01*
X77499Y-24950D01*
X77400Y-24950D01*
X77387Y-24950D01*
X77150Y-24712D01*
X77043Y-24818D01*
X76897Y-24672D01*
X76891Y-24546D01*
X76937Y-24500D01*
X76886Y-24449D01*
X76881Y-24343D01*
X76963Y-24262D01*
X77124Y-24262D01*
X77150Y-24287D01*
X77175Y-24262D01*
X77336Y-24262D01*
X77468Y-24393D01*
X77362Y-24500D01*
X78153Y-25291D01*
X78521Y-25310D01*
X78727Y-24724D01*
X78693Y-24103D01*
X78587Y-23849D01*
X78669Y-23767D01*
X78618Y-23716D01*
X78620Y-23715D01*
X78738Y-23430D01*
X78738Y-56353D01*
M02*
