%FSLAX34Y34*%
G04 Gerber Fmt 3.4, Leading zero omitted, Abs format*
G04 (created by PCBNEW (2014-03-19 BZR 4756)-product) date Sat 27 Dec 2014 10:23:05 GMT*
%MOIN*%
G01*
G70*
G90*
G04 APERTURE LIST*
%ADD10C,0.005906*%
%ADD11C,0.007874*%
%ADD12C,0.012000*%
G04 APERTURE END LIST*
G54D10*
G54D11*
X77390Y-31900D02*
G75*
G03X77390Y-31900I-1990J0D01*
G74*
G01*
X62215Y-29750D02*
G75*
G03X62215Y-29750I-10965J0D01*
G74*
G01*
G54D10*
X63880Y-19659D02*
X64156Y-19659D01*
X64156Y-19659D02*
X64156Y-19757D01*
X64156Y-20761D02*
X64156Y-20840D01*
X64156Y-20840D02*
X63880Y-20840D01*
X52250Y-49750D02*
X52250Y-42250D01*
X52250Y-42250D02*
X42750Y-42250D01*
X42750Y-42250D02*
X42750Y-49750D01*
X42750Y-49750D02*
X52250Y-49750D01*
X72950Y-20500D02*
X72800Y-20400D01*
X71690Y-22600D02*
X71875Y-22680D01*
X72895Y-22650D02*
X72825Y-22680D01*
X71710Y-20505D02*
X71875Y-20435D01*
X71100Y-21550D02*
X71100Y-21350D01*
X71100Y-21350D02*
X71150Y-21150D01*
X71150Y-21150D02*
X71250Y-20950D01*
X71250Y-20950D02*
X71350Y-20800D01*
X71350Y-20800D02*
X71500Y-20650D01*
X71500Y-20650D02*
X71700Y-20500D01*
X71700Y-22600D02*
X71450Y-22450D01*
X71450Y-22450D02*
X71300Y-22200D01*
X71300Y-22200D02*
X71200Y-22050D01*
X71200Y-22050D02*
X71150Y-21850D01*
X71150Y-21850D02*
X71100Y-21650D01*
X71100Y-21650D02*
X71100Y-21550D01*
X72950Y-22600D02*
X72850Y-22650D01*
X72950Y-22600D02*
X72950Y-20500D01*
X73350Y-19300D02*
X73450Y-19150D01*
X71250Y-18040D02*
X71170Y-18225D01*
X71200Y-19245D02*
X71170Y-19175D01*
X73345Y-18060D02*
X73415Y-18225D01*
X72300Y-17450D02*
X72500Y-17450D01*
X72500Y-17450D02*
X72700Y-17500D01*
X72700Y-17500D02*
X72900Y-17600D01*
X72900Y-17600D02*
X73050Y-17700D01*
X73050Y-17700D02*
X73200Y-17850D01*
X73200Y-17850D02*
X73350Y-18050D01*
X71250Y-18050D02*
X71400Y-17800D01*
X71400Y-17800D02*
X71650Y-17650D01*
X71650Y-17650D02*
X71800Y-17550D01*
X71800Y-17550D02*
X72000Y-17500D01*
X72000Y-17500D02*
X72200Y-17450D01*
X72200Y-17450D02*
X72300Y-17450D01*
X71250Y-19300D02*
X71200Y-19200D01*
X71250Y-19300D02*
X73350Y-19300D01*
X56500Y-18100D02*
X56450Y-18200D01*
X58600Y-18100D02*
X58650Y-18200D01*
X58705Y-19210D02*
X58625Y-19355D01*
X58625Y-19355D02*
X58505Y-19545D01*
X58505Y-19545D02*
X58315Y-19745D01*
X58315Y-19745D02*
X58065Y-19900D01*
X58065Y-19900D02*
X57770Y-20000D01*
X57770Y-20000D02*
X57540Y-20020D01*
X57540Y-20020D02*
X57220Y-19975D01*
X57220Y-19975D02*
X57015Y-19900D01*
X57015Y-19900D02*
X56795Y-19745D01*
X56795Y-19745D02*
X56610Y-19565D01*
X56610Y-19565D02*
X56495Y-19395D01*
X56495Y-19395D02*
X56410Y-19225D01*
X58600Y-18100D02*
X56500Y-18100D01*
X69650Y-29450D02*
X69725Y-29495D01*
X71350Y-29000D02*
X71305Y-29090D01*
X71305Y-29090D02*
X71250Y-29170D01*
X71250Y-29170D02*
X71160Y-29300D01*
X71160Y-29300D02*
X71015Y-29425D01*
X71015Y-29425D02*
X70915Y-29505D01*
X70915Y-29505D02*
X70810Y-29565D01*
X70810Y-29565D02*
X70740Y-29595D01*
X70740Y-27410D02*
X70840Y-27460D01*
X70840Y-27460D02*
X70945Y-27520D01*
X70945Y-27520D02*
X71070Y-27615D01*
X71070Y-27615D02*
X71160Y-27710D01*
X71160Y-27710D02*
X71265Y-27850D01*
X71265Y-27850D02*
X71330Y-27965D01*
X71330Y-27965D02*
X71350Y-28020D01*
X71350Y-28020D02*
X71355Y-28020D01*
X69650Y-27550D02*
X69775Y-27475D01*
X69650Y-28500D02*
X69650Y-29450D01*
X69650Y-28500D02*
X69650Y-27550D01*
X70000Y-24100D02*
G75*
G03X70000Y-24100I-1250J0D01*
G74*
G01*
X78400Y-25000D02*
G75*
G03X78400Y-25000I-1250J0D01*
G74*
G01*
X45200Y-25850D02*
G75*
G03X45200Y-25850I-1250J0D01*
G74*
G01*
X78400Y-28000D02*
G75*
G03X78400Y-28000I-1250J0D01*
G74*
G01*
X42500Y-25900D02*
G75*
G03X42500Y-25900I-1250J0D01*
G74*
G01*
X61750Y-20250D02*
G75*
G03X61750Y-20250I-1250J0D01*
G74*
G01*
X69950Y-21200D02*
G75*
G03X69950Y-21200I-1250J0D01*
G74*
G01*
X75350Y-26500D02*
X75050Y-26500D01*
X75050Y-26500D02*
X75050Y-26100D01*
X75050Y-26100D02*
X72650Y-26100D01*
X72650Y-26100D02*
X72650Y-26500D01*
X72650Y-26500D02*
X72350Y-26500D01*
X72650Y-26500D02*
X72650Y-26900D01*
X72650Y-26900D02*
X75050Y-26900D01*
X75050Y-26900D02*
X75050Y-26500D01*
X74850Y-26100D02*
X74850Y-26900D01*
X74750Y-26900D02*
X74750Y-26100D01*
X75350Y-25500D02*
X75050Y-25500D01*
X75050Y-25500D02*
X75050Y-25100D01*
X75050Y-25100D02*
X72650Y-25100D01*
X72650Y-25100D02*
X72650Y-25500D01*
X72650Y-25500D02*
X72350Y-25500D01*
X72650Y-25500D02*
X72650Y-25900D01*
X72650Y-25900D02*
X75050Y-25900D01*
X75050Y-25900D02*
X75050Y-25500D01*
X74850Y-25100D02*
X74850Y-25900D01*
X74750Y-25900D02*
X74750Y-25100D01*
X46750Y-50500D02*
G75*
G03X46750Y-50500I-1000J0D01*
G74*
G01*
X44750Y-50750D02*
X45000Y-50750D01*
X45000Y-50750D02*
X45000Y-50250D01*
X45000Y-50250D02*
X44750Y-50250D01*
X73750Y-50500D02*
G75*
G03X73750Y-50500I-1000J0D01*
G74*
G01*
X71750Y-50750D02*
X72000Y-50750D01*
X72000Y-50750D02*
X72000Y-50250D01*
X72000Y-50250D02*
X71750Y-50250D01*
X67000Y-50500D02*
G75*
G03X67000Y-50500I-1000J0D01*
G74*
G01*
X65000Y-50750D02*
X65250Y-50750D01*
X65250Y-50750D02*
X65250Y-50250D01*
X65250Y-50250D02*
X65000Y-50250D01*
X60000Y-27500D02*
X60000Y-42500D01*
X60000Y-42500D02*
X58000Y-42500D01*
X58000Y-42500D02*
X58000Y-27500D01*
X58000Y-27500D02*
X60000Y-27500D01*
X59500Y-27500D02*
X59500Y-28000D01*
X59500Y-28000D02*
X58500Y-28000D01*
X58500Y-28000D02*
X58500Y-27500D01*
X54850Y-18700D02*
X54450Y-18700D01*
X54450Y-18700D02*
X54450Y-19100D01*
X54450Y-19100D02*
X51250Y-19100D01*
X51250Y-19100D02*
X51250Y-18300D01*
X51250Y-18300D02*
X54450Y-18300D01*
X54450Y-18300D02*
X54450Y-18700D01*
X54450Y-18900D02*
X54250Y-19100D01*
X50850Y-18700D02*
X51250Y-18700D01*
X43950Y-21500D02*
X44450Y-21500D01*
X44450Y-21500D02*
X44450Y-22500D01*
X44450Y-22500D02*
X43950Y-22500D01*
X43950Y-21000D02*
X47950Y-21000D01*
X47950Y-21000D02*
X47950Y-23000D01*
X47950Y-23000D02*
X43950Y-23000D01*
X43950Y-23000D02*
X43950Y-21000D01*
X65250Y-32500D02*
X65250Y-32000D01*
X65250Y-32000D02*
X66250Y-32000D01*
X66250Y-32000D02*
X66250Y-32500D01*
X64750Y-32500D02*
X64750Y-28500D01*
X64750Y-28500D02*
X66750Y-28500D01*
X66750Y-28500D02*
X66750Y-32500D01*
X66750Y-32500D02*
X64750Y-32500D01*
X54894Y-39850D02*
X54736Y-39929D01*
X54736Y-39929D02*
X54500Y-39969D01*
X54500Y-39969D02*
X54303Y-39929D01*
X54303Y-39929D02*
X54028Y-39772D01*
X54028Y-39772D02*
X53870Y-39535D01*
X53870Y-39535D02*
X53791Y-39299D01*
X53791Y-39299D02*
X53791Y-36701D01*
X53791Y-36701D02*
X53870Y-36425D01*
X53870Y-36425D02*
X53988Y-36268D01*
X53988Y-36268D02*
X54185Y-36110D01*
X54185Y-36110D02*
X54421Y-36031D01*
X54421Y-36031D02*
X54618Y-36031D01*
X54618Y-36031D02*
X54815Y-36110D01*
X54815Y-36110D02*
X55051Y-36307D01*
X55051Y-36307D02*
X55169Y-36504D01*
X55169Y-36504D02*
X55209Y-36701D01*
X55209Y-36740D02*
X55209Y-39339D01*
X55209Y-39339D02*
X55169Y-39496D01*
X55169Y-39496D02*
X55051Y-39693D01*
X55051Y-39693D02*
X54854Y-39890D01*
X55417Y-36744D02*
X55398Y-36563D01*
X55398Y-36563D02*
X55354Y-36406D01*
X55354Y-36406D02*
X55268Y-36236D01*
X55268Y-36236D02*
X55177Y-36122D01*
X55177Y-36122D02*
X55039Y-35992D01*
X55039Y-35992D02*
X54827Y-35878D01*
X54827Y-35878D02*
X54591Y-35827D01*
X54591Y-35827D02*
X54390Y-35827D01*
X54390Y-35827D02*
X54114Y-35894D01*
X54114Y-35894D02*
X53882Y-36051D01*
X53882Y-36051D02*
X53736Y-36232D01*
X53736Y-36232D02*
X53654Y-36398D01*
X53654Y-36398D02*
X53591Y-36575D01*
X53591Y-36575D02*
X53579Y-36748D01*
X53665Y-39638D02*
X53752Y-39787D01*
X53752Y-39787D02*
X53862Y-39913D01*
X53862Y-39913D02*
X53992Y-40012D01*
X53992Y-40012D02*
X54209Y-40130D01*
X54209Y-40130D02*
X54394Y-40173D01*
X54394Y-40173D02*
X54575Y-40181D01*
X54575Y-40181D02*
X54756Y-40146D01*
X54756Y-40146D02*
X54933Y-40071D01*
X54933Y-40071D02*
X55118Y-39929D01*
X55118Y-39929D02*
X55244Y-39791D01*
X55244Y-39791D02*
X55335Y-39638D01*
X55335Y-39638D02*
X55390Y-39469D01*
X55390Y-39469D02*
X55417Y-39295D01*
X53583Y-36740D02*
X53583Y-39280D01*
X53583Y-39280D02*
X53598Y-39445D01*
X53598Y-39445D02*
X53665Y-39638D01*
X55417Y-36740D02*
X55417Y-39280D01*
X53500Y-50500D02*
G75*
G03X53500Y-50500I-1000J0D01*
G74*
G01*
X51500Y-50750D02*
X51750Y-50750D01*
X51750Y-50750D02*
X51750Y-50250D01*
X51750Y-50250D02*
X51500Y-50250D01*
X75150Y-31900D02*
X74150Y-31900D01*
X75150Y-32900D02*
X74150Y-32900D01*
X74150Y-32900D02*
X74150Y-31900D01*
X74150Y-31900D02*
X74150Y-30900D01*
X74150Y-30900D02*
X75150Y-30900D01*
X75150Y-30900D02*
X75150Y-32900D01*
X40250Y-28650D02*
X41250Y-28650D01*
X40250Y-27650D02*
X41250Y-27650D01*
X41250Y-27650D02*
X41250Y-28650D01*
X41250Y-28650D02*
X41250Y-29650D01*
X41250Y-29650D02*
X40250Y-29650D01*
X40250Y-29650D02*
X40250Y-27650D01*
X77650Y-22100D02*
X76650Y-22100D01*
X77650Y-23100D02*
X76650Y-23100D01*
X76650Y-23100D02*
X76650Y-22100D01*
X76650Y-22100D02*
X76650Y-21100D01*
X76650Y-21100D02*
X77650Y-21100D01*
X77650Y-21100D02*
X77650Y-23100D01*
X64500Y-38000D02*
X64500Y-39000D01*
X64500Y-39000D02*
X65500Y-39000D01*
X65500Y-38000D02*
X65500Y-41000D01*
X65500Y-41000D02*
X63500Y-41000D01*
X63500Y-41000D02*
X63500Y-39000D01*
X65500Y-38000D02*
X64500Y-38000D01*
X63500Y-38000D02*
X64500Y-38000D01*
X63500Y-39000D02*
X63500Y-38000D01*
X55600Y-28900D02*
X55600Y-26100D01*
X55600Y-26100D02*
X56400Y-26100D01*
X56400Y-26100D02*
X56400Y-28900D01*
X56400Y-28900D02*
X55600Y-28900D01*
X55800Y-28900D02*
X55600Y-28700D01*
X50550Y-23400D02*
X50550Y-20600D01*
X50550Y-20600D02*
X51350Y-20600D01*
X51350Y-20600D02*
X51350Y-23400D01*
X51350Y-23400D02*
X50550Y-23400D01*
X50750Y-23400D02*
X50550Y-23200D01*
X45600Y-25400D02*
X48400Y-25400D01*
X48400Y-25400D02*
X48400Y-26200D01*
X48400Y-26200D02*
X45600Y-26200D01*
X45600Y-26200D02*
X45600Y-25400D01*
X45600Y-25600D02*
X45800Y-25400D01*
X56100Y-20900D02*
X55700Y-20900D01*
X55900Y-20700D02*
X55900Y-21100D01*
X56900Y-21900D02*
G75*
G03X56900Y-21900I-2000J0D01*
G74*
G01*
X49550Y-23400D02*
X49550Y-20600D01*
X49550Y-20600D02*
X50350Y-20600D01*
X50350Y-20600D02*
X50350Y-23400D01*
X50350Y-23400D02*
X49550Y-23400D01*
X49750Y-23400D02*
X49550Y-23200D01*
X67150Y-33900D02*
X64350Y-33900D01*
X64350Y-33900D02*
X64350Y-33100D01*
X64350Y-33100D02*
X67150Y-33100D01*
X67150Y-33100D02*
X67150Y-33900D01*
X67150Y-33700D02*
X66950Y-33900D01*
X68350Y-33400D02*
X68350Y-30600D01*
X68350Y-30600D02*
X69150Y-30600D01*
X69150Y-30600D02*
X69150Y-33400D01*
X69150Y-33400D02*
X68350Y-33400D01*
X68550Y-33400D02*
X68350Y-33200D01*
X64350Y-27100D02*
X67150Y-27100D01*
X67150Y-27100D02*
X67150Y-27900D01*
X67150Y-27900D02*
X64350Y-27900D01*
X64350Y-27900D02*
X64350Y-27100D01*
X64350Y-27300D02*
X64550Y-27100D01*
X63450Y-30600D02*
X63450Y-33400D01*
X63450Y-33400D02*
X62650Y-33400D01*
X62650Y-33400D02*
X62650Y-30600D01*
X62650Y-30600D02*
X63450Y-30600D01*
X63250Y-30600D02*
X63450Y-30800D01*
X63350Y-26600D02*
X63350Y-29400D01*
X63350Y-29400D02*
X62550Y-29400D01*
X62550Y-29400D02*
X62550Y-26600D01*
X62550Y-26600D02*
X63350Y-26600D01*
X63150Y-26600D02*
X63350Y-26800D01*
X65650Y-19100D02*
X62850Y-19100D01*
X62850Y-19100D02*
X62850Y-18300D01*
X62850Y-18300D02*
X65650Y-18300D01*
X65650Y-18300D02*
X65650Y-19100D01*
X65650Y-18900D02*
X65450Y-19100D01*
X74500Y-20150D02*
X74500Y-22950D01*
X74500Y-22950D02*
X73700Y-22950D01*
X73700Y-22950D02*
X73700Y-20150D01*
X73700Y-20150D02*
X74500Y-20150D01*
X74300Y-20150D02*
X74500Y-20350D01*
X56900Y-34900D02*
X54100Y-34900D01*
X54100Y-34900D02*
X54100Y-34100D01*
X54100Y-34100D02*
X56900Y-34100D01*
X56900Y-34100D02*
X56900Y-34900D01*
X56900Y-34700D02*
X56700Y-34900D01*
X61550Y-36100D02*
X64350Y-36100D01*
X64350Y-36100D02*
X64350Y-36900D01*
X64350Y-36900D02*
X61550Y-36900D01*
X61550Y-36900D02*
X61550Y-36100D01*
X61550Y-36300D02*
X61750Y-36100D01*
X61550Y-35100D02*
X64350Y-35100D01*
X64350Y-35100D02*
X64350Y-35900D01*
X64350Y-35900D02*
X61550Y-35900D01*
X61550Y-35900D02*
X61550Y-35100D01*
X61550Y-35300D02*
X61750Y-35100D01*
X52980Y-37500D02*
X51000Y-37500D01*
X51000Y-37500D02*
X51000Y-36500D01*
X51000Y-36500D02*
X53000Y-36500D01*
X53000Y-36500D02*
X53000Y-37500D01*
X53000Y-37250D02*
X52750Y-37500D01*
X52980Y-39500D02*
X51000Y-39500D01*
X51000Y-39500D02*
X51000Y-38500D01*
X51000Y-38500D02*
X53000Y-38500D01*
X53000Y-38500D02*
X53000Y-39500D01*
X53000Y-39250D02*
X52750Y-39500D01*
X60250Y-50500D02*
G75*
G03X60250Y-50500I-1000J0D01*
G74*
G01*
X58250Y-50750D02*
X58500Y-50750D01*
X58500Y-50750D02*
X58500Y-50250D01*
X58500Y-50250D02*
X58250Y-50250D01*
X53350Y-46000D02*
X53750Y-46000D01*
X58350Y-46000D02*
X57950Y-46000D01*
X57950Y-45500D02*
X57950Y-46500D01*
X57950Y-46500D02*
X53750Y-46500D01*
X53750Y-46500D02*
X53750Y-45500D01*
X53750Y-45500D02*
X57950Y-45500D01*
X53750Y-45700D02*
X53950Y-45500D01*
X53350Y-45000D02*
X53750Y-45000D01*
X58350Y-45000D02*
X57950Y-45000D01*
X57950Y-44500D02*
X57950Y-45500D01*
X57950Y-45500D02*
X53750Y-45500D01*
X53750Y-45500D02*
X53750Y-44500D01*
X53750Y-44500D02*
X57950Y-44500D01*
X53750Y-44700D02*
X53950Y-44500D01*
X53350Y-47000D02*
X53750Y-47000D01*
X58350Y-47000D02*
X57950Y-47000D01*
X57950Y-46500D02*
X57950Y-47500D01*
X57950Y-47500D02*
X53750Y-47500D01*
X53750Y-47500D02*
X53750Y-46500D01*
X53750Y-46500D02*
X57950Y-46500D01*
X53750Y-46700D02*
X53950Y-46500D01*
X72350Y-33400D02*
X72350Y-30600D01*
X72350Y-30600D02*
X73150Y-30600D01*
X73150Y-30600D02*
X73150Y-33400D01*
X73150Y-33400D02*
X72350Y-33400D01*
X72550Y-33400D02*
X72350Y-33200D01*
X61000Y-51000D02*
X61200Y-51000D01*
X64000Y-51000D02*
X63800Y-51000D01*
X63800Y-51000D02*
X63800Y-50600D01*
X63800Y-50600D02*
X61200Y-50600D01*
X61200Y-50600D02*
X61200Y-51400D01*
X61200Y-51400D02*
X63800Y-51400D01*
X63800Y-51400D02*
X63800Y-51000D01*
X61200Y-50800D02*
X61400Y-50600D01*
X68000Y-51000D02*
X68200Y-51000D01*
X71000Y-51000D02*
X70800Y-51000D01*
X70800Y-51000D02*
X70800Y-50600D01*
X70800Y-50600D02*
X68200Y-50600D01*
X68200Y-50600D02*
X68200Y-51400D01*
X68200Y-51400D02*
X70800Y-51400D01*
X70800Y-51400D02*
X70800Y-51000D01*
X68200Y-50800D02*
X68400Y-50600D01*
X74750Y-51000D02*
X74750Y-50800D01*
X74750Y-48000D02*
X74750Y-48200D01*
X74750Y-48200D02*
X74350Y-48200D01*
X74350Y-48200D02*
X74350Y-50800D01*
X74350Y-50800D02*
X75150Y-50800D01*
X75150Y-50800D02*
X75150Y-48200D01*
X75150Y-48200D02*
X74750Y-48200D01*
X74550Y-50800D02*
X74350Y-50600D01*
X54500Y-51000D02*
X54700Y-51000D01*
X57500Y-51000D02*
X57300Y-51000D01*
X57300Y-51000D02*
X57300Y-50600D01*
X57300Y-50600D02*
X54700Y-50600D01*
X54700Y-50600D02*
X54700Y-51400D01*
X54700Y-51400D02*
X57300Y-51400D01*
X57300Y-51400D02*
X57300Y-51000D01*
X54700Y-50800D02*
X54900Y-50600D01*
X57500Y-26700D02*
X57700Y-26700D01*
X60500Y-26700D02*
X60300Y-26700D01*
X60300Y-26700D02*
X60300Y-26300D01*
X60300Y-26300D02*
X57700Y-26300D01*
X57700Y-26300D02*
X57700Y-27100D01*
X57700Y-27100D02*
X60300Y-27100D01*
X60300Y-27100D02*
X60300Y-26700D01*
X57700Y-26500D02*
X57900Y-26300D01*
X69950Y-18700D02*
X69750Y-18700D01*
X66950Y-18700D02*
X67150Y-18700D01*
X67150Y-18700D02*
X67150Y-19100D01*
X67150Y-19100D02*
X69750Y-19100D01*
X69750Y-19100D02*
X69750Y-18300D01*
X69750Y-18300D02*
X67150Y-18300D01*
X67150Y-18300D02*
X67150Y-18700D01*
X69750Y-18900D02*
X69550Y-19100D01*
X61950Y-30500D02*
X61950Y-30700D01*
X61950Y-33500D02*
X61950Y-33300D01*
X61950Y-33300D02*
X62350Y-33300D01*
X62350Y-33300D02*
X62350Y-30700D01*
X62350Y-30700D02*
X61550Y-30700D01*
X61550Y-30700D02*
X61550Y-33300D01*
X61550Y-33300D02*
X61950Y-33300D01*
X62150Y-30700D02*
X62350Y-30900D01*
X61950Y-29500D02*
X61950Y-29300D01*
X61950Y-26500D02*
X61950Y-26700D01*
X61950Y-26700D02*
X61550Y-26700D01*
X61550Y-26700D02*
X61550Y-29300D01*
X61550Y-29300D02*
X62350Y-29300D01*
X62350Y-29300D02*
X62350Y-26700D01*
X62350Y-26700D02*
X61950Y-26700D01*
X61750Y-29300D02*
X61550Y-29100D01*
X64250Y-26000D02*
X64250Y-25800D01*
X64250Y-23000D02*
X64250Y-23200D01*
X64250Y-23200D02*
X63850Y-23200D01*
X63850Y-23200D02*
X63850Y-25800D01*
X63850Y-25800D02*
X64650Y-25800D01*
X64650Y-25800D02*
X64650Y-23200D01*
X64650Y-23200D02*
X64250Y-23200D01*
X64050Y-25800D02*
X63850Y-25600D01*
X65250Y-26000D02*
X65250Y-25800D01*
X65250Y-23000D02*
X65250Y-23200D01*
X65250Y-23200D02*
X64850Y-23200D01*
X64850Y-23200D02*
X64850Y-25800D01*
X64850Y-25800D02*
X65650Y-25800D01*
X65650Y-25800D02*
X65650Y-23200D01*
X65650Y-23200D02*
X65250Y-23200D01*
X65050Y-25800D02*
X64850Y-25600D01*
X70750Y-33500D02*
X70750Y-33300D01*
X70750Y-30500D02*
X70750Y-30700D01*
X70750Y-30700D02*
X70350Y-30700D01*
X70350Y-30700D02*
X70350Y-33300D01*
X70350Y-33300D02*
X71150Y-33300D01*
X71150Y-33300D02*
X71150Y-30700D01*
X71150Y-30700D02*
X70750Y-30700D01*
X70550Y-33300D02*
X70350Y-33100D01*
X69750Y-33500D02*
X69750Y-33300D01*
X69750Y-30500D02*
X69750Y-30700D01*
X69750Y-30700D02*
X69350Y-30700D01*
X69350Y-30700D02*
X69350Y-33300D01*
X69350Y-33300D02*
X70150Y-33300D01*
X70150Y-33300D02*
X70150Y-30700D01*
X70150Y-30700D02*
X69750Y-30700D01*
X69550Y-33300D02*
X69350Y-33100D01*
X48950Y-20500D02*
X48950Y-20700D01*
X48950Y-23500D02*
X48950Y-23300D01*
X48950Y-23300D02*
X49350Y-23300D01*
X49350Y-23300D02*
X49350Y-20700D01*
X49350Y-20700D02*
X48550Y-20700D01*
X48550Y-20700D02*
X48550Y-23300D01*
X48550Y-23300D02*
X48950Y-23300D01*
X49150Y-20700D02*
X49350Y-20900D01*
X71750Y-30500D02*
X71750Y-30700D01*
X71750Y-33500D02*
X71750Y-33300D01*
X71750Y-33300D02*
X72150Y-33300D01*
X72150Y-33300D02*
X72150Y-30700D01*
X72150Y-30700D02*
X71350Y-30700D01*
X71350Y-30700D02*
X71350Y-33300D01*
X71350Y-33300D02*
X71750Y-33300D01*
X71950Y-30700D02*
X72150Y-30900D01*
X42950Y-20500D02*
X42950Y-20700D01*
X42950Y-23500D02*
X42950Y-23300D01*
X42950Y-23300D02*
X43350Y-23300D01*
X43350Y-23300D02*
X43350Y-20700D01*
X43350Y-20700D02*
X42550Y-20700D01*
X42550Y-20700D02*
X42550Y-23300D01*
X42550Y-23300D02*
X42950Y-23300D01*
X43150Y-20700D02*
X43350Y-20900D01*
X75350Y-27500D02*
X75150Y-27500D01*
X72350Y-27500D02*
X72550Y-27500D01*
X72550Y-27500D02*
X72550Y-27900D01*
X72550Y-27900D02*
X75150Y-27900D01*
X75150Y-27900D02*
X75150Y-27100D01*
X75150Y-27100D02*
X72550Y-27100D01*
X72550Y-27100D02*
X72550Y-27500D01*
X75150Y-27700D02*
X74950Y-27900D01*
X47500Y-51000D02*
X47700Y-51000D01*
X50500Y-51000D02*
X50300Y-51000D01*
X50300Y-51000D02*
X50300Y-50600D01*
X50300Y-50600D02*
X47700Y-50600D01*
X47700Y-50600D02*
X47700Y-51400D01*
X47700Y-51400D02*
X50300Y-51400D01*
X50300Y-51400D02*
X50300Y-51000D01*
X47700Y-50800D02*
X47900Y-50600D01*
X72350Y-28500D02*
X72550Y-28500D01*
X75350Y-28500D02*
X75150Y-28500D01*
X75150Y-28500D02*
X75150Y-28100D01*
X75150Y-28100D02*
X72550Y-28100D01*
X72550Y-28100D02*
X72550Y-28900D01*
X72550Y-28900D02*
X75150Y-28900D01*
X75150Y-28900D02*
X75150Y-28500D01*
X72550Y-28300D02*
X72750Y-28100D01*
X68750Y-30000D02*
X68750Y-29800D01*
X68750Y-27000D02*
X68750Y-27200D01*
X68750Y-27200D02*
X68350Y-27200D01*
X68350Y-27200D02*
X68350Y-29800D01*
X68350Y-29800D02*
X69150Y-29800D01*
X69150Y-29800D02*
X69150Y-27200D01*
X69150Y-27200D02*
X68750Y-27200D01*
X68550Y-29800D02*
X68350Y-29600D01*
X45500Y-24800D02*
X45700Y-24800D01*
X48500Y-24800D02*
X48300Y-24800D01*
X48300Y-24800D02*
X48300Y-24400D01*
X48300Y-24400D02*
X45700Y-24400D01*
X45700Y-24400D02*
X45700Y-25200D01*
X45700Y-25200D02*
X48300Y-25200D01*
X48300Y-25200D02*
X48300Y-24800D01*
X45700Y-24600D02*
X45900Y-24400D01*
X72350Y-24500D02*
X72550Y-24500D01*
X75350Y-24500D02*
X75150Y-24500D01*
X75150Y-24500D02*
X75150Y-24100D01*
X75150Y-24100D02*
X72550Y-24100D01*
X72550Y-24100D02*
X72550Y-24900D01*
X72550Y-24900D02*
X75150Y-24900D01*
X75150Y-24900D02*
X75150Y-24500D01*
X72550Y-24300D02*
X72750Y-24100D01*
X67250Y-26000D02*
X67450Y-26000D01*
X70250Y-26000D02*
X70050Y-26000D01*
X70050Y-26000D02*
X70050Y-25600D01*
X70050Y-25600D02*
X67450Y-25600D01*
X67450Y-25600D02*
X67450Y-26400D01*
X67450Y-26400D02*
X70050Y-26400D01*
X70050Y-26400D02*
X70050Y-26000D01*
X67450Y-25800D02*
X67650Y-25600D01*
X56000Y-29500D02*
X56000Y-29700D01*
X56000Y-32500D02*
X56000Y-32300D01*
X56000Y-32300D02*
X56400Y-32300D01*
X56400Y-32300D02*
X56400Y-29700D01*
X56400Y-29700D02*
X55600Y-29700D01*
X55600Y-29700D02*
X55600Y-32300D01*
X55600Y-32300D02*
X56000Y-32300D01*
X56200Y-29700D02*
X56400Y-29900D01*
X66250Y-26000D02*
X66250Y-25800D01*
X66250Y-23000D02*
X66250Y-23200D01*
X66250Y-23200D02*
X65850Y-23200D01*
X65850Y-23200D02*
X65850Y-25800D01*
X65850Y-25800D02*
X66650Y-25800D01*
X66650Y-25800D02*
X66650Y-23200D01*
X66650Y-23200D02*
X66250Y-23200D01*
X66050Y-25800D02*
X65850Y-25600D01*
X54302Y-54250D02*
G75*
G03X54302Y-54250I-1802J0D01*
G74*
G01*
X50000Y-51750D02*
X55000Y-51750D01*
X55000Y-51750D02*
X55000Y-56750D01*
X55000Y-56750D02*
X50000Y-56750D01*
X50000Y-56750D02*
X50000Y-51750D01*
X74552Y-54250D02*
G75*
G03X74552Y-54250I-1802J0D01*
G74*
G01*
X70250Y-51750D02*
X75250Y-51750D01*
X75250Y-51750D02*
X75250Y-56750D01*
X75250Y-56750D02*
X70250Y-56750D01*
X70250Y-56750D02*
X70250Y-51750D01*
X67802Y-54250D02*
G75*
G03X67802Y-54250I-1802J0D01*
G74*
G01*
X63500Y-51750D02*
X68500Y-51750D01*
X68500Y-51750D02*
X68500Y-56750D01*
X68500Y-56750D02*
X63500Y-56750D01*
X63500Y-56750D02*
X63500Y-51750D01*
X47552Y-54250D02*
G75*
G03X47552Y-54250I-1802J0D01*
G74*
G01*
X43250Y-51750D02*
X48250Y-51750D01*
X48250Y-51750D02*
X48250Y-56750D01*
X48250Y-56750D02*
X43250Y-56750D01*
X43250Y-56750D02*
X43250Y-51750D01*
X61052Y-54250D02*
G75*
G03X61052Y-54250I-1802J0D01*
G74*
G01*
X56750Y-51750D02*
X61750Y-51750D01*
X61750Y-51750D02*
X61750Y-56750D01*
X61750Y-56750D02*
X56750Y-56750D01*
X56750Y-56750D02*
X56750Y-51750D01*
X47750Y-35000D02*
X47750Y-36000D01*
X47750Y-36000D02*
X48750Y-36000D01*
X48750Y-35000D02*
X48750Y-38000D01*
X48750Y-38000D02*
X46750Y-38000D01*
X46750Y-38000D02*
X46750Y-36000D01*
X48750Y-35000D02*
X47750Y-35000D01*
X46750Y-35000D02*
X47750Y-35000D01*
X46750Y-36000D02*
X46750Y-35000D01*
X61350Y-24550D02*
X61350Y-23550D01*
X61350Y-23550D02*
X62350Y-23550D01*
X62350Y-23550D02*
X62350Y-24550D01*
X62350Y-24550D02*
X61350Y-24550D01*
X61350Y-24550D02*
X61350Y-25550D01*
X61350Y-25550D02*
X63350Y-25550D01*
X63350Y-25550D02*
X63350Y-23550D01*
X63350Y-23550D02*
X62350Y-23550D01*
X50100Y-49600D02*
X50100Y-46800D01*
X50100Y-46800D02*
X50900Y-46800D01*
X50900Y-46800D02*
X50900Y-49600D01*
X50900Y-49600D02*
X50100Y-49600D01*
X50300Y-49600D02*
X50100Y-49400D01*
X64500Y-20884D02*
X64500Y-21203D01*
X64518Y-21240D01*
X64537Y-21259D01*
X64575Y-21278D01*
X64650Y-21278D01*
X64687Y-21259D01*
X64706Y-21240D01*
X64725Y-21203D01*
X64725Y-20884D01*
X64874Y-20884D02*
X65118Y-20884D01*
X64987Y-21034D01*
X65043Y-21034D01*
X65081Y-21053D01*
X65099Y-21071D01*
X65118Y-21109D01*
X65118Y-21203D01*
X65099Y-21240D01*
X65081Y-21259D01*
X65043Y-21278D01*
X64931Y-21278D01*
X64893Y-21259D01*
X64874Y-21240D01*
X50733Y-49299D02*
X51051Y-49299D01*
X51089Y-49281D01*
X51108Y-49262D01*
X51126Y-49224D01*
X51126Y-49149D01*
X51108Y-49112D01*
X51089Y-49093D01*
X51051Y-49074D01*
X50733Y-49074D01*
X50733Y-48700D02*
X50733Y-48887D01*
X50920Y-48906D01*
X50901Y-48887D01*
X50883Y-48850D01*
X50883Y-48756D01*
X50901Y-48718D01*
X50920Y-48700D01*
X50958Y-48681D01*
X51051Y-48681D01*
X51089Y-48700D01*
X51108Y-48718D01*
X51126Y-48756D01*
X51126Y-48850D01*
X51108Y-48887D01*
X51089Y-48906D01*
X51678Y-49843D02*
X51490Y-49974D01*
X51678Y-50068D02*
X51284Y-50068D01*
X51284Y-49918D01*
X51303Y-49881D01*
X51321Y-49862D01*
X51359Y-49843D01*
X51415Y-49843D01*
X51453Y-49862D01*
X51471Y-49881D01*
X51490Y-49918D01*
X51490Y-50068D01*
X51471Y-49543D02*
X51471Y-49674D01*
X51678Y-49674D02*
X51284Y-49674D01*
X51284Y-49487D01*
X51678Y-49337D02*
X51284Y-49337D01*
X51565Y-49206D01*
X51284Y-49074D01*
X51678Y-49074D01*
X51678Y-48681D02*
X51678Y-48906D01*
X51678Y-48793D02*
X51284Y-48793D01*
X51340Y-48831D01*
X51378Y-48868D01*
X51396Y-48906D01*
X51321Y-48531D02*
X51303Y-48512D01*
X51284Y-48475D01*
X51284Y-48381D01*
X51303Y-48343D01*
X51321Y-48325D01*
X51359Y-48306D01*
X51396Y-48306D01*
X51453Y-48325D01*
X51678Y-48550D01*
X51678Y-48306D01*
X51471Y-48006D02*
X51490Y-47950D01*
X51509Y-47931D01*
X51546Y-47912D01*
X51603Y-47912D01*
X51640Y-47931D01*
X51659Y-47950D01*
X51678Y-47987D01*
X51678Y-48137D01*
X51284Y-48137D01*
X51284Y-48006D01*
X51303Y-47968D01*
X51321Y-47950D01*
X51359Y-47931D01*
X51396Y-47931D01*
X51434Y-47950D01*
X51453Y-47968D01*
X51471Y-48006D01*
X51471Y-48137D01*
X70500Y-22284D02*
X70500Y-22603D01*
X70518Y-22640D01*
X70537Y-22659D01*
X70575Y-22678D01*
X70650Y-22678D01*
X70687Y-22659D01*
X70706Y-22640D01*
X70725Y-22603D01*
X70725Y-22284D01*
X71081Y-22415D02*
X71081Y-22678D01*
X70987Y-22265D02*
X70893Y-22546D01*
X71137Y-22546D01*
X71315Y-19637D02*
X71296Y-19674D01*
X71259Y-19712D01*
X71203Y-19768D01*
X71184Y-19806D01*
X71184Y-19843D01*
X71278Y-19824D02*
X71259Y-19862D01*
X71221Y-19899D01*
X71146Y-19918D01*
X71015Y-19918D01*
X70940Y-19899D01*
X70903Y-19862D01*
X70884Y-19824D01*
X70884Y-19749D01*
X70903Y-19712D01*
X70940Y-19674D01*
X71015Y-19656D01*
X71146Y-19656D01*
X71221Y-19674D01*
X71259Y-19712D01*
X71278Y-19749D01*
X71278Y-19824D01*
X70921Y-19506D02*
X70903Y-19487D01*
X70884Y-19450D01*
X70884Y-19356D01*
X70903Y-19318D01*
X70921Y-19300D01*
X70959Y-19281D01*
X70996Y-19281D01*
X71053Y-19300D01*
X71278Y-19525D01*
X71278Y-19281D01*
X58765Y-20737D02*
X58746Y-20774D01*
X58709Y-20812D01*
X58653Y-20868D01*
X58634Y-20906D01*
X58634Y-20943D01*
X58728Y-20924D02*
X58709Y-20962D01*
X58671Y-20999D01*
X58596Y-21018D01*
X58465Y-21018D01*
X58390Y-20999D01*
X58353Y-20962D01*
X58334Y-20924D01*
X58334Y-20849D01*
X58353Y-20812D01*
X58390Y-20774D01*
X58465Y-20756D01*
X58596Y-20756D01*
X58671Y-20774D01*
X58709Y-20812D01*
X58728Y-20849D01*
X58728Y-20924D01*
X58334Y-20625D02*
X58334Y-20381D01*
X58484Y-20512D01*
X58484Y-20456D01*
X58503Y-20418D01*
X58521Y-20400D01*
X58559Y-20381D01*
X58653Y-20381D01*
X58690Y-20400D01*
X58709Y-20418D01*
X58728Y-20456D01*
X58728Y-20568D01*
X58709Y-20606D01*
X58690Y-20625D01*
X56571Y-17884D02*
X56571Y-17753D01*
X56778Y-17696D02*
X56778Y-17884D01*
X56384Y-17884D01*
X56384Y-17696D01*
X57571Y-17771D02*
X57590Y-17715D01*
X57609Y-17696D01*
X57646Y-17678D01*
X57703Y-17678D01*
X57740Y-17696D01*
X57759Y-17715D01*
X57778Y-17753D01*
X57778Y-17903D01*
X57384Y-17903D01*
X57384Y-17771D01*
X57403Y-17734D01*
X57421Y-17715D01*
X57459Y-17696D01*
X57496Y-17696D01*
X57534Y-17715D01*
X57553Y-17734D01*
X57571Y-17771D01*
X57571Y-17903D01*
X58740Y-17678D02*
X58759Y-17696D01*
X58778Y-17753D01*
X58778Y-17790D01*
X58759Y-17846D01*
X58721Y-17884D01*
X58684Y-17903D01*
X58609Y-17921D01*
X58553Y-17921D01*
X58478Y-17903D01*
X58440Y-17884D01*
X58403Y-17846D01*
X58384Y-17790D01*
X58384Y-17753D01*
X58403Y-17696D01*
X58421Y-17678D01*
X72062Y-29515D02*
X72025Y-29496D01*
X71987Y-29459D01*
X71931Y-29403D01*
X71893Y-29384D01*
X71856Y-29384D01*
X71875Y-29478D02*
X71837Y-29459D01*
X71800Y-29421D01*
X71781Y-29346D01*
X71781Y-29215D01*
X71800Y-29140D01*
X71837Y-29103D01*
X71875Y-29084D01*
X71950Y-29084D01*
X71987Y-29103D01*
X72025Y-29140D01*
X72043Y-29215D01*
X72043Y-29346D01*
X72025Y-29421D01*
X71987Y-29459D01*
X71950Y-29478D01*
X71875Y-29478D01*
X72418Y-29478D02*
X72193Y-29478D01*
X72306Y-29478D02*
X72306Y-29084D01*
X72268Y-29140D01*
X72231Y-29178D01*
X72193Y-29196D01*
X69490Y-24165D02*
X69509Y-24184D01*
X69528Y-24240D01*
X69528Y-24278D01*
X69509Y-24334D01*
X69471Y-24371D01*
X69434Y-24390D01*
X69359Y-24409D01*
X69303Y-24409D01*
X69228Y-24390D01*
X69190Y-24371D01*
X69153Y-24334D01*
X69134Y-24278D01*
X69134Y-24240D01*
X69153Y-24184D01*
X69171Y-24165D01*
X69528Y-23790D02*
X69528Y-24015D01*
X69528Y-23903D02*
X69134Y-23903D01*
X69190Y-23940D01*
X69228Y-23978D01*
X69246Y-24015D01*
X68328Y-24165D02*
X68328Y-24390D01*
X68328Y-24278D02*
X67934Y-24278D01*
X67990Y-24315D01*
X68028Y-24353D01*
X68046Y-24390D01*
X68065Y-23828D02*
X68328Y-23828D01*
X68065Y-23996D02*
X68271Y-23996D01*
X68309Y-23978D01*
X68328Y-23940D01*
X68328Y-23884D01*
X68309Y-23846D01*
X68290Y-23828D01*
X68778Y-25249D02*
X68778Y-24950D01*
X68928Y-25099D02*
X68628Y-25099D01*
X78240Y-26565D02*
X78259Y-26584D01*
X78278Y-26640D01*
X78278Y-26678D01*
X78259Y-26734D01*
X78221Y-26771D01*
X78184Y-26790D01*
X78109Y-26809D01*
X78053Y-26809D01*
X77978Y-26790D01*
X77940Y-26771D01*
X77903Y-26734D01*
X77884Y-26678D01*
X77884Y-26640D01*
X77903Y-26584D01*
X77921Y-26565D01*
X77884Y-26209D02*
X77884Y-26396D01*
X78071Y-26415D01*
X78053Y-26396D01*
X78034Y-26359D01*
X78034Y-26265D01*
X78053Y-26228D01*
X78071Y-26209D01*
X78109Y-26190D01*
X78203Y-26190D01*
X78240Y-26209D01*
X78259Y-26228D01*
X78278Y-26265D01*
X78278Y-26359D01*
X78259Y-26396D01*
X78240Y-26415D01*
X76371Y-25478D02*
X76353Y-25459D01*
X76334Y-25421D01*
X76334Y-25328D01*
X76353Y-25290D01*
X76371Y-25271D01*
X76409Y-25253D01*
X76446Y-25253D01*
X76503Y-25271D01*
X76728Y-25496D01*
X76728Y-25253D01*
X76371Y-25103D02*
X76353Y-25084D01*
X76334Y-25046D01*
X76334Y-24953D01*
X76353Y-24915D01*
X76371Y-24896D01*
X76409Y-24878D01*
X76446Y-24878D01*
X76503Y-24896D01*
X76728Y-25121D01*
X76728Y-24878D01*
X76465Y-24540D02*
X76728Y-24540D01*
X76465Y-24709D02*
X76671Y-24709D01*
X76709Y-24690D01*
X76728Y-24653D01*
X76728Y-24596D01*
X76709Y-24559D01*
X76690Y-24540D01*
X77178Y-26149D02*
X77178Y-25850D01*
X77328Y-25999D02*
X77028Y-25999D01*
X44034Y-27840D02*
X44015Y-27859D01*
X43959Y-27878D01*
X43921Y-27878D01*
X43865Y-27859D01*
X43828Y-27821D01*
X43809Y-27784D01*
X43790Y-27709D01*
X43790Y-27653D01*
X43809Y-27578D01*
X43828Y-27540D01*
X43865Y-27503D01*
X43921Y-27484D01*
X43959Y-27484D01*
X44015Y-27503D01*
X44034Y-27521D01*
X44165Y-27484D02*
X44428Y-27484D01*
X44259Y-27878D01*
X43471Y-26271D02*
X43490Y-26253D01*
X43528Y-26234D01*
X43621Y-26234D01*
X43659Y-26253D01*
X43678Y-26271D01*
X43696Y-26309D01*
X43696Y-26346D01*
X43678Y-26403D01*
X43453Y-26628D01*
X43696Y-26628D01*
X43846Y-26271D02*
X43865Y-26253D01*
X43903Y-26234D01*
X43996Y-26234D01*
X44034Y-26253D01*
X44053Y-26271D01*
X44071Y-26309D01*
X44071Y-26346D01*
X44053Y-26403D01*
X43828Y-26628D01*
X44071Y-26628D01*
X44409Y-26365D02*
X44409Y-26628D01*
X44240Y-26365D02*
X44240Y-26571D01*
X44259Y-26609D01*
X44296Y-26628D01*
X44353Y-26628D01*
X44390Y-26609D01*
X44409Y-26590D01*
X44800Y-25878D02*
X45099Y-25878D01*
X44950Y-26028D02*
X44950Y-25728D01*
X77940Y-30053D02*
X77959Y-30071D01*
X77978Y-30128D01*
X77978Y-30165D01*
X77959Y-30221D01*
X77921Y-30259D01*
X77884Y-30278D01*
X77809Y-30296D01*
X77753Y-30296D01*
X77678Y-30278D01*
X77640Y-30259D01*
X77603Y-30221D01*
X77584Y-30165D01*
X77584Y-30128D01*
X77603Y-30071D01*
X77621Y-30053D01*
X77978Y-29678D02*
X77978Y-29903D01*
X77978Y-29790D02*
X77584Y-29790D01*
X77640Y-29828D01*
X77678Y-29865D01*
X77696Y-29903D01*
X77978Y-29303D02*
X77978Y-29528D01*
X77978Y-29415D02*
X77584Y-29415D01*
X77640Y-29453D01*
X77678Y-29490D01*
X77696Y-29528D01*
X76728Y-28065D02*
X76728Y-28290D01*
X76728Y-28178D02*
X76334Y-28178D01*
X76390Y-28215D01*
X76428Y-28253D01*
X76446Y-28290D01*
X76465Y-27728D02*
X76728Y-27728D01*
X76465Y-27896D02*
X76671Y-27896D01*
X76709Y-27878D01*
X76728Y-27840D01*
X76728Y-27784D01*
X76709Y-27746D01*
X76690Y-27728D01*
X77178Y-29149D02*
X77178Y-28850D01*
X77328Y-28999D02*
X77028Y-28999D01*
X40446Y-24140D02*
X40428Y-24159D01*
X40371Y-24178D01*
X40334Y-24178D01*
X40278Y-24159D01*
X40240Y-24121D01*
X40221Y-24084D01*
X40203Y-24009D01*
X40203Y-23953D01*
X40221Y-23878D01*
X40240Y-23840D01*
X40278Y-23803D01*
X40334Y-23784D01*
X40371Y-23784D01*
X40428Y-23803D01*
X40446Y-23821D01*
X40821Y-24178D02*
X40596Y-24178D01*
X40709Y-24178D02*
X40709Y-23784D01*
X40671Y-23840D01*
X40634Y-23878D01*
X40596Y-23896D01*
X40953Y-23784D02*
X41196Y-23784D01*
X41065Y-23934D01*
X41121Y-23934D01*
X41159Y-23953D01*
X41178Y-23971D01*
X41196Y-24009D01*
X41196Y-24103D01*
X41178Y-24140D01*
X41159Y-24159D01*
X41121Y-24178D01*
X41009Y-24178D01*
X40971Y-24159D01*
X40953Y-24140D01*
X40809Y-26678D02*
X40584Y-26678D01*
X40696Y-26678D02*
X40696Y-26284D01*
X40659Y-26340D01*
X40621Y-26378D01*
X40584Y-26396D01*
X41053Y-26284D02*
X41090Y-26284D01*
X41128Y-26303D01*
X41146Y-26321D01*
X41165Y-26359D01*
X41184Y-26434D01*
X41184Y-26528D01*
X41165Y-26603D01*
X41146Y-26640D01*
X41128Y-26659D01*
X41090Y-26678D01*
X41053Y-26678D01*
X41015Y-26659D01*
X40996Y-26640D01*
X40978Y-26603D01*
X40959Y-26528D01*
X40959Y-26434D01*
X40978Y-26359D01*
X40996Y-26321D01*
X41015Y-26303D01*
X41053Y-26284D01*
X41428Y-26284D02*
X41465Y-26284D01*
X41503Y-26303D01*
X41521Y-26321D01*
X41540Y-26359D01*
X41559Y-26434D01*
X41559Y-26528D01*
X41540Y-26603D01*
X41521Y-26640D01*
X41503Y-26659D01*
X41465Y-26678D01*
X41428Y-26678D01*
X41390Y-26659D01*
X41371Y-26640D01*
X41353Y-26603D01*
X41334Y-26528D01*
X41334Y-26434D01*
X41353Y-26359D01*
X41371Y-26321D01*
X41390Y-26303D01*
X41428Y-26284D01*
X41896Y-26415D02*
X41896Y-26678D01*
X41728Y-26415D02*
X41728Y-26621D01*
X41746Y-26659D01*
X41784Y-26678D01*
X41840Y-26678D01*
X41878Y-26659D01*
X41896Y-26640D01*
X42100Y-25928D02*
X42399Y-25928D01*
X42250Y-26078D02*
X42250Y-25778D01*
X62140Y-19503D02*
X62159Y-19521D01*
X62178Y-19578D01*
X62178Y-19615D01*
X62159Y-19671D01*
X62121Y-19709D01*
X62084Y-19728D01*
X62009Y-19746D01*
X61953Y-19746D01*
X61878Y-19728D01*
X61840Y-19709D01*
X61803Y-19671D01*
X61784Y-19615D01*
X61784Y-19578D01*
X61803Y-19521D01*
X61821Y-19503D01*
X62178Y-19128D02*
X62178Y-19353D01*
X62178Y-19240D02*
X61784Y-19240D01*
X61840Y-19278D01*
X61878Y-19315D01*
X61896Y-19353D01*
X61953Y-18903D02*
X61934Y-18940D01*
X61915Y-18959D01*
X61878Y-18978D01*
X61859Y-18978D01*
X61821Y-18959D01*
X61803Y-18940D01*
X61784Y-18903D01*
X61784Y-18828D01*
X61803Y-18790D01*
X61821Y-18771D01*
X61859Y-18753D01*
X61878Y-18753D01*
X61915Y-18771D01*
X61934Y-18790D01*
X61953Y-18828D01*
X61953Y-18903D01*
X61971Y-18940D01*
X61990Y-18959D01*
X62028Y-18978D01*
X62103Y-18978D01*
X62140Y-18959D01*
X62159Y-18940D01*
X62178Y-18903D01*
X62178Y-18828D01*
X62159Y-18790D01*
X62140Y-18771D01*
X62103Y-18753D01*
X62028Y-18753D01*
X61990Y-18771D01*
X61971Y-18790D01*
X61953Y-18828D01*
X59721Y-20728D02*
X59703Y-20709D01*
X59684Y-20671D01*
X59684Y-20578D01*
X59703Y-20540D01*
X59721Y-20521D01*
X59759Y-20503D01*
X59796Y-20503D01*
X59853Y-20521D01*
X60078Y-20746D01*
X60078Y-20503D01*
X59815Y-20165D02*
X60078Y-20165D01*
X59815Y-20334D02*
X60021Y-20334D01*
X60059Y-20315D01*
X60078Y-20278D01*
X60078Y-20221D01*
X60059Y-20184D01*
X60040Y-20165D01*
X59721Y-19996D02*
X59703Y-19978D01*
X59684Y-19940D01*
X59684Y-19846D01*
X59703Y-19809D01*
X59721Y-19790D01*
X59759Y-19771D01*
X59796Y-19771D01*
X59853Y-19790D01*
X60078Y-20015D01*
X60078Y-19771D01*
X60528Y-21399D02*
X60528Y-21100D01*
X60678Y-21249D02*
X60378Y-21249D01*
X67040Y-21153D02*
X67059Y-21171D01*
X67078Y-21228D01*
X67078Y-21265D01*
X67059Y-21321D01*
X67021Y-21359D01*
X66984Y-21378D01*
X66909Y-21396D01*
X66853Y-21396D01*
X66778Y-21378D01*
X66740Y-21359D01*
X66703Y-21321D01*
X66684Y-21265D01*
X66684Y-21228D01*
X66703Y-21171D01*
X66721Y-21153D01*
X66721Y-21003D02*
X66703Y-20984D01*
X66684Y-20946D01*
X66684Y-20853D01*
X66703Y-20815D01*
X66721Y-20796D01*
X66759Y-20778D01*
X66796Y-20778D01*
X66853Y-20796D01*
X67078Y-21021D01*
X67078Y-20778D01*
X66684Y-20534D02*
X66684Y-20496D01*
X66703Y-20459D01*
X66721Y-20440D01*
X66759Y-20421D01*
X66834Y-20403D01*
X66928Y-20403D01*
X67003Y-20421D01*
X67040Y-20440D01*
X67059Y-20459D01*
X67078Y-20496D01*
X67078Y-20534D01*
X67059Y-20571D01*
X67040Y-20590D01*
X67003Y-20609D01*
X66928Y-20628D01*
X66834Y-20628D01*
X66759Y-20609D01*
X66721Y-20590D01*
X66703Y-20571D01*
X66684Y-20534D01*
X67921Y-21678D02*
X67903Y-21659D01*
X67884Y-21621D01*
X67884Y-21528D01*
X67903Y-21490D01*
X67921Y-21471D01*
X67959Y-21453D01*
X67996Y-21453D01*
X68053Y-21471D01*
X68278Y-21696D01*
X68278Y-21453D01*
X68015Y-21115D02*
X68278Y-21115D01*
X68015Y-21284D02*
X68221Y-21284D01*
X68259Y-21265D01*
X68278Y-21228D01*
X68278Y-21171D01*
X68259Y-21134D01*
X68240Y-21115D01*
X67921Y-20946D02*
X67903Y-20928D01*
X67884Y-20890D01*
X67884Y-20796D01*
X67903Y-20759D01*
X67921Y-20740D01*
X67959Y-20721D01*
X67996Y-20721D01*
X68053Y-20740D01*
X68278Y-20965D01*
X68278Y-20721D01*
X68728Y-22349D02*
X68728Y-22050D01*
X68878Y-22199D02*
X68578Y-22199D01*
X76059Y-26678D02*
X76059Y-26284D01*
X76153Y-26284D01*
X76209Y-26303D01*
X76246Y-26340D01*
X76265Y-26378D01*
X76284Y-26453D01*
X76284Y-26509D01*
X76265Y-26584D01*
X76246Y-26621D01*
X76209Y-26659D01*
X76153Y-26678D01*
X76059Y-26678D01*
X76659Y-26678D02*
X76434Y-26678D01*
X76546Y-26678D02*
X76546Y-26284D01*
X76509Y-26340D01*
X76471Y-26378D01*
X76434Y-26396D01*
X71109Y-25778D02*
X71109Y-25384D01*
X71203Y-25384D01*
X71259Y-25403D01*
X71296Y-25440D01*
X71315Y-25478D01*
X71334Y-25553D01*
X71334Y-25609D01*
X71315Y-25684D01*
X71296Y-25721D01*
X71259Y-25759D01*
X71203Y-25778D01*
X71109Y-25778D01*
X71484Y-25421D02*
X71503Y-25403D01*
X71540Y-25384D01*
X71634Y-25384D01*
X71671Y-25403D01*
X71690Y-25421D01*
X71709Y-25459D01*
X71709Y-25496D01*
X71690Y-25553D01*
X71465Y-25778D01*
X71709Y-25778D01*
X45459Y-49178D02*
X45459Y-48784D01*
X45553Y-48784D01*
X45609Y-48803D01*
X45646Y-48840D01*
X45665Y-48878D01*
X45684Y-48953D01*
X45684Y-49009D01*
X45665Y-49084D01*
X45646Y-49121D01*
X45609Y-49159D01*
X45553Y-49178D01*
X45459Y-49178D01*
X45815Y-48784D02*
X46059Y-48784D01*
X45928Y-48934D01*
X45984Y-48934D01*
X46021Y-48953D01*
X46040Y-48971D01*
X46059Y-49009D01*
X46059Y-49103D01*
X46040Y-49140D01*
X46021Y-49159D01*
X45984Y-49178D01*
X45871Y-49178D01*
X45834Y-49159D01*
X45815Y-49140D01*
X72459Y-49178D02*
X72459Y-48784D01*
X72553Y-48784D01*
X72609Y-48803D01*
X72646Y-48840D01*
X72665Y-48878D01*
X72684Y-48953D01*
X72684Y-49009D01*
X72665Y-49084D01*
X72646Y-49121D01*
X72609Y-49159D01*
X72553Y-49178D01*
X72459Y-49178D01*
X73021Y-48915D02*
X73021Y-49178D01*
X72928Y-48765D02*
X72834Y-49046D01*
X73078Y-49046D01*
X65709Y-49178D02*
X65709Y-48784D01*
X65803Y-48784D01*
X65859Y-48803D01*
X65896Y-48840D01*
X65915Y-48878D01*
X65934Y-48953D01*
X65934Y-49009D01*
X65915Y-49084D01*
X65896Y-49121D01*
X65859Y-49159D01*
X65803Y-49178D01*
X65709Y-49178D01*
X66290Y-48784D02*
X66103Y-48784D01*
X66084Y-48971D01*
X66103Y-48953D01*
X66140Y-48934D01*
X66234Y-48934D01*
X66271Y-48953D01*
X66290Y-48971D01*
X66309Y-49009D01*
X66309Y-49103D01*
X66290Y-49140D01*
X66271Y-49159D01*
X66234Y-49178D01*
X66140Y-49178D01*
X66103Y-49159D01*
X66084Y-49140D01*
X59178Y-30884D02*
X58784Y-30884D01*
X59140Y-30471D02*
X59159Y-30490D01*
X59178Y-30546D01*
X59178Y-30584D01*
X59159Y-30640D01*
X59121Y-30678D01*
X59084Y-30696D01*
X59009Y-30715D01*
X58953Y-30715D01*
X58878Y-30696D01*
X58840Y-30678D01*
X58803Y-30640D01*
X58784Y-30584D01*
X58784Y-30546D01*
X58803Y-30490D01*
X58821Y-30471D01*
X59178Y-30096D02*
X59178Y-30321D01*
X59178Y-30209D02*
X58784Y-30209D01*
X58840Y-30246D01*
X58878Y-30284D01*
X58896Y-30321D01*
X59065Y-39765D02*
X59065Y-39577D01*
X59178Y-39802D02*
X58784Y-39671D01*
X59178Y-39540D01*
X58784Y-39465D02*
X58784Y-39240D01*
X59178Y-39352D02*
X58784Y-39352D01*
X59178Y-39109D02*
X58784Y-39109D01*
X59065Y-38977D01*
X58784Y-38846D01*
X59178Y-38846D01*
X58971Y-38659D02*
X58971Y-38528D01*
X59178Y-38471D02*
X59178Y-38659D01*
X58784Y-38659D01*
X58784Y-38471D01*
X58803Y-38096D02*
X58784Y-38134D01*
X58784Y-38190D01*
X58803Y-38246D01*
X58840Y-38284D01*
X58878Y-38303D01*
X58953Y-38321D01*
X59009Y-38321D01*
X59084Y-38303D01*
X59121Y-38284D01*
X59159Y-38246D01*
X59178Y-38190D01*
X59178Y-38153D01*
X59159Y-38096D01*
X59140Y-38078D01*
X59009Y-38078D01*
X59009Y-38153D01*
X59065Y-37928D02*
X59065Y-37740D01*
X59178Y-37965D02*
X58784Y-37834D01*
X59178Y-37703D01*
X58784Y-37609D02*
X58784Y-37365D01*
X58934Y-37496D01*
X58934Y-37440D01*
X58953Y-37403D01*
X58971Y-37384D01*
X59009Y-37365D01*
X59103Y-37365D01*
X59140Y-37384D01*
X59159Y-37403D01*
X59178Y-37440D01*
X59178Y-37553D01*
X59159Y-37590D01*
X59140Y-37609D01*
X58821Y-37215D02*
X58803Y-37196D01*
X58784Y-37159D01*
X58784Y-37065D01*
X58803Y-37028D01*
X58821Y-37009D01*
X58859Y-36990D01*
X58896Y-36990D01*
X58953Y-37009D01*
X59178Y-37234D01*
X59178Y-36990D01*
X58953Y-36765D02*
X58934Y-36803D01*
X58915Y-36821D01*
X58878Y-36840D01*
X58859Y-36840D01*
X58821Y-36821D01*
X58803Y-36803D01*
X58784Y-36765D01*
X58784Y-36690D01*
X58803Y-36653D01*
X58821Y-36634D01*
X58859Y-36615D01*
X58878Y-36615D01*
X58915Y-36634D01*
X58934Y-36653D01*
X58953Y-36690D01*
X58953Y-36765D01*
X58971Y-36803D01*
X58990Y-36821D01*
X59028Y-36840D01*
X59103Y-36840D01*
X59140Y-36821D01*
X59159Y-36803D01*
X59178Y-36765D01*
X59178Y-36690D01*
X59159Y-36653D01*
X59140Y-36634D01*
X59103Y-36615D01*
X59028Y-36615D01*
X58990Y-36634D01*
X58971Y-36653D01*
X58953Y-36690D01*
X59028Y-36447D02*
X59028Y-36147D01*
X59178Y-35959D02*
X58784Y-35959D01*
X58784Y-35809D01*
X58803Y-35772D01*
X58821Y-35753D01*
X58859Y-35734D01*
X58915Y-35734D01*
X58953Y-35753D01*
X58971Y-35772D01*
X58990Y-35809D01*
X58990Y-35959D01*
X52534Y-19678D02*
X52346Y-19678D01*
X52346Y-19284D01*
X52871Y-19678D02*
X52646Y-19678D01*
X52759Y-19678D02*
X52759Y-19284D01*
X52721Y-19340D01*
X52684Y-19378D01*
X52646Y-19396D01*
X44084Y-19499D02*
X44403Y-19499D01*
X44440Y-19481D01*
X44459Y-19462D01*
X44478Y-19424D01*
X44478Y-19349D01*
X44459Y-19312D01*
X44440Y-19293D01*
X44403Y-19274D01*
X44084Y-19274D01*
X44478Y-18881D02*
X44478Y-19106D01*
X44478Y-18993D02*
X44084Y-18993D01*
X44140Y-19031D01*
X44178Y-19068D01*
X44196Y-19106D01*
X45284Y-22178D02*
X45096Y-22178D01*
X45096Y-21784D01*
X45415Y-22178D02*
X45415Y-21784D01*
X45546Y-22065D01*
X45678Y-21784D01*
X45678Y-22178D01*
X45828Y-21784D02*
X46071Y-21784D01*
X45940Y-21934D01*
X45996Y-21934D01*
X46034Y-21953D01*
X46053Y-21971D01*
X46071Y-22009D01*
X46071Y-22103D01*
X46053Y-22140D01*
X46034Y-22159D01*
X45996Y-22178D01*
X45884Y-22178D01*
X45846Y-22159D01*
X45828Y-22140D01*
X46296Y-21953D02*
X46259Y-21934D01*
X46240Y-21915D01*
X46221Y-21878D01*
X46221Y-21859D01*
X46240Y-21821D01*
X46259Y-21803D01*
X46296Y-21784D01*
X46371Y-21784D01*
X46409Y-21803D01*
X46428Y-21821D01*
X46446Y-21859D01*
X46446Y-21878D01*
X46428Y-21915D01*
X46409Y-21934D01*
X46371Y-21953D01*
X46296Y-21953D01*
X46259Y-21971D01*
X46240Y-21990D01*
X46221Y-22028D01*
X46221Y-22103D01*
X46240Y-22140D01*
X46259Y-22159D01*
X46296Y-22178D01*
X46371Y-22178D01*
X46409Y-22159D01*
X46428Y-22140D01*
X46446Y-22103D01*
X46446Y-22028D01*
X46428Y-21990D01*
X46409Y-21971D01*
X46371Y-21953D01*
X46784Y-21784D02*
X46709Y-21784D01*
X46671Y-21803D01*
X46653Y-21821D01*
X46615Y-21878D01*
X46596Y-21953D01*
X46596Y-22103D01*
X46615Y-22140D01*
X46634Y-22159D01*
X46671Y-22178D01*
X46746Y-22178D01*
X46784Y-22159D01*
X46803Y-22140D01*
X46821Y-22103D01*
X46821Y-22009D01*
X46803Y-21971D01*
X46784Y-21953D01*
X46746Y-21934D01*
X46671Y-21934D01*
X46634Y-21953D01*
X46615Y-21971D01*
X46596Y-22009D01*
X65450Y-32784D02*
X65450Y-33103D01*
X65468Y-33140D01*
X65487Y-33159D01*
X65525Y-33178D01*
X65600Y-33178D01*
X65637Y-33159D01*
X65656Y-33140D01*
X65675Y-33103D01*
X65675Y-32784D01*
X65843Y-32821D02*
X65862Y-32803D01*
X65899Y-32784D01*
X65993Y-32784D01*
X66031Y-32803D01*
X66049Y-32821D01*
X66068Y-32859D01*
X66068Y-32896D01*
X66049Y-32953D01*
X65824Y-33178D01*
X66068Y-33178D01*
X65928Y-31774D02*
X65534Y-31774D01*
X65815Y-31643D01*
X65534Y-31512D01*
X65928Y-31512D01*
X65890Y-31099D02*
X65909Y-31118D01*
X65928Y-31174D01*
X65928Y-31212D01*
X65909Y-31268D01*
X65871Y-31306D01*
X65834Y-31324D01*
X65759Y-31343D01*
X65703Y-31343D01*
X65628Y-31324D01*
X65590Y-31306D01*
X65553Y-31268D01*
X65534Y-31212D01*
X65534Y-31174D01*
X65553Y-31118D01*
X65571Y-31099D01*
X65928Y-30931D02*
X65534Y-30931D01*
X65534Y-30781D01*
X65553Y-30743D01*
X65571Y-30724D01*
X65609Y-30706D01*
X65665Y-30706D01*
X65703Y-30724D01*
X65721Y-30743D01*
X65740Y-30781D01*
X65740Y-30931D01*
X65534Y-30368D02*
X65534Y-30443D01*
X65553Y-30481D01*
X65571Y-30500D01*
X65628Y-30537D01*
X65703Y-30556D01*
X65853Y-30556D01*
X65890Y-30537D01*
X65909Y-30518D01*
X65928Y-30481D01*
X65928Y-30406D01*
X65909Y-30368D01*
X65890Y-30350D01*
X65853Y-30331D01*
X65759Y-30331D01*
X65721Y-30350D01*
X65703Y-30368D01*
X65684Y-30406D01*
X65684Y-30481D01*
X65703Y-30518D01*
X65721Y-30537D01*
X65759Y-30556D01*
X65534Y-30087D02*
X65534Y-30050D01*
X65553Y-30012D01*
X65571Y-29993D01*
X65609Y-29975D01*
X65684Y-29956D01*
X65778Y-29956D01*
X65853Y-29975D01*
X65890Y-29993D01*
X65909Y-30012D01*
X65928Y-30050D01*
X65928Y-30087D01*
X65909Y-30125D01*
X65890Y-30143D01*
X65853Y-30162D01*
X65778Y-30181D01*
X65684Y-30181D01*
X65609Y-30162D01*
X65571Y-30143D01*
X65553Y-30125D01*
X65534Y-30087D01*
X65534Y-29712D02*
X65534Y-29675D01*
X65553Y-29637D01*
X65571Y-29618D01*
X65609Y-29600D01*
X65684Y-29581D01*
X65778Y-29581D01*
X65853Y-29600D01*
X65890Y-29618D01*
X65909Y-29637D01*
X65928Y-29675D01*
X65928Y-29712D01*
X65909Y-29750D01*
X65890Y-29768D01*
X65853Y-29787D01*
X65778Y-29806D01*
X65684Y-29806D01*
X65609Y-29787D01*
X65571Y-29768D01*
X65553Y-29750D01*
X65534Y-29712D01*
X65571Y-29431D02*
X65553Y-29412D01*
X65534Y-29375D01*
X65534Y-29281D01*
X65553Y-29243D01*
X65571Y-29225D01*
X65609Y-29206D01*
X65646Y-29206D01*
X65703Y-29225D01*
X65928Y-29450D01*
X65928Y-29206D01*
G54D12*
X55671Y-38485D02*
X56271Y-38085D01*
X55671Y-38085D02*
X56271Y-38485D01*
X56271Y-37542D02*
X56271Y-37885D01*
X56271Y-37714D02*
X55671Y-37714D01*
X55757Y-37771D01*
X55814Y-37828D01*
X55842Y-37885D01*
G54D10*
X52209Y-49178D02*
X52209Y-48784D01*
X52303Y-48784D01*
X52359Y-48803D01*
X52396Y-48840D01*
X52415Y-48878D01*
X52434Y-48953D01*
X52434Y-49009D01*
X52415Y-49084D01*
X52396Y-49121D01*
X52359Y-49159D01*
X52303Y-49178D01*
X52209Y-49178D01*
X52771Y-48784D02*
X52696Y-48784D01*
X52659Y-48803D01*
X52640Y-48821D01*
X52603Y-48878D01*
X52584Y-48953D01*
X52584Y-49103D01*
X52603Y-49140D01*
X52621Y-49159D01*
X52659Y-49178D01*
X52734Y-49178D01*
X52771Y-49159D01*
X52790Y-49140D01*
X52809Y-49103D01*
X52809Y-49009D01*
X52790Y-48971D01*
X52771Y-48953D01*
X52734Y-48934D01*
X52659Y-48934D01*
X52621Y-48953D01*
X52603Y-48971D01*
X52584Y-49009D01*
X75728Y-32415D02*
X75334Y-32415D01*
X75615Y-32284D01*
X75334Y-32153D01*
X75728Y-32153D01*
X75728Y-31965D02*
X75334Y-31965D01*
X75728Y-31740D02*
X75503Y-31909D01*
X75334Y-31740D02*
X75559Y-31965D01*
X75728Y-31365D02*
X75728Y-31590D01*
X75728Y-31478D02*
X75334Y-31478D01*
X75390Y-31515D01*
X75428Y-31553D01*
X75446Y-31590D01*
X41978Y-28890D02*
X41584Y-28890D01*
X41584Y-28740D01*
X41603Y-28703D01*
X41621Y-28684D01*
X41659Y-28665D01*
X41715Y-28665D01*
X41753Y-28684D01*
X41771Y-28703D01*
X41790Y-28740D01*
X41790Y-28890D01*
X41978Y-28290D02*
X41978Y-28515D01*
X41978Y-28403D02*
X41584Y-28403D01*
X41640Y-28440D01*
X41678Y-28478D01*
X41696Y-28515D01*
X78228Y-22390D02*
X77834Y-22390D01*
X77834Y-22240D01*
X77853Y-22203D01*
X77871Y-22184D01*
X77909Y-22165D01*
X77965Y-22165D01*
X78003Y-22184D01*
X78021Y-22203D01*
X78040Y-22240D01*
X78040Y-22390D01*
X77871Y-22015D02*
X77853Y-21996D01*
X77834Y-21959D01*
X77834Y-21865D01*
X77853Y-21828D01*
X77871Y-21809D01*
X77909Y-21790D01*
X77946Y-21790D01*
X78003Y-21809D01*
X78228Y-22034D01*
X78228Y-21790D01*
X63178Y-39790D02*
X62784Y-39790D01*
X62784Y-39640D01*
X62803Y-39603D01*
X62821Y-39584D01*
X62859Y-39565D01*
X62915Y-39565D01*
X62953Y-39584D01*
X62971Y-39603D01*
X62990Y-39640D01*
X62990Y-39790D01*
X62784Y-39434D02*
X62784Y-39190D01*
X62934Y-39321D01*
X62934Y-39265D01*
X62953Y-39228D01*
X62971Y-39209D01*
X63009Y-39190D01*
X63103Y-39190D01*
X63140Y-39209D01*
X63159Y-39228D01*
X63178Y-39265D01*
X63178Y-39378D01*
X63159Y-39415D01*
X63140Y-39434D01*
X56140Y-25315D02*
X56159Y-25334D01*
X56178Y-25390D01*
X56178Y-25428D01*
X56159Y-25484D01*
X56121Y-25521D01*
X56084Y-25540D01*
X56009Y-25559D01*
X55953Y-25559D01*
X55878Y-25540D01*
X55840Y-25521D01*
X55803Y-25484D01*
X55784Y-25428D01*
X55784Y-25390D01*
X55803Y-25334D01*
X55821Y-25315D01*
X55821Y-25165D02*
X55803Y-25146D01*
X55784Y-25109D01*
X55784Y-25015D01*
X55803Y-24978D01*
X55821Y-24959D01*
X55859Y-24940D01*
X55896Y-24940D01*
X55953Y-24959D01*
X56178Y-25184D01*
X56178Y-24940D01*
X52090Y-22065D02*
X52109Y-22084D01*
X52128Y-22140D01*
X52128Y-22178D01*
X52109Y-22234D01*
X52071Y-22271D01*
X52034Y-22290D01*
X51959Y-22309D01*
X51903Y-22309D01*
X51828Y-22290D01*
X51790Y-22271D01*
X51753Y-22234D01*
X51734Y-22178D01*
X51734Y-22140D01*
X51753Y-22084D01*
X51771Y-22065D01*
X51734Y-21934D02*
X51734Y-21690D01*
X51884Y-21821D01*
X51884Y-21765D01*
X51903Y-21728D01*
X51921Y-21709D01*
X51959Y-21690D01*
X52053Y-21690D01*
X52090Y-21709D01*
X52109Y-21728D01*
X52128Y-21765D01*
X52128Y-21878D01*
X52109Y-21915D01*
X52090Y-21934D01*
X46934Y-26840D02*
X46915Y-26859D01*
X46859Y-26878D01*
X46821Y-26878D01*
X46765Y-26859D01*
X46728Y-26821D01*
X46709Y-26784D01*
X46690Y-26709D01*
X46690Y-26653D01*
X46709Y-26578D01*
X46728Y-26540D01*
X46765Y-26503D01*
X46821Y-26484D01*
X46859Y-26484D01*
X46915Y-26503D01*
X46934Y-26521D01*
X47271Y-26615D02*
X47271Y-26878D01*
X47178Y-26465D02*
X47084Y-26746D01*
X47328Y-26746D01*
X57540Y-21965D02*
X57559Y-21984D01*
X57578Y-22040D01*
X57578Y-22078D01*
X57559Y-22134D01*
X57521Y-22171D01*
X57484Y-22190D01*
X57409Y-22209D01*
X57353Y-22209D01*
X57278Y-22190D01*
X57240Y-22171D01*
X57203Y-22134D01*
X57184Y-22078D01*
X57184Y-22040D01*
X57203Y-21984D01*
X57221Y-21965D01*
X57353Y-21740D02*
X57334Y-21778D01*
X57315Y-21796D01*
X57278Y-21815D01*
X57259Y-21815D01*
X57221Y-21796D01*
X57203Y-21778D01*
X57184Y-21740D01*
X57184Y-21665D01*
X57203Y-21628D01*
X57221Y-21609D01*
X57259Y-21590D01*
X57278Y-21590D01*
X57315Y-21609D01*
X57334Y-21628D01*
X57353Y-21665D01*
X57353Y-21740D01*
X57371Y-21778D01*
X57390Y-21796D01*
X57428Y-21815D01*
X57503Y-21815D01*
X57540Y-21796D01*
X57559Y-21778D01*
X57578Y-21740D01*
X57578Y-21665D01*
X57559Y-21628D01*
X57540Y-21609D01*
X57503Y-21590D01*
X57428Y-21590D01*
X57390Y-21609D01*
X57371Y-21628D01*
X57353Y-21665D01*
X50090Y-20065D02*
X50109Y-20084D01*
X50128Y-20140D01*
X50128Y-20178D01*
X50109Y-20234D01*
X50071Y-20271D01*
X50034Y-20290D01*
X49959Y-20309D01*
X49903Y-20309D01*
X49828Y-20290D01*
X49790Y-20271D01*
X49753Y-20234D01*
X49734Y-20178D01*
X49734Y-20140D01*
X49753Y-20084D01*
X49771Y-20065D01*
X50128Y-19878D02*
X50128Y-19803D01*
X50109Y-19765D01*
X50090Y-19746D01*
X50034Y-19709D01*
X49959Y-19690D01*
X49809Y-19690D01*
X49771Y-19709D01*
X49753Y-19728D01*
X49734Y-19765D01*
X49734Y-19840D01*
X49753Y-19878D01*
X49771Y-19896D01*
X49809Y-19915D01*
X49903Y-19915D01*
X49940Y-19896D01*
X49959Y-19878D01*
X49978Y-19840D01*
X49978Y-19765D01*
X49959Y-19728D01*
X49940Y-19709D01*
X49903Y-19690D01*
X66546Y-34840D02*
X66528Y-34859D01*
X66471Y-34878D01*
X66434Y-34878D01*
X66378Y-34859D01*
X66340Y-34821D01*
X66321Y-34784D01*
X66303Y-34709D01*
X66303Y-34653D01*
X66321Y-34578D01*
X66340Y-34540D01*
X66378Y-34503D01*
X66434Y-34484D01*
X66471Y-34484D01*
X66528Y-34503D01*
X66546Y-34521D01*
X66921Y-34878D02*
X66696Y-34878D01*
X66809Y-34878D02*
X66809Y-34484D01*
X66771Y-34540D01*
X66734Y-34578D01*
X66696Y-34596D01*
X67165Y-34484D02*
X67203Y-34484D01*
X67240Y-34503D01*
X67259Y-34521D01*
X67278Y-34559D01*
X67296Y-34634D01*
X67296Y-34728D01*
X67278Y-34803D01*
X67259Y-34840D01*
X67240Y-34859D01*
X67203Y-34878D01*
X67165Y-34878D01*
X67128Y-34859D01*
X67109Y-34840D01*
X67090Y-34803D01*
X67071Y-34728D01*
X67071Y-34634D01*
X67090Y-34559D01*
X67109Y-34521D01*
X67128Y-34503D01*
X67165Y-34484D01*
X68940Y-34453D02*
X68959Y-34471D01*
X68978Y-34528D01*
X68978Y-34565D01*
X68959Y-34621D01*
X68921Y-34659D01*
X68884Y-34678D01*
X68809Y-34696D01*
X68753Y-34696D01*
X68678Y-34678D01*
X68640Y-34659D01*
X68603Y-34621D01*
X68584Y-34565D01*
X68584Y-34528D01*
X68603Y-34471D01*
X68621Y-34453D01*
X68978Y-34078D02*
X68978Y-34303D01*
X68978Y-34190D02*
X68584Y-34190D01*
X68640Y-34228D01*
X68678Y-34265D01*
X68696Y-34303D01*
X68621Y-33928D02*
X68603Y-33909D01*
X68584Y-33871D01*
X68584Y-33778D01*
X68603Y-33740D01*
X68621Y-33721D01*
X68659Y-33703D01*
X68696Y-33703D01*
X68753Y-33721D01*
X68978Y-33946D01*
X68978Y-33703D01*
X65546Y-26840D02*
X65528Y-26859D01*
X65471Y-26878D01*
X65434Y-26878D01*
X65378Y-26859D01*
X65340Y-26821D01*
X65321Y-26784D01*
X65303Y-26709D01*
X65303Y-26653D01*
X65321Y-26578D01*
X65340Y-26540D01*
X65378Y-26503D01*
X65434Y-26484D01*
X65471Y-26484D01*
X65528Y-26503D01*
X65546Y-26521D01*
X65921Y-26878D02*
X65696Y-26878D01*
X65809Y-26878D02*
X65809Y-26484D01*
X65771Y-26540D01*
X65734Y-26578D01*
X65696Y-26596D01*
X66259Y-26615D02*
X66259Y-26878D01*
X66165Y-26465D02*
X66071Y-26746D01*
X66315Y-26746D01*
X63190Y-34753D02*
X63209Y-34771D01*
X63228Y-34828D01*
X63228Y-34865D01*
X63209Y-34921D01*
X63171Y-34959D01*
X63134Y-34978D01*
X63059Y-34996D01*
X63003Y-34996D01*
X62928Y-34978D01*
X62890Y-34959D01*
X62853Y-34921D01*
X62834Y-34865D01*
X62834Y-34828D01*
X62853Y-34771D01*
X62871Y-34753D01*
X63228Y-34378D02*
X63228Y-34603D01*
X63228Y-34490D02*
X62834Y-34490D01*
X62890Y-34528D01*
X62928Y-34565D01*
X62946Y-34603D01*
X62834Y-34021D02*
X62834Y-34209D01*
X63021Y-34228D01*
X63003Y-34209D01*
X62984Y-34171D01*
X62984Y-34078D01*
X63003Y-34040D01*
X63021Y-34021D01*
X63059Y-34003D01*
X63153Y-34003D01*
X63190Y-34021D01*
X63209Y-34040D01*
X63228Y-34078D01*
X63228Y-34171D01*
X63209Y-34209D01*
X63190Y-34228D01*
X62746Y-26340D02*
X62728Y-26359D01*
X62671Y-26378D01*
X62634Y-26378D01*
X62578Y-26359D01*
X62540Y-26321D01*
X62521Y-26284D01*
X62503Y-26209D01*
X62503Y-26153D01*
X62521Y-26078D01*
X62540Y-26040D01*
X62578Y-26003D01*
X62634Y-25984D01*
X62671Y-25984D01*
X62728Y-26003D01*
X62746Y-26021D01*
X63121Y-26378D02*
X62896Y-26378D01*
X63009Y-26378D02*
X63009Y-25984D01*
X62971Y-26040D01*
X62934Y-26078D01*
X62896Y-26096D01*
X63459Y-25984D02*
X63384Y-25984D01*
X63346Y-26003D01*
X63328Y-26021D01*
X63290Y-26078D01*
X63271Y-26153D01*
X63271Y-26303D01*
X63290Y-26340D01*
X63309Y-26359D01*
X63346Y-26378D01*
X63421Y-26378D01*
X63459Y-26359D01*
X63478Y-26340D01*
X63496Y-26303D01*
X63496Y-26209D01*
X63478Y-26171D01*
X63459Y-26153D01*
X63421Y-26134D01*
X63346Y-26134D01*
X63309Y-26153D01*
X63290Y-26171D01*
X63271Y-26209D01*
X65646Y-19640D02*
X65628Y-19659D01*
X65571Y-19678D01*
X65534Y-19678D01*
X65478Y-19659D01*
X65440Y-19621D01*
X65421Y-19584D01*
X65403Y-19509D01*
X65403Y-19453D01*
X65421Y-19378D01*
X65440Y-19340D01*
X65478Y-19303D01*
X65534Y-19284D01*
X65571Y-19284D01*
X65628Y-19303D01*
X65646Y-19321D01*
X66021Y-19678D02*
X65796Y-19678D01*
X65909Y-19678D02*
X65909Y-19284D01*
X65871Y-19340D01*
X65834Y-19378D01*
X65796Y-19396D01*
X66153Y-19284D02*
X66415Y-19284D01*
X66246Y-19678D01*
X74240Y-19303D02*
X74259Y-19321D01*
X74278Y-19378D01*
X74278Y-19415D01*
X74259Y-19471D01*
X74221Y-19509D01*
X74184Y-19528D01*
X74109Y-19546D01*
X74053Y-19546D01*
X73978Y-19528D01*
X73940Y-19509D01*
X73903Y-19471D01*
X73884Y-19415D01*
X73884Y-19378D01*
X73903Y-19321D01*
X73921Y-19303D01*
X74278Y-18928D02*
X74278Y-19153D01*
X74278Y-19040D02*
X73884Y-19040D01*
X73940Y-19078D01*
X73978Y-19115D01*
X73996Y-19153D01*
X74278Y-18740D02*
X74278Y-18665D01*
X74259Y-18628D01*
X74240Y-18609D01*
X74184Y-18571D01*
X74109Y-18553D01*
X73959Y-18553D01*
X73921Y-18571D01*
X73903Y-18590D01*
X73884Y-18628D01*
X73884Y-18703D01*
X73903Y-18740D01*
X73921Y-18759D01*
X73959Y-18778D01*
X74053Y-18778D01*
X74090Y-18759D01*
X74109Y-18740D01*
X74128Y-18703D01*
X74128Y-18628D01*
X74109Y-18590D01*
X74090Y-18571D01*
X74053Y-18553D01*
X55246Y-35640D02*
X55228Y-35659D01*
X55171Y-35678D01*
X55134Y-35678D01*
X55078Y-35659D01*
X55040Y-35621D01*
X55021Y-35584D01*
X55003Y-35509D01*
X55003Y-35453D01*
X55021Y-35378D01*
X55040Y-35340D01*
X55078Y-35303D01*
X55134Y-35284D01*
X55171Y-35284D01*
X55228Y-35303D01*
X55246Y-35321D01*
X55396Y-35321D02*
X55415Y-35303D01*
X55453Y-35284D01*
X55546Y-35284D01*
X55584Y-35303D01*
X55603Y-35321D01*
X55621Y-35359D01*
X55621Y-35396D01*
X55603Y-35453D01*
X55378Y-35678D01*
X55621Y-35678D01*
X55996Y-35678D02*
X55771Y-35678D01*
X55884Y-35678D02*
X55884Y-35284D01*
X55846Y-35340D01*
X55809Y-35378D01*
X55771Y-35396D01*
X65046Y-36640D02*
X65028Y-36659D01*
X64971Y-36678D01*
X64934Y-36678D01*
X64878Y-36659D01*
X64840Y-36621D01*
X64821Y-36584D01*
X64803Y-36509D01*
X64803Y-36453D01*
X64821Y-36378D01*
X64840Y-36340D01*
X64878Y-36303D01*
X64934Y-36284D01*
X64971Y-36284D01*
X65028Y-36303D01*
X65046Y-36321D01*
X65196Y-36321D02*
X65215Y-36303D01*
X65253Y-36284D01*
X65346Y-36284D01*
X65384Y-36303D01*
X65403Y-36321D01*
X65421Y-36359D01*
X65421Y-36396D01*
X65403Y-36453D01*
X65178Y-36678D01*
X65421Y-36678D01*
X65571Y-36321D02*
X65590Y-36303D01*
X65628Y-36284D01*
X65721Y-36284D01*
X65759Y-36303D01*
X65778Y-36321D01*
X65796Y-36359D01*
X65796Y-36396D01*
X65778Y-36453D01*
X65553Y-36678D01*
X65796Y-36678D01*
X65046Y-35740D02*
X65028Y-35759D01*
X64971Y-35778D01*
X64934Y-35778D01*
X64878Y-35759D01*
X64840Y-35721D01*
X64821Y-35684D01*
X64803Y-35609D01*
X64803Y-35553D01*
X64821Y-35478D01*
X64840Y-35440D01*
X64878Y-35403D01*
X64934Y-35384D01*
X64971Y-35384D01*
X65028Y-35403D01*
X65046Y-35421D01*
X65196Y-35421D02*
X65215Y-35403D01*
X65253Y-35384D01*
X65346Y-35384D01*
X65384Y-35403D01*
X65403Y-35421D01*
X65421Y-35459D01*
X65421Y-35496D01*
X65403Y-35553D01*
X65178Y-35778D01*
X65421Y-35778D01*
X65553Y-35384D02*
X65796Y-35384D01*
X65665Y-35534D01*
X65721Y-35534D01*
X65759Y-35553D01*
X65778Y-35571D01*
X65796Y-35609D01*
X65796Y-35703D01*
X65778Y-35740D01*
X65759Y-35759D01*
X65721Y-35778D01*
X65609Y-35778D01*
X65571Y-35759D01*
X65553Y-35740D01*
X51646Y-38040D02*
X51628Y-38059D01*
X51571Y-38078D01*
X51534Y-38078D01*
X51478Y-38059D01*
X51440Y-38021D01*
X51421Y-37984D01*
X51403Y-37909D01*
X51403Y-37853D01*
X51421Y-37778D01*
X51440Y-37740D01*
X51478Y-37703D01*
X51534Y-37684D01*
X51571Y-37684D01*
X51628Y-37703D01*
X51646Y-37721D01*
X51796Y-37721D02*
X51815Y-37703D01*
X51853Y-37684D01*
X51946Y-37684D01*
X51984Y-37703D01*
X52003Y-37721D01*
X52021Y-37759D01*
X52021Y-37796D01*
X52003Y-37853D01*
X51778Y-38078D01*
X52021Y-38078D01*
X52359Y-37815D02*
X52359Y-38078D01*
X52265Y-37665D02*
X52171Y-37946D01*
X52415Y-37946D01*
X51646Y-40040D02*
X51628Y-40059D01*
X51571Y-40078D01*
X51534Y-40078D01*
X51478Y-40059D01*
X51440Y-40021D01*
X51421Y-39984D01*
X51403Y-39909D01*
X51403Y-39853D01*
X51421Y-39778D01*
X51440Y-39740D01*
X51478Y-39703D01*
X51534Y-39684D01*
X51571Y-39684D01*
X51628Y-39703D01*
X51646Y-39721D01*
X51796Y-39721D02*
X51815Y-39703D01*
X51853Y-39684D01*
X51946Y-39684D01*
X51984Y-39703D01*
X52003Y-39721D01*
X52021Y-39759D01*
X52021Y-39796D01*
X52003Y-39853D01*
X51778Y-40078D01*
X52021Y-40078D01*
X52378Y-39684D02*
X52190Y-39684D01*
X52171Y-39871D01*
X52190Y-39853D01*
X52228Y-39834D01*
X52321Y-39834D01*
X52359Y-39853D01*
X52378Y-39871D01*
X52396Y-39909D01*
X52396Y-40003D01*
X52378Y-40040D01*
X52359Y-40059D01*
X52321Y-40078D01*
X52228Y-40078D01*
X52190Y-40059D01*
X52171Y-40040D01*
X58959Y-49178D02*
X58959Y-48784D01*
X59053Y-48784D01*
X59109Y-48803D01*
X59146Y-48840D01*
X59165Y-48878D01*
X59184Y-48953D01*
X59184Y-49009D01*
X59165Y-49084D01*
X59146Y-49121D01*
X59109Y-49159D01*
X59053Y-49178D01*
X58959Y-49178D01*
X59315Y-48784D02*
X59578Y-48784D01*
X59409Y-49178D01*
X59246Y-46178D02*
X59115Y-45990D01*
X59021Y-46178D02*
X59021Y-45784D01*
X59171Y-45784D01*
X59209Y-45803D01*
X59228Y-45821D01*
X59246Y-45859D01*
X59246Y-45915D01*
X59228Y-45953D01*
X59209Y-45971D01*
X59171Y-45990D01*
X59021Y-45990D01*
X59396Y-45821D02*
X59415Y-45803D01*
X59453Y-45784D01*
X59546Y-45784D01*
X59584Y-45803D01*
X59603Y-45821D01*
X59621Y-45859D01*
X59621Y-45896D01*
X59603Y-45953D01*
X59378Y-46178D01*
X59621Y-46178D01*
X59996Y-46178D02*
X59771Y-46178D01*
X59884Y-46178D02*
X59884Y-45784D01*
X59846Y-45840D01*
X59809Y-45878D01*
X59771Y-45896D01*
X59246Y-45178D02*
X59115Y-44990D01*
X59021Y-45178D02*
X59021Y-44784D01*
X59171Y-44784D01*
X59209Y-44803D01*
X59228Y-44821D01*
X59246Y-44859D01*
X59246Y-44915D01*
X59228Y-44953D01*
X59209Y-44971D01*
X59171Y-44990D01*
X59021Y-44990D01*
X59396Y-44821D02*
X59415Y-44803D01*
X59453Y-44784D01*
X59546Y-44784D01*
X59584Y-44803D01*
X59603Y-44821D01*
X59621Y-44859D01*
X59621Y-44896D01*
X59603Y-44953D01*
X59378Y-45178D01*
X59621Y-45178D01*
X59771Y-44821D02*
X59790Y-44803D01*
X59828Y-44784D01*
X59921Y-44784D01*
X59959Y-44803D01*
X59978Y-44821D01*
X59996Y-44859D01*
X59996Y-44896D01*
X59978Y-44953D01*
X59753Y-45178D01*
X59996Y-45178D01*
X59246Y-47178D02*
X59115Y-46990D01*
X59021Y-47178D02*
X59021Y-46784D01*
X59171Y-46784D01*
X59209Y-46803D01*
X59228Y-46821D01*
X59246Y-46859D01*
X59246Y-46915D01*
X59228Y-46953D01*
X59209Y-46971D01*
X59171Y-46990D01*
X59021Y-46990D01*
X59396Y-46821D02*
X59415Y-46803D01*
X59453Y-46784D01*
X59546Y-46784D01*
X59584Y-46803D01*
X59603Y-46821D01*
X59621Y-46859D01*
X59621Y-46896D01*
X59603Y-46953D01*
X59378Y-47178D01*
X59621Y-47178D01*
X59753Y-46784D02*
X59996Y-46784D01*
X59865Y-46934D01*
X59921Y-46934D01*
X59959Y-46953D01*
X59978Y-46971D01*
X59996Y-47009D01*
X59996Y-47103D01*
X59978Y-47140D01*
X59959Y-47159D01*
X59921Y-47178D01*
X59809Y-47178D01*
X59771Y-47159D01*
X59753Y-47140D01*
X72840Y-34265D02*
X72859Y-34284D01*
X72878Y-34340D01*
X72878Y-34378D01*
X72859Y-34434D01*
X72821Y-34471D01*
X72784Y-34490D01*
X72709Y-34509D01*
X72653Y-34509D01*
X72578Y-34490D01*
X72540Y-34471D01*
X72503Y-34434D01*
X72484Y-34378D01*
X72484Y-34340D01*
X72503Y-34284D01*
X72521Y-34265D01*
X72484Y-33928D02*
X72484Y-34003D01*
X72503Y-34040D01*
X72521Y-34059D01*
X72578Y-34096D01*
X72653Y-34115D01*
X72803Y-34115D01*
X72840Y-34096D01*
X72859Y-34078D01*
X72878Y-34040D01*
X72878Y-33965D01*
X72859Y-33928D01*
X72840Y-33909D01*
X72803Y-33890D01*
X72709Y-33890D01*
X72671Y-33909D01*
X72653Y-33928D01*
X72634Y-33965D01*
X72634Y-34040D01*
X72653Y-34078D01*
X72671Y-34096D01*
X72709Y-34115D01*
X62246Y-50178D02*
X62115Y-49990D01*
X62021Y-50178D02*
X62021Y-49784D01*
X62171Y-49784D01*
X62209Y-49803D01*
X62228Y-49821D01*
X62246Y-49859D01*
X62246Y-49915D01*
X62228Y-49953D01*
X62209Y-49971D01*
X62171Y-49990D01*
X62021Y-49990D01*
X62396Y-49821D02*
X62415Y-49803D01*
X62453Y-49784D01*
X62546Y-49784D01*
X62584Y-49803D01*
X62603Y-49821D01*
X62621Y-49859D01*
X62621Y-49896D01*
X62603Y-49953D01*
X62378Y-50178D01*
X62621Y-50178D01*
X62753Y-49784D02*
X63015Y-49784D01*
X62846Y-50178D01*
X62003Y-50965D02*
X62003Y-51228D01*
X61909Y-50815D02*
X61815Y-51096D01*
X62059Y-51096D01*
X62171Y-50834D02*
X62434Y-50834D01*
X62265Y-51228D01*
X62659Y-50834D02*
X62696Y-50834D01*
X62734Y-50853D01*
X62753Y-50871D01*
X62771Y-50909D01*
X62790Y-50984D01*
X62790Y-51078D01*
X62771Y-51153D01*
X62753Y-51190D01*
X62734Y-51209D01*
X62696Y-51228D01*
X62659Y-51228D01*
X62621Y-51209D01*
X62603Y-51190D01*
X62584Y-51153D01*
X62565Y-51078D01*
X62565Y-50984D01*
X62584Y-50909D01*
X62603Y-50871D01*
X62621Y-50853D01*
X62659Y-50834D01*
X63184Y-51228D02*
X63053Y-51040D01*
X62959Y-51228D02*
X62959Y-50834D01*
X63109Y-50834D01*
X63146Y-50853D01*
X63165Y-50871D01*
X63184Y-50909D01*
X63184Y-50965D01*
X63165Y-51003D01*
X63146Y-51021D01*
X63109Y-51040D01*
X62959Y-51040D01*
X69246Y-50178D02*
X69115Y-49990D01*
X69021Y-50178D02*
X69021Y-49784D01*
X69171Y-49784D01*
X69209Y-49803D01*
X69228Y-49821D01*
X69246Y-49859D01*
X69246Y-49915D01*
X69228Y-49953D01*
X69209Y-49971D01*
X69171Y-49990D01*
X69021Y-49990D01*
X69396Y-49821D02*
X69415Y-49803D01*
X69453Y-49784D01*
X69546Y-49784D01*
X69584Y-49803D01*
X69603Y-49821D01*
X69621Y-49859D01*
X69621Y-49896D01*
X69603Y-49953D01*
X69378Y-50178D01*
X69621Y-50178D01*
X69959Y-49784D02*
X69884Y-49784D01*
X69846Y-49803D01*
X69828Y-49821D01*
X69790Y-49878D01*
X69771Y-49953D01*
X69771Y-50103D01*
X69790Y-50140D01*
X69809Y-50159D01*
X69846Y-50178D01*
X69921Y-50178D01*
X69959Y-50159D01*
X69978Y-50140D01*
X69996Y-50103D01*
X69996Y-50009D01*
X69978Y-49971D01*
X69959Y-49953D01*
X69921Y-49934D01*
X69846Y-49934D01*
X69809Y-49953D01*
X69790Y-49971D01*
X69771Y-50009D01*
X69003Y-50965D02*
X69003Y-51228D01*
X68909Y-50815D02*
X68815Y-51096D01*
X69059Y-51096D01*
X69171Y-50834D02*
X69434Y-50834D01*
X69265Y-51228D01*
X69659Y-50834D02*
X69696Y-50834D01*
X69734Y-50853D01*
X69753Y-50871D01*
X69771Y-50909D01*
X69790Y-50984D01*
X69790Y-51078D01*
X69771Y-51153D01*
X69753Y-51190D01*
X69734Y-51209D01*
X69696Y-51228D01*
X69659Y-51228D01*
X69621Y-51209D01*
X69603Y-51190D01*
X69584Y-51153D01*
X69565Y-51078D01*
X69565Y-50984D01*
X69584Y-50909D01*
X69603Y-50871D01*
X69621Y-50853D01*
X69659Y-50834D01*
X70184Y-51228D02*
X70053Y-51040D01*
X69959Y-51228D02*
X69959Y-50834D01*
X70109Y-50834D01*
X70146Y-50853D01*
X70165Y-50871D01*
X70184Y-50909D01*
X70184Y-50965D01*
X70165Y-51003D01*
X70146Y-51021D01*
X70109Y-51040D01*
X69959Y-51040D01*
X75878Y-49753D02*
X75690Y-49884D01*
X75878Y-49978D02*
X75484Y-49978D01*
X75484Y-49828D01*
X75503Y-49790D01*
X75521Y-49771D01*
X75559Y-49753D01*
X75615Y-49753D01*
X75653Y-49771D01*
X75671Y-49790D01*
X75690Y-49828D01*
X75690Y-49978D01*
X75521Y-49603D02*
X75503Y-49584D01*
X75484Y-49546D01*
X75484Y-49453D01*
X75503Y-49415D01*
X75521Y-49396D01*
X75559Y-49378D01*
X75596Y-49378D01*
X75653Y-49396D01*
X75878Y-49621D01*
X75878Y-49378D01*
X75484Y-49021D02*
X75484Y-49209D01*
X75671Y-49228D01*
X75653Y-49209D01*
X75634Y-49171D01*
X75634Y-49078D01*
X75653Y-49040D01*
X75671Y-49021D01*
X75709Y-49003D01*
X75803Y-49003D01*
X75840Y-49021D01*
X75859Y-49040D01*
X75878Y-49078D01*
X75878Y-49171D01*
X75859Y-49209D01*
X75840Y-49228D01*
X74715Y-49996D02*
X74978Y-49996D01*
X74565Y-50090D02*
X74846Y-50184D01*
X74846Y-49940D01*
X74584Y-49828D02*
X74584Y-49565D01*
X74978Y-49734D01*
X74584Y-49340D02*
X74584Y-49303D01*
X74603Y-49265D01*
X74621Y-49246D01*
X74659Y-49228D01*
X74734Y-49209D01*
X74828Y-49209D01*
X74903Y-49228D01*
X74940Y-49246D01*
X74959Y-49265D01*
X74978Y-49303D01*
X74978Y-49340D01*
X74959Y-49378D01*
X74940Y-49396D01*
X74903Y-49415D01*
X74828Y-49434D01*
X74734Y-49434D01*
X74659Y-49415D01*
X74621Y-49396D01*
X74603Y-49378D01*
X74584Y-49340D01*
X74978Y-48815D02*
X74790Y-48946D01*
X74978Y-49040D02*
X74584Y-49040D01*
X74584Y-48890D01*
X74603Y-48853D01*
X74621Y-48834D01*
X74659Y-48815D01*
X74715Y-48815D01*
X74753Y-48834D01*
X74771Y-48853D01*
X74790Y-48890D01*
X74790Y-49040D01*
X55746Y-50178D02*
X55615Y-49990D01*
X55521Y-50178D02*
X55521Y-49784D01*
X55671Y-49784D01*
X55709Y-49803D01*
X55728Y-49821D01*
X55746Y-49859D01*
X55746Y-49915D01*
X55728Y-49953D01*
X55709Y-49971D01*
X55671Y-49990D01*
X55521Y-49990D01*
X55896Y-49821D02*
X55915Y-49803D01*
X55953Y-49784D01*
X56046Y-49784D01*
X56084Y-49803D01*
X56103Y-49821D01*
X56121Y-49859D01*
X56121Y-49896D01*
X56103Y-49953D01*
X55878Y-50178D01*
X56121Y-50178D01*
X56459Y-49915D02*
X56459Y-50178D01*
X56365Y-49765D02*
X56271Y-50046D01*
X56515Y-50046D01*
X55503Y-50965D02*
X55503Y-51228D01*
X55409Y-50815D02*
X55315Y-51096D01*
X55559Y-51096D01*
X55671Y-50834D02*
X55934Y-50834D01*
X55765Y-51228D01*
X56159Y-50834D02*
X56196Y-50834D01*
X56234Y-50853D01*
X56253Y-50871D01*
X56271Y-50909D01*
X56290Y-50984D01*
X56290Y-51078D01*
X56271Y-51153D01*
X56253Y-51190D01*
X56234Y-51209D01*
X56196Y-51228D01*
X56159Y-51228D01*
X56121Y-51209D01*
X56103Y-51190D01*
X56084Y-51153D01*
X56065Y-51078D01*
X56065Y-50984D01*
X56084Y-50909D01*
X56103Y-50871D01*
X56121Y-50853D01*
X56159Y-50834D01*
X56684Y-51228D02*
X56553Y-51040D01*
X56459Y-51228D02*
X56459Y-50834D01*
X56609Y-50834D01*
X56646Y-50853D01*
X56665Y-50871D01*
X56684Y-50909D01*
X56684Y-50965D01*
X56665Y-51003D01*
X56646Y-51021D01*
X56609Y-51040D01*
X56459Y-51040D01*
X58746Y-25978D02*
X58615Y-25790D01*
X58521Y-25978D02*
X58521Y-25584D01*
X58671Y-25584D01*
X58709Y-25603D01*
X58728Y-25621D01*
X58746Y-25659D01*
X58746Y-25715D01*
X58728Y-25753D01*
X58709Y-25771D01*
X58671Y-25790D01*
X58521Y-25790D01*
X58896Y-25621D02*
X58915Y-25603D01*
X58953Y-25584D01*
X59046Y-25584D01*
X59084Y-25603D01*
X59103Y-25621D01*
X59121Y-25659D01*
X59121Y-25696D01*
X59103Y-25753D01*
X58878Y-25978D01*
X59121Y-25978D01*
X59365Y-25584D02*
X59403Y-25584D01*
X59440Y-25603D01*
X59459Y-25621D01*
X59478Y-25659D01*
X59496Y-25734D01*
X59496Y-25828D01*
X59478Y-25903D01*
X59459Y-25940D01*
X59440Y-25959D01*
X59403Y-25978D01*
X59365Y-25978D01*
X59328Y-25959D01*
X59309Y-25940D01*
X59290Y-25903D01*
X59271Y-25828D01*
X59271Y-25734D01*
X59290Y-25659D01*
X59309Y-25621D01*
X59328Y-25603D01*
X59365Y-25584D01*
X58728Y-26928D02*
X58503Y-26928D01*
X58615Y-26928D02*
X58615Y-26534D01*
X58578Y-26590D01*
X58540Y-26628D01*
X58503Y-26646D01*
X58971Y-26534D02*
X59009Y-26534D01*
X59046Y-26553D01*
X59065Y-26571D01*
X59084Y-26609D01*
X59103Y-26684D01*
X59103Y-26778D01*
X59084Y-26853D01*
X59065Y-26890D01*
X59046Y-26909D01*
X59009Y-26928D01*
X58971Y-26928D01*
X58934Y-26909D01*
X58915Y-26890D01*
X58896Y-26853D01*
X58878Y-26778D01*
X58878Y-26684D01*
X58896Y-26609D01*
X58915Y-26571D01*
X58934Y-26553D01*
X58971Y-26534D01*
X59271Y-26928D02*
X59271Y-26534D01*
X59496Y-26928D02*
X59328Y-26703D01*
X59496Y-26534D02*
X59271Y-26759D01*
X68196Y-19878D02*
X68065Y-19690D01*
X67971Y-19878D02*
X67971Y-19484D01*
X68121Y-19484D01*
X68159Y-19503D01*
X68178Y-19521D01*
X68196Y-19559D01*
X68196Y-19615D01*
X68178Y-19653D01*
X68159Y-19671D01*
X68121Y-19690D01*
X67971Y-19690D01*
X68571Y-19878D02*
X68346Y-19878D01*
X68459Y-19878D02*
X68459Y-19484D01*
X68421Y-19540D01*
X68384Y-19578D01*
X68346Y-19596D01*
X68759Y-19878D02*
X68834Y-19878D01*
X68871Y-19859D01*
X68890Y-19840D01*
X68928Y-19784D01*
X68946Y-19709D01*
X68946Y-19559D01*
X68928Y-19521D01*
X68909Y-19503D01*
X68871Y-19484D01*
X68796Y-19484D01*
X68759Y-19503D01*
X68740Y-19521D01*
X68721Y-19559D01*
X68721Y-19653D01*
X68740Y-19690D01*
X68759Y-19709D01*
X68796Y-19728D01*
X68871Y-19728D01*
X68909Y-19709D01*
X68928Y-19690D01*
X68946Y-19653D01*
X68337Y-18828D02*
X68112Y-18828D01*
X68225Y-18828D02*
X68225Y-18434D01*
X68187Y-18490D01*
X68150Y-18528D01*
X68112Y-18546D01*
X68506Y-18828D02*
X68506Y-18434D01*
X68637Y-18715D01*
X68768Y-18434D01*
X68768Y-18828D01*
X62128Y-34753D02*
X61940Y-34884D01*
X62128Y-34978D02*
X61734Y-34978D01*
X61734Y-34828D01*
X61753Y-34790D01*
X61771Y-34771D01*
X61809Y-34753D01*
X61865Y-34753D01*
X61903Y-34771D01*
X61921Y-34790D01*
X61940Y-34828D01*
X61940Y-34978D01*
X62128Y-34378D02*
X62128Y-34603D01*
X62128Y-34490D02*
X61734Y-34490D01*
X61790Y-34528D01*
X61828Y-34565D01*
X61846Y-34603D01*
X61903Y-34153D02*
X61884Y-34190D01*
X61865Y-34209D01*
X61828Y-34228D01*
X61809Y-34228D01*
X61771Y-34209D01*
X61753Y-34190D01*
X61734Y-34153D01*
X61734Y-34078D01*
X61753Y-34040D01*
X61771Y-34021D01*
X61809Y-34003D01*
X61828Y-34003D01*
X61865Y-34021D01*
X61884Y-34040D01*
X61903Y-34078D01*
X61903Y-34153D01*
X61921Y-34190D01*
X61940Y-34209D01*
X61978Y-34228D01*
X62053Y-34228D01*
X62090Y-34209D01*
X62109Y-34190D01*
X62128Y-34153D01*
X62128Y-34078D01*
X62109Y-34040D01*
X62090Y-34021D01*
X62053Y-34003D01*
X61978Y-34003D01*
X61940Y-34021D01*
X61921Y-34040D01*
X61903Y-34078D01*
X61721Y-32496D02*
X61703Y-32478D01*
X61684Y-32440D01*
X61684Y-32346D01*
X61703Y-32309D01*
X61721Y-32290D01*
X61759Y-32271D01*
X61796Y-32271D01*
X61853Y-32290D01*
X62078Y-32515D01*
X62078Y-32271D01*
X62078Y-32103D02*
X61684Y-32103D01*
X62078Y-31878D02*
X61853Y-32046D01*
X61684Y-31878D02*
X61909Y-32103D01*
X61721Y-31728D02*
X61703Y-31709D01*
X61684Y-31671D01*
X61684Y-31578D01*
X61703Y-31540D01*
X61721Y-31521D01*
X61759Y-31503D01*
X61796Y-31503D01*
X61853Y-31521D01*
X62078Y-31746D01*
X62078Y-31503D01*
X61378Y-27653D02*
X61190Y-27784D01*
X61378Y-27878D02*
X60984Y-27878D01*
X60984Y-27728D01*
X61003Y-27690D01*
X61021Y-27671D01*
X61059Y-27653D01*
X61115Y-27653D01*
X61153Y-27671D01*
X61171Y-27690D01*
X61190Y-27728D01*
X61190Y-27878D01*
X61378Y-27278D02*
X61378Y-27503D01*
X61378Y-27390D02*
X60984Y-27390D01*
X61040Y-27428D01*
X61078Y-27465D01*
X61096Y-27503D01*
X60984Y-27146D02*
X60984Y-26884D01*
X61378Y-27053D01*
X61821Y-28496D02*
X61803Y-28478D01*
X61784Y-28440D01*
X61784Y-28346D01*
X61803Y-28309D01*
X61821Y-28290D01*
X61859Y-28271D01*
X61896Y-28271D01*
X61953Y-28290D01*
X62178Y-28515D01*
X62178Y-28271D01*
X62178Y-28103D02*
X61784Y-28103D01*
X62178Y-27878D02*
X61953Y-28046D01*
X61784Y-27878D02*
X62009Y-28103D01*
X61821Y-27728D02*
X61803Y-27709D01*
X61784Y-27671D01*
X61784Y-27578D01*
X61803Y-27540D01*
X61821Y-27521D01*
X61859Y-27503D01*
X61896Y-27503D01*
X61953Y-27521D01*
X62178Y-27746D01*
X62178Y-27503D01*
X64428Y-22503D02*
X64240Y-22634D01*
X64428Y-22728D02*
X64034Y-22728D01*
X64034Y-22578D01*
X64053Y-22540D01*
X64071Y-22521D01*
X64109Y-22503D01*
X64165Y-22503D01*
X64203Y-22521D01*
X64221Y-22540D01*
X64240Y-22578D01*
X64240Y-22728D01*
X64428Y-22128D02*
X64428Y-22353D01*
X64428Y-22240D02*
X64034Y-22240D01*
X64090Y-22278D01*
X64128Y-22315D01*
X64146Y-22353D01*
X64034Y-21790D02*
X64034Y-21865D01*
X64053Y-21903D01*
X64071Y-21921D01*
X64128Y-21959D01*
X64203Y-21978D01*
X64353Y-21978D01*
X64390Y-21959D01*
X64409Y-21940D01*
X64428Y-21903D01*
X64428Y-21828D01*
X64409Y-21790D01*
X64390Y-21771D01*
X64353Y-21753D01*
X64259Y-21753D01*
X64221Y-21771D01*
X64203Y-21790D01*
X64184Y-21828D01*
X64184Y-21903D01*
X64203Y-21940D01*
X64221Y-21959D01*
X64259Y-21978D01*
X64121Y-24996D02*
X64103Y-24978D01*
X64084Y-24940D01*
X64084Y-24846D01*
X64103Y-24809D01*
X64121Y-24790D01*
X64159Y-24771D01*
X64196Y-24771D01*
X64253Y-24790D01*
X64478Y-25015D01*
X64478Y-24771D01*
X64478Y-24603D02*
X64084Y-24603D01*
X64478Y-24378D02*
X64253Y-24546D01*
X64084Y-24378D02*
X64309Y-24603D01*
X64121Y-24228D02*
X64103Y-24209D01*
X64084Y-24171D01*
X64084Y-24078D01*
X64103Y-24040D01*
X64121Y-24021D01*
X64159Y-24003D01*
X64196Y-24003D01*
X64253Y-24021D01*
X64478Y-24246D01*
X64478Y-24003D01*
X65428Y-22503D02*
X65240Y-22634D01*
X65428Y-22728D02*
X65034Y-22728D01*
X65034Y-22578D01*
X65053Y-22540D01*
X65071Y-22521D01*
X65109Y-22503D01*
X65165Y-22503D01*
X65203Y-22521D01*
X65221Y-22540D01*
X65240Y-22578D01*
X65240Y-22728D01*
X65428Y-22128D02*
X65428Y-22353D01*
X65428Y-22240D02*
X65034Y-22240D01*
X65090Y-22278D01*
X65128Y-22315D01*
X65146Y-22353D01*
X65034Y-21771D02*
X65034Y-21959D01*
X65221Y-21978D01*
X65203Y-21959D01*
X65184Y-21921D01*
X65184Y-21828D01*
X65203Y-21790D01*
X65221Y-21771D01*
X65259Y-21753D01*
X65353Y-21753D01*
X65390Y-21771D01*
X65409Y-21790D01*
X65428Y-21828D01*
X65428Y-21921D01*
X65409Y-21959D01*
X65390Y-21978D01*
X65121Y-24996D02*
X65103Y-24978D01*
X65084Y-24940D01*
X65084Y-24846D01*
X65103Y-24809D01*
X65121Y-24790D01*
X65159Y-24771D01*
X65196Y-24771D01*
X65253Y-24790D01*
X65478Y-25015D01*
X65478Y-24771D01*
X65478Y-24603D02*
X65084Y-24603D01*
X65478Y-24378D02*
X65253Y-24546D01*
X65084Y-24378D02*
X65309Y-24603D01*
X65121Y-24228D02*
X65103Y-24209D01*
X65084Y-24171D01*
X65084Y-24078D01*
X65103Y-24040D01*
X65121Y-24021D01*
X65159Y-24003D01*
X65196Y-24003D01*
X65253Y-24021D01*
X65478Y-24246D01*
X65478Y-24003D01*
X70878Y-34953D02*
X70690Y-35084D01*
X70878Y-35178D02*
X70484Y-35178D01*
X70484Y-35028D01*
X70503Y-34990D01*
X70521Y-34971D01*
X70559Y-34953D01*
X70615Y-34953D01*
X70653Y-34971D01*
X70671Y-34990D01*
X70690Y-35028D01*
X70690Y-35178D01*
X70878Y-34578D02*
X70878Y-34803D01*
X70878Y-34690D02*
X70484Y-34690D01*
X70540Y-34728D01*
X70578Y-34765D01*
X70596Y-34803D01*
X70615Y-34240D02*
X70878Y-34240D01*
X70465Y-34334D02*
X70746Y-34428D01*
X70746Y-34184D01*
X70978Y-32271D02*
X70978Y-32496D01*
X70978Y-32384D02*
X70584Y-32384D01*
X70640Y-32421D01*
X70678Y-32459D01*
X70696Y-32496D01*
X70584Y-32028D02*
X70584Y-31990D01*
X70603Y-31953D01*
X70621Y-31934D01*
X70659Y-31915D01*
X70734Y-31896D01*
X70828Y-31896D01*
X70903Y-31915D01*
X70940Y-31934D01*
X70959Y-31953D01*
X70978Y-31990D01*
X70978Y-32028D01*
X70959Y-32065D01*
X70940Y-32084D01*
X70903Y-32103D01*
X70828Y-32121D01*
X70734Y-32121D01*
X70659Y-32103D01*
X70621Y-32084D01*
X70603Y-32065D01*
X70584Y-32028D01*
X70978Y-31728D02*
X70584Y-31728D01*
X70978Y-31503D02*
X70753Y-31671D01*
X70584Y-31503D02*
X70809Y-31728D01*
X69878Y-34953D02*
X69690Y-35084D01*
X69878Y-35178D02*
X69484Y-35178D01*
X69484Y-35028D01*
X69503Y-34990D01*
X69521Y-34971D01*
X69559Y-34953D01*
X69615Y-34953D01*
X69653Y-34971D01*
X69671Y-34990D01*
X69690Y-35028D01*
X69690Y-35178D01*
X69878Y-34578D02*
X69878Y-34803D01*
X69878Y-34690D02*
X69484Y-34690D01*
X69540Y-34728D01*
X69578Y-34765D01*
X69596Y-34803D01*
X69484Y-34446D02*
X69484Y-34203D01*
X69634Y-34334D01*
X69634Y-34278D01*
X69653Y-34240D01*
X69671Y-34221D01*
X69709Y-34203D01*
X69803Y-34203D01*
X69840Y-34221D01*
X69859Y-34240D01*
X69878Y-34278D01*
X69878Y-34390D01*
X69859Y-34428D01*
X69840Y-34446D01*
X69978Y-32459D02*
X69978Y-32684D01*
X69978Y-32571D02*
X69584Y-32571D01*
X69640Y-32609D01*
X69678Y-32646D01*
X69696Y-32684D01*
X69584Y-32215D02*
X69584Y-32178D01*
X69603Y-32140D01*
X69621Y-32121D01*
X69659Y-32103D01*
X69734Y-32084D01*
X69828Y-32084D01*
X69903Y-32103D01*
X69940Y-32121D01*
X69959Y-32140D01*
X69978Y-32178D01*
X69978Y-32215D01*
X69959Y-32253D01*
X69940Y-32271D01*
X69903Y-32290D01*
X69828Y-32309D01*
X69734Y-32309D01*
X69659Y-32290D01*
X69621Y-32271D01*
X69603Y-32253D01*
X69584Y-32215D01*
X69584Y-31840D02*
X69584Y-31803D01*
X69603Y-31765D01*
X69621Y-31746D01*
X69659Y-31728D01*
X69734Y-31709D01*
X69828Y-31709D01*
X69903Y-31728D01*
X69940Y-31746D01*
X69959Y-31765D01*
X69978Y-31803D01*
X69978Y-31840D01*
X69959Y-31878D01*
X69940Y-31896D01*
X69903Y-31915D01*
X69828Y-31934D01*
X69734Y-31934D01*
X69659Y-31915D01*
X69621Y-31896D01*
X69603Y-31878D01*
X69584Y-31840D01*
X69978Y-31540D02*
X69584Y-31540D01*
X69978Y-31315D02*
X69753Y-31484D01*
X69584Y-31315D02*
X69809Y-31540D01*
X49128Y-19753D02*
X48940Y-19884D01*
X49128Y-19978D02*
X48734Y-19978D01*
X48734Y-19828D01*
X48753Y-19790D01*
X48771Y-19771D01*
X48809Y-19753D01*
X48865Y-19753D01*
X48903Y-19771D01*
X48921Y-19790D01*
X48940Y-19828D01*
X48940Y-19978D01*
X49128Y-19378D02*
X49128Y-19603D01*
X49128Y-19490D02*
X48734Y-19490D01*
X48790Y-19528D01*
X48828Y-19565D01*
X48846Y-19603D01*
X48771Y-19228D02*
X48753Y-19209D01*
X48734Y-19171D01*
X48734Y-19078D01*
X48753Y-19040D01*
X48771Y-19021D01*
X48809Y-19003D01*
X48846Y-19003D01*
X48903Y-19021D01*
X49128Y-19246D01*
X49128Y-19003D01*
X49078Y-22271D02*
X49078Y-22496D01*
X49078Y-22384D02*
X48684Y-22384D01*
X48740Y-22421D01*
X48778Y-22459D01*
X48796Y-22496D01*
X48684Y-22028D02*
X48684Y-21990D01*
X48703Y-21953D01*
X48721Y-21934D01*
X48759Y-21915D01*
X48834Y-21896D01*
X48928Y-21896D01*
X49003Y-21915D01*
X49040Y-21934D01*
X49059Y-21953D01*
X49078Y-21990D01*
X49078Y-22028D01*
X49059Y-22065D01*
X49040Y-22084D01*
X49003Y-22103D01*
X48928Y-22121D01*
X48834Y-22121D01*
X48759Y-22103D01*
X48721Y-22084D01*
X48703Y-22065D01*
X48684Y-22028D01*
X49078Y-21503D02*
X48890Y-21634D01*
X49078Y-21728D02*
X48684Y-21728D01*
X48684Y-21578D01*
X48703Y-21540D01*
X48721Y-21521D01*
X48759Y-21503D01*
X48815Y-21503D01*
X48853Y-21521D01*
X48871Y-21540D01*
X48890Y-21578D01*
X48890Y-21728D01*
X71978Y-34953D02*
X71790Y-35084D01*
X71978Y-35178D02*
X71584Y-35178D01*
X71584Y-35028D01*
X71603Y-34990D01*
X71621Y-34971D01*
X71659Y-34953D01*
X71715Y-34953D01*
X71753Y-34971D01*
X71771Y-34990D01*
X71790Y-35028D01*
X71790Y-35178D01*
X71978Y-34578D02*
X71978Y-34803D01*
X71978Y-34690D02*
X71584Y-34690D01*
X71640Y-34728D01*
X71678Y-34765D01*
X71696Y-34803D01*
X71978Y-34203D02*
X71978Y-34428D01*
X71978Y-34315D02*
X71584Y-34315D01*
X71640Y-34353D01*
X71678Y-34390D01*
X71696Y-34428D01*
X71878Y-32084D02*
X71878Y-32309D01*
X71878Y-32196D02*
X71484Y-32196D01*
X71540Y-32234D01*
X71578Y-32271D01*
X71596Y-32309D01*
X71878Y-31915D02*
X71484Y-31915D01*
X71878Y-31690D02*
X71653Y-31859D01*
X71484Y-31690D02*
X71709Y-31915D01*
X42178Y-22053D02*
X41990Y-22184D01*
X42178Y-22278D02*
X41784Y-22278D01*
X41784Y-22128D01*
X41803Y-22090D01*
X41821Y-22071D01*
X41859Y-22053D01*
X41915Y-22053D01*
X41953Y-22071D01*
X41971Y-22090D01*
X41990Y-22128D01*
X41990Y-22278D01*
X42178Y-21678D02*
X42178Y-21903D01*
X42178Y-21790D02*
X41784Y-21790D01*
X41840Y-21828D01*
X41878Y-21865D01*
X41896Y-21903D01*
X41784Y-21434D02*
X41784Y-21396D01*
X41803Y-21359D01*
X41821Y-21340D01*
X41859Y-21321D01*
X41934Y-21303D01*
X42028Y-21303D01*
X42103Y-21321D01*
X42140Y-21340D01*
X42159Y-21359D01*
X42178Y-21396D01*
X42178Y-21434D01*
X42159Y-21471D01*
X42140Y-21490D01*
X42103Y-21509D01*
X42028Y-21528D01*
X41934Y-21528D01*
X41859Y-21509D01*
X41821Y-21490D01*
X41803Y-21471D01*
X41784Y-21434D01*
X42721Y-22496D02*
X42703Y-22478D01*
X42684Y-22440D01*
X42684Y-22346D01*
X42703Y-22309D01*
X42721Y-22290D01*
X42759Y-22271D01*
X42796Y-22271D01*
X42853Y-22290D01*
X43078Y-22515D01*
X43078Y-22271D01*
X43078Y-22103D02*
X42684Y-22103D01*
X43078Y-21878D02*
X42853Y-22046D01*
X42684Y-21878D02*
X42909Y-22103D01*
X42721Y-21728D02*
X42703Y-21709D01*
X42684Y-21671D01*
X42684Y-21578D01*
X42703Y-21540D01*
X42721Y-21521D01*
X42759Y-21503D01*
X42796Y-21503D01*
X42853Y-21521D01*
X43078Y-21746D01*
X43078Y-21503D01*
X71434Y-27378D02*
X71303Y-27190D01*
X71209Y-27378D02*
X71209Y-26984D01*
X71359Y-26984D01*
X71396Y-27003D01*
X71415Y-27021D01*
X71434Y-27059D01*
X71434Y-27115D01*
X71415Y-27153D01*
X71396Y-27171D01*
X71359Y-27190D01*
X71209Y-27190D01*
X71621Y-27378D02*
X71696Y-27378D01*
X71734Y-27359D01*
X71753Y-27340D01*
X71790Y-27284D01*
X71809Y-27209D01*
X71809Y-27059D01*
X71790Y-27021D01*
X71771Y-27003D01*
X71734Y-26984D01*
X71659Y-26984D01*
X71621Y-27003D01*
X71603Y-27021D01*
X71584Y-27059D01*
X71584Y-27153D01*
X71603Y-27190D01*
X71621Y-27209D01*
X71659Y-27228D01*
X71734Y-27228D01*
X71771Y-27209D01*
X71790Y-27190D01*
X71809Y-27153D01*
X73165Y-27271D02*
X73184Y-27253D01*
X73221Y-27234D01*
X73315Y-27234D01*
X73353Y-27253D01*
X73371Y-27271D01*
X73390Y-27309D01*
X73390Y-27346D01*
X73371Y-27403D01*
X73146Y-27628D01*
X73390Y-27628D01*
X73540Y-27271D02*
X73559Y-27253D01*
X73596Y-27234D01*
X73690Y-27234D01*
X73728Y-27253D01*
X73746Y-27271D01*
X73765Y-27309D01*
X73765Y-27346D01*
X73746Y-27403D01*
X73521Y-27628D01*
X73765Y-27628D01*
X74009Y-27234D02*
X74046Y-27234D01*
X74084Y-27253D01*
X74103Y-27271D01*
X74121Y-27309D01*
X74140Y-27384D01*
X74140Y-27478D01*
X74121Y-27553D01*
X74103Y-27590D01*
X74084Y-27609D01*
X74046Y-27628D01*
X74009Y-27628D01*
X73971Y-27609D01*
X73953Y-27590D01*
X73934Y-27553D01*
X73915Y-27478D01*
X73915Y-27384D01*
X73934Y-27309D01*
X73953Y-27271D01*
X73971Y-27253D01*
X74009Y-27234D01*
X74309Y-27628D02*
X74309Y-27234D01*
X74534Y-27628D02*
X74365Y-27403D01*
X74534Y-27234D02*
X74309Y-27459D01*
X48934Y-50178D02*
X48803Y-49990D01*
X48709Y-50178D02*
X48709Y-49784D01*
X48859Y-49784D01*
X48896Y-49803D01*
X48915Y-49821D01*
X48934Y-49859D01*
X48934Y-49915D01*
X48915Y-49953D01*
X48896Y-49971D01*
X48859Y-49990D01*
X48709Y-49990D01*
X49159Y-49953D02*
X49121Y-49934D01*
X49103Y-49915D01*
X49084Y-49878D01*
X49084Y-49859D01*
X49103Y-49821D01*
X49121Y-49803D01*
X49159Y-49784D01*
X49234Y-49784D01*
X49271Y-49803D01*
X49290Y-49821D01*
X49309Y-49859D01*
X49309Y-49878D01*
X49290Y-49915D01*
X49271Y-49934D01*
X49234Y-49953D01*
X49159Y-49953D01*
X49121Y-49971D01*
X49103Y-49990D01*
X49084Y-50028D01*
X49084Y-50103D01*
X49103Y-50140D01*
X49121Y-50159D01*
X49159Y-50178D01*
X49234Y-50178D01*
X49271Y-50159D01*
X49290Y-50140D01*
X49309Y-50103D01*
X49309Y-50028D01*
X49290Y-49990D01*
X49271Y-49971D01*
X49234Y-49953D01*
X48503Y-50965D02*
X48503Y-51228D01*
X48409Y-50815D02*
X48315Y-51096D01*
X48559Y-51096D01*
X48671Y-50834D02*
X48934Y-50834D01*
X48765Y-51228D01*
X49159Y-50834D02*
X49196Y-50834D01*
X49234Y-50853D01*
X49253Y-50871D01*
X49271Y-50909D01*
X49290Y-50984D01*
X49290Y-51078D01*
X49271Y-51153D01*
X49253Y-51190D01*
X49234Y-51209D01*
X49196Y-51228D01*
X49159Y-51228D01*
X49121Y-51209D01*
X49103Y-51190D01*
X49084Y-51153D01*
X49065Y-51078D01*
X49065Y-50984D01*
X49084Y-50909D01*
X49103Y-50871D01*
X49121Y-50853D01*
X49159Y-50834D01*
X49684Y-51228D02*
X49553Y-51040D01*
X49459Y-51228D02*
X49459Y-50834D01*
X49609Y-50834D01*
X49646Y-50853D01*
X49665Y-50871D01*
X49684Y-50909D01*
X49684Y-50965D01*
X49665Y-51003D01*
X49646Y-51021D01*
X49609Y-51040D01*
X49459Y-51040D01*
X73834Y-29678D02*
X73703Y-29490D01*
X73609Y-29678D02*
X73609Y-29284D01*
X73759Y-29284D01*
X73796Y-29303D01*
X73815Y-29321D01*
X73834Y-29359D01*
X73834Y-29415D01*
X73815Y-29453D01*
X73796Y-29471D01*
X73759Y-29490D01*
X73609Y-29490D01*
X73965Y-29284D02*
X74228Y-29284D01*
X74059Y-29678D01*
X73737Y-28728D02*
X73512Y-28728D01*
X73625Y-28728D02*
X73625Y-28334D01*
X73587Y-28390D01*
X73550Y-28428D01*
X73512Y-28446D01*
X73906Y-28728D02*
X73906Y-28334D01*
X74037Y-28615D01*
X74168Y-28334D01*
X74168Y-28728D01*
X68078Y-27865D02*
X67890Y-27996D01*
X68078Y-28090D02*
X67684Y-28090D01*
X67684Y-27940D01*
X67703Y-27903D01*
X67721Y-27884D01*
X67759Y-27865D01*
X67815Y-27865D01*
X67853Y-27884D01*
X67871Y-27903D01*
X67890Y-27940D01*
X67890Y-28090D01*
X67684Y-27528D02*
X67684Y-27603D01*
X67703Y-27640D01*
X67721Y-27659D01*
X67778Y-27696D01*
X67853Y-27715D01*
X68003Y-27715D01*
X68040Y-27696D01*
X68059Y-27678D01*
X68078Y-27640D01*
X68078Y-27565D01*
X68059Y-27528D01*
X68040Y-27509D01*
X68003Y-27490D01*
X67909Y-27490D01*
X67871Y-27509D01*
X67853Y-27528D01*
X67834Y-27565D01*
X67834Y-27640D01*
X67853Y-27678D01*
X67871Y-27696D01*
X67909Y-27715D01*
X68978Y-28378D02*
X68790Y-28509D01*
X68978Y-28603D02*
X68584Y-28603D01*
X68584Y-28453D01*
X68603Y-28415D01*
X68621Y-28396D01*
X68659Y-28378D01*
X68715Y-28378D01*
X68753Y-28396D01*
X68771Y-28415D01*
X68790Y-28453D01*
X68790Y-28603D01*
X49634Y-24978D02*
X49503Y-24790D01*
X49409Y-24978D02*
X49409Y-24584D01*
X49559Y-24584D01*
X49596Y-24603D01*
X49615Y-24621D01*
X49634Y-24659D01*
X49634Y-24715D01*
X49615Y-24753D01*
X49596Y-24771D01*
X49559Y-24790D01*
X49409Y-24790D01*
X49990Y-24584D02*
X49803Y-24584D01*
X49784Y-24771D01*
X49803Y-24753D01*
X49840Y-24734D01*
X49934Y-24734D01*
X49971Y-24753D01*
X49990Y-24771D01*
X50009Y-24809D01*
X50009Y-24903D01*
X49990Y-24940D01*
X49971Y-24959D01*
X49934Y-24978D01*
X49840Y-24978D01*
X49803Y-24959D01*
X49784Y-24940D01*
X46728Y-25028D02*
X46503Y-25028D01*
X46615Y-25028D02*
X46615Y-24634D01*
X46578Y-24690D01*
X46540Y-24728D01*
X46503Y-24746D01*
X46971Y-24634D02*
X47009Y-24634D01*
X47046Y-24653D01*
X47065Y-24671D01*
X47084Y-24709D01*
X47103Y-24784D01*
X47103Y-24878D01*
X47084Y-24953D01*
X47065Y-24990D01*
X47046Y-25009D01*
X47009Y-25028D01*
X46971Y-25028D01*
X46934Y-25009D01*
X46915Y-24990D01*
X46896Y-24953D01*
X46878Y-24878D01*
X46878Y-24784D01*
X46896Y-24709D01*
X46915Y-24671D01*
X46934Y-24653D01*
X46971Y-24634D01*
X47271Y-25028D02*
X47271Y-24634D01*
X47496Y-25028D02*
X47328Y-24803D01*
X47496Y-24634D02*
X47271Y-24859D01*
X73784Y-23678D02*
X73653Y-23490D01*
X73559Y-23678D02*
X73559Y-23284D01*
X73709Y-23284D01*
X73746Y-23303D01*
X73765Y-23321D01*
X73784Y-23359D01*
X73784Y-23415D01*
X73765Y-23453D01*
X73746Y-23471D01*
X73709Y-23490D01*
X73559Y-23490D01*
X74121Y-23415D02*
X74121Y-23678D01*
X74028Y-23265D02*
X73934Y-23546D01*
X74178Y-23546D01*
X73578Y-24728D02*
X73353Y-24728D01*
X73465Y-24728D02*
X73465Y-24334D01*
X73428Y-24390D01*
X73390Y-24428D01*
X73353Y-24446D01*
X73821Y-24334D02*
X73859Y-24334D01*
X73896Y-24353D01*
X73915Y-24371D01*
X73934Y-24409D01*
X73953Y-24484D01*
X73953Y-24578D01*
X73934Y-24653D01*
X73915Y-24690D01*
X73896Y-24709D01*
X73859Y-24728D01*
X73821Y-24728D01*
X73784Y-24709D01*
X73765Y-24690D01*
X73746Y-24653D01*
X73728Y-24578D01*
X73728Y-24484D01*
X73746Y-24409D01*
X73765Y-24371D01*
X73784Y-24353D01*
X73821Y-24334D01*
X74121Y-24728D02*
X74121Y-24334D01*
X74346Y-24728D02*
X74178Y-24503D01*
X74346Y-24334D02*
X74121Y-24559D01*
X67634Y-27078D02*
X67503Y-26890D01*
X67409Y-27078D02*
X67409Y-26684D01*
X67559Y-26684D01*
X67596Y-26703D01*
X67615Y-26721D01*
X67634Y-26759D01*
X67634Y-26815D01*
X67615Y-26853D01*
X67596Y-26871D01*
X67559Y-26890D01*
X67409Y-26890D01*
X67765Y-26684D02*
X68009Y-26684D01*
X67878Y-26834D01*
X67934Y-26834D01*
X67971Y-26853D01*
X67990Y-26871D01*
X68009Y-26909D01*
X68009Y-27003D01*
X67990Y-27040D01*
X67971Y-27059D01*
X67934Y-27078D01*
X67821Y-27078D01*
X67784Y-27059D01*
X67765Y-27040D01*
X68478Y-26228D02*
X68253Y-26228D01*
X68365Y-26228D02*
X68365Y-25834D01*
X68328Y-25890D01*
X68290Y-25928D01*
X68253Y-25946D01*
X68721Y-25834D02*
X68759Y-25834D01*
X68796Y-25853D01*
X68815Y-25871D01*
X68834Y-25909D01*
X68853Y-25984D01*
X68853Y-26078D01*
X68834Y-26153D01*
X68815Y-26190D01*
X68796Y-26209D01*
X68759Y-26228D01*
X68721Y-26228D01*
X68684Y-26209D01*
X68665Y-26190D01*
X68646Y-26153D01*
X68628Y-26078D01*
X68628Y-25984D01*
X68646Y-25909D01*
X68665Y-25871D01*
X68684Y-25853D01*
X68721Y-25834D01*
X69021Y-26228D02*
X69021Y-25834D01*
X69246Y-26228D02*
X69078Y-26003D01*
X69246Y-25834D02*
X69021Y-26059D01*
X55278Y-32265D02*
X55090Y-32396D01*
X55278Y-32490D02*
X54884Y-32490D01*
X54884Y-32340D01*
X54903Y-32303D01*
X54921Y-32284D01*
X54959Y-32265D01*
X55015Y-32265D01*
X55053Y-32284D01*
X55071Y-32303D01*
X55090Y-32340D01*
X55090Y-32490D01*
X54921Y-32115D02*
X54903Y-32096D01*
X54884Y-32059D01*
X54884Y-31965D01*
X54903Y-31928D01*
X54921Y-31909D01*
X54959Y-31890D01*
X54996Y-31890D01*
X55053Y-31909D01*
X55278Y-32134D01*
X55278Y-31890D01*
X56128Y-31271D02*
X56128Y-31496D01*
X56128Y-31384D02*
X55734Y-31384D01*
X55790Y-31421D01*
X55828Y-31459D01*
X55846Y-31496D01*
X55734Y-31028D02*
X55734Y-30990D01*
X55753Y-30953D01*
X55771Y-30934D01*
X55809Y-30915D01*
X55884Y-30896D01*
X55978Y-30896D01*
X56053Y-30915D01*
X56090Y-30934D01*
X56109Y-30953D01*
X56128Y-30990D01*
X56128Y-31028D01*
X56109Y-31065D01*
X56090Y-31084D01*
X56053Y-31103D01*
X55978Y-31121D01*
X55884Y-31121D01*
X55809Y-31103D01*
X55771Y-31084D01*
X55753Y-31065D01*
X55734Y-31028D01*
X56128Y-30728D02*
X55734Y-30728D01*
X56128Y-30503D02*
X55903Y-30671D01*
X55734Y-30503D02*
X55959Y-30728D01*
X66428Y-22315D02*
X66240Y-22446D01*
X66428Y-22540D02*
X66034Y-22540D01*
X66034Y-22390D01*
X66053Y-22353D01*
X66071Y-22334D01*
X66109Y-22315D01*
X66165Y-22315D01*
X66203Y-22334D01*
X66221Y-22353D01*
X66240Y-22390D01*
X66240Y-22540D01*
X66428Y-21940D02*
X66428Y-22165D01*
X66428Y-22053D02*
X66034Y-22053D01*
X66090Y-22090D01*
X66128Y-22128D01*
X66146Y-22165D01*
X66478Y-24771D02*
X66478Y-24996D01*
X66478Y-24884D02*
X66084Y-24884D01*
X66140Y-24921D01*
X66178Y-24959D01*
X66196Y-24996D01*
X66084Y-24528D02*
X66084Y-24490D01*
X66103Y-24453D01*
X66121Y-24434D01*
X66159Y-24415D01*
X66234Y-24396D01*
X66328Y-24396D01*
X66403Y-24415D01*
X66440Y-24434D01*
X66459Y-24453D01*
X66478Y-24490D01*
X66478Y-24528D01*
X66459Y-24565D01*
X66440Y-24584D01*
X66403Y-24603D01*
X66328Y-24621D01*
X66234Y-24621D01*
X66159Y-24603D01*
X66121Y-24584D01*
X66103Y-24565D01*
X66084Y-24528D01*
X66478Y-24228D02*
X66084Y-24228D01*
X66478Y-24003D02*
X66253Y-24171D01*
X66084Y-24003D02*
X66309Y-24228D01*
X55175Y-52159D02*
X55231Y-52178D01*
X55325Y-52178D01*
X55362Y-52159D01*
X55381Y-52140D01*
X55400Y-52103D01*
X55400Y-52065D01*
X55381Y-52028D01*
X55362Y-52009D01*
X55325Y-51990D01*
X55250Y-51971D01*
X55212Y-51953D01*
X55193Y-51934D01*
X55175Y-51896D01*
X55175Y-51859D01*
X55193Y-51821D01*
X55212Y-51803D01*
X55250Y-51784D01*
X55343Y-51784D01*
X55400Y-51803D01*
X55531Y-51784D02*
X55625Y-52178D01*
X55700Y-51896D01*
X55774Y-52178D01*
X55868Y-51784D01*
X56224Y-52178D02*
X55999Y-52178D01*
X56112Y-52178D02*
X56112Y-51784D01*
X56074Y-51840D01*
X56037Y-51878D01*
X55999Y-51896D01*
X51215Y-54809D02*
X51272Y-54828D01*
X51365Y-54828D01*
X51403Y-54809D01*
X51422Y-54790D01*
X51440Y-54753D01*
X51440Y-54715D01*
X51422Y-54678D01*
X51403Y-54659D01*
X51365Y-54640D01*
X51290Y-54621D01*
X51253Y-54603D01*
X51234Y-54584D01*
X51215Y-54546D01*
X51215Y-54509D01*
X51234Y-54471D01*
X51253Y-54453D01*
X51290Y-54434D01*
X51384Y-54434D01*
X51440Y-54453D01*
X51571Y-54434D02*
X51665Y-54828D01*
X51740Y-54546D01*
X51815Y-54828D01*
X51909Y-54434D01*
X51965Y-54865D02*
X52265Y-54865D01*
X52359Y-54828D02*
X52359Y-54434D01*
X52509Y-54434D01*
X52546Y-54453D01*
X52565Y-54471D01*
X52584Y-54509D01*
X52584Y-54565D01*
X52565Y-54603D01*
X52546Y-54621D01*
X52509Y-54640D01*
X52359Y-54640D01*
X52753Y-54434D02*
X52753Y-54753D01*
X52771Y-54790D01*
X52790Y-54809D01*
X52828Y-54828D01*
X52903Y-54828D01*
X52940Y-54809D01*
X52959Y-54790D01*
X52978Y-54753D01*
X52978Y-54434D01*
X53146Y-54809D02*
X53203Y-54828D01*
X53296Y-54828D01*
X53334Y-54809D01*
X53353Y-54790D01*
X53371Y-54753D01*
X53371Y-54715D01*
X53353Y-54678D01*
X53334Y-54659D01*
X53296Y-54640D01*
X53221Y-54621D01*
X53184Y-54603D01*
X53165Y-54584D01*
X53146Y-54546D01*
X53146Y-54509D01*
X53165Y-54471D01*
X53184Y-54453D01*
X53221Y-54434D01*
X53315Y-54434D01*
X53371Y-54453D01*
X53540Y-54828D02*
X53540Y-54434D01*
X53540Y-54621D02*
X53765Y-54621D01*
X53765Y-54828D02*
X53765Y-54434D01*
X75475Y-52159D02*
X75531Y-52178D01*
X75625Y-52178D01*
X75662Y-52159D01*
X75681Y-52140D01*
X75700Y-52103D01*
X75700Y-52065D01*
X75681Y-52028D01*
X75662Y-52009D01*
X75625Y-51990D01*
X75550Y-51971D01*
X75512Y-51953D01*
X75493Y-51934D01*
X75475Y-51896D01*
X75475Y-51859D01*
X75493Y-51821D01*
X75512Y-51803D01*
X75550Y-51784D01*
X75643Y-51784D01*
X75700Y-51803D01*
X75831Y-51784D02*
X75925Y-52178D01*
X76000Y-51896D01*
X76074Y-52178D01*
X76168Y-51784D01*
X76299Y-51821D02*
X76318Y-51803D01*
X76356Y-51784D01*
X76449Y-51784D01*
X76487Y-51803D01*
X76506Y-51821D01*
X76524Y-51859D01*
X76524Y-51896D01*
X76506Y-51953D01*
X76281Y-52178D01*
X76524Y-52178D01*
X71465Y-54809D02*
X71522Y-54828D01*
X71615Y-54828D01*
X71653Y-54809D01*
X71672Y-54790D01*
X71690Y-54753D01*
X71690Y-54715D01*
X71672Y-54678D01*
X71653Y-54659D01*
X71615Y-54640D01*
X71540Y-54621D01*
X71503Y-54603D01*
X71484Y-54584D01*
X71465Y-54546D01*
X71465Y-54509D01*
X71484Y-54471D01*
X71503Y-54453D01*
X71540Y-54434D01*
X71634Y-54434D01*
X71690Y-54453D01*
X71821Y-54434D02*
X71915Y-54828D01*
X71990Y-54546D01*
X72065Y-54828D01*
X72159Y-54434D01*
X72215Y-54865D02*
X72515Y-54865D01*
X72609Y-54828D02*
X72609Y-54434D01*
X72759Y-54434D01*
X72796Y-54453D01*
X72815Y-54471D01*
X72834Y-54509D01*
X72834Y-54565D01*
X72815Y-54603D01*
X72796Y-54621D01*
X72759Y-54640D01*
X72609Y-54640D01*
X73003Y-54434D02*
X73003Y-54753D01*
X73021Y-54790D01*
X73040Y-54809D01*
X73078Y-54828D01*
X73153Y-54828D01*
X73190Y-54809D01*
X73209Y-54790D01*
X73228Y-54753D01*
X73228Y-54434D01*
X73396Y-54809D02*
X73453Y-54828D01*
X73546Y-54828D01*
X73584Y-54809D01*
X73603Y-54790D01*
X73621Y-54753D01*
X73621Y-54715D01*
X73603Y-54678D01*
X73584Y-54659D01*
X73546Y-54640D01*
X73471Y-54621D01*
X73434Y-54603D01*
X73415Y-54584D01*
X73396Y-54546D01*
X73396Y-54509D01*
X73415Y-54471D01*
X73434Y-54453D01*
X73471Y-54434D01*
X73565Y-54434D01*
X73621Y-54453D01*
X73790Y-54828D02*
X73790Y-54434D01*
X73790Y-54621D02*
X74015Y-54621D01*
X74015Y-54828D02*
X74015Y-54434D01*
X68675Y-52159D02*
X68731Y-52178D01*
X68825Y-52178D01*
X68862Y-52159D01*
X68881Y-52140D01*
X68900Y-52103D01*
X68900Y-52065D01*
X68881Y-52028D01*
X68862Y-52009D01*
X68825Y-51990D01*
X68750Y-51971D01*
X68712Y-51953D01*
X68693Y-51934D01*
X68675Y-51896D01*
X68675Y-51859D01*
X68693Y-51821D01*
X68712Y-51803D01*
X68750Y-51784D01*
X68843Y-51784D01*
X68900Y-51803D01*
X69031Y-51784D02*
X69125Y-52178D01*
X69200Y-51896D01*
X69274Y-52178D01*
X69368Y-51784D01*
X69481Y-51784D02*
X69724Y-51784D01*
X69593Y-51934D01*
X69649Y-51934D01*
X69687Y-51953D01*
X69706Y-51971D01*
X69724Y-52009D01*
X69724Y-52103D01*
X69706Y-52140D01*
X69687Y-52159D01*
X69649Y-52178D01*
X69537Y-52178D01*
X69499Y-52159D01*
X69481Y-52140D01*
X64715Y-54809D02*
X64772Y-54828D01*
X64865Y-54828D01*
X64903Y-54809D01*
X64922Y-54790D01*
X64940Y-54753D01*
X64940Y-54715D01*
X64922Y-54678D01*
X64903Y-54659D01*
X64865Y-54640D01*
X64790Y-54621D01*
X64753Y-54603D01*
X64734Y-54584D01*
X64715Y-54546D01*
X64715Y-54509D01*
X64734Y-54471D01*
X64753Y-54453D01*
X64790Y-54434D01*
X64884Y-54434D01*
X64940Y-54453D01*
X65071Y-54434D02*
X65165Y-54828D01*
X65240Y-54546D01*
X65315Y-54828D01*
X65409Y-54434D01*
X65465Y-54865D02*
X65765Y-54865D01*
X65859Y-54828D02*
X65859Y-54434D01*
X66009Y-54434D01*
X66046Y-54453D01*
X66065Y-54471D01*
X66084Y-54509D01*
X66084Y-54565D01*
X66065Y-54603D01*
X66046Y-54621D01*
X66009Y-54640D01*
X65859Y-54640D01*
X66253Y-54434D02*
X66253Y-54753D01*
X66271Y-54790D01*
X66290Y-54809D01*
X66328Y-54828D01*
X66403Y-54828D01*
X66440Y-54809D01*
X66459Y-54790D01*
X66478Y-54753D01*
X66478Y-54434D01*
X66646Y-54809D02*
X66703Y-54828D01*
X66796Y-54828D01*
X66834Y-54809D01*
X66853Y-54790D01*
X66871Y-54753D01*
X66871Y-54715D01*
X66853Y-54678D01*
X66834Y-54659D01*
X66796Y-54640D01*
X66721Y-54621D01*
X66684Y-54603D01*
X66665Y-54584D01*
X66646Y-54546D01*
X66646Y-54509D01*
X66665Y-54471D01*
X66684Y-54453D01*
X66721Y-54434D01*
X66815Y-54434D01*
X66871Y-54453D01*
X67040Y-54828D02*
X67040Y-54434D01*
X67040Y-54621D02*
X67265Y-54621D01*
X67265Y-54828D02*
X67265Y-54434D01*
X48475Y-52259D02*
X48531Y-52278D01*
X48625Y-52278D01*
X48662Y-52259D01*
X48681Y-52240D01*
X48700Y-52203D01*
X48700Y-52165D01*
X48681Y-52128D01*
X48662Y-52109D01*
X48625Y-52090D01*
X48550Y-52071D01*
X48512Y-52053D01*
X48493Y-52034D01*
X48475Y-51996D01*
X48475Y-51959D01*
X48493Y-51921D01*
X48512Y-51903D01*
X48550Y-51884D01*
X48643Y-51884D01*
X48700Y-51903D01*
X48831Y-51884D02*
X48925Y-52278D01*
X49000Y-51996D01*
X49074Y-52278D01*
X49168Y-51884D01*
X49487Y-52015D02*
X49487Y-52278D01*
X49393Y-51865D02*
X49299Y-52146D01*
X49543Y-52146D01*
X44465Y-54809D02*
X44522Y-54828D01*
X44615Y-54828D01*
X44653Y-54809D01*
X44672Y-54790D01*
X44690Y-54753D01*
X44690Y-54715D01*
X44672Y-54678D01*
X44653Y-54659D01*
X44615Y-54640D01*
X44540Y-54621D01*
X44503Y-54603D01*
X44484Y-54584D01*
X44465Y-54546D01*
X44465Y-54509D01*
X44484Y-54471D01*
X44503Y-54453D01*
X44540Y-54434D01*
X44634Y-54434D01*
X44690Y-54453D01*
X44821Y-54434D02*
X44915Y-54828D01*
X44990Y-54546D01*
X45065Y-54828D01*
X45159Y-54434D01*
X45215Y-54865D02*
X45515Y-54865D01*
X45609Y-54828D02*
X45609Y-54434D01*
X45759Y-54434D01*
X45796Y-54453D01*
X45815Y-54471D01*
X45834Y-54509D01*
X45834Y-54565D01*
X45815Y-54603D01*
X45796Y-54621D01*
X45759Y-54640D01*
X45609Y-54640D01*
X46003Y-54434D02*
X46003Y-54753D01*
X46021Y-54790D01*
X46040Y-54809D01*
X46078Y-54828D01*
X46153Y-54828D01*
X46190Y-54809D01*
X46209Y-54790D01*
X46228Y-54753D01*
X46228Y-54434D01*
X46396Y-54809D02*
X46453Y-54828D01*
X46546Y-54828D01*
X46584Y-54809D01*
X46603Y-54790D01*
X46621Y-54753D01*
X46621Y-54715D01*
X46603Y-54678D01*
X46584Y-54659D01*
X46546Y-54640D01*
X46471Y-54621D01*
X46434Y-54603D01*
X46415Y-54584D01*
X46396Y-54546D01*
X46396Y-54509D01*
X46415Y-54471D01*
X46434Y-54453D01*
X46471Y-54434D01*
X46565Y-54434D01*
X46621Y-54453D01*
X46790Y-54828D02*
X46790Y-54434D01*
X46790Y-54621D02*
X47015Y-54621D01*
X47015Y-54828D02*
X47015Y-54434D01*
X61875Y-52159D02*
X61931Y-52178D01*
X62025Y-52178D01*
X62062Y-52159D01*
X62081Y-52140D01*
X62100Y-52103D01*
X62100Y-52065D01*
X62081Y-52028D01*
X62062Y-52009D01*
X62025Y-51990D01*
X61950Y-51971D01*
X61912Y-51953D01*
X61893Y-51934D01*
X61875Y-51896D01*
X61875Y-51859D01*
X61893Y-51821D01*
X61912Y-51803D01*
X61950Y-51784D01*
X62043Y-51784D01*
X62100Y-51803D01*
X62231Y-51784D02*
X62325Y-52178D01*
X62400Y-51896D01*
X62474Y-52178D01*
X62568Y-51784D01*
X62906Y-51784D02*
X62718Y-51784D01*
X62699Y-51971D01*
X62718Y-51953D01*
X62756Y-51934D01*
X62849Y-51934D01*
X62887Y-51953D01*
X62906Y-51971D01*
X62924Y-52009D01*
X62924Y-52103D01*
X62906Y-52140D01*
X62887Y-52159D01*
X62849Y-52178D01*
X62756Y-52178D01*
X62718Y-52159D01*
X62699Y-52140D01*
X57965Y-54809D02*
X58022Y-54828D01*
X58115Y-54828D01*
X58153Y-54809D01*
X58172Y-54790D01*
X58190Y-54753D01*
X58190Y-54715D01*
X58172Y-54678D01*
X58153Y-54659D01*
X58115Y-54640D01*
X58040Y-54621D01*
X58003Y-54603D01*
X57984Y-54584D01*
X57965Y-54546D01*
X57965Y-54509D01*
X57984Y-54471D01*
X58003Y-54453D01*
X58040Y-54434D01*
X58134Y-54434D01*
X58190Y-54453D01*
X58321Y-54434D02*
X58415Y-54828D01*
X58490Y-54546D01*
X58565Y-54828D01*
X58659Y-54434D01*
X58715Y-54865D02*
X59015Y-54865D01*
X59109Y-54828D02*
X59109Y-54434D01*
X59259Y-54434D01*
X59296Y-54453D01*
X59315Y-54471D01*
X59334Y-54509D01*
X59334Y-54565D01*
X59315Y-54603D01*
X59296Y-54621D01*
X59259Y-54640D01*
X59109Y-54640D01*
X59503Y-54434D02*
X59503Y-54753D01*
X59521Y-54790D01*
X59540Y-54809D01*
X59578Y-54828D01*
X59653Y-54828D01*
X59690Y-54809D01*
X59709Y-54790D01*
X59728Y-54753D01*
X59728Y-54434D01*
X59896Y-54809D02*
X59953Y-54828D01*
X60046Y-54828D01*
X60084Y-54809D01*
X60103Y-54790D01*
X60121Y-54753D01*
X60121Y-54715D01*
X60103Y-54678D01*
X60084Y-54659D01*
X60046Y-54640D01*
X59971Y-54621D01*
X59934Y-54603D01*
X59915Y-54584D01*
X59896Y-54546D01*
X59896Y-54509D01*
X59915Y-54471D01*
X59934Y-54453D01*
X59971Y-54434D01*
X60065Y-54434D01*
X60121Y-54453D01*
X60290Y-54828D02*
X60290Y-54434D01*
X60290Y-54621D02*
X60515Y-54621D01*
X60515Y-54828D02*
X60515Y-54434D01*
X46428Y-36790D02*
X46034Y-36790D01*
X46034Y-36640D01*
X46053Y-36603D01*
X46071Y-36584D01*
X46109Y-36565D01*
X46165Y-36565D01*
X46203Y-36584D01*
X46221Y-36603D01*
X46240Y-36640D01*
X46240Y-36790D01*
X46165Y-36228D02*
X46428Y-36228D01*
X46015Y-36321D02*
X46296Y-36415D01*
X46296Y-36171D01*
X62009Y-23178D02*
X62009Y-22784D01*
X62159Y-22784D01*
X62196Y-22803D01*
X62215Y-22821D01*
X62234Y-22859D01*
X62234Y-22915D01*
X62215Y-22953D01*
X62196Y-22971D01*
X62159Y-22990D01*
X62009Y-22990D01*
X62590Y-22784D02*
X62403Y-22784D01*
X62384Y-22971D01*
X62403Y-22953D01*
X62440Y-22934D01*
X62534Y-22934D01*
X62571Y-22953D01*
X62590Y-22971D01*
X62609Y-23009D01*
X62609Y-23103D01*
X62590Y-23140D01*
X62571Y-23159D01*
X62534Y-23178D01*
X62440Y-23178D01*
X62403Y-23159D01*
X62384Y-23140D01*
X49740Y-48453D02*
X49759Y-48471D01*
X49778Y-48528D01*
X49778Y-48565D01*
X49759Y-48621D01*
X49721Y-48659D01*
X49684Y-48678D01*
X49609Y-48696D01*
X49553Y-48696D01*
X49478Y-48678D01*
X49440Y-48659D01*
X49403Y-48621D01*
X49384Y-48565D01*
X49384Y-48528D01*
X49403Y-48471D01*
X49421Y-48453D01*
X49421Y-48303D02*
X49403Y-48284D01*
X49384Y-48246D01*
X49384Y-48153D01*
X49403Y-48115D01*
X49421Y-48096D01*
X49459Y-48078D01*
X49496Y-48078D01*
X49553Y-48096D01*
X49778Y-48321D01*
X49778Y-48078D01*
X49384Y-47740D02*
X49384Y-47815D01*
X49403Y-47853D01*
X49421Y-47871D01*
X49478Y-47909D01*
X49553Y-47928D01*
X49703Y-47928D01*
X49740Y-47909D01*
X49759Y-47890D01*
X49778Y-47853D01*
X49778Y-47778D01*
X49759Y-47740D01*
X49740Y-47721D01*
X49703Y-47703D01*
X49609Y-47703D01*
X49571Y-47721D01*
X49553Y-47740D01*
X49534Y-47778D01*
X49534Y-47853D01*
X49553Y-47890D01*
X49571Y-47909D01*
X49609Y-47928D01*
M02*
